<svg xmlns="http://www.w3.org/2000/svg" xmlns:xlink="http://www.w3.org/1999/xlink" viewBox="0 0 360 360"><defs><style>.cls-1{fill:#f4364c;}.cls-2{fill:#fff;}.cls-3{fill:#c3c1ae;}.cls-4{isolation:isolate;}.cls-5,.cls-6{fill:#b5d0e1;}.cls-11,.cls-12,.cls-19,.cls-6,.cls-9{mix-blend-mode:multiply;}.cls-7{fill:#003c71;}.cls-8{fill:#4d779c;}.cls-9{fill:#b9bdc5;}.cls-10,.cls-11{fill:#dde5ed;}.cls-13{clip-path:url(#clip-path);}.cls-14{fill:#f77382;}.cls-15{fill:#563625;}.cls-16{fill:#eeede8;}.cls-17{clip-path:url(#clip-path-2);}.cls-18{fill:#97382e;}.cls-19{fill:#f5f7fa;}.cls-20{clip-path:url(#clip-path-3);}.cls-21{clip-path:url(#clip-path-4);}</style><clipPath id="clip-path"><path class="cls-1" d="M212.38,85.34c1.25,2,2.63,3.43,3.09,5.07a10.88,10.88,0,0,1-.16,5.15c-.62,2.77-2.48,5.16-4.5,7.31-3.27,3.48-5.72,3.72-9.87,2.66A20.06,20.06,0,0,1,189.75,98a3.71,3.71,0,0,1,0-5,12.23,12.23,0,0,0,2.47-5.25c.36-1.73,1.44-2,3.07-1,2.58,1.67,5.68,2.19,8.74,2.78a3.36,3.36,0,0,0,1.93-.45c1-.54,1.92-1.26,2.91-1.86S211,86.08,212.38,85.34Z"/></clipPath><clipPath id="clip-path-2"><path class="cls-1" d="M147.85,131.82c-2.91,4-7.09,6-12.13,7.24a10.32,10.32,0,0,1,0-2.3,75.63,75.63,0,0,0,2-15.75c.15-4,.31-8.06.47-12.2l7.56-4.44c.85,4.86,1.89,9.27,1.85,13.88S147.75,127.24,147.85,131.82Z"/></clipPath><clipPath id="clip-path-3"><path class="cls-2" d="M166.41,123.61c-1.48-2.92-3.48-3.11-6-.62-2.68,2.68-4,5.94-5,9.3a2.84,2.84,0,0,0,0,1.46,67.23,67.23,0,0,1-6.32,6.72l3.8,9.16c2.35-4.74,7.59-8.48,7.59-8.48h0a5.5,5.5,0,0,0,2-1.27,5.35,5.35,0,0,0,1.25-1.62,35.56,35.56,0,0,0,2.26-5.31c.67-2.38,1-4.82,1.39-6.88C167,125,166.75,124.26,166.41,123.61Z"/></clipPath><clipPath id="clip-path-4"><path class="cls-3" d="M135.84,146.25c1.07-.72,1.94-1.33,2.82-1.9,3.45-2.26,6.89-4.57,10.38-6.75,1.51-.94,2-.57,2.64,1.35s1.4,4,2.22,6a4,4,0,0,1-.24,4c-4,6.42-8.81,11.7-14.92,14.85-5,2.58-8.92,1.56-12.17-3.48a117.85,117.85,0,0,1-6.91-12.74c-2.2-4.58-4.21-9.31-6.07-14.11a94.46,94.46,0,0,1-3.06-9.92A55.16,55.16,0,0,1,109,116c-.53-4.38,2.14-10.57,7.58-11.38a5.16,5.16,0,0,1,4.51,1.68c3.18,3.09,5.15,7.25,6.54,11.75,2.16,7,4.06,14.15,6.09,21.23C134.4,141.52,135.09,143.74,135.84,146.25Z"/></clipPath></defs><title>consultant_webpage_preretirementcouple_icon_3C_191016</title><g class="cls-4"><g id="Background"><circle id="_27.62.111" data-name="27.62.111" class="cls-5" cx="180" cy="180" r="180"/></g><g id="Artwork"><path class="cls-6" d="M225.16,312.27s5.2-7,13-8.13,28.18-6.4,21.68-10.68S238.66,285.7,228,285.7s-26,2.6-45.66,0-43,.08-61.65,3.08S96.38,285.85,94,294.23s6.82,11.27,17.37,12.79,17.54-1.45,23.39,1.62,26.23,5,34.9,4,30.68-4.13,38.1-4.71S225.16,312.27,225.16,312.27Z"/><path class="cls-3" d="M151,103.07a10.61,10.61,0,0,1,9.91,7.72c2.6,7.78,7.29,37.28,7.66,41.84s-2,14.64-5.47,13.13C158.83,163.91,159.31,144.31,151,103.07Z"/><path d="M195.1,310.6l-.49-3.76a4.81,4.81,0,0,0-2.79,2.4c-1.6,2.6-4.24,3.2-6.78,3.75-4.76,1-9.57.51-14.35-.07.06-2.86.26-3.36,2.7-4.15a15.2,15.2,0,0,0,8.37-6.78,45.22,45.22,0,0,1,4.11-5.24,12.86,12.86,0,0,1,7.55-4.06c1.95-.38,3.95-.51,5.91-.84a1.66,1.66,0,0,1,2.1,1.22,18.26,18.26,0,0,1,1,9.48c-.24,1.67-.53,3.33-.8,5-.32,2-.77,2.39-2.83,2.61C197.71,310.26,196.65,310.4,195.1,310.6Z"/><path d="M209,310.63l.33-3.76a4.56,4.56,0,0,1,2.5,2.38c1.47,2.59,3.79,3.18,6,3.72,4.19,1,8.39.46,12.56-.14-.12-2.86-.31-3.36-2.47-4.13a14.22,14.22,0,0,1-7.49-6.73,46.12,46.12,0,0,0-3.73-5.21,11.19,11.19,0,0,0-6.71-4c-1.72-.37-3.47-.49-5.19-.81-1-.18-1.48.2-1.81,1.23a20.58,20.58,0,0,0-.6,9.48c.25,1.66.55,3.32.83,5,.33,2,.73,2.38,2.54,2.59C206.72,310.31,207.65,310.45,209,310.63Z"/><path class="cls-7" d="M202.63,293.33a3.36,3.36,0,0,0-2.52-.06c-2.93,1.06-5.86,2.15-8.86,3a18.61,18.61,0,0,1-7.46.7c-2-5.06-2-10.27-2.08-15.44-.12-8-.12-16-.23-24-.12-8.54-.26-17.09-.48-25.63-.14-5.56-.44-11.12-.67-16.68a6.93,6.93,0,0,0-.09-.83c-.61-3.74-1.23-7.47-1.87-11.32,2-.49,3.72-.91,5.47-1.37a41.69,41.69,0,0,0,15.21-7.64c.85-.66,1.78-1.24,2.58-2,3-2.72,6.23-2.23,9.51-1,2.82,1.08,5.6,2.28,8.37,3.49.54.24.94.83,1.47,1.13a3,3,0,0,1,1.41,2.47c.61,3.91.13,7.78-.18,11.66-.08,1-.3,2-.35,3q-.61,12.81-1.18,25.62c-.4,8.92-.65,17.85-1.2,26.76-.45,7.32.53,14.61-.06,21.92a57.81,57.81,0,0,0-.14,6.41C219.33,294.5,206.73,294.82,202.63,293.33Z"/><path class="cls-8" d="M202.33,294.23c-.14-1.69-.29-2.74-.3-3.81-.06-7.71-.13-15.43-.1-23.13,0-7.94.2-15.86.26-23.8.07-10.26.1-20.52.14-30.78,0-6,0-11.91.06-17.87,0-1.06.06-2.12.12-3.9a9.45,9.45,0,0,1,.42,1.67c.07,1.28.1,2.62.1,3.94q0,8.44,0,16.88,0,16.69-.06,33.38-.06,19.33-.17,38.66c0,2.19-.07,4.38-.13,6.55C202.64,292.56,202.51,293,202.33,294.23Z"/><path class="cls-9" d="M222.55,204.35l-.7,10.15s-10.15-4.65-19.36-4.8c-8.2-.13-22.07,7.5-22.07,7.5s-.51-8.85-2-13l24.11-6.43,13.36,1.08Z"/><path class="cls-2" d="M195.9,82.11s-1.12,4.89-1.65,6.12c0,0,2.91,4.43,10.53,3.39S212,86.95,212,86.95l-1.87-4.83Z"/><path class="cls-10" d="M215.36,90.6c5.2,3.71,12.47,7.15,17.32,10.61-2,9.44-3.92,19-5.09,28.69-.72,5.93-1.78,11.85-2.06,17.81a166,166,0,0,0,1.11,30.4c.66,4.84,1.46,9.66,2.22,14.49.1.61.76,11.53-1,11.71a40.3,40.3,0,0,1-13-.51c-4.94-1.11-9.54-6.92-13.76-4.47-8.37,4.87-17.55,5.3-26.9,4.61a6.45,6.45,0,0,1-1.59-.33c-2.82-1-3.43-1.74-3.35-4.72.05-1.9.37-3.78.53-5.68.37-4.24.66-8.49,1.09-12.72.8-7.84,1.67-15.67,2.54-23.51.34-3.05.77-6.09,1.21-9.53-3,4-10,17.64-13.66,20.73A4.24,4.24,0,0,1,158,164.7a19.88,19.88,0,0,1-.34-4.32c.77-10,6.62-28.87,6-38.85a24.75,24.75,0,0,1,.69-5.63c.63-3.65,1.32-7.29,2-10.93.49-2.51,2.21-3.83,4.55-4.52,4.91-1.45,7-2.71,12.37-4.75a47.4,47.4,0,0,0,8.47-4.08c3.9,1.4,6.49,2.9,10.54,3,2.28,0,4.59-.84,6.85-1.45C212.13,92.36,212.61,91.42,215.36,90.6Z"/><path class="cls-11" d="M176.1,130.44s0,15.27-1.16,17-10.53,16.07-12.48,17.87-2-3-2-7.77,7.44-11.74,10.22-13.68,4.65-19,6.14-20.66S176.1,130.44,176.1,130.44Z"/><path class="cls-10" d="M228.94,186.79a14.26,14.26,0,0,1-4-5.7c-1.09-3.16-2.45-6.19-2.8-9.61a27.11,27.11,0,0,1,.81-7.8c.67-3.65,1.66-7.24,2.47-10.86a8,8,0,0,0,.16-1.9,160.08,160.08,0,0,1,2.85-31.1c.76-4.28,1.07-8.63,1.58-13,.29-2.4.88-4.63,3.37-5.91,1.67.44,2.33,1.94,2.68,3.37a71.39,71.39,0,0,1,2.11,10.36c1.09,11.09,1.92,22.21,2.87,33.31.21,2.43.77,4.88.66,7.29-.19,4,0,8.17-1.39,12s-3.13,7.32-4.87,10.91a34.58,34.58,0,0,1-3.24,5.33A30.34,30.34,0,0,1,228.94,186.79Z"/><path class="cls-11" d="M203.63,198.8a4.41,4.41,0,0,1-2-3.72,163.32,163.32,0,0,1,.17-21.44c.37-5.91.47-11.84.7-17.76.07-1.91.23-3.81.26-5.72,0-1.71-.1-3.42-.13-5.13,0-2.77-.07-5.54-.07-8.31,0-3.71,0-7.42,0-11.13,0-4.5,0-9,0-13.5,0-2.1.12-4.2.21-6.29,0-.82.14-1.64.26-3.08a10.52,10.52,0,0,1,1.24,5.51c0,8.23,0,16.46,0,24.69,0,4.58.3,9.17.36,13.75.08,5.53.23,11.07.05,16.6-.25,7.62-.84,15.23-1.17,22.84-.12,2.75.15,5.52.2,8.28C203.75,195.68,203.67,197,203.63,198.8Z"/><path class="cls-2" d="M196.4,74c-3.52-.12-4.21-.79-5-3.9a8.51,8.51,0,0,1,.53-4.87,1.46,1.46,0,0,1,2.73-.27C195.84,67.76,196.78,70.7,196.4,74Z"/><path class="cls-11" d="M219.1,194.66c-3.2.11-6.39-.09-9.06-2.2a5.12,5.12,0,0,1-1.75-2.91A36.53,36.53,0,0,1,208,177c.58.4,1.11.58,1.24.92a5.65,5.65,0,0,1,.23,1.83c.1,2.86.32,5.73.23,8.59-.07,2.3,1.15,3.45,3,4.13a31.73,31.73,0,0,0,4,1c.81.18,1.62.33,2.44.49Z"/><path class="cls-11" d="M216.29,174.05c1.4-.08,2.32-.08,3,1a29,29,0,0,1,1.66,2.44,17.8,17.8,0,0,0,8.26,8.44,2.27,2.27,0,0,1-3.43.75,27,27,0,0,1-9.35-11C216.19,175.32,216.32,174.81,216.29,174.05Z"/><path class="cls-11" d="M186.7,172.48c-2.74,3.94-13.1,10.26-16.64,10.15.27-.46.38-1,.69-1.14q7.41-4.5,14.86-8.92C185.81,172.45,186.13,172.52,186.7,172.48Z"/><g class="cls-12"><path class="cls-10" d="M194.79,175.88c1.07,1.6,1.26,6.27.51,12-.33,2.52-.25,5.21-2.31,7.24Z"/><path class="cls-10" d="M181.87,197.83c.7-.27,1.44-.86,2.08-.75a21.25,21.25,0,0,0,8-.44C190.6,199.51,186.33,200.16,181.87,197.83Z"/></g><path class="cls-11" d="M227.82,123.21s2.81,26.45,4,29.42-.87,6-2.82,7.32-6.9,8.23-6.9,8.23,3.15-11.08,3-14.68.3-12.56.45-18.65A40.44,40.44,0,0,1,227.82,123.21Z"/><path class="cls-11" d="M189.22,96.14S193,108,203.14,109.34s13.08-6.27,13.61-7.26.86-9.63-1-11.23S189.22,96.14,189.22,96.14Z"/><path class="cls-1" d="M212.38,85.34c1.25,2,2.63,3.43,3.09,5.07a10.88,10.88,0,0,1-.16,5.15c-.62,2.77-2.48,5.16-4.5,7.31-3.27,3.48-5.72,3.72-9.87,2.66A20.06,20.06,0,0,1,189.75,98a3.71,3.71,0,0,1,0-5,12.23,12.23,0,0,0,2.47-5.25c.36-1.73,1.44-2,3.07-1,2.58,1.67,5.68,2.19,8.74,2.78a3.36,3.36,0,0,0,1.93-.45c1-.54,1.92-1.26,2.91-1.86S211,86.08,212.38,85.34Z"/><g class="cls-13"><path class="cls-14" d="M207.13,88c.19.68.4,1.34.58,2a43.31,43.31,0,0,0,3.73,10c.21.37.42.86.63,1.34a4.67,4.67,0,0,1,.43,2.84c-2.06-2.87-3.91-7.09-5.51-13C206.48,89.33,206.5,88.82,207.13,88Z"/></g><path class="cls-11" d="M195.16,82.82l15.52.47a11.05,11.05,0,0,1,.81,2.93c.12,2.65-4.63,5.43-7.57,5.52-4.2.13-8.76-8-8.76-8"/><path class="cls-2" d="M202.87,86.22c-5.48,0-8.72-3.43-9.89-7.68-1-3.66-2.08-7.34-2.11-11.28a11,11,0,0,1,2.22-7,15.78,15.78,0,0,1,13.8-6.69,10.14,10.14,0,0,1,7.58,3.55c4.13,4.7,5,8.25,2.82,14.08a60.56,60.56,0,0,1-3.69,8.36C211.2,83.88,207.14,85.7,202.87,86.22Z"/><path class="cls-10" d="M190.87,66.27s9.57-5.85,11.4-6a50.14,50.14,0,0,1,5.58,0c3.2,0,5.25.5,5.6,1.7s.2,4.21,1.5,4,2.72-5.45,2.21-6.24S213.9,53,208,53.12s-16.48,9.31-16.65,10.15S190.87,66.27,190.87,66.27Z"/><path class="cls-7" d="M220.67,65.42c-1.79.31-2.61-.2-3.23-1.06-1.11-1.53-2.27-3-3.28-4.62C213,58,211.72,57,209.29,57.41a21.72,21.72,0,0,1-5.22.27c-3-.19-5.14,1.2-7.3,2.73-1.45,1-2.89,2.05-4.41,3-.8.49-1.62.83-2,1.8a1.82,1.82,0,0,1-1.4.75c-.87,0-1.05-.67-1.08-1.37-.13-3.89.27-7.69,2.41-11.15,1.8-2.92,3.45-5.95,6.56-8a15.24,15.24,0,0,1,8.88-2.2,19.4,19.4,0,0,1,7.88,1.46,7.43,7.43,0,0,1,3.84,3.45c1.91,3.94,3.5,8,3.64,12.38A38.24,38.24,0,0,1,220.67,65.42Z"/><path class="cls-2" d="M215.54,72.5c3.81-.13,4.55-.87,5.4-4.3a9.55,9.55,0,0,0-.57-5.37,1.57,1.57,0,0,0-3-.3C216.15,65.66,215.13,68.9,215.54,72.5Z"/><path class="cls-7" d="M215.72,60.67s-1.73,5.05-.77,6.39l1,1.34,1.61-6.78Z"/><path class="cls-1" d="M190.11,66.59a24.42,24.42,0,0,1,7.56-.36,3.51,3.51,0,0,1,2.92,1.39,3.33,3.33,0,0,1,3.08-.41,2.1,2.1,0,0,0,1.4-.14,6.8,6.8,0,0,1,2.45-.47c1.69,0,3.38.13,5.07.3a14.09,14.09,0,0,1,2.27.63c-.77,1.75-.87,3.54-2.08,4.92a2.79,2.79,0,0,1-2.86,1.15c-1.07-.22-2.19-.17-3.26-.37a2.82,2.82,0,0,1-2.58-2.83c-.08-.69-.09-1.39-.14-2.28a15.88,15.88,0,0,0-2,0c-.79.1-1.21.47-1.37,1.43-.62,3.74-1.51,3.91-4.55,4.11a9.22,9.22,0,0,1-3-.34,3.25,3.25,0,0,1-2.6-2.76C190.28,69.23,190.22,67.9,190.11,66.59Zm8.33,5.88a15.84,15.84,0,0,0,.69-1.86,21.22,21.22,0,0,0,.39-2.48.77.77,0,0,0-.77-.91,38.57,38.57,0,0,0-7.7-.08c.08,1,.12,1.89.24,2.77.26,2,.65,2.39,2.73,2.67a6.07,6.07,0,0,0,1,.09C196.16,72.61,197.25,72.53,198.44,72.46Zm15.17-4.59A23.56,23.56,0,0,0,205,68a2.9,2.9,0,0,0-.08.54c0,.65,0,1.3.1,1.94.13,1.23.39,1.64,1.59,1.79a29.12,29.12,0,0,0,4.31.11,1.89,1.89,0,0,0,1.09-.66A8,8,0,0,0,213.61,67.88Z"/><path class="cls-2" d="M146.5,265.88c0,2.86-.71,5.81-2.13,6.76-2,1.33-4,2.78-6.1,3.17a44.19,44.19,0,0,1-11.42.86c-2-.15-4.08-1.88-6.1-3.05-1-.57-1.47-1.92-1.59-4.21-.41-8-1-16-1.44-24-.12-2.1.36-2.87,1.53-2.48,1.75.58,3.49,1.24,5.23,1.91,4.74,1.85,9.5,1.15,14.24.12a36,36,0,0,0,6-2.28c1-.41,1.47.42,1.49,2.27,0,3.56,0,7.13,0,10.69C146.31,255.61,146.46,262.46,146.5,265.88Z"/><path class="cls-7" d="M154.81,311.25c-5.37,1.66-10.2.8-14.18-4.74l-1.07,3.89a2.55,2.55,0,0,1-2.53,2.22c-1.2.09-2-.49-2.49-1.94a33.88,33.88,0,0,0-.93-3.29c-.14.73-.33,1.46-.42,2.2-.35,2.67-.45,2.78-2.75,2.68-.35,0-.71-.06-1.11-.1-.19-.59-.37-1.13-.54-1.68s-.33-1.09-.49-1.6c-2.88,1.78-5.63,3.62-8.48,5.22-2.57,1.45-4.42.89-6.41-1.55-1-1.23-1-1.74.19-2.85,2.63-2.53,5.22-5.11,6.91-8.68.6-1.26,1.21-2.52,1.71-3.83a3.89,3.89,0,0,0,.12-1.73c-.48-4-.91-8.1-1.53-12.12-.79-5.09-1.74-10.15-2.64-15.22-.15-.85.13-1.38.79-1.5a11.28,11.28,0,0,1,2.37-.14c4.52.13,9,.27,13.56.46,1.36.06,2.72.29,4.08.4a15.61,15.61,0,0,0,6.62-.59c1.51-.54,1.93-.13,2.1,1.77.45,5-.07,10-.47,15-.34,4.24-.72,8.49-.83,12.74-.12,4.46,2.33,7.1,5.29,9.19a4.68,4.68,0,0,0,1,.44C155.82,307.15,155.92,307.39,154.81,311.25Z"/><path class="cls-10" d="M134,310.68c-.73-2.74-.79-8-.82-12.23C133,281.73,133,265,133,248.09c.73,1.64,1,4.54,1,11.94q.06,16.62,0,33.26C134,298.83,134,304.36,134,310.68Z"/><path class="cls-11" d="M146.23,247.39s0,2.6,0,3.7c0,1.38-24.51,4.58-28.07,1.59l-.33-5.29Z"/><path class="cls-15" d="M153,190.17a13.76,13.76,0,0,0-.21,2.6c.65,5.47,1.44,10.92,2.05,16.39.49,4.32.92,8.66,1.14,13,.27,5.32.29,10.65.42,16a5,5,0,0,0,.06,1.06c.27,1.07,1.16,2.15.15,3.23s-2.19,2.67-3.6,3.41a37.26,37.26,0,0,1-14.34,3.7,88.28,88.28,0,0,1-9.32.27,31,31,0,0,1-6.06-.79c-4.42-1-8.8-2.14-13.19-3.23a16.86,16.86,0,0,1-1.78-.56,2.72,2.72,0,0,1-2.14-2.92c.2-5.78.09-11.57.43-17.33.41-6.91,1-13.83,1.82-20.7.57-4.56,1.76-9,2.71-13.77a35.25,35.25,0,0,1,5.3-1.08c7-.34,14-.53,21-.77,2.83-.1,5.67-.39,8.49-.25C148.49,188.53,151.21,188.26,153,190.17Z"/><path class="cls-11" d="M106.21,236.49s12.5,2.08,16.4,0,9-12.72,9-12.72,2.45,9.18,6.35,10.89,18.2-2.33,18.2-2.33l-.1-4.74-21.4-30.19-7,.63-21.2,34.53Z"/><path class="cls-7" d="M124.3,102.57s10.42,3.52,15.44,1.73a23.07,23.07,0,0,0,7.86-4.59l-1-11.61L124.3,96Z"/><path class="cls-16" d="M133.84,197.32a5.31,5.31,0,0,0-.43.89c-1.6,5.85-3.09,11.74-4.81,17.56-.93,3.16-2.23,6.21-3.35,9.32a6.17,6.17,0,0,1-5.82,4.38,43.86,43.86,0,0,1-20.21-2.93c-.74-.31-1.4-.79-2.12-1.16a1.62,1.62,0,0,1-.85-2.39c2.5-6.43,3.6-13.25,5.39-19.87,2-7.36,2.64-14.93,4.14-22.36,1.39-6.91,2.53-13.87,3.76-20.82.92-5.18,1.9-10.35,2.67-15.56.39-2.64.43-5.33.57-8a15.57,15.57,0,0,1,2-7.32c3-5.17,5.53-10.65,5.15-16.93a7.29,7.29,0,0,1,.17-1.86c.4-2-2.13-5.29-.06-5.35,1.07,0,4.88,3.06,5.94,3.15,5,.43,9.46-1.28,13.71-3.78,2.69-1.58,3.14,1.31,6,.07,2.42-1.05,6.11-1,7.58,1.11,2.39,3.49,1.92,3.51,2.91,7.47.82,3.28,1.32,6.65,1.88,10,.68,4,1.27,8.11,1.93,12.15.63,3.87,1.34,7.73,1.93,11.61a10.34,10.34,0,0,1,.07,3.71c-1.11,5-.89,10-.64,15,.26,5.26.8,10.51,1.49,15.74,1,7.52,2.23,15,3.37,22.5.69,4.49,1.42,9,2.09,13.47a3.16,3.16,0,0,1-1.36,3.21c-4.71,3.64-10.16,5.55-15.85,6.83a59.4,59.4,0,0,1-8,1c-3,.26-4.74-1-5.57-4.47a103.27,103.27,0,0,1-2-11.59c-.59-4.87-.88-9.77-1.3-14.66Z"/><path class="cls-11" d="M134.85,139.71s-.33,1.2.39,1.2,9.4-2.56,12.22-7.2c0,0-.15-10.85-.49-14.35a11.78,11.78,0,0,0-1.62-5.31Z"/><path class="cls-11" d="M137.9,115.76s-4.82,1.5-6.25,1.22c-2.31-.44-6.73-4-7.35-5.25s-4.48-5.48-3.9-6.08,3.21.42,3.21.42,13.35,4,14.7,3.71Z"/><path class="cls-1" d="M147.85,131.82c-2.91,4-7.09,6-12.13,7.24a10.32,10.32,0,0,1,0-2.3,75.63,75.63,0,0,0,2-15.75c.15-4,.31-8.06.47-12.2l7.56-4.44c.85,4.86,1.89,9.27,1.85,13.88S147.75,127.24,147.85,131.82Z"/><g class="cls-17"><path class="cls-18" d="M137.41,109.46s7.5-2.69,8.64-3.38-.32,3.11-1.11,3.86-7,5.69-7,6.22S137.41,109.46,137.41,109.46Z"/></g><path class="cls-1" d="M124.3,101.17c7.93-.34,15.57,0,22.86-3.32a12.36,12.36,0,0,1,.44,1.87c.05.71-.07,1.43-.07,2.14,0,2,.27,4.07-2.08,5.43-1.83,1.06-3.39,2.42-5.71,2.63s-4.74.82-7.13,1.08a14,14,0,0,1-4.44-.13c-2.7-.6-3.33-1.45-3.56-4.12C124.45,104.86,124.4,103,124.3,101.17Z"/><path class="cls-18" d="M141.76,99.24s-.35,4.55-6,5.56-8-4.37-8-4.37Z"/><path class="cls-2" d="M146.56,83.78c-.31,5.14-1.11,9.66-3.4,13.72-1.45,2.57-3.14,4.88-6.46,5.59-3.85.82-6.84-.69-9.35-3.1-3-2.86-3.26-7-4.06-10.81-.11-.51.42-1.26.83-1.75a72.06,72.06,0,0,1,4.94-5.56c3.23-3.11,6.49-6.21,10-9,4.35-3.56,5.87-1.18,6.53,2.66C146,78.39,146.27,81.35,146.56,83.78Z"/><path class="cls-7" d="M122.46,85.07c2.11,2,2.53,4.44,2.79,6.86a61.78,61.78,0,0,1,.48,7.82c-.06,2.9,1.26,5.2,2.69,7.48.6,1,1.41,1.84.56,3-.59.8-1.94.84-3.19-.36a22.8,22.8,0,0,0-8.59-5.62,3,3,0,0,1-2-3c0-1.81-.12-3.75.49-5.38,1.11-2.94,2.32-5.91,4.64-8.23C121.08,86.89,121.67,86,122.46,85.07Z"/><path class="cls-3" d="M132.75,150.12a9.16,9.16,0,0,1,1.37,1.52,20.56,20.56,0,0,1,1.58,8.73c.05,6.58.25,13.19-.23,19.75-.53,7.19-.29,14.35-.27,21.52,0,2.93.13,5.85.21,8.78l-.53.12c-.39-1.17-.86-2.31-1.14-3.51a62.11,62.11,0,0,1-1.14-15.81c.17-6.59.61-13.17.65-19.75,0-6.23-.29-12.47-.45-18.7C132.75,152.11,132.76,151.45,132.75,150.12Z"/><path class="cls-1" d="M139.58,59.71c7,.71,11.87,4.08,13,11.25.27,1.74.19,3.48-1.43,4.56-1.81,1.21-3.67.92-5.65-.63a8.73,8.73,0,0,0-10.57-.17A62.63,62.63,0,0,0,128,81.5c-1.51,1.65-2.71,3.58-4.11,5.34a3,3,0,0,1-3.31,1.3c-1.4-.33-1.84-1.35-2.16-2.5-.65-2.28,0-4.43.65-6.6a32.26,32.26,0,0,1,6.2-11c3-3.61,6.42-6.51,11-7.79A24.94,24.94,0,0,1,139.58,59.71Z"/><path class="cls-11" d="M158.43,139.17l-6.05,1.74-2.18,5.1.64,1c-2.15,2.49-10.15,10.79-16.72,4.66-7.65-7.14-20.79-18.91-20.79-18.91s7.26,34,18.34,35.68c0,0,12.65,0,23.17-15.82l-1-1.83a6.8,6.8,0,0,0,1.47-2.17c.3-1,0-1.85.71-2.6s3.26-2.66,3.26-2.66Z"/><path class="cls-18" d="M134.71,55.93c2-.32,2,2.2,2.67,3.69.62,1.3.2,2.33-1,3.51a14.42,14.42,0,0,1-1.54,1.23,4.12,4.12,0,0,1-5.82-.89,4.74,4.74,0,0,1-.5-3C129,57.62,131,56,134.71,55.93Z"/><path class="cls-3" d="M121.29,190.48a2.73,2.73,0,0,1-1.67,2.76,12.82,12.82,0,0,1-13.79-1.58c-.52-.46-1.24-.94-.64-1.75s1.22-.46,1.91-.13a30.84,30.84,0,0,0,4.74,2.11A11.93,11.93,0,0,0,121.29,190.48Z"/><path class="cls-3" d="M150.29,191.21a14.73,14.73,0,0,1,3,0,11.92,11.92,0,0,0,8.07-.7c.65-.29,1.41-.94,2.13.29a8.71,8.71,0,0,1-1.13,1,13.74,13.74,0,0,1-8.12,2,8.82,8.82,0,0,1-3.09-1C150.89,192.7,150.78,192.12,150.29,191.21Z"/><path class="cls-7" d="M153.31,95.36c-1,2.35-1.55,4.09-2.37,5.72-1.1,2.15-3.08,2.23-4.07,0a16.74,16.74,0,0,1-1.45-5.89c-.24-4.61-.12-9.24-.19-13.85,0-1.72-.08-3.44-.27-5.14a2.5,2.5,0,0,1,1.67-2.79c1.21-.58,2,0,2.81.83a11.89,11.89,0,0,1,3.19,6.94C153.2,86.09,153.14,91.05,153.31,95.36Z"/><path class="cls-2" d="M160.49,165.57a9.3,9.3,0,0,1,2-5.23c2.39-2.92,4.77-5.84,7.19-8.72.84-1,1.1-.84,2,.24a5.11,5.11,0,0,1,.95,4.9,75.07,75.07,0,0,1-3.27,9.25,6.46,6.46,0,0,1-5.34,3.89C161.1,170.26,160.43,169.59,160.49,165.57Z"/><path class="cls-10" d="M145.07,76.71s-4.14,8.74-10.67,11.15-8.7,2.09-8.7,2.09Z"/><path class="cls-10" d="M140.38,83.35s3.27-2.67,4.07,1.72l.81,4.39s.34-9.46-.19-12.75Z"/><path class="cls-19" d="M158.27,142.07s4.23,0,7.78-5.37c1.38-2.08,0-7,0-7Z"/><path class="cls-1" d="M134.12,54.3c2.41-.44,2.51,2.15,3.46,3.65.83,1.3.4,2.39-1,3.67A16.85,16.85,0,0,1,134.8,63c-2.11,1.47-5.42,1.31-7.08-.6a4.32,4.32,0,0,1-.8-3.06C127.31,56.35,129.64,54.53,134.12,54.3Z"/><path class="cls-2" d="M166.41,123.61c-1.48-2.92-3.48-3.11-6-.62-2.68,2.68-4,5.94-5,9.3a2.84,2.84,0,0,0,0,1.46,67.23,67.23,0,0,1-6.32,6.72l3.8,9.16c2.35-4.74,7.59-8.48,7.59-8.48h0a5.5,5.5,0,0,0,2-1.27,5.35,5.35,0,0,0,1.25-1.62,35.56,35.56,0,0,0,2.26-5.31c.67-2.38,1-4.82,1.39-6.88C167,125,166.75,124.26,166.41,123.61Z"/><g class="cls-20"><path class="cls-19" d="M135.84,147.41a4,4,0,0,0,3.86,1.14c2.6-.49,14.7-9.44,15.62-11.24s1.92-1.95,1.92-4v-5.82s-3.45,6.17-5,7.41S135.84,147.41,135.84,147.41Z"/></g><path class="cls-3" d="M135.84,146.25c1.07-.72,1.94-1.33,2.82-1.9,3.45-2.26,6.89-4.57,10.38-6.75,1.51-.94,2-.57,2.64,1.35s1.4,4,2.22,6a4,4,0,0,1-.24,4c-4,6.42-8.81,11.7-14.92,14.85-5,2.58-8.92,1.56-12.17-3.48a117.85,117.85,0,0,1-6.91-12.74c-2.2-4.58-4.21-9.31-6.07-14.11a94.46,94.46,0,0,1-3.06-9.92A55.16,55.16,0,0,1,109,116c-.53-4.38,2.14-10.57,7.58-11.38a5.16,5.16,0,0,1,4.51,1.68c3.18,3.09,5.15,7.25,6.54,11.75,2.16,7,4.06,14.15,6.09,21.23C134.4,141.52,135.09,143.74,135.84,146.25Z"/><g class="cls-21"><path class="cls-11" d="M135.84,146.25a4,4,0,0,0,3.86,1.14c2.6-.49,14.7-9.44,15.62-11.24s1.92-1.95,1.92-4v-5.82s-3.45,6.17-5,7.41S135.84,146.25,135.84,146.25Z"/></g><path class="cls-1" d="M125.28,86.82a21.07,21.07,0,0,1,6.5-.59,3,3,0,0,1,2.57,1.08,2.87,2.87,0,0,1,2.64-.47,1.81,1.81,0,0,0,1.2-.18,5.86,5.86,0,0,1,2.1-.5c1.46-.06,2.92,0,4.38.07a12.15,12.15,0,0,1,2,.46C146,88.23,146,89.77,145,91a2.41,2.41,0,0,1-2.42,1.1c-.93-.15-1.89-.06-2.82-.2a2.43,2.43,0,0,1-2.33-2.34c-.09-.59-.13-1.19-.21-2a13.7,13.7,0,0,0-1.74.09c-.68.12-1,.45-1.13,1.28-.39,3.25-1.15,3.43-3.76,3.71a8,8,0,0,1-2.56-.18,2.8,2.8,0,0,1-2.34-2.28C125.53,89.09,125.42,87.94,125.28,86.82Zm7.4,4.75a13.66,13.66,0,0,0,.53-1.63,18.31,18.31,0,0,0,.25-2.16.67.67,0,0,0-.69-.76,33.27,33.27,0,0,0-6.64.23c.11.86.18,1.63.31,2.38.3,1.74.65,2,2.46,2.2a5.24,5.24,0,0,0,.9,0C130.72,91.78,131.66,91.67,132.68,91.57ZM145.58,87a20.33,20.33,0,0,0-7.43.45,2.5,2.5,0,0,0,0,.47c0,.56.08,1.12.16,1.67.16,1.06.4,1.4,1.44,1.48a25.12,25.12,0,0,0,3.72-.07,1.63,1.63,0,0,0,.91-.61A6.92,6.92,0,0,0,145.58,87Z"/><path class="cls-7" d="M122.5,89.79a7.35,7.35,0,0,1,.44-4.31,22.87,22.87,0,0,1,12.68-13.14,25.44,25.44,0,0,1,8.8-1.59c1.67-.1,2.82,1.29,4,2.68C146.58,80,128.24,91.62,122.5,89.79Z"/></g></g></svg>