<svg xmlns="http://www.w3.org/2000/svg" viewBox="0 0 360 360"><defs><style>.cls-1{isolation:isolate;}.cls-2{fill:#b5d0e1;}.cls-3{mix-blend-mode:multiply;}.cls-4{fill:#e4eaf1;}.cls-5{fill:#fff;}.cls-6{fill:#dfe3ea;}.cls-7{fill:#5393b0;}.cls-8{fill:#143f6b;}.cls-9{fill:#dde5ed;}.cls-10{fill:#f4364c;}.cls-11{fill:#94989f;}.cls-12{fill:#84c1b9;}.cls-13{fill:#a5dfd3;}.cls-14{fill:#003c71;}</style></defs><title>consultant_webpage_kit_icon_3C_191016</title><g class="cls-1"><g id="Background"><circle id="_27.62.111" data-name="27.62.111" class="cls-2" cx="180" cy="180" r="180"/></g><g id="Artwork"><g class="cls-3"><path class="cls-2" d="M304,101.9a18.75,18.75,0,0,1,0,6.72c-.6,3.63-.86,7.32-1.4,11q-.9,6-2.07,12c-1.6,8.2-3.22,16.4-4.95,24.57-1.39,6.57-2.89,13.11-4.45,19.64-2.42,10.13-4.66,20.32-7.5,30.33-2.14,7.55-3.65,15.25-5.85,22.76s-3.58,15.24-5,22.92c-1.06,5.65-1.8,11.37-2.67,17.06a6.74,6.74,0,0,1-.24,1.52c-.5,1.22-6.64-.68-8.51-.91-4.69-.59-9.44-.71-14.16-1.1a22.22,22.22,0,0,1-3.77-.76c-1.66-.44-3.26-1.14-4.94-1.43-5.26-.9-10.56-1.6-15.82-2.49-4.06-.69-8.08-1.59-12.14-2.32-6.43-1.17-12.87-2.29-19.31-3.42-2.29-.4-4.58-.77-6.87-1.13l-15.8-2.48a10.08,10.08,0,0,1-1.5-.4c-1.41-.45-1.67-1.06-1.44-2.5.53-3.21,1.06-6.42,1.41-9.64.89-8.31,1.64-16.64,2.51-25,.62-5.91,1.07-11.85,2.06-17.7A381.78,381.78,0,0,1,180.08,159c1.76-6.2,2.93-12.59,4.07-18.94,1.52-8.48,2.7-17,4.14-25.51q1.68-9.93,3.66-19.82c.54-2.73,1.36-3.17,4.15-3l16.25.9c.77,0,1.55.09,2.32.2,7.42,1,14.83,2.14,22.28,3,5.14.57,10.32.71,15.48,1.08,5.67.41,11.33.91,17,1.29,3,.2,6,.11,9,.39q10,.91,20,2.08A46.72,46.72,0,0,1,304,101.9Z"/><path class="cls-2" d="M88.68,84c6.8.29,13.6.7,20.4.84,4.56.1,9.14-.3,13.7-.25,9.91.1,19.82.21,29.73.55a98.29,98.29,0,0,1,30.83,5.92,38.59,38.59,0,0,0,7.27,1.77,15.19,15.19,0,0,1,6,2.83,2.62,2.62,0,0,1,.75,1.53,14.52,14.52,0,0,1-.34,6.38c-1.82,8.41-3.55,16.84-5.3,25.27-.88,4.22-1.82,8.42-2.6,12.66-1.09,5.93-2,11.9-3.08,17.83-1,5.25-2.15,10.46-3.23,15.69-.8,3.88-1.45,7.79-2.44,11.62-1.23,4.75-2.83,9.4-4.11,14.14-1.61,6-3.16,12-4.55,18-1.06,4.61-1.91,9.27-2.7,13.94a56.65,56.65,0,0,0-.53,6.43c-.2,3.61-.31,7.22-.52,10.83a6.64,6.64,0,0,1-.49,2c-.69,1.79-1,2-2.88,1.66-2.71-.44-5.42-.94-8.14-1.34-3.74-.55-7.51-1-11.23-1.58-7.21-1.21-14.4-2.59-21.62-3.77-3.57-.59-7.18-.85-10.76-1.36-6.3-.88-12.61-1.73-18.88-2.79-6.71-1.13-13.37-2.51-20.06-3.7-2.11-.38-4.27-.49-6.4-.79a37,37,0,0,1-4.57-.81c-2.16-.58-2.75-1.82-2.47-4.07,1-7.86,1.89-15.73,2.87-23.59.34-2.74.72-5.47,1.19-8.19,1.2-7,2.47-14.08,3.68-21.13C70,169.64,71.75,158.75,74.37,148c1.59-6.52,2.88-13.13,4.15-19.72,1.46-7.52,2.89-15.05,4.07-22.62,1-6.12,1.49-12.31,2.24-18.47C85.23,83.94,85.45,83.79,88.68,84Z"/></g><path class="cls-4" d="M297.23,91.81a18.75,18.75,0,0,1,0,6.72c-.6,3.63-.86,7.32-1.4,11q-.9,6-2.07,12c-1.6,8.2-3.22,16.4-4.95,24.57-1.39,6.57-2.89,13.11-4.45,19.64-2.42,10.13-4.66,20.32-7.5,30.33-2.14,7.55-3.65,15.25-5.85,22.76s-3.58,15.24-5,22.92c-1.06,5.65-1.8,11.37-2.67,17.06a6.74,6.74,0,0,1-.24,1.52c-.5,1.22-6.64-.68-8.51-.91-4.69-.59-9.44-.71-14.16-1.1a22.22,22.22,0,0,1-3.77-.76c-1.66-.44-3.26-1.14-4.94-1.43-5.26-.9-10.56-1.6-15.82-2.49-4.06-.69-8.08-1.59-12.14-2.32-6.43-1.17-12.87-2.29-19.31-3.42-2.29-.4-4.58-.77-6.87-1.13l-15.8-2.48a10.08,10.08,0,0,1-1.5-.4c-1.41-.45-1.67-1.06-1.44-2.5.53-3.21,1.06-6.42,1.41-9.64.89-8.31,1.64-16.64,2.51-25,.62-5.91,1.07-11.85,2.06-17.7a381.78,381.78,0,0,1,8.62-40.15c1.76-6.2,2.93-12.59,4.07-18.94,1.52-8.48,2.7-17,4.14-25.51q1.68-9.93,3.66-19.82c.54-2.73,1.36-3.17,4.15-3l16.25.9c.77,0,1.55.09,2.32.2,7.42,1,14.83,2.14,22.28,3,5.14.57,10.32.71,15.48,1.08,5.67.41,11.33.91,17,1.29,3,.2,6,.11,9,.39q10,.91,20,2.08A46.72,46.72,0,0,1,297.23,91.81Z"/><path class="cls-4" d="M82,73.91c6.8.29,13.6.7,20.4.84,4.56.1,9.14-.3,13.7-.25,9.91.1,19.82.21,29.73.55A98.29,98.29,0,0,1,176.62,81a38.59,38.59,0,0,0,7.27,1.77,15.19,15.19,0,0,1,6,2.83,2.62,2.62,0,0,1,.75,1.53,14.52,14.52,0,0,1-.34,6.38c-1.82,8.41-3.55,16.84-5.3,25.27-.88,4.22-1.82,8.42-2.6,12.66-1.09,5.93-2,11.9-3.08,17.83-1,5.25-2.15,10.46-3.23,15.69-.8,3.88-1.45,7.79-2.44,11.62-1.23,4.75-2.83,9.4-4.11,14.14-1.61,6-3.16,12-4.55,18-1.06,4.61-1.91,9.27-2.7,13.94a56.65,56.65,0,0,0-.53,6.43c-.2,3.61-.31,7.22-.52,10.83a6.64,6.64,0,0,1-.49,2c-.69,1.79-1,2-2.88,1.66-2.71-.44-5.42-.94-8.14-1.34-3.74-.55-7.51-1-11.23-1.58-7.21-1.21-14.4-2.59-21.62-3.77-3.57-.59-7.18-.85-10.76-1.36-6.3-.88-12.61-1.73-18.88-2.79-6.71-1.13-13.37-2.51-20.06-3.7-2.11-.38-4.27-.49-6.4-.79a37,37,0,0,1-4.57-.81c-2.16-.58-2.75-1.82-2.47-4.07,1-7.86,1.89-15.73,2.87-23.59.34-2.74.72-5.47,1.19-8.19,1.2-7,2.47-14.08,3.68-21.13,1.86-10.87,3.57-21.76,6.19-32.49,1.59-6.52,2.88-13.13,4.15-19.72,1.46-7.52,2.89-15.05,4.07-22.62,1-6.12,1.49-12.31,2.24-18.47C78.51,73.86,78.73,73.71,82,73.91Z"/><path class="cls-5" d="M175.6,93.08a29.71,29.71,0,0,1-.2,3.68c-.88,4.39-2.05,8.72-2.71,13.14-1.71,11.42-3,22.89-4.86,34.29-1,6.37-2.76,12.63-4.2,18.93-1.19,5.2-2.53,10.37-3.6,15.59-1,4.64-1.56,9.35-2.44,14-1,5.5-2.23,11-3.29,16.46-1.19,6.21-3.28,14.9-4.44,21.15.71.52-11.84-1-16.39-2.26-5.54-1.59-11-3.45-16.49-5.19a133.6,133.6,0,0,0-20.61-4.7,107.43,107.43,0,0,1-19.6-4.57,35.14,35.14,0,0,1-4.94-2.24,4.87,4.87,0,0,1-2.87-5.3c.57-4,1.14-8,1.76-12s1.25-8,2-12c.28-1.5,1-2.92,1.37-4.39.32-1.15.49-2.35.78-3.51,2.25-9.22,3.66-18.6,5.15-28q2.09-13.13,4.86-26.15c1.74-8.26,3.9-16.43,5.83-24.65.45-1.92.78-3.88,1.13-5.83s1-2.29,3.06-2.6c4.37-.65,8.56.41,12.82.92q10.25,1.21,20.54,2c8.33.63,16.67,1,25,1.58q5.28.34,10.56.84C165.37,92.44,171.21,93.61,175.6,93.08Z"/><path class="cls-5" d="M204.89,100.6l13.32,1.58c1.62.19,3.24.4,4.87.57,4.37.45,8.74.9,13.11,1.32,5.06.49,10.12.93,15.18,1.41,3.59.34,7.21.54,10.77,1.11,3.89.63,7.73,1.6,11.58,2.46,2.8.62,3.33,1.4,2.58,4.16-1.68,6.15-3.4,12.29-5.21,18.4a305.5,305.5,0,0,0-7.9,31c-1.18,6.35-2.92,12.59-4.37,18.88-2,8.65-4,17.29-5.85,26-1.25,5.9-2.22,11.85-3.36,17.77-.19,1-.67,1.93-.94,2.91-.46,1.65-.91,3.31-1.24,5a2,2,0,0,0,.36,1.61A1.36,1.36,0,0,1,248,237c-.63.67-1.54,1.35-2.52.77-3.25-1.92-7-1.74-10.49-2.54-5-1.15-10.21-1.71-15.2-3-6.93-1.77-14.13-1.87-21-4-4.48-1.4-9.29-1.73-13.94-2.6-2.62-.49-5.21-1.13-7.83-1.63-1.2-.23-1.52-.85-1.39-2,.64-5.39,1.08-10.8,1.88-16.16,1.23-8.26,2.38-16.56,4.16-24.71,2-9.24,2.1-18.67,3.56-27.94.92-5.86,2-11.71,3.31-17.51,1.76-7.9,3.83-15.73,5.65-23.62a48.27,48.27,0,0,1,2.12-6.87c1.18-3,3.29-4.23,6.29-4.37.78,0,1.55,0,2.33,0Z"/><path class="cls-6" d="M252.38,166.61a2.89,2.89,0,0,1-3.12.74q-7.33-1.84-14.79-3.37a180,180,0,0,0-23-3.19c-3.63-.27-7.19-1-10.8-1.43a8.22,8.22,0,0,0-3,.16c-1.68.45-1.64.54-3.25-.74a4.62,4.62,0,0,1,4.74-2.12c5.51.41,11.06.41,16.57.81a131.79,131.79,0,0,1,21.09,3.75c4.47,1.07,8.83,2.43,13.22,3.69C251.15,165.21,252.27,165.52,252.38,166.61Z"/><path class="cls-6" d="M258.26,141.34a9.4,9.4,0,0,1-4.51-.54A46.17,46.17,0,0,0,242,138.85c-2.77,0-5.51-.86-8.29-1.22-6.76-.89-13.53-1.73-20.3-2.58-.56-.07-1.12-.12-1.66-.24a66.77,66.77,0,0,0-12.23-1.47,5.43,5.43,0,0,1-1.39-.05,4.83,4.83,0,0,1-1.15-.79,3.94,3.94,0,0,1,1.15-.7c4.49-1,9.08-.7,13.63-.44,14.93.86,29.25,3.8,43.31,7.58C256.53,139.31,257.92,139.73,258.26,141.34Z"/><path class="cls-6" d="M255.2,149.9c-1.28-.39-2.23-.64-3.14-1a34.85,34.85,0,0,0-8.43-1.45c-3.34-.34-6.62-1-10-1.38-6-.71-12.07-1.31-18.1-2a50.57,50.57,0,0,1-9.32-1.5,30.45,30.45,0,0,0-4.37-.7c-1-.14-2-.26-3.34-.45a5.76,5.76,0,0,1,4.68-1.88q9.55.42,19.07,1.23c9.38.82,18.35,3,27.32,5.1a24.44,24.44,0,0,1,3.66,1.11C254.47,147.53,255.5,148.26,255.2,149.9Z"/><path class="cls-6" d="M251,158a30.65,30.65,0,0,1-3.16-.45c-2.22-.57-4.35-1.35-6.6-1.82-7.34-1.53-14.93-2-22.4-3-5.17-.7-10.46-.78-15.54-2a29.44,29.44,0,0,0-5-.2c-.69,0-1.36-.19-2.48-.36l2-2.39c2.92.16,5.51.36,8.11.44a149.77,149.77,0,0,1,28.33,3.41c4.76,1.06,9.37,2.53,14.06,3.8A3.33,3.33,0,0,1,251,158Z"/><path class="cls-6" d="M193.93,168.39c.91-1.41,1.92-2,4.17-1.9,11.6.56,22.82,2.64,34.09,4.58,5,.87,10,1.8,15.06,2.73a24.64,24.64,0,0,1,2.41.69l-.19.56c-2.45-.14-4.9-.32-7.36-.41-1.56-.06-3.13,0-4.69,0a32.3,32.3,0,0,1-3.65-.25q-13.17-1.83-26.32-3.73c-2.57-.38-5.09-1-7.64-1.38a10.19,10.19,0,0,0-2.5-.08C195.66,169.35,195.67,169.39,193.93,168.39Z"/><path class="cls-6" d="M258.27,133.2c-6.71-1-13.17-2-19.65-2.88s-13.15-1.63-19.7-2.53-12.95-2.31-20.17-2.11c.42-.69.55-1.32.89-1.39a22.58,22.58,0,0,1,5.91-1,129.75,129.75,0,0,1,17.3,1.82c9.81,1.67,19.61,3.39,29.41,5.11C254.61,130.66,256.87,131.23,258.27,133.2Z"/><path class="cls-6" d="M203.31,118.37c.93,0,1.64-.06,2.35-.12,1-.07,2-.27,3-.24a51.72,51.72,0,0,1,5.85.33c6.66.91,13.33,1.78,19.91,2.95,4.75.84,9.35,2.16,14,3.21,3.11.7,5.48,2.22,8.26,3.88a5.6,5.6,0,0,1-1.46.13c-16.52-5.31-34.3-6.6-51.61-9.4C203.57,119.1,203.54,118.86,203.31,118.37Z"/><path class="cls-6" d="M248.76,199.68a9.4,9.4,0,0,1-4.51-.54,46.17,46.17,0,0,0-11.74-1.94c-2.77,0-5.51-.86-8.29-1.22-6.76-.89-13.53-1.73-20.3-2.58-.56-.07-1.12-.12-1.66-.24A66.77,66.77,0,0,0,190,191.68a5.43,5.43,0,0,1-1.39-.05,4.83,4.83,0,0,1-1.15-.79,3.94,3.94,0,0,1,1.15-.7c4.49-1,9.08-.7,13.63-.44,14.93.86,29.25,3.8,43.31,7.58C247,197.66,248.42,198.08,248.76,199.68Z"/><path class="cls-6" d="M245.71,208.24c-1.28-.39-2.23-.64-3.14-1a34.85,34.85,0,0,0-8.43-1.45c-3.34-.34-6.62-1-10-1.38-6-.71-12.07-1.31-18.1-2a50.57,50.57,0,0,1-9.32-1.5,30.45,30.45,0,0,0-4.37-.7c-1-.14-2-.26-3.34-.45a5.76,5.76,0,0,1,4.68-1.88q9.55.42,19.07,1.23c9.38.82,18.35,3,27.32,5.1a24.44,24.44,0,0,1,3.66,1.11C245,205.88,246,206.61,245.71,208.24Z"/><path class="cls-6" d="M241.55,216.37a30.65,30.65,0,0,1-3.16-.45c-2.22-.57-4.35-1.35-6.6-1.82-7.34-1.53-14.93-2-22.4-3-5.17-.7-10.46-.78-15.54-2a29.44,29.44,0,0,0-5-.2c-.69,0-1.36-.19-2.48-.36l2-2.39c2.92.16,5.51.36,8.11.44A149.77,149.77,0,0,1,224.75,210c4.76,1.06,9.37,2.53,14.06,3.8A3.33,3.33,0,0,1,241.55,216.37Z"/><path class="cls-6" d="M248.77,191.55c-6.71-1-13.17-2-19.65-2.88S216,187,209.41,186.14s-12.95-2.31-20.17-2.11c.42-.69.55-1.32.89-1.39a22.58,22.58,0,0,1,5.91-1,129.75,129.75,0,0,1,17.3,1.82c9.81,1.67,19.61,3.39,29.41,5.11C245.11,189,247.37,189.58,248.77,191.55Z"/><path class="cls-6" d="M193.82,176.72c.93,0,1.64-.06,2.35-.12,1-.07,2-.27,3-.24a51.72,51.72,0,0,1,5.85.33c6.66.91,13.33,1.78,19.91,2.95,4.75.84,9.35,2.16,14,3.21,3.11.7,5.48,2.22,8.26,3.88a5.6,5.6,0,0,1-1.46.13c-16.52-5.31-34.3-6.6-51.61-9.4C194.07,177.45,194,177.21,193.82,176.72Z"/><path class="cls-6" d="M153.41,149.31a2.89,2.89,0,0,1-3.12.74q-7.33-1.84-14.79-3.37a180,180,0,0,0-23-3.19c-3.63-.27-7.19-1-10.8-1.43a8.22,8.22,0,0,0-3,.16c-1.68.45-1.64.54-3.25-.74a4.62,4.62,0,0,1,4.74-2.12c5.51.41,11.06.41,16.57.81a131.79,131.79,0,0,1,21.09,3.75c4.47,1.07,8.83,2.43,13.22,3.69C152.19,147.92,153.31,148.22,153.41,149.31Z"/><path class="cls-6" d="M159.3,124a9.4,9.4,0,0,1-4.51-.54,46.17,46.17,0,0,0-11.74-1.94c-2.77,0-5.51-.86-8.29-1.22-6.76-.89-13.53-1.73-20.3-2.58-.56-.07-1.12-.12-1.66-.24A66.77,66.77,0,0,0,100.58,116a5.43,5.43,0,0,1-1.39-.05,4.83,4.83,0,0,1-1.15-.79,3.94,3.94,0,0,1,1.15-.7c4.49-1,9.08-.7,13.63-.44,14.93.86,29.25,3.8,43.31,7.58C157.57,122,159,122.43,159.3,124Z"/><path class="cls-6" d="M156.24,132.6c-1.28-.39-2.23-.64-3.14-1a34.85,34.85,0,0,0-8.43-1.45c-3.34-.34-6.62-1-10-1.38-6-.71-12.07-1.31-18.1-2a50.57,50.57,0,0,1-9.32-1.5,30.45,30.45,0,0,0-4.37-.7c-1-.14-2-.26-3.34-.45a5.76,5.76,0,0,1,4.68-1.88q9.55.42,19.07,1.23c9.38.82,18.35,3,27.32,5.1a24.44,24.44,0,0,1,3.66,1.11C155.51,130.24,156.54,131,156.24,132.6Z"/><path class="cls-6" d="M152.08,140.73a30.65,30.65,0,0,1-3.16-.45c-2.22-.57-4.35-1.35-6.6-1.82-7.34-1.53-14.93-2-22.4-3-5.17-.7-10.46-.78-15.54-2a29.44,29.44,0,0,0-5-.2c-.69,0-1.36-.19-2.48-.36l2-2.39c2.92.16,5.51.36,8.11.44a149.77,149.77,0,0,1,28.33,3.41c4.76,1.06,9.37,2.53,14.06,3.8A3.33,3.33,0,0,1,152.08,140.73Z"/><path class="cls-6" d="M95,151.1c.91-1.41,1.92-2,4.17-1.9,11.6.56,22.82,2.64,34.09,4.58,5,.87,10,1.8,15.06,2.73a24.64,24.64,0,0,1,2.41.69l-.19.56c-2.45-.14-4.9-.32-7.36-.41-1.56-.06-3.13,0-4.69,0a32.3,32.3,0,0,1-3.65-.25q-13.17-1.83-26.32-3.73c-2.57-.38-5.09-1-7.64-1.38a10.19,10.19,0,0,0-2.5-.08C96.7,152.06,96.7,152.1,95,151.1Z"/><path class="cls-6" d="M159.3,115.91c-6.71-1-13.17-2-19.65-2.88s-13.15-1.63-19.7-2.53-12.95-2.31-20.17-2.11c.42-.69.55-1.32.89-1.39a22.58,22.58,0,0,1,5.91-1,129.75,129.75,0,0,1,17.3,1.82c9.81,1.67,19.61,3.39,29.41,5.11C155.64,113.37,157.91,113.94,159.3,115.91Z"/><path class="cls-6" d="M104.35,101.08c.93,0,1.64-.06,2.35-.12,1-.07,2-.27,3-.24a51.72,51.72,0,0,1,5.85.33c6.66.91,13.33,1.78,19.91,2.95,4.75.84,9.35,2.16,14,3.21,3.11.7,5.48,2.22,8.26,3.88a5.6,5.6,0,0,1-1.46.13c-16.52-5.31-34.3-6.6-51.61-9.4C104.61,101.8,104.58,101.57,104.35,101.08Z"/><path class="cls-6" d="M149.8,182.39a9.4,9.4,0,0,1-4.51-.54,46.17,46.17,0,0,0-11.74-1.94c-2.77,0-5.51-.86-8.29-1.22-6.76-.89-13.53-1.73-20.3-2.58-.56-.07-1.12-.12-1.66-.24a66.77,66.77,0,0,0-12.23-1.47,5.43,5.43,0,0,1-1.39-.05,4.83,4.83,0,0,1-1.15-.79,3.94,3.94,0,0,1,1.15-.7c4.49-1,9.08-.7,13.63-.44,14.93.86,29.25,3.8,43.31,7.58C148.07,180.37,149.46,180.78,149.8,182.39Z"/><path class="cls-6" d="M146.74,190.95c-1.28-.39-2.23-.64-3.14-1a34.85,34.85,0,0,0-8.43-1.45c-3.34-.34-6.62-1-10-1.38-6-.71-12.07-1.31-18.1-2a50.57,50.57,0,0,1-9.32-1.5,30.45,30.45,0,0,0-4.37-.7c-1-.14-2-.26-3.34-.45a5.76,5.76,0,0,1,4.68-1.88q9.55.42,19.07,1.23c9.38.82,18.35,3,27.32,5.1a24.44,24.44,0,0,1,3.66,1.11C146,188.58,147,189.31,146.74,190.95Z"/><path class="cls-6" d="M142.59,199.08a30.65,30.65,0,0,1-3.16-.45c-2.22-.57-4.35-1.35-6.6-1.82-7.34-1.53-14.93-2-22.4-3-5.17-.7-10.46-.78-15.54-2a29.44,29.44,0,0,0-5-.2c-.69,0-1.36-.19-2.48-.36l2-2.39c2.92.16,5.51.36,8.11.44a149.77,149.77,0,0,1,28.33,3.41c4.76,1.06,9.37,2.53,14.06,3.8A3.33,3.33,0,0,1,142.59,199.08Z"/><path class="cls-6" d="M149.81,174.25c-6.71-1-13.17-2-19.65-2.88s-13.15-1.63-19.7-2.53-12.95-2.31-20.17-2.11c.42-.69.55-1.32.89-1.39a22.58,22.58,0,0,1,5.91-1,129.75,129.75,0,0,1,17.3,1.82c9.81,1.67,19.61,3.39,29.41,5.11C146.15,171.72,148.41,172.29,149.81,174.25Z"/><path class="cls-6" d="M94.85,159.42c.93,0,1.64-.06,2.35-.12,1-.07,2-.27,3-.24a51.72,51.72,0,0,1,5.85.33c6.66.91,13.33,1.78,19.91,2.95,4.75.84,9.35,2.16,14,3.21,3.11.7,5.48,2.22,8.26,3.88a5.6,5.6,0,0,1-1.46.13c-16.52-5.31-34.3-6.6-51.61-9.4C95.11,160.15,95.08,159.92,94.85,159.42Z"/><path class="cls-7" d="M262.08,261.49a17.7,17.7,0,0,0-2.48-.39c-3.17,0-6.38.24-9.52-.09-6.33-.66-12.64-1.57-18.93-2.52a45,45,0,0,1-6.75-1.69c-6.78-2.14-13.88-2.46-20.81-3.74-7.11-1.31-14.23-2.56-21.32-4-3-.6-3.74-1.48-3.92-3.94a2.81,2.81,0,0,1,.52-1.84q4-4.78,8-9.45c4.72-5.37,9.45-10.73,14.28-16,2-2.15,4.22-4.06,6.33-6.08a12.59,12.59,0,0,1,9.45-3.44c4.73.14,9.47.35,14.18.77,10.28.92,20.55,2,30.82,3,3,.3,6,.5,9,1,2.74.47,3.52,2.75,2.42,5.4a57.79,57.79,0,0,0-2,6.66c-.53,1.9-1.08,3.8-1.52,5.72-.35,1.5-.51,3-.82,4.56-.87,4.3-1.69,8.61-2.68,12.89-.62,2.67-1.53,5.28-2.29,7.92a3.78,3.78,0,0,0-.24,1.51A3.74,3.74,0,0,1,262.08,261.49Z"/><path class="cls-8" d="M191.76,218.2c.2-2.45.3-4.52.55-6.57a48.75,48.75,0,0,1,2.4-9.14,40.33,40.33,0,0,1,4-8.57c1.84-3,3.71-6,5.72-9,1.32-1.92,3-3.61,4.36-5.5a29.57,29.57,0,0,1,6.3-6.14,8.69,8.69,0,0,0,1.24-1.07,21.32,21.32,0,0,1,7.42-5.25,32.51,32.51,0,0,1,13.83-2.87,20.64,20.64,0,0,1,6.24,1.17,28.86,28.86,0,0,1,9.26,5.13c.82.69,1.88,1.1,2.75,1.75a30.6,30.6,0,0,1,7,7.48,18.5,18.5,0,0,1,2.25,5.58,10.86,10.86,0,0,0,.94,2.59,14.28,14.28,0,0,1,1.84,6.54c0,.76.23,1.51.32,2.26.51,4.27-1,8.17-2.26,12.09a7.46,7.46,0,0,1-2.33,3.86,1.16,1.16,0,0,0-.34.55,18.24,18.24,0,0,1-5,7.21q-3.7,3.7-7.48,7.33a80.73,80.73,0,0,1-18.27,12.61,65.48,65.48,0,0,0-17.05,12.86c-2.36,2.51-4.33,5.35-4.66,9a10,10,0,0,0,1.23,6c.64,1.12.94,2.18.08,3.34-.19.26-.1.72-.14,1.09a1.33,1.33,0,0,1-2.07,1.18,2.3,2.3,0,0,1-.54-.36c-2.63-2.4-4.72-5.11-5.36-8.76-.72-4.08-1.41-8.18-2.43-12.19a87.25,87.25,0,0,0-3.38-10.23,114.16,114.16,0,0,1-5.57-16.74A71,71,0,0,1,191.76,218.2Zm16.14,41.52a24.64,24.64,0,0,1,6-9.83,69.4,69.4,0,0,1,17.46-13.39c7-4,13.73-8.31,19.6-13.87A33.86,33.86,0,0,0,258.67,212a75.37,75.37,0,0,0,4.11-13.42,12.29,12.29,0,0,0,.7-3.34,27.12,27.12,0,0,0-.88-5.81c-.75-2.72-1.74-5.39-2.75-8a6.77,6.77,0,0,0-1.74-2.7,37.6,37.6,0,0,0-5.65-4.12c-3.12-1.77-6.37-3.34-9.65-4.82a12.71,12.71,0,0,0-4.54-1.27,24.63,24.63,0,0,0-15.13,4.3c-1.12.73-2,1.79-3.13,2.52a47.07,47.07,0,0,0-7.72,6.52,63.48,63.48,0,0,0-9.64,13.35,52.2,52.2,0,0,0-5.2,11.07,40.52,40.52,0,0,0-1.59,12.39,36.55,36.55,0,0,0,2.4,10.82c1.48,4.39,3.28,8.66,5,13a69.38,69.38,0,0,1,3.62,11.7C207.22,255.83,207.51,257.58,207.9,259.72Z"/><path class="cls-9" d="M233.38,307.42c-3.21-2.25-6.31-4.66-9.44-7-.87-.66-1.72-1.35-2.57-2-2-1.63-4.16-3.17-6.11-4.9-3.13-2.78-6.64-5.17-9.19-8.56a16.41,16.41,0,0,1-1.86-3.25,2.43,2.43,0,0,1,.41-2.6,181.38,181.38,0,0,1,12.58-14.44c.11-.12.25-.22.35-.34.93-1.07,1.09-1.11,2.33-.64a35.67,35.67,0,0,1,6.59,3.61c2.62,1.68,5.3,3.27,7.93,4.93,1,.61,1.86,1.33,2.79,2,.26.19.49.44.76.62,2.1,1.36,4.21,2.72,6.32,4.06s4.65,2.67,6.75,4.28a28.66,28.66,0,0,1,4,4.27c.62.72.11,1.5-.31,2.11-1.09,1.57-2.18,3.14-3.42,4.59-2.78,3.29-5.63,6.52-8.49,9.75-1.48,1.67-3,3.28-4.56,4.91a3,3,0,0,0-.23.23C237.17,310.17,234.51,308.21,233.38,307.42Z"/><path class="cls-10" d="M233.43,288.93c-1-.62-1.14-1.17-.52-2a6,6,0,0,0,.89-1.91c.35-1.23.11-1.44-1.3-1.26-.8,3.36-3.38,5.2-6,7-.71.49-1.35.14-1.93-.31a1.26,1.26,0,0,1-.32-1.63c.51-1.08,1.11-2.11,1.71-3.14a16.2,16.2,0,0,1,1.12-1.45,6.76,6.76,0,0,1-2,.72,16,16,0,0,1-4.57-.45c-2.84-1-3.46-3.77-1.54-6.11a8.18,8.18,0,0,1,1.45-1.31c1.78-1.33,3.08-1.15,4.48.56,2,0,2,0,2.93,2.59,1.17.45,2.2.89,3.25,1.24a4.76,4.76,0,0,0,1.43.16,3.09,3.09,0,0,1,2.91,4.62A17,17,0,0,1,233.43,288.93Zm-10.29-10.3-.23-.39c-.48.11-1.12.08-1.4.38a6.28,6.28,0,0,0-1.35,2.12c-.3.86.32,1.31,1.2.94a1.66,1.66,0,0,0,.81-.69C222.55,280.23,222.82,279.42,223.13,278.63Z"/><path class="cls-11" d="M232,298.85a1.78,1.78,0,0,1,.25-2.29q1.67-2.22,3.42-4.38c1.5-1.87,3-3.74,4.58-5.54A10.48,10.48,0,0,1,242.4,285a1,1,0,0,1,.83.15c.11.07,0,.5,0,.72a2.46,2.46,0,0,1-.49.64c-1.12,1.25-2.26,2.49-3.36,3.76q-2.3,2.66-4.54,5.36c-.62.75-1.15,1.59-1.77,2.34A7.83,7.83,0,0,1,232,298.85Z"/><path class="cls-11" d="M245.31,289.61a2.75,2.75,0,0,1-1,1.94c-1.62,1.61-3.29,3.18-4.79,4.9-1.13,1.3-2,2.82-3,4.22a7.57,7.57,0,0,1-.79.8,1.55,1.55,0,0,1-.33-2.11,20,20,0,0,1,4.35-5.67c1.32-1.22,2.68-2.4,4-3.59C244.14,289.71,244.57,289.25,245.31,289.61Z"/><path class="cls-12" d="M109.33,139.2a10.48,10.48,0,0,1,7.14-.15c6.38,2,12.84,3.84,19.2,6,4.89,1.64,9.65,3.66,14.49,5.45a3.92,3.92,0,0,1,2.77,4.2,17.28,17.28,0,0,1-1.87,6.87c-2.34,5-4.56,10.11-6.83,15.18-.59,1.31-1.08,2.67-1.77,3.92A50.31,50.31,0,0,0,138.2,190c-1.82,5.85-3.87,11.62-5.83,17.43-1.32,3.9-2.66,7.79-4,11.69-.4,1.17-1.64,7.62-2.68,7.36a10.4,10.4,0,0,1-1.85-.76L102.13,215.4a10.08,10.08,0,0,0-1.85-.77c-4.65-1.15-8.44-3.92-12.35-6.46a4.77,4.77,0,0,1-2.24-5.88,235,235,0,0,1,7.73-22.75c4.65-11.64,9.18-23.33,13.77-35C107.84,142.87,108.52,141.22,109.33,139.2Z"/><path class="cls-13" d="M90.36,136.36a10.48,10.48,0,0,1,6.94-1.65c6.67.65,13.37,1,20,1.79,5.12.57,10.2,1.54,15.31,2.27a3.92,3.92,0,0,1,3.59,3.52,17.28,17.28,0,0,1-.38,7.11c-1.23,5.41-2.33,10.85-3.47,16.28-.3,1.4-.49,2.83-.9,4.2A50.31,50.31,0,0,0,129.3,180c-.55,6.1-1.33,12.18-2,18.26-.47,4.09-1,8.17-1.43,12.26-.14,1.23,0,7.8-1.07,7.76a10.4,10.4,0,0,1-2-.35L99.4,212.36a10.08,10.08,0,0,0-2-.36c-4.79-.14-9.08-2.05-13.44-3.71A4.77,4.77,0,0,1,80.56,203a235,235,0,0,1,2.76-23.87c2.09-12.36,4.05-24.74,6.07-37.11C89.68,140.27,90,138.51,90.36,136.36Z"/><path class="cls-7" d="M58.51,186.15c4.7-1.74,25.06,2.67,31.48,3.35,4.62.49,9.24,1,13.87,1.5,2.91.29,5.84.5,8.76.66a15.26,15.26,0,0,1,5.6,1.6c2.22,1,3.61,2.83,5.48,4.12a2.14,2.14,0,0,1,.7.75c2.5,5,5.5,9.71,6.9,15.22,2,8,4.26,16,6.36,24,.28,1.06,2,5.29,1.14,5.19s-1.87-.28-2.8-.46c-3.12-.59-6.24-1.17-9.35-1.79-2.19-.44-4.37-1-6.57-1.41-4.47-.9-8.94-1.85-13.43-2.6-2.2-.37-4.5-.12-6.68-.53-7.69-1.44-15.34-3.06-23-4.57-2.36-.46-4.75-.78-7.13-1.12-4-.57-8-1.09-12-1.66a10.68,10.68,0,0,1-2.24-.52c-3-1.14-4.14-3-3.58-6.17.61-3.48,1.36-6.93,2-10.4,1-5.76,2.15-11.51,3-17.3C57.29,191.89,58.51,188.3,58.51,186.15Z"/><path class="cls-5" d="M110.16,203.95c-.25,5-.44,9.77-.78,14.56a3.23,3.23,0,0,1-1.27,1.79c-1.78,1.48-3.67,2.85-5.48,4.3a6.21,6.21,0,0,1-5.76,1.24,81.12,81.12,0,0,0-13.23-2.19,34.12,34.12,0,0,1-8-1.88,2.65,2.65,0,0,1-1.77-2.87c.14-1.45.34-2.9.42-4.36.15-2.49.25-5,.33-7.48a2.74,2.74,0,0,1,1.64-2.84,41.43,41.43,0,0,0,5.36-3.57,3.58,3.58,0,0,1,2.88-.78c1.85.34,3.73.48,5.59.72,3.16.42,6.33.83,9.48,1.29,2.63.39,5.26.83,7.88,1.3C108.25,203.33,109,203.63,110.16,203.95Z"/><path class="cls-6" d="M85.65,209.48a3.65,3.65,0,0,1,2.8-.88,75.38,75.38,0,0,1,11,.79c1.16.13,2.32.29,3.45.49.74.13,1.44.37,2.32.61a4.6,4.6,0,0,1-2.95.35c-2.62-.25-5.24-.55-7.87-.73a44.41,44.41,0,0,0-5.06,0A7.55,7.55,0,0,1,85.65,209.48Z"/><path class="cls-6" d="M104.6,213.5c-1.2,0-2.42.08-3.6,0-4.14-.33-8.27-.71-12.4-1.08a2.72,2.72,0,0,1-.85-.12,9.68,9.68,0,0,1-1.09-.73,3.79,3.79,0,0,1,1.22-.43c1.83.05,3.67.12,5.48.31,3,.31,5.91.71,8.86,1.11.83.11,1.63.35,2.44.53Z"/><path class="cls-6" d="M87.36,214.66A26.7,26.7,0,0,1,99,215.78c-1.52.61-2.74.11-3.94,0-1.38-.08-2.77-.18-4.13-.34S88.24,215.58,87.36,214.66Z"/><path class="cls-6" d="M81.9,214.29a8,8,0,0,1-1,.17c-.68,0-1.36,0-2,0s-.95-.24-1-.8c-.09-1.45-.19-2.91-.18-4.36s.56-2,2.07-2c.9,0,1.8,0,2.7.09s.94.23,1,1c0,1.1,0,2.21,0,3.32A2.8,2.8,0,0,1,81.9,214.29Z"/><path class="cls-10" d="M100.51,253.47c2.36,1,4.62,1.88,6.81,2.92s4.32,2.27,6.49,3.4c5.47,2.85,11,5.65,16.4,8.54,4.69,2.5,9.31,5.11,14,7.66q3.13,1.71,6.31,3.34a9.76,9.76,0,0,0,1.88.68,3.65,3.65,0,0,1,2.45,2.63,1.75,1.75,0,0,1-.27,1,3.79,3.79,0,0,1-3.46.88q-6.14-3.07-12.25-6.19c-2.77-1.41-5.52-2.85-8.29-4.27l-13-6.65c-3.1-1.59-6.23-3.11-9.26-4.82a54.56,54.56,0,0,1-6.59-4.29C99.27,256.46,99.39,256.31,100.51,253.47Z"/><path class="cls-14" d="M107.55,258.08a6.05,6.05,0,0,1,.4,1.49,3.48,3.48,0,0,0,1.57,2.91c4.89,3.83,9.65,7.85,15.43,10.35,1.11.48,2.06,1.09,2,2.49-.83.9-1.73.43-2.54.09a48.81,48.81,0,0,1-10.11-5.77c-2.15-1.57-4.37-3.07-6.52-4.65a4.72,4.72,0,0,1-2-3.37c-.07-.66,0-1.34,0-2C105.74,258.5,106.31,258.08,107.55,258.08Z"/><path class="cls-14" d="M93.08,249.1a21.18,21.18,0,0,1,7.32,4.78,1.28,1.28,0,0,1-.5,2.29,3.64,3.64,0,0,1-2.44-.18,56.41,56.41,0,0,1-5.12-3.49,1.38,1.38,0,0,1-.47-1.09A4.13,4.13,0,0,1,93.08,249.1Z"/><path class="cls-14" d="M159.05,287.83a7.93,7.93,0,0,1,.48-1.51c.77-1.48,2.06-1.42,3.39-.37a21.5,21.5,0,0,1,2.35,2.1c2.08,2.32,1.94,2.87,1.94,2.87s0,.41-4.52-.37l-2.26-.6A1.91,1.91,0,0,1,159.05,287.83Z"/><path class="cls-9" d="M159.46,289.7c-1.07-.48-2-.85-2.9-1.3q-3.62-1.86-7.2-3.78c-.9-.48-1-.9-.49-1.7.67-1,1.39-2.06,2.06-3.11a1.22,1.22,0,0,1,1.53-.5,14.24,14.24,0,0,1,2.82,1.11c2.11,1.26,4.15,2.62,6.19,4a1.6,1.6,0,0,1,.64.88C162.42,286.57,160.9,289,159.46,289.7Z"/><path class="cls-9" d="M95,254.67a8.18,8.18,0,0,1,.53-1.12c.44-.7.95-1.37,1.43-2a1.32,1.32,0,0,1,1.68-.51c1.84.76,3.68,1.51,5.44,2.38s2,1.72.93,3.22c-.64.9-1.32,1.78-2.05,2.63s-1,.8-2,.34c-1.36-.62-2.73-1.25-4-1.94A3.16,3.16,0,0,1,95,254.67Z"/></g></g></svg>