<svg xmlns="http://www.w3.org/2000/svg" viewBox="0 0 360 360"><defs><style>.cls-1{isolation:isolate;}.cls-2{fill:#1b3e6f;}.cls-3,.cls-4{fill:#b5d0e1;}.cls-4{mix-blend-mode:multiply;}.cls-5{fill:#403024;}.cls-6{fill:#efb881;}.cls-7{fill:#ffc484;}.cls-8{fill:#bfbfb1;}.cls-9{fill:#eae4da;}.cls-10{fill:#cecec6;}.cls-11{fill:#a5a59d;}.cls-12{fill:#6b5648;}.cls-13{fill:#eac798;}.cls-14{fill:#fda;}.cls-15{fill:#003e6b;}.cls-16{fill:#57677d;}.cls-17{fill:#dfe3eb;}.cls-18{fill:#67788c;}</style></defs><title>Consultant_Professional_Tools_3C</title><g class="cls-1"><g id="Background"><circle id="_27.62.111" data-name="27.62.111" class="cls-2" cx="180" cy="180" r="180"/><circle id="_27.62.111-2" data-name="27.62.111" class="cls-3" cx="180" cy="180" r="180"/></g><g id="Artwork"><path class="cls-4" d="M228.18,322.9c5.07,3,16-14.59,11.65-20.74S225.69,291,218.59,291s-17.37,3.74-30.46,0-28.69.12-41.13,4.42-16.22-4.2-17.81,7.83,2.91,23.61,9.94,25.8,9.06,5.68,14.74,4.58c4.39-.85,20.11,1.35,25.9,0s20.25-7,25.2-7.84S215.61,315.52,228.18,322.9Z"/><path class="cls-5" d="M207.07,41s-2.78-3.5-.53-5.88,13.62-9.65,21.82-1.45,5.42,17.45,5.42,17.45-4.5,11.37-10.84,15.07Z"/><polygon class="cls-6" points="206.97 85.03 224.84 84.01 222.65 64.23 205.89 64.86 206.97 85.03"/><path class="cls-7" d="M229.06,50.09a1.77,1.77,0,0,0-1.4-.12l0-.08s-3-5.16-3.37-8.92c0,0-4.16-7.34-17.25,0l-5.95,17.25s-2.58,6.58,5.07,9.12c8.5,2.83,16.74-1.19,16.74-1.19l2.89-9.86c1.08.36,2.56-.47,3.45-2S230.15,50.72,229.06,50.09Z"/><path class="cls-5" d="M188.31,300.58l-12.73,8.84a1.74,1.74,0,0,0,.27,3,15.54,15.54,0,0,0,9.61.74l18.78-5.42Z"/><path class="cls-5" d="M226.73,309.64v2.81s7.14,8.56,18.78,9.56a4.05,4.05,0,0,0,3.93-6,10.48,10.48,0,0,0-1.88-2.45l-7.24-7.42Z"/><path class="cls-5" d="M181.67,165.67S190.1,289.14,187.13,300l18.6,8.4L209.45,194l16,116,15.65-4s.4-128.41,0-140.33Z"/><polygon class="cls-8" points="186.13 83.33 206.41 74.15 212.67 83.33 223.77 74.37 251.84 92.63 246.14 182.64 215.79 190.82 204.48 171.09 195.06 188.69 176.71 186.32 186.13 83.33"/><polygon class="cls-9" points="206.41 74.15 205.72 127.59 223.77 74.37 212.67 83.33 206.41 74.15"/><polygon class="cls-8" points="206.24 87.7 212.67 83.33 206.41 74.15 206.24 87.7"/><polygon class="cls-8" points="218.88 88.81 212.67 83.33 223.77 74.37 218.88 88.81"/><polygon class="cls-5" points="210.84 90.59 208.44 86.2 212.67 83.33 216.84 86.96 213.25 90.59 215.21 99.33 205.72 127.59 206.24 97.84 210.84 90.59"/><polygon class="cls-10" points="223.43 71.25 227.73 76.36 229.58 99.12 219.02 102.12 225.2 109.8 205.72 127.59 223.77 74.37 223.43 71.25"/><polygon class="cls-10" points="206.24 71.8 200.55 76.81 194.19 97.22 202.18 100.87 197.17 107.14 205.72 127.59 206.41 74.15 206.24 71.8"/><path class="cls-11" d="M186.13,83.33,155.88,131.7s-3,7.05,3.72,10,14.13-4,14.13-4l24.92-20.22-6.32-12.09-8.9,7.44Z"/><polygon class="cls-9" points="192.33 105.46 196.18 102.36 202.81 113.71 198.31 116.89 192.33 105.46"/><polygon class="cls-7" points="197.05 103.92 202.19 98.69 205.33 92.66 209.85 92.17 209.45 95.17 213.96 91.52 217.26 98.03 214.97 104.41 208.78 108.71 201.6 113.02 197.05 103.92"/><polygon class="cls-12" points="231.41 225.14 240.53 226.81 240.53 264.75 231.41 263.08 231.41 225.14"/><polygon class="cls-12" points="264.31 213.17 273.42 214.85 240.53 226.81 231.41 225.14 264.31 213.17"/><polygon class="cls-5" points="273.42 252.78 273.42 214.85 240.53 226.81 240.53 264.75 273.42 252.78"/><path class="cls-5" d="M263.62,216.52h-4.46v-5l-2.47.74L255.41,208l5.34-1.6a2.23,2.23,0,0,1,2.87,2.14Z"/><polygon class="cls-7" points="246.36 203 244.87 210.13 249.61 217.6 258.72 214.35 258.72 201.42 246.36 203"/><path class="cls-9" d="M244.4,199.38v4.74s9.11,2.7,14.32-1.58v-5.77Z"/><path class="cls-11" d="M251.84,92.63s-10.75,9.79-9.67,31.37l2.23,75.38s8.9,4.09,15.11-2l-1.35-81.55S258.82,96.35,251.84,92.63Z"/><path class="cls-5" d="M247.18,222.45h-4.46v-8.58a2.23,2.23,0,0,1,1.59-2.14l5.34-1.6,1.28,4.27-3.75,1.13Z"/></g><g id="Artwork-2" data-name="Artwork"><path class="cls-5" d="M144.21,24.52s-16.69-4.93-19.92,14c-2.74,16.08,4.93,25.24-7.1,33.13,0,0,29.38,24.45,54.62-3,0,0-8.87-4.93-8.08-18.54s-2.12-19.63-6.51-23.6C151.84,21.7,144.21,24.52,144.21,24.52Z"/><rect class="cls-13" x="138.04" y="60.22" width="15.77" height="25.5"/><path class="cls-14" d="M130.21,44.64S128,60.21,135.14,68.69c0,0,16.76-.79,19.92-8.28,0,0-14.59-21.49-14.39-26.23C140.66,34.19,135.54,41.48,130.21,44.64Z"/><path class="cls-15" d="M140.53,298.8l-14.59,12.88H117l-11.66,5.62a1.34,1.34,0,0,0,0,2.42l2.45,1.16h18.41a3.73,3.73,0,0,0,2.33-.82l8.18-6.54-1.58,6,3.42-.26,2-10.78Z"/><polygon class="cls-14" points="125.68 234.39 131.46 294.07 117 311.69 125.94 311.69 140.53 298.8 142.5 238.34 125.68 234.39"/><polygon class="cls-14" points="146.19 242.02 157.75 311.69 157.23 327.72 159.07 336.4 166.96 339.56 172.21 332.72 169.85 324.44 165.81 309.85 164.59 239.39 146.19 242.02"/><path class="cls-15" d="M157.23,327.72l-.66,8.29a3.09,3.09,0,0,0,1.16,2.66l7,5.55a3.4,3.4,0,0,0,3.13.59l2.42-.75a3.26,3.26,0,0,0,2.12-2.06l2.4-7a2.9,2.9,0,0,0-.23-2.38l-4.67-8.13s2.56,8.08-4,10.45S157.23,327.72,157.23,327.72Z"/><path class="cls-15" d="M110.3,157.62s-.29,17.75,2.22,28.79S123.31,240,123.31,240s25.9,13,30.5,12.62,14.85-11,14.85-11,7.1-69.28-4.73-90.84Z"/><path class="cls-16" d="M114.44,79.54,138,71.85l4.44,9.77,11.33-7.8L177.73,96.5l-16.3,29.05,10.39,42.59S156.74,179.44,129.9,175l-1.59-15.51L117.2,170.77s-11.77-7.36-13.61-12.36l19.46-31-9.2-19.72,4.47-12.09Z"/><polygon class="cls-17" points="138.04 71.85 136.72 110.69 153.81 73.82 142.48 81.62 138.04 71.85"/><polygon class="cls-18" points="153.81 73.82 153.81 98.2 147.9 98.2 148.81 102.81 136.72 110.69 153.81 73.82"/><polygon class="cls-18" points="138.04 71.85 128.44 95.44 133.24 97.15 129.9 100.04 136.72 110.69 138.04 71.85"/><polygon class="cls-17" points="149.92 88.66 142.48 81.62 153.81 73.82 149.92 88.66"/><polygon class="cls-17" points="133.74 85.73 142.48 81.62 138.04 71.85 133.74 85.73"/><path class="cls-15" d="M177.73,96.5s5.09,14.2-2.89,22.48l-32.36,31.81-25.28-17.6,10.06-9.25,15.22,8.45L159.59,109S169.32,96.36,177.73,96.5Z"/><polygon class="cls-15" points="114.44 79.54 95.44 125.55 100.18 131.33 138.86 135.54 140.66 125.81 110.17 117.4 118.32 95.58 114.44 79.54"/><polygon class="cls-14" points="119.6 119.99 119.17 114.12 118.2 108.21 111.49 105.06 108.78 110.55 105.35 115.71 110.16 117.42 119.6 119.99"/><polygon class="cls-14" points="140.95 125.93 145.79 118.22 151.64 118.2 157.48 118.62 154.56 123.76 150.78 124.36 147.48 129.58 145.05 135.21 138.3 135.79 140.95 125.93"/></g></g></svg>