<svg xmlns="http://www.w3.org/2000/svg" xmlns:xlink="http://www.w3.org/1999/xlink" viewBox="0 0 360 360"><defs><style>.cls-1,.cls-11{fill:#dde5ed;}.cls-2{fill:#fbc652;}.cls-3{isolation:isolate;}.cls-4,.cls-5{fill:#b5d0e1;}.cls-11,.cls-5{mix-blend-mode:multiply;}.cls-6{fill:#fff;}.cls-7{fill:#f43662;}.cls-8{opacity:0.3;}.cls-9{clip-path:url(#clip-path);}.cls-10,.cls-12{fill:#97382e;}.cls-12{opacity:0.2;}.cls-13{clip-path:url(#clip-path-2);}.cls-14{fill:#9d6b51;}.cls-15{fill:#563625;}.cls-16{fill:#fef1c9;}.cls-17{fill:#fddd78;}.cls-18{fill:#754e39;}.cls-19{fill:#cfa544;}.cls-20{clip-path:url(#clip-path-3);}.cls-21{fill:#7559a7;}.cls-22{fill:#523091;}.cls-23{fill:#9783bd;}.cls-24{fill:#4dbea0;}.cls-25{fill:#baacd3;}</style><clipPath id="clip-path"><path class="cls-1" d="M71.66,78.34c.55-2.84,2.39-3.38,3.61-4.11,6-3.59,12.67-6.22,20.13-6.5,6.28-.23,19.49-4.1,30.64,3.29.8.36,3.2,4.43,3.77,5-.74,2.86-4.09,4.57-6.65,5.55-4.94,1.88-9.86,4-15.28,4.58-6.89.76-13.77.81-20.45-1.31-2.53-.8-5-1.69-7.59-2.38A19.26,19.26,0,0,1,71.66,78.34Z"/></clipPath><clipPath id="clip-path-2"><path class="cls-1" d="M190.76,56.33c.55-2.84,2.39-3.38,3.61-4.11,6-3.59,12.67-6.22,20.13-6.5,6.28-.23,19.49-4.1,30.64,3.29.8.36,3.2,4.43,3.77,5-.74,2.86-4.09,4.57-6.65,5.55-4.94,1.88-9.86,4-15.28,4.58-6.89.76-13.77.81-20.45-1.31-2.53-.8-5-1.69-7.59-2.38A19.26,19.26,0,0,1,190.76,56.33Z"/></clipPath><clipPath id="clip-path-3"><path class="cls-2" d="M191.86,206.28a8.75,8.75,0,0,1,6.94-1.41,5.71,5.71,0,0,1,2.56,1.23,12.46,12.46,0,0,0,.08-3.73,17,17,0,0,0-2.07-5.9,1.51,1.51,0,0,0-1.74-.89c-3.92.83-7.66-.65-11.5-.85-1.21-.06-2.4-.32-3.6-.46-.93-.11-1.87-.16-2.8-.29-2.35-.33-4.69-.71-7-1.05-4-.6-8.12-1.08-11.95-2.66-.2-.08-.42-.15-.63-.22a2.52,2.52,0,0,1-2,1.6,51.61,51.61,0,0,1-5.64,1.3,7.13,7.13,0,0,1-2.91-.43c-1.53-.45-1.74-.85-1.79-2.56a2.07,2.07,0,0,1,.93-2.26c.13-.11.26-.23.38-.35-2.86-.77-5.71-1.61-8.55-2.48-3.43-1.06-6.89-2-10.3-3.14-2.73-.89-5.41-1.93-8.1-2.93a2.43,2.43,0,0,1-.94-.64c-.44-.5-.9-.85-1.58-.51s-.79,1-.71,1.69c.34,2.91.7,5.81.95,8.73.1,1.14.14,2.29.17,3.43a5.82,5.82,0,0,1,2.72-.41c1.15.11,2.31.15,3.47.16a6,6,0,0,1,3.49,1.35,2.11,2.11,0,0,1,1,2.17,9.41,9.41,0,0,1-3.09,5.69,10.64,10.64,0,0,1-6.4,1.89h-.39c.05.65.11,1.3.16,1.95h-.16a40.15,40.15,0,0,0,0,4.32c.31,2.89-.09,5.86,1.14,8.66a1.59,1.59,0,0,0,1.67,1.2,17,17,0,0,1,2.81.2l3.9.7c0-.15,0-.3,0-.45a4.17,4.17,0,0,1,2-3.27,6,6,0,0,0,1.93-2c1.45-2.4,4.69-2.51,6.8-.36a7.79,7.79,0,0,1,1.85,4.78,7.36,7.36,0,0,1-1.11,3.37c3.53.66,7.06,1.32,10.58,2,2.93.59,5.84,1.26,8.73,2,1.66.41,3.28,1,4.92,1.49,1.42.43,2.84.86,4.28,1.24v0a10.86,10.86,0,0,1-.31-2.08,8.78,8.78,0,0,0,0-1.64,2.51,2.51,0,0,1,.75-2.41,11.4,11.4,0,0,1,3.77-2.92,4.29,4.29,0,0,1,3.54-.23c2.75,1,5.23,2.44,6.51,5.27a8.16,8.16,0,0,1,.37,1.56,9,9,0,0,1-1.81,5c1.6.24,3.2.46,4.81.65,2.62.31,5.29.3,7.93.43.65,0,1.3,0,1.94.07a2.44,2.44,0,0,0,2.68-1.95c.16-1.13.15-2.29.22-3.44,0-.77.1-1.53.12-2.3.07-2.91.12-5.81.19-8.72a8.29,8.29,0,0,1-1.88.52,17,17,0,0,1-1.81.17,6.62,6.62,0,0,1-3.68-.63c-1.91-1-2.28-2.83-2.6-4.7a9,9,0,0,0-.18-1.3A2.42,2.42,0,0,1,191.86,206.28Zm-31.55,8.53a20.84,20.84,0,0,1-2.94-1.08,4.33,4.33,0,0,1-2.19-4.63,7.76,7.76,0,0,1,7.54-6.63,6.33,6.33,0,0,0,1-.08,2.92,2.92,0,0,1,3.18,1.57,6.76,6.76,0,0,1,1.5,4.68C168.87,212.12,163.89,216.11,160.31,214.81Z"/></clipPath></defs><title>consultant_webpage_cheeseboard_icon_3C_191016</title><g class="cls-3"><g id="Background"><circle id="_27.62.111" data-name="27.62.111" class="cls-4" cx="180" cy="180" r="180"/></g><g id="Artwork"><path class="cls-5" d="M228.26,180.34s-1.46-5.88-28.31-4.76-37.48,5.41-45.9,5-25.14-3.86-31.4,2.45,2.52,17.91,8.27,18.17,2.22,4.34-10.43,5.88-43.89-8-62,.88,11.28,34.6,43.54,32.51S173.48,235.77,176,228s-8.42-7.43-2.07-15.33,23.67-5.57,45.17-8.43S228.26,180.34,228.26,180.34Z"/><path class="cls-6" d="M100.65,235.45c-6.88-.22-13.77-.36-20.65-.71a31.88,31.88,0,0,1-6.45-1.29,8,8,0,0,1-2.9-1.5c-2.24-1.83-2.26-4.06-.3-6.22,2.59-2.86,6-4.25,9.55-5.37a117.44,117.44,0,0,1,19.91-4.21,9.84,9.84,0,0,1,2.68-.23c6,.92,12.12,1.4,17.73,4.11a13.72,13.72,0,0,1,6.91,7.56c1,2.46.74,3.28-1.64,4.52a10.31,10.31,0,0,1-3.64,1.25c-6.56.62-13.14,1.1-19.72,1.63-.5,0-1,.1-1.49.16Z"/><path class="cls-6" d="M105,148.33c-.46,2.76-.68,5.25-1.32,7.64-1,3.84-.86,7.73-1,11.63-.08,3.3-.4,6.59-.5,9.89-.12,3.9-.21,7.8-.13,11.7.11,5.2.3,10.4.68,15.59a47.74,47.74,0,0,0,1.42,8c.25,1,1.18,1.88,2.15,3.33.15,2.1-2.1,2.57-3.81,3.37a6.28,6.28,0,0,1-6.54-.53c-2.06-1.45-2.14-2.48-1.67-5.06,1.1-6,2.17-12,2.93-18.06a120.37,120.37,0,0,0,.92-21.26c-.25-4.78.26-9.6.11-14.39-.13-4-.73-7.92-1.13-11.93C99.82,147.31,102.24,147.82,105,148.33Z"/><path class="cls-1" d="M74.24,226.65c5,1.06,9.48,2.26,14.08,2.95a117.39,117.39,0,0,0,14.28,1.24c4.66.12,9.33-.3,14.48-.51a17.25,17.25,0,0,1-2.12,1.41,21.39,21.39,0,0,1-10.3,1.86c-5.09-.32-10.19-.52-15.27-.93a32.46,32.46,0,0,1-11.67-2.91A6,6,0,0,1,74.24,226.65Z"/><path class="cls-1" d="M104.74,150.58a29.64,29.64,0,0,1-.5,3c-.61,2.26-1.32,4.5-2,6.76-.93,3.24-1.93,6.46-2.73,9.74a18.11,18.11,0,0,0-.22,3.94,4,4,0,0,1-1,3,111.92,111.92,0,0,1,0-12.87c-.07-4.89-.66-8.31-.66-12.18A9.93,9.93,0,0,1,104.74,150.58Z"/><path class="cls-6" d="M107.6,66.89c6.78,0,11.64.41,16.17,2.7a12.66,12.66,0,0,1,6.63,8.14c.59,2,.38,4.33.49,6.51.5,9.92-.41,19.81-1.09,29.67a68.89,68.89,0,0,1-6.23,24,32.54,32.54,0,0,1-5.47,7.81,16.78,16.78,0,0,1-5.31,3.7c-8.06,3.82-16.24,4.87-24.49.45a7.15,7.15,0,0,0-1.37-.6c-7.24-2.08-11.82-6.94-14.86-13.69-3.69-8.22-6.62-16.66-6.3-25.74C66,103.41,67.15,97.07,68,90.73a30.48,30.48,0,0,1,1.2-5.26c1-3,2-6,3.19-9A3.24,3.24,0,0,1,73.84,75c2.28-1.23,4.51-2.73,6.95-3.47A122.77,122.77,0,0,1,107.6,66.89Z"/><path class="cls-7" d="M70.34,112.77c.62-4.68.8-9.46,2.53-14,1.5-3.94,4.29-6.33,9.56-6.11a67,67,0,0,1,7.57.53c6.84,1.07,13.46.09,20.11-1.32a74.13,74.13,0,0,1,10.94-1.57c5.84-.35,7.75,2,6.78,7.38a80.56,80.56,0,0,0-1.35,11.3,35,35,0,0,1-2.2,10.26c-2.57,7.31-5.14,14.63-9.34,21.34-2.14,3.41-7,5.86-11.26,6.64a21.21,21.21,0,0,1-12.07-1c-3.5-1.4-6-3.93-8.6-6.36a40,40,0,0,1-12.22-23C70.57,115.55,70.49,114.19,70.34,112.77Z"/><g class="cls-8"><path class="cls-6" d="M127.22,107.85c-.38,8-.42,15.6-2.85,22.81A93.73,93.73,0,0,1,119.71,142c-2,4.15-5.75,6.22-10.24,6.92a4,4,0,0,1-1.79.09c-2.67-.9-4.23-1.88-2.43-4.64,1.36-2.08,3-4,4.43-6,3.83-5.25,5.58-11.26,6.24-17.61.52-5,.74-10,1.28-14.94a13.12,13.12,0,0,1,1.52-4.8c1-1.87,2.48-2,4.37-1C126.53,101.83,127.3,104.9,127.22,107.85Z"/><path class="cls-6" d="M100.24,141.35c.81,2.38,1.4,4.46-.74,6.19-.81.66-1.58,1.23-2.64.54s-2.06-1.15-2-2.64a4,4,0,0,1,3.5-4.08A17.4,17.4,0,0,1,100.24,141.35Z"/></g><path class="cls-1" d="M71.66,78.34c.55-2.84,2.39-3.38,3.61-4.11,6-3.59,12.67-6.22,20.13-6.5,6.28-.23,19.49-4.1,30.64,3.29.8.36,3.2,4.43,3.77,5-.74,2.86-4.09,4.57-6.65,5.55-4.94,1.88-9.86,4-15.28,4.58-6.89.76-13.77.81-20.45-1.31-2.53-.8-5-1.69-7.59-2.38A19.26,19.26,0,0,1,71.66,78.34Z"/><g class="cls-9"><path class="cls-10" d="M70.34,109.39c.62-6.19.8-12.5,2.53-18.53,4.27-12.53,54.35-20.37,55-1.44a139.27,139.27,0,0,0-1.35,14.93,59.23,59.23,0,0,1-2.2,13.56c-2.57,9.66-5.14,19.33-9.34,28.19-2.14,4.51-7,7.74-11.26,8.77a16.42,16.42,0,0,1-12.07-1.33c-3.5-1.85-6-5.2-8.6-8.41-6.76-8.47-10.74-18.67-12.22-30.32C70.57,113.06,70.49,111.26,70.34,109.39Z"/></g><path class="cls-1" d="M93.75,216.75a8,8,0,0,0,6.5,2.35c4.06-.43,5.33.26,3.92,1s-8.78,1.28-10.89-.44S93,216.59,93.75,216.75Z"/><path class="cls-11" d="M70.84,80.6s9,1.89,19.57,43.67c2.36,9.34,2.74,24.83,27.7,21.4,0,0-2.79,6.63-18.9,7s-31.73-15.16-33.46-34.39S70.84,80.6,70.84,80.6Z"/><path class="cls-6" d="M80.81,82.64c37.08,4.77,42.27.21,48.28-5.4a2.39,2.39,0,0,1,1.12-.42,6,6,0,0,1-.31,3c-3.72,4.37-17.13,10.65-43.73,5.3C83.62,85,78.7,82.5,80.81,82.64Z"/><path class="cls-12" d="M83.05,82.93a58.09,58.09,0,0,0,19.6,4.27c11.16.45,21.31-3.65,20.52-5.6S83.05,82.93,83.05,82.93Z"/><path class="cls-5" d="M246.3,278.41s50.94-30,58.38-35.4c9.49-6.89,25.61-16.55,28.85-20.83s.78-9.13-9.26-9.25-14.1-5.4-20.83,0S246.3,278.41,246.3,278.41Z"/><path class="cls-6" d="M219.74,213.43c-6.88-.22-13.77-.36-20.65-.71a31.88,31.88,0,0,1-6.45-1.29,8,8,0,0,1-2.9-1.5c-2.24-1.83-2.26-4.06-.3-6.22,2.59-2.86,6-4.25,9.55-5.37a117.44,117.44,0,0,1,19.91-4.21,9.84,9.84,0,0,1,2.68-.23c6,.92,12.12,1.4,17.73,4.11a13.72,13.72,0,0,1,6.91,7.56c1,2.46.74,3.28-1.64,4.52a10.31,10.31,0,0,1-3.64,1.25c-6.56.62-13.14,1.1-19.72,1.63-.5,0-1,.1-1.49.16Z"/><path class="cls-6" d="M224.12,126.31c-.46,2.76-.68,5.25-1.32,7.64-1,3.84-.86,7.73-1,11.63-.08,3.3-.4,6.59-.5,9.89-.12,3.9-.21,7.8-.13,11.7.11,5.2.3,10.4.68,15.59a47.74,47.74,0,0,0,1.42,8c.25,1,1.18,1.88,2.15,3.33.15,2.1-2.1,2.57-3.81,3.37a6.28,6.28,0,0,1-6.54-.53c-2.06-1.45-2.14-2.48-1.67-5.06,1.1-6,2.17-12,2.93-18.06a120.37,120.37,0,0,0,.92-21.26c-.25-4.78.26-9.6.11-14.39-.13-4-.73-7.92-1.13-11.93C218.92,125.29,221.33,125.8,224.12,126.31Z"/><path class="cls-1" d="M193.34,204.63c5,1.06,9.48,2.26,14.08,2.95a117.39,117.39,0,0,0,14.28,1.24c4.66.12,9.33-.3,14.48-.51a17.25,17.25,0,0,1-2.12,1.41,21.39,21.39,0,0,1-10.3,1.86c-5.09-.32-10.19-.52-15.27-.93a32.46,32.46,0,0,1-11.67-2.91A6,6,0,0,1,193.34,204.63Z"/><path class="cls-1" d="M223.84,128.56a29.64,29.64,0,0,1-.5,3c-.61,2.26-1.32,4.5-2,6.76-.93,3.24-1.93,6.46-2.73,9.74a18.11,18.11,0,0,0-.22,3.94,4,4,0,0,1-1,3,111.92,111.92,0,0,1,0-12.87c-.07-4.89-.66-8.31-.66-12.18A9.93,9.93,0,0,1,223.84,128.56Z"/><path class="cls-6" d="M226.7,44.87c6.78,0,11.64.41,16.17,2.7a12.66,12.66,0,0,1,6.63,8.14c.59,2,.38,4.33.49,6.51.5,9.92-.41,19.81-1.09,29.67a68.89,68.89,0,0,1-6.23,24,32.54,32.54,0,0,1-5.47,7.81,16.78,16.78,0,0,1-5.31,3.7c-8.06,3.82-16.24,4.87-24.49.45a7.15,7.15,0,0,0-1.37-.6c-7.24-2.08-11.82-6.94-14.86-13.69-3.69-8.22-6.62-16.66-6.3-25.74.22-6.37,1.39-12.72,2.22-19.06a30.48,30.48,0,0,1,1.2-5.26c1-3,2-6,3.19-9A3.24,3.24,0,0,1,192.93,53c2.28-1.23,4.51-2.73,6.95-3.47A122.77,122.77,0,0,1,226.7,44.87Z"/><path class="cls-7" d="M189.43,90.76c.62-4.68.8-9.46,2.53-14,1.5-3.94,4.29-6.33,9.56-6.11a67,67,0,0,1,7.57.53c6.84,1.07,13.46.09,20.11-1.32a74.13,74.13,0,0,1,10.94-1.57c5.84-.35,7.75,2,6.78,7.38a80.56,80.56,0,0,0-1.35,11.3,35,35,0,0,1-2.2,10.26c-2.57,7.31-5.14,14.63-9.34,21.34-2.14,3.41-7,5.86-11.26,6.64a21.21,21.21,0,0,1-12.07-1c-3.5-1.4-6-3.93-8.6-6.36a40,40,0,0,1-12.22-23C189.67,93.53,189.59,92.17,189.43,90.76Z"/><g class="cls-8"><path class="cls-6" d="M246.31,85.83c-.38,8-.42,15.6-2.85,22.81A93.73,93.73,0,0,1,238.81,120c-2,4.15-5.75,6.22-10.24,6.92a4,4,0,0,1-1.79.09c-2.67-.9-4.23-1.88-2.43-4.64,1.36-2.08,3-4,4.43-6,3.83-5.25,5.58-11.26,6.24-17.61.52-5,.74-10,1.28-14.94a13.12,13.12,0,0,1,1.52-4.8c1-1.87,2.48-2,4.37-1C245.63,79.81,246.39,82.88,246.31,85.83Z"/><path class="cls-6" d="M219.34,119.33c.81,2.38,1.4,4.46-.74,6.19-.81.66-1.58,1.23-2.64.54s-2.06-1.15-2-2.64a4,4,0,0,1,3.5-4.08A17.4,17.4,0,0,1,219.34,119.33Z"/></g><path class="cls-1" d="M190.76,56.33c.55-2.84,2.39-3.38,3.61-4.11,6-3.59,12.67-6.22,20.13-6.5,6.28-.23,19.49-4.1,30.64,3.29.8.36,3.2,4.43,3.77,5-.74,2.86-4.09,4.57-6.65,5.55-4.94,1.88-9.86,4-15.28,4.58-6.89.76-13.77.81-20.45-1.31-2.53-.8-5-1.69-7.59-2.38A19.26,19.26,0,0,1,190.76,56.33Z"/><g class="cls-13"><path class="cls-10" d="M189.43,87.38c.62-6.19.8-12.5,2.53-18.53,4.27-12.53,54.35-20.37,55-1.44a139.27,139.27,0,0,0-1.35,14.93,59.23,59.23,0,0,1-2.2,13.56c-2.57,9.66-5.14,19.33-9.34,28.19-2.14,4.51-7,7.74-11.26,8.77a16.42,16.42,0,0,1-12.07-1.33c-3.5-1.85-6-5.2-8.6-8.41-6.76-8.47-10.74-18.67-12.22-30.32C189.67,91,189.59,89.24,189.43,87.38Z"/></g><path class="cls-1" d="M212.85,194.73a8,8,0,0,0,6.5,2.35c4.06-.43,5.33.26,3.92,1s-8.78,1.28-10.89-.44S212.14,194.57,212.85,194.73Z"/><path class="cls-11" d="M189.93,58.58s9,1.89,19.57,43.67c2.36,9.34,2.74,24.83,27.7,21.4,0,0-2.79,6.63-18.9,7s-31.73-15.16-33.46-34.39S189.93,58.58,189.93,58.58Z"/><path class="cls-6" d="M199.91,60.63c37.08,4.77,42.27.21,48.28-5.4a2.39,2.39,0,0,1,1.12-.42,6,6,0,0,1-.31,3c-3.72,4.37-17.13,10.65-43.73,5.3C202.72,63,197.79,60.48,199.91,60.63Z"/><path class="cls-12" d="M202.15,60.91a58.09,58.09,0,0,0,19.6,4.27c11.16.45,21.31-3.65,20.52-5.6S202.15,60.91,202.15,60.91Z"/><path class="cls-14" d="M54.62,246c-.7-1.32-2.88-.51-3.6-1.85s3.16-3.11,4.07-3.47a176.14,176.14,0,0,0,20-9.33c8.42-4.64,17-9,25.45-13.54,3.21-1.72,6.28-3.72,9.5-5.43,6.05-3.2,12.16-6.29,18.26-9.38,2.94-1.49,6-2.82,8.87-4.37a14.22,14.22,0,0,0,2.61-2.24,3.67,3.67,0,0,1,4.1-.83,26.66,26.66,0,0,0,6.83.94c8.27.42,16.55.64,24.81,1.13,5.06.31,10.09,1,15.14,1.5,1.95.19,3.91.29,5.85.54,2.64.33,5.28.74,7.91,1.16,2.19.35,4.37.8,6.56,1.13,4.84.72,9.69,1.37,14.53,2.1a145.12,145.12,0,0,0,15.12,1.52c6.92.31,13.79,1.5,20.7,2.12,4.52.4,9.06.57,13.59.65,8.19.14,16.38.06,24.57.25,2.64.06,5.27.71,7.91,1,1.06.13,2.27.46,3.17.09,2.3-1,4.25.42,6.36.62.34,0,.91,1,.83,1.35a4.73,4.73,0,0,1-1.11,2.38,27.43,27.43,0,0,1-5,4.32,68.64,68.64,0,0,0-10.57,7.14c-1.41,1.23-3,2.26-4.45,3.42-2,1.6-4,3.26-6,4.85-6.17,4.82-11.87,10.23-18.63,14.29-2.13,1.28-4,3-6,4.39-1.89,1.32-3.84,2.56-5.78,3.8a26.17,26.17,0,0,0-3.85,2.37c-3.36,3.11-7.36,5.3-11.05,7.92a14.11,14.11,0,0,1-8,2.51c-12,.33-23.83-.85-35.71-1.88-7.72-.67-15.43-1.31-23.14-2.11-7.52-.78-15-1.91-22.53-2.57a116.34,116.34,0,0,1-18.61-3.45c-2.4-.61-4.9-.84-7.36-1.22-2.11-.32-4.23-.58-6.34-.93-4.92-.8-9.82-1.67-14.74-2.44-5.54-.87-11.09-1.63-16.63-2.5-4.75-.74-9.47-1.64-14.22-2.31-5.64-.79-11.31-1.34-16.94-2.14C58.86,247.23,56.73,246.52,54.62,246Z"/><path class="cls-15" d="M237.78,266.7c0,2,0,4.7.07,6.46.1,2,.35,10.74.35,10.74s-3.69-.15-5.89-.09a67.64,67.64,0,0,1-13.21-1.41c-4.37-.76-33.88-4.27-38.76-4.68-1.47-.12-64.68-8.91-74.55-10.55-8-1.33-16-2.7-24.09-3.75-7.68-1-15.42-1.59-23.13-2.37-1.71-.17-7.55-.08-7.63-1.14-.39-5-.64-8.26-.91-13.31a2.68,2.68,0,0,1,3.2-3c4.78.39,9.55,1,14.33,1.35,10.23.8,20.4,2.09,30.53,3.69,3.82.6,7.72.75,11.55,1.33,5.75.88,11.46,2,17.21,2.95,8.39,1.33,16.8,2.52,25.2,3.84,3.19.5,46.29,5.69,48,5.77,3,.14,6.11.18,9.13.54,5.5.64,11,1.41,16.47,2.27C229.59,266,233.36,265.86,237.78,266.7Z"/><path class="cls-16" d="M286.69,220.65c-5.86.15-11.72.29-17.59.46-2.87.08-5.74.21-8.61.33-4.87.21-9.73.48-14.61.62-5.74.16-11.48.29-17.21.25-5.43,0-10.86-.27-16.28-.5a4.5,4.5,0,0,1-1.94-.88c-.89-.55-2-3.63-1.57-4.54a3,3,0,0,1,2.54-1.85c7.85-1.09,15.69-2.26,23.54-3.37,3.28-.46,6.56-.84,9.85-1.26,8.86-1.13,17.72-2.23,26.57-3.4,5.87-.78,11.73-1.65,17.6-2.48,1.91-.27,3.82-.61,5.74-.82,2.07-.22,2.59.28,2.51,2.27-.16,4.28-.35,8.55-.52,12.83a1.48,1.48,0,0,1-1.11,1.49,12.42,12.42,0,0,1-2.55.5c-2.12.14-4.24.18-6.36.27Z"/><path class="cls-17" d="M278.19,207.06c-3.13-.3-5.91.72-8.77,1.2-5,.84-10,1.6-15,2.43s-9.86,1.7-14.79,2.55c-3.17.54-6.36,1-9.51,1.63-5.59,1.18-11.15,2.5-16.71,3.77-.58.13-1.13.37-1.7.54-1.2.37-2.06,0-2.32-1.14-.33-1.44-.52-2.92-.73-4.39-.11-.8.47-1.12,1.08-1.45a102.94,102.94,0,0,1,13.16-6,41.08,41.08,0,0,0,4.31-1.71c6.35-3.2,13.12-5.33,19.81-7.65,6.52-2.26,13.09-4.37,19.42-7.16,3.32-1.46,6.82-2.5,10.24-3.71a3.16,3.16,0,0,1,3.46.62c2,1.76,4.17,3.33,6.24,5a5.41,5.41,0,0,1,.92,1.09,4.37,4.37,0,0,0,2.06,1.62,8.59,8.59,0,0,1,3.68,2.68,58.33,58.33,0,0,0,4.34,4.37c.77.77.63.88-.2,1.58-1.82,1.52-4,1.67-6.17,1.89a49.85,49.85,0,0,0-9.66,1.66A24.68,24.68,0,0,1,278.19,207.06Z"/><path class="cls-18" d="M317.91,211c.71,3.28,2.7,11.78,1.88,12.61s-1.48,1.81-2.33,2.59c-2.7,2.48-5.3,5.1-8.22,7.3-5.37,4.05-11,7.84-16.44,11.76-3.72,2.67-7.41,5.4-11.11,8.1a10.77,10.77,0,0,1-1.33.92c-6.37,3.3-11.55,8.24-17.39,12.25-5.64,3.87-11.12,7.94-16.67,11.92-2,1.41-6,4-8.22,5.49-.58-.11-.5-4.08-.65-5.21-.46-3.43-.89-8.31-1.5-11.71-.34-1.86,14.21-9.65,15.33-10.39,7.35-4.89,14.73-9.73,22-14.67,3.65-2.47,7.14-5.15,10.75-7.66,7.76-5.4,15.6-10.69,23.31-16.15C309.32,216.69,315.76,211,317.91,211Z"/><path class="cls-19" d="M199.44,195.3a11.73,11.73,0,0,1-1-1.06,9.94,9.94,0,0,0-1.72-1.49c-2.16-1.23-4.36-2.37-6.55-3.55a2.59,2.59,0,0,1-.55-.37c-2.49-2.34-5.77-3.44-8.51-5.39a21,21,0,0,1-2-1.43,14.93,14.93,0,0,0-2.08-1.55,2.57,2.57,0,0,1-.85.68,13.55,13.55,0,0,1-3.08,1.17,25.76,25.76,0,0,1-5.22.87,12,12,0,0,1-4.34-.82c-1.62-.61-2-2.4-1.51-4.09a4.28,4.28,0,0,1,2.63-2.82c.77-.29,1.52-.6,2.29-.89-1.53-1-3.07-1.91-4.63-2.82a54.19,54.19,0,0,0-5.32-2.67,6,6,0,0,0-2.56-.53,31.7,31.7,0,0,0-4.94.53l-.74.15a2.92,2.92,0,0,1,1.44,1.8,4.35,4.35,0,0,1-1.27,4.55,8.55,8.55,0,0,1-2.82,1.67c-1.71.58-3.5.91-4.72,1.21-2.07,0-3.49-.3-4.26-1.73a4.14,4.14,0,0,1,.25-4.83c.1-.13.21-.24.32-.36l-.55.12c-2.27.5-4.55,1-6.76,1.7-2.84.93-5.6,2.07-8.39,3.14a7.25,7.25,0,0,0-3,2,10.11,10.11,0,0,0,1.27.79c2.35,1,4.7,1.95,7.07,2.85a48.31,48.31,0,0,0,5.63,1.92c3.38.82,6.81,1.4,10.2,2.17,1.9.44,3.8.9,5.69,1.38a16.16,16.16,0,0,1,1.38-1.26c3.18-2.17,4.91-2.06,8.59,0a3.05,3.05,0,0,1,1.43,3.15,2.16,2.16,0,0,1-.31,1l.57.15a56.2,56.2,0,0,1,6.58,1.63,46.56,46.56,0,0,0,9.47,2.33c2.94.48,5.91.85,8.82,1.52a36.53,36.53,0,0,0,6.54,1c.55,0,1.09.19,1.64.24,1.7.16,3.41.32,5.12.44a1.1,1.1,0,0,0,1.23-.89C200,196.29,200.07,195.75,199.44,195.3Z"/><path class="cls-2" d="M191.86,206.28a8.75,8.75,0,0,1,6.94-1.41,5.71,5.71,0,0,1,2.56,1.23,12.46,12.46,0,0,0,.08-3.73,17,17,0,0,0-2.07-5.9,1.51,1.51,0,0,0-1.74-.89c-3.92.83-7.66-.65-11.5-.85-1.21-.06-2.4-.32-3.6-.46-.93-.11-1.87-.16-2.8-.29-2.35-.33-4.69-.71-7-1.05-4-.6-8.12-1.08-11.95-2.66-.2-.08-.42-.15-.63-.22a2.52,2.52,0,0,1-2,1.6,51.61,51.61,0,0,1-5.64,1.3,7.13,7.13,0,0,1-2.91-.43c-1.53-.45-1.74-.85-1.79-2.56a2.07,2.07,0,0,1,.93-2.26c.13-.11.26-.23.38-.35-2.86-.77-5.71-1.61-8.55-2.48-3.43-1.06-6.89-2-10.3-3.14-2.73-.89-5.41-1.93-8.1-2.93a2.43,2.43,0,0,1-.94-.64c-.44-.5-.9-.85-1.58-.51s-.79,1-.71,1.69c.34,2.91.7,5.81.95,8.73.1,1.14.14,2.29.17,3.43a5.82,5.82,0,0,1,2.72-.41c1.15.11,2.31.15,3.47.16a6,6,0,0,1,3.49,1.35,2.11,2.11,0,0,1,1,2.17,9.41,9.41,0,0,1-3.09,5.69,10.64,10.64,0,0,1-6.4,1.89h-.39c.05.65.11,1.3.16,1.95h-.16a40.15,40.15,0,0,0,0,4.32c.31,2.89-.09,5.86,1.14,8.66a1.59,1.59,0,0,0,1.67,1.2,17,17,0,0,1,2.81.2l3.9.7c0-.15,0-.3,0-.45a4.17,4.17,0,0,1,2-3.27,6,6,0,0,0,1.93-2c1.45-2.4,4.69-2.51,6.8-.36a7.79,7.79,0,0,1,1.85,4.78,7.36,7.36,0,0,1-1.11,3.37c3.53.66,7.06,1.32,10.58,2,2.93.59,5.84,1.26,8.73,2,1.66.41,3.28,1,4.92,1.49,1.42.43,2.84.86,4.28,1.24v0a10.86,10.86,0,0,1-.31-2.08,8.78,8.78,0,0,0,0-1.64,2.51,2.51,0,0,1,.75-2.41,11.4,11.4,0,0,1,3.77-2.92,4.29,4.29,0,0,1,3.54-.23c2.75,1,5.23,2.44,6.51,5.27a8.16,8.16,0,0,1,.37,1.56,9,9,0,0,1-1.81,5c1.6.24,3.2.46,4.81.65,2.62.31,5.29.3,7.93.43.65,0,1.3,0,1.94.07a2.44,2.44,0,0,0,2.68-1.95c.16-1.13.15-2.29.22-3.44,0-.77.1-1.53.12-2.3.07-2.91.12-5.81.19-8.72a8.29,8.29,0,0,1-1.88.52,17,17,0,0,1-1.81.17,6.62,6.62,0,0,1-3.68-.63c-1.91-1-2.28-2.83-2.6-4.7a9,9,0,0,0-.18-1.3A2.42,2.42,0,0,1,191.86,206.28Zm-31.55,8.53a20.84,20.84,0,0,1-2.94-1.08,4.33,4.33,0,0,1-2.19-4.63,7.76,7.76,0,0,1,7.54-6.63,6.33,6.33,0,0,0,1-.08,2.92,2.92,0,0,1,3.18,1.57,6.76,6.76,0,0,1,1.5,4.68C168.87,212.12,163.89,216.11,160.31,214.81Z"/><g class="cls-20"><path class="cls-19" d="M186,226a8.36,8.36,0,0,0-2.67-3.29,5.54,5.54,0,0,1,1.31,3.12c0,2.53-1.41,4.42-2.76,6.32a1.07,1.07,0,0,1-.53.37c-2.41.7-4.85,1.34-7.24.07a14,14,0,0,1-1.64-1,8.92,8.92,0,0,0,3.36,2.73c2.39,1.27,4.83.63,7.24-.07a1.07,1.07,0,0,0,.53-.37c1.35-1.89,2.73-3.79,2.76-6.32A8.16,8.16,0,0,0,186,226Z"/><path class="cls-19" d="M142.52,215.14a5.35,5.35,0,0,0-1.05-.83,8,8,0,0,1,1.18,3.89,6,6,0,0,1-2.48,4.72c-1.05.7-2.12,1.39-3.22,2a4.14,4.14,0,0,1-4.08.1,4.14,4.14,0,0,0,5.81,1.63c1.11-.6,2.17-1.3,3.22-2a6,6,0,0,0,2.48-4.72A7.79,7.79,0,0,0,142.52,215.14Z"/><path class="cls-19" d="M168.37,205.79a3.74,3.74,0,0,0-1.52-1.41,6.42,6.42,0,0,1,1.29,4.36c.48,3.46-4.5,7.45-8.08,6.15a21,21,0,0,1-2.93-1.08,4.22,4.22,0,0,0,1.72,1.72,20.84,20.84,0,0,0,2.94,1.08c3.58,1.29,8.56-2.7,8.08-6.15A6.76,6.76,0,0,0,168.37,205.79Z"/><path class="cls-19" d="M202.29,207.5a6,6,0,0,1-.37,7.11,4.74,4.74,0,0,1-3.07,1.42,17,17,0,0,1-1.81.17,6.62,6.62,0,0,1-3.68-.63h0a4.1,4.1,0,0,0,1.74,1.73,6.62,6.62,0,0,0,3.68.63,17,17,0,0,0,1.81-.17,4.74,4.74,0,0,0,3.07-1.42A6,6,0,0,0,202.29,207.5Z"/><path class="cls-19" d="M131.2,194.41c-.27-.2-.54-.38-.83-.55a1.86,1.86,0,0,1,0,1,9.41,9.41,0,0,1-3.09,5.69,10.64,10.64,0,0,1-6.4,1.89,4.61,4.61,0,0,1-2.37-.55,4.42,4.42,0,0,0,4.09,2.28,10.64,10.64,0,0,0,6.4-1.89,9.41,9.41,0,0,0,3.09-5.69A2.11,2.11,0,0,0,131.2,194.41Z"/><path class="cls-2" d="M178.86,180.69a3.21,3.21,0,0,0-1.88-3.22l-.07,0a3.17,3.17,0,0,1,.23,1.53,2.06,2.06,0,0,1-1.24,2.18,13.55,13.55,0,0,1-3.08,1.17,25.76,25.76,0,0,1-5.22.87,11.85,11.85,0,0,1-4.17-.77,2.53,2.53,0,0,0,1.56,1.67,12,12,0,0,0,4.34.82,25.76,25.76,0,0,0,5.22-.87,13.55,13.55,0,0,0,3.08-1.17A2.06,2.06,0,0,0,178.86,180.69Z"/><path class="cls-2" d="M151.64,172.74a3,3,0,0,0-1.83-2c0,.09.08.17.1.27a4.35,4.35,0,0,1-1.27,4.55,8.55,8.55,0,0,1-2.82,1.67c-1.71.58-3.5.91-4.72,1.21a7.51,7.51,0,0,1-2.7-.37c.06.12.11.24.17.36.77,1.42,2.18,1.74,4.26,1.73,1.22-.3,3-.63,4.72-1.21a8.55,8.55,0,0,0,2.82-1.67A4.35,4.35,0,0,0,151.64,172.74Z"/><path class="cls-19" d="M160.24,188.13l-.49-.27a3.77,3.77,0,0,1,.2,1.69,2.39,2.39,0,0,1-2.08,2.08,51.61,51.61,0,0,1-5.64,1.3,7.13,7.13,0,0,1-2.91-.43h0c.12,1,.5,1.36,1.73,1.73a7.13,7.13,0,0,0,2.91.43,51.61,51.61,0,0,0,5.64-1.3,2.39,2.39,0,0,0,2.08-2.08A3.05,3.05,0,0,0,160.24,188.13Z"/></g><path class="cls-21" d="M181.2,233a6,6,0,0,1,1.49-2.26,8.05,8.05,0,0,1,3.25-2.54,17,17,0,0,1,5.9-1.36,12.74,12.74,0,0,1,4.58.58c1.74,1,3.88,1.44,4.64,6.44a2.46,2.46,0,0,0-.1.3c-.21,2.05-1.58,3.46-3.32,4.66a21.54,21.54,0,0,1-2.79,1.82,16.11,16.11,0,0,1-3.45,1.18,17.24,17.24,0,0,1-5.64.33c-.8-.08-1.44,0-3.85-2.4a5.36,5.36,0,0,1-1.19-4.64C180.88,234.37,181,233.66,181.2,233Z"/><path class="cls-22" d="M190.4,242.12a6,6,0,0,1,1.49-2.26,8.05,8.05,0,0,1,3.25-2.54A17,17,0,0,1,201,236a12.74,12.74,0,0,1,4.58.58c1.74,1,3.88,1.44,4.64,6.44a2.46,2.46,0,0,0-.1.3c-.21,2.05-1.58,3.46-3.32,4.66a21.54,21.54,0,0,1-2.79,1.82,16.11,16.11,0,0,1-3.45,1.18,17.24,17.24,0,0,1-5.64.33c-.8-.08-1.44,0-3.85-2.4a5.36,5.36,0,0,1-1.19-4.64C190.08,243.54,190.24,242.83,190.4,242.12Z"/><path class="cls-23" d="M198.61,230.55a6,6,0,0,1,1.49-2.26,8.05,8.05,0,0,1,3.25-2.54,17,17,0,0,1,5.9-1.36,12.74,12.74,0,0,1,4.58.58c1.74,1,3.88,1.44,4.64,6.44a2.46,2.46,0,0,0-.1.3c-.21,2.05-1.58,3.46-3.32,4.66a21.54,21.54,0,0,1-2.79,1.82,16.11,16.11,0,0,1-3.45,1.18,17.24,17.24,0,0,1-5.64.33c-.8-.08-1.44,0-3.85-2.4a5.36,5.36,0,0,1-1.19-4.64C198.28,232,198.45,231.26,198.61,230.55Z"/><path class="cls-22" d="M208.57,239.44a6,6,0,0,1,1.49-2.26,8.05,8.05,0,0,1,3.25-2.54,17,17,0,0,1,5.9-1.36,12.74,12.74,0,0,1,4.58.58c1.74,1,3.88,1.44,4.64,6.44a2.46,2.46,0,0,0-.1.3c-.21,2.05-1.58,3.46-3.32,4.66a21.54,21.54,0,0,1-2.79,1.82,16.11,16.11,0,0,1-3.45,1.18,17.24,17.24,0,0,1-5.64.33c-.8-.08-1.44,0-3.85-2.4a5.36,5.36,0,0,1-1.19-4.64C208.24,240.86,208.41,240.15,208.57,239.44Z"/><path class="cls-22" d="M192.85,222.18a6,6,0,0,1,1.49-2.26,8.05,8.05,0,0,1,3.25-2.54,17,17,0,0,1,5.9-1.36,12.74,12.74,0,0,1,4.58.58c1.74,1,3.88,1.44,4.64,6.44a2.46,2.46,0,0,0-.1.3c-.21,2.05-1.58,3.46-3.32,4.66a21.54,21.54,0,0,1-2.79,1.82,16.11,16.11,0,0,1-3.45,1.18,17.24,17.24,0,0,1-5.64.33c-.8-.08-1.44,0-3.85-2.4a5.36,5.36,0,0,1-1.19-4.64C192.53,223.59,192.69,222.89,192.85,222.18Z"/><path class="cls-22" d="M208.4,217.82a6,6,0,0,1,1.49-2.26,8.05,8.05,0,0,1,3.25-2.54,17,17,0,0,1,5.9-1.36,12.74,12.74,0,0,1,4.58.58c1.74,1,3.88,1.44,4.64,6.44a2.46,2.46,0,0,0-.1.3c-.21,2.05-1.58,3.46-3.32,4.66a21.54,21.54,0,0,1-2.79,1.82,16.11,16.11,0,0,1-3.45,1.18A17.24,17.24,0,0,1,213,227c-.8-.08-1.44,0-3.85-2.4a5.36,5.36,0,0,1-1.19-4.64C208.08,219.23,208.24,218.53,208.4,217.82Z"/><path class="cls-22" d="M225.3,235.64a6,6,0,0,1,1.49-2.26,8.05,8.05,0,0,1,3.25-2.54,17,17,0,0,1,5.9-1.36,12.74,12.74,0,0,1,4.58.58c1.74,1,3.88,1.44,4.64,6.44a2.46,2.46,0,0,0-.1.3c-.21,2.05-1.58,3.46-3.32,4.66a21.54,21.54,0,0,1-2.79,1.82,16.11,16.11,0,0,1-3.45,1.18,17.24,17.24,0,0,1-5.64.33c-.8-.08-1.44,0-3.85-2.4a5.36,5.36,0,0,1-1.19-4.64C225,237.05,225.15,236.35,225.3,235.64Z"/><path class="cls-21" d="M234.81,228a6,6,0,0,1,1.49-2.26,8.05,8.05,0,0,1,3.25-2.54,17,17,0,0,1,5.9-1.36,12.74,12.74,0,0,1,4.58.58c1.74,1,3.88,1.44,4.64,6.44a2.46,2.46,0,0,0-.1.3c-.21,2.05-1.58,3.46-3.32,4.66a21.54,21.54,0,0,1-2.79,1.82A16.11,16.11,0,0,1,245,236.8a17.24,17.24,0,0,1-5.64.33c-.8-.08-1.44,0-3.85-2.4a5.36,5.36,0,0,1-1.19-4.64C234.49,229.38,234.65,228.67,234.81,228Z"/><path class="cls-22" d="M233.43,213.51a6,6,0,0,1,1.49-2.26,8.05,8.05,0,0,1,3.25-2.54,17,17,0,0,1,5.9-1.36,12.74,12.74,0,0,1,4.58.58c1.74,1,3.88,1.44,4.64,6.44a2.46,2.46,0,0,0-.1.3c-.21,2.05-1.58,3.46-3.32,4.66a21.54,21.54,0,0,1-2.79,1.82,16.11,16.11,0,0,1-3.45,1.18,17.24,17.24,0,0,1-5.64.33c-.8-.08-1.44,0-3.85-2.4a5.36,5.36,0,0,1-1.19-4.64C233.11,214.93,233.27,214.22,233.43,213.51Z"/><path class="cls-23" d="M225.3,235.64a6,6,0,0,1,1.49-2.26,8.05,8.05,0,0,1,3.25-2.54,17,17,0,0,1,5.9-1.36,12.74,12.74,0,0,1,4.58.58c1.74,1,3.88,1.44,4.64,6.44a2.46,2.46,0,0,0-.1.3c-.21,2.05-1.58,3.46-3.32,4.66a21.54,21.54,0,0,1-2.79,1.82,16.11,16.11,0,0,1-3.45,1.18,17.24,17.24,0,0,1-5.64.33c-.8-.08-1.44,0-3.85-2.4a5.36,5.36,0,0,1-1.19-4.64C225,237.05,225.15,236.35,225.3,235.64Z"/><path class="cls-23" d="M226.55,218.65a6,6,0,0,1,1.49-2.26,8.05,8.05,0,0,1,3.25-2.54,17,17,0,0,1,5.9-1.36,12.74,12.74,0,0,1,4.58.58c1.74,1,3.88,1.44,4.64,6.44a2.46,2.46,0,0,0-.1.3c-.21,2.05-1.58,3.46-3.32,4.66a21.54,21.54,0,0,1-2.79,1.82,16.11,16.11,0,0,1-3.45,1.18,17.24,17.24,0,0,1-5.64.33c-.8-.08-1.44,0-3.85-2.4a5.36,5.36,0,0,1-1.19-4.64C226.22,220.07,226.39,219.36,226.55,218.65Z"/><path class="cls-21" d="M221.72,208.4a6,6,0,0,1,1.49-2.26,8.05,8.05,0,0,1,3.25-2.54,17,17,0,0,1,5.9-1.36,12.74,12.74,0,0,1,4.58.58c1.74,1,3.88,1.44,4.64,6.44a2.46,2.46,0,0,0-.1.3c-.21,2.05-1.58,3.46-3.32,4.66a21.54,21.54,0,0,1-2.79,1.82,16.11,16.11,0,0,1-3.45,1.18,17.24,17.24,0,0,1-5.64.33c-.8-.08-1.44,0-3.85-2.4a5.36,5.36,0,0,1-1.19-4.64C221.39,209.82,221.56,209.11,221.72,208.4Z"/><path class="cls-21" d="M208.57,239.44a6,6,0,0,1,1.49-2.26,8.05,8.05,0,0,1,3.25-2.54,17,17,0,0,1,5.9-1.36,12.74,12.74,0,0,1,4.58.58c1.74,1,3.88,1.44,4.64,6.44a2.46,2.46,0,0,0-.1.3c-.21,2.05-1.58,3.46-3.32,4.66a21.54,21.54,0,0,1-2.79,1.82,16.11,16.11,0,0,1-3.45,1.18,17.24,17.24,0,0,1-5.64.33c-.8-.08-1.44,0-3.85-2.4a5.36,5.36,0,0,1-1.19-4.64C208.24,240.86,208.41,240.15,208.57,239.44Z"/><path class="cls-21" d="M235.55,242.76A6,6,0,0,1,237,240.5a8.05,8.05,0,0,1,3.25-2.54,17,17,0,0,1,5.9-1.36,12.74,12.74,0,0,1,4.58.58c1.74,1,3.88,1.44,4.64,6.44a2.46,2.46,0,0,0-.1.3c-.21,2.05-1.58,3.46-3.32,4.66a21.54,21.54,0,0,1-2.79,1.82,16.11,16.11,0,0,1-3.45,1.18,17.24,17.24,0,0,1-5.64.33c-.8-.08-1.44,0-3.85-2.4a5.36,5.36,0,0,1-1.19-4.64C235.23,244.17,235.4,243.47,235.55,242.76Z"/><path class="cls-22" d="M217.07,227.44a6,6,0,0,1,1.49-2.26,8.05,8.05,0,0,1,3.25-2.54,17,17,0,0,1,5.9-1.36,12.74,12.74,0,0,1,4.58.58c1.74,1,3.88,1.44,4.64,6.44a2.46,2.46,0,0,0-.1.3c-.21,2.05-1.58,3.46-3.32,4.66a21.54,21.54,0,0,1-2.79,1.82,16.11,16.11,0,0,1-3.45,1.18,17.24,17.24,0,0,1-5.64.33c-.8-.08-1.44,0-3.85-2.4a5.36,5.36,0,0,1-1.19-4.64C216.75,228.85,216.91,228.14,217.07,227.44Z"/><path class="cls-24" d="M261.9,232.05a4.71,4.71,0,0,1,4.13-.87,3.56,3.56,0,0,1,2.61,3.17,3.49,3.49,0,0,1-.59,2.44,2.85,2.85,0,0,1-2.95,1,5.58,5.58,0,0,1-3.22-1.85,2.15,2.15,0,0,0,0,2,18.21,18.21,0,0,0,1.39,2.14c.73.93,1.54,1.79,2.3,2.7a7,7,0,0,1,.49.75l-.18.21a14.49,14.49,0,0,1-1.28-.79,17.73,17.73,0,0,1-3.73-4.48,3.23,3.23,0,0,1-.55-2.75,5,5,0,0,0-.26-3.31,15.79,15.79,0,0,0-1.83-3.8c-1.15,1.38-2.63,1.37-4.14,1.07a2.32,2.32,0,0,1-1.87-1.58c-.32-.94-.9-1.91-.13-2.88a2,2,0,0,1,.92-.71,4.11,4.11,0,0,1,3.09,0c.25.12.52.19.87.32a1.55,1.55,0,0,0-.89-1.31,30.43,30.43,0,0,0-3.74-2,3.44,3.44,0,0,0-1.78-.12A6.9,6.9,0,0,0,246.9,223a1.34,1.34,0,0,1-.18-1.72,4.44,4.44,0,0,1,4.5-2,12.69,12.69,0,0,1,6.59,3.76A3.81,3.81,0,0,1,259,225.7a2.48,2.48,0,0,0,.57,1.56,13.31,13.31,0,0,1,2.11,4.38A3.55,3.55,0,0,0,261.9,232.05Zm3.8.46a2.86,2.86,0,0,0-2.32.67c-.69.63-.75,1.08-.05,1.72,1.51,1.39,2.65,1,3.95-.17a.91.91,0,0,0-.1-1.48A9.27,9.27,0,0,0,265.7,232.51Zm-12.46-6.6c.37,2,.94,2.18,1.87,2.3a1.65,1.65,0,0,0,2.06-1.2A3.21,3.21,0,0,0,253.23,225.91Z"/><path class="cls-15" d="M142.46,229.2a26,26,0,0,1,.92-5.47,14.61,14.61,0,0,1,.51-1.51,2.08,2.08,0,0,1,1.44-1.33,5,5,0,0,1,2.67-.28,2,2,0,0,1,1.71,1.94,5,5,0,0,1-.44,2.29,28.24,28.24,0,0,1-2.4,3.87,31.84,31.84,0,0,1-2.43,3.14c-.52.57-1.18.51-1.47-.23A5.18,5.18,0,0,1,142.46,229.2Z"/><path class="cls-15" d="M133.09,227.29c.33,0,.67-.09.9.3a2.32,2.32,0,0,1,.52,1.62,5.64,5.64,0,0,1-1.76,3c-.39.4-.63.95-1,1.32-.86.79-1.8,1.51-2.69,2.27a1.83,1.83,0,0,1-1.94.22,1.64,1.64,0,0,1-.87-1.36,3.23,3.23,0,0,1,.41-2.19c.47-.8.93-1.62,1.47-2.37a21.08,21.08,0,0,1,1.5-1.71c.07-.07.14-.17.22-.19C130.92,227.93,131.87,227.16,133.09,227.29Z"/><path class="cls-15" d="M114.6,232a15.37,15.37,0,0,1-1.67,0,1.17,1.17,0,0,1-1-1.66,1.19,1.19,0,0,1,.21-.38c.72-.8,1.43-1.61,2.17-2.39a8,8,0,0,1,2.58-1.91,5.56,5.56,0,0,1,3.67-.28,1.87,1.87,0,0,1,1,2.67,6.66,6.66,0,0,1-2.44,2.37,8.7,8.7,0,0,1-2.79,1.11,1.19,1.19,0,0,0-.28.09A2.34,2.34,0,0,1,114.6,232Z"/><path class="cls-15" d="M173.23,246a15.37,15.37,0,0,1,1.38.94,1.17,1.17,0,0,1-.11,1.92,1.19,1.19,0,0,1-.39.2c-1,.26-2.08.53-3.13.76a8,8,0,0,1-3.21.14,5.56,5.56,0,0,1-3.19-1.82,1.87,1.87,0,0,1,.63-2.8,6.66,6.66,0,0,1,3.35-.59,8.7,8.7,0,0,1,2.93.64,1.19,1.19,0,0,0,.28.08A2.34,2.34,0,0,1,173.23,246Z"/><path class="cls-15" d="M141.21,242.37a14.77,14.77,0,0,1-3.14-.77,2.38,2.38,0,0,0-.4-.18,3.19,3.19,0,0,1-2.06-1.67c-.81-1.48-.72-2.2.81-3.1a3.87,3.87,0,0,1,5.11,1.12c.4.52.68,1.13,1,1.69a3.74,3.74,0,0,1,.34,2,.85.85,0,0,1-.75.78C141.88,242.33,141.61,242.34,141.21,242.37Z"/><path class="cls-18" d="M130.17,240.13a1.58,1.58,0,0,1-1.12.9,16.79,16.79,0,0,0-1.66.59.64.64,0,0,1-.71,0,1.34,1.34,0,0,1,.24-2.24,2.35,2.35,0,0,1,2.48.18C129.64,239.7,129.88,239.9,130.17,240.13Z"/><path class="cls-18" d="M108.48,237.75a3.82,3.82,0,0,1-.78-.23.9.9,0,0,1-.12-1.58,1.92,1.92,0,0,1,2.19-.28,9.49,9.49,0,0,1,1,.57c.4.31.37.57,0,.89a.78.78,0,0,1-.28.18Z"/><path class="cls-18" d="M123.64,235.78a4.78,4.78,0,0,1-2.43,1.36.9.9,0,0,1-1-.55,1.16,1.16,0,0,1,.25-1.39,1.83,1.83,0,0,1,2.2-.19A9.45,9.45,0,0,1,123.64,235.78Z"/><path class="cls-18" d="M154.28,239.85c.57.14,1.11.13,1.36.77.13.35.09.65-.21.81a3.63,3.63,0,0,1-2.65.58.68.68,0,0,1-.57-.63c-.05-.36-.13-.77.33-.94S153.69,240,154.28,239.85Z"/><path class="cls-18" d="M147.75,234.64c-.11,0-.28,0-.44-.06a.87.87,0,0,1-.59-1.4,2.6,2.6,0,0,1,1.77-1c.43-.09.93.31,1.18.8s0,.74-.29,1A2,2,0,0,1,147.75,234.64Z"/><path class="cls-18" d="M155.79,238.25h-.17c-.26,0-.6.2-.73-.17a1.12,1.12,0,0,1,.09-1.19,2.7,2.7,0,0,1,2.06-.78.53.53,0,0,1,.35.19,2.14,2.14,0,0,1,.37.55c.44,1,.36,1.17-.74,1.31l-1.22.16Z"/><path class="cls-18" d="M148.13,239.45c0,.07,0,0,0-.15-.13-.93.55-1.53,1.4-1.18a5.49,5.49,0,0,1,1.23.74c.38.29.32.68-.08,1a3.94,3.94,0,0,1-2.18.57C148,240.41,148.08,240,148.13,239.45Z"/><path class="cls-18" d="M164.18,234.36a2.91,2.91,0,0,1-3,1.15c-.2,0-.51-.26-.52-.43,0-.33-.27-.75.14-1a1.94,1.94,0,0,1,.84-.36,7.84,7.84,0,0,1,1.75.1C163.64,233.86,163.87,234.13,164.18,234.36Z"/><path class="cls-18" d="M147.66,243.43c-.06.84-.06.87-.75,1s-1.43.31-2.15.44c-.3.05-.47-.14-.57-.4s-.12-.7.19-.81a12.34,12.34,0,0,1,2.33-.67C147,243,147.35,243.29,147.66,243.43Z"/><path class="cls-23" d="M224.16,208.46a4.86,4.86,0,0,1,1.5-1.74,16.45,16.45,0,0,1,2.35-1.63,6.59,6.59,0,0,1,1.2-.51,7.31,7.31,0,0,1,2.17-.55c.81,0,1.23.56.82,1.26a3.93,3.93,0,0,1-1.64,1.5l-5.14,2.7a3,3,0,0,0-.54.41c-.36.31-.71.21-.8-.24A1.7,1.7,0,0,1,224.16,208.46Z"/><path class="cls-21" d="M219,228.23a4.86,4.86,0,0,1,1.27-1.92,16.45,16.45,0,0,1,2.12-1.92,6.59,6.59,0,0,1,1.13-.66,7.31,7.31,0,0,1,2.08-.81c.8-.13,1.29.4,1,1.15a3.93,3.93,0,0,1-1.44,1.69l-4.76,3.32a3,3,0,0,0-.48.48c-.31.35-.68.3-.82-.14A1.7,1.7,0,0,1,219,228.23Z"/><path class="cls-25" d="M195.22,223a4.86,4.86,0,0,1,1.6-1.65,16.45,16.45,0,0,1,2.43-1.5,6.59,6.59,0,0,1,1.23-.44,7.31,7.31,0,0,1,2.2-.42c.81,0,1.19.62.75,1.31a3.93,3.93,0,0,1-1.72,1.41l-5.28,2.41a3,3,0,0,0-.56.38c-.37.29-.72.17-.78-.29A1.7,1.7,0,0,1,195.22,223Z"/></g></g></svg>