<svg xmlns="http://www.w3.org/2000/svg" xmlns:xlink="http://www.w3.org/1999/xlink" viewBox="0 0 360 360"><defs><style>.cls-1{fill:#fff;}.cls-19,.cls-2{fill:#eeede8;}.cls-3{fill:#f4364c;}.cls-4{isolation:isolate;}.cls-5,.cls-6{fill:#b5d0e1;}.cls-14,.cls-19,.cls-21,.cls-6{mix-blend-mode:multiply;}.cls-7{fill:#563625;}.cls-8{fill:#97382e;}.cls-9{fill:#c3c1ae;}.cls-10{fill:#d4d3c5;}.cls-11{fill:#f65e70;}.cls-12{fill:#414142;}.cls-13{clip-path:url(#clip-path);}.cls-14,.cls-17{fill:#dde5ed;}.cls-15{fill:#71757b;}.cls-16{clip-path:url(#clip-path-2);}.cls-18{clip-path:url(#clip-path-3);}.cls-20{clip-path:url(#clip-path-4);}.cls-21{fill:#f99aa5;}.cls-22{clip-path:url(#clip-path-5);}.cls-23{fill:#a28245;}</style><clipPath id="clip-path"><path class="cls-1" d="M128.48,94.15s1.28,8.18,0,8.76-4.24,2.17-4.24,2.17,7.61,4.8,11.82,4.65,10.89-8,10.6-10.45c0,0-5.56,1.45-5.85,0a22.68,22.68,0,0,1-.12-4.24Z"/></clipPath><clipPath id="clip-path-2"><path class="cls-1" d="M146.25,76.73c.11,5.39-.6,13-.6,13s-1.55,4.87-3.27,6.69-5.65,1.67-7.44,1.31a32.88,32.88,0,0,1-8.23-4c-1.69-1.26-3.12-5.45-4.28-9.35-.15-.52.33-1.35.72-1.89a75.42,75.42,0,0,1,4.68-6.22c3.11-3.52,6.24-7,9.62-10.28,4.23-4.08,6-1.73,7,2.22C145.24,71.16,145.74,74.22,146.25,76.73Z"/></clipPath><clipPath id="clip-path-3"><path class="cls-2" d="M126.32,135.61a26.61,26.61,0,0,0,1.21,3.63s5.84,2.62,9.64,2.93c.39-.83-.17-13.71,2-18.77,7.43-14.27,17.16-19.57,18.83-23.51-1.41-2.27-8.47-2.11-11.31-1.07-1,1.42-4,5.6-5.66,6.71-3.77,2.52-7.44,8.94-8.75,11.82-2.3,3.6-4.78,5.77-5.33,9.23A49.41,49.41,0,0,0,126.32,135.61Z"/></clipPath><clipPath id="clip-path-4"><path class="cls-3" d="M216.37,95.11c-4-1-2.88,1.1-2.78,3.31.18,4-.72,8.63-.59,12.65.16,4.65-.62,8-1.5,12.57a42.25,42.25,0,0,0-.69,12.59c.79,6.42.18,12.87.22,19.3a49.76,49.76,0,0,0,.71,6.77c.53,3.67,1.09,7.35,1.78,11,.55,2.9,1.27,5.76,2,8.63.42,1.69,16.54-4,15.91-6.29-1.2-4.47-2.43-8.94-3.71-13.39-1.85-6.4-2-13-2.19-19.58q-.09-3-.26-5.9c-.08-1.44-.22-2.87-.36-4.31q-.95-9.62-1.91-19.24c-.1-1.05-.2-2.11-.21-3.17a18.62,18.62,0,0,0-2.44-9.83,24.64,24.64,0,0,0-1.58-2.6C218.11,96.77,217.58,95.63,216.37,95.11Z"/></clipPath><clipPath id="clip-path-5"><path class="cls-1" d="M202.41,88.44l-.73-12.13-14.47-1.94s-2,9.94-2.77,12.72a15.51,15.51,0,0,1-3.73,1.21s6.23,10.23,7.14,11.65,3.09,4.41,4.56,3.41,12.9-13.07,12.33-13.71A7.24,7.24,0,0,0,202.41,88.44Z"/></clipPath></defs><title>consultant_webpage_retiredcouple_icon_3C_191016</title><g class="cls-4"><g id="Background"><circle id="_27.62.111" data-name="27.62.111" class="cls-5" cx="180" cy="180" r="180"/></g><g id="Artwork"><path class="cls-6" d="M170.26,311s19-4.53,24.35-5.57c15.64-3.08,15.15,13.29,24.69,8.65s14.83-6.63,19.84-8.11,30.42-15.43,17.22-20.59-31.25-6.9-44.61-8-45-2.29-61-2.29-14.42,4.47-18.43,13.24c-5,10.91-21.19,15.88-11.9,16.11s22.06-5.59,34.53-1.11S170.26,311,170.26,311Z"/><path class="cls-1" d="M172.09,292.38s-.86,11.42,0,12.72,6,.94,6.87,0,1.72-12.72,1.72-12.72Z"/><path class="cls-1" d="M200.55,288.26s-.86,11.42,0,12.72,6,.94,6.87,0,1.72-12.72,1.72-12.72Z"/><path class="cls-7" d="M129.57,297.36s2.62,1.09,2.72,3.14-2.61,4.09-2.61,4.09-9.15,5.34-14.14,5.82-5.86.06-7.67-1.51c-1.55-1.34,2.08-3.32,3.17-4.12s6.86-3.71,8.45-3.87S129.57,297.36,129.57,297.36Z"/><path class="cls-1" d="M123,279s1.12,18,.14,19.36-9,5.39-9.35,6.19,7.39,1.94,12.25-1.72,3.58-5.51,3.58-5.51l1.53-20.05Z"/><path class="cls-7" d="M151.34,297.75s-2.62,1.09-2.72,3.14,2.61,4.09,2.61,4.09,9.15,5.34,14.14,5.82,5.86.06,7.67-1.51c1.55-1.34-2.08-3.32-3.17-4.12s-6.86-3.71-8.45-3.87S151.34,297.75,151.34,297.75Z"/><path class="cls-1" d="M158,279.42s-1.12,18-.14,19.36,9,5.39,9.35,6.19-7.39,1.94-12.25-1.72-3.58-5.51-3.58-5.51l-1.53-20.05Z"/><polygon class="cls-2" points="163.01 130.47 166.81 129.78 165.2 141.01 163.01 130.47"/><path class="cls-1" d="M230,206.06c-1.63-.4-2.51-9.48-4.69-10.86-.55,1.93.36,4.83-.19,6.43a1.82,1.82,0,0,1-1.05,1.09c-.75.18-1.3-.42-1.55-1.19a15.27,15.27,0,0,1-.62-2.6q-.52-3.87-.92-7.75a4.64,4.64,0,0,1,1.28-4,30,30,0,0,1,3.16-2.7c1.75-1.28,2.29-.6,3.64,1.29s2,4.24,3.71,6.85c3.51,5.26,2.23,5.44,1.45,9.19a12.88,12.88,0,0,1-.47,1.68C232.88,205.77,232.38,206.11,230,206.06Z"/><path class="cls-1" d="M227.19,177.91s.7,6,2.21,8.51l-7.5,2.85s-.46-5.83-1.53-8.63l-1.07-2.8Z"/><path class="cls-8" d="M218.6,180s-.23,3.69,1.19,3.81,8.57,0,9.61-1.91,0-5.34,0-5.34Z"/><path class="cls-9" d="M215.13,169.17A14.67,14.67,0,0,0,209,168.1c-3.29,0-6.58-.17-9.88-.18-1.58,0-3.15.2-4.73.3a5.31,5.31,0,0,1-1.5,0c-7.43-1.71-12.58-1.93-20.08-2.86-2.06-.25-3.84-.36-3.84-.36s-2.52,9.3-2.59,12.61a224,224,0,0,0,.92,24.46c.34,3.94.26,7.92.33,11.89,0,2.65.06,5.3,0,7.94-.1,4.41-.28,8.81-.4,13.22-.1,3.67-.08,7.35-.25,11-.27,5.8-.68,23.75-1,29.55-.2,3.82-.29,11.69-.43,15.51-.15,4.11,21.93,4.15,22.08-3.56.15-8.23.6-32.68.85-40.92.12-4,.2-8,.08-11.92-.22-6.93.13-13.81.56-20.71.23-3.73,0-7.5-.07-11.25a34.06,34.06,0,0,1,1.22-11.62c.95,0-.47-.11.76-.13.44,3,.83,6,1.31,8.93,1.26,7.7,1.22,15.52,1.9,23.27.43,4.9,1.11,9.77,1.62,14.66a53.52,53.52,0,0,1,.36,6.16c-.06,5.07-.25,10.15-.39,15.22-.16,5.88-.3,23.92-.47,29.8-.12,4.17,21.49,6.52,21.41,4.39-.09-2.5-.26-5-.23-7.49.07-6,.2-24.08.35-30,0-1,.25-2,.24-3.07,0-3.23-.07-6.46-.19-9.69-.14-3.82-.35-7.64-.54-11.46-.33-6.83-.75-13.66-1-20.49-.22-7.21-.29-14.42-.34-21.64,0-5.88,0-11.76.06-17.64C215.18,171.07,215.15,170.12,215.13,169.17Z"/><path class="cls-3" d="M186.77,88.94c2,2.91-.13,2.63-2.08,3.2-3.54,1-7.3,3.11-10.83,4.18-4.09,1.24-.46,6.43-4.19,8.48-3.23,1.77-13.39-.14-17.06.66-5.81,1.25-11.24,3.63-16.85,5.48a49.43,49.43,0,0,1-6.1,1.42c-3.35.65-6.7,1.28-10.08,1.8-2.68.41-5.38.67-8.08.94-1.59.16-3.19.18-4.79.31s-3-3.72-3.51-5.32c-1.23-3.75,7-11.48,12.66-12.07,4.24-.35,8.38-1,12.63-1.24,6.1-.4,8.5.55,14.29-1.21q2.6-.79,5.21-1.52c1.28-.35,2.56-.66,3.85-1l17.29-4.11c.95-.23,1.9-.46,2.82-.76a18.4,18.4,0,0,1,9.26-.93,23.61,23.61,0,0,1,2.72.5A6,6,0,0,1,186.77,88.94Z"/><path class="cls-10" d="M158.9,100.4s-2.57,2.71-2.45,5.87c.32,8.53,7.93,26.22,8.23,26.44s13-6.36,13.21-7-9.27-18.12-10-19.64S162.2,98.73,158.9,100.4Z"/><path class="cls-11" d="M200.26,94.73c4.75,2.73,12.1-.58,16.52,2-1.4,7.65-3.44,21.11-4.07,28.92-.39,4.78-1.07,9.57-1.07,14.35,0,8.14,10.51,38.1,5.14,45.92-3.83.56-39.88,1.58-48.17,1.46a6.23,6.23,0,0,1-1.42-.19c-2.53-.64-3.11-1.24-3.16-3.62,0-1.52.17-3,.23-4.57.15-3.41.22-6.82.43-10.23.38-6.31-.11-20,.33-26.3,2.86-22.83,1-45.64,5.66-47.53,2.86-1.23,7.08,2.95,8.77,1.74,3.51.94,5.86,2,9.45,1.9a24.61,24.61,0,0,0,6-1.48C197.48,96.29,197.86,95.52,200.26,94.73Z"/><path class="cls-2" d="M120.31,111.17s-5.71,2.5-7.66,2.25-4.08-3.86-3.43-4.84,9.27-5.69,11.38-6.64a27.79,27.79,0,0,1,6.66-2.15c3.79-.89,7.53-.22,11.87-1.88s11.29-1.67,14.57-.84,3.45,3.8,0,4.86S120.31,111.17,120.31,111.17Z"/><path class="cls-12" d="M117.74,171.5a15.05,15.05,0,0,1,6.12-1c3.29,0,6.58-.16,9.88-.17,1.58,0,3.15.2,4.73.3a5.46,5.46,0,0,0,1.5,0c7.43-1.65,12.58-1.87,20.07-2.77,2.06-.25,3.84-.35,3.84-.35s2.52,9,2.6,12.25a211.36,211.36,0,0,1-.91,23.76c-.34,3.82-.26,7.7-.32,11.55,0,2.57-.05,5.14,0,7.71.1,4.28.29,8.56.41,12.84.1,3.57.08,7.14.26,10.71.27,5.63.69,23.07,1,28.7.2,3.71.29,11.36.43,15.07.15,4-21.93,4-22.08-3.47-.16-8-.61-31.75-.87-39.74-.12-3.86-.21-7.72-.09-11.58.21-6.73-.13-13.42-.57-20.12-.24-3.62-.05-7.29.06-10.93A32.19,32.19,0,0,0,142.59,193c-.95,0,.47-.11-.76-.12-.44,2.94-.82,5.81-1.3,8.67-1.25,7.47-1.22,15.07-1.89,22.6-.43,4.76-1.1,9.49-1.61,14.24a50.5,50.5,0,0,0-.36,6c.07,4.93.26,9.85.4,14.78.16,5.71.32,23.23.48,28.94.12,4-21.49,6.32-21.41,4.25.09-2.42.25-4.85.22-7.28-.07-5.78-.21-23.39-.36-29.17,0-1-.25-2-.24-3,0-3.14.07-6.28.18-9.41.14-3.71.35-7.42.53-11.13.33-6.63.75-13.26,1-19.9.22-7,.28-14,.33-21,0-5.71,0-11.43-.07-17.14C117.7,173.34,117.73,172.42,117.74,171.5Z"/><path class="cls-9" d="M128.37,107.91c-5.17,2.27-11.77,2.72-16.59,4.84,1.63,6.55,2.54,14.7,3.33,21.38.48,4.09,1.3,8.18,1.36,12.26.11,7-2.1,42.51-.36,42.72,4.21.52,39-1.72,48.12-1.71a8.6,8.6,0,0,0,1.56-.14c2.76-.51,3.39-1,3.41-3.05,0-1.3-.22-2.6-.31-3.91-.21-2.91-.33-5.83-.6-8.74-.5-5.39-1.06-10.79-1.62-16.18-.22-2.1-3.52-53.83-8.68-55.49-3.15-1.08-7.9,8.42-9.77,7.37-3.83.76-3.41,4.21-7.34,4.06a33.91,33.91,0,0,1-6.59-1.34C131.43,109.28,131,108.61,128.37,107.91Z"/><path class="cls-1" d="M128.48,94.15s1.28,8.18,0,8.76-4.24,2.17-4.24,2.17,7.61,4.8,11.82,4.65,10.89-8,10.6-10.45c0,0-5.56,1.45-5.85,0a22.68,22.68,0,0,1-.12-4.24Z"/><g class="cls-13"><path class="cls-14" d="M127.37,93.68l13.27,1.94A13.9,13.9,0,0,1,141,98.8c-.2,2.82-4.59,5.32-7.13,5.14-3.62-.25-6.61-9.28-6.61-9.28"/></g><path class="cls-2" d="M159.62,124.67a26.61,26.61,0,0,1,.88,3.72s-3.6,5.29-6.68,7.55c-.76-.5-7-11.77-11.53-14.95-13.81-8.25-25.55-8.12-29-10.61,0-2.67,7.07-5.31,10-5.92,4.63,2.11,17.73,4.64,21.69,7.3,3.85,1.86,7.72,3.5,10,6.16A39,39,0,0,1,159.62,124.67Z"/><path class="cls-15" d="M144.14,66s1-2.4-.34-4.19a24.13,24.13,0,0,0-3.85-3.76l-4.65-2.53s-1.95-2.46-7.35,1.32-11.31,9.36-11.83,12.67-1,8.78.87,10.71,2.86,5,5.45,4.1S144.14,66,144.14,66Z"/><path class="cls-1" d="M146.28,80.63c2.23-.62,2.56-1.15,2.58-3.3a5.79,5.79,0,0,0-1.09-3.08,1,1,0,0,0-1.78.24A12.17,12.17,0,0,0,146.28,80.63Z"/><path class="cls-1" d="M123.89,86.83c-2.5.51-3.09.2-4.12-1.69a5.29,5.29,0,0,1-.39-3.25,1.09,1.09,0,0,1,1.88-.64A11.18,11.18,0,0,1,123.89,86.83Z"/><path class="cls-1" d="M146.25,76.73c.11,5.39-.6,13-.6,13s-1.55,4.87-3.27,6.69-5.65,1.67-7.44,1.31a32.88,32.88,0,0,1-8.23-4c-1.69-1.26-3.12-5.45-4.28-9.35-.15-.52.33-1.35.72-1.89a75.42,75.42,0,0,1,4.68-6.22c3.11-3.52,6.24-7,9.62-10.28,4.23-4.08,6-1.73,7,2.22C145.24,71.16,145.74,74.22,146.25,76.73Z"/><g class="cls-16"><path class="cls-17" d="M145.6,69.55l-2.85,2.85a30,30,0,0,0,1.35-2.91L125,85s2.3.15,8.9-2.92a17.92,17.92,0,0,0,6.71-6.14,3.31,3.31,0,0,1,4.26,2.43l1.41,4.56S146.54,73,145.6,69.55Z"/></g><path class="cls-1" d="M117.39,112.35s-9.15,5.4-9.82,13.21,2.91,33.69,3.79,37.77,3.27,7.18,5.71,4C121.09,162.21,121.78,151.19,117.39,112.35Z"/><path class="cls-1" d="M110.66,157.9s.48,10,5.07,13,21.31,5.45,24,6,5.17,2.18,3.83-.86S134.86,168,110.66,157.9Z"/><path class="cls-1" d="M132.79,168.87s4.14,1.18,5.28.3a12.71,12.71,0,0,1,5.88-1.43c.77.2-.38,1.37-3.17,2.45-.58.22,8.26-1.29,9-.75s-.35,1.18-.07,1.54,1.28.71,1,1.63-.8,1-.74,1.44.79.09.09,1.42c-.34.66-1.29,1.68-1.42,2.13-.25.87-.43,1.73-.75,1.9-.67.37-1.7.23-2.33.73s-2-.23-4.15-.21-10.09-5.89-10.09-5.89Z"/><path class="cls-15" d="M128.12,58.65s2.08-4.3-1.19-5.46-5.35-1.79-6.81-1-4,1.31-5,3.87c-2.92,7.57,3.89,8.77,6,8.12S128.12,58.65,128.12,58.65Z"/><path class="cls-3" d="M125.65,80.19a21.08,21.08,0,0,1,6.28-1.78,3,3,0,0,1,2.73.59,2.87,2.87,0,0,1,2.51-.95,1.82,1.82,0,0,0,1.15-.39,5.87,5.87,0,0,1,2-.88c1.42-.32,2.87-.55,4.32-.74a12.16,12.16,0,0,1,2,.09c-.3,1.62,0,3.15-.79,4.54a2.41,2.41,0,0,1-2.18,1.52c-.94,0-1.87.29-2.81.33a2.43,2.43,0,0,1-2.73-1.87c-.2-.56-.34-1.15-.56-1.89a13.71,13.71,0,0,0-1.69.41,1.24,1.24,0,0,0-.87,1.47c.21,3.26-.5,3.58-3,4.34a8,8,0,0,1-2.55.29,2.8,2.8,0,0,1-2.73-1.81C126.32,82.38,126,81.27,125.65,80.19Zm8.15,3.31a13.67,13.67,0,0,0,.22-1.7,18.32,18.32,0,0,0-.15-2.17A.67.67,0,0,0,133,79a33.3,33.3,0,0,0-6.49,1.44c.27.83.47,1.57.74,2.28.62,1.65,1,1.88,2.82,1.71a5.24,5.24,0,0,0,.89-.13C131.92,84.07,132.82,83.79,133.81,83.5Zm11.86-6.83a20.34,20.34,0,0,0-7.22,1.81,2.5,2.5,0,0,0,0,.47c.14.54.28,1.08.47,1.61.35,1,.65,1.31,1.69,1.19a25.14,25.14,0,0,0,3.65-.75,1.63,1.63,0,0,0,.78-.76A6.93,6.93,0,0,0,145.66,76.67Z"/><path class="cls-15" d="M121.66,85.05a7.7,7.7,0,0,1,.09-4.54,23.94,23.94,0,0,1,12.12-14.78c2.84-1.51,5.92-2,9-2.4,1.73-.25,2.81,1.2,3.41,3.28C145,73.62,127.8,86.47,121.66,85.05Z"/><path class="cls-10" d="M113.17,107.26s-3.82,1.91-5.05,5.41c-3.33,9.44-3,31.86-2.81,32.23s16.2-1.62,16.66-2.21-1.83-23.57-2-25.55S117.29,106.79,113.17,107.26Z"/><path class="cls-2" d="M126.32,135.61a26.61,26.61,0,0,0,1.21,3.63s5.84,2.62,9.64,2.93c.39-.83-.17-13.71,2-18.77,7.43-14.27,17.16-19.57,18.83-23.51-1.41-2.27-8.47-2.11-11.31-1.07-1,1.42-4,5.6-5.66,6.71-3.77,2.52-7.44,8.94-8.75,11.82-2.3,3.6-4.78,5.77-5.33,9.23A49.41,49.41,0,0,0,126.32,135.61Z"/><g class="cls-18"><path class="cls-19" d="M132.67,116.3s-1.1.4-1.14.74,2.06.2,9.39,4.49c.16.09,1.18-.58.7-1S132.67,116.3,132.67,116.3Z"/></g><path class="cls-3" d="M216.37,95.11c-4-1-2.88,1.1-2.78,3.31.18,4-.72,8.63-.59,12.65.16,4.65-.62,8-1.5,12.57a42.25,42.25,0,0,0-.69,12.59c.79,6.42.18,12.87.22,19.3a49.76,49.76,0,0,0,.71,6.77c.53,3.67,1.09,7.35,1.78,11,.55,2.9,1.27,5.76,2,8.63.42,1.69,16.54-4,15.91-6.29-1.2-4.47-2.43-8.94-3.71-13.39-1.85-6.4-2-13-2.19-19.58q-.09-3-.26-5.9c-.08-1.44-.22-2.87-.36-4.31q-.95-9.62-1.91-19.24c-.1-1.05-.2-2.11-.21-3.17a18.62,18.62,0,0,0-2.44-9.83,24.64,24.64,0,0,0-1.58-2.6C218.11,96.77,217.58,95.63,216.37,95.11Z"/><g class="cls-20"><path class="cls-21" d="M213.33,104.33s.86,11.25,1,14.8-1.72,12.59-1.95,15.23,2,15.45,2,18.77S213,170.32,213,170.32s-2.57-5.73-3.55-16S213.33,104.33,213.33,104.33Z"/></g><path class="cls-8" d="M206.06,86.1s-11.78-7.15-28-1.82l1.37,5.58L192.24,93l13.56-.43Z"/><path class="cls-1" d="M202.41,88.44l-.73-12.13-14.47-1.94s-2,9.94-2.77,12.72a15.51,15.51,0,0,1-3.73,1.21s6.23,10.23,7.14,11.65,3.09,4.41,4.56,3.41,12.9-13.07,12.33-13.71A7.24,7.24,0,0,0,202.41,88.44Z"/><g class="cls-22"><path class="cls-14" d="M186.33,79.08,202,81.38a16.43,16.43,0,0,1,.43,3.76c-.24,3.33-5.43,6.29-8.44,6.08-4.28-.3-7.81-11-7.81-11"/></g><path class="cls-1" d="M188.88,73.48c-3.58,0-4.29-.69-5.17-3.82a8.64,8.64,0,0,1,.4-5,1.48,1.48,0,0,1,2.76-.35C188.14,67.19,189.18,70.14,188.88,73.48Z"/><path class="cls-1" d="M195.78,85.73c-5.56.14-9-3.55-10.26-8.2-.69-2.46-2-5-2.48-7.54-.31-1.6.06-3.16,0-4.84-.1-3-.2-7,1.27-9.26,3.34-5.05,11.06-9.69,17-9.59,3.09.05,3.27,4.51,5.41,7,4.33,5.06,5.28,9,3.28,15.45-1,3.18-2.72,5.59-4.13,8.57C203.54,82.17,200.09,85,195.78,85.73Z"/><path class="cls-17" d="M182.93,62.28s.82-5.26,7.13-8.51c1.66-.85,11.32-4.54,11.32-4.54s3.68,4.63,4.06,5.84,2.37,6.41,3.69,6.14.56-7.75,0-8.54-3.49-6.7-9.43-6.44S183.26,56.13,183.11,57,182.93,62.28,182.93,62.28Z"/><path class="cls-1" d="M183.71,71.56c-3.81-.59-4.47-1.34-4.94-4.56a8,8,0,0,1,1.17-4.81,1.64,1.64,0,0,1,3,.09C183.85,65.27,184.52,68.34,183.71,71.56Z"/><path class="cls-15" d="M211.34,47.05a7,7,0,0,0-2.64-1.81,8.16,8.16,0,0,0-2.8-2A18.15,18.15,0,0,0,198.21,42a14.32,14.32,0,0,0-8.57,2.47c-3,2.15-4.49,5.27-6.16,8.28-2,3.57-1,7.22-.76,11.16,0,.71.92-6.74,1.69-7.26,3.18-4.81,8.53-7.26,11.43-7.15,1.68.06,6.33-2.05,6.33-2.05s2.75,4.69,3.88,6.43c1,1.58,3,7.74,4.08,9.27a2.42,2.42,0,0,0,2.07,1.11s1.17-1,1.22-1.41a19.6,19.6,0,0,0,1.46-4.9C215.08,55.39,212.26,48.31,211.34,47.05Z"/><path class="cls-1" d="M207.82,72c3.86-.24,4.6-1,5.36-4.51a9.7,9.7,0,0,0-.73-5.43,1.59,1.59,0,0,0-3-.23C208.25,65,207.3,68.33,207.82,72Z"/><path class="cls-15" d="M182.7,62.63s0,4.22,0,5,.79.38.79.38.14-9.06.25-9.5S182.7,62.63,182.7,62.63Z"/><path class="cls-15" d="M208,58.26s.18,7.69.06,8.36l1-.14.64-6.21Z"/><path class="cls-3" d="M183,63.2a24.44,24.44,0,0,1,7.56-.36,3.51,3.51,0,0,1,2.92,1.39,3.33,3.33,0,0,1,3.08-.41,2.1,2.1,0,0,0,1.4-.14,6.8,6.8,0,0,1,2.45-.47c1.69,0,3.39.13,5.07.3a14.1,14.1,0,0,1,2.27.63c-.77,1.76-.87,3.54-2.08,4.92a2.79,2.79,0,0,1-2.86,1.15c-1.07-.22-2.19-.17-3.26-.37A2.82,2.82,0,0,1,196.94,67c-.08-.69-.09-1.39-.14-2.28a15.89,15.89,0,0,0-2,0c-.79.1-1.21.47-1.37,1.43-.62,3.74-1.51,3.92-4.55,4.11a9.23,9.23,0,0,1-3-.34,3.25,3.25,0,0,1-2.6-2.77C183.14,65.85,183.08,64.51,183,63.2Zm8.33,5.88a15.85,15.85,0,0,0,.69-1.86,21.24,21.24,0,0,0,.4-2.49.77.77,0,0,0-.77-.91,38.6,38.6,0,0,0-7.71-.08c.08,1,.12,1.89.24,2.77.26,2,.65,2.39,2.73,2.67a6.07,6.07,0,0,0,1,.09C189,69.23,190.11,69.15,191.3,69.08Zm15.18-4.59a23.58,23.58,0,0,0-8.63.15,2.9,2.9,0,0,0-.08.54c0,.65,0,1.3.1,1.94.13,1.23.39,1.64,1.6,1.79a29.14,29.14,0,0,0,4.31.11,1.89,1.89,0,0,0,1.09-.66A8,8,0,0,0,206.48,64.49Z"/><path class="cls-15" d="M143.58,68.3s2.29,6.53,2.39,7.42a18.77,18.77,0,0,0,.35-9.11Z"/><path class="cls-8" d="M104.49,108.53s-.71-.35,0-1.46,4.11-2.81,5.53-3.12,3.55-1,4.45-.35,1.28,1.65.59,2.35S104.49,108.53,104.49,108.53Z"/><path class="cls-1" d="M114.12,105.41s3.35,2.8,2.56,3.52-1.08.1-2.08.72.76,6.61-.06,7.56-.37,1.39-1.52,1.39-1,1-1.58,1.41a1.6,1.6,0,0,1-1.79.54c-1.13-.22-.48.54-1.77.65a3.1,3.1,0,0,1-2.7-1,10.11,10.11,0,0,1-2.27-3.78c-.22-1.19-.47-3.89-.14-4.77a14.38,14.38,0,0,1,1.34-3.56C104.88,107,110,105,114.12,105.41Z"/><path class="cls-8" d="M190.65,126.47c-.23-.22-.61-.1-.59-.55s.06-11.59,1.05-21.58c.24.16.63-.08.59.06a158.24,158.24,0,0,0-.31,21.39A.71.71,0,0,1,190.65,126.47Z"/><path class="cls-3" d="M196.52,113.48s-.54,6.24.21,8.59,3.12,4.44,3.47,4.83c1.26,1.41,2.59,1.16,4.29-.38a19.94,19.94,0,0,0,3.87-4.12c1-1.74,1.35-7.14.89-8.43C208.87,112.92,196.52,113.48,196.52,113.48Z"/><path class="cls-14" d="M194.61,104.16a30.17,30.17,0,0,0,7.51.31c4.28-.34,11.51-3.31,11.49-4.68a4.49,4.49,0,0,0-1-2.52Z"/><path class="cls-14" d="M170.57,97.27a54.46,54.46,0,0,0,6.3,3.93c1.83.76,5.75,2.52,9.34,3s4.58-.92,4.58-.92Z"/><path class="cls-3" d="M206,85.81s-12.13,16.2-13.37,17.67,5.15.2,7.42-.27a54.72,54.72,0,0,0,10.56-3.32c4.13-1.83,7.33-2.36,6.47-5.21S206,85.81,206,85.81Z"/><path class="cls-3" d="M179,84s10.44,17.68,11.75,19.25-4.81-.26-7.3-1-5-1.66-9.83-3.21-7.22-2.5-6.07-5.12A17.94,17.94,0,0,1,179,84Z"/><path class="cls-17" d="M170.37,301.17s-.69-5.07,0-5.37,2.71,2.08,5.82,1.75,4.48.5,5.17,0,1,3.5-.69,4.8-5.84,3.31-7.21,2.3A18.62,18.62,0,0,1,170.37,301.17Z"/><path class="cls-17" d="M199,301.23s-.69-5.07,0-5.37,2.71,2.08,5.82,1.75,4.48.5,5.17,0,1,3.5-.69,4.8-5.84,3.31-7.21,2.3A18.62,18.62,0,0,1,199,301.23Z"/><path class="cls-23" d="M198.84,301.28c1,.73,1.86,1.36,2.72,1.94,1.95,1.31,3.53,1.16,5.33-.49.4-.36.73-.81,1.13-1.17,1.57-1.41,2.78-1.49,4.28,0a49.9,49.9,0,0,1,4.58,5.35c1.8,2.46,9.33,5.94,9.8,5.93,1.68.59.54,4.54-.33,4.7-.62.11-2.47.21-3.08.36-2.27.55-4.49,0-6.66-.35a9.57,9.57,0,0,1-3.76-2.05c-2.3-1.74-10.77-5.07-11.39-4.63-.83.59-2.38,0-2.38,0l-2.44-.45a7.18,7.18,0,0,1-.57-3.8A15,15,0,0,1,198.84,301.28Z"/><path class="cls-23" d="M181.18,300.29c-.89.89-1.61,1.65-2.36,2.36-1.71,1.61-3.3,1.72-5.34.39-.45-.29-.85-.68-1.3-1-1.78-1.13-3-1-4.21.75a49.9,49.9,0,0,0-3.64,6c-1.37,2.72-8.23,7.39-8.7,7.45-1.56.86.21,4.57,1.1,4.58.63,0,2.47-.2,3.1-.15,2.33.18,4.44-.71,6.51-1.44a9.57,9.57,0,0,0,3.38-2.64c2-2.09,9.79-6.77,10.48-6.44.92.44,2.35-.36,2.35-.36l2.34-.85a7.18,7.18,0,0,0-.06-3.84A15,15,0,0,0,181.18,300.29Z"/></g></g></svg>