<svg xmlns="http://www.w3.org/2000/svg" xmlns:xlink="http://www.w3.org/1999/xlink" viewBox="0 0 360 360"><defs><style>.cls-1{fill:none;}.cls-2{isolation:isolate;}.cls-3,.cls-6{fill:#b5d0e1;}.cls-4,.cls-6{mix-blend-mode:multiply;}.cls-5{fill:#fff;}.cls-7{fill:#f4364c;}.cls-8{fill:#97382e;}.cls-9{clip-path:url(#clip-path);}</style><clipPath id="clip-path"><path class="cls-1" d="M166.76,226.09c1.54-1,2.88-1.93,4.32-2.68q3.68-1.92,7.48-3.62a13.9,13.9,0,0,0,5.5-4.3,46.47,46.47,0,0,1,3.6-4,14.86,14.86,0,0,0,4.36-11.1,22.28,22.28,0,0,1,2.11-9.44,60.21,60.21,0,0,0,2.41-6.58,65.58,65.58,0,0,1,5-11.18,56.05,56.05,0,0,0,2.86-6.89,11.24,11.24,0,0,1,4.9-6c3.75-2.26,5.57-5.64,6.16-9.84.14-1,.42-2,.64-3a33.52,33.52,0,0,1,10.59,1.3,32.29,32.29,0,0,0,3.27.61,17.88,17.88,0,0,1,2.46.38c6.58,2.1,13.52,2.34,20.18,4,4,1,8,2.26,12,3.37,6.1,1.69,11.86,4.27,17.73,6.58s11.45,4.55,17.21,6.75c1.81.69,3.72,1.11,5.57,1.67,3.32,1,6.62,2,9.94,3,1.05.31,2.16.43,3.22.71,1.57.42,1.85.93.89,2.11-1.82,2.23-2.58,4.88-3.34,7.55-2,7-4,14-6,20.95a8.53,8.53,0,0,1-2.52,4.23c-.36.3-1.14.59-1.44.41-1.69-1-3.59-1-5.42-1.31a33.09,33.09,0,0,0-6.61-.64c-4.76.24-9.29,1.32-13,4.72a9.7,9.7,0,0,0-2,11c2,4,5.4,6.19,9.2,8,1.31.63,2.66,1.21,3.9,2,1.83,1.11,2.16,2.46,1.37,4.44-1.64,4.11-3.16,8.27-4.88,12.34s-3.69,8.37-5.6,12.53a6.17,6.17,0,0,1-1.28,1.6,1.74,1.74,0,0,1-2.09.27c-1.93-.73-3.92-1.33-5.88-2-3.34-1.15-6.69-2.26-10-3.49a77,77,0,0,1-7.5-3.08A99.45,99.45,0,0,0,241.52,252c-10.58-3.31-20.75-7.84-31.6-10.33a19,19,0,0,1-3.16-1.44,20.2,20.2,0,0,0-2.5-1c-2.59-.75-5.21-1.38-7.79-2.17-1.51-.46-2.93-1.25-4.44-1.7-3.38-1-6.78-1.94-10.19-2.83-4.62-1.21-9.34-2.12-13.69-4.21C166.61,227.55,166.58,227.51,166.76,226.09Z"/></clipPath></defs><title>consultant_webpage_admitone_icon_3C_191016</title><g class="cls-2"><g id="Background"><circle id="_27.62.111" data-name="27.62.111" class="cls-3" cx="180" cy="180" r="180"/></g><g id="Artwork"><g class="cls-4"><path class="cls-3" d="M55.39,126.92c-.23,1-.84,1.08-1.35,1.36a5.72,5.72,0,0,1-3.53.58c-2.62-.29-5-1.47-7.42-2.23-2.15-.66-4.2-1.67-6.31-2.47-1.11-.42-2.27-.72-3.4-1.08a11.82,11.82,0,0,1-1.32-.47,2.83,2.83,0,0,1-1.59-3.08,2.87,2.87,0,0,1,.43-1c.12-.2.35-.32.51-.5,1.15-1.33,1.14-1.31,2.42-.6a14,14,0,0,0,1.5.67c3.45,1.44,6.91,2.85,10.35,4.32,2.86,1.22,5.7,2.49,8.54,3.77A8.74,8.74,0,0,1,55.39,126.92Z"/><path class="cls-3" d="M23.92,178.26c1.63-1.29,3.1-2.61,4.75-3.75,2.44-1.68,4.57-3.68,7.32-5,1.27-.62,2.59-1.18,3.87-1.79a1.92,1.92,0,0,1,1.37,0,8.59,8.59,0,0,1,3.41,1.82c.85.65.88.62,1.22,1.83a3.3,3.3,0,0,1-.89.41A21.26,21.26,0,0,0,38.78,174c-2,1-3.9,2-5.87,3a53.16,53.16,0,0,1-5,2.33A3.42,3.42,0,0,1,25,179C24.62,178.73,24.26,178.49,23.92,178.26Z"/><path class="cls-3" d="M312.42,269.87c-.2.09-.25.14-.27.12-1.4-1-3-1.37-4.25-2.78a37.62,37.62,0,0,0-3.55-3.23c-.06-.05-.11-.15-.18-.15-1.83-.14-2.9-1.93-4.28-3-1.76-1.4-3.47-2.89-5.16-4.43a22.49,22.49,0,0,1-1.7-2.13,26.69,26.69,0,0,0-2.3-2.58,13.15,13.15,0,0,1-3-4.71c-.41-1,0-2.11.05-3.45a7.19,7.19,0,0,1,1.38.77c4.64,4.16,9.32,8.24,13.86,12.57,3,2.88,5.85,6.12,8.76,9.21a2.08,2.08,0,0,1,.59,2.57A3.73,3.73,0,0,0,312.42,269.87Z"/><path class="cls-3" d="M302,218.46c.61.16,1,.21,1.28.33,3.64,1.36,7.37,2.45,10.81,4.34s6.75,3.42,10.06,5.25c1.65.91,3.15,2.13,4.73,3.19,1.32.88,1.75,2.21,1.77,4a13.24,13.24,0,0,1-2.15-.57c-1.49-.67-2.93-1.47-4.4-2.18a15,15,0,0,0-1.58-.51,8.93,8.93,0,0,1-1.55-.6,88.56,88.56,0,0,0-12.58-5.7,35.17,35.17,0,0,1-3.72-1.42,17.2,17.2,0,0,1-2.08-1.78c-.86-.65-.75-1.55-.68-2.47C301.91,219.76,301.92,219.24,302,218.46Z"/><path class="cls-3" d="M340.15,188.19c-1.3.19-2.36.37-3.41.5a1.93,1.93,0,0,1-.9-.12c-1.36-.53-2.81-.68-4.17-1.31a14.85,14.85,0,0,0-4.17-.77c-2.37-.33-4.77-.52-7.12-1a8.45,8.45,0,0,1-2.68-1.42c-.51-.33-.89-2.62-.65-3.28a1,1,0,0,1,1.06-.76,31.41,31.41,0,0,1,9,1c3.42,1,6.81,2.17,10.21,3.26,1.27.41,2.39.93,2.46,2.62A5.41,5.41,0,0,0,340.15,188.19Z"/><path class="cls-3" d="M157.66,270.9l5.13-.26,1.18,1.82a34.36,34.36,0,0,0-2.92,8c-.67,2.48-1.22,5-1.86,7.49-.59,2.31-1.23,4.62-1.85,6.93-.06.21-.12.41-.16.62-.36,2.06-.36,2.06-3.21,2.23a3.8,3.8,0,0,1-.81-3c.13-1,0-1.95.09-2.92q.13-2.52.32-5a9.26,9.26,0,0,1,.22-1.14,4.06,4.06,0,0,0,.25-1.39c-.38-2.34.69-4.38,1-6.58C155.33,275.25,156.94,273.35,157.66,270.9Z"/><path class="cls-3" d="M43.45,260.11a42,42,0,0,1,5.88-8.7c.33-.37.57-.8.92-1.16,1.44-1.47,2.87-2.95,4.39-4.36A20.68,20.68,0,0,1,57,244.2l1.64-1.1a11.54,11.54,0,0,1,4.19,1.15,1.6,1.6,0,0,1,1.06,1.38c-1.13.73-2.29,1.44-3.39,2.21a46.7,46.7,0,0,0-8.14,7,40.53,40.53,0,0,1-5.14,5.3,2.08,2.08,0,0,1-2.11.41C44.65,260.41,44.14,260.29,43.45,260.11Z"/><path class="cls-3" d="M113.63,264c-1.12.52-1.77,1.2-1.67,2.28a1.26,1.26,0,0,1-.24.86c-1.19,1.5-1.39,3.32-1.94,5-.34,1.06-.75,2.1-1.13,3.14l-1.07,2.89c-.49,1.35-1.36,1.86-3.21,1.85-.49,0-1-.08-1.74-.15.11-.63.23-1.19.31-1.76.15-1,.26-2,.44-3,.27-1.51.72-3,.85-4.52s.82-3,.71-4.66a8.07,8.07,0,0,1,1-3.41c.11-.27.71-.46,1.14-.5a33.05,33.05,0,0,1,3.59-.09C112.74,262.06,113.06,262.31,113.63,264Z"/><path class="cls-3" d="M213.79,309.25a4.34,4.34,0,0,1-.92-.79,4.75,4.75,0,0,1-.68-1.52A72.72,72.72,0,0,0,208,295.53a22.34,22.34,0,0,1-.93-2.85c-.39-1.42-.7-2.85-1.06-4.27-.12-.48.15-.78.65-.87a25.28,25.28,0,0,1,3-.37c.77,0,1.39.23,1.54,1a34.3,34.3,0,0,0,.78,3.4c.76,2.56,1.62,5.12,2.36,7.69.61,2.13,1.11,4.26,1.66,6.39.22.87.54,1.73.68,2.59.17,1.09-.1,1.23-1.54,1.08C214.77,309.28,214.39,309.28,213.79,309.25Z"/><path class="cls-3" d="M263.81,280.25a16.86,16.86,0,0,1,1.43,1c3.09,2.6,6.1,5.27,9.24,7.82q4.2,3.41,8.62,6.62a3.33,3.33,0,0,1,1.41,3.45,40.24,40.24,0,0,1-5.84-3.21c-1.34-1-2.76-1.92-4.08-2.93-1.72-1.31-3.37-2.68-5.08-4a48.27,48.27,0,0,1-5.32-5.22A4.17,4.17,0,0,1,263.81,280.25Z"/><path class="cls-3" d="M252.86,118.77,252,116c3.62-3.27,6.62-7.31,10.65-10.06a37.79,37.79,0,0,1,9.69-5.17c1.62-.51,3.31-.72,5-1.09a1,1,0,0,1,1.24.52,1,1,0,0,1,.07.12c.23.56,1.37.62.9,1.45s-.85,1.8-2,1.94a10.81,10.81,0,0,0-2.43.78c-.59.22-1.16.43-1.27,1.31,0,.28-.54.55-.87.76-2.05,1.3-4.14,2.54-6.17,3.89a28.61,28.61,0,0,0-4.65,4.57c-1.19,1.26-2.29,2.62-3.44,3.92a2.39,2.39,0,0,1-2.74,1Z"/><path class="cls-3" d="M336.89,115c-.36,1.09-.36,1.58.29,2.07,1.46,1.11,1.26,2.35-.39,3.29-.76.44-1.55.82-2.32,1.25-5.36,3-10.73,6-16.08,9-2.54,1.44-5,3-7.56,4.46-1.16.69-3.94.12-4.39-1.05a17.44,17.44,0,0,1-.59-3.07s0-.17.1-.22c1.84-1.2,3.66-2.47,5.55-3.56,2.93-1.69,5.91-3.28,8.88-4.86,2.3-1.22,4.64-2.35,6.95-3.53.67-.35,1.31-.79,2-1.13,1.71-.85,3.41-1.74,5.16-2.47A8.37,8.37,0,0,1,336.89,115Z"/><path class="cls-3" d="M97,86.59c-1.08-1-2.15-2-3.13-3Q88,77.45,82.18,71.24a6.87,6.87,0,0,1-2.13-4.16,3,3,0,0,1,1.32-3c.7-.48,1.5-1.23,2.16-1.16s1,1.13,1.5,1.74c3.36,4,6.74,8,10.08,12.1,2.09,2.54,4.14,5.12,6.18,7.71a7.89,7.89,0,0,1,.89,1.52,1.37,1.37,0,0,1,.16,1c-.1.2-.57.31-.86.27C100,87,98.53,86.81,97,86.59Z"/><path class="cls-3" d="M212.92,88.14c-.78,2-1.57,4-2.34,6-1.23,3.21-2.42,6.44-3.7,9.63a6.1,6.1,0,0,1-1.36,1.88,1.12,1.12,0,0,1-1.07.14c-1.1-.57-2.16-3.49-1.79-4.87.57-2.12,1.11-4.27,1.83-6.34A61.67,61.67,0,0,1,209,84.12c.37-.65.79-1,1.34-.79A9.49,9.49,0,0,1,212.93,85c.32.31.22,1.22.19,1.86A4.34,4.34,0,0,1,212.7,88Z"/><path class="cls-3" d="M136.63,66.33c.72-.49,1.38,0,2,.33a5.72,5.72,0,0,1,2.17,1.5,4.46,4.46,0,0,1,.58,2.54c-.1,3-.35,6.09-.53,9.13-.15,2.5-.29,5-.43,7.49a3.54,3.54,0,0,1-.08.91c-.18.54,0,1.34-.73,1.53s-.68-.6-1-1A16.83,16.83,0,0,0,137,87.28c-.1-2-.25-4.37-.34-6.73q-.12-3.18-.13-6.37C136.54,71.58,136.6,69,136.63,66.33Z"/></g><path class="cls-5" d="M52.38,123.92c-.23,1-.84,1.08-1.35,1.36a5.72,5.72,0,0,1-3.53.58c-2.62-.29-5-1.47-7.42-2.23-2.15-.66-4.2-1.67-6.31-2.47-1.11-.42-2.27-.72-3.4-1.08a11.82,11.82,0,0,1-1.32-.47,2.83,2.83,0,0,1-1.59-3.08,2.87,2.87,0,0,1,.43-1c.12-.2.35-.32.51-.5,1.15-1.33,1.14-1.31,2.42-.6a14,14,0,0,0,1.5.67c3.45,1.44,6.91,2.85,10.35,4.32,2.86,1.22,5.7,2.49,8.54,3.77A8.74,8.74,0,0,1,52.38,123.92Z"/><path class="cls-5" d="M20.92,175.26c1.63-1.29,3.1-2.61,4.75-3.75,2.44-1.68,4.57-3.68,7.32-5,1.27-.62,2.59-1.18,3.87-1.79a1.92,1.92,0,0,1,1.37,0,8.59,8.59,0,0,1,3.41,1.82c.85.65.88.62,1.22,1.83a3.3,3.3,0,0,1-.89.41A21.26,21.26,0,0,0,35.78,171c-2,1-3.9,2-5.87,3a53.16,53.16,0,0,1-5,2.33A3.42,3.42,0,0,1,22,176C21.62,175.73,21.26,175.48,20.92,175.26Z"/><path class="cls-5" d="M309.42,266.87c-.2.09-.25.14-.27.12-1.4-1-3-1.37-4.25-2.78a37.62,37.62,0,0,0-3.55-3.23c-.06-.05-.11-.15-.18-.15-1.83-.14-2.9-1.93-4.28-3-1.76-1.4-3.47-2.89-5.16-4.43a22.49,22.49,0,0,1-1.7-2.13,26.69,26.69,0,0,0-2.3-2.58,13.15,13.15,0,0,1-3-4.71c-.41-1,0-2.11.05-3.45a7.19,7.19,0,0,1,1.38.77c4.64,4.16,9.32,8.24,13.86,12.57,3,2.88,5.85,6.12,8.76,9.21a2.08,2.08,0,0,1,.59,2.57A3.73,3.73,0,0,0,309.42,266.87Z"/><path class="cls-5" d="M299,215.46c.61.16,1,.21,1.28.33,3.64,1.36,7.37,2.45,10.81,4.34s6.75,3.42,10.06,5.25c1.65.91,3.15,2.13,4.73,3.19,1.32.88,1.75,2.21,1.77,4a13.24,13.24,0,0,1-2.15-.57c-1.49-.67-2.93-1.47-4.4-2.18a15,15,0,0,0-1.58-.51,8.93,8.93,0,0,1-1.55-.6,88.56,88.56,0,0,0-12.58-5.7,35.17,35.17,0,0,1-3.72-1.42,17.2,17.2,0,0,1-2.08-1.78c-.86-.65-.75-1.55-.68-2.47C298.91,216.76,298.92,216.24,299,215.46Z"/><path class="cls-5" d="M337.15,185.19c-1.3.19-2.36.37-3.41.5a1.93,1.93,0,0,1-.9-.12c-1.36-.53-2.81-.68-4.17-1.31a14.85,14.85,0,0,0-4.17-.77c-2.37-.33-4.77-.52-7.12-1a8.45,8.45,0,0,1-2.68-1.42c-.51-.33-.89-2.62-.65-3.28a1,1,0,0,1,1.06-.76,31.41,31.41,0,0,1,9,1c3.42,1,6.81,2.17,10.21,3.26,1.27.41,2.39.93,2.46,2.62A5.41,5.41,0,0,0,337.15,185.19Z"/><path class="cls-5" d="M154.66,267.9l5.13-.26,1.18,1.82a34.36,34.36,0,0,0-2.92,8c-.67,2.48-1.22,5-1.86,7.49-.59,2.31-1.23,4.62-1.85,6.93-.06.21-.12.41-.16.62-.36,2.06-.36,2.06-3.21,2.23a3.8,3.8,0,0,1-.81-3c.13-1,0-1.95.09-2.92q.13-2.52.32-5a9.26,9.26,0,0,1,.22-1.14,4.06,4.06,0,0,0,.25-1.39c-.38-2.34.69-4.38,1-6.58C152.33,272.25,153.94,270.34,154.66,267.9Z"/><path class="cls-5" d="M40.45,257.11a42,42,0,0,1,5.88-8.7c.33-.37.57-.8.92-1.16,1.44-1.47,2.87-2.95,4.39-4.36A20.68,20.68,0,0,1,54,241.2l1.64-1.1a11.54,11.54,0,0,1,4.19,1.15,1.6,1.6,0,0,1,1.06,1.38c-1.13.73-2.29,1.44-3.39,2.21a46.7,46.7,0,0,0-8.14,7,40.53,40.53,0,0,1-5.14,5.3,2.08,2.08,0,0,1-2.11.41C41.65,257.4,41.14,257.28,40.45,257.11Z"/><path class="cls-5" d="M110.63,261c-1.12.52-1.77,1.2-1.67,2.28a1.26,1.26,0,0,1-.24.86c-1.19,1.5-1.39,3.32-1.94,5-.34,1.06-.75,2.1-1.13,3.14l-1.07,2.89c-.49,1.35-1.36,1.86-3.21,1.85-.49,0-1-.08-1.74-.15.11-.63.23-1.19.31-1.76.15-1,.26-2,.44-3,.27-1.51.72-3,.85-4.52s.82-3,.71-4.66a8.07,8.07,0,0,1,1-3.41c.11-.27.71-.46,1.14-.5a33.05,33.05,0,0,1,3.59-.09C109.74,259.06,110.06,259.31,110.63,261Z"/><path class="cls-5" d="M210.78,306.25a4.34,4.34,0,0,1-.92-.79,4.75,4.75,0,0,1-.68-1.52A72.72,72.72,0,0,0,205,292.53a22.34,22.34,0,0,1-.93-2.85c-.39-1.42-.7-2.85-1.06-4.27-.12-.48.15-.78.65-.87a25.28,25.28,0,0,1,3-.37c.77,0,1.39.23,1.54,1a34.3,34.3,0,0,0,.78,3.4c.76,2.56,1.62,5.12,2.36,7.69.61,2.13,1.11,4.26,1.66,6.39.22.87.54,1.73.68,2.59.17,1.09-.1,1.23-1.54,1.08C211.77,306.28,211.38,306.28,210.78,306.25Z"/><path class="cls-5" d="M260.81,277.25a16.86,16.86,0,0,1,1.43,1c3.09,2.6,6.1,5.27,9.24,7.82q4.2,3.41,8.62,6.62a3.33,3.33,0,0,1,1.41,3.45,40.24,40.24,0,0,1-5.84-3.21c-1.34-1-2.76-1.92-4.08-2.93-1.72-1.31-3.37-2.68-5.08-4a48.27,48.27,0,0,1-5.32-5.22A4.17,4.17,0,0,1,260.81,277.25Z"/><path class="cls-5" d="M249.86,115.77,249,113c3.62-3.27,6.62-7.31,10.65-10.06a37.79,37.79,0,0,1,9.69-5.17c1.62-.51,3.31-.72,5-1.09a1,1,0,0,1,1.24.52,1,1,0,0,1,.07.12c.23.56,1.37.62.9,1.45s-.85,1.8-2,1.94a10.81,10.81,0,0,0-2.43.78c-.59.22-1.16.43-1.27,1.31,0,.28-.54.55-.87.76-2.05,1.3-4.14,2.54-6.17,3.89a28.61,28.61,0,0,0-4.65,4.57c-1.19,1.26-2.29,2.62-3.44,3.92a2.39,2.39,0,0,1-2.74,1Z"/><path class="cls-5" d="M333.89,112c-.36,1.09-.36,1.58.29,2.07,1.46,1.11,1.26,2.35-.39,3.29-.76.44-1.55.82-2.32,1.25-5.36,3-10.73,6-16.08,9-2.54,1.44-5,3-7.56,4.46-1.16.69-3.94.12-4.39-1.05a17.44,17.44,0,0,1-.59-3.07s0-.17.1-.22c1.84-1.2,3.66-2.47,5.55-3.56,2.93-1.69,5.91-3.28,8.88-4.86,2.3-1.22,4.64-2.35,6.95-3.53.67-.35,1.31-.79,2-1.13,1.71-.85,3.41-1.74,5.16-2.47A8.37,8.37,0,0,1,333.89,112Z"/><path class="cls-5" d="M94,83.59c-1.08-1-2.15-2-3.13-3Q85,74.45,79.18,68.23a6.87,6.87,0,0,1-2.13-4.16,3,3,0,0,1,1.32-3c.7-.48,1.5-1.23,2.16-1.16s1,1.13,1.5,1.74c3.36,4,6.74,8,10.08,12.1,2.09,2.54,4.14,5.12,6.18,7.71A7.89,7.89,0,0,1,99.19,83a1.37,1.37,0,0,1,.16,1c-.1.2-.57.31-.86.27C97,84,95.53,83.81,94,83.59Z"/><path class="cls-5" d="M209.92,85.14c-.78,2-1.57,4-2.34,6-1.23,3.21-2.42,6.44-3.7,9.63a6.1,6.1,0,0,1-1.36,1.88,1.12,1.12,0,0,1-1.07.14c-1.1-.57-2.16-3.49-1.79-4.87.57-2.12,1.11-4.27,1.83-6.34A61.67,61.67,0,0,1,206,81.11c.37-.65.79-1,1.34-.79A9.49,9.49,0,0,1,209.93,82c.32.31.22,1.22.19,1.86a4.34,4.34,0,0,1-.42,1.18Z"/><path class="cls-5" d="M133.63,63.33c.72-.49,1.38,0,2,.33a5.72,5.72,0,0,1,2.17,1.5,4.46,4.46,0,0,1,.58,2.54c-.1,3-.35,6.09-.53,9.13-.15,2.5-.29,5-.43,7.49a3.54,3.54,0,0,1-.08.91c-.18.54,0,1.34-.73,1.53s-.68-.6-1-1A16.83,16.83,0,0,0,134,84.27c-.1-2-.25-4.37-.34-6.73q-.12-3.18-.13-6.37C133.54,68.58,133.6,66,133.63,63.33Z"/></g><g id="Artwork-2" data-name="Artwork"><path class="cls-6" d="M51.58,216.24a6.17,6.17,0,0,1-1.1-3.61c.14-4.7.13-9.4.16-14.11q0-5.39,0-10.78c0-1.24-.16-2.49-.11-3.73a4.75,4.75,0,0,1,3.16-4.61c3.16-1.36,6.26-2.86,8.64-5.57,4.75-5.37,2.35-11.69-2.06-14.8a59.46,59.46,0,0,0-8-4.41c-1.58-.78-2.87-1.69-3.27-3.47a5,5,0,0,1-.09-2c.61-3.12,1.33-6.22,1.94-9.34.52-2.65,1-5.31,1.4-8a23.49,23.49,0,0,0,0-3.51c0-1.77.29-2.46,1.94-3a21.48,21.48,0,0,1,5.08-1c7.2-.38,14.4-.53,21.59-1,3.37-.21,6.78-.11,10.1-1.07a21.19,21.19,0,0,1,4.13-.44c6.48-.54,13-1.15,19.45-1.58,5.32-.35,10.65-.48,16-.72,3.53-.16,7.05-.49,10.58-.5,10.6,0,21.2-.08,31.8.1,4.63.08,9.25.74,13.88,1.06,2.35.16,4.71.18,7.06.2a27.5,27.5,0,0,1,8.24.94,6.85,6.85,0,0,1-1,2.21,2.58,2.58,0,0,0-.57,3c.82,2.67.55,3.72-1.76,5.23a7.86,7.86,0,0,0-3.82,6.76c0,3.07-1.15,5.8-2,8.63a70.24,70.24,0,0,0-2.42,8.76c-.56,3.16-2.53,5-5,6.47a9.1,9.1,0,0,1-1.52.67c-1.88.72-2.48,1.58-2.44,3.54a2.69,2.69,0,0,0,.08.62c1,3.91-1.07,6.6-3.58,9.13a7.64,7.64,0,0,1-1.1.95c-2.5,1.7-3.21,4.18-3.05,7a4.12,4.12,0,0,1-2.07,4c-.59.36-1.16.76-1.73,1.15-2.32,1.56-2.83,3.46-1.6,6,.72,1.5,1.56,2.94,2.15,4.49a11,11,0,0,1,.63,3.44,2.4,2.4,0,0,1-.91,1.48c-.83.75-.77,1.41-.3,2.37,1.08,2.19,3,3.37,4.92,4.64.69.46,1.49.76,2.15,1.25.38.29.85.86.79,1.23a1.57,1.57,0,0,1-1.09,1,44.79,44.79,0,0,1-5.36.52c-3.81.1-7.61,0-11.42.13-5.19.12-10.37.44-15.56.43-8.86,0-17.72,0-26.57-.42-6.29-.29-12.56-.53-18.85-.37-6.49.17-13,.22-19.48.4-4.7.13-9.4.53-14.1.56-3.59,0-7.18-.36-10.77-.53C53.77,216.13,52.82,216.21,51.58,216.24Z"/><path class="cls-6" d="M170.39,233.88c1.54-1,2.88-1.93,4.32-2.68q3.68-1.92,7.48-3.62a13.9,13.9,0,0,0,5.5-4.3,46.47,46.47,0,0,1,3.6-4,14.86,14.86,0,0,0,4.36-11.1,22.28,22.28,0,0,1,2.11-9.44,60.21,60.21,0,0,0,2.41-6.58,65.58,65.58,0,0,1,5-11.18,56.05,56.05,0,0,0,2.86-6.89,11.24,11.24,0,0,1,4.9-6c3.75-2.26,5.57-5.64,6.16-9.84.14-1,.42-2,.64-3a33.52,33.52,0,0,1,10.59,1.3,32.29,32.29,0,0,0,3.27.61,17.88,17.88,0,0,1,2.46.38c6.58,2.1,13.52,2.34,20.18,4,4,1,8,2.26,12,3.37,6.1,1.69,11.86,4.27,17.73,6.58s11.45,4.55,17.21,6.75c1.81.69,3.72,1.11,5.57,1.67,3.32,1,6.62,2,9.94,3,1.05.31,2.16.43,3.22.71,1.57.42,1.85.93.89,2.11-1.82,2.23-2.58,4.88-3.34,7.55-2,7-4,14-6,20.95a8.53,8.53,0,0,1-2.52,4.23c-.36.3-1.14.59-1.44.41-1.69-1-3.59-1-5.42-1.31a33.09,33.09,0,0,0-6.61-.64c-4.76.24-9.29,1.32-13,4.72a9.7,9.7,0,0,0-2,11c2,4,5.4,6.19,9.2,8,1.31.63,2.66,1.21,3.9,2,1.83,1.11,2.16,2.46,1.37,4.44-1.64,4.11-3.16,8.27-4.88,12.34s-3.69,8.37-5.6,12.53a6.17,6.17,0,0,1-1.28,1.6,1.74,1.74,0,0,1-2.09.27c-1.93-.73-3.92-1.33-5.88-2-3.34-1.15-6.69-2.26-10-3.49a77,77,0,0,1-7.5-3.08,99.45,99.45,0,0,0-14.54-5.53c-10.58-3.31-20.75-7.84-31.6-10.33a19,19,0,0,1-3.16-1.44,20.2,20.2,0,0,0-2.5-1c-2.59-.75-5.21-1.38-7.79-2.17-1.51-.46-2.93-1.25-4.44-1.7-3.38-1-6.78-1.94-10.19-2.83-4.62-1.21-9.34-2.12-13.69-4.21C170.23,235.34,170.2,235.3,170.39,233.88Z"/><path class="cls-7" d="M48,208.45a6.17,6.17,0,0,1-1.1-3.61c.14-4.7.13-9.4.16-14.11q0-5.39,0-10.78c0-1.24-.16-2.49-.11-3.73a4.75,4.75,0,0,1,3.16-4.61c3.16-1.36,6.26-2.86,8.64-5.57,4.75-5.37,2.35-11.69-2.06-14.8a59.46,59.46,0,0,0-8-4.41c-1.58-.78-2.87-1.69-3.27-3.47a5,5,0,0,1-.09-2c.61-3.12,1.33-6.22,1.94-9.34.52-2.65,1-5.31,1.4-8a23.49,23.49,0,0,0,0-3.51c0-1.77.29-2.46,1.94-3a21.48,21.48,0,0,1,5.08-1c7.2-.38,14.4-.53,21.59-1,3.37-.21,6.78-.11,10.1-1.07a21.19,21.19,0,0,1,4.13-.44c6.48-.54,13-1.15,19.45-1.58,5.32-.35,10.65-.48,16-.72,3.53-.16,7.05-.49,10.58-.5,10.6,0,21.2-.08,31.8.1,4.63.08,9.25.74,13.88,1.06,2.35.16,4.71.18,7.06.2a27.5,27.5,0,0,1,8.24.94,6.85,6.85,0,0,1-1,2.21,2.58,2.58,0,0,0-.57,3c.82,2.67.55,3.72-1.76,5.23a7.86,7.86,0,0,0-3.82,6.76c0,3.07-1.15,5.8-2,8.63a70.24,70.24,0,0,0-2.42,8.76c-.56,3.16-2.53,5-5,6.47a9.1,9.1,0,0,1-1.52.67c-1.88.72-2.48,1.58-2.44,3.54a2.69,2.69,0,0,0,.08.62c1,3.91-1.07,6.6-3.58,9.13a7.64,7.64,0,0,1-1.1.95c-2.5,1.7-3.21,4.18-3.05,7a4.12,4.12,0,0,1-2.07,4c-.59.36-1.16.76-1.73,1.15-2.32,1.56-2.83,3.46-1.6,6,.72,1.5,1.56,2.94,2.15,4.49a11,11,0,0,1,.63,3.44,2.4,2.4,0,0,1-.91,1.48c-.83.75-.77,1.41-.3,2.37,1.08,2.19,3,3.37,4.92,4.64.69.46,1.49.76,2.15,1.25.38.29.85.86.79,1.23a1.57,1.57,0,0,1-1.09,1,44.79,44.79,0,0,1-5.36.52c-3.81.1-7.61,0-11.42.13-5.19.12-10.37.44-15.56.43-8.86,0-17.72,0-26.57-.42-6.29-.29-12.56-.53-18.85-.37-6.49.17-13,.22-19.48.4-4.7.13-9.4.53-14.1.56-3.59,0-7.18-.36-10.77-.53C50.15,208.34,49.2,208.42,48,208.45Z"/><path class="cls-7" d="M166.76,226.09c1.54-1,2.88-1.93,4.32-2.68q3.68-1.92,7.48-3.62a13.9,13.9,0,0,0,5.5-4.3,46.47,46.47,0,0,1,3.6-4,14.86,14.86,0,0,0,4.36-11.1,22.28,22.28,0,0,1,2.11-9.44,60.21,60.21,0,0,0,2.41-6.58,65.58,65.58,0,0,1,5-11.18,56.05,56.05,0,0,0,2.86-6.89,11.24,11.24,0,0,1,4.9-6c3.75-2.26,5.57-5.64,6.16-9.84.14-1,.42-2,.64-3a33.52,33.52,0,0,1,10.59,1.3,32.29,32.29,0,0,0,3.27.61,17.88,17.88,0,0,1,2.46.38c6.58,2.1,13.52,2.34,20.18,4,4,1,8,2.26,12,3.37,6.1,1.69,11.86,4.27,17.73,6.58s11.45,4.55,17.21,6.75c1.81.69,3.72,1.11,5.57,1.67,3.32,1,6.62,2,9.94,3,1.05.31,2.16.43,3.22.71,1.57.42,1.85.93.89,2.11-1.82,2.23-2.58,4.88-3.34,7.55-2,7-4,14-6,20.95a8.53,8.53,0,0,1-2.52,4.23c-.36.3-1.14.59-1.44.41-1.69-1-3.59-1-5.42-1.31a33.09,33.09,0,0,0-6.61-.64c-4.76.24-9.29,1.32-13,4.72a9.7,9.7,0,0,0-2,11c2,4,5.4,6.19,9.2,8,1.31.63,2.66,1.21,3.9,2,1.83,1.11,2.16,2.46,1.37,4.44-1.64,4.11-3.16,8.27-4.88,12.34s-3.69,8.37-5.6,12.53a6.17,6.17,0,0,1-1.28,1.6,1.74,1.74,0,0,1-2.09.27c-1.93-.73-3.92-1.33-5.88-2-3.34-1.15-6.69-2.26-10-3.49a77,77,0,0,1-7.5-3.08A99.45,99.45,0,0,0,241.52,252c-10.58-3.31-20.75-7.84-31.6-10.33a19,19,0,0,1-3.16-1.44,20.2,20.2,0,0,0-2.5-1c-2.59-.75-5.21-1.38-7.79-2.17-1.51-.46-2.93-1.25-4.44-1.7-3.38-1-6.78-1.94-10.19-2.83-4.62-1.21-9.34-2.12-13.69-4.21C166.61,227.55,166.58,227.51,166.76,226.09Z"/><path class="cls-8" d="M263.35,235c.64-1.93,1.21-3.72,1.83-5.49.55-1.57,1.07-3.15,1.73-4.67,1.75-4.07,3.56-8.11,5.36-12.16a4.91,4.91,0,0,1,.69-1.28c2.88-3.27,3.77-7.5,5.56-11.31,1-2.13,2.2-4.17,3.33-6.23,2-3.69,4.16-7.35,6.14-11.08a47.77,47.77,0,0,0,1.87-4.62l-3.54-.88-7.85-1.93c-.81-.2-1.6-.44-2.41-.64-2.22-.54-4.49-.91-6.65-1.62-5-1.66-10.26-2.34-15.43-3.27a36.8,36.8,0,0,1-9.36-2.62,73.46,73.46,0,0,0-8.84-3.57,76.85,76.85,0,0,0-7.72-1.62q-5-1-9.94-2.11a2.83,2.83,0,0,1-.76-.32A14.19,14.19,0,0,0,213,158c-.64-.12-1.42-.25-1.41-1.31a4.12,4.12,0,0,1,3.56,0c5.65,2,11.58,2.52,17.43,3.43a23.64,23.64,0,0,1,4.56,1.31c3,1.14,6,2.53,9.1,3.54a59.58,59.58,0,0,0,7.1,1.59c2.79.55,5.61.94,8.38,1.56,2.29.52,4.53,1.29,6.8,1.92,3.53,1,7.06,2,10.61,2.93s7.23,1.83,10.84,2.76a7.33,7.33,0,0,1,2,.69,10.17,10.17,0,0,1,1.57,1.52c-1.8.83-2,2.36-2.59,3.74-1,2.48-2.32,4.88-3.59,7.26-1.46,2.76-3.05,5.44-4.5,8.2-1.28,2.45-2.46,5-3.64,7.46-.53,1.13-.92,2.32-1.43,3.46a19.05,19.05,0,0,1-1.73,3.52,31.75,31.75,0,0,0-3.63,7.22c-2,5-4,10-6.07,15a39.29,39.29,0,0,1-2.33,4.16,15.21,15.21,0,0,0-2.34-.68c-4.33-.55-8.67-1-13-1.59-1.48-.21-2.9-.88-4.37-1.21-3.1-.71-6.22-1.31-9.31-2-6.28-1.43-12.54-2.92-18.81-4.35-2.32-.53-4.67-.91-7-1.46-1.81-.43-3.58-1-5.36-1.55-.92-.28-1.82-.63-2.76-.87-5.3-1.34-10.61-2.66-15.91-4a8.63,8.63,0,0,1-1.55-.59,2.71,2.71,0,0,1-.59-.53,1.26,1.26,0,0,1,1.37-1.31,12.2,12.2,0,0,1,3.09.16c4.32,1,8.61,2.15,12.94,3.13,8.3,1.88,16.52,4.06,24.92,5.53,6.75,1.18,13.39,3,20.09,4.52q8.21,1.87,16.43,3.73A10.47,10.47,0,0,0,263.35,235Z"/><path class="cls-8" d="M92.72,128.26c.2,2,.33,3.51.54,5,.15,1.16.46,2.3.59,3.46.38,3.37.77,6.73,1,10.11.42,5.31.74,10.63,1.12,15.94.28,4,.54,8,.9,12,.32,3.52.8,7,1.16,10.53.13,1.23.11,2.48.17,3.72,0,1,0,2.08.19,3.1a6.22,6.22,0,0,1-.64,3.82c-.57,1.11-1.5,1.23-2.23.21A2.84,2.84,0,0,1,95,194.5,54.45,54.45,0,0,0,94,180.69a4.81,4.81,0,0,1-.05-1.86,21.92,21.92,0,0,0,0-6.81c-.7-8.07-1.53-16.12-2.28-24.18-.19-2.06-.23-4.14-.42-6.2-.28-3-.64-6-.94-9.07C90.08,130.83,90.71,129.5,92.72,128.26Z"/><path class="cls-8" d="M209.09,172.35a2.09,2.09,0,0,1,2.62-.38c.7.29,1.42.51,2.29.82a13.76,13.76,0,0,0,1.14-1.73c1.29-2.78,3.94-3.47,6.51-3.78,1.26-.15,2.7.87,4,1.49a1.25,1.25,0,0,1,.37,1.84,6.55,6.55,0,0,1-2.13,2.12,51.6,51.6,0,0,1-5,2.08,8.24,8.24,0,0,0,2,.77,21.26,21.26,0,0,0,3.73.06c2.55-.17,5.08-.49,7.63-.66s4.62.74,6.81,1.6a3.29,3.29,0,0,1,1,.73c.92.89.85,1.44-.26,2.06s-2.17,1.16-3.48,1.86a6.13,6.13,0,0,0,4.87.18c2.83-.95,5.12.1,7.6,1.52,3.41-2,6.79-2.3,9.83,1.26,4.35-1.25,8.47-.33,12.82,2a5.87,5.87,0,0,1-1.14.3c-2.4-.07-4.79-.28-7.19-.22a25.69,25.69,0,0,0-4.68.68c-2,.42-2.22.37-3.18-1.31s-1.56-1.89-3.35-1.22c-1.17.44-2.33.87-3.53,1.22a3.31,3.31,0,0,1-3.89-1.21,2,2,0,0,0-2-.75c-2.35.07-4.7.07-7,0a12.75,12.75,0,0,1-2.24-.43,1.67,1.67,0,0,1-1.41-1.58,1.7,1.7,0,0,1,1.13-1.8c.5-.24,1-.41,1.53-.65s.79-.45,1.33-.75a3.22,3.22,0,0,0-3-.76c-2.89.22-5.77.71-8.65.72-3.13,0-6.19-.55-8.55-3a3.73,3.73,0,0,0-1.43-.69c-1.1-.4-2.25-.69-3.33-1.15A10.19,10.19,0,0,1,209.09,172.35Zm14.85-2.5c-2.3-1-5.81.65-5.84,2.82C223.07,171.57,223.45,171.39,223.94,169.85Z"/><path class="cls-8" d="M275.68,204.52c-1-.17-1.86-.24-2.69-.48-8.13-2.31-16.28-4.58-24.38-7-2.92-.87-5.69-2.22-8.6-3.12-7.08-2.19-14.06-4.7-21.35-6.18-5.23-1.06-10.39-2.44-15.59-3.65-.91-.21-1.36-.7-1.19-1.61s.88-.95,1.62-.8c.41.08.81.19,1.22.29,6.62,1.53,13.27,2.91,19.84,4.62,5.77,1.5,11.53,3.13,17.12,5.17,5.88,2.15,11.86,3.87,17.86,5.59,4.53,1.3,9,2.83,13.46,4.35C274.19,202.11,275.53,202.58,275.68,204.52Z"/><path class="cls-8" d="M175.75,143.39a12.71,12.71,0,0,1-1.77,1c-2.27.83-4.55,1.64-6.85,2.38-4.22,1.38-8.3,1.45-12-1.46-.33-.26-.69-.47-1-.71-1.73-1.2-2.34-1.19-4.06.09a22,22,0,0,1-2.33,1.73c-1.57.87-2.7.25-2.9-1.55a9,9,0,0,1,.05-1.87,1.76,1.76,0,0,0-1.28-1.9,6.53,6.53,0,0,0-7.44,2.47,13,13,0,0,1-2.5,2.71.83.83,0,0,1-1.44-.51,4.9,4.9,0,0,1,.07-1.8,8.35,8.35,0,0,1,.4-1.29,3.77,3.77,0,0,0-5,.5,24.58,24.58,0,0,1-3.57,2.79c-1.21.73-1.37.57-1.92-.74a3.33,3.33,0,0,0-3.91-1.92,45.6,45.6,0,0,0-4.33,1.47c-2.75,1-5.5,1.41-8.29.15a4.85,4.85,0,0,0-3.64-.25,26.76,26.76,0,0,1-3.43.86,23.78,23.78,0,0,1-2.61.2c.1-1.64.47-2.06,1.92-2.37,1.09-.23,2.17-.47,3.26-.64a2.24,2.24,0,0,0,2.12-1.9,5,5,0,0,1,2.36-3.52c.12-.07.23-.15.35-.22,1.38-.74,2.66-.64,3.43.25a3.16,3.16,0,0,1-.3,3.64,9,9,0,0,1-1,1c-.36.3-.75.56-1.19.88a2.32,2.32,0,0,0,2.71.68,63.24,63.24,0,0,0,6.12-1.95c2.24-.86,4.44-1.16,6.62,0a20.07,20.07,0,0,1,2.49,1.85c.49-.52,1-1,1.5-1.58a5.75,5.75,0,0,1,6.59-1.74,3.71,3.71,0,0,0,3.63-.46,9,9,0,0,1,10.18.44,10.44,10.44,0,0,1,1.58,2.07,1.32,1.32,0,0,0,.58-.13c2.4-1.66,4.61-.82,6.76.54.76.48,1.45,1.07,2.22,1.53,1.08.65,2.12,1.21,3.43.23a2.92,2.92,0,0,1,2.21-.23,3.22,3.22,0,0,0,2.7-.65,13.28,13.28,0,0,1,4.67-2.15C172.86,141,174.28,141.65,175.75,143.39Z"/><path class="cls-8" d="M168.16,158.53a8.72,8.72,0,0,1-1.79.77,67.48,67.48,0,0,1-7.79,1.15c-7.53.39-15.07.58-22.61.85a4.25,4.25,0,0,1-.83,0c-4.79-.79-9.54.08-14.3.32-1,.05-2.07,0-3.11.11l-13.67.88-5.55.34c-.18-.61-.55-1.22-.42-1.67s.87-.59,1.36-.63c2.9-.21,5.81-.3,8.71-.52,1.31-.1,2.6-.47,3.9-.57,2.41-.18,4.84-.22,7.26-.36a50.67,50.67,0,0,0,5.79-.49c4-.71,8-.07,12-.19s8.17-.22,12.23-.53c5.24-.41,10.47-1,15.7-1.53A2.75,2.75,0,0,1,168.16,158.53Z"/><path class="cls-8" d="M141.58,163.16l4.35,9.36c1.37-.67,1.68-1.83,2.08-2.92s.67-2,1.1-2.9a2.72,2.72,0,0,1,3.36-1.82,12.23,12.23,0,0,1,.8,2.46q1.16,9.39,2.18,18.79c.09.79.37,1.81-1.1,2.42-.7-6.84-1.56-13.48-2.64-20.08l-.55-.06q-1.51,4-3,8c-.1.26-.08.6-.24.79-.39.44-.84,1.1-1.29,1.11s-1-.63-1.23-1.11a40.51,40.51,0,0,0-2.49-5.15,9.74,9.74,0,0,0-.17,1.44c.1,3.53.18,7.06.36,10.59.08,1.59.4,3.16.52,4.74,0,.47-.09,1.2-.4,1.4-.65.41-1.21-.14-1.48-.71a6.63,6.63,0,0,1-.63-2.16c-.17-2.14-.22-4.29-.33-6.44-.21-4.36-.42-8.72-.65-13.09a11.74,11.74,0,0,0-.31-2C139.44,164.13,139.75,163.64,141.58,163.16Z"/><path class="cls-8" d="M118.09,177.76l-4.37.18c0,1.15,0,2.16,0,3.17q0,3.73.07,7.45c0,.92-.61,1.2-1.34,1.26s-1.06-.49-1.08-1.19a4,4,0,0,1,0-.62,48.9,48.9,0,0,0-.18-7.87c-.16-3.93.06-7.88.12-11.82,0-1.77,1.12-2.88,2.31-4a4.22,4.22,0,0,1,3,2.1,16.65,16.65,0,0,1,2.62,7.36c.07,1.14.26,2.21,1.64,2.79a2.63,2.63,0,0,0-.57,2.9c.63,2.62,1.06,5.29,1.56,7.94,0,.17-.11.36-.21.7C119.54,184.93,119.33,181.24,118.09,177.76Zm-4.3-9.79-.16,8.12,4.39-.58C117,172.63,116.9,169.71,113.79,168Z"/><path class="cls-8" d="M124.95,166.66c.38-.37.72-1,1.15-1.06,2.11-.38,4.18-.73,6.16.75a8.51,8.51,0,0,1,3.57,6.06,14,14,0,0,1-.89,7.75c-.86,1.87-1,4.05-2.41,5.7-.82.94-1.59,1.92-2.37,2.89-.45.56-.92,1.11-1.73.84s-.84-1-.9-1.71c-.29-3.24-.56-6.49-.91-9.72-.15-1.37-.51-2.72-.69-4.09s-.22-2.48-.31-3.72-.17-2.38-.25-3.57Zm4.61,19.68a24,24,0,0,0,5.38-10c.39-1.54.73-3.4-.36-4.82a10.33,10.33,0,0,0-5.06-3.75c-1.88-.58-2.63,0-2.4,1.91.62,5.22,1.32,10.44,2,15.66A5.66,5.66,0,0,0,129.56,186.35Z"/><path class="cls-8" d="M161,161.87a3,3,0,0,1,1.33,2.77c.14,2.76.3,5.52.43,8.28.28,5.8.54,11.61.82,17.54-.78.55-1.43.37-1.75-.68a9.18,9.18,0,0,1-.42-2,167.56,167.56,0,0,1-.65-18.68c.06-1.45-.14-2.9-.13-4.36A25.07,25.07,0,0,1,161,161.87Z"/><path class="cls-8" d="M72.45,131c.16,2.34.28,4.4.44,6.46a78,78,0,0,1-.22,13.69,39.74,39.74,0,0,0-.18,5.81c.26,5.46-.09,10.93.54,16.4.61,5.29.71,10.64.93,16,.08,1.78-.14,3.58-.23,5.56a16.77,16.77,0,0,0,2,.23c4.43,0,8.87-.06,13.3-.06,2.42,0,4.85.1,7.27.17,4.71.12,9.42.19,14.13.39,3.94.17,7.88.47,11.82.78,9.6.76,19.19,1.55,28.83,1.29,4-.11,8-.08,12-.08a10.33,10.33,0,0,1,2.26.3c.75.17,1,.7.68,1.44a64.86,64.86,0,0,0-9.89.27,73.79,73.79,0,0,1-7.88.25c-5.47.07-10.94.15-16.41.13-4.64,0-9.3.1-13.9-.34-8.62-.83-17.26-1.16-25.89-1.74-5.24-.35-10.5-.32-15.75-.44a5.61,5.61,0,0,0-2.06.2,2.61,2.61,0,0,1-2.55-.44c-.05-2.61-.07-5.13-.16-7.65-.11-2.83-.24-5.66-.45-8.48s-.66-5.9-.83-8.86c-.16-2.69-.12-5.39-.11-8.09,0-3,0-5.95.15-8.92s.17-5.68.52-8.48c.51-4,0-8-.07-12,0-1.94-.09-3.88,0-5.81.08-1.69,1.28-2.74,2.76-2.3,2.87.85,5.78.48,8.66.44,12.68-.2,25.34-1.11,38-.72,4.42.14,8.86-.52,13.29-.47,10,.11,19.95.37,29.92.69,3.8.12,7.59.8,11.39.83,4,0,8-.4,12-.64,2.4-.15,4.8-.33,7.39-.51-.09.59,0,1.07-.21,1.17a5,5,0,0,1-1.86.79c-2.06.25-4.14.36-6.21.54a136.27,136.27,0,0,1-21.37.38c-2.69-.18-5.4,0-8.1,0-3.33,0-6.65,0-10,.07-5.12.12-10.23.37-15.35.49-8,.19-16.07.28-24.1.5-5.88.16-11.76.56-17.64.71-4.84.13-9.69.05-14.54.08C74.19,131,73.51,131,72.45,131Z"/><g class="cls-9"><path class="cls-8" d="M229.79,205.32c-.43,1-.88,2-1.29,3-.94,2.31-1.85,4.63-2.78,6.95a4,4,0,0,1-.37.74c-.43.64-.86,1.33-1.81,1a1.75,1.75,0,0,1-.83-2.3c.41-1.24.85-2.47,1.38-3.67,1.43-3.23,2.87-6.45,4.4-9.62a4.45,4.45,0,0,1,1.67-1.74c1.27-.76,2.07-.42,2.54,1a7.67,7.67,0,0,1,.33,1.83c.18,2.28.3,4.56.48,6.84.06.81.23,1.62.42,2.92A46.92,46.92,0,0,0,238,204a5.61,5.61,0,0,1,2.4-3.26,1.6,1.6,0,0,1,.61,2c-1,2.71-2.14,5.4-3.23,8.1-1,2.37-1.91,4.74-2.9,7.1a8.4,8.4,0,0,1-1.07,2,1.79,1.79,0,0,1-1.34.69c-.37-.06-.81-.69-.92-1.14a25.28,25.28,0,0,1-.43-3.28c-.18-1.93-.31-3.85-.47-5.78q-.21-2.55-.41-5.1Z"/><path class="cls-8" d="M218.88,195.42a2.77,2.77,0,0,1,3.77,2.08,5.81,5.81,0,0,1-.08,1.85,50,50,0,0,1-6,16c-1,1.62-2.37,1.83-4,1-3.72-1.82-4-6.38-2.73-9.4a26.68,26.68,0,0,1,6.39-9.1C217,197,218,196.22,218.88,195.42Zm.37,2.76c-.29.07-.46.05-.55.13a24.35,24.35,0,0,0-6.56,8.94,15.28,15.28,0,0,0-.63,4.66,1.71,1.71,0,0,0,1.32,1.87C215.13,211.8,218.53,203.59,219.25,198.18Z"/><path class="cls-8" d="M255.09,207.51c-2.23.34-3.28-2.52-5.87-2.11l-2.41,5.69c2.35,1.54,5.18,1.74,7.05,3.77-.77,1.11-1.56.62-2.29.28-1.06-.5-2.08-1.1-3.16-1.58-.75-.33-1.56-.52-2.6-.85l-4,9c1.23,1.25,2.81,1.39,4.21,1.87,1.24.43,2.55.66,3.81,1a9.58,9.58,0,0,1,1.5.76l-.1.51a7.31,7.31,0,0,1-1.48.22c-2.2-.12-9-2.61-10.86-4,1.41-3.14,2.84-6.34,4.28-9.53,1.14-2.52,2.34-5,3.44-7.56.75-1.73,1.23-2,3-1.34a42,42,0,0,1,4.17,1.81,8.65,8.65,0,0,1,1.7,1.58Z"/><path class="cls-8" d="M200.65,189.45c-2.47-1.05-5.07-1.7-7.62-3a3,3,0,0,1,3.42-1.06c1.6.45,3.18,1,4.77,1.42,2.32.68,4.63,1.4,7,2,1.28.32,2.2.81,2.21,2.42-2.67.7-5.19-.51-7.85-.88-.45,2.15-.84,4.25-1.35,6.33-.75,3.09-1.57,6.17-2.39,9.24a33.85,33.85,0,0,1-1.06,3.37c-.14.37-.59.63-.89.94-.3-.34-.84-.66-.86-1a8.43,8.43,0,0,1,.28-2.64c.47-1.67,1.17-3.27,1.61-4.94.94-3.54,1.78-7.11,2.64-10.68A9.8,9.8,0,0,0,200.65,189.45Z"/></g></g></g></svg>