<svg xmlns="http://www.w3.org/2000/svg" viewBox="0 0 360 360"><defs><style>.cls-1{isolation:isolate;}.cls-2,.cls-3{fill:#b5d0e1;}.cls-3{mix-blend-mode:multiply;}.cls-4{fill:#94989f;}.cls-5{fill:#dde5ed;}.cls-6{fill:#1a1a1a;}.cls-7{fill:#333;}.cls-8{fill:#fff;}.cls-9{fill:#b3b3b3;}</style></defs><title>consultant_webpage_skates_icon_3C_191016</title><g class="cls-1"><g id="Background"><circle id="_27.62.111" data-name="27.62.111" class="cls-2" cx="180" cy="180" r="180"/></g><g id="Artwork"><path class="cls-3" d="M147.24,299.29s44.53-.8,59-4.29c19.27-4.66,40.87-21.74,50.92-29.92s34.26-37.29,31.66-43.72-13.66-14.14-24.85-12-34.35,3.71-34.92,3.23-113,32.12-118.89,34.44-28.48,12.3-26.8,18,2.65,4.74,12.05,6.19,20-6.31,25.21,0,39.12,17.56,39.53,17.45S147.24,299.29,147.24,299.29Z"/><path class="cls-4" d="M64.06,238.85c3.42-.87,6.64-1.59,9.8-2.5S77.93,234,78,230.85c0-2.36,0-2.36,2.53-2.57l7.66-.64a17.35,17.35,0,0,1,.37,1.94c.1,1.39.08,2.79.2,4.18.19,2.15.48,2.35,2.51,2.52,6,.52,12-.28,18-.71,5.46-.39,10.93-.79,16.4-.81,2.77,0,4.34.14,5.28,4.49.65,3-.08,5.91-.42,8.82a4,4,0,0,1-3.54,3.65c-2.92.47-5.81,1.1-8.72,1.66a.6.6,0,0,1-.26,0c-4.6-1.25-9.34-.46-14-.85-5.36-.45-10.79-.24-16.18-.2a63.82,63.82,0,0,1-12.64-1.66,14.47,14.47,0,0,1-6.94-3.39C65.79,245.13,63.81,242.64,64.06,238.85Z"/><path class="cls-5" d="M101.33,260.8c-4.51-.33-9.11-.21-13.52-1.08-6.76-1.33-13.33-3.49-18.79-8-2-1.7-2.45-3.17-1-4.57A3.62,3.62,0,0,1,70.74,246c6.18,1.5,12.45,1.2,18.72,1.37,3.91.11,7.8.59,11.71.89a23.73,23.73,0,0,0,2.6.15c4.43-.14,8.87-.43,13.3-.46,3.47,0,6.94.26,10.41.45a16.27,16.27,0,0,1,2.31.4c1,.2,1.65.8,1.55,1.8a21.89,21.89,0,0,1-.87,4.81c-.46,1.34-1.53,1.92-3.2,2.1-5.28.57-10.53,1.4-15.75,2.37a39.48,39.48,0,0,1-8.06.57c-.7,0-1.4,0-2.09,0Z"/><path d="M130.55,226.67l-2-1.65c-1.63,2.44-3.88,2.85-6.23,3.27-1.79.32-3.48,1.44-5.25,2-2.5.77-5.05,1.92-7.57,1.87-3.23-.07-6.36,1.53-9.59.66a1.27,1.27,0,0,0-.75,0c-2.42.91-4.89.38-7.34.35s-5.15-.22-7.72-.38c-3-.18-5.93-.26-8.88-.62-2.44-.3-4.84-1-7.27-1.38s-4.12-2.36-6-3.83a17.42,17.42,0,0,1-3.65-4.13,13.43,13.43,0,0,1-1.55-4c-.43-1.67-.62-3.44-.91-5.17a3.15,3.15,0,0,1,.8-3.19c1-.85,1.93-1.67,3.28-.71A43.15,43.15,0,0,0,65.35,213a47.88,47.88,0,0,0,5.21,2.15c2.49.92,5,1.79,7.49,2.59a14.5,14.5,0,0,0,2.63.39c.25,0,.53-.09.76,0,3.28,1.52,6.81.18,10.1,1.48a1.31,1.31,0,0,0,.56.08c3.39-.24,6.78-.45,10.17-.74,4.55-.38,8.83-2.47,13.29-3.46,1.61-.36,3.13-1.26,4.73-1.74,3.55-1.05,7.12-2,10.7-3a5.12,5.12,0,0,1,1.89,0A2.83,2.83,0,0,1,135,214a21.24,21.24,0,0,1-.72,4c-.59,2-1.26,4-2,6A18.83,18.83,0,0,1,130.55,226.67Z"/><path class="cls-6" d="M181.84,183a45.52,45.52,0,0,1-5.22,6.55c-1.69,1.58-3.22,3.34-4.87,5a10.46,10.46,0,0,1-2.11,1.57,12.44,12.44,0,0,0-2.87,2.08,21.26,21.26,0,0,1-3.41,2.35c-4.67,3.19-9.85,5.43-14.84,8.05-3,1.56-6.11,2.69-9.14,4.08a56.35,56.35,0,0,1-7.31,2.48c-2.52.76-5.06,1.49-7.63,2.06-2,.43-4,.6-6,.88s-3.75.58-5.64.75c-2.51.23-5,.32-7.54.5-1.45.1-2.89.27-4.33.41-.25,0-.5.11-.75.12-2.71,0-5.42,0-8.13,0s-5.42.15-8.14.13c-2.07,0-4.13-.19-6.2-.29a23.52,23.52,0,0,0-3.22-.07,25.58,25.58,0,0,1-9.19-.9c-2.37-.66-5.17-.74-7-3a3.16,3.16,0,0,1-.8-2.77,13.1,13.1,0,0,0,0-2.41,7.9,7.9,0,0,1,0-2.05,55.73,55.73,0,0,1,2.47-7.75,13.78,13.78,0,0,1,4.9-5.45c1.6-1.11,3.42-1.89,5.05-3a19.28,19.28,0,0,1,5.59-2.69c2.13-.57,4.3-1,6.46-1.4a40.51,40.51,0,0,1,4.66-.79,10.47,10.47,0,0,0,4.55-1.12,2.13,2.13,0,0,1,.91-.24c3.27-.19,6.23-1.46,9.28-2.52a55,55,0,0,0,8.41-3.45c2.82-1.53,5.56-3.19,8.38-4.72,1.74-.94,2.55-2.56,3.35-4.21,1.8-3.68,3.51-7.41,5.37-11.05a69,69,0,0,0,6.49-16.91c.55-2.59,1.37-5.11,2-7.68.91-3.67,1.89-7.33,2.62-11,.53-2.72.68-5.51,1-8.26.53-4,1.12-8,1.62-12,.28-2.25.57-4.52.63-6.78a44.78,44.78,0,0,1,1-8.64,18.49,18.49,0,0,0,.21-2.45c.21-2.43,1.23-3,3.39-1.91,1.29.67,2.44,1.6,3.76,2.2,3.45,1.57,6.91,3,10.82,3.12,4.41.14,8.81.74,13.22.89a66.36,66.36,0,0,0,7-.58c1.1-.08,2.21-.58,3.31.11,1.72,1.08,2,2.85,2.12,4.6.14,3.16,0,6.33.09,9.49.15,4.48.47,9,.66,13.43.15,3.54.24,7.08.34,10.62s.25,7.34.25,11a120.12,120.12,0,0,1-.31,12.48c-.57,5.39-1.51,10.76-2.54,16.08-.67,3.46-1.76,6.85-2.72,10.25a15.46,15.46,0,0,1-1,2.25C180.53,181.65,180.57,181.81,181.84,183Z"/><path class="cls-7" d="M110.27,212.65c-.39-2.15-.54-3.67-1-5.1-.63-2.11-1.53-4.13-2.19-6.23-.93-3,.68-7.68,3.25-9.51a29.59,29.59,0,0,1,5-3.18c7.4-3.29,13.52-8.23,19.28-13.85,4.7-4.59,8.45-9.85,12.3-15.08,2.61-3.55,5-7.29,7.66-10.76s3.74-7.74,3.95-12.06c.26-5.44.12-10.89.15-16.34,0-4.41-.06-8.82.13-13.21.1-2.33.73-4.42,3.66-5.09,3.66-.84,7.2-2.17,10.82-3.19a60,60,0,0,1,6.44-1.43c3.46-.57,4.26,0,5.63,3.26a36.5,36.5,0,0,1,1.75,4.3c1.4,5.17-.63,9.47-3.83,13.31a15,15,0,0,0-2.86,5.49c-1.4,4.71-3.11,9.33-4.42,14.07a20.62,20.62,0,0,0-.15,10.24,48.54,48.54,0,0,1,1.21,10c.06,3.9-1.94,7.29-4,10.42a46.86,46.86,0,0,1-7.65,9.48,13,13,0,0,1-12.53,3c-2-.49-3.26-.33-4.6,1.28-2.88,3.46-6,6.74-8.88,10.19A6.39,6.39,0,0,0,138,195.7c-.47,3.59-1,7.23.69,10.83-2.68,1.54-5.21,3.07-8.3,3.6C123.66,211.28,117,212.94,110.27,212.65Z"/><path class="cls-8" d="M140.65,73.09s-6.09-5.95-4.33-9.16,10.52-7.61,12.56-7.46,13.15-.42,15.19,4,5.38,17,5.88,23.55-1.94,23.42-3.74,24.43S140.65,73.09,140.65,73.09Z"/><path class="cls-4" d="M215.14,223.79c1.79,4.74-1.59,8.54-.68,13a8.37,8.37,0,0,0,2.48-.49c2.67-1.51,5.28-3.14,7.89-4.77a39.29,39.29,0,0,1,4-2.67c3.5-1.62,5.92-4.43,8-7.71a66.37,66.37,0,0,0,3.43-6c.68-1.4,1.72-2.71,1-4.68a3.32,3.32,0,0,1,1.53-4q3.86-2.56,7.77-5c1.25-.79,2.74-1.24,3.79-2.24,2.2-2.08,4.77-1.2,7.18-1.29,1.34,0,1.73,1.35,1.52,2.59a35.8,35.8,0,0,1-1.19,4.88,12.13,12.13,0,0,0-.19,5.94c.51,3.12,1.67,6.55-1.52,9.6-2.54,2.42-3.83,6.29-6.21,9-3.32,3.75-7.19,6.94-10.73,10.48a95.57,95.57,0,0,1-18.44,14.31c-8.19,4.92-16.05,10.45-24.88,14.24-7.72,3.32-14.92,8-22.49,11.76-4.49,2.23-9.25,3.86-13.89,5.76-.79.32-1.57.69-2.36,1-6.14,2.33-12.27,4.72-18.46,6.92a11.25,11.25,0,0,1-4.64.55c-4.83-.42-9.64-1-14.45-1.61-3.65-.46-5.33-3.41-6.46-6.59-.38-1.07.22-2.78.81-3.94a18.5,18.5,0,0,1,3.1-4.3c2.23-2.34,2.87-5.3,3.27-8.4.28-2.19.46-4.39.81-6.56.4-2.44,1.55-3.31,3.9-3.19.36,0,.83.22,1,0,3.4-2.77,7.44-1.58,11.2-2,2.82-.32,3.43.55,3.17,3.62-.18,2.06-.5,4.11-.76,6.17-.44,3.46.43,4.57,3.68,4.49a11.3,11.3,0,0,0,2.85-.53c7.24-2.13,14.57-4,21.68-6.54a196.58,196.58,0,0,0,18.15-8c4.06-1.94,6.26-5.69,7-10.29a23.38,23.38,0,0,1,5.89-12.64c1.07-1.16,1.57-2.9,2.44-4.3A13.75,13.75,0,0,1,215.14,223.79Z"/><path class="cls-5" d="M119.38,287.89c4.35.36,7.91.57,11.45,1s7.08-.74,10.61-1.23c4.45-.62,8.57-2.57,12.87-3.73,9.75-2.64,18.56-7.51,27.58-11.81A146.53,146.53,0,0,0,206.17,258a183.58,183.58,0,0,1,19.29-12.61,65.37,65.37,0,0,0,6.83-5.06c5.89-4.41,11.82-8.76,17.65-13.25,3.14-2.42,6.13-5.05,9.14-7.64a34.27,34.27,0,0,0,2.45-2.6c1.43.51,1.62,1.61,1.4,3.18-.84,5.83-3.85,10.56-7.53,14.77-5.61,6.43-11.46,12.65-17.41,18.75a132,132,0,0,1-10.66,9.56,87.77,87.77,0,0,1-7.8,5.42c-10.13,6.65-20.55,12.8-31.68,17.47a222.74,222.74,0,0,1-26.6,9.54c-4.21,1.17-8.4,2.42-12.65,3.43-4.57,1.09-9.17,2.12-13.8,2.83-3.56.55-7.41.73-10.22-2a38.66,38.66,0,0,1-6.11-8C118,290.95,119.05,289.14,119.38,287.89Z"/><path d="M264.56,193.66c-8.57,10-11.21,13.1-12.54,14-3.39,2.37-6.81,4.71-10.2,7.08-42.88,38.84-64.65,48.87-67.84,49.73-.46.12-8.6,2.89-9.29,3-2,.43-4.07.83-6.12,1.13a10.29,10.29,0,0,1-2.37-.16,42.22,42.22,0,0,0-5-.45,56.77,56.77,0,0,1-14.2-1.49c-5.13-1.17-9.85-3.27-14.62-5.3-2.3-1-4.26-2.88-6.32-4.45a16.46,16.46,0,0,1-3-2.82c-1.43-1.83.29-12.44,1.15-13a2.35,2.35,0,0,1,1.55-.48c2.43.41,4.83.94,7.24,1.44a61.7,61.7,0,0,1,12.1,3.8c.81.35,1.6.73,2.4,1.09a11.83,11.83,0,0,0,1.75.8c3.92,1.06,7.83,2.19,11.79,3.08a72.3,72.3,0,0,0,8.7,1.38c4.08.4,7.86-1.19,11.63-2.57,6.48-2.37,12.32-6.23,18-10.08a166.73,166.73,0,0,0,19.83-15.27c4.49-4.12,9.19-8,13.91-11.81,5.16-4.18,10.48-8.13,15.66-12.27,2.37-1.89,4.57-4,6.85-6a70.47,70.47,0,0,1,12.84-9.34c1.7-.92,1.83-5.06,3.58-5.85C263.45,178.23,266.51,184.78,264.56,193.66Z"/><path class="cls-6" d="M189.63,84.88a21.68,21.68,0,0,1,7.6,7.68,14.83,14.83,0,0,1,1.4,2.52c1.62,4.85,5.53,6.3,10.05,7a69.44,69.44,0,0,1,7.82,1.41,6,6,0,0,0,6.78-2.13c2.83-3.74,6.51-6.26,10.49-8.6a11.78,11.78,0,0,0,5.36-7A62.77,62.77,0,0,1,247.61,67a26.79,26.79,0,0,1,4.15-5c3.4-3,7-1.8,8.2,2.62a8.15,8.15,0,0,1,.3,2.87c-.42,4.53-.24,9.06-1.21,13.61a61.26,61.26,0,0,0-1,14.73c.51,14.68,1.29,29.35,2.11,44,.51,9.13,1.39,18.24,1.85,27.37.27,5.28,0,10.6,0,15.89,0,1.26-.71,1.84-1.72,2.47a11.2,11.2,0,0,0-2.71,2.64c-1.1,1.4-1.89,3.07-3.08,4.39-4.08,4.56-8.19,9.09-12.43,13.5-5.92,6.16-49.46,42-52,43.19-4.75,2.28-9.58,4.38-14.36,6.6-5.61,2.61-11.64,3.11-17.65,3-10.15-.14-19.63-3.24-28.83-7.35-4.94-2.21-8.78-5.91-12.66-9.48-1.05-1-1.39-3-1.52-4.65a22.26,22.26,0,0,1,4.22-15.3c3.26-4.51,6.55-9,11-12.34a106.81,106.81,0,0,1,9.33-6.17,88.75,88.75,0,0,0,20.6-17.41c2.88-3.23,6.11-6.17,8.84-9.52a57.22,57.22,0,0,0,12.3-26.92c1.06-6.16,2.44-12.27,3.6-18.41a186.92,186.92,0,0,0,2.75-38.85,5.35,5.35,0,0,0-.24-1.78C186.55,88.41,187.1,86.5,189.63,84.88Z"/><path d="M167.13,99.44a61.43,61.43,0,0,1-2.82,16.81c-.69,2.3-1.08,4.69-1.69,7a161.57,161.57,0,0,1-12.26,33.42,127.63,127.63,0,0,1-8.17,13.58c-4.74,6.95-9.41,14-15.32,20-5.48,5.61-11.29,10.84-18.54,14.13a23.84,23.84,0,0,1-12.7,1.91,9.45,9.45,0,0,1-5.78-2.72c-1.71-1.7-3.56-3.26-5.21-5a6.86,6.86,0,0,1-1.55-2.74c-.68-2.4-.46-2.83,1.84-3.93a53,53,0,0,0,14.39-10.12c2.14-2.1,3.88-4.63,6.09-6.63a93.89,93.89,0,0,0,16.12-18.45A71.11,71.11,0,0,0,128,143.87a199.12,199.12,0,0,0,8.57-26.42c1.78-7.61,3.75-15.18,5.14-22.86a31.85,31.85,0,0,0-.06-12.92c-.64-2.79-.61-5.72-1-8.58a8.46,8.46,0,0,0-1-2.66c-1.14-2.2-1.08-2.36.74-3.83,3.8-3.08,8.47-3.92,13-5,2.75-.66,4.9,1.09,6.32,3.32a29.71,29.71,0,0,1,4,8.41A99.59,99.59,0,0,1,167.13,99.44Z"/><path class="cls-7" d="M157.58,243.23c-.45-2.47-.62-4.21-1.1-5.85-.72-2.42-1.75-4.74-2.51-7.15-1.06-3.39.78-8.81,3.73-10.91a34,34,0,0,1,5.77-3.65c8.49-3.77,15.51-9.44,22.12-15.89,5.4-5.26,9.7-11.3,14.11-17.3,3-4.07,5.69-8.36,8.79-12.35s4.29-8.88,4.53-13.83c.3-6.24.13-12.5.17-18.75,0-5.05-.07-10.11.15-15.16.12-2.67.84-5.07,4.19-5.84,4.2-1,8.26-2.49,12.42-3.66a68.84,68.84,0,0,1,7.39-1.64c4-.65,4.89,0,6.46,3.74a41.88,41.88,0,0,1,2,4.93c1.61,5.93-.73,10.87-4.39,15.27a17.15,17.15,0,0,0-3.28,6.3c-1.61,5.4-3.57,10.71-5.07,16.14a23.66,23.66,0,0,0-.17,11.75,55.69,55.69,0,0,1,1.39,11.45c.07,4.48-2.23,8.37-4.61,12a53.76,53.76,0,0,1-8.77,10.87c-4.36,3.88-9.14,4.69-14.37,3.42-2.33-.57-3.74-.38-5.28,1.47-3.3,4-6.86,7.73-10.18,11.69a7.33,7.33,0,0,0-1.64,3.54c-.54,4.12-1.15,8.29.79,12.43-3.07,1.77-6,3.52-9.52,4.13C172.94,241.66,165.26,243.56,157.58,243.23Z"/><path class="cls-4" d="M259.07,102.37c.44,4.21,1.11,8.07,1.18,11.94.2,10.16.15,20.33.14,30.49a9.08,9.08,0,0,1-.77,2.5,6.46,6.46,0,0,1-4.83-1.1c-1.2-.82-2.63-1.31-3.8-2.16-4.3-3.11-6.87-7.11-6.45-12.7.26-3.48.12-3.47-3.13-4.47a7.94,7.94,0,0,1-5.94-7.24c-.45-4.37-.6-8.76-.9-13.47A60,60,0,0,1,259.07,102.37Z"/><path d="M163.24,253.19a5.39,5.39,0,0,1-4.71-4.21,58.36,58.36,0,0,0-2.51-6.71c-1.53-3.26-4.36-5.43-7.17-7.47a98.3,98.3,0,0,0-20.49-11.2c-2.33-1-4.6-2.06-6.88-3.14-1-.5-2-1.36-1.29-2.51a2.77,2.77,0,0,1,2.44-.62,66.49,66.49,0,0,1,14.14,5.23c7.69,4,15.25,8.09,21.55,14.26,3.59,3.51,5.06,7.76,5.73,12.44C164.22,250.43,163.57,251.71,163.24,253.19Z"/><path d="M93.7,227.29c-1.8-.53-2.4-2.1-2.8-4.11-.44-2.22-.89-4.45-1.49-6.55a19,19,0,0,0-4.27-7.29A58.39,58.39,0,0,0,72.95,198.4c-1.39-.93-2.74-2-4.09-3.07a2.07,2.07,0,0,1-.77-2.45,1.24,1.24,0,0,1,1.45-.6A31.91,31.91,0,0,1,78,197.39c4.57,3.9,9.07,7.9,12.82,13.91,2.14,3.43,3,7.58,3.41,12.14A19.67,19.67,0,0,1,93.7,227.29Z"/><path class="cls-8" d="M180.23,89s-3.21-9,0-11.41,14.33-8.22,20.55-4.51,15,9.48,16.36,20.61,2.8,22.84,1.64,27.51-4,13.71-4,13.71Z"/><path d="M217.87,130.43c0,8.86-1,17.58-1.73,26.33a35.62,35.62,0,0,1-3.57,12.66c-3.18,6.6-6.21,13.31-10,19.58-2.94,4.91-6.76,9.31-10.4,13.76-3.34,4.07-7,7.9-10.46,11.83a4.7,4.7,0,0,1-.78.74c-4.42,3.09-8.65,6.54-13.35,9.15a23.19,23.19,0,0,1-13.51,3.22,16.2,16.2,0,0,1-9.35-4.33,44.93,44.93,0,0,1-4.16-4.51c-1.92-2.31-2-4.07-.28-6.48a40.18,40.18,0,0,1,4.05-4.59c5.09-5.12,10.31-10.11,15.34-15.29,3.6-3.71,7-7.63,10.43-11.49.45-.5,1-1.28.91-1.82-.35-2,.91-3.37,1.67-5,3.69-7.94,7.87-15.75,8.93-24.61a90.73,90.73,0,0,0-.16-23.77,80.77,80.77,0,0,1-.86-16.91c.16-2.38-.12-4.79-.12-7.19a39.65,39.65,0,0,1,.25-5.4,28.83,28.83,0,0,0-.09-11.07A4.91,4.91,0,0,1,183,79.94c6.18-4.39,12.72-5.45,19.68-2a9,9,0,0,1,3,2c3.28,4,6.81,7.93,7.53,13.3C214.8,105.63,216.3,118,217.87,130.43Z"/><path class="cls-8" d="M158.89,225.15c-3.56,3.58-4.76,3.76-8,1.19-5.52-4.38-11-8.8-16.41-13.33-2.27-1.91-4.27-4.14-6.75-6.56.68-.9,1.39-1.93,2.19-2.88a3,3,0,0,1,3.84-.8,32.43,32.43,0,0,1,11.09,7.81c2.26,2.31,4.3,4.82,6.51,7.17,1.48,1.57,3.09,3,4.64,4.51C156.91,223.15,157.81,224.07,158.89,225.15Z"/><path d="M264,177.83c-1.8,1.75-3.19,3.07-4.53,4.42-1.92,1.92-3.72,4-5.72,5.77-3.91,3.53-7.85,7.13-11.89,10.35-14.06,11.22-28.12,22.54-42.28,33.36-10.22,7.81-20.61,14.83-30.91,22.31-6.83,5-13,7.69-20.14,11a28.07,28.07,0,0,1,2.76-2.8c37.88-24.65,74.32-55.86,111.3-84.59C262.75,177.52,263,177.71,264,177.83Z"/><path class="cls-9" d="M200,192.84c2,.53,3,2.09,3.61,4a4.57,4.57,0,0,1-4.08,5.88c-2.1.13-5-2.53-5.41-5-.52-3.08.8-5,3.44-5,.62,0,1.26-.11,1.88-.1A1.25,1.25,0,0,1,200,192.84Z"/><path d="M199.58,195a3,3,0,0,1,2,2.16,2.51,2.51,0,0,1-2.23,3.22c-1.15.07-2.74-1.38-3-2.71-.28-1.69.44-2.73,1.89-2.74.34,0,.69-.06,1-.05A.68.68,0,0,1,199.58,195Z"/><path class="cls-9" d="M186.75,214.33a14.08,14.08,0,0,1-2.61-1.69c-1.45-1.44-1.59-3.74-.47-5.9a2.73,2.73,0,0,1,1.06-1.1,5.54,5.54,0,0,1,7.65,3.67,7,7,0,0,1-.23,3.82c-.55,1.54-1.89,1.43-2.94,1.42a11.6,11.6,0,0,1-2.33-.47Z"/><path d="M187,212.52a8.41,8.41,0,0,1-1.56-1,3,3,0,0,1-.28-3.53,1.63,1.63,0,0,1,.63-.66,3.31,3.31,0,0,1,4.57,2.19,4.2,4.2,0,0,1-.14,2.28c-.33.92-1.13.85-1.76.85a6.92,6.92,0,0,1-1.39-.28Z"/><path class="cls-9" d="M172.83,225.9a4.74,4.74,0,0,1-1-.34c-1.07-.65-2.18-1.31-2.17-3.13s1.24-4.48,2.68-5.17a9.48,9.48,0,0,1,3.76-.91c1.13,0,1.93.8,2.07,2.32.09,1,.28,1.93.32,2.91.15,3.32-1.16,4.92-3.88,4.76a12.72,12.72,0,0,1-1.81-.37Z"/><path d="M173.17,224.47a2.79,2.79,0,0,1-.59-.2,2,2,0,0,1-1.27-1.84,3.85,3.85,0,0,1,1.58-3,5.58,5.58,0,0,1,2.21-.54c.67,0,1.13.47,1.22,1.36.05.57.16,1.13.19,1.71.09,2-.68,2.89-2.28,2.8a7.48,7.48,0,0,1-1.07-.22Z"/><path class="cls-9" d="M221.62,131a10.35,10.35,0,0,1-2.26-1.33c-1.74-1.69-1.12-5.25,1.11-6.74s4.68-.92,5.82,1.48c.25.54.41,1.15.64,1.72.51,1.28,1,2.82-.24,4a6.64,6.64,0,0,1-3.29,1.38c-.56.12-1.14-.4-1.71-.63Z"/><path d="M222.16,129.18a5.92,5.92,0,0,1-1.29-.76c-1-1-.64-3,.64-3.85a2.12,2.12,0,0,1,3.33.85c.15.31.24.66.37,1a2,2,0,0,1-.13,2.27,3.8,3.8,0,0,1-1.88.79c-.32.07-.65-.23-1-.36Z"/><path class="cls-9" d="M220.91,148.4c-1,3-2.87,4.55-4.75,3.9-3.12-1.08-4.06-3.1-3-6.38,1-2.91,3-4.2,5.2-3.39A4.14,4.14,0,0,1,220.91,148.4Z"/><path d="M219.37,148c-.6,1.81-1.72,2.72-2.84,2.34-1.87-.65-2.43-1.85-1.77-3.82.59-1.74,1.78-2.51,3.11-2A2.48,2.48,0,0,1,219.37,148Z"/><path class="cls-9" d="M206.31,187.88a6.29,6.29,0,0,1-4.24-4.1,4.58,4.58,0,0,1,.4-4.46,2.88,2.88,0,0,1,3.59-1c2.69,1.06,3.64,4.11,4.63,7,.41,1.2-.87,2.75-2.3,2.9A7.53,7.53,0,0,1,206.31,187.88Z"/><path d="M206.28,186.49a3.7,3.7,0,0,1-2.49-2.41,2.69,2.69,0,0,1,.23-2.62,1.69,1.69,0,0,1,2.11-.59c1.58.62,2.14,2.41,2.72,4.1.24.71-.51,1.61-1.35,1.71A4.42,4.42,0,0,1,206.28,186.49Z"/><path class="cls-9" d="M215,161.31a12.26,12.26,0,0,1,2.53,1.92,4.35,4.35,0,0,1,0,4.9c-1.17,1.72-3.06,2.38-4.48,1.5a22.73,22.73,0,0,1-2.19-1.57,4.43,4.43,0,0,1-1.15-4.86,3.26,3.26,0,0,1,3.85-2.06,9.17,9.17,0,0,1,1.26.4Z"/><path d="M214.58,163.07a7.16,7.16,0,0,1,1.48,1.12,2.54,2.54,0,0,1,0,2.86,2,2,0,0,1-2.62.88,13.28,13.28,0,0,1-1.28-.92,2.59,2.59,0,0,1-.67-2.84,1.91,1.91,0,0,1,2.25-1.2,5.36,5.36,0,0,1,.74.23Z"/><path class="cls-8" d="M183.47,141.49,176.8,139c1.28-4.24,3.31-5.29,6.62-3.52a13.2,13.2,0,0,0,7.32,1.54c9.48-.67,19-1.42,28.44-2.12.57,0,1.16,0,1.9,0-.4,2.36-1.91,3.12-3.76,3.49-2.83.56-5.68,1.07-8.5,1.65-.91.19-1.8.53-3.48,1l10.9,5.63c-2.55,2.48-4.71,3.2-7.7,1.77a107.81,107.81,0,0,0-11.07-4.37c-2.64-.92-5.35-1.28-7.8,1.32,3.74,2.32,7.1,4.95,10.88,6.56,2.76,1.18,6.09,1.07,9.17,1.42a46.14,46.14,0,0,0,4.73,0,6.47,6.47,0,0,1-5.29,3c-8.24.92-16.11-.06-23.1-5a35.84,35.84,0,0,0-4.31-2.21Z"/><path class="cls-8" d="M189.07,122.19c2.71,1.68,5.83,1.3,8.76,1.51,6.82.49,13.67.59,20.5.88,1.86.08,3.82-.13,5.44,1.22-1.94,2.48-10.4,5.5-18.95,6.71-7.49,1.06-14.92,1.16-22.5-1.8l1.83-3.68-2.22-.6c.65-3.47,2.57-4.84,5.68-4.21a7.39,7.39,0,0,0,1.58,0Z"/><path class="cls-8" d="M209.22,168.06c1.92-.42,2.63-1.81,3.55-3.59-1,.15-1.68.23-2.37.36a20.63,20.63,0,0,1-10.32-.76c-7.11-2.37-13.13-6.45-18.67-11.37-1.89-1.68-3.11-1.68-4.88,0s-1.74,3,.09,4.91A30.38,30.38,0,0,0,185.3,164a65.8,65.8,0,0,0,15.62,5.28,22.74,22.74,0,0,1-5.31-.39,120.09,120.09,0,0,0-21.78-2.72c-2.78,0-4.25,1.06-4.79,4,2.75.17,5.53.13,8.23.56s5.59,0,8.53,1.79c-1.86.59-3.23,1-4.58,1.46-6.26,2.17-12.48,4.44-18.09,8.05-3,1.93-3.15,2.56-1.92,5.77l-1.77,3.15,2.7.45,1,5.28c-4.45.37-8.49.77-12.55,1a6.26,6.26,0,0,1-2.69-.83,2.94,2.94,0,0,0-3.32.55c-3.27,2.54-3.38,4-.43,7a10.54,10.54,0,0,0,1.1.93c3.75,2.81,7.37,5.81,11.28,8.37,3.75,2.45,7.52,5.06,12.6,3.72,2.77-.73,5.21-3.69,4.54-6.38-.2-.79-.36-1.59-.53-2.39a44.22,44.22,0,0,0,10,3.34c1.93.45,3.75-.57,5.7-1.45-1-1.78-2.69-2-4.07-2.42A34.37,34.37,0,0,1,174,201.9l-.33-.24a5.93,5.93,0,0,1,1.36-.17,27.23,27.23,0,0,1,5,.22,4.77,4.77,0,0,0,4.63-1.28c1.27-1.39,2.62-1.06,4.25-.9a40.74,40.74,0,0,0,7.47-.22c1.31-.11,2.07-1,2.26-2.78-8.23-.9-15.56-4.06-22.67-7.83,4-.47,8.13-1.48,11.9-.75,6.09,1.19,11.05-.92,16.07-3.53.67-.35,1.06-1.27,2-2.47-3.44-.28-6.07-.7-8.68-.67-4,0-7.92.46-11.89.62a36.92,36.92,0,0,1-4.09-.27l-.17-.92c1-.48,2-1,3-1.41,2.59-1,5.31-1.64,7.8-2.81,4.36-2.06,8.63-3.38,13.48-1.53,2,.77,4,0,5.12-2.38L207.05,171C207.61,168.56,207.58,168.42,209.22,168.06Zm-42.75,44.18-10-9.28.29-.75c2.1-.05,4.21-.14,6.31-.13a1.5,1.5,0,0,1,1.11.72c1.35,2.87,2.82,5.72,3.06,8.95ZM178,196.39c-6.09,1-6.28.95-7.37-2.73Z"/><path class="cls-9" d="M155.89,158.32c1.88.5,2.84,2,3.45,3.78a4.38,4.38,0,0,1-3.9,5.63c-2,.12-4.78-2.42-5.17-4.74-.5-2.95.77-4.77,3.29-4.78.6,0,1.21-.1,1.8-.09A1.2,1.2,0,0,1,155.89,158.32Z"/><path d="M155.47,160.41a2.85,2.85,0,0,1,1.89,2.07,2.4,2.4,0,0,1-2.14,3.08,3.4,3.4,0,0,1-2.84-2.6c-.27-1.61.42-2.61,1.8-2.62.33,0,.66-.06,1-.05A.66.66,0,0,1,155.47,160.41Z"/><path class="cls-9" d="M146.3,180.64a13.47,13.47,0,0,1-2.5-1.62c-1.39-1.37-1.52-3.58-.45-5.65a2.61,2.61,0,0,1,1-1.05,5.31,5.31,0,0,1,7.32,3.51,6.73,6.73,0,0,1-.22,3.65c-.52,1.48-1.81,1.37-2.82,1.36a11.1,11.1,0,0,1-2.23-.45Z"/><path d="M146.57,178.9a8,8,0,0,1-1.49-1,2.82,2.82,0,0,1-.27-3.37,1.56,1.56,0,0,1,.6-.63,3.17,3.17,0,0,1,4.37,2.1,4,4,0,0,1-.13,2.18c-.31.88-1.08.82-1.68.81a6.63,6.63,0,0,1-1.33-.27Z"/><path class="cls-9" d="M124.26,199.91a4.54,4.54,0,0,1-1-.32c-1-.62-2.08-1.25-2.07-3s1.19-4.29,2.57-4.95a9.08,9.08,0,0,1,3.6-.87c1.08,0,1.85.77,2,2.22.09.93.26,1.84.31,2.79.15,3.17-1.11,4.71-3.71,4.55a12.17,12.17,0,0,1-1.73-.35Z"/><path d="M124.58,198.54a2.67,2.67,0,0,1-.56-.19,1.9,1.9,0,0,1-1.22-1.76,3.68,3.68,0,0,1,1.51-2.91,5.34,5.34,0,0,1,2.12-.51c.64,0,1.09.45,1.17,1.3.05.55.16,1.08.18,1.64.09,1.87-.65,2.77-2.18,2.68a7.16,7.16,0,0,1-1-.21Z"/><path class="cls-9" d="M170.08,109.76a9.91,9.91,0,0,1-2.17-1.27c-1.67-1.62-1.07-5,1.07-6.45s4.48-.89,5.57,1.42c.24.51.4,1.1.61,1.64.49,1.22.91,2.7-.23,3.79a6.35,6.35,0,0,1-3.15,1.32c-.54.12-1.09-.39-1.64-.61Z"/><path d="M170.6,108a5.67,5.67,0,0,1-1.24-.73,2.55,2.55,0,0,1,.61-3.69,2,2,0,0,1,3.18.81c.14.29.23.63.35.94a1.86,1.86,0,0,1-.13,2.17,3.63,3.63,0,0,1-1.8.76c-.31.07-.62-.22-.94-.35Z"/><path class="cls-9" d="M167.27,119.79c-2.26-2-2.9-4.25-1.61-5.65,2.14-2.33,4.27-2.38,6.72-.15,2.18,2,2.55,4.2,1,5.86A4,4,0,0,1,167.27,119.79Z"/><path d="M168.22,118.6c-1.36-1.22-1.73-2.55-1-3.39,1.28-1.4,2.56-1.42,4-.09,1.3,1.18,1.53,2.52.59,3.51A2.37,2.37,0,0,1,168.22,118.6Z"/><path class="cls-9" d="M160.93,151.12a6,6,0,0,1-4.06-3.93,4.39,4.39,0,0,1,.38-4.27,2.76,2.76,0,0,1,3.44-1c2.58,1,3.48,3.93,4.43,6.68.39,1.15-.84,2.63-2.2,2.78A7.2,7.2,0,0,1,160.93,151.12Z"/><path d="M160.9,149.79a3.54,3.54,0,0,1-2.38-2.31,2.58,2.58,0,0,1,.22-2.51,1.62,1.62,0,0,1,2-.56c1.51.59,2,2.31,2.6,3.93.23.68-.49,1.54-1.29,1.63A4.23,4.23,0,0,1,160.9,149.79Z"/><path class="cls-9" d="M166.26,123.58a11.73,11.73,0,0,1,2.43,1.83,4.16,4.16,0,0,1,0,4.69c-1.12,1.65-2.93,2.28-4.29,1.43a21.75,21.75,0,0,1-2.09-1.5,4.24,4.24,0,0,1-1.1-4.65,3.12,3.12,0,0,1,3.68-2,8.77,8.77,0,0,1,1.21.38Z"/><path d="M165.82,125.27a6.85,6.85,0,0,1,1.42,1.07,2.43,2.43,0,0,1,0,2.74,1.89,1.89,0,0,1-2.5.84,12.71,12.71,0,0,1-1.22-.88,2.48,2.48,0,0,1-.64-2.72,1.82,1.82,0,0,1,2.15-1.15,5.13,5.13,0,0,1,.7.22Z"/><path class="cls-8" d="M148.23,175.51c-.17,1.75-.85,2.67-2,2.78a32.57,32.57,0,0,1-6.68.22c-1.46-.16-2.66-.5-3.79.9a4,4,0,0,1-4.13,1.28,21.78,21.78,0,0,0-4.51-.22c-2,.07-2.55.71-2.31,2.85a60.06,60.06,0,0,0,1.13,6.64c.6,2.69-1.58,5.65-4.06,6.38-4.54,1.34-7.91-1.27-11.26-3.72s-6.74-5.56-10.09-8.37a9.77,9.77,0,0,1-1-.93c-2.64-2.93-2.54-4.42.38-7a2.42,2.42,0,0,1,3-.55,5.17,5.17,0,0,0,2.41.83c3.63-.23,7.25-.63,11.22-1l-.88-5.27-2.42-.45,1.58-3.15c-1.1-3.21-1-3.84,1.72-5.77,5-3.61,10.58-5.88,16.17-8.05,1.2-.47,2.43-.87,4.09-1.46-2.63-1.76-5.23-1.36-7.63-1.79a67.24,67.24,0,0,0-7.36-.56c.48-2.91,1.79-4,4.28-4a96.53,96.53,0,0,1,19.47,2.72,18.21,18.21,0,0,0,4.75.39,54.65,54.65,0,0,1-14-5.28,27.56,27.56,0,0,1-7.76-6.36c-1.64-1.94-1.62-3.23-.08-4.91s2.67-1.72,4.36,0c4.95,4.92,10.33,9,16.68,11.37a16.58,16.58,0,0,0,9.22.76c.61-.12,1.23-.21,2.12-.36-.82,1.77-1.46,3.16-3.17,3.59-1.46.36-1.44.51-1.94,2.91l3.12,1.62c-1,2.4-2.77,3.15-4.58,2.38-4.34-1.85-8.15-.53-12.05,1.53-2.22,1.17-4.65,1.85-7,2.81-.93.39-1.8.94-2.7,1.41l.15.92a29.55,29.55,0,0,0,3.66.27c3.54-.16,7.08-.57,10.63-.62,2.34,0,4.68.38,7.76.67-.86,1.21-1.2,2.12-1.8,2.47-4.48,2.61-8.92,4.72-14.36,3.53-3.36-.73-7,.28-10.63.75C134.33,171.45,140.88,174.6,148.23,175.51Zm-28.76,15.7.72-.49c-.21-3.23-1.52-6.08-2.73-8.95a1.34,1.34,0,0,0-1-.72c-1.88,0-3.76.07-5.64.13l-.26.75Zm10.26-15.84-6.59-2.73C124.12,176.31,124.29,176.38,129.73,175.36Z"/><path class="cls-8" d="M136.33,120.65l-6-2.5c1.14-4.24,3-5.29,5.91-3.52a10.77,10.77,0,0,0,6.54,1.54c8.48-.67,16.95-1.42,25.42-2.12.51,0,1,0,1.7,0a3.79,3.79,0,0,1-3.36,3.49c-2.53.56-5.07,1.07-7.6,1.65-.82.19-1.6.53-3.11,1l9.74,5.63c-2.28,2.48-4.21,3.2-6.88,1.77a90.56,90.56,0,0,0-9.9-4.37c-2.36-.92-4.78-1.28-7,1.32,3.35,2.32,6.34,4.95,9.73,6.56,2.47,1.18,5.44,1.07,8.2,1.42a36.87,36.87,0,0,0,4.23,0,5.66,5.66,0,0,1-4.73,3c-7.37.92-14.4-.06-20.65-5a30.94,30.94,0,0,0-3.85-2.21Z"/><path class="cls-8" d="M141.34,101.36c2.42,1.68,5.21,1.3,7.83,1.51,6.1.49,12.21.59,18.32.88,1.66.08,3.41-.13,4.86,1.22-1.74,2.48-9.3,5.5-16.93,6.71-6.69,1.06-13.33,1.16-20.11-1.8L137,106.2l-2-.6c.58-3.47,2.3-4.84,5.07-4.21a5.91,5.91,0,0,0,1.41,0Z"/></g></g></svg>