<svg xmlns="http://www.w3.org/2000/svg" viewBox="0 0 360 360"><defs><style>.cls-1{isolation:isolate;}.cls-2,.cls-3{fill:#b5d0e1;}.cls-3,.cls-6{mix-blend-mode:multiply;}.cls-4{fill:#dde5ed;}.cls-5{fill:#fff;}</style></defs><title>consultant_webpage_forkknife_icon_3C_191016</title><g class="cls-1"><g id="Background"><circle id="_27.62.111" data-name="27.62.111" class="cls-2" cx="180" cy="180" r="180"/></g><g id="Artwork"><path class="cls-3" d="M86.67,286.2c5.13,3.73,16.1,8.11,38.46-18.55,25-29.86,74.33-95.78,109.13-103.87,10.5-2.44,22.59-5.34,29.7-14.37,3.78-4.81,36.55-43.14,36-43.75-1.31-1.39-1.68-1.06-3-2.45-4.36,5-35.66,36.19-40.41,40.49-2.22,2-4.77-.27-5.15-3.37,3.82-3.44,20-19.14,23.43-22.62,1.57-1.6,16.07-18.34,17.56-20.11l-2.18-2.31c-4.68,4.78-37,34.48-41.95,39-2,1.88-3.62,3.16-5.51.65-3.19-3.48,31.06-35.3,41.32-46.23-1.42-1.51-1.09-1.15-2.52-2.65-6.8,6.12-39.52,37.64-45.72,41.9-1.27.88-6.12-.45-3.28-4.07,4.19-5.33,41.66-43.18,42.68-44.32-.89-.92-1.39-1.47-2.29-2.39-1.46-1.49-22.78,16.47-24.13,17.85-5,5.06-22.77,22.33-27.55,27.56-10.22,11.17-9.94,28.44-12.43,32.86-9.47,16.81-107.36,98.72-120.69,111.76a24.51,24.51,0,0,0-3.45,4.55C81.2,277.4,82,282.78,86.67,286.2Z"/><path class="cls-4" d="M84.22,280.08c5.13,3.73,16.1,8.11,38.46-18.55,25-29.86,74.33-95.78,109.13-103.87,10.5-2.44,22.59-5.34,29.7-14.37,3.78-4.81,36.55-43.14,36-43.75-1.31-1.39-1.68-1.06-3-2.45-4.36,5-35.66,36.19-40.41,40.49-2.22,2-4.77-.27-5.15-3.37,3.82-3.44,20-19.14,23.43-22.62,1.57-1.6,16.07-18.34,17.56-20.11l-2.18-2.31c-4.68,4.78-37,34.48-41.95,39-2,1.88-3.62,3.16-5.51.65-3.19-3.48,31.06-35.3,41.32-46.23-1.42-1.51-1.09-1.15-2.52-2.65-6.8,6.12-39.52,37.64-45.72,41.9-1.27.88-6.12-.45-3.28-4.07,4.19-5.33,41.66-43.18,42.68-44.32-.89-.92-1.39-1.47-2.29-2.39-1.46-1.49-22.78,16.47-24.13,17.85-5,5.06-22.77,22.33-27.55,27.56-10.22,11.17-9.94,28.44-12.43,32.86C196.93,166.17,99,248.08,85.71,261.12a24.51,24.51,0,0,0-3.45,4.55C78.76,271.28,79.53,276.66,84.22,280.08Z"/><path class="cls-5" d="M92,268.54s1.84,4.74,6.12,3.37,31.05-29.52,33-30.44-1.22,5.2-3.21,6.88-21.72,27-30,28.43S88.94,271.3,92,268.54Z"/><path class="cls-5" d="M212.54,158.4s7.19-7.5,14.23-8.26,16.22-.92,21.42-4.28c0,0,2.91,1.84-1.84,3.82s-17.59,2.91-21,3.37S212.54,158.4,212.54,158.4Z"/><g class="cls-6"><path class="cls-2" d="M178.85,197.52a3.09,3.09,0,0,1-2.74.49,25.18,25.18,0,0,1-5.35-3.3c-10.48-8.6-25.61-20.57-36.1-29.15C127.84,160,120.78,154.7,114,149.09c-6.24-5.15-12.23-10.61-18.42-15.82-8.35-7-16.8-14-25.18-21-2.82-2.36-5.66-4.72-8.31-7.28a9.07,9.07,0,0,1-1.92-3.6c-.4-1.19.56-1.4,1.52-1.4,6.32,0,12.65.35,18.94-.09a58.42,58.42,0,0,1,14.52.78c2.54.46,4.91,1.87,7.35,2.85,1.69.68,3.44,1.24,5,2.08a50.15,50.15,0,0,1,15.33,12.5,5.12,5.12,0,0,0,2.32,1.64A14.58,14.58,0,0,1,131.5,124a79.22,79.22,0,0,0,6.15,6.13c2,1.58,4.37,2.61,6.55,3.92,5.63,3.39,9.87,8.17,13.71,13.42C164.14,156,181.41,195.16,178.85,197.52Z"/><path class="cls-2" d="M272.08,268.29c1.05,1.77,1.16,3.36-.23,4.56-2.9,2.48-5.83,4.91-8.76,7.35a12,12,0,0,0-1.09.74c-1.71,1.79-1.73,1.84-3.82-.09-8.79-8.1-34.92-33.36-43.42-41.85-7.44-7.44-14.23-15.72-21.5-23.4-4.16-4.39-8.77-8.21-13-12.47a46.75,46.75,0,0,1-4.9-6.22,4.11,4.11,0,0,1-.16-2.27,18.09,18.09,0,0,1,.42-2.68c.33-1.48,1.49-1.41,2.57-1.19,1.31.26,2.61.74,3.91,1.1a71.14,71.14,0,0,1,8.55,2.44,70.13,70.13,0,0,1,10,5.2c4.08,2.55,8.06,5.39,12,8.31,3.42,2.54,6.79,5.22,10,8.09,5.84,5.18,11.7,10.36,17.29,15.89,5.28,5.24,27.32,28.39,31.34,34.93C271.53,267.24,271.8,267.77,272.08,268.29Z"/></g><path class="cls-4" d="M183.14,192a3.09,3.09,0,0,1-2.74.49,25.18,25.18,0,0,1-5.35-3.3c-10.48-8.6-25.61-20.57-36.1-29.15-6.82-5.58-13.88-10.87-20.68-16.47C112,138.44,106,133,99.85,127.76c-8.35-7-16.8-14-25.18-21-2.82-2.36-5.66-4.72-8.31-7.28a9.07,9.07,0,0,1-1.92-3.6c-.4-1.19.56-1.4,1.52-1.4,2.81,0,6.24,1,9.06,1,2.25,0,2.82-1.93,5.06-2,1.25,0,3.57,1,4.82.88,1.56-.11,3,.64,4.5.65,1.75,0,3.63-.69,5.36-.52q2.34.23,4.66.65c2.54.46,4.36,2.47,7.35,2.85,1.69.68,3.44,1.24,5,2.08,1.42.74,2,2.33,3.28,3.2,2,1.3,4.68,1.95,6.44,3.51a55.14,55.14,0,0,1,5.61,5.79,5.12,5.12,0,0,0,2.32,1.64,14.58,14.58,0,0,1,6.31,4.21c.93.94,1.2,2.7,2.11,3.67,1.08,1.15,2.82,1.49,4,2.46,2,1.58,3.11.81,5.29,2.12.65.39,1.68,3.33,2.29,3.82,1,.76,2.74.94,3.63,1.89,1.85,2,2.42,4.56,4,6.83,1.44,2,3.92,3.75,5.2,5.51s1.78,4.18,3.52,7.34c.74,1.35,2.47,2.81,3.26,4.34.92,1.77,1.86,3.64,2.8,5.56C178.39,175.15,184.77,190.5,183.14,192Z"/><path class="cls-4" d="M276.37,262.78c1.05,1.77,1.16,3.36-.23,4.56-2.9,2.48-5.83,4.91-8.76,7.35a12,12,0,0,0-1.09.74c-1.71,1.79-1.73,1.84-3.82-.09-8.79-8.1-34.92-33.36-43.42-41.85-7.44-7.44-14.23-15.72-21.5-23.4-4.16-4.39-8.77-8.21-13-12.47-1.83-1.82-10-8-11.52-10.13-.36-.51,2.55-9.88,3.63-9.67,1.31.26,2.56,2.89,3.87,3.26,2.85.8,11.63,6.56,14.41,7.72a70.13,70.13,0,0,1,10,5.2c4.08,2.55,8.06,5.39,12,8.31,3.42,2.54,6.79,5.22,10,8.09,5.84,5.18,11.7,10.36,17.29,15.89,5.28,5.24,27.32,28.39,31.34,34.93C275.82,261.73,276.08,262.26,276.37,262.78Z"/><path class="cls-5" d="M230.8,224.33S266.75,256,266.14,261.2s-2,9-.61,9,5-3.82,5-6a11.68,11.68,0,0,0-3.67-8.41C263.84,252.79,237.38,225.4,230.8,224.33Z"/></g></g></svg>