<svg xmlns="http://www.w3.org/2000/svg" viewBox="0 0 360 360"><defs><style>.cls-1{isolation:isolate;}.cls-2,.cls-3{fill:#b5d0e1;}.cls-3{mix-blend-mode:multiply;}.cls-4{fill:#563625;}.cls-5{fill:#a28245;}.cls-6{fill:#3d9f86;}.cls-7{fill:#fddd78;}.cls-8{fill:#b9bdc5;}.cls-9{fill:#f4364c;}.cls-10{fill:#fff;}</style></defs><title>consultant_webpage_xmastree_icon_3C_191016</title><g class="cls-1"><g id="Background"><circle id="_27.62.111" data-name="27.62.111" class="cls-2" cx="180" cy="180" r="180"/></g><g id="Artwork"><path class="cls-3" d="M178.9,311s11.57,3.42,18,0,7.78-4.7,15.66-5.76,14.27-1.68,25-2.3,29.93-3.4,22.35-10.83-21.45-6.63-30.88-7.18-18.71.55-36.62,0-42-3.48-57.9-.16-14.68,12.35-5.51,13.1,26.23,2.68,24.56,6.36S178.9,311,178.9,311Z"/><path class="cls-4" d="M192.72,275c.26,3,.63,6.56.84,10.1.33,5.32.47,10.65.82,16,.56,8.32-6.09,13.66-13.62,14.24a34.37,34.37,0,0,1-16.91-2.53,18.82,18.82,0,0,1-9.07-8.8c-.79-1.51-.44-3.69-.37-5.56.27-6.9.84-13.79,0-20.69a4.51,4.51,0,0,1,4.25-4.86c3.87-.11,7.74,0,11.61.09s8,.3,11.93.12C185.72,272.9,189.16,272.25,192.72,275Z"/><path class="cls-5" d="M179.42,261.69a5.5,5.5,0,0,1,.09,3.41,27.18,27.18,0,0,0-.28,9c.34,2-.08,4.21-.05,6.32.06,5.13.18,10.27.27,15.4a9.8,9.8,0,0,1,0,1.26,38.73,38.73,0,0,0,.24,9.26,3.11,3.11,0,0,1,.14,1,3.76,3.76,0,0,1-.61,1c-.28-.24-.69-.41-.84-.72-1.55-3.13-1.91-6.55-2.28-10-1.21-11.14-.31-22.21,1.43-33.23C177.71,263.33,177.92,262.23,179.42,261.69Z"/><path class="cls-5" d="M188.9,257c-.2,1-.31,1.76-.51,2.49a20.55,20.55,0,0,0-.26,6.47c.13,2.52-.05,5.05,0,7.57.14,4.56.38,9.12.56,13.68a29.69,29.69,0,0,1-.18,7.13,17.86,17.86,0,0,0-.08,3.34c0,.74,0,1.49,0,2.54a3.85,3.85,0,0,1-2.46-3.11c-.6-4.74-1.08-9.49-1.41-14.25-.49-7,.35-14,1.21-21a15.24,15.24,0,0,1,.57-2.89A2.49,2.49,0,0,1,188.9,257Z"/><path class="cls-5" d="M170.08,263.21c0,5.11-.13,10-.11,15s.21,10,.24,14.95-.47,9.94.71,15.22c-.72-.19-1.35-.17-1.47-.41a13.29,13.29,0,0,1-1.74-4.17,75,75,0,0,1-.6-13.06c.28-7.52.61-15,.93-22.55C168.13,266.35,168.37,264.59,170.08,263.21Z"/><path class="cls-5" d="M161.09,300.19c-.17-.68-.28-1.2-.43-1.71a18.23,18.23,0,0,1-.65-2.17,29.62,29.62,0,0,1-.47-4.36c0-5.06-.1-10.13.13-15.18.17-3.64.82-7.26,1.19-10.9.25-2.41,1.4-4.43,2.62-6.77.18.57.37.83.32,1.05-2.88,13.11-1.7,26.42-2.05,39.66C161.75,299.87,161.53,299.94,161.09,300.19Z"/><path class="cls-6" d="M112.81,224.13c-2.38-.21-4.76-.58-7.15-.6-5.39,0-9.66-2.42-13.39-6.06A5.85,5.85,0,0,1,91.13,216c-1.49-2.92-.86-4.66,2.24-5.86,2.24-.87,4.54-1.6,6.84-2.29a67.94,67.94,0,0,0,15.14-8.05,16.54,16.54,0,0,0-2.09-.53c-4.67-.53-8.73-2.85-13-4.46-2.47-.93-3.79-4.71-2.54-6.94.51-.9,1.95-1.49,3.08-1.8,2.81-.78,5.67-1.42,8.54-1.95,6.82-1.25,12.06-5.54,18-8.93-3.09-1.3-5.92-2.45-8.71-3.7s-5.3-2.47-7.92-3.76c-1.24-.61-5.52-3.1-4.6-6.46.19-.71,22.82-5.33,27.92-12.44a13.72,13.72,0,0,0,1.25-.94,2.85,2.85,0,0,0,.39-.7,8.28,8.28,0,0,0-5.11-.51,17,17,0,0,1-9.77-1.54c-.8-.39-5.68-2.67-4.54-4.49.44-.7,6.9-3.33,7.53-3.88,22.49-17.17,28-36.12,33.57-43.43,1.59-2.07,2.68-4.54,4.33-6.54A25.3,25.3,0,0,1,167,82a3.32,3.32,0,0,1,4.73.94c2.75,3.54,5.52,7.07,8.26,10.62a20.63,20.63,0,0,1,1.37,2.07c2.25,3.77,4.23,7.73,6.79,11.27a41.07,41.07,0,0,0,6.83,6.88c3.42,2.91,10.27,11.85,30.57,14.11a6.63,6.63,0,0,1-2.59,6.1c-2.66,2.29-11.44,5.12-12.87,5.52a8.82,8.82,0,0,0,1.3,1.49c7.32,5,15.25,7.7,24.25,6.63,2.06-.25,4.18,0,6.26-.11s2.63,1.4,3.37,2.78.07,2.19-.86,3.27a65,65,0,0,1-18.53,14.66c-2.34,1.26-4.69,2.5-7.5,4,1.67,1,2.87,1.75,4.13,2.42q4.3,2.28,8.65,4.47a16.07,16.07,0,0,0,12.44,1.24,28.67,28.67,0,0,1,7.71-1c2.77-.06,3.21.85,3.28,3.67a10,10,0,0,1-2.63,6.81c-.78,1-1.21,2.21-2,3.14a33,33,0,0,1-12.62,9.52c-4.06,1.63-8.29,2.86-12.43,4.28a5.89,5.89,0,0,0-1,.66,25.64,25.64,0,0,0,12.34,8.27,44.76,44.76,0,0,0,16.47,1.44c1.75-.14,3.48-.63,5.23-.82a3.43,3.43,0,0,1,4.06,2.79c-4,4.83-7.81,9.53-12.95,13.11s-11.23,5-17,7.62c.68,1.71,2,2.26,3.29,2.93,5.78,3.06,12,4.81,18.25,6.72a44.56,44.56,0,0,0,19,1.46c1.57-.2,3.42-.78,4.45,1.31-.72,2.59-2.64,4.1-4.67,5.82-5.44,4.59-12.11,6.46-18.37,9.32-7.4,3.38-15.34,4.07-23.16,5.37-6.82,1.13-13.66,2.19-20.53,2.88-5.2.53-10.45.49-15.68.61-5.44.13-10.89.24-16.33.18-6.08-.07-12.17-.74-18.22-.43a130.2,130.2,0,0,1-18.2-.63c-5.1-.45-10.23-.91-15.26-1.84-7.2-1.32-14.34-3-21.48-4.67A36.49,36.49,0,0,1,89.24,261a102.41,102.41,0,0,1-10.29-9.65c-2.18-2.47-2.61-5.39-2.88-8.39-.17-1.83,1.27-1.9,2.6-1.78,4.31.39,8.27-1,12.21-2.42,4.67-1.68,8.76-4.45,12.93-7,2.66-1.65,5.14-3.58,7.68-5.43a13.88,13.88,0,0,0,1.5-1.47Z"/><path class="cls-7" d="M165.41,43.13c1.73,1.77,5.18,6.49,6.34,9.88A56.54,56.54,0,0,1,175.8,60l1.87,3.45c3.06-.12,17.38,1.79,16,3.2-3.55,3.64-7.09,7.29-10.67,11,1.69,5.54,3.85,11,3.3,17.1-1.82.89-9.23-3.35-13-6.35a53.61,53.61,0,0,0-4.68-3,1.65,1.65,0,0,0-2.58.43c-2.79,3.75-15.62,12.06-16.44,11.82a1.71,1.71,0,0,1-1-2.09c.57-3.91,1.15-7.81,1.8-11.7.25-1.48.72-2.92,1.15-4.63a130.35,130.35,0,0,1-13.67-10.52c-1-1.27-.7-2.09.84-2.55.4-.12,16.06-2.64,18.5-2.84C158.58,58.72,162.45,46.09,165.41,43.13Z"/><path class="cls-8" d="M204.25,176.45l-12.94,2.91a14.07,14.07,0,0,1-2.16.4c-7.74.48-15.45.93-23.13-.64s-15.53-3.08-22.83-6a64.9,64.9,0,0,1-6.9-3.29c-4.95-2.69-9.61-5.7-12.42-10.49l-.79-1.33c2.15-2.13,4.09-3.79,7.8-3.19,2.88.46,6-.18,9-.53a71.34,71.34,0,0,0,24.84-7.77c7.24-3.76,14.34-7.64,20.7-12.58a25.12,25.12,0,0,0,6.06-6c-3.07.06-5.67-.05-8.23.2a91.43,91.43,0,0,1-25.33-.92A53.62,53.62,0,0,1,140.45,121a8.48,8.48,0,0,1-1.43-1.09,5.93,5.93,0,0,1-.69-.91c.74-1.81,2.06-1.7,3.58-1.16q3.64,1.31,7.31,2.55a62.34,62.34,0,0,0,23.42,2.9c4.4-.22,8.8-.25,13.2-.42,2.61-.1,5.22-.42,7.83-.44s5.26.52,8-.59c2.11-.87,3.24.19,2.82,2.25a5.82,5.82,0,0,1-1.38,2.79,82.09,82.09,0,0,1-16.58,13.61c-3.58,2.16-7.46,3.89-11.11,5.94A83.4,83.4,0,0,1,152.81,155c-5.28,1.19-10.74,1.68-16.12,2.5-1.31.2-2.61.45-4.5.78a24,24,0,0,0,2.69,3.26c8.56,7.05,18.61,11.3,30,13.14,5.27.85,10.47,1.62,15.87,1.28a80.56,80.56,0,0,0,18.43-3.39,60.51,60.51,0,0,1,12.5-2.81c2.56-.22,3.1.11,2.67,2.45a15.4,15.4,0,0,1-3.63,8.11c-1.62,1.75-2.94,3.75-4.71,5.35-5.79,5.22-10.71,11.3-18,15.1-1.71.9-3.16,2.2-4.78,3.26a78.4,78.4,0,0,1-19.58,9.07c-7,2.19-14.18,4.05-21.71,4.29-2.81.09-5.6.72-8.41.95-2.59.21-5.19.21-7.78.33-.7,0-1.4.15-2.89.32a38,38,0,0,0,3.78,2.7c9.86,5.25,20.22,9.42,31.51,11.49,2.76.51,5.58.75,8.36,1.18,3.18.49,6.33,1.16,9.52,1.54a82.67,82.67,0,0,0,17.84.18c.42,0,.83-.13,1.25-.14,10.6-.28,20.28-3.58,29.73-7.67a7.4,7.4,0,0,0,4.09-3.39,11.29,11.29,0,0,1,1.65-2.09c1.4-1.65,3-2.62,5.41-1.61a13.86,13.86,0,0,0,3.45.42,15.2,15.2,0,0,1-4.2,6,17.17,17.17,0,0,0-4.47,6.49c-1.08,2.35-2.74,4.48-3.94,6.8-2.15,4.13-6.2,7-8.7,10.84a5.47,5.47,0,0,1-1.18,1.34c-6.28,4.91-12.27,10.13-19.46,14a37,37,0,0,1-9.09,3.09c-5.67,1.37-11.3,2.94-17,4-4.17.76-8.48.82-12.8,1.2a5.57,5.57,0,0,1,5.06-4,69.26,69.26,0,0,0,34.79-12.1,105.75,105.75,0,0,0,21.67-20.33,36.25,36.25,0,0,0,2.57-4.14,17.83,17.83,0,0,0-8.1,1.53c-4.29,1.8-8.85,2.4-13.42,3a144.84,144.84,0,0,1-24.75.91c-10.11-.48-19.82-2.51-29.57-4.61a72.49,72.49,0,0,1-16.21-5.18,116.45,116.45,0,0,1-18.18-10.42c-1-.74-1.29-1.47-.33-2.37a17.39,17.39,0,0,1,2.74-2.36,3.84,3.84,0,0,1,2.59-.57c4,1.14,8,.75,12.09.16,2.28-.33,4.58-.52,6.86-.87a112.4,112.4,0,0,0,26.16-7,128.44,128.44,0,0,0,22.5-12.6,80,80,0,0,0,18.58-16.69A7.93,7.93,0,0,0,204.25,176.45Z"/><path class="cls-7" d="M136.26,136.52a8.48,8.48,0,0,1-6.3-3.45,2.6,2.6,0,0,1-.3-1.56,9.6,9.6,0,0,1,.26-1.86c.08-.4.14-1,.4-1.14,1.9-1.1,3.15-3.13,5.59-3.48,3.39-.48,5.45,1.16,5.79,4.56.28,2.82-1,4.68-3.13,6.1A10.1,10.1,0,0,1,136.26,136.52Z"/><path class="cls-9" d="M112.81,247.84a12.18,12.18,0,0,1,5.61,2,2.19,2.19,0,0,1,1,2.19,9.86,9.86,0,0,1-4,6.63,2.86,2.86,0,0,1-3.53.08c-1.3-.92-2.64-1.8-3.86-2.83a2.84,2.84,0,0,1-.92-3.4,23.38,23.38,0,0,1,1.5-3.21C109.53,247.82,111.17,248.13,112.81,247.84Z"/><path class="cls-9" d="M162.15,221a4.68,4.68,0,0,1,5.27,3.41c.79,2.31-.84,5.35-3.32,6.2a7.79,7.79,0,0,1-5.92-.47,2.18,2.18,0,0,1-1.53-2.08c.15-2,.44-4.06,1.88-5.67A4.05,4.05,0,0,1,162.15,221Z"/><path class="cls-10" d="M154.29,191.32a7.29,7.29,0,0,1,3.15-5.75,4.1,4.1,0,0,1,4.55.11,7.06,7.06,0,0,1,3.42,5.26,2.84,2.84,0,0,1-1.38,3c-1.12.61-2,1.75-3.55,1.49a11.67,11.67,0,0,1-5.31-2.26C154.64,192.79,154.51,191.81,154.29,191.32Z"/><path class="cls-9" d="M178.51,98.86c.33,1.82-.56,3.22-1.44,4.55-1,1.49-3.88,1.81-5.78.76-.55-.3-1-.7-1.6-1-2.07-1.13-2.48-3-1.07-4.93a9.46,9.46,0,0,1,5.89-3.72c2.32-.48,3.46.87,4,3.16A5.23,5.23,0,0,1,178.51,98.86Z"/><path class="cls-9" d="M159.35,145.09c-.87-.13-2-.25-3.07-.47a2.53,2.53,0,0,1-1.7-2.58,6.27,6.27,0,0,1,5.62-6.2,4.49,4.49,0,0,1,4.66,6C163.92,144.3,162.5,145.16,159.35,145.09Z"/><path class="cls-7" d="M179.2,158.43a5,5,0,0,1,4.77,4.13,3.08,3.08,0,0,1,0,.63c-.14,2.21-3.68,4.91-5.83,4.34a9.86,9.86,0,0,1-3.23-1.36,4.32,4.32,0,0,1-1.62-4.67c.38-1.66,1.95-2.3,3.41-2.79A11.22,11.22,0,0,1,179.2,158.43Z"/><path class="cls-10" d="M236.64,254.37c3.13,0,4.31,1.78,4.4,4.46a7.3,7.3,0,0,1-.52,2.85c-1.08,2.75-3.89,3.49-6.09,1.53-1.67-1.49-3.14-3.24-3-5.74.08-1.72.59-2.29,2.33-2.62C234.71,254.67,235.68,254.53,236.64,254.37Z"/><path class="cls-9" d="M121.69,180.33a4.34,4.34,0,0,1,4.06,4.73,4.91,4.91,0,0,1-4.31,4.21,5.83,5.83,0,0,1-3.49,0c-2.85-1.19-2.58-4.68-1.19-6.33A8.43,8.43,0,0,1,121.69,180.33Z"/><path class="cls-7" d="M167.44,258.05c-1.38-.41-2.78-.76-4.13-1.26-.74-.27-1.25-1.83-1.07-2.75.62-3.21,4.81-5.69,7.93-4.71a3.64,3.64,0,0,1,2.26,4.57,12.31,12.31,0,0,1-2,3.12C169.68,257.92,168.59,258,167.44,258.05Z"/><path class="cls-7" d="M221.81,162.73a6.25,6.25,0,0,1-4.57-1.84,3.1,3.1,0,0,1-.18-4.33,8.2,8.2,0,0,1,5.42-2.44,3.38,3.38,0,0,1,3.6,2.36,7.46,7.46,0,0,1,.42,2.46c0,2.22-.82,3.14-3,3.56C222.92,162.62,222.36,162.66,221.81,162.73Z"/><path class="cls-9" d="M199.7,140.47c2.61.12,4.57,2,4.48,4.2s-3.22,5.17-5.34,4.72a8.5,8.5,0,0,1-3.77-2.09c-.58-.53-.64-1.8-.64-2.74C194.42,142.4,197.14,140.36,199.7,140.47Z"/><path class="cls-9" d="M228.92,189.25a6.5,6.5,0,0,1,4.29,2.15,1.94,1.94,0,0,1,.49.91c.42,1.79-.47,3-1.67,4.26a3.57,3.57,0,0,1-3.82,1c-.53-.15-1-.45-1.56-.62a3.64,3.64,0,0,1-2.88-3.19,4.28,4.28,0,0,1,2.37-3.69A22.42,22.42,0,0,1,228.92,189.25Z"/><path class="cls-9" d="M201.3,212.17a3.49,3.49,0,0,1,2.65,1.4c.4.57.93,1,1.33,1.61,1.34,1.86,1.35,2.51.19,4.29a3.83,3.83,0,0,1-4.14,1.27,16.31,16.31,0,0,1-3.25-1.43,3.28,3.28,0,0,1-.37-5.7A15.86,15.86,0,0,1,201.3,212.17Z"/><path class="cls-10" d="M192.38,119.21c-2.24.15-3.81-1.07-5.16-2.66a2.15,2.15,0,0,1-.21-2.38,4.51,4.51,0,0,1,4.28-2.81,14.31,14.31,0,0,1,2.9.4,2.73,2.73,0,0,1,2.08,2.81,11.62,11.62,0,0,1-1.06,3.76C194.68,119.5,193.42,119.17,192.38,119.21Z"/></g></g></svg>