<svg xmlns="http://www.w3.org/2000/svg" viewBox="0 0 360 360"><defs><style>.cls-1{isolation:isolate;}.cls-2{fill:#b5d0e1;}.cls-3{mix-blend-mode:multiply;}.cls-4{fill:#fbc652;}.cls-5{fill:#fddd78;}.cls-6{fill:#fff;}.cls-7{fill:#97382e;}.cls-8{fill:#f4364c;}.cls-9{fill:#5499b8;}.cls-10{fill:#dde5ed;}.cls-11{fill:#1dbbee;}</style></defs><title>consultant_webpage_popcorn_icon_3C_191016</title><g class="cls-1"><g id="Background"><circle id="_27.62.111" data-name="27.62.111" class="cls-2" cx="180" cy="180" r="180"/></g><g id="Artwork"><g class="cls-3"><path class="cls-2" d="M276.72,230.11c-7.76,2.19-28.57,27.08-29.8,29.94s-4.49,13.47-4.49,13.47,9.8-1,14.69-6.42,10.2-13.95,17.55-14.78,14.69-2.06,18-9.82S284.47,227.93,276.72,230.11Z"/><path class="cls-2" d="M218.35,213.46c-4.08-3.33-15.66-1.75-15.66-1.75s-35.36,25.08-38.06,27.54,4.27,16.31,12.52,12.36S184.47,236,191,234s15.1,0,21.71-1.67S222.43,216.79,218.35,213.46Z"/><path class="cls-2" d="M210.88,186.79c-2.53-6.33-18.78-13.07-18.78-13.07l-4.22,42s11.06-1.32,16.59-6.25S212.44,190.7,210.88,186.79Z"/><path class="cls-2" d="M187.88,260.46c-4.64-.41-15.66,20.44-15.66,20.44s8.51-2.81,11.81-5.5,8.42-4.89,9.12-8.07S192.52,260.87,187.88,260.46Z"/></g><path class="cls-4" d="M81.54,214.8a32.48,32.48,0,0,1,3.58,1.93c1.76,1.24,1.81,2.45.35,4a3.31,3.31,0,0,1-1,.85,9.37,9.37,0,0,0-3.75,2.52c-1.07,1.28-2.8.83-4.2.49a2.79,2.79,0,0,0-3.09.85c-1.79,1.82-4,1.4-5.37-.8-.35-.56-.66-1.15-1-1.78-1.29.07-2.53.19-3.77.2-2.27,0-3.25-1.38-2.82-3.63A8,8,0,0,1,64.51,214L66,213c0-.56,0-1.07-.07-1.58-.28-5,3.68-8.48,8.4-8.69a2.27,2.27,0,0,1,1.78,1,4,4,0,0,0,1.66,1.63,5.34,5.34,0,0,1,2.48,3.76C80.66,211,81.13,213,81.54,214.8Z"/><path class="cls-5" d="M184.82,84.45a9.34,9.34,0,0,1,7.47-.8,12.54,12.54,0,0,1,3.26,1.24c2,1.27,3.39,3,2.74,5.63a20.78,20.78,0,0,0-.3,2.57c.52,0,.83,0,1.14-.08,2.58-.34,3.62.76,3.55,3.39-.09,3.56-2.06,6.32-3.76,9.16a31.3,31.3,0,0,1-4.29,5.84c-2.62,2.69-4.12,6.06-6.06,9.15a21.63,21.63,0,0,1-4.21,5.55,12.34,12.34,0,0,0-2.22,2.37,7.4,7.4,0,0,1-5.1,2.85,87.73,87.73,0,0,1-15.23,1.08c-1.57,0-3.15-.35-4.73-.47-7.15-.52-14.3-1-21.44-1.54-3.25-.26-6.47-.77-9.71-1.15-7-.81-13.94-1.58-20.9-2.41a85.78,85.78,0,0,1-17.32-4c-7.63-2.58-12.83-7.91-15.93-15.32-.35-.85-.66-1.72-.92-2.42.45-1.46.86-2.79,1.29-4.11a4.77,4.77,0,0,1,.6-1.37c1.94-2.61,3.73-5.45,7.13-6.37,1.82-.49,3.73-.68,6-1.08,1-3.49,3.69-6,7.21-7.61,0-.9,0-1.73,0-2.55a11.65,11.65,0,0,1,7.74-11.89,4.73,4.73,0,0,0,1.81-1.52,20.29,20.29,0,0,0,1.78-2.73A18.46,18.46,0,0,1,115,57.07a6.27,6.27,0,0,0,2-1.39,17.9,17.9,0,0,1,7.45-4,5.2,5.2,0,0,1,5.49,1.47c2,2,3.63,4.16,3.71,7.15a4.17,4.17,0,0,0,.2,1,4.55,4.55,0,0,0,.36.67,15.39,15.39,0,0,0,1.77-.2c2.28-.5,4.53-1.21,6.84-1.53,2.77-.38,5.59-.38,7.55,2.19a23.74,23.74,0,0,1,1.46,2.52,15.45,15.45,0,0,0,2.27-.57,14.6,14.6,0,0,1,5.66-.81c3.5,0,5.68,1.86,6.81,4.92.82,2.24,1.23,4.63,1.89,7.24,1-.12,2.11-.22,3.23-.39,4-.62,7.49.1,10.31,3.14a7,7,0,0,1,2.22,4.39A7.55,7.55,0,0,0,184.82,84.45Z"/><path class="cls-4" d="M176.82,85.06a13.54,13.54,0,0,0,1,1.1,7.46,7.46,0,0,1,2.35,4.55,2.5,2.5,0,0,1-1.36,3c-.46.21-.93.5-1.3-.19a.64.64,0,0,0-.53-.27c-1.2.19-2-.6-2.93-1.11a3.33,3.33,0,0,0-2-.52,5.15,5.15,0,0,1-5-1.67,2.15,2.15,0,0,0-2.17-.83,2.17,2.17,0,0,1-2.62-2c-.09-.49-.12-1-.19-1.57a11.26,11.26,0,0,0-2.17-.45A1.51,1.51,0,0,1,158.19,84a1.94,1.94,0,0,1,.38-2.34,10.11,10.11,0,0,1,2.3-1.38,8.08,8.08,0,0,1,1.84-.37,15.82,15.82,0,0,1,3.45-7,9.89,9.89,0,0,1,5-2.7,3.25,3.25,0,0,1,2.75.42,22.16,22.16,0,0,0,2.6,1.23,2.51,2.51,0,0,1,1.45,1.77c.22.93.51,1.85.73,2.79.6,2.56-.2,4.91-1.09,7.25A14.33,14.33,0,0,1,176.82,85.06Z"/><path class="cls-6" d="M134,95.64c-1.74-3.63-1-6.83,1.12-9.83,1.79-2.54,5.09-3.7,8.41-1.05a12.89,12.89,0,0,1,3.66,5,2.13,2.13,0,0,0,2.3,1.42c1.06,0,2.24-.16,2.94.78,1,1.4,2.43,2.66,2.59,4.56a3.44,3.44,0,0,1-2.36,3.52,3.47,3.47,0,0,0-2.57,2.38,3.17,3.17,0,0,1-3.55,2.21c-.92,0-1.83-.18-2.83-.28-1,1.12-1.66,2.81-3.61,2.46a5,5,0,0,1-3.52-2.9c-1,.16-1.85.38-2.75.45a3.11,3.11,0,0,1-3.28-4.08,10.91,10.91,0,0,1,1.73-2.82A20.74,20.74,0,0,1,134,95.64Z"/><path class="cls-4" d="M96.22,90.62c-2.51,3.61-4.24,4.3-6.55,1-1.46.43-2.88.91-4.33,1.25-1.25.29-1.87-.21-1.91-1.52A4.17,4.17,0,0,1,84.76,88l2.47-2.22c-3-1.92-3.08-4.8-2.48-7.59a6.93,6.93,0,0,1,7.48-5.35c.78.12,1.55.33,2.33.47a4.62,4.62,0,0,1,3.12,2.21,22.38,22.38,0,0,0,2.27,2.7c.69.75,1.38.7,2.25.08A8.2,8.2,0,0,1,105,77a2.24,2.24,0,0,1,2.57,1,2.41,2.41,0,0,1-.28,2.79c-.53.67-1.12,1.29-1.67,1.92.44,2.3.42,3.31-3.8,4.87C100.88,90.51,98.73,91.74,96.22,90.62Z"/><path class="cls-6" d="M141,65.37a29,29,0,0,1,3.2,1.72c1.57,1.11,1.62,2.19.31,3.61a3,3,0,0,1-.9.76,8.36,8.36,0,0,0-3.35,2.25c-1,1.14-2.5.74-3.75.43a2.49,2.49,0,0,0-2.75.76c-1.6,1.62-3.57,1.25-4.8-.71-.31-.5-.59-1-.9-1.59-1.15.06-2.26.17-3.37.18-2,0-2.9-1.23-2.52-3.24a7.16,7.16,0,0,1,3.62-4.93l1.35-.85c0-.5,0-1-.06-1.41-.25-4.48,3.28-7.57,7.49-7.75a2,2,0,0,1,1.59.85,3.54,3.54,0,0,0,1.48,1.46,4.77,4.77,0,0,1,2.21,3.36C140.25,62,140.67,63.74,141,65.37Z"/><path class="cls-7" d="M185.71,107.72c1-2.09,1.79-3.69,2.58-5.29a19.63,19.63,0,0,1,1.43-2.76c1-1.4,1.93-1.33,3,0,.37.48.74.94,1.14,1.4.1.12.29.15.74.37.84-1.86,1.71-3.71,2.5-5.61.51-1.24,1-2.38,2.77-2.68l1.81,4.61c1.54-2.21,2.9-4,4.13-6,.58-.9,1-1.88,2.57-1.36-.18,1.58-.35,3.21-.56,4.83q-1.26,9.78-2.54,19.55c-.3,2.34-.52,4.7-.92,7-1.07,6.3-2.24,12.57-3.33,18.86-.94,5.43-2,10.85-2.72,16.32-.92,7.21-1.56,14.46-2.25,21.7-.79,8.21-1.47,16.42-2.26,24.63-.27,2.78-.71,5.54-1.11,8.31a3.93,3.93,0,0,1-.55,1.72c-2.35,3.17-5,6.14-7.09,9.47a47.36,47.36,0,0,1-6.45,8c-2.22,2.26-4.52,4.43-6.81,6.62-1.26,1.2-2.29.88-2.69-.86a6,6,0,0,1,0-2.09c1-7.75,1.23-15.55,1.61-23.35.74-15.08,2.09-30.11,3.85-45.09.69-5.92,1.77-11.79,2.49-17.71.56-4.61.81-9.26,1.23-13.89.51-5.59,1.1-11.18,1.56-16.78.3-3.65.42-7.31.67-11a4.67,4.67,0,0,1,.5-1.94c.89-1.56,1.85-1.59,2.92-.19a14.55,14.55,0,0,1,.81,1.33Z"/><path class="cls-8" d="M91.83,109.74a40,40,0,0,0,5.59-5.45c1.55-2,3-4.16,4.54-6.35a13.19,13.19,0,0,1,4,4.17c1.61,3,3.25,6,5.06,9.32a22.72,22.72,0,0,0,2.07-2.08c2.26-3,4.48-6,6.7-9.05,1.25-1.7,1.91-1.62,2.91.37,1.65,3.26,3.34,6.51,5.08,9.9a5.49,5.49,0,0,0,2.93-2.95c.76-1.49,1.43-3,2.33-4.44a15,15,0,0,1,2.63-3c1.1-1,1.89-.65,2.47.72,1.57,3.67,3.19,7.32,4.81,11,1.28-.18,1.65-1.2,2.21-2,1.91-2.54,3.76-5.12,5.69-7.64a11.11,11.11,0,0,1,1.85-1.5l6.57,10.4c1.52-1.88,3-3.67,4.43-5.49,1.13-1.44,2.14-3,3.32-4.37.37-.44,1.32-.92,1.65-.73.51.28.77,1.09,1,1.72.33.84.44,1.78.85,2.57,1,2,2.19,3.93,3.45,6.15,2.74-1.38,5.26-3,6.34-6.17a4.9,4.9,0,0,1,.83-1.49c.57-.71,1.3-1.66,2.24-.91a2.9,2.9,0,0,1,.62,2.22c-.3,3.15-.78,6.27-1.12,9.42-.67,6.15-1.26,12.3-1.93,18.45-.3,2.8-.74,5.59-1,8.39-.5,4.65-.89,9.31-1.41,14-.39,3.48-.91,7-1.36,10.43-.08.58-.15,1.16-.19,1.74-.33,5.17-.52,10.34-1,15.5-1.11,11.9-2.34,23.78-3.55,35.66-.45,4.4-1,8.8-1.44,13.2-.21,2-1.14,3.83-.54,5.9.25.87-.48,1.37-1.33,1.46-1.49.16-3,.36-4.47.39-3.09.08-6.18.17-9.27.06-4.33-.15-8.66-.49-13-.73-3-.16-6-.42-9-.36-4.18.08-8.34.47-12.52.64-1.5.06-3-.15-4.5-.17-4.41,0-8.83,0-13.24-.08-1.92,0-3.84-.08-5.77-.11-2.65,0-5.3,0-7.95-.14a32.1,32.1,0,0,1-4.18-.6c-2-.37-4.09-.78-6.13-1.21a13.77,13.77,0,0,1-1.57-.52c-1-9.41-1.9-18.67-2.83-27.93-.63-6.32-1.21-12.64-1.88-19-.89-8.31-1.94-16.6-2.74-24.91-.46-4.82-.63-9.68-.82-14.52-.35-9.1-.3-18.21-1.2-27.3-.69-7-1.06-14-1.47-21a2.86,2.86,0,0,1,1-2.08c.78-.62,1.61,0,2.16.67,1.18,1.4,2.32,2.84,3.43,4.3,1,1.25,1.86,2.55,2.71,3.72.4,0,.63,0,.7-.05,2.5-2.79,5.25-5.38,6.8-8.92a7,7,0,0,1,2-2.5c.91-.74,1.65-.4,2.06.77,1.35,3.84,2.68,7.69,4,11.53C91.5,109.07,91.62,109.28,91.83,109.74Z"/><path class="cls-6" d="M172.94,113.76c.15,1.94.6,3.8.36,5.57-.75,5.53-1.86,11-2.67,16.54-1.29,8.81-2.47,17.63-3.66,26.46-1.53,11.39-2.88,22.8-4.58,34.17-1.17,7.84-2.94,15.59-4.19,23.42-.69,4.3-.9,8.68-1.21,13-.12,1.71-.34,2.39-1.47,2.67-1,.23-2.33-3-2.32-3.82a69.55,69.55,0,0,1,2.29-23.6c.72-2.82,1.21-5.7,1.74-8.56,1.19-6.37,2.48-12.72,3.46-19.11.95-6.16,1.55-12.36,2.32-18.54.86-6.83,1.66-13.66,2.64-20.47.6-4.16,1.48-8.27,2.28-12.4.86-4.45,1.77-8.89,2.65-13.33C170.78,114.76,171.06,113.84,172.94,113.76Z"/><path class="cls-6" d="M141.19,114.63c.67,1,1.18,1.51,1.28,2.05a13.14,13.14,0,0,1,.19,3.14c-.25,4.45-.52,8.89-.85,13.33-.22,3-.46,6-.87,8.93-.84,6.05-.58,12.12-.62,18.19-.05,7.53-.16,15.06-.41,22.59s-.66,15-1.09,22.56c-.52,9-1.12,18.09-1.74,27.13a4.84,4.84,0,0,1-.85,2.43c-.61.83-1.55.64-1.94-.32a4.64,4.64,0,0,1-.29-1.88c.16-5.34.36-10.68.55-16,.1-2.74.21-5.48.35-8.22.47-9.3,1-18.59,1.41-27.89.21-4.94.15-9.88.25-14.82.13-6.39.11-12.79.49-19.16.43-7.19,1.18-14.36,1.89-21.53.27-2.74.78-5.45,1.26-8.17A13.31,13.31,0,0,1,141.19,114.63Z"/><path class="cls-6" d="M157,115a4.85,4.85,0,0,1,1.66,4.5q-1.62,14.23-3.11,28.47-1.56,15.1-3,30.21c-.42,4.51-.58,9-1,13.54-.49,5.07-1.17,10.12-1.72,15.19-.15,1.37-.77,24.49-1.72,27.11-1.22,2.29-3.78.45-3-3.62,1.31-8.91.59-12.06,1-21,.21-5,.94-10,1.45-15,.42-4.11.88-8.21,1.31-12.31.54-5.07,1.12-10.14,1.59-15.21.54-5.88.89-11.79,1.5-17.66.67-6.44,1.46-12.87,2.34-19.28.62-4.49,1.47-8.94,2.22-13.41A15.22,15.22,0,0,1,157,115Z"/><path class="cls-6" d="M110.09,112.05a2.23,2.23,0,0,1,1.51,2.49c0,1.21-.11,2.43-.13,3.64-.19,11.49-.6,23-.49,34.48.11,11.9.81,23.8,1,35.7.13,6.64-.32,13.29-.21,19.92.13,7.85.59,15.7.9,23.55,0,1.1.39,2.33-1.4,3.08a9.42,9.42,0,0,1-1.44-1.9,7.38,7.38,0,0,1-.52-2.61c-.36-9.06-.83-18.13-.95-27.19-.1-7.12.44-14.25.35-21.38-.12-9.63-.75-19.26-.83-28.9-.07-8.09.35-16.19.53-24.29,0-2-.1-4.06.05-6.07.24-3.21.63-6.42,1-9.62C109.53,112.68,109.84,112.43,110.09,112.05Z"/><path class="cls-6" d="M90.94,113.45a25.57,25.57,0,0,1,.72,3.55q.48,7.63.8,15.26c.25,5.9.29,11.81.66,17.7.3,4.84,1,9.65,1.44,14.48.44,5.16.71,10.33,1.11,15.49.51,6.53,1.15,13.05,1.58,19.59.27,4.11.2,8.25.41,12.36.27,5.25.67,10.5,1,15.75.09,1.45.16,2.91.13,4.37a9.19,9.19,0,0,1-.48,2,2.14,2.14,0,0,1-2.34-2,33.39,33.39,0,0,1-.39-3.86c-.44-7.35-.85-14.71-1.28-22.07q-.71-12.12-1.44-24.24c-.3-5-.51-10-.93-15-.56-6.78-1.38-13.54-1.88-20.32-.33-4.43-.26-8.89-.46-13.33-.11-2.51-.52-5-.59-7.51-.11-3.63-.06-7.27,0-10.9C89,113.86,89.54,113.4,90.94,113.45Z"/><path class="cls-6" d="M125,235.68a4.21,4.21,0,0,1-1.74-3.18c-.13-2.09-.09-4.19,0-6.29.11-2.91.31-5.82.5-8.72.12-1.86.27-3.71.41-5.57.26-3.55.59-7.1.74-10.65.17-3.8.2-7.61.23-11.42q.1-12.51.12-25a38.23,38.23,0,0,0-.31-4.36c-.89-7.83-.64-15.69-.64-23.54,0-6.8.12-13.6.22-20.4a24.36,24.36,0,0,1,.38-2.83,2.27,2.27,0,0,1,2,2.41c.17,1.93.26,3.88.26,5.82,0,5.1-.11,10.2-.08,15.29q0,8.14.24,16.28c.07,2.58.47,5.16.51,7.75.07,5.5,0,11,0,16.5q-.12,14.56-.28,29.13c0,.56-.08,1.13-.11,1.69q-.31,7.4-.6,14.8c-.14,3.4-.27,6.8-.38,10.2A2.28,2.28,0,0,1,125,235.68Z"/><path class="cls-6" d="M74.78,112.42c.9-.72,1.72-.63,2.09.51a29,29,0,0,1,1.57,5.6c.66,5.54,1.14,11.11,1.6,16.67.73,8.79,1.16,17.62,2.15,26.38,1,9.27,1,18.56,1.46,27.84.65,11.87.62,23.78,2,35.61.28,2.32.56,4.65.81,7,.06.61,0,1.23,0,2a2.61,2.61,0,0,1-2.41-2.53c-.51-3.45-1-6.9-1.36-10.36-1.8-16.37-1.56-32.82-2.24-49.24-.2-4.93-.87-9.83-1.29-14.75-.92-10.81-1.76-21.63-2.75-32.43C76.07,120.65,75.36,116.66,74.78,112.42Z"/><path class="cls-8" d="M191.71,104.56c1.63.44,1.49,1.27,1.38,2.11-.6,4.8-1.16,9.62-1.79,14.42-.28,2.15-.79,4.27-1.06,6.42-1,8.13-2,16.25-2.88,24.39-1,9.81-1.77,19.64-2.7,29.45-.43,4.49-1.11,9-1.48,13.46-.31,3.74-.31,7.51-.48,11.27-.21,4.67-.46,9.35-.68,14,0,.76-.22,1.36-1.08,1.37s-1-.75-1-1.43.08-1.17.12-1.75c.24-3.92.54-7.83.69-11.76.18-4.68,0-9.38.37-14s1.31-9.27,1.76-13.92c.67-7,1.73-13.91,1.6-20.95a29.32,29.32,0,0,1,.36-4.24c1.16-9,2.29-18.08,3.54-27.1.58-4.22,1.47-8.4,2.13-12.61C191,110.72,191.3,107.74,191.71,104.56Z"/><path class="cls-8" d="M200.39,98.44c1.63.43,1.49,1.23,1.38,2-.6,4.66-1.15,9.32-1.78,14-.28,2.08-.79,4.14-1.05,6.22-1,7.87-2,15.74-2.86,23.63-1,9.5-1.76,19-2.68,28.53-.42,4.35-1.1,8.68-1.47,13-.3,3.63-.3,7.28-.47,10.92-.21,4.53-.46,9.06-.67,13.58,0,.73-.22,1.32-1.08,1.33s-1-.73-1-1.38.08-1.13.11-1.7c.24-3.8.54-7.59.68-11.39.17-4.54,0-9.09.37-13.61s1.3-9,1.75-13.49c.66-6.75,1.72-13.48,1.59-20.3a27.54,27.54,0,0,1,.36-4.11c1.15-8.75,2.28-17.51,3.52-26.26.58-4.09,1.46-8.13,2.12-12.21C199.67,104.4,200,101.52,200.39,98.44Z"/><path class="cls-6" d="M77.8,258.14c-1.74-3.63-1-6.83,1.12-9.83,1.79-2.54,5.09-3.7,8.41-1.05a12.89,12.89,0,0,1,3.66,5,2.13,2.13,0,0,0,2.3,1.42c1.06,0,2.24-.16,2.94.78,1,1.4,2.43,2.66,2.59,4.56a3.44,3.44,0,0,1-2.36,3.52A3.47,3.47,0,0,0,93.89,265a3.17,3.17,0,0,1-3.55,2.21c-.92,0-1.83-.18-2.83-.28-1,1.12-1.66,2.81-3.61,2.46a5,5,0,0,1-3.52-2.9c-1,.16-1.85.38-2.75.45a3.11,3.11,0,0,1-3.28-4.08A10.91,10.91,0,0,1,76.09,260,20.74,20.74,0,0,1,77.8,258.14Z"/><path class="cls-9" d="M168.88,255.56c-2.13-2.55-4.89-2.19-7.59-2.23-5.23-.08-10.45-.3-15.68-.42-1.07,0-2.14.2-3.21.23-1.47,0-3,.37-4.13-1-.14-3.31,2.35-4.66,4.6-6A154.1,154.1,0,0,0,158,235.56c4.05-3.18,8.36-6,12.66-8.88,5.68-3.75,11.48-7.3,17.19-11,4.26-2.76,8.44-5.65,12.68-8.44,1-.67,2.13-1.18,3.2-1.77s5.44-1.15,6,.86a30.68,30.68,0,0,1,1.16,7.59c0,3,.31,8.13-.8,11-.85,2.21-5,4.32-5.61,4.75-1.47,1-3.9-.67-4.48-2.38-.23-.67-.34-1.39-.63-2a3.15,3.15,0,0,0-2.65-1.93c-.77-.1-16.66,10-18.83,12.27a10.55,10.55,0,0,0-1.75,2.41c-.88,1.72-1.64,3.5-2.42,5.27s-1.55,3.51-2.22,5.3-1.22,3.64-1.84,5.45A14.66,14.66,0,0,1,168.88,255.56Z"/><path class="cls-10" d="M244.34,278.31c-.59.39-1.62,1-2.6,1.73-2.19,1.6-4.79,2.2-7.29,3-.81.27-1.45-.36-1.43-1.37,0-.63.3-1.26.33-1.9.27-5.05.82-10.09.52-15.18a74,74,0,0,1,.51-9.82c0-.37.53-.81.92-1a82.7,82.7,0,0,0,12.3-8.2c2-1.55,3.9-3.16,5.7-4.9a83.61,83.61,0,0,1,10.2-7.81q5.8-4.07,11.56-8.19c1-.7,1.82-1.57,2.8-2.25,2.34-1.63,4.14-1.23,5,1.4a31.58,31.58,0,0,1,1.52,7.09,41.39,41.39,0,0,1-.57,12,4.26,4.26,0,0,1-1.89,3,18,18,0,0,1-2.57,1.55c-1.4.62-2,.18-2.92-1.11a11.32,11.32,0,0,1-2.06-5.31,3.56,3.56,0,0,0-.76-1.5,1.17,1.17,0,0,0-1.84-.34c-1.67,1.22-3.27,2.54-5,3.58a21.53,21.53,0,0,0-4.92,4.1,5.75,5.75,0,0,0-1,1.58,36.46,36.46,0,0,1-4.1,7.22,19.58,19.58,0,0,0-1.36,2.67c-1.21,2.35-2.37,4.73-3.65,7-.82,1.49-1.9,2.83-2.73,4.31C247.44,272.4,246,275.18,244.34,278.31Z"/><path class="cls-6" d="M150.76,248.75c3.86-.18,7.71-.44,11.57-.52,2.86-.06,5.73.08,8.59.18,5.14.19,10.29.29,15.41.67,4.81.36,9.58-.34,14.37-.3,3.07,0,6.15.05,9.21.23,4,.22,8,.58,12,.9l12.41,1,3.86.32c1.89.15,2.26.67,1.72,2.43a5.6,5.6,0,0,0-.29,1.24c-.21,3.24-1.36,6.27-2.08,9.4s-1.26,6.43-1.87,9.64a5.62,5.62,0,0,1-.21,1.26,18.59,18.59,0,0,0-1.56,6.64,3.36,3.36,0,0,1-2.49,3.14,6.74,6.74,0,0,1-1.85.52,158,158,0,0,1-16.29.4c-4.25-.12-8.35-1.2-12.57-1.35-3-.1-4.39-1.45-5.29-4.37-1.1-3.55-2.21-7.1-3.41-10.62-1-3.05-1.38-3.23-4.65-3.34-.71,0-1.43,0-2.15.07-2.39.06-3.86,1.35-5.1,3.34-2.11,3.39-4,7-6.7,10a15.49,15.49,0,0,1-1.15,1.28c-1.8,1.56-3.48,2.8-6.29,2.18-5.16-1.13-10.44-1.66-15.66-2.54a51.51,51.51,0,0,1-5.61-1.4,2.63,2.63,0,0,1-1.8-2.2c-.82-3.84-1.79-7.66-2.47-11.53-.75-4.29-1.24-8.63-1.85-13,0-.21,0-.43-.06-.64-.46-2.38-.36-2.77,2-3.15a44.73,44.73,0,0,1,6.18-.22c1.36,0,2.72,0,4.08,0Z"/><path class="cls-11" d="M174.77,267.59c-1,1.79-1.95,3.65-3,5.46a4.44,4.44,0,0,1-3.26,2.2c-1.69.31-3.35.75-5,1.06a13.64,13.64,0,0,1-5.75-.08c-3-.72-6-1.14-9-1.8a4.73,4.73,0,0,1-3.84-3.87,35.08,35.08,0,0,1-.69-5.3,68.86,68.86,0,0,1,0-7.09c.11-2,1.23-3,3.26-2.84,5.35.36,10.7.75,16,1.23,4.48.4,9,.9,13.43,1.43C177.66,258.06,176.33,264.88,174.77,267.59Z"/><path class="cls-8" d="M213.75,279.57a65.49,65.49,0,0,1-6.94-1.15,10.18,10.18,0,0,1-7.58-7.17c-1-3.53-1.79-7.12-2.62-10.69-.39-1.68.39-2.69,2.29-2.74,2.15-.06,4.27-.55,6.46.07,3.08.87,6.25.09,9.38.12,3.53,0,7.06.07,10.59.21,2.09.08,2.39.54,3.11,2.36,1,2.46.17,4.83-.28,7.2-.48,2.53-1.12,5-1.83,7.54a4,4,0,0,1-3.28,3.13C220,278.92,216.86,279.21,213.75,279.57Z"/></g></g></svg>