<svg xmlns="http://www.w3.org/2000/svg" viewBox="0 0 360 360"><defs><style>.cls-1{isolation:isolate;}.cls-2,.cls-3{fill:#b5d0e1;}.cls-3,.cls-5{mix-blend-mode:multiply;}.cls-4,.cls-5{fill:#fdd3ae;}.cls-6{fill:#003b71;}.cls-7{fill:#a67d42;}.cls-10,.cls-8{fill:#fff;}.cls-9{fill:#dfe3eb;}.cls-10{opacity:0.5;}</style></defs><title>consultant_webpage_femaleevent_icon_3C_191016</title><g class="cls-1"><g id="Background"><circle id="_27.62.111" data-name="27.62.111" class="cls-2" cx="180" cy="180" r="180"/></g><g id="Artwork"><path class="cls-3" d="M220.62,319.19c5.57,2.09,17.55-10.26,12.79-14.58s-15.52-7.82-23.32-7.82-19.08,2.63-33.44,0-31.49.08-45.16,3.1-17.81-3-19.55,5.51,3.19,16.6,10.92,18.13,9.95,4,16.18,3.22c4.82-.59,22.08.95,28.43,0s22.23-4.93,27.66-5.51S206.83,314,220.62,319.19Z"/><path class="cls-4" d="M163.9,298.79a5.47,5.47,0,0,1-2.47-3.9c-.2-1.25-1.22-2.31-1.61-3.48a44.14,44.14,0,0,0-3.34-8.53c-2.75-4.73-5.55-9.43-8.27-14.17a31.75,31.75,0,0,1-1.62-3.51,10,10,0,0,1-.33-7.09c1.05-3.38,2-6.8,3-10.19a46,46,0,0,0,2.48-13.74,30.18,30.18,0,0,1,.42-3.58,11.56,11.56,0,0,1,1.95.53,8.82,8.82,0,0,1,2.48,1.48c2.41,2.43,5.42,2.55,8.52,2.49a8.55,8.55,0,0,0,6.42-2.9c1-1.06,1.79-2.29,3.25-2.73a1.94,1.94,0,0,1,1,2.49c-.81,2.92-.25,5.74.22,8.61.42,2.54.56,5.13,1,7.66s.45,5.12,2.27,7.27c.83,1,.72,2.26-.08,3.57-1.83,3-1.25,6.17-2.7,9.36s-2,8.14-3.24,11.45c-1.32,3.62-5.33,5.63-6.8,9.19a21.68,21.68,0,0,0-2,7.92A8.44,8.44,0,0,1,163.9,298.79Z"/><path class="cls-5" d="M164.44,242.71c2.61-.3,9.95-2,11-3.29a1.83,1.83,0,0,0,.25-.42,22.43,22.43,0,0,1-.36-4.39l-1.59-2.27-3,.58a8.5,8.5,0,0,1-5.67,2.17c-2.72.06-5.36,0-7.59-1.68-1.54.06-4.08.19-5.76.42,0,.11,0,.23,0,.34a46,46,0,0,1-2.48,13.74c-.22.71-.42,1.42-.63,2.13.93-.63,2.19-2.18,3.73-2.92C155.1,245.83,161.83,243,164.44,242.71Z"/><path class="cls-4" d="M123,194.44c-.65-4.63-1.48-9.25-1.91-13.91-.46-5-.67-10-.73-15a43.54,43.54,0,0,1,.81-8.17,23.36,23.36,0,0,1,4.3-9.14,106.26,106.26,0,0,1,12.42-14.18c3-3,6.7-5,10.09-7.45a10.93,10.93,0,0,1,2.15-1.11c4-1.7,8-3.4,12-5,1.63-.67,3.35-1.14,5-1.79s3-1.29,4.39-2c.72-.35,1.34-.92,2.07-1.25,3.19-1.45,7.09-7,10.49-5.21a53.11,53.11,0,0,1,12.15,9.26c3,3.16,5.7,5.61,8.74,8.71,4.42,4.51,6.06,12.82,8.36,18.86,3.82,4.84,3.53,10.49,3.39,16.19a107.61,107.61,0,0,1-1.15,12.51,15.66,15.66,0,0,1-1.7,5.5c-.86,1.55-1.78,3.08-2.6,4.65-1.57,3-3.58,5.76-4.3,9.15a4.26,4.26,0,0,1-.49,1.36c-2.58,4.12-3.82,8.86-6.18,13.08-.16.28-.24.61-.41.88-4,6.59-8.21,13.11-14,18.41a63.11,63.11,0,0,1-12.75,8.73c-3.75,2-12.49,2.16-16.6.83-4.36-1.41-8.42-3.31-11.64-6.66-1.09-1.14-8-7.8-8.48-8.6-2.46-4.17-4.86-8.38-7.55-12.39a34.25,34.25,0,0,1-5.27-13.41l-.5-2.86Z"/><path class="cls-5" d="M185.87,111.27s.88,6.61-4.08,8.57-16.34,4.07-20.29,5.88-15.86,7.53-19.77,11.45-14,14.46-16.43,17.12-3.36,8.91-5.46,9.33-2.38-10-2.15-10.77,16.22-24.11,16.22-24.11,12.77-10.25,23.7-13.26,23.9-7.91,25.78-8.33S185.87,111.27,185.87,111.27Z"/><path class="cls-6" d="M165.18,221.13c-2.4-.44-3.92-.77-5.46-1-1.37-.2-2.75-.28-4.44-.44,1.76-1.87,3.49-1.21,5.14-1S163.69,218.65,165.18,221.13Z"/><path class="cls-4" d="M153,204.93s2.49-2.59,5.37-2.3,3.27,2.25,4.39,2.48,4.29-.43,5.26-.35a3.82,3.82,0,0,1,2.63,1c.6.71,1.51,2.67,2.41,2.67s-3.61,3.15-5.27,4.35-2.7,1.8-4.7,1.42-4.87-.61-5.7-2.45-2-4.28-3.62-4.87A1.27,1.27,0,0,1,153,204.93Z"/><path class="cls-6" d="M160.45,192.55a2.11,2.11,0,0,1-2.1-1.65,9.12,9.12,0,0,1-.49-3.26c0-.48.68-1.09,1.19-1.37a27.7,27.7,0,0,1,3-1.26c2-5.07,2.27-10.19,2.32-15.33a45.11,45.11,0,0,1,1.88-12.7,12.14,12.14,0,0,1,.56,2.63c-.69,7.52-1.54,15-2.1,22.57-.17,2.25-.91,3.57-3,4.37a19.9,19.9,0,0,0-3.3,2.06l2,4.05Z"/><path class="cls-6" d="M160.38,192.66l3.54.53c-2,1.1-2,1.12-3.47-.64Z"/><path class="cls-6" d="M147.38,201.63a2.6,2.6,0,0,1,2,.85c.9.69,1.8,1.39,2.72,2.06a5.1,5.1,0,0,0,.9.38c.54-.21,1.23-.47,1.91-.76,1.16-.5,2.29-1.06,3.46-1.53a2.72,2.72,0,0,1,2.88.29,5.51,5.51,0,0,0,5.35.92,5.12,5.12,0,0,1,1.86-.14c1.61.18,2.25,1.43,1.67,3.38l-1.05-1.14L168,204.76c-3,1.1-5.76.84-8.15-1.32a7,7,0,0,0-4.28,2.21c.13.23.16.39.26.44a22,22,0,0,0,8.19,2.41,11,11,0,0,1,2.24.2c.25.05.43.5.65.79-4.28,1.49-8-.39-11.75-1.69a19.74,19.74,0,0,1-3-1.48,11.94,11.94,0,0,1-4.67-4.76Z"/><path class="cls-6" d="M156.58,209.92c3.77,3.57,3.73,5,10.27,4,.43.66-.23.85-.56,1a5.91,5.91,0,0,1-5.77,0,11.15,11.15,0,0,1-4.31-3.56C155.92,211,155.9,210.45,156.58,209.92Z"/><path class="cls-6" d="M147.48,201.55l-2.07-.5,1.78-1.07.19,1.66Z"/><path class="cls-6" d="M176,207.48c-.1-.16-.44-.51-.37-.63a1.12,1.12,0,0,1,.78-.57,1.06,1.06,0,0,1,.74.57C177.38,207.28,176.9,207.59,176,207.48Z"/><path class="cls-7" d="M141,146.86l2.49-1.17,2.64-1.28c1.2.49,1.92,2.18,3.92,1.72a2.92,2.92,0,0,1,3.57,2.36c.28,1,1.35-.74,1.76.44a12.8,12.8,0,0,0,1.14,2.1c.37.64.76,1.27,1.12,1.86-1.44,1.25-2.64-.22-4,.26l-3.34-3.76a11,11,0,0,0-3.13.39c-2.2.94-4.45-.28-6.63.37-.34.1-.9-.28-1.25-.57a4.9,4.9,0,0,1-2-3.22C138.8,144.48,139.78,146.42,141,146.86Z"/><path class="cls-7" d="M189.71,148c1.73,1.38,2,1.46,6.22,2.06a10.47,10.47,0,0,1-4.36,2.18,2.51,2.51,0,0,1-1.83-.11c-1.37-.92-2.75-.63-4.16-.36a34.17,34.17,0,0,0-4.19.92c-1.17.38-2.56-.8-3.57.56a1.09,1.09,0,0,1-.73-.32c-.14-.23-.21-.75-.08-.87a10.11,10.11,0,0,1,2.62-2,11.44,11.44,0,0,1,4.64-1.09C186.28,149.09,188,148.29,189.71,148Z"/><path class="cls-7" d="M195.53,153.71c1.26-.34,1.26-.34,2.83,1.19C197,154.81,197,154.81,195.53,153.71Z"/><path class="cls-7" d="M136.35,150.23a6.31,6.31,0,0,1-1.77.1,1.65,1.65,0,0,1-.95-.91c-.17-.4.86-.84,1.53-.6a13.34,13.34,0,0,1,1.28.61Z"/><path class="cls-7" d="M131.52,151.48l-1.16.85a5.17,5.17,0,0,1-.67-1c0-.09.43-.55.62-.52A4.64,4.64,0,0,1,131.52,151.48Z"/><path class="cls-8" d="M178.26,242.08c4-.42,6.88,2,9.74,4.31a24,24,0,0,1,6.82,9.85,21.76,21.76,0,0,1,1.28,6.61,37.66,37.66,0,0,1-3.65,19.75,21.61,21.61,0,0,1-6.71,8.1q-9.78,7.1-19.37,14.46a18.29,18.29,0,0,0-4.26,3.88A6.48,6.48,0,0,1,157,312.2c-.32-1.16-1.17-2.73-1.5-3.94A144,144,0,0,1,134.87,291a28.25,28.25,0,0,1-6.74-10.54,43.79,43.79,0,0,1-2.9-16.11,11.21,11.21,0,0,1,2.75-7.55c1.59-1.81,2.79-4,4.33-5.82,3.77-4.53,8.54-7.82,13.57-10.79a7.2,7.2,0,0,1,1.32-.59,2.66,2.66,0,0,1,3.62,2.61A13.2,13.2,0,0,1,150,246c-2.21,5.54-1.74,11,.07,16.55a136.45,136.45,0,0,0,5.79,15.39,54.44,54.44,0,0,1,3.86,11.43c.34,1.54,1,3,1.58,4.85a13.1,13.1,0,0,0,1.55-1.5,91.92,91.92,0,0,0,8.78-15,31.49,31.49,0,0,0,2.6-9.79,99.14,99.14,0,0,0,.39-15.48,14.47,14.47,0,0,1,2.71-9.58A5.3,5.3,0,0,1,178.26,242.08Z"/><path class="cls-8" d="M182.57,110.6c-1.31.18-2.4,2.25-3.38,2.7-4.23,2-8.78,3.13-12.82,5.54-3.73,2.23-7.57,4.28-11.34,6.45-7.91,4.55-14.88,7.94-20.83,14.82-1.89,2.19-3.75,4.71-6.18,6.4a9.14,9.14,0,0,0-1.58,2.4c-2.08,4.19-4.8,9.33-6,13.87a58.43,58.43,0,0,0-.17,6.94c-1.57-4.72-3.77-9.28-4.16-14.34-.3-3.88-2.95-7.22-1.86-11,1-3.41.71-5.61,1.64-9a12.57,12.57,0,0,1,4.67-7.34,2.85,2.85,0,0,1,0-1.43c1.07-9.68,3-19.16,7.35-27.94a41,41,0,0,1,7.94-11.5c3.12-3,6-6.34,9.82-8.52a6.4,6.4,0,0,0,1.63-1.75,51.14,51.14,0,0,1,10.18-9.59c3.37-2.49,6.6-5.16,10-7.67A38.13,38.13,0,0,1,178.12,54c3.51-1.18,6.92-2.67,10.32-4.14a61.44,61.44,0,0,1,13.93-4,14.75,14.75,0,0,1,7.64.49,29.31,29.31,0,0,0,3.23,1,13.73,13.73,0,0,1,9.26,6.7c.29,2.52-1.56,4.3-2.83,6.64A13.14,13.14,0,0,0,220.74,63a18.78,18.78,0,0,0,2.79,3.34c3.18,2.83,5.42,6.35,7.72,9.86,1.58,2.43,3.42,4.69,5,7.13a14.36,14.36,0,0,1,2.6,8.18c-.09,3.26,0,6.64-3.58,8.07a10.46,10.46,0,0,0,.91,5.57c3.15,7.41,3.82,15.28,4.3,23.18a5.41,5.41,0,0,1-.64,3.25,10.18,10.18,0,0,0-1.49,5c-.4,3.09-1.23,6-3.7,8.19-1.16,1,0,2.41,0,3.94.11,2.9-.61,5.36-.28,8.23.49,4.19-1.47,8.49-3.18,12.17-1.08,2.32-2.59,4.44-3.9,6.65-.74,1.25-1.37,2.56-2.19,3.75-1.91,2.78-3.53,5.77-5.94,8.22a22.27,22.27,0,0,0-2.31,3c-.61.07-.06-3-3.35,1.43l-2.38-3.07a2.88,2.88,0,0,1,0-.89,208.08,208.08,0,0,0,5.07-25.59,9.18,9.18,0,0,0,.05-1.45c-.11-8.72,0-8-4.53-13.73-2.69-3.42.29-6.51-2.42-9.9-2.32-2.89-3.92-6.53-6.43-9.24s-8.22-6.94-10.14-10.11C191,115.34,185.66,112.56,182.57,110.6Z"/><path class="cls-4" d="M207.1,189.59s3.2,6.61,6.31,4a8.78,8.78,0,0,0,3.37-5.82c.3-1-2.16-12-2.63-13s-2.19.43-2.19.43Z"/><path class="cls-4" d="M121.05,163.52s-3.27,7-3.35,9.78,3.94,3.5,4.66,2.37c.41-.65-.07-4.51-.56-7.7C121.43,165.55,121.05,163.52,121.05,163.52Z"/><path class="cls-9" d="M181.8,107.12s-6-9.42-2.74-26.91,2.39-18.84,8.41-26.67c0,0,1.78.15,1.08,1.05s-5.67,17.41-6,25.73-1.06,23.58,1.5,28.61Z"/><path class="cls-10" d="M200.46,182.58c-.7,0-3.07.51-3.27,1.74s-1.13,9.06-2.37,11.28-13.68,15.79-15.3,18.74-2.92,5.71-1.27,5.44,9.14-10.28,10.72-11.3,5.69-2,8.66-6.84,2.08-5.89,2.83-9.48.54-6,1.75-7.83S201.73,182.58,200.46,182.58Z"/><path class="cls-10" d="M170.67,129.89c-.8,1.41-4,4.74-.47,5.48s11.39,1.57,14.17,2.06a8.09,8.09,0,0,1,6.16,5.51,27.69,27.69,0,0,0,3.51,7.42c1.49,2.28,3.67,3.1,5,2s5.29-3.85,1.41-7.92-11.87-10.1-13.7-11.51-5-1.21-7.71-2a39.47,39.47,0,0,0-7.28-1Z"/><path class="cls-10" d="M202.13,155.95c-2.12,1.67-4,2.07-3.08,3.48s2.19,3,3.08,2.09,2.5-3,2.1-4.54S202.13,155.95,202.13,155.95Z"/><path class="cls-6" d="M153.83,165.68l-.92-.51c-.28-.17-.65-.33-1-.55s-.84-.42-1.34-.63-1-.45-1.57-.66-1.15-.39-1.75-.6-1.23-.35-1.88-.42c-.32-.05-.64-.12-1-.16l-1-.07-.49,0-.49,0c-.33,0-.65,0-1,0l-1.91.22c-.62.14-1.22.29-1.81.4s-1.11.35-1.64.49a11.38,11.38,0,0,0-1.42.45c-.41.17-.79.29-1.11.4-.63.21-1,.31-1,.31s.22-.32.66-.83c.22-.25.49-.57.83-.91a7.09,7.09,0,0,1,1.21-1,13.34,13.34,0,0,1,1.59-1.07c.62-.3,1.27-.62,2-.9a20.61,20.61,0,0,1,2.3-.56c.4,0,.81-.08,1.22-.1l.62,0,.62,0,1.24.12c.41.06.8.18,1.2.27a12.15,12.15,0,0,1,2.22.8,13.66,13.66,0,0,1,1.87,1.12l.79.6.68.63a11.9,11.9,0,0,1,1.07,1.2,10.06,10.06,0,0,1,.7,1A5.4,5.4,0,0,1,153.83,165.68Z"/><path class="cls-6" d="M195.9,165.68l-.92-.51c-.28-.17-.65-.33-1-.55s-.84-.42-1.34-.63-1-.45-1.57-.66-1.15-.39-1.75-.6-1.23-.35-1.88-.42c-.32-.05-.64-.12-1-.16l-1-.07-.49,0-.49,0c-.33,0-.65,0-1,0l-1.91.22c-.62.14-1.22.29-1.81.4s-1.11.35-1.64.49a11.38,11.38,0,0,0-1.42.45c-.41.17-.79.29-1.11.4-.63.21-1,.31-1,.31s.22-.32.66-.83c.22-.25.49-.57.83-.91a7.09,7.09,0,0,1,1.21-1,13.34,13.34,0,0,1,1.59-1.07c.62-.3,1.27-.62,2-.9a20.61,20.61,0,0,1,2.3-.56c.4,0,.81-.08,1.22-.1l.62,0,.62,0,1.24.12c.41.06.8.18,1.2.27a12.15,12.15,0,0,1,2.22.8,13.66,13.66,0,0,1,1.87,1.12l.79.6.68.63a11.9,11.9,0,0,1,1.07,1.2,10.06,10.06,0,0,1,.7,1A5.4,5.4,0,0,1,195.9,165.68Z"/><path class="cls-9" d="M221.26,62.4c2.08,2.27,4,4.28,5.84,6.41,2.35,2.76,4.65,5.57,6.85,8.44,3.9,5.08,5.23,10.93,4.81,17.23-.24,3.61-.26,7.26-1.8,10.58,1.32,2.67,2.52,5.19,3.81,7.67A19.25,19.25,0,0,1,243,124.68c-.33,2.28-.65,4.56-1,6.83a5,5,0,0,1-.75,2.33c-2.37,2.82-3.16,6.48-5.2,9.35.37,2.88.81,5.64,1.07,8.41a27.47,27.47,0,0,1-1.79,13.05,60.13,60.13,0,0,1-11,18,10.54,10.54,0,0,0-1.51,1.94c-1.47,2.68-3.75,4.52-6.24,6.33a23.68,23.68,0,0,1-1.64-3.17,12.42,12.42,0,0,1-.58-3.34c-.12-2.29,0-4.6-.18-6.88-.44-4.43-1.21-8.83-1.58-13.26a95,95,0,0,0-3.92-20.36c-2-6.51-4.9-12.61-9.88-17.46a73.9,73.9,0,0,0-6.29-5.56,46.81,46.81,0,0,1-7.61-7,16.09,16.09,0,0,0-2.1-1.84c-.51.17-.9.19-1.11.39-4.93,5-11.33,7.15-17.74,9.28-4.88,1.61-9.57,3.52-13.67,6.73-1.94,1.51-4.1,2.75-6.19,4.07-5.06,3.22-9.2,7.48-13.21,11.86a42.7,42.7,0,0,0-8.33,14.47c-.51,1.39-.93,2.82-1.44,4.21s-1.9,5.74-2.32,4.94c-1.69-3.19-3.59-6.3-4.27-9.94-.72-3.89-1.76-7.72-1.68-11.72a32.27,32.27,0,0,1,1.73-10.69,13.35,13.35,0,0,0,.61-1.88,30.24,30.24,0,0,1,5.54-12c-.63-7.36,1.41-14.14,3.85-20.81a21.93,21.93,0,0,1,2.76-5.23c3.87-5.36,8-10.49,13.55-14.28.27-.19.55-.36.82-.56,1.06-.79,2.05-1.68,3.17-2.36s.6-2,1.33-3a53.77,53.77,0,0,1,21.22-17.32c7.22-3.21,14.41-6.49,21.63-9.7a38.49,38.49,0,0,1,23.23-2.39A20.45,20.45,0,0,1,220,49.24c3.25,2.2,3.88,4.21,2.7,8C222.23,58.83,221.82,60.42,221.26,62.4Zm-2,122.89c1.52-1.78,2.66-3,3.61-4.27,6-8.23,11-16.83,11-27.49,0-2.46.39-4.87-.2-7.36s-.68-5.21,1.67-7.23a3.22,3.22,0,0,0,.6-1.34A44.78,44.78,0,0,0,239,119.73a18.22,18.22,0,0,0-1.77-7.15c-.94-1.91-1.62-3.95-3.12-5.56a3.11,3.11,0,0,1-.84-1.69c-.19-2.24-1.59-3.95-2.44-5.89-.59-1.35-1.34-2.64-2-4-.41-.84-.35-1.55.83-1.94.72,1,1.41,2.17,2.23,3.19a7.57,7.57,0,0,0,1.6,1.13c.19-1.64.41-2.94.49-4.25a31.27,31.27,0,0,0-1.18-10.73,21.44,21.44,0,0,0-4.86-8c-3.36-3.85-6.86-7.57-10.31-11.34-.89-1-1.82-1.91-2.68-2.91s-1-2.33-.45-2.66c.85-.52,1.57,0,2.24.45,1,.73,2.06,1.49,3.09,2.24a8.09,8.09,0,0,0,1.39-5.43c0-2.35-1-3.55-3.37-4.26-4.14-1.26-8.41-1.38-12.7-1.57a28.58,28.58,0,0,0-13.38,2.92c-5.24,2.4-10.37,5.14-15.8,7a101.79,101.79,0,0,0-17.41,8,26.88,26.88,0,0,0-7.9,6.56c-.14.17,0,.58.05,1.08,3.75-.85,7-2.82,10.6-4s6.69-3.55,11-3.53a10.36,10.36,0,0,1-1.11,2.81A6.45,6.45,0,0,1,168.81,72a93,93,0,0,1-10.54,4.22c-6.7,1.92-12.11,5.84-17.21,10.29-6.48,5.65-10.66,12.91-13.89,20.75a83.89,83.89,0,0,0-2.65,8c-.15.5.22,1.17.4,2a76.1,76.1,0,0,1,6.72-5.45q8.73-5.59,17.71-10.79c4.56-2.65,9.25-5.05,13.91-7.53a23.34,23.34,0,0,1,3.59-1.61c.5-.17,1.17.17,1.76.28-.13.59,0,1.43-.41,1.74q-3.93,3.36-8,6.53a12,12,0,0,1-3,1.65,93,93,0,0,0-14.46,7.47c-3.66,2.21-7.34,4.4-10.93,6.73-5.92,3.85-11,8.43-12.88,15.63a27.18,27.18,0,0,1-1.45,4.21c-1.47,3.27-1.42,6.74-1.5,10.19,0,1.14.38,2.3.33,3.44-.18,3.7.86,7.17,1.77,10.67.1.38.55.66,1.08,1.25a19.65,19.65,0,0,0,2.17-5.13,44,44,0,0,1,7.27-13.95A79.92,79.92,0,0,1,142.23,129a60,60,0,0,1,14.46-8.45c4.45-1.74,8.93-3.37,13.28-5.36a28.88,28.88,0,0,0,7.09-4.4c1.72-1.5,3.63-2.79,5.68-4.33,2,4.87,5.93,7.59,9.72,10.42,1.32,1,2.66,2,3.93,3a49.75,49.75,0,0,1,10.75,11.5c4.29,6.77,6.68,14.3,8.49,22,.86,3.66.94,7.5,1.3,11.27.6,6.23,1.12,12.46,1.7,18.69A13.4,13.4,0,0,0,219.25,185.29Z"/><path class="cls-9" d="M197.31,262.74a23.07,23.07,0,0,0-1.33-6.93,25.12,25.12,0,0,0-7.06-10.33c-3-2.42-6-5-10.07-4.52a5.5,5.5,0,0,0-.92.76,15.31,15.31,0,0,0-2.8,10,105.27,105.27,0,0,1-.41,16.22A33.35,33.35,0,0,1,172,278.25,96.63,96.63,0,0,1,163,294a13.64,13.64,0,0,1-1.61,1.57c-.63-1.92-1.28-3.47-1.63-5.09a57.57,57.57,0,0,0-4-12,144.17,144.17,0,0,1-6-16.13c-1.87-5.76-2.36-11.53-.07-17.34a14,14,0,0,0,.82-3.94,2.76,2.76,0,0,0-3.74-2.74,7.4,7.4,0,0,0-1.37.62c-5.19,3.11-10.13,6.56-14,11.31-1.6,1.95-2.83,4.2-4.48,6.09a11.84,11.84,0,0,0-2.85,7.91,46.43,46.43,0,0,0,3,16.88,29.65,29.65,0,0,0,7,11,149.4,149.4,0,0,0,21.33,18.11l1,3.57c2.5-.19,4.59-.88,5.87-2.74a19,19,0,0,1,4.4-4.06q9.94-7.68,20-15.15a22.58,22.58,0,0,0,6.94-8.49A39.92,39.92,0,0,0,197.31,262.74Zm-9,21.82c-1.55,3.17-5.45,6.73-8.34,8.86-6.36,4.69-8.69,6.52-14.94,11.36a16.56,16.56,0,0,0-3.8,3.85c-1.21,1.76-1.18,2.86-3.54,3-.31-1.14-1.54-2.59-1.87-3.79-7.21-6.15-12.5-10.86-18.81-17.11a28.75,28.75,0,0,1-6.81-10.48c-1.87-5.13-3.31-8.49-3.2-14,.06-2.79-.39-5.55,1.5-7.73,1.56-1.79,2.72-3.92,4.23-5.75,3.68-4.48,8.34-7.74,13.24-10.67a7,7,0,0,1,1.29-.59c1.8-.63,1.37,1.77,1.22,3.66-.1,1.26-2.21,5.19-2.67,6.36-2.16,5.49-.43,9.91,1.33,15.35a156.26,156.26,0,0,0,5.94,16.36c1.67,3.62,3.48,6.7,4.34,10.61.33,1.53,3.21,2.11,3.8,3.92.66-.64,3.53-3.17,3.87-3.65a89,89,0,0,0,8.14-14.87c1.39-3.07,4.44-8.33,4.8-11.7.55-5.1,1-7.33.73-12.44-.16-3.48-1-5.83,1-8.65.18-.25,1.68-.56,2.07-.88,2.39.5,1.68,1.71,4.47,4,3.13,2.56,3.71,4.82,5.2,8.52a36.15,36.15,0,0,1,2.2,8.32C194.2,273.25,191.31,278.4,188.3,284.56Z"/><path class="cls-9" d="M160.72,295.78S162.64,307,157,312.2c0,0,2,1.16,3.23-.53s4-10.34,1.95-15.65Z"/><path class="cls-9" d="M198.31,65.08a4.53,4.53,0,0,1,.75,3.68c0,.11-.35.23-.51.21a.67.67,0,0,1-.46-.33A4.64,4.64,0,0,1,198.31,65.08Z"/><path class="cls-9" d="M203.33,82.13a4.17,4.17,0,0,1-1-4A1.18,1.18,0,0,1,204,79C204.28,80,204.79,81.07,203.33,82.13Z"/><path class="cls-9" d="M214.76,89.66a9.63,9.63,0,0,1,3.78-3.45C218.57,89,217.77,89.75,214.76,89.66Z"/><path class="cls-9" d="M210.17,105.68a5.74,5.74,0,0,1,4.43.3,2.31,2.31,0,0,1-2.88,1.39C211,107.23,210.1,107,210.17,105.68Z"/><path class="cls-9" d="M196.52,101.64a3.31,3.31,0,0,1,1,3.5c-.05.16-.61.36-.71.28a3.08,3.08,0,0,1-1.23-2.88C195.65,102.2,196.19,101.94,196.52,101.64Z"/><path class="cls-9" d="M218.81,115.59a4.53,4.53,0,0,1,.75,3.68c0,.11-.35.23-.51.21a.67.67,0,0,1-.46-.33A4.64,4.64,0,0,1,218.81,115.59Z"/><path class="cls-9" d="M223.83,143.35a4.17,4.17,0,0,1-1-4,1.18,1.18,0,0,1,1.74.88C224.78,141.18,225.29,142.29,223.83,143.35Z"/><path class="cls-9" d="M228.78,123.9a9.63,9.63,0,0,1,3.78-3.45C232.58,123.24,231.78,124,228.78,123.9Z"/><path class="cls-9" d="M208,126.43a5.74,5.74,0,0,1,4.43.3,2.31,2.31,0,0,1-2.88,1.39C208.75,128,207.88,127.77,208,126.43Z"/><path class="cls-9" d="M223.61,158.94a3.31,3.31,0,0,1,1,3.5c-.05.16-.61.36-.71.28a3.08,3.08,0,0,1-1.23-2.88C222.75,159.5,223.29,159.25,223.61,158.94Z"/><path class="cls-9" d="M153.41,80.94a4.53,4.53,0,0,1,.75,3.68c0,.11-.35.23-.51.21a.67.67,0,0,1-.46-.33A4.64,4.64,0,0,1,153.41,80.94Z"/><path class="cls-9" d="M165.37,89a4.17,4.17,0,0,1-1-4,1.18,1.18,0,0,1,1.74.88C166.32,86.83,166.83,87.94,165.37,89Z"/><path class="cls-9" d="M138.94,100.7a4.17,4.17,0,0,1-1-4,1.18,1.18,0,0,1,1.74.88C139.89,98.52,140.4,99.64,138.94,100.7Z"/><path class="cls-9" d="M167.81,108.19a9.63,9.63,0,0,1,3.78-3.45C171.61,107.53,170.81,108.28,167.81,108.19Z"/><path class="cls-9" d="M151.39,113.83a5.74,5.74,0,0,1,4.43.3,2.31,2.31,0,0,1-2.88,1.39C152.19,115.38,151.32,115.17,151.39,113.83Z"/><path class="cls-9" d="M138.72,117a3.31,3.31,0,0,1,1,3.5c-.05.16-.61.36-.71.28a3.08,3.08,0,0,1-1.23-2.88C137.86,117.51,138.4,117.25,138.72,117Z"/><path class="cls-9" d="M128.69,134.06a4.17,4.17,0,0,1-1-4,1.18,1.18,0,0,1,1.74.88C129.64,131.88,130.15,133,128.69,134.06Z"/><path class="cls-9" d="M150.08,285.43a4.53,4.53,0,0,1,.75,3.68c0,.11-.35.23-.51.21a.67.67,0,0,1-.46-.33A4.64,4.64,0,0,1,150.08,285.43Z"/><path class="cls-9" d="M140,279.25a4.17,4.17,0,0,1-1-4,1.18,1.18,0,0,1,1.74.88C141,277.08,141.48,278.19,140,279.25Z"/><path class="cls-9" d="M150.16,296.89a3.31,3.31,0,0,1,1,3.5c-.05.16-.61.36-.71.28a3.08,3.08,0,0,1-1.23-2.88C149.3,297.45,149.84,297.19,150.16,296.89Z"/><path class="cls-9" d="M139,253.5a4.53,4.53,0,0,1,.75,3.68c0,.11-.35.23-.51.21a.67.67,0,0,1-.46-.33A4.64,4.64,0,0,1,139,253.5Z"/><path class="cls-9" d="M142,267.83a9.63,9.63,0,0,1,3.78-3.45C145.79,267.17,145,267.92,142,267.83Z"/><path class="cls-9" d="M128.19,264.35a5.74,5.74,0,0,1,4.43.3,2.31,2.31,0,0,1-2.88,1.39C129,265.91,128.11,265.69,128.19,264.35Z"/><path class="cls-9" d="M183.73,251.21a4.53,4.53,0,0,1,.75,3.68c0,.11-.35.23-.51.21a.67.67,0,0,1-.46-.33A4.64,4.64,0,0,1,183.73,251.21Z"/><path class="cls-9" d="M191.12,267.4a4.17,4.17,0,0,1-1-4,1.18,1.18,0,0,1,1.74.88C192.07,265.23,192.58,266.34,191.12,267.4Z"/><path class="cls-9" d="M178.57,268.19a4.17,4.17,0,0,1-1-4,1.18,1.18,0,0,1,1.74.88C179.52,266,180,267.13,178.57,268.19Z"/><path class="cls-9" d="M168.66,295.77a9.63,9.63,0,0,1,3.78-3.45C172.46,295.11,171.66,295.86,168.66,295.77Z"/><path class="cls-9" d="M185.59,274.82a5.74,5.74,0,0,1,4.43.3,2.31,2.31,0,0,1-2.88,1.39C186.39,276.37,185.52,276.16,185.59,274.82Z"/><path class="cls-9" d="M178.35,284.45a3.31,3.31,0,0,1,1,3.5c-.05.16-.61.36-.71.28a3.08,3.08,0,0,1-1.23-2.88C177.48,285,178,284.75,178.35,284.45Z"/></g></g></svg>