<svg xmlns="http://www.w3.org/2000/svg" xmlns:xlink="http://www.w3.org/1999/xlink" viewBox="0 0 360 360"><defs><style>.cls-1,.cls-22{fill:#dde5ed;}.cls-2{fill:#00cdbd;}.cls-3{fill:#8ce2d7;}.cls-4{fill:#00c1de;}.cls-5{isolation:isolate;}.cls-17,.cls-6{fill:#b5d0e1;}.cls-7{fill:#231f20;}.cls-17,.cls-7{opacity:0.29;}.cls-8{fill:#97382e;opacity:0.5;}.cls-9{fill:#4ad6ac;}.cls-10{clip-path:url(#clip-path);}.cls-11{fill:#eef2f6;}.cls-12{fill:#89e2c3;}.cls-13{clip-path:url(#clip-path-2);}.cls-14{fill:#fff;}.cls-15{fill:#00c18b;}.cls-16{clip-path:url(#clip-path-3);}.cls-18{clip-path:url(#clip-path-4);}.cls-19{fill:#f43662;}.cls-20{fill:#003b71;}.cls-21{fill:#fbc652;}.cls-22{mix-blend-mode:multiply;}</style><clipPath id="clip-path"><path class="cls-1" d="M284.86,115.42a45.08,45.08,0,0,1,1.14,6.26c.2,5.34.19,10.69.21,16,0,7.13-.08,14.27.06,21.4.12,6.37.3,12.75.84,19.09.39,4.67,0,9.3,0,14,0,2.89-.11,5.78-.15,8.67a3.88,3.88,0,0,1-1.1,2.58,29.58,29.58,0,0,1-7.33,6c-2.31,1.49-4.26,3.5-6.43,5.21q-11.74,9.21-24.22,17.46c-7.23,4.77-14.18,9.94-21.28,14.9-3.75,2.61-7.56,5.15-11.41,7.76a2.59,2.59,0,0,1-1.41-2.53,53.22,53.22,0,0,1-.25-6.61c.47-11.13,1.07-22.25,1.54-33.38.12-2.88-.08-5.77-.09-8.66q0-5,0-9.92c.05-9.6.07-19.21.2-28.81.08-5.68.39-6,5.24-9.35s9.27-6.71,14-9.88c6.14-4.08,12.41-8,18.64-11.94,4.17-2.65,8.41-5.22,12.55-7.91,5-3.26,10-6.62,15.5-9.06C282.2,116.22,283.36,115.93,284.86,115.42Z"/></clipPath><clipPath id="clip-path-2"><path class="cls-2" d="M194.47,161.32c0,5.27,0,13.31-.15,18.58-.19,8.67-.52,17.34-.65,26-.08,5.27.16,10.55.14,15.82,0,5.89-.17,11.78-.28,17.67-.07,3.63-.18,7.27-.27,10.9a7.39,7.39,0,0,1-1.41,4.6c-1.43-.44-3-.79-4.41-1.37q-12.59-5.1-25.13-10.29c-5.65-2.34-11.32-4.65-16.9-7.12q-15.68-6.93-31.27-14.06c-3.16-1.45-6.19-3.19-9.26-4.82a1.15,1.15,0,0,1-.57-1.56,6.91,6.91,0,0,0,.38-2.44c-.25-6.43-.63-12.85-.81-19.28-.11-4,.06-8.05.14-12.08.11-5.2.23-10.39.4-15.58s.49-10.39.57-15.58c.1-6.43,0-12.87,0-19.3a9.07,9.07,0,0,1,0-1.39c.15-1,.84-1.31,1.74-.85,9.5,4.87,19.76,7.77,29.86,11.11,4.3,1.42,8.48,3.2,12.78,4.61,7.48,2.45,15,4.65,22.52,7.12,6.34,2.1,12.59,4.43,18.89,6.65C191.09,158.76,194.47,158.56,194.47,161.32Z"/></clipPath><clipPath id="clip-path-3"><path class="cls-3" d="M268.51,102.51c-7.67,3.16-13.64,8.25-20.23,12.34-3.56,2.2-6.73,5-10.21,7.36-5,3.37-10.12,6.53-15.14,9.86-4.77,3.16-9.45,6.45-14.2,9.63-1.7,1.14-3.5,2.15-5.06,3.1-6.54-2.31-12.84-4.58-19.16-6.75-6.49-2.22-13-4.27-19.5-6.53-8.71-3-17.36-6.25-25.88-9.78-3.23-1.34-6.68-2.12-10-3.25-3-1-6-2.18-9.1-3.3A2,2,0,0,1,121.2,113c3.15-2,6.21-4.18,9.47-6,6-3.33,12.09-6.5,18.2-9.63,13.59-6.95,27.22-13.81,40.81-20.75,2.53-1.3,5-.45,7.35.16,4.74,1.19,9.18,3.24,13.67,5.14s8.94,3.5,13.45,5.12c5.6,2,11.23,3.94,16.86,5.84,2.74.93,5.54,1.7,8.3,2.59,4,1.29,8,2.62,12,3.92,1.45.47,2.95.82,4.36,1.38A21.89,21.89,0,0,1,268.51,102.51Z"/></clipPath><clipPath id="clip-path-4"><path class="cls-4" d="M281.82,214c1.65-1.46,3.56-1.15,5.1-2.28,2.23-1.64,4.17-1.65,5.86.86,3.2,4.78,6.68,9.43,10.11,14.09a82.16,82.16,0,0,0,13.63,14.95c1.3,1.08,1.68,2.08.62,3.38-2.49,2.37-2.83,1-4.27-.13-1.87-1.46-4.08-2.6-5.81-4.16-7.43-6.7-15.14-13.2-21.36-20.82A22,22,0,0,1,281.82,214Z"/></clipPath></defs><title>Icons_Market_Movement_3C</title><g class="cls-5"><g id="Background"><g id="Layer_4" data-name="Layer 4"><circle id="_27.62.111" data-name="27.62.111" class="cls-6" cx="180" cy="180" r="180"/></g></g><g id="Layer_3" data-name="Layer 3"><path class="cls-7" d="M97.27,223.54s-79.86-41-71.74-57.83,92.62-52.17,102.39-47.64C256.71,177.75,294.41,198,294.41,198Z"/><path class="cls-8" d="M279,257.81s-20.53,1.34-25.93-2-16.57-6.91-16.11-11.08-.93-17.33-.78-21.22.93-12-.93-15.21S225,200.26,225,196.07s7.72-8.57,7.82-13.83.1-6.28,3-6.54,6.15-4.55,9.59,2,6.23,10.13,6.54,18.36.16,20.48,1.71,23.89,3.52,14.58,7,17.53,29.62,11.55,36.31,11,24.57-2.75,22.68,1.44-1.42,6.93-8.86,6.72-24.66-5.64-28.54-6.1S279,257.81,279,257.81Z"/><path class="cls-9" d="M290.67,101c.53,2.82,1.29,5.2,1.38,7.6.24,6.48.23,13,.26,19.46,0,8.65-.09,17.31.08,26,.15,7.72.37,15.46,1,23.16.48,5.67,0,11.29,0,16.93,0,3.51-.13,7-.19,10.52a4.71,4.71,0,0,1-1.34,3.13c-2.5,3.07-5.61,5.19-8.89,7.31-2.81,1.81-5.17,4.25-7.81,6.32q-14.24,11.18-29.38,21.18c-8.77,5.79-17.2,12.06-25.82,18.07-4.55,3.17-10.76,7.44-15.43,10.61-1-1,0-3.1-.13-4.27a64.57,64.57,0,0,1-.31-8c.57-13.5,1.72-59,1.74-63,.06-11.65.08-23.3.24-35,0-2.89,0-6.6,0-6.6s2.9-2.39,6.31-4.74c5.72-3.95,11.25-8.15,17-12,7.45-5,15.06-9.68,22.62-14.48,5.07-3.22,10.2-6.33,15.23-9.6,6.09-4,12.11-8,18.81-11C287.44,102,288.85,101.66,290.67,101Z"/><path class="cls-1" d="M284.86,115.42a45.08,45.08,0,0,1,1.14,6.26c.2,5.34.19,10.69.21,16,0,7.13-.08,14.27.06,21.4.12,6.37.3,12.75.84,19.09.39,4.67,0,9.3,0,14,0,2.89-.11,5.78-.15,8.67a3.88,3.88,0,0,1-1.1,2.58,29.58,29.58,0,0,1-7.33,6c-2.31,1.49-4.26,3.5-6.43,5.21q-11.74,9.21-24.22,17.46c-7.23,4.77-14.18,9.94-21.28,14.9-3.75,2.61-7.56,5.15-11.41,7.76a2.59,2.59,0,0,1-1.41-2.53,53.22,53.22,0,0,1-.25-6.61c.47-11.13,1.07-22.25,1.54-33.38.12-2.88-.08-5.77-.09-8.66q0-5,0-9.92c.05-9.6.07-19.21.2-28.81.08-5.68.39-6,5.24-9.35s9.27-6.71,14-9.88c6.14-4.08,12.41-8,18.64-11.94,4.17-2.65,8.41-5.22,12.55-7.91,5-3.26,10-6.62,15.5-9.06C282.2,116.22,283.36,115.93,284.86,115.42Z"/><g class="cls-10"><path class="cls-11" d="M279.33,112.86a45.08,45.08,0,0,1,1.14,6.26c.2,5.34.19,10.69.21,16,0,7.13-.08,14.27.06,21.4.12,6.37.3,12.75.84,19.09.39,4.67,0,9.3,0,14,0,2.89-.11,5.78-.15,8.67a3.88,3.88,0,0,1-1.1,2.58,29.58,29.58,0,0,1-7.33,6c-2.31,1.49-4.26,3.5-6.43,5.21q-11.74,9.21-24.22,17.46c-7.23,4.77-14.18,9.94-21.28,14.9-3.75,2.61-7.56,5.15-11.41,7.76a2.59,2.59,0,0,1-1.41-2.53A53.22,53.22,0,0,1,208,243c.47-11.13,1.07-22.25,1.54-33.38.12-2.88-.08-5.77-.09-8.66q0-5,0-9.92c.05-9.6.07-19.21.2-28.81.08-5.68.39-6,5.24-9.35s9.27-6.71,14-9.88c6.14-4.08,12.41-8,18.64-11.94,4.17-2.65,8.41-5.22,12.55-7.91,5-3.26,10-6.62,15.5-9.06C276.67,113.66,277.83,113.37,279.33,112.86Z"/></g><path class="cls-12" d="M202.78,150.24l1.27-5.71c1.54-.16,1.61.84,1.65,1.82.16,3.46.42,6.92.42,10.38q0,9.91-.22,19.83c.22,10.85-.67,45.83-.7,52.44,0,7.38-.22,14.77-.37,22.15-.09,4.56-.23,9.11-.34,13.67,0,2,0,4.15-.19,6.19-1.74-.55-5.13-1.4-6.87-2.13q-15.27-6.36-30.49-12.85c-6.86-2.92-13.73-5.81-20.51-8.89q-19-8.66-37.94-17.56c-3.84-1.81-7.51-4-11.23-6a1.45,1.45,0,0,1-.69-2,8.93,8.93,0,0,0,.47-3.05c-.29-8.06-.75-16.11-.94-24.17-.12-5,.09-10.1.2-15.14.14-6.51.3-13,.51-19.53s.62-13,.73-19.53c.14-8.06.06-15.52.07-23.59,0-.58,0-1.41,0-1.41s2.28-1.09,3.37-.51c11.52,6.09,22.73,8.21,35,12.38,5.22,1.78,10.29,4,15.51,5.75,9.08,3.06,18.26,5.8,27.32,8.88,7.69,2.62,15.28,5.53,22.91,8.3C202,150.08,202.39,150.14,202.78,150.24Z"/><path class="cls-2" d="M194.47,161.32c0,5.27,0,13.31-.15,18.58-.19,8.67-.52,17.34-.65,26-.08,5.27.16,10.55.14,15.82,0,5.89-.17,11.78-.28,17.67-.07,3.63-.18,7.27-.27,10.9a7.39,7.39,0,0,1-1.41,4.6c-1.43-.44-3-.79-4.41-1.37q-12.59-5.1-25.13-10.29c-5.65-2.34-11.32-4.65-16.9-7.12q-15.68-6.93-31.27-14.06c-3.16-1.45-6.19-3.19-9.26-4.82a1.15,1.15,0,0,1-.57-1.56,6.91,6.91,0,0,0,.38-2.44c-.25-6.43-.63-12.85-.81-19.28-.11-4,.06-8.05.14-12.08.11-5.2.23-10.39.4-15.58s.49-10.39.57-15.58c.1-6.43,0-12.87,0-19.3a9.07,9.07,0,0,1,0-1.39c.15-1,.84-1.31,1.74-.85,9.5,4.87,19.76,7.77,29.86,11.11,4.3,1.42,8.48,3.2,12.78,4.61,7.48,2.45,15,4.65,22.52,7.12,6.34,2.1,12.59,4.43,18.89,6.65C191.09,158.76,194.47,158.56,194.47,161.32Z"/><g class="cls-13"><path class="cls-14" d="M199.95,157.16c0,5.27,0,13.31-.15,18.58-.19,8.67-.52,17.34-.65,26-.08,5.27.16,10.55.14,15.82,0,5.89-.17,11.78-.28,17.67-.07,3.63-.18,7.27-.27,10.9a7.39,7.39,0,0,1-1.41,4.6c-1.43-.44-3-.79-4.41-1.37q-12.59-5.1-25.13-10.29c-5.65-2.34-11.32-4.65-16.9-7.12q-15.68-6.93-31.27-14.06c-3.16-1.45-6.19-3.19-9.26-4.82a1.15,1.15,0,0,1-.57-1.56,6.91,6.91,0,0,0,.38-2.44c-.25-6.43-.63-12.85-.81-19.28-.11-4,.06-8.05.14-12.08.11-5.2.23-10.39.4-15.58s.49-10.39.57-15.58c.1-6.43,0-12.87,0-19.3a9.07,9.07,0,0,1,0-1.39c.15-1,.84-1.31,1.74-.85,9.5,4.87,19.76,7.77,29.86,11.11,4.3,1.42,8.48,3.2,12.78,4.61,7.48,2.45,15,4.65,22.52,7.12,6.34,2.1,12.59,4.43,18.89,6.65C196.56,154.61,199.94,154.4,199.95,157.16Z"/></g><path class="cls-15" d="M291.55,100.89c-10.05,4-17.87,10.5-26.5,15.7-4.66,2.81-8.82,6.38-13.37,9.37-6.54,4.29-13.26,8.32-19.83,12.56-6.24,4-12.38,8.21-18.6,12.26-2.23,1.45-5.11,2.72-7.16,3.93-8.57-2.94-16.28-5.81-24.57-8.57-8.49-2.83-17.07-5.44-25.54-8.32-11.4-3.87-22.73-8-33.9-12.45-4.23-1.7-8.75-2.7-13.1-4.13-4-1.31-12.49-5.63-11.42-6.3,4.13-2.55,9.2-6,13.47-8.28,7.86-4.24,15.83-8.28,23.83-12.26,17.79-8.85,35.65-17.58,53.44-26.42,3.32-1.65,6.48-.57,9.63.2,6.21,1.52,12,4.13,17.91,6.54s11.7,4.46,17.62,6.52c7.33,2.56,14.7,5,22.08,7.44,3.59,1.18,7.25,2.17,10.87,3.3,5.23,1.64,10.43,3.33,15.65,5,1.9.6,3.86,1,5.71,1.75A28.85,28.85,0,0,1,291.55,100.89Z"/><path class="cls-3" d="M268.51,102.51c-7.67,3.16-13.64,8.25-20.23,12.34-3.56,2.2-6.73,5-10.21,7.36-5,3.37-10.12,6.53-15.14,9.86-4.77,3.16-9.45,6.45-14.2,9.63-1.7,1.14-3.5,2.15-5.06,3.1-6.54-2.31-12.84-4.58-19.16-6.75-6.49-2.22-13-4.27-19.5-6.53-8.71-3-17.36-6.25-25.88-9.78-3.23-1.34-6.68-2.12-10-3.25-3-1-6-2.18-9.1-3.3A2,2,0,0,1,121.2,113c3.15-2,6.21-4.18,9.47-6,6-3.33,12.09-6.5,18.2-9.63,13.59-6.95,27.22-13.81,40.81-20.75,2.53-1.3,5-.45,7.35.16,4.74,1.19,9.18,3.24,13.67,5.14s8.94,3.5,13.45,5.12c5.6,2,11.23,3.94,16.86,5.84,2.74.93,5.54,1.7,8.3,2.59,4,1.29,8,2.62,12,3.92,1.45.47,2.95.82,4.36,1.38A21.89,21.89,0,0,1,268.51,102.51Z"/><g class="cls-16"><path class="cls-14" d="M269.68,107.65C262,110.81,256,115.9,249.44,120c-3.56,2.2-6.73,5-10.21,7.36-5,3.37-10.12,6.53-15.14,9.86-4.77,3.16-9.45,6.45-14.2,9.63-1.7,1.14-3.5,2.15-5.06,3.1-6.54-2.31-12.84-4.58-19.16-6.75-6.49-2.22-13-4.27-19.5-6.53-8.71-3-17.36-6.25-25.88-9.78-3.23-1.34-6.68-2.12-10-3.25-3-1-6-2.18-9.1-3.3a2,2,0,0,1,1.19-2.16c3.15-2,6.21-4.18,9.47-6,6-3.33,12.09-6.5,18.2-9.63,13.59-6.95,27.22-13.81,40.81-20.75,2.53-1.3,5-.45,7.35.16,4.74,1.19,9.18,3.24,13.67,5.14s8.94,3.5,13.45,5.12c5.6,2,11.23,3.94,16.86,5.84,2.74.93,5.54,1.7,8.3,2.59,4,1.29,8,2.62,12,3.92,1.45.47,2.95.82,4.36,1.38A21.89,21.89,0,0,1,269.68,107.65Z"/></g><path class="cls-1" d="M229.61,110.67c.42,1.42.88,2.76,1.21,4.13s-.2,1.83-1.52,2c-4.31.48-8.61,1-12.92,1.45-2.46.25-4.94.32-7.41.47l-2.39.13c.57,3.16,1,6.19,1.68,9.19s1.43,6,2.23,9.21c-2.13.08-4,.16-5.81.21-.76,0-1-.47-1.2-1.15q-1.88-6.22-3.87-12.41c-.32-1-.83-1.92-1.37-3.13-2.88.64-5.81,1.31-8.75,1.93s-5.81,1.31-8.75,1.73-5.86,1.38-9,1.69c-.3-2.25-.63-4.2-.81-6.15-.13-1.37.11-1.58,1.45-1.91,5.65-1.39,11.32-2.74,17-4.17,2.58-.65,5.11-1.46,7.9-2.26l-2.83-11.21c2-.64,3.74-1.89,5.83-1.54l3.36,12.7C212.31,112,220.91,110.28,229.61,110.67Z"/><path class="cls-14" d="M227.74,108c.42,1.42.88,2.76,1.21,4.13s-.2,1.83-1.52,2c-4.31.48-8.61,1-12.92,1.45-2.46.25-4.94.32-7.41.47l-2.39.13c.57,3.16,1,6.19,1.68,9.19s1.43,6,2.23,9.21c-2.13.08-4,.16-5.81.21-.76,0-1-.47-1.2-1.15q-1.88-6.22-3.87-12.41c-.32-1-.83-1.92-1.37-3.13-2.88.64-5.81,1.31-8.75,1.93s-5.81,1.31-8.75,1.73-5.86,1.38-9,1.69c-.3-2.25-.63-4.2-.81-6.15-.13-1.37.11-1.58,1.45-1.91,5.65-1.39,11.32-2.74,17-4.17,2.58-.65,5.11-1.46,7.9-2.26l-2.83-11.21c2-.64,3.74-1.89,5.83-1.54l3.36,12.7C210.45,109.3,219,107.59,227.74,108Z"/><path class="cls-1" d="M259.21,165.52c.33,2.51.65,4.7.88,6.91a2.37,2.37,0,0,1-1.32,2.59c-4.56,2.5-9,5.17-13.62,7.63-3.55,1.91-7.21,3.6-10.81,5.4-1.83.92-3.61,1.92-5.46,2.8a16,16,0,0,1-2.53.72c-.45-2.38-.89-4.48-1.25-6.6-.24-1.42-.09-1.58,1.26-2.3l17.19-9.24c.76-.41,1.55-.77,2.33-1.16a22.63,22.63,0,0,0,5.82-3.58,12.15,12.15,0,0,1,5.55-2.9A18.51,18.51,0,0,1,259.21,165.52Z"/><path class="cls-14" d="M263.24,166.62c.33,2.51.65,4.7.88,6.91a2.37,2.37,0,0,1-1.32,2.59c-4.56,2.5-9,5.17-13.62,7.63-3.55,1.91-7.21,3.6-10.81,5.4-1.83.92-3.61,1.92-5.46,2.8a16,16,0,0,1-2.53.72c-.45-2.38-.89-4.48-1.25-6.6-.24-1.42-.09-1.58,1.26-2.3l17.19-9.24c.76-.41,1.55-.77,2.33-1.16a22.63,22.63,0,0,0,5.82-3.58,12.15,12.15,0,0,1,5.55-2.9A18.51,18.51,0,0,1,263.24,166.62Z"/><path class="cls-15" d="M267,166.62c.33,2.51.65,4.7.88,6.91a2.37,2.37,0,0,1-1.32,2.59c-4.56,2.5-9,5.17-13.62,7.63-3.55,1.91-7.21,3.6-10.81,5.4-1.83.92-3.61,1.92-5.46,2.8a16,16,0,0,1-2.53.72c-.45-2.38-.89-4.48-1.25-6.6-.24-1.42-.09-1.58,1.26-2.3l17.19-9.24c.76-.41,1.55-.77,2.33-1.16a22.63,22.63,0,0,0,5.82-3.58,12.15,12.15,0,0,1,5.55-2.9A18.51,18.51,0,0,1,267,166.62Z"/><path class="cls-1" d="M169.3,182.53c-.37,1.29-.66,2.43-1,3.54a1.14,1.14,0,0,1-1.62.75l-12.36-4c-3.71-1.21-7.43-2.4-11.11-3.67a27.51,27.51,0,0,1-4.08-1.77c-1.25-.67-1.86-3.85-1.1-5,.42-.64,1-.6,1.64-.42,3.87,1.11,7.73,2.24,11.61,3.29,4.24,1.15,8.52,2.15,12.75,3.35a17.89,17.89,0,0,1,4.38,2C168.92,180.84,169,181.86,169.3,182.53Z"/><path class="cls-1" d="M158.43,168.13a3.88,3.88,0,0,1-4.48,3.95c-3.88-.5-5.26-3.82-2.89-7a4.33,4.33,0,0,1,2.57-2,3.33,3.33,0,0,1,3.93,2C157.93,166.1,158.14,167.13,158.43,168.13Z"/><path class="cls-1" d="M156.84,195.32c.3,1.72-1,3-2.47,4.07a3.08,3.08,0,0,1-3.49-.16,3.85,3.85,0,0,1-1.84-4.76,6.94,6.94,0,0,1,2.28-3.24c2.12-1.46,5.45.57,5.51,3.16C156.84,194.56,156.84,194.75,156.84,195.32Z"/><path class="cls-14" d="M165.9,184.32c-.37,1.29-.66,2.43-1,3.54a1.14,1.14,0,0,1-1.62.75l-12.36-4c-3.71-1.21-7.43-2.4-11.11-3.67a27.51,27.51,0,0,1-4.08-1.77c-1.25-.67-1.86-3.85-1.1-5,.42-.64,1-.6,1.64-.42,3.87,1.11,7.73,2.24,11.61,3.29,4.24,1.15,8.52,2.15,12.75,3.35a17.89,17.89,0,0,1,4.38,2C165.52,182.63,165.62,183.65,165.9,184.32Z"/><path class="cls-14" d="M155,169.93a3.88,3.88,0,0,1-4.48,3.95c-3.88-.5-5.26-3.82-2.89-7a4.33,4.33,0,0,1,2.57-2,3.33,3.33,0,0,1,3.93,2C154.54,167.9,154.75,168.93,155,169.93Z"/><path class="cls-14" d="M153.44,197.12c.3,1.72-1,3-2.47,4.07a3.08,3.08,0,0,1-3.49-.16,3.85,3.85,0,0,1-1.84-4.76,6.94,6.94,0,0,1,2.28-3.24c2.12-1.46,5.45.57,5.51,3.16C153.44,196.36,153.44,196.54,153.44,197.12Z"/><path class="cls-15" d="M162.5,186.12c-.37,1.29-.66,2.43-1,3.54a1.14,1.14,0,0,1-1.62.75l-12.36-4c-3.71-1.21-7.43-2.4-11.11-3.67a27.51,27.51,0,0,1-4.08-1.77c-1.25-.67-1.86-3.85-1.1-5,.42-.64,1-.6,1.64-.42,3.87,1.11,7.73,2.24,11.61,3.29,4.24,1.15,8.52,2.15,12.75,3.35a17.89,17.89,0,0,1,4.38,2C162.13,184.43,162.22,185.45,162.5,186.12Z"/><path class="cls-15" d="M151.63,171.72a3.88,3.88,0,0,1-4.48,3.95c-3.88-.5-5.26-3.82-2.89-7a4.33,4.33,0,0,1,2.57-2,3.33,3.33,0,0,1,3.93,2C151.14,169.69,151.35,170.72,151.63,171.72Z"/><path class="cls-15" d="M150,198.91c.3,1.72-1,3-2.47,4.07a3.08,3.08,0,0,1-3.49-.16,3.85,3.85,0,0,1-1.84-4.76,6.94,6.94,0,0,1,2.28-3.24c2.12-1.46,5.45.57,5.51,3.16C150,198.15,150,198.34,150,198.91Z"/><path class="cls-15" d="M226.19,105.28c.42,1.42.88,2.76,1.21,4.13s-.2,1.83-1.52,2c-4.31.48-8.61,1-12.92,1.45-2.46.25-4.94.32-7.41.47l-2.39.13c.57,3.16,1,6.19,1.68,9.19s1.43,6,2.23,9.21c-2.13.08-4,.16-5.81.21-.76,0-1-.47-1.2-1.15q-1.88-6.22-3.87-12.41c-.32-1-.83-1.92-1.37-3.13-2.88.64-5.81,1.31-8.75,1.93s-5.81,1.31-8.75,1.73-5.86,1.38-9,1.69c-.3-2.25-.63-4.2-.81-6.15-.13-1.37.11-1.58,1.45-1.91,5.65-1.39,11.32-2.74,17-4.17,2.58-.65,5.11-1.46,7.9-2.26L191,95c2-.64,3.74-1.89,5.83-1.54l3.36,12.7C208.9,106.6,217.5,104.89,226.19,105.28Z"/><path class="cls-17" d="M279,257.81s-20.53,1.34-25.93-2-16.57-6.91-16.11-11.08-.93-17.33-.78-21.22.93-12-.93-15.21S225,200.26,225,196.07s7.72-8.57,7.82-13.83.1-6.28,3-6.54,6.15-4.55,9.59,2,6.23,10.13,6.54,18.36.16,20.48,1.71,23.89,3.52,14.58,7,17.53,29.62,11.55,36.31,11,24.57-2.75,22.68,1.44-1.42,6.93-8.86,6.72-24.66-5.64-28.54-6.1S279,257.81,279,257.81Z"/><path class="cls-14" d="M314.65,244.71l2.44,4s2.09-1,2.33-2-2.39-3.52-2.39-3.52Z"/><path class="cls-4" d="M281.82,214c1.65-1.46,3.56-1.15,5.1-2.28,2.23-1.64,4.17-1.65,5.86.86,3.2,4.78,6.68,9.43,10.11,14.09a82.16,82.16,0,0,0,13.63,14.95c1.3,1.08,1.68,2.08.62,3.38-2.49,2.37-2.83,1-4.27-.13-1.87-1.46-4.08-2.6-5.81-4.16-7.43-6.7-15.14-13.2-21.36-20.82A22,22,0,0,1,281.82,214Z"/><g class="cls-18"><path class="cls-6" d="M296.43,216.55s3.67,4.36,3.89,5.66-1.76,9.73-2.2,10.49-7.65-5-7.8-7S296.43,216.55,296.43,216.55Z"/></g><path class="cls-14" d="M278.12,251.22l-1.4,3.53a1.92,1.92,0,0,0,2,1.07c1.45-.23,2.5-3.49,2.5-3.49Z"/><path class="cls-19" d="M277.52,189.69a21.27,21.27,0,0,1,.83,2.84c.68,4.74,1.35,9.48,1.9,14.24a6.16,6.16,0,0,1-.53,3.12,49.46,49.46,0,0,1-2.7,4.58c-2.7-2.26-4.24-4.83-3.77-8.29.25-1.88.66-3.73.94-5.6.36-2.41.81-4.81.94-7.23A3.87,3.87,0,0,1,277.52,189.69Z"/><path class="cls-14" d="M273,177a6.08,6.08,0,0,1,3,4.87l2.09,1.41,3.12-3.84.49-4.65-.28-6.2L275,165.43l.66,5.57Z"/><path class="cls-20" d="M275.66,162.2a17.89,17.89,0,0,0,1.85-1.27c1.57-1.07,1.79-1.23,2.94-1.23s2.54,1.47,2.91,1.83.49,0,1.49.68c2.44,1.74,6.51,7.45-2,14.41l-1.65-8.16Z"/><path class="cls-14" d="M275.73,171.15s.71-1.33,1.19-.4-.24,3.65-1.43,3.61C275.48,174.35,274.85,171.47,275.73,171.15Z"/><path class="cls-4" d="M281.13,253.12c-3.9-.48-5.26-3.34-4.84-5.79.88-5.23,1.75-10.46,2.89-15.65.47-2.16,1.64-4.2,2.47-6.3,1.34-3.42,2.9-6.79,3.91-10.29a9,9,0,0,1,4-5.44c1.51-1,3.18-4.87,4.58-6s2.2,1.7,2.84,3.24a8.28,8.28,0,0,1,.71,3.52,24.06,24.06,0,0,1-3.95,11.63c-2.83,4.46-5.48,9-8.08,13.56a14.36,14.36,0,0,0-1.31,4c-1,4.36-1.87,8.73-2.82,13.1C281.49,252.87,281.26,253,281.13,253.12Z"/><path class="cls-14" d="M245.47,182.58c1-.44,3.06,3.16,3.87,4.35,0-1.05-1.27-3.42-.61-4.18.5-.22,2.8,3.65,2.22,6.13a2.35,2.35,0,0,1-1.13,1.47c-1.58.68-3.2,1-4.6-.55a10.65,10.65,0,0,1-1.44-4.06c-.09-.62.73-.51.84-1.07C244.79,183.78,244.53,182.93,245.47,182.58Z"/><path class="cls-14" d="M258.93,175.09c-.83.16-.34,3.71-.25,4.93-.5-.76-.91-3-1.7-3.25-.42.08.07,3.92,1.67,5.4a1.91,1.91,0,0,0,1.44.49c1.33-.29,2.49-.86,2.6-2.61a10.14,10.14,0,0,0-1.13-3.56c-.25-.48-.71,0-1.06-.35C260,175.62,259.7,174.89,258.93,175.09Z"/><path class="cls-21" d="M282.41,179.85c-1.66,2.13-3.77,2.4-7.16,2.39-.84-2.14-.77-2.23,1.16-2.65,1.22-.27,2.41-.7,3.61-1A1.92,1.92,0,0,1,282.41,179.85Z"/><path class="cls-14" d="M247.9,190.87a29.28,29.28,0,0,0,6.51,5.2l1.75-3.4s-1.43-.27-6.09-3.29Z"/><path class="cls-14" d="M260.67,182.25s1.48,2.09,2.69,2.42l1.75-2a7.93,7.93,0,0,1-3.29-1.58Z"/><path class="cls-21" d="M277.42,180.66a16,16,0,0,1-2.37,1.77,6.59,6.59,0,0,1-6.11.84c-1.2-.44-2.43-.81-3.68-1.22l-3.21,2.63a11.59,11.59,0,0,0,14.24,3.14c1-3,2.43-5.84,3.63-8.76A8.07,8.07,0,0,0,277.42,180.66Z"/><path class="cls-22" d="M275.05,182.43a6.59,6.59,0,0,1-6.11.84c-1.2-.44-2.43-.81-3.68-1.22l-3.21,2.63a11.59,11.59,0,0,0,14.24,3.14c1-3,2-4.18,3.18-7.11A42.71,42.71,0,0,0,275.05,182.43Z"/><path class="cls-21" d="M253.06,196l3.41-4.64c1.8.15,3.55.24,5.28.44a8.88,8.88,0,0,0,7.84-3.18,22.27,22.27,0,0,0,2.57-3.2c2.17-3.41,5.48-4.86,9.22-5.7a3,3,0,0,1,3.72,1.56c1.18,2.13,2.36,4.27,3.39,6.48,2.26,4.88,4.44,9.8,6.62,14.72.26.59,2,3.83,1.84,4.39-1.47,5-6.27,6.57-11.41,8.18-3.09,1-3.71-.13-4.62-3.19-1-3.36-2.26-6.64-3.49-9.92-1-2.55-2-5.05-3.06-7.57C266.57,201.68,258.52,200.06,253.06,196Z"/><path class="cls-21" d="M276.87,253.81s.52-1.31.58-1.4.87,1,1.75,1.12a10.72,10.72,0,0,0,1.77,0,11.86,11.86,0,0,1-.73,1.59s-.7,1.89-2,1A3.18,3.18,0,0,1,276.87,253.81Z"/><path class="cls-20" d="M277.07,253.12s.06,2,1.34,2.06a3.09,3.09,0,0,0,2.19-.92,10.81,10.81,0,0,1,1,4,16.5,16.5,0,0,1-7.26,1.82c-8.35.28-10-4.13-10-4.13l.87-1.24,5.64.6Z"/><path class="cls-21" d="M315.85,247.09s2.65-1.54,2.91-2.33l.9,1.48s-2.21,2.53-2.94,2.18A1.92,1.92,0,0,1,315.85,247.09Z"/><path class="cls-22" d="M273.73,177.62a15.76,15.76,0,0,0,2.27-.68c.38-.23-1,2-.49,2.88A4,4,0,0,0,273.73,177.62Z"/><path class="cls-20" d="M316,248.08l-1.26,6.53-5.9,2a1.23,1.23,0,0,0,.92,1.47,35.14,35.14,0,0,0,4.14.51,27.17,27.17,0,0,0,3.11,0s5.09-7,5.79-7.79,1-2.79,0-3.61a15,15,0,0,0-3.55-1.59A3.47,3.47,0,0,1,316,248.08Z"/><path class="cls-22" d="M274.38,194.42a22.12,22.12,0,0,0,3.56-2.85c.87-1.08-1,9.12-.5,10.42S274.38,194.42,274.38,194.42Z"/><path class="cls-14" d="M273.93,165.59c-.32-.16-.73,1.46-.84,1.74s-.29.8-.45,1.19a4.42,4.42,0,0,1-.45,1c-.43.58-.87.82-.16,1.85,0,.35-.17,1-.16,1.39a8.65,8.65,0,0,0,0,1.16,9.45,9.45,0,0,0,.82,2.51c.25.51.5,1.1,1,1.23a2.31,2.31,0,0,0,.72.1,2.37,2.37,0,0,0,1.73-.77,2.73,2.73,0,0,0,.64-1.59,11,11,0,0,0-.07-2.12c-.13-1.29-.27-2.59-.38-3.88a1.15,1.15,0,0,0-.41-.9c-.32-.24-.06-.89-.38-1.13S274.05,165.65,273.93,165.59Z"/><path class="cls-20" d="M277.78,160.91s-3.52.92-5,3.6a4.85,4.85,0,0,0,.23,5c.6.71-.12,2.09.64,3.56s1.47,2.18,4.42,2.85c2.36.54,2.78,1.81,4.81.79s3-7.24.61-8.84C282.74,167.42,277.78,160.91,277.78,160.91Z"/><path class="cls-14" d="M272.51,169.81s1-1.22,1.46-.29.61,3.92-.57,3.88C273.4,173.4,271.64,170.14,272.51,169.81Z"/></g></g></svg>