<svg xmlns="http://www.w3.org/2000/svg" viewBox="0 0 360 360"><defs><style>.cls-1{isolation:isolate;}.cls-2{fill:#b5d0e1;}.cls-3{fill:#4cc1bb;mix-blend-mode:multiply;}.cls-14,.cls-4{fill:#fff;}.cls-5{fill:#007565;opacity:0.9;}.cls-6{fill:#003b71;}.cls-7{fill:#dee2eb;}.cls-8{fill:#94989f;}.cls-9{fill:#b8bdc5;}.cls-10{fill:#827300;}.cls-11{fill:#aa9700;}.cls-12{fill:#d6bc00;}.cls-13{fill:#00c1de;opacity:0.1;}.cls-14{opacity:0.7;}</style></defs><title>Icon_Careers_Grow_Your_Money_3C</title><g class="cls-1"><g id="Background"><circle id="_27.62.111" data-name="27.62.111" class="cls-2" cx="180" cy="180" r="180"/></g><g id="Artwork"><path class="cls-3" d="M123.27,310.18s-18.27,2.61-16.09,8.92,17.37,15,38.35,14.59,40,.9,52.08,0,22.92.42,29.07-1.76,22.07-5.82,11.05-11.63-36.07-6.69-40.12-6.69S123.27,310.18,123.27,310.18Z"/><path class="cls-4" d="M141.23,151.45l-.77-11.15a3.94,3.94,0,0,1,3.22-1.78q7.53-.53,15.06-1.09c1-.07,2-.21,2.93-.31a10,10,0,0,1,1.83-.18c3.18.25,6.35.57,9.52.85,2.2.19,4.39.4,6.59.5,4.66.21,9.32.34,14,.51.37,0,.74.06,1.1.06l20.63-.1q2.39,0,4.79-.06c3-.06,5.89.22,8.53,2.39a9.24,9.24,0,0,1,.85,5.7c-.34,2.36.21,4.88.56,7.3.09.6.82,1.18,1.38,1.63,1.53,1.23,3.1,2.41,4.68,3.57a26.67,26.67,0,0,1,7.39,9.07,10.18,10.18,0,0,1,1.31,6c-.21,2-.22,3.92-.3,5.89a8.92,8.92,0,0,0,0,1.83c1,5.86.14,11.73.24,17.6.06,3.06-.06,6.13-.13,9.2-.12,5.64-.27,11.29-.39,16.93,0,1.59,0,3.19,0,4.78-.12,6-.37,12-.33,18,0,5.76.42,11.51.54,17.27.11,5.15.1,10.31.07,15.46,0,5.4-.33,10.79-.19,16.18.09,3.3-.19,6.55-.34,9.83s-1.59,6.43-3.09,9.36c-.7,1.37-2.19,2.31-3.13,3.59-2.34,3.17-5.5,4.53-9.34,5.07-5.26.73-10.52.47-15.79.55-4.9.07-9.81,0-14.71.06-3.8,0-7.6.27-11.39.27s-7.85-.18-11.77-.25c-8-.14-16-.19-23.92-.4-3.68-.1-7.35-.39-11-.73a9.22,9.22,0,0,1-6.57-3.62,38.05,38.05,0,0,0-4.93-4.95,24.57,24.57,0,0,1-7.18-10.95,7.94,7.94,0,0,1-.36-3.25c.24-2.55.78-5.08,1-7.63a49.09,49.09,0,0,0-.1-11,21.05,21.05,0,0,1-.3-4c.47-7.35-.09-14.7.15-22.05.2-6,.68-12,1-18s.49-12,1.4-18a3.53,3.53,0,0,0,0-1.46c-.73-2.57-.22-5,.1-7.63.65-5.35,1.76-10.65,1.78-16.09,0-6.61.6-13.21,1.16-19.8.09-1.1,0-2.2,0-3.31a2.17,2.17,0,0,0-.05-.36c-.86-5,.91-9.19,4.48-12.6,2.75-2.63,5.68-5.07,8.53-7.58C140.28,152.2,140.67,151.91,141.23,151.45Z"/><path class="cls-5" d="M240.15,29.31c-.25,1.91-1.52,3-2.66,4a12.6,12.6,0,0,0-4,7.91c-.6,3.62-1.16,7.24-1.86,10.85-1.09,5.67-2.23,11.34-3.45,17a37,37,0,0,1-1.63,4.84,27.39,27.39,0,0,0-1.1,2.53c-.92,3.63-3.17,6.58-4.82,9.84-1.23,2.42-3.31,4.05-5.25,5.74-3.06,2.66-6.37,5-9.64,7.45a40.11,40.11,0,0,1-9.81,4.9,10.19,10.19,0,0,1-6.73-.09c-.53-2-1.07-3.68-1.45-5.44a22.07,22.07,0,0,1-.6-7.41A87.53,87.53,0,0,1,190,75.9c2.63-8.54,6.76-16.2,13.28-22.44,5.6-5.36,11.19-10.75,17.59-15.15,4.09-2.82,8.12-5.82,12.71-7.85a33.86,33.86,0,0,1,5.2-1.63C239.17,28.73,239.67,29.14,240.15,29.31Z"/><path class="cls-5" d="M115.19,60.68c2.53-.49,4.5.18,6.48.37s11.34,2.85,13.24,3.5a44.61,44.61,0,0,1,19,12.44c19.43,20.09,20.72,29.11,20.3,29.77a7.54,7.54,0,0,1-2.23,2.55,41.08,41.08,0,0,1-7.76,3.82,25.39,25.39,0,0,1-7.67,1A33.37,33.37,0,0,1,142.71,111a24.16,24.16,0,0,1-10.05-8.73c-2.22-3.38-4.31-6.86-6.24-10.42a43,43,0,0,1-2.58-6.42c-2.09-6-4.09-12.05-6.17-18.07a16.17,16.17,0,0,0-1.42-2.68A8,8,0,0,1,115.19,60.68Z"/><path class="cls-6" d="M148.26,88.43a9.29,9.29,0,0,1,4.88-.37,27.91,27.91,0,0,1,16,10.1c2.57,3.12,5.1,6.25,6.81,10.31,1.42,3.37,2.71,6.85,4,10.32a82.83,82.83,0,0,1,3.57,14.32,16.5,16.5,0,0,0,.88,2.59c.83-.11.73-.84.78-1.35.34-3.65.7-7.31.94-11a144.6,144.6,0,0,1,4.75-27.16c1.23-4.66,3.33-8.82,5.28-13A108.5,108.5,0,0,1,206.7,65c1.41-1.95,3-3.64,4.58-5.41a5.48,5.48,0,0,1,1.08-.8,2,2,0,0,1,.54,2.72,22.13,22.13,0,0,1-2.44,3.74c-4,4.6-7,10.15-10.06,15.81-3.11,5.82-5.26,12.2-7.5,18.55a13,13,0,0,0-.54,2.11c-1,5.9-2,11.8-3,17.72-.19,1.14-.11,2.34-.19,3.5-.34,5.11-.64,10.21-1.21,15.31-1,8.59-1.72,17.21-2.4,25.82-.52,6.57-.89,13.15-1.17,19.73-.21,5-.07,9.95-.23,14.92-.23,7.17-.6,14.35-.9,21.52-.08,1.9-.07,3.81-.17,5.71a12.58,12.58,0,0,1-.39,2.56,1.08,1.08,0,0,1-.79.65.92.92,0,0,1-.8-.54,14.72,14.72,0,0,1-.5-2.93,41,41,0,0,1,0-4.38c.34-6.15.78-12.3,1.06-18.45.14-3.22.07-6.44,0-9.65A301.34,301.34,0,0,1,183.44,155a56.55,56.55,0,0,0-.82-15.16c-.64-4.1-1.62-8.1-2.55-12.1a75.5,75.5,0,0,0-7.63-20.34,12.29,12.29,0,0,0-.82-1.33c-3.93-5.21-8.32-9.65-13.62-12.27a28.39,28.39,0,0,0-5.76-1.61c-.86-.22-1.77-.25-2.61-.55C148.55,91.2,148,90.18,148.26,88.43Z"/><path class="cls-7" d="M149.89,213.71a19.11,19.11,0,0,1-9.18-1.62,3.16,3.16,0,0,1-1.76-3.62,6,6,0,0,1,1-2,14.56,14.56,0,0,1,7.28-5.49c1.62-.58,3.3-1,4.94-1.55a15,15,0,0,1,7.35-.18c.72.12,1.44.3,2.16.41a7.3,7.3,0,0,1,5.6,4.34c.76,1.5.59,2.57-.8,3.56a30.8,30.8,0,0,1-7.61,4.41A25.91,25.91,0,0,1,149.89,213.71Z"/><path class="cls-8" d="M138.87,210.12a6.14,6.14,0,0,1,1.45.35,7.91,7.91,0,0,0,4.3,1,46.22,46.22,0,0,0,12.1-1.14,23.72,23.72,0,0,0,6.15-2.34,20.67,20.67,0,0,1,2.34-1.21,6.87,6.87,0,0,1,1.9-.5c1.1-.12,1.59.4,1.28,1.2a7.69,7.69,0,0,1-3.6,3.89,17.08,17.08,0,0,1-5.43,2l-6.63,1.3a3.48,3.48,0,0,1-1,.07,19.45,19.45,0,0,0-4.31.22c-.58.07-1.18.08-1.77.1-2.48.06-4.25-.75-5.21-2.56C140,211.83,139.54,211.15,138.87,210.12Z"/><path class="cls-9" d="M226.67,203.92c.12,3.65-1.8,6.13-4.59,8.06a5.27,5.27,0,0,1-3.09.81,18.14,18.14,0,0,1-11.91-4.25,9.47,9.47,0,0,1-2.38-10.06,8.86,8.86,0,0,1,3.5-4.1c1.24-.81,2.38-1.81,3.68-2.49s3-1.41,4.73-.87c1.42.45,2.87.83,4.25,1.38a7.37,7.37,0,0,1,2,1.37,7.19,7.19,0,0,1,1.24,1.54,12.3,12.3,0,0,1,1.85,3.2A40.29,40.29,0,0,1,226.67,203.92Z"/><path class="cls-8" d="M205.43,261.1c3.79-.41,6.42,1.23,8.59,3.66a5.47,5.47,0,0,1,1.25,4.9,46.47,46.47,0,0,1-2.79,8.47,2.88,2.88,0,0,1-1.49,1.59c-2.74,1.16-5.49,2.26-8.56,2.3-2.78,0-4.71-1.4-6.29-3.4a11.52,11.52,0,0,1-2.06-5c-.69-3.43,1.58-8.54,4.76-10.24a7.73,7.73,0,0,0,1.09-.59A8,8,0,0,1,205.43,261.1Z"/><path class="cls-10" d="M191.65,281.81c.09,2.1-.75,4.11-1.48,6.12a7,7,0,0,1-2.93,3.29,10,10,0,0,0-2,1.41c-1.42,1.6-3.37,2-5.26,2.62a4.08,4.08,0,0,1-3.13-.4,14.44,14.44,0,0,1-6.45-6.32,8.16,8.16,0,0,1-.63-4.37,13.44,13.44,0,0,1,3.42-8.58,9.12,9.12,0,0,1,4.1-2.69c.32-.09.63-.2.94-.32,1.23-.48,2.49-1.28,3.78-.93,2.21.6,4.51,1,6.31,2.71a10.89,10.89,0,0,1,3,4.44A6.31,6.31,0,0,1,191.65,281.81Z"/><path class="cls-11" d="M159.43,283.25c-1.15.93-2.31,1.8-3.36,2.76a4.69,4.69,0,0,1-2,1,36.93,36.93,0,0,1-10.24,1.71c-1.93,0-3.86.27-5.8.37a22,22,0,0,1-2.91,0c-2.73-.22-4.66-1.73-5.24-4a2.21,2.21,0,0,1,1.1-2.61,23.63,23.63,0,0,1,8.58-3.56,57.3,57.3,0,0,1,13.9-.67,6.5,6.5,0,0,1,4,1.91C158.49,281,159.66,281.85,159.43,283.25Z"/><path class="cls-10" d="M130.29,286.62a11.4,11.4,0,0,1,2,.71,9.42,9.42,0,0,0,6.07,1.26,64.82,64.82,0,0,0,9.51-1.38,13.9,13.9,0,0,1,1.92-.41,11.91,11.91,0,0,0,5.72-2.21c.38-.25.75-.52,1.15-.76a2.82,2.82,0,0,1,2.36-.2c1.17.34,1.69,1.6.77,2.26-1.88,1.36-3.59,2.94-6.12,3.63-1.64.45-3.3.82-5,1.17-2.34.48-4.73.51-7.07.81a28.81,28.81,0,0,1-6.1-.29,5.41,5.41,0,0,1-4.42-2.84A13.8,13.8,0,0,1,130.29,286.62Z"/><path class="cls-11" d="M156.6,265.84c-.82,3.67-2.55,5.14-6.17,5.3a18,18,0,0,1-10.8-3,17.05,17.05,0,0,1-4.79-3.81,15.91,15.91,0,0,1-1.63-2.42,5,5,0,0,1,1.24-6.34,4,4,0,0,1,3.18-1.14c4,.26,7.91,1,11.28,3.51.55.4,1.14.75,1.73,1.1C154.33,261.25,154.82,261.8,156.6,265.84Z"/><path class="cls-10" d="M129.94,263.09c.44-.87.84-1.77,1.34-2.61.14-.24.54-.31,1-.54a29.25,29.25,0,0,1,2.26,2.93,12.33,12.33,0,0,0,3.17,3.47,31,31,0,0,0,3.52,2.33,15,15,0,0,0,7.17,1.74,7.64,7.64,0,0,0,4.47-1.3c.75-.5,1.53-1,2.39-1.5a5,5,0,0,1,.78.56,1.07,1.07,0,0,1,.11,1.56,6.43,6.43,0,0,1-1.43,1.36c-3.36,2-6.85,3.19-10.89,2.39a17.51,17.51,0,0,1-8.08-3.57C133.51,268,131.32,266.14,129.94,263.09Z"/><path class="cls-10" d="M230.34,277.22c.12,3.65-1.8,6.13-4.59,8.06a5.27,5.27,0,0,1-3.09.81,18.14,18.14,0,0,1-11.91-4.25,9.47,9.47,0,0,1-2.38-10.06,8.86,8.86,0,0,1,3.5-4.1c1.24-.81,2.38-1.81,3.68-2.49s3-1.41,4.73-.87c1.42.45,2.87.83,4.25,1.38a7.37,7.37,0,0,1,2,1.37,7.19,7.19,0,0,1,1.24,1.54,12.3,12.3,0,0,1,1.85,3.2A40.29,40.29,0,0,1,230.34,277.22Z"/><path class="cls-10" d="M179.48,211.94c.12,3.65-1.8,6.13-4.59,8.06a5.27,5.27,0,0,1-3.09.81,18.14,18.14,0,0,1-11.91-4.25,9.47,9.47,0,0,1-2.38-10.06,8.86,8.86,0,0,1,3.5-4.1c1.24-.81,2.38-1.81,3.68-2.49s3-1.41,4.73-.87c1.42.45,2.87.83,4.25,1.38a7.37,7.37,0,0,1,2,1.37,7.19,7.19,0,0,1,1.24,1.54,12.3,12.3,0,0,1,1.85,3.2A40.29,40.29,0,0,1,179.48,211.94Z"/><path class="cls-12" d="M172.53,254a14.08,14.08,0,0,0-1.51,1,5.65,5.65,0,0,1-4.48,1.13,23.26,23.26,0,0,1-8.45-2.46,72.31,72.31,0,0,1-7.34-4,17.22,17.22,0,0,1-4.57-4.69c-2-2.88.1-6.25,3.61-6.11a24.34,24.34,0,0,1,10.58,3.06c1.89,1,3.76,2.08,5.68,3a17.74,17.74,0,0,1,4.5,3.24C172.17,249.74,173.11,251.63,172.53,254Z"/><path class="cls-9" d="M156.35,236.21c.09,2.1-.75,4.11-1.48,6.12a7,7,0,0,1-2.93,3.29,10,10,0,0,0-2,1.41c-1.42,1.6-3.37,2-5.26,2.62a4.08,4.08,0,0,1-3.13-.4,14.44,14.44,0,0,1-6.45-6.32,8.16,8.16,0,0,1-.63-4.37,13.44,13.44,0,0,1,3.42-8.58,9.12,9.12,0,0,1,4.1-2.69c.32-.09.63-.2.94-.32,1.23-.48,2.49-1.28,3.78-.93,2.21.6,4.51,1,6.31,2.71a10.89,10.89,0,0,1,3,4.44A6.31,6.31,0,0,1,156.35,236.21Z"/><path class="cls-9" d="M176.22,280.19c.12,3.65-1.8,6.13-4.59,8.06a5.27,5.27,0,0,1-3.09.81,18.14,18.14,0,0,1-11.91-4.25,9.47,9.47,0,0,1-2.38-10.06,8.86,8.86,0,0,1,3.5-4.1c1.24-.81,2.38-1.81,3.68-2.49s3-1.41,4.73-.87c1.42.45,2.87.83,4.25,1.38a7.37,7.37,0,0,1,2,1.37,7.19,7.19,0,0,1,1.24,1.54,12.3,12.3,0,0,1,1.85,3.2A40.29,40.29,0,0,1,176.22,280.19Z"/><path class="cls-11" d="M179.93,278.07a8.91,8.91,0,0,1-7.7-2.61,4.79,4.79,0,0,1-1-1.39,9.05,9.05,0,0,1-.91-5.55c.22-1.22.51-2.43.81-3.63.78-3.15,2.9-5.11,5.72-6.45.37-.18.76-.33,1.13-.52a7.35,7.35,0,0,1,5.42-.83,10.11,10.11,0,0,1,5.82,3.53,6.28,6.28,0,0,1,1.46,3.08c.18,1.64.45,3.27.54,4.92a4,4,0,0,1-.56,1.86,17.19,17.19,0,0,1-6.38,6.76,6.12,6.12,0,0,1-2.11.65A20.51,20.51,0,0,1,179.93,278.07Z"/><path class="cls-7" d="M201.28,293.9a19.11,19.11,0,0,1-9.18-1.62,3.16,3.16,0,0,1-1.76-3.62,6,6,0,0,1,1-2,14.56,14.56,0,0,1,7.28-5.49c1.62-.58,3.3-1,4.94-1.55a15,15,0,0,1,7.35-.18c.72.12,1.44.3,2.16.41a7.3,7.3,0,0,1,5.6,4.34c.76,1.5.59,2.57-.8,3.56a30.8,30.8,0,0,1-7.61,4.41A25.91,25.91,0,0,1,201.28,293.9Z"/><path class="cls-8" d="M190.27,290.31a6.14,6.14,0,0,1,1.45.35,7.91,7.91,0,0,0,4.3,1,46.22,46.22,0,0,0,12.1-1.14,23.72,23.72,0,0,0,6.15-2.34,20.67,20.67,0,0,1,2.34-1.21,6.87,6.87,0,0,1,1.9-.5c1.1-.12,1.59.4,1.28,1.2a7.69,7.69,0,0,1-3.6,3.89,17.08,17.08,0,0,1-5.43,2l-6.63,1.3a3.48,3.48,0,0,1-1,.07,19.45,19.45,0,0,0-4.31.22c-.58.07-1.18.08-1.77.1-2.48.06-4.25-.75-5.21-2.56C191.44,292,190.93,291.34,190.27,290.31Z"/><path class="cls-7" d="M168.09,258.31c-1.15.93-2.31,1.8-3.36,2.76a4.69,4.69,0,0,1-2,1,36.93,36.93,0,0,1-10.24,1.71c-1.93,0-3.86.27-5.8.37a22,22,0,0,1-2.91,0c-2.73-.22-4.66-1.73-5.24-4a2.21,2.21,0,0,1,1.1-2.61,23.63,23.63,0,0,1,8.58-3.56,57.3,57.3,0,0,1,13.9-.67,6.5,6.5,0,0,1,4,1.91C167.15,256,168.32,256.9,168.09,258.31Z"/><path class="cls-8" d="M138.95,261.68a11.4,11.4,0,0,1,2,.71,9.42,9.42,0,0,0,6.07,1.26,64.82,64.82,0,0,0,9.51-1.38,13.9,13.9,0,0,1,1.92-.41,11.91,11.91,0,0,0,5.72-2.21c.38-.25.75-.52,1.15-.76a2.82,2.82,0,0,1,2.36-.2c1.17.34,1.69,1.6.77,2.26-1.88,1.36-3.59,2.94-6.12,3.63-1.64.45-3.3.82-5,1.17-2.34.48-4.73.51-7.07.81a28.81,28.81,0,0,1-6.1-.29,5.41,5.41,0,0,1-4.42-2.84A13.8,13.8,0,0,1,138.95,261.68Z"/><path class="cls-7" d="M186.11,258.23c-3.17,2-5.43,1.86-8.11-.57a18,18,0,0,1-5.53-9.76,17.05,17.05,0,0,1-.72-6.08,15.91,15.91,0,0,1,.54-2.86,5,5,0,0,1,5.34-3.64,4,4,0,0,1,3.06,1.43c2.69,3,4.88,6.31,5.55,10.43.11.67.29,1.34.45,2C187.73,253.37,187.69,254.11,186.11,258.23Z"/><path class="cls-8" d="M169.1,237.52c.92-.31,1.84-.66,2.79-.91.26-.07.61.16,1.08.3a29.25,29.25,0,0,1-.45,3.68,12.33,12.33,0,0,0-.19,4.69,31,31,0,0,0,.86,4.14,15,15,0,0,0,3.88,6.28,7.64,7.64,0,0,0,4.09,2.23c.89.17,1.77.39,2.75.61a5,5,0,0,1,.17.95,1.07,1.07,0,0,1-1,1.19,6.43,6.43,0,0,1-2,0c-3.79-.94-7.11-2.55-9.42-6a17.51,17.51,0,0,1-3.23-8.22C168.16,243.55,167.93,240.67,169.1,237.52Z"/><path class="cls-7" d="M216.52,276.66a3.46,3.46,0,0,1-3.28-1.43,6.28,6.28,0,0,1-.78-6.95,40.18,40.18,0,0,1,7.81-11.4,16.5,16.5,0,0,1,6.68-3.65,4.47,4.47,0,0,1,4.85,1.35,3.12,3.12,0,0,1,.91,3.21,22.64,22.64,0,0,1-3,7.28c-1.87,2.65-3.53,5.45-6,7.63a20.13,20.13,0,0,1-5.43,3.49A9,9,0,0,1,216.52,276.66Z"/><path class="cls-8" d="M214.51,277.67l-.74-2.3a7.29,7.29,0,0,1,3-1.2,12.21,12.21,0,0,0,7.11-4.7c1.29-1.65,2.77-3.17,4-4.87a38.29,38.29,0,0,0,2.31-4.09c.75-1.38,1.46-2.78,2.25-4.13.46-.78.75-.77,2.14-.11a14.66,14.66,0,0,1-.44,3c-1.88,5.26-4,10.39-8.18,14.41a50.18,50.18,0,0,1-3.95,3.46,2.27,2.27,0,0,1-2.66.53c-.62-.3-1.55,0-2.34,0S215.42,277.69,214.51,277.67Z"/><path class="cls-7" d="M159.82,300.67a14.08,14.08,0,0,0-.91,1.56,5.65,5.65,0,0,1-3.5,3,23.26,23.26,0,0,1-8.66,1.6,72.31,72.31,0,0,1-8.37-.3,17.22,17.22,0,0,1-6.19-2.14c-3-1.69-2.71-5.63.48-7.08a24.34,24.34,0,0,1,10.83-2c2.15.05,4.29.17,6.44.15a17.74,17.74,0,0,1,5.47.88C157.6,297,159.29,298.31,159.82,300.67Z"/><path class="cls-8" d="M161,302.65c-.53,2.29-2.51,3.08-4.22,4.12a23.91,23.91,0,0,1-3.54,1.72,20.69,20.69,0,0,1-2.6.65c-4.6,1.17-9.14.54-13.58-.74a15.3,15.3,0,0,1-5.25-3.12,5.6,5.6,0,0,1-1.68-3,1.27,1.27,0,0,1,1.9.29c1.47,1.89,3.57,2.49,5.71,3.12a26.12,26.12,0,0,0,10.24.64,19.74,19.74,0,0,0,6.89-1.65,4.25,4.25,0,0,0,1.91-1.46,5.12,5.12,0,0,1,1-1.05C159.12,301,159.6,301.09,161,302.65Z"/><path class="cls-7" d="M163.67,301.7a8.43,8.43,0,0,1,5.17-5.8,26.72,26.72,0,0,1,6.83-1.85,13.22,13.22,0,0,1,5.24.53c4.58,1.15,6.74,3.35,8,5.92.44.87-.21,1.67-.74,2.34-2,2.53-5.36,4.29-10.45,4.82-.83.09-1.7.1-2.51.22-4.39.63-10.46-1.72-10.92-4.13A18.22,18.22,0,0,0,163.67,301.7Z"/><path class="cls-8" d="M164.42,305a25.89,25.89,0,0,1,3.2.74,26,26,0,0,0,9.62,1.35,8.9,8.9,0,0,0,4.71-1.44c1.63-1,3.15-2.15,4.73-3.22.74-.5,1.5-1,2.28-1.5,1.33.35,1.46.93,1.22,1.57a6.31,6.31,0,0,1-2.14,2.79,23.11,23.11,0,0,1-15.15,4.85,13.63,13.63,0,0,1-7-2.14A3,3,0,0,1,164.42,305Z"/><path class="cls-11" d="M225,285c3.79-.41,6.42,1.23,8.59,3.66a5.47,5.47,0,0,1,1.25,4.9A46.47,46.47,0,0,1,232,302a2.88,2.88,0,0,1-1.49,1.59c-2.74,1.16-5.49,2.26-8.56,2.3-2.78,0-4.71-1.4-6.29-3.4a11.52,11.52,0,0,1-2.06-5c-.69-3.43,1.58-8.54,4.76-10.24a7.73,7.73,0,0,0,1.09-.59A8,8,0,0,1,225,285Z"/><path class="cls-12" d="M194.3,265.63a8.91,8.91,0,0,1-7.7-2.61,4.79,4.79,0,0,1-1-1.39,9.05,9.05,0,0,1-.91-5.55c.22-1.22.51-2.43.81-3.63.78-3.15,2.9-5.11,5.72-6.45.37-.18.76-.33,1.13-.52a7.35,7.35,0,0,1,5.42-.83,10.11,10.11,0,0,1,5.82,3.53,6.28,6.28,0,0,1,1.46,3.08c.18,1.64.45,3.27.54,4.92A4,4,0,0,1,205,258a17.19,17.19,0,0,1-6.38,6.76,6.12,6.12,0,0,1-2.11.65A20.51,20.51,0,0,1,194.3,265.63Z"/><path class="cls-12" d="M160.19,302.14a8.91,8.91,0,0,1-7.7-2.61,4.79,4.79,0,0,1-1-1.39,9.05,9.05,0,0,1-.91-5.55c.22-1.22.51-2.43.81-3.63.78-3.15,2.9-5.11,5.72-6.45.37-.18.76-.33,1.13-.52a7.35,7.35,0,0,1,5.42-.83,10.11,10.11,0,0,1,5.82,3.53,6.28,6.28,0,0,1,1.46,3.08c.18,1.64.45,3.27.54,4.92a4,4,0,0,1-.56,1.86,17.19,17.19,0,0,1-6.38,6.76,6.12,6.12,0,0,1-2.11.65A20.51,20.51,0,0,1,160.19,302.14Z"/><path class="cls-11" d="M187.74,301.71a19.11,19.11,0,0,1-6.48-6.7,3.16,3.16,0,0,1,.7-4,6,6,0,0,1,2-1.09,14.56,14.56,0,0,1,9.12-.17c1.65.48,3.27,1.12,4.91,1.64A15,15,0,0,1,204,295.6c.51.52,1,1.08,1.51,1.6a7.3,7.3,0,0,1,2,6.8c-.26,1.66-1,2.43-2.74,2.42a30.8,30.8,0,0,1-8.75-.9A25.91,25.91,0,0,1,187.74,301.71Z"/><path class="cls-10" d="M180.92,292.34a6.14,6.14,0,0,1,1,1.13,7.91,7.91,0,0,0,2.87,3.35A46.22,46.22,0,0,0,195.23,303a23.72,23.72,0,0,0,6.36,1.72,20.67,20.67,0,0,1,2.6.39,6.87,6.87,0,0,1,1.83.71c1,.55,1.06,1.25.33,1.72a7.69,7.69,0,0,1-5.2,1,17.08,17.08,0,0,1-5.57-1.56l-6.14-2.83a3.48,3.48,0,0,1-.85-.53,19.45,19.45,0,0,0-3.62-2.35c-.51-.29-1-.63-1.49-1-2-1.41-3-3.1-2.72-5.13C180.87,294.42,180.86,293.57,180.92,292.34Z"/><path class="cls-11" d="M191.11,213.47a19.11,19.11,0,0,1-6.48-6.7,3.16,3.16,0,0,1,.7-4,6,6,0,0,1,2-1.09,14.56,14.56,0,0,1,9.12-.17c1.65.48,3.27,1.12,4.91,1.64a15,15,0,0,1,6.06,4.17c.51.52,1,1.08,1.51,1.6a7.3,7.3,0,0,1,2,6.8c-.26,1.66-1,2.43-2.74,2.42a30.8,30.8,0,0,1-8.75-.9A25.91,25.91,0,0,1,191.11,213.47Z"/><path class="cls-10" d="M184.3,204.1a6.14,6.14,0,0,1,1,1.13,7.91,7.91,0,0,0,2.87,3.35,46.22,46.22,0,0,0,10.47,6.17,23.72,23.72,0,0,0,6.36,1.72,20.67,20.67,0,0,1,2.6.39,6.87,6.87,0,0,1,1.83.71c1,.55,1.06,1.25.33,1.72a7.69,7.69,0,0,1-5.2,1,17.08,17.08,0,0,1-5.57-1.56L192.81,216a3.48,3.48,0,0,1-.85-.53,19.45,19.45,0,0,0-3.62-2.35c-.51-.29-1-.63-1.49-1-2-1.41-3-3.1-2.72-5.13C184.24,206.18,184.23,205.33,184.3,204.1Z"/><path class="cls-11" d="M213.66,255.64a3.46,3.46,0,0,1-3.28-1.43,6.28,6.28,0,0,1-.78-6.95,40.18,40.18,0,0,1,7.81-11.4,16.5,16.5,0,0,1,6.68-3.65,4.47,4.47,0,0,1,4.85,1.35,3.12,3.12,0,0,1,.91,3.21,22.64,22.64,0,0,1-3,7.28c-1.87,2.65-3.53,5.45-6,7.63a20.13,20.13,0,0,1-5.43,3.49A9,9,0,0,1,213.66,255.64Z"/><path class="cls-10" d="M211.65,256.65l-.74-2.3a7.29,7.29,0,0,1,3-1.2,12.21,12.21,0,0,0,7.11-4.7c1.29-1.65,2.77-3.17,4-4.87a38.29,38.29,0,0,0,2.31-4.09c.75-1.38,1.46-2.78,2.25-4.13.46-.78.75-.77,2.14-.11a14.66,14.66,0,0,1-.44,3c-1.88,5.26-4,10.39-8.18,14.41a50.18,50.18,0,0,1-3.95,3.46,2.27,2.27,0,0,1-2.66.53c-.62-.3-1.55,0-2.34,0S212.56,256.67,211.65,256.65Z"/><path class="cls-11" d="M182.26,220.6c-1.15.93-2.31,1.8-3.36,2.76a4.69,4.69,0,0,1-2,1,36.93,36.93,0,0,1-10.24,1.71c-1.93,0-3.86.27-5.8.37a22,22,0,0,1-2.91,0c-2.73-.22-4.66-1.73-5.24-4a2.21,2.21,0,0,1,1.1-2.61,23.63,23.63,0,0,1,8.58-3.56,57.3,57.3,0,0,1,13.9-.67,6.5,6.5,0,0,1,4,1.91C181.32,218.33,182.48,219.2,182.26,220.6Z"/><path class="cls-10" d="M153.11,224a11.4,11.4,0,0,1,2,.71,9.42,9.42,0,0,0,6.07,1.26,64.82,64.82,0,0,0,9.51-1.38,13.9,13.9,0,0,1,1.92-.41,11.91,11.91,0,0,0,5.72-2.21c.38-.25.75-.52,1.15-.76a2.82,2.82,0,0,1,2.36-.2c1.17.34,1.69,1.6.77,2.26-1.88,1.36-3.59,2.94-6.12,3.63-1.64.45-3.3.82-5,1.17-2.34.48-4.73.51-7.07.81a28.81,28.81,0,0,1-6.1-.29,5.41,5.41,0,0,1-4.42-2.84A13.8,13.8,0,0,1,153.11,224Z"/><path class="cls-7" d="M204.81,224.27a19.11,19.11,0,0,1-2.55-9,3.16,3.16,0,0,1,2.49-3.16,6,6,0,0,1,2.24,0,14.56,14.56,0,0,1,8.12,4.15c1.23,1.2,2.35,2.53,3.55,3.76a15,15,0,0,1,3.38,6.53c.2.7.36,1.42.58,2.12a7.3,7.3,0,0,1-1.45,6.93c-1,1.34-2.05,1.65-3.55.84a30.8,30.8,0,0,1-7.29-4.92A25.91,25.91,0,0,1,204.81,224.27Z"/><path class="cls-8" d="M203.22,212.79a6.14,6.14,0,0,1,.32,1.46,7.91,7.91,0,0,0,1,4.31,46.22,46.22,0,0,0,6.31,10.38,23.72,23.72,0,0,0,4.79,4.51A20.67,20.67,0,0,1,217.7,235a6.87,6.87,0,0,1,1.28,1.49c.58.94.34,1.6-.52,1.68a7.69,7.69,0,0,1-5.07-1.53,17.08,17.08,0,0,1-4.18-4c-1.36-1.8-2.72-3.59-4.07-5.39a3.48,3.48,0,0,1-.5-.87,19.45,19.45,0,0,0-2.09-3.78c-.32-.5-.59-1-.86-1.55-1.14-2.21-1.18-4.15,0-5.81C202.19,214.59,202.58,213.84,203.22,212.79Z"/><path class="cls-7" d="M220.17,224a3.46,3.46,0,0,1-3.28-1.43,6.28,6.28,0,0,1-.78-6.95,40.18,40.18,0,0,1,7.81-11.4,16.5,16.5,0,0,1,6.68-3.65,4.47,4.47,0,0,1,4.85,1.35,3.12,3.12,0,0,1,.91,3.21,22.64,22.64,0,0,1-3,7.28c-1.87,2.65-3.53,5.45-6,7.63a20.13,20.13,0,0,1-5.43,3.49A9,9,0,0,1,220.17,224Z"/><path class="cls-8" d="M218.15,225l-.74-2.3a7.29,7.29,0,0,1,3-1.2,12.21,12.21,0,0,0,7.11-4.7c1.29-1.65,2.77-3.17,4-4.87a38.29,38.29,0,0,0,2.31-4.09c.75-1.38,1.46-2.78,2.25-4.13.46-.78.75-.77,2.14-.11a14.66,14.66,0,0,1-.44,3c-1.88,5.26-4,10.39-8.18,14.41a50.18,50.18,0,0,1-3.95,3.46,2.27,2.27,0,0,1-2.66.53c-.62-.3-1.55,0-2.34,0S219.07,225,218.15,225Z"/><path class="cls-7" d="M180.45,233.42a14.08,14.08,0,0,0-.91,1.56,5.65,5.65,0,0,1-3.5,3,23.26,23.26,0,0,1-8.66,1.6,72.31,72.31,0,0,1-8.37-.3,17.22,17.22,0,0,1-6.19-2.14c-3-1.69-2.71-5.63.48-7.08a24.34,24.34,0,0,1,10.83-2c2.15.05,4.29.17,6.44.15a17.74,17.74,0,0,1,5.47.88C178.23,229.8,179.92,231.07,180.45,233.42Z"/><path class="cls-8" d="M181.6,235.41c-.53,2.29-2.51,3.08-4.22,4.12a23.91,23.91,0,0,1-3.54,1.72,20.69,20.69,0,0,1-2.6.65c-4.6,1.17-9.14.54-13.58-.74a15.3,15.3,0,0,1-5.25-3.12,5.6,5.6,0,0,1-1.68-3,1.27,1.27,0,0,1,1.9.29c1.47,1.89,3.57,2.49,5.71,3.12a26.12,26.12,0,0,0,10.24.64,19.74,19.74,0,0,0,6.89-1.65,4.25,4.25,0,0,0,1.91-1.46,5.12,5.12,0,0,1,1-1.05C179.75,233.77,180.23,233.85,181.6,235.41Z"/><path class="cls-11" d="M134.59,226.67a3.46,3.46,0,0,1-3.28-1.43,6.28,6.28,0,0,1-.78-6.95,40.18,40.18,0,0,1,7.81-11.4,16.5,16.5,0,0,1,6.68-3.65,4.47,4.47,0,0,1,4.85,1.35,3.12,3.12,0,0,1,.91,3.21,22.64,22.64,0,0,1-3,7.28c-1.87,2.65-3.53,5.45-6,7.63a20.13,20.13,0,0,1-5.43,3.49A9,9,0,0,1,134.59,226.67Z"/><path class="cls-10" d="M132.58,227.68l-.74-2.3a7.29,7.29,0,0,1,3-1.2,12.21,12.21,0,0,0,7.11-4.7c1.29-1.65,2.77-3.17,4-4.87a38.29,38.29,0,0,0,2.31-4.09c.75-1.38,1.46-2.78,2.25-4.13.46-.78.75-.77,2.14-.11a14.66,14.66,0,0,1-.44,3c-1.88,5.26-4,10.39-8.18,14.41a50.18,50.18,0,0,1-3.95,3.46,2.27,2.27,0,0,1-2.66.53c-.62-.3-1.55,0-2.34,0S133.49,227.7,132.58,227.68Z"/><path class="cls-11" d="M186.47,243.12a8.43,8.43,0,0,1,5.17-5.8,26.72,26.72,0,0,1,6.83-1.85,13.22,13.22,0,0,1,5.24.53c4.58,1.15,6.74,3.35,8,5.92.44.87-.21,1.67-.74,2.34-2,2.53-5.36,4.29-10.45,4.82-.83.09-1.7.1-2.51.22-4.39.63-10.46-1.72-10.92-4.13A18.22,18.22,0,0,0,186.47,243.12Z"/><path class="cls-10" d="M187.22,246.46a25.89,25.89,0,0,1,3.2.74,26,26,0,0,0,9.62,1.35,8.9,8.9,0,0,0,4.71-1.44c1.63-1,3.15-2.15,4.73-3.22.74-.5,1.5-1,2.28-1.5,1.33.35,1.46.93,1.22,1.57a6.31,6.31,0,0,1-2.14,2.79,23.11,23.11,0,0,1-15.15,4.85,13.63,13.63,0,0,1-7-2.14A3,3,0,0,1,187.22,246.46Z"/><path class="cls-7" d="M182.61,227.8a8.43,8.43,0,0,1,6.56-4.17,26.72,26.72,0,0,1,7.08.09,13.22,13.22,0,0,1,4.89,1.94c4.09,2.36,5.57,5.06,6.1,7.89.18,1-.66,1.55-1.36,2-2.63,1.88-6.33,2.66-11.37,1.77-.83-.15-1.66-.36-2.48-.47-4.4-.6-9.59-4.52-9.37-7A18.22,18.22,0,0,0,182.61,227.8Z"/><path class="cls-8" d="M182.42,231.22a25.89,25.89,0,0,1,2.87,1.58,26,26,0,0,0,8.88,3.93,8.9,8.9,0,0,0,4.92-.09c1.86-.55,3.62-1.2,5.43-1.8.85-.28,1.72-.54,2.6-.82,1.18.7,1.15,1.29.74,1.84a6.31,6.31,0,0,1-2.82,2.1,23.11,23.11,0,0,1-15.9.52,13.63,13.63,0,0,1-6.18-4A3,3,0,0,1,182.42,231.22Z"/><path class="cls-12" d="M182.07,231.86a8.91,8.91,0,0,1-7.7-2.61,4.79,4.79,0,0,1-1-1.39,9.05,9.05,0,0,1-.91-5.55c.22-1.22.51-2.43.81-3.63.78-3.15,2.9-5.11,5.72-6.45.37-.18.76-.33,1.13-.52a7.35,7.35,0,0,1,5.42-.83,10.11,10.11,0,0,1,5.82,3.53,6.28,6.28,0,0,1,1.46,3.08c.18,1.64.45,3.27.54,4.92a4,4,0,0,1-.56,1.86,17.19,17.19,0,0,1-6.38,6.76,6.12,6.12,0,0,1-2.11.65A20.51,20.51,0,0,1,182.07,231.86Z"/><path class="cls-2" d="M136.46,144.42a27.09,27.09,0,0,1,8.86-1.34c3.56-.06,7.13,0,10.68-.06,4.17-.11,8.33-.35,12.5-.5,9.09-.35,18.19-.14,27.29,0,5.29.07,10.59.32,15.86.15,4.7-.15,9.32.15,14,.44a15.51,15.51,0,0,1,6.13,1.5c0,.52-.59.52-1,.51-2.09,0-4.2,0-6.25-.22a52.13,52.13,0,0,0-6.6-.19q-9,.09-18.06,0c-7.62-.1-15.24-.33-22.86-.4-2.69,0-5.4.18-8.07.4a116,116,0,0,1-12.5.11c-5.14-.13-10.32-.31-15.39.54-.71.12-1.44.2-2.17.25C138.29,145.59,138,145.43,136.46,144.42Z"/><path class="cls-2" d="M233.15,150.38a13.88,13.88,0,0,1-5,.57c-4.42-.25-8.84-.48-13.25-.74-6.76-.41-13.53-.33-20.29-.33-5.25,0-10.51-.21-15.77-.28-2.33,0-4.66.06-7,.07-3.57,0-7.13,0-10.7,0q-7.56.06-15.12.21c-1.22,0-2.44.14-3.66.26a9.89,9.89,0,0,1-5.29-.59c-.13-.75.71-1,1.35-1,8.78-.67,17.6-1,26.46-.93,8.12.08,16.24.23,24.35.28,6.27,0,12.55,0,18.82,0,.86,0,1.73,0,2.58,0,5.28.31,10.55.68,15.83.92A24.63,24.63,0,0,1,233.15,150.38Z"/><path class="cls-2" d="M236.8,169.53a16,16,0,0,1-5.35.57c-4.75-.25-9.5-.49-14.25-.76-7.27-.41-14.54-.35-21.82-.35-5.65,0-11.3-.22-17-.3-2.5,0-5,.05-7.51.06-3.84,0-7.67,0-11.51,0q-8.13.05-16.26.19c-1.31,0-2.63.14-3.93.25a11.39,11.39,0,0,1-5.69-.6c-.14-.75.76-.95,1.45-1,9.44-.66,18.93-1,28.45-.9,8.73.09,17.46.25,26.18.32,6.75,0,13.49,0,20.24,0,.93,0,1.86,0,2.78.05,5.67.31,11.34.7,17,.94A28.21,28.21,0,0,1,236.8,169.53Z"/><path class="cls-13" d="M238.5,182.48c-.11,6.57-.24,13.13-.35,19.7,0,1.85,0,3.71,0,5.56-.1,7-.33,14-.3,21,0,6.7.38,13.4.49,20.1.1,6,.09,12,.06,18,0,6.28-.3,12.56-.17,18.83.08,3.84-.17,7.63-.3,11.43-.14,4-1.43,7.48-2.78,10.89-.63,1.59-2,2.69-2.82,4.17a11.27,11.27,0,0,1-8.4,5.9c-4.73.85-9.46.55-14.19.64-4.41.08-8.82,0-13.22.07-3.41.05-6.83.31-10.24.32s-7.05-.21-10.58-.29c-7.17-.16-14.34-.23-21.5-.47-3.3-.11-6.61-.45-9.9-.85-2.4-.29-4.34-1.69-5.91-4.22a40.94,40.94,0,0,0-4.43-5.76,30.35,30.35,0,0,1-6.45-12.74,11.83,11.83,0,0,1-.32-3.78c.22-3,.7-5.91.91-8.88a73.86,73.86,0,0,0-.09-12.83,31.58,31.58,0,0,1-.27-4.69c.42-8.55-.08-17.11.14-25.66.18-7,.62-14,.9-21s.44-14,1.26-20.93a5.29,5.29,0,0,0,0-1.69c-.66-3-.19-5.87.09-8.88-.13-1.12,0-11.4,1.72-11.43,52.22-.88,84.25,3.16,105,3.64C239.05,178.68,238.51,182.1,238.5,182.48Z"/><path class="cls-14" d="M225.95,226.67c-1.2-2.05-5.95-3-6.08,0s-.58,13-.57,17.14,1.14,30.36.57,32.85-4,11-6.1,12.4-8.32,4-6,8.72,6.65,8.69,9.62,7.79,8.58-3.12,9.27-7.79A164,164,0,0,0,227.79,279c0-5.34-.23-16.29,0-25.87s-.67-13.67,0-19S225.95,226.67,225.95,226.67Z"/><path class="cls-14" d="M198.62,297.78s-5.82.49-5.24,4.45,6.15,8.92,9.42,7.53,10.52-6,6.29-8.8S198.62,297.78,198.62,297.78Z"/></g></g></svg>