<svg xmlns="http://www.w3.org/2000/svg" xmlns:xlink="http://www.w3.org/1999/xlink" viewBox="0 0 360 360"><defs><style>.cls-1{fill:none;}.cls-2{isolation:isolate;}.cls-3,.cls-4{fill:#b5d0e1;}.cls-4{mix-blend-mode:multiply;}.cls-5{clip-path:url(#clip-path);}.cls-6{fill:#fff;}.cls-7{fill:#6a747c;}.cls-8{fill:#004270;}</style><clipPath id="clip-path"><rect class="cls-1" x="32.7" y="28.34" width="262.44" height="277.66"/></clipPath></defs><title>Icon_Event_Comedy_Tour_3C</title><g class="cls-2"><g id="Background"><circle id="_27.62.111" data-name="27.62.111" class="cls-3" cx="180" cy="180" r="180"/></g><g id="Active_Artwork_5_x_5" data-name="Active Artwork 5 x 5"><path class="cls-4" d="M42.71,177.09c17.81-91,86.64,33.61,86.64,33.61s2.26-24,32.65-52.31c0,0-28.55-21.83-58.94-28.66-21.13-5.75-53.79-8.82-65.61,21.58-5.42,14,4.62,29,5.26,25.78"/><g class="cls-5"><path class="cls-6" d="M274.9,286.23c-30.55,28.56-74.52,21.57-111.31-17.81-35.52-38-39.86-83.1-10.68-110.37,30.35-28.37,76.41-21.5,112.1,16.69,36.07,38.6,40.26,83.12,9.89,111.5"/><path class="cls-7" d="M143.27,105.69s42.68,18.45,62.29,25.16c-7.54,2.33-31.49,3.28-46.73,17.53a174.35,174.35,0,0,0-15.72,17.08c-34.87-32.29-43.2-45.6-43.2-45.6-12.52-17.15-23.48-41.8-8.8-65.44C99.59,40.76,112,40.35,112,40.35s-46.78,36.33,31.24,65.34"/><path class="cls-7" d="M234.1,49.85a15.92,15.92,0,1,1-19.85-10.64A15.92,15.92,0,0,1,234.1,49.85"/><path class="cls-8" d="M123.27,44.54A8.2,8.2,0,1,1,113,39.06a8.2,8.2,0,0,1,10.22,5.48"/><path class="cls-7" d="M57.7,177.45a11.58,11.58,0,1,1-14.44-7.74,11.58,11.58,0,0,1,14.44,7.74"/><path class="cls-8" d="M191.41,167.73C172.3,178,170.88,203.4,170.88,203.4a41.31,41.31,0,0,1,26.57-24.6c18.08-5.44,24.21,8.5,24.21,8.5s-3.41-34-30.24-19.57m69.45,28.18s-13.3-25-27.36-42.75a150.21,150.21,0,0,0-30.93-28.89,103.42,103.42,0,0,0-43.74,24.11c-20.3,19-36,45.88-36,45.88s13.17,33.88,64.19,75C227.29,301.77,277.49,306,277.49,306s2.67-9.25-3.06-28.19-4.69-13.28-4.69-13.28-16.33,16.82-38.64,2.67-30.7-45-30.7-45S223,237.58,245.76,231c10.88-3.13,12-4.17,12-4.17l-23.29-26.48s6.54-5.65,26.4-4.47m14,90.31c-30.55,28.56-74.52,21.57-111.31-17.81-35.52-38-39.86-83.1-10.68-110.37,30.35-28.37,76.41-21.5,112.1,16.69,36.07,38.6,40.25,83.12,9.89,111.5"/><path class="cls-8" d="M143.27,105.69c-2.49-14.22-9.31-69.52,33.36-77.18,10.1-1.81,23.91,11,23.91,11S107,43.57,187,111.48l16.53,13.41c3.8,2.81,11.27,8.86,11.27,8.86s-35.69-4.39-56,14.62c0,0-11.6-15.53-15.56-42.69"/><path class="cls-8" d="M39.57,167.21c17.81-91,86.64,33.61,86.64,33.61s2.26-24,32.65-52.31c0,0-28.55-21.83-58.94-28.66-21.13-5.75-53.79-8.82-65.61,21.58-5.42,14,4.62,29,5.26,25.78"/><path class="cls-8" d="M204.1,219.71a12.74,12.74,0,1,1-14.71-10.4,12.74,12.74,0,0,1,14.71,10.4"/></g></g></g></svg>