<svg xmlns="http://www.w3.org/2000/svg" viewBox="0 0 360 360"><defs><style>.cls-1{isolation:isolate;}.cls-2,.cls-3{fill:#b5d0e1;}.cls-18,.cls-3,.cls-6{mix-blend-mode:multiply;}.cls-4{fill:#14a89d;}.cls-5{fill:#148077;}.cls-6{fill:#c1b58d;}.cls-7{fill:#615b48;}.cls-8{fill:#fff;}.cls-9{fill:#eceef3;}.cls-10{fill:#fb3449;}.cls-11,.cls-18{fill:#fdddc4;}.cls-12{fill:#004272;}.cls-13{fill:#f3e4b2;}.cls-14{fill:#007485;}.cls-15{fill:#009ab1;}.cls-16{fill:#00c1de;}.cls-17{fill:#c9293a;}</style></defs><title>Icons_Event_Garden_Lover_01_3C</title><g class="cls-1"><g id="Background"><circle id="_27.62.111" data-name="27.62.111" class="cls-2" cx="180" cy="180" r="180"/></g><g id="Artwork"><path class="cls-3" d="M231,273.61c8.32,2.91,26.22-14.26,19.11-20.27S227,242.47,215.3,242.47s-28.5,3.65-50,0-47.05.12-67.47,4.32-26.61-4.1-29.21,7.65A20.77,20.77,0,0,0,85,279.64c11.54,2.13,14.86,5.55,24.17,4.48,7.21-.83,33,1.32,42.48,0s33.21-6.85,41.33-7.66S210.41,266.4,231,273.61Z"/><path class="cls-4" d="M313.85,166.48C312.66,178.68,299,188,287.19,184.71A3.33,3.33,0,0,1,285,183.3a3.39,3.39,0,0,1,.09-2.55,27.61,27.61,0,0,1,25-18.63,4.2,4.2,0,0,1,2.8.66C313.9,163.63,314,165.15,313.85,166.48Z"/><path class="cls-4" d="M258.65,150.2c-1.4,2.62-5.36,1.9-8,.47-10.93-6-17.84-21.38-10.26-31.29,6.21-.9,12.18,3.61,15,9.2s3.26,12.06,3.61,18.32A6.19,6.19,0,0,1,258.65,150.2Z"/><path class="cls-4" d="M217.52,181.83a5.52,5.52,0,0,1,1.05-4c1.38-1.53,3.79-1.42,5.79-.94a25.88,25.88,0,0,1,18.78,18.74C233.12,201.73,217.95,193.53,217.52,181.83Z"/><path class="cls-5" d="M312.87,162.79a4.2,4.2,0,0,0-2.8-.66,27.61,27.61,0,0,0-25,18.63,3.39,3.39,0,0,0-.09,2.55,2,2,0,0,0,.53.62Z"/><path class="cls-4" d="M309.94,144c-6.25,9-21,10.4-28.8,2.67a3,3,0,0,1-1.11-2.06,3,3,0,0,1,1.18-2,24.72,24.72,0,0,1,27.67-3.7,3.76,3.76,0,0,1,1.9,1.73C311.21,141.76,310.61,143,309.94,144Z"/><path class="cls-5" d="M310.78,140.65a3.76,3.76,0,0,0-1.9-1.73,24.72,24.72,0,0,0-27.67,3.7,3,3,0,0,0-1.18,2,1.79,1.79,0,0,0,.14.71Z"/><path class="cls-5" d="M218.2,178.45a6.25,6.25,0,0,0-.68,3.38c.42,11.37,14.76,19.4,24.76,14.28Z"/><path class="cls-5" d="M255,151.95l-13.7-32.6c-.31,0-.61,0-.91,0-7.58,9.91-.67,25.29,10.26,31.29A10.19,10.19,0,0,0,255,151.95Z"/><path class="cls-4" d="M283.65,146.81c-2,1.44-4.66-.53-6.08-2.53-5.94-8.4-5.5-22.31,3.7-26.92,4.93,1.58,7.73,7.08,7.82,12.26s-1.95,10.12-3.95,14.9A5.11,5.11,0,0,1,283.65,146.81Z"/><path class="cls-5" d="M280.35,146.81,282,117.67c-.23-.1-.45-.23-.69-.3-9.2,4.61-9.64,18.52-3.7,26.92A8.41,8.41,0,0,0,280.35,146.81Z"/><path class="cls-6" d="M261.05,156.13c.2-.16-1-2.85-.82-3l-2.37-.63,4,10a1.43,1.43,0,0,0,2.74,0l.24-.64c.64-1.71-2.1-2.45-2.74-.75l-.24.64h2.74c-1.35-3.33-3.06-5.27-4.4-8.6-.42-1-1.12-2.71-2-2l-.61.48c-1.43,1.13.59,3.13,2,2Z"/><path class="cls-7" d="M296.29,283.13c-3.63-2.12-7.74-3.41-11.59-5.16-5.64-2.57-11.32-5.08-16.82-8-4.25-2.22-4.22-7.13-4.18-10.69a108.45,108.45,0,0,1,2.66-24.05,190.47,190.47,0,0,1,9.2-27.37c2.29-5.59,6-10.61,9.11-15.85,1.57-2.62,4.75-4.67,2.82-8.44-.3-.59-.6-1.64-1-1.66a3.64,3.64,0,0,0-2.64.64c-2.08,2.41-4.38,4.78-5.8,7.58-4.45,8.77-8.54,17.72-12.8,26.59a12.45,12.45,0,0,1-1.55,1.8c.38-5.29.63-9.58,1-13.85.78-8.84,1.63-17.67,2.44-26.5.85-9.29,4.26-17.24,11.76-23.19,2.49-2,5.7-3.87,3.66-8-.29-.59-.52-1.55-1-1.66a2.48,2.48,0,0,0-2.07.56c-4,4.33-7.9,8.75-11.86,13.11a24.87,24.87,0,0,1-2.3,2c-.53-.81-1.11-1.59-1.59-2.42-1.73-3-3.34-6.06-5.23-8.94-.42-.65-2.24-1.2-2.65-.86a4.56,4.56,0,0,0-1.73,3.13,15.31,15.31,0,0,0,1.4,5.52c3.7,8.12,4.84,16.82,4.51,25.48-.42,11.25-2,22.47-3.07,33.7L256,217c-.88-1.6-1.85-3.16-2.61-4.81-2.38-5.13-4.6-10.34-7.11-15.4a5.19,5.19,0,0,0-2.91-1.83c-1.16,1.3-3,2.23-1.82,4.82,2.56,5.59,5.43,11.21,6.77,17.14a306,306,0,0,1,5,30.83c.68,5.68-.2,11.41-5.25,15.39-3.66,2.88-7.06,6.35-11.16,8.32-4.86,2.34-10.47,3.08-15.56,5-5.7,2.17-12.86,3.69-9.64,9.5,0,0,6.79-2.57,10.64-3.92,12.9-4.74,7.45,0,7.88,5.2.26,3.12-.06,4.19,4.46,4.11,5-8.21,6.66-9.54,9.48-9.61,1.4.8-.33,2.25-1,3.86a1.37,1.37,0,0,0,.26,1.39c3.31,3.12,6.53-6,10.09-4.73,11.4,1.6,11.69,11.74,14.18,11.19,5.88.18,4-11.79,4.26-11.71,5.79-3.56,25.38,7.75,26.53,6.25C299.1,287.32,297.65,283.92,296.29,283.13Z"/><path class="cls-6" d="M266.35,182.78c.62-5.3.81-4,1.54-9.27,1.2-8.69,6.81-16.33,13.84-21.12,1.5-1,.08-3.48-1.43-2.45-4,2.7-8.12,5.54-10.55,9.78-2.84,5-5.41,11.28-6.08,16.12-2,14.91-2.19,30.37-2,45.45,0,1-.39,2.88-1.3,7.2-.86-6.7-2.21-6.93-4.89-12.35-.81-1.64-2.11-3.92-2.51-2.32l-.53,2.66c3.41,6.91,1.85,3.34,3.7,10.86,2.09,8.48,1.17,16.71-.48,25.18-.68,3.48-1.21,7.38-3,10.51s-5,5.58-7.8,8a63.44,63.44,0,0,0-12.84,14.16c-.87,1.37,2.77.09,3.89-1.06,5.57-5.7,9.47-8.62,15-14.32,1.75,6.92,10.44,9.12,13.73,15.54a1.43,1.43,0,0,0,2.6-1.09,45.78,45.78,0,0,0-4.22-9.45c.39.23.78.45,1.17.67a15.33,15.33,0,0,0,5.67,2.75c1.81.47,2.41-2.08.75-2.74-1.26-.5-2.46-1.06-3.63-1.65-4-2.57-5.85-7.17-6.47-12.55a123.86,123.86,0,0,0,.79-16.28c.82-5,1.94-9.7,2.71-13a125.6,125.6,0,0,1,16.3-38.57c.85-1.34.62-6.61-.42-5.35-2.78,3.36-4.92,7.79-6.94,12.42a128.32,128.32,0,0,0-6.43,14,37.23,37.23,0,0,1-2.73,4.29A316.13,316.13,0,0,1,266.35,182.78Z"/><path class="cls-8" d="M165,242.58c11.08-9.46,1.47-43.93,2.91-56,1.54-12.88,9.63-13.94,15-26.67,8.1-19.13,9.56-37.14-3.23-53.31-9.6-12.14-14.15,3-20,7.88-4.77,10.34-12,38.77-35.22,75.16-9.95,15.56-6.49,35.87,10.12,43.93,5,2.43,14.49,14.09,14.66,14.14C156.61,249.86,159,242,165,242.58Z"/><path class="cls-9" d="M105.89,266.85c-.5-.26-.74-.49-1-.49a60.12,60.12,0,0,0-21.36,4.21,20.74,20.74,0,0,0-8.55,6,8.16,8.16,0,0,0-.91,1.4,1.76,1.76,0,0,0,.44,1.93,7,7,0,0,0,4.63,1.64,119.58,119.58,0,0,0,19.9-3.4,3.47,3.47,0,0,0,1.79-1c1.31-1.63,2.78-3.16,3.38-5.28C104.7,270.22,105.29,268.65,105.89,266.85Z"/><path class="cls-8" d="M104.66,276.24c-.56-.21-.85-.43-1.11-.39a64.36,64.36,0,0,0-22.13,7.29,22.2,22.2,0,0,0-8.29,7.46,8.73,8.73,0,0,0-.78,1.61,1.89,1.89,0,0,0,.73,2,7.48,7.48,0,0,0,5.14,1.13,128,128,0,0,0,20.69-6.25,3.71,3.71,0,0,0,1.78-1.29c1.18-1.9,2.54-3.73,2.89-6.05C103.84,280,104.26,278.22,104.66,276.24Z"/><path class="cls-10" d="M100,288.2c.33.71.73,1.39,1.07,2.09a9.32,9.32,0,0,1,.55,1.39,1.51,1.51,0,0,1-.8,1.61,1.24,1.24,0,0,1-1.49-.54c-.08-.12-.16-.24-.23-.36a5.4,5.4,0,0,1-.25-5c.24-.59.55-1.15.74-1.56.07-.7-.64-1.14-.28-1.57.51-.61,1,.11,1.5.25.69.2,1.36.44,2,.68A9.15,9.15,0,0,1,106,287a3.59,3.59,0,0,1,1.4,2.79c-.05,1.67-.92,2.44-2.51,1.82a8.65,8.65,0,0,1-2-1.18,10.62,10.62,0,0,1-1.34-1.38c-.42-.46-.82-.93-1.33-1.5C100.07,287.85,99.9,288.08,100,288.2Zm5.48,2.08c.11.06.35.07.4,0a.7.7,0,0,0,.16-.53,3.22,3.22,0,0,0-.6-1.11,7.55,7.55,0,0,0-2.84-1.86.54.54,0,0,0-.74.31A10.08,10.08,0,0,0,105.44,290.28Z"/><path class="cls-8" d="M165,242.58c11.08-9.46,1.47-43.93,2.91-56,1.54-12.88,9.63-13.94,15-26.67,8.1-19.13,9.56-37.14-3.23-53.31-9.6-12.14-14.15,3-20,7.88-4.77,10.34-12.88,34.76-36.15,71.15-9.95,15.56-5.56,39.88,11.05,47.95,5,2.43,14.49,14.09,14.66,14.14C156.61,249.86,159,242,165,242.58Z"/><path class="cls-11" d="M187.66,117.77c1-.27,3.72-15.83,10.16-19.1,3.35-.78,12.37,5.86,15.72,5.06,8.09-.77,8.63-5.94,10.9-7.53,4-2.83,6.13-10.36,3.36-14.88a10.59,10.59,0,0,0-2.35-2.62c-4.14-3.45-8.92-4.31-14.09-3.82a5.23,5.23,0,0,1-.76,0c-3.39-.17-6.2,3.44-9.48,3.95-1.23.19-5.16,1.85-6.34,2.24-1.7.55-5.69-.62-7.34,0-6.11,2.85-8.91,9.39-8.52,12.29.59,4.4-11.48,8.44-8,11.07.69.52,10.19,8.6,11,9C182.4,113.8,186.72,117.28,187.66,117.77Z"/><path class="cls-12" d="M165.74,99.43c6.28.86,7.55.86,11.05-4.71,5.09-1,5.09-1,7.78-4.61.81-.47,1.6-.06,2.41,0a57.94,57.94,0,0,0,12.4.4,23.23,23.23,0,0,0,9.06-2.68,22.93,22.93,0,0,1,5-2.35c.31,1.05,9.22.16,8.21-3.25-.28-.93-.59-1.85-.77-2.8A7.46,7.46,0,0,0,216,73.83a4.26,4.26,0,0,1-1.95-1.45,10.83,10.83,0,0,0-6.1-4c-2.64-.77-5.14-2.05-7.94-2.29a3.35,3.35,0,0,1-3-2.46,1.12,1.12,0,0,0-2-.28c-3.28,3.56-6.51,7.14-8.23,11.8a39.6,39.6,0,0,1-2.41,4.81c-.71,1.33-1.5,2.63-2.35,4.12a6.73,6.73,0,0,0-6.64,4.88c-1,.11-1.63.22-2.3.27a12.22,12.22,0,0,0-5.81,2,8.5,8.5,0,0,1-2.17,1.12A6.78,6.78,0,0,0,160.91,96c-1.21,2.32-2.21,4.75-3.42,7.41-.66.18-1.56.48-2.49.66a14,14,0,0,0-5.54,2.64,36.4,36.4,0,0,0-7.06,6.95,28.41,28.41,0,0,0-6.08,22.53,55.48,55.48,0,0,1,1,6.07,3.81,3.81,0,0,0,.67,1.49,1.1,1.1,0,0,0,1.75.3c.2-.19.48-.33.6-.55,1.91-3.51,5-5.86,8.11-8.16a66.48,66.48,0,0,0,9.68-9,31.27,31.27,0,0,0,4.84-7.69,15.59,15.59,0,0,0,1.11-10.12,9.15,9.15,0,0,1,.54-6C165.12,101.51,165.4,100.44,165.74,99.43Z"/><path class="cls-11" d="M205.15,169.43c-6.11-.64-9.29.28-10,6.89-1,1.47.87,5.06,3.83,7,3.59,3.15,7.12,4.53,13.27,7.26,1.94.86,4,1.53,5.86,2.49a46.1,46.1,0,0,0,12.46,4.41c1.2.23,2.32.89,3.52,1.17a26.27,26.27,0,0,0,5.21.9,6.71,6.71,0,0,0,3.51-1c3-1.84,3.69-4,2.34-7.24-.33-.8-16.33-5.75-28.89-12.33C208.91,175.17,207.42,169.67,205.15,169.43Z"/><path class="cls-13" d="M196.69,50.54a81.8,81.8,0,0,0-23,5.3,9.68,9.68,0,0,1-2.18.61,7.58,7.58,0,0,0-4.46,2.25,11,11,0,0,1-3,1.49l1.74,3.94c2,.62,4,1.26,5.94,1.85a43.86,43.86,0,0,1,10.51,4.23A30.15,30.15,0,0,0,188,72.84c6.64,2.32,12.51,6.31,19,8.82,5.47,2.11,11.06,3.95,16.65,5.72,2,.63,3.9,1.42,5.84,2.13a85.31,85.31,0,0,0,10.35,3,92.41,92.41,0,0,1,15.07,5,13.75,13.75,0,0,0,3.21,1,2.36,2.36,0,0,0,2.58-2.79c-.18-1.29-.14-2.59-1-3.75a7.34,7.34,0,0,1-.82-2.62c-.14-.54,0-1.23-.34-1.62C254.66,82.87,252.3,77,247.93,72.4c-2.72-2.86-4.75-6.37-7.08-9.59a6.27,6.27,0,0,1-1.17-3.7c-.15-6.27-.75-12.46-3.27-18.32-1.75-4.06-3.86-7.77-7.61-10.38a14.61,14.61,0,0,0-11.32-2.62c-4.06.76-7.13,3.37-9.45,6.77a67.76,67.76,0,0,0-4,6.23C202.18,44.36,199.49,47.27,196.69,50.54Z"/><path class="cls-14" d="M142.41,253.88c4.74.18,8.76,3.63,9,7.75,0,1-1.76,2.59-3,3-5.1,1.68-10.29,3.1-15.5,4.44C125.94,270.84,119,272.65,112,274c-2.52.49-5.31-.09-7.9-.57-.79-.15-1.46-1.52-2-2.45a10.67,10.67,0,0,1-.44-2.22c-1.31-4.84.56-7.44,5.54-8.37,10.72-2,21.41-4.2,32.12-6.28A21.75,21.75,0,0,1,142.41,253.88Z"/><path class="cls-15" d="M177.92,292.61c-7.5-1-13.76-1.73-20-2.64-8.38-1.22-16.71-2.94-25.12-3.76-7.15-.69-14.4-.29-21.6-.6-4.28-.18-5.29,0-6-5.35-.34-2.5-.94-5.14-.43-7.51.33-1.54,2.18-3.27,3.77-3.95,5.17-2.2,10.4-4.5,15.84-5.74,6.22-1.42,12.67-1.91,19-2.48a17.9,17.9,0,0,1,7.32.85c1.58.55,2.91,2.23,4,3.68s1.19,3.3,2.3,4.45a5.19,5.19,0,0,0,3.83,1.05c5.65-.61,11.31-1.26,16.89-2.31,3.6-.68,7.06-2.12,10.6-3.15,2.76-.8,5.6-1.37,8.33-2.26a18.34,18.34,0,0,0,3.41-2c.57-.34,1.24-1,1.7-.9s.94.95,1.18,1.55c2.9,7.51.94,13.9-4.5,19.51-3.54,3.65-6.88,7.57-11.92,9.2C183.38,291.31,180.1,292,177.92,292.61Z"/><path class="cls-16" d="M189,39.55c-.34-4.65,1.63-8.73,3.16-12.92a2.6,2.6,0,0,1,4.7-.6,10.55,10.55,0,0,1,1.32,2.09,13.76,13.76,0,0,1,1.2,7.76c-.66,3.92-1.39,7.82-2.1,11.75-1.88.55-3.63,1-5.35,1.58a13.66,13.66,0,0,1-7.81-.09c-3.57-.91-6.55-3.08-10-4.2a2.16,2.16,0,0,1,.19-4.13c4-1.13,8.08-1.9,12.12.09a13.76,13.76,0,0,0,2.21.61A10,10,0,0,0,189,39.55Zm-10.16,4.82c2.57,1.54,5.26,2.59,8.33,1.9.19,0,.34-.46.44-.73a.49.49,0,0,0-.15-.43,8.68,8.68,0,0,0-8.34-1.54c-.12,0-.2.21-.3.31S178.81,44.31,178.89,44.36Zm14.5-2c0,.13.2.36.28.35a1.64,1.64,0,0,0,.84-.27,1.42,1.42,0,0,0,.46-.83c.29-2.88.54-5.76.79-8.64C193.06,35.81,193.09,39,193.39,42.32Z"/><path class="cls-16" d="M197.46,50.4a15.65,15.65,0,0,0,1.69,1.37,23.09,23.09,0,0,0,3.49,1.91c7.77,3.08,15.61,6,23.88,7.49,2.05.37,4.1.82,6.15,1.21a20.35,20.35,0,0,0,9-.15,1.49,1.49,0,0,0,1.23-1.67,2,2,0,0,0-1.25-1.74,1.45,1.45,0,0,0-.54-.18c-4.67.08-8.94-1.66-13.28-3-6.16-1.94-12.3-3.91-18.42-6-2.52-.84-5-1.95-7.44-2.89a23,23,0,0,0-3.25-1,1.65,1.65,0,0,0-1.9.93,4.26,4.26,0,0,0-.22,2.12A5.63,5.63,0,0,0,197.46,50.4Z"/><path class="cls-10" d="M146.42,173.32c.77.21,2.67-3.05,3-3.58,1.67-3,3-6.17,4.6-9.18,1.27-2.37,2.9-4.54,4.17-6.91,1.66-3.11,3.22-6.28,4.64-9.51,1.31-3,3.15-8.93,6.31-10.89.67-.41.63-1.85,1.1-2.71a22.27,22.27,0,0,1,1.8-2.49,8.8,8.8,0,0,1,1.74,2.25c1,2.94,1.42,6.12,2.75,8.88,1.79,3.7,1.38,7.81,2.78,11.52.81,2.15,5.06,6.79,5.21,8.13,0,.28-4.37,6.41-4.93,7.39-2,3.49-5.82,7.8-7.67,11.36s-.54,6.8,1.43,10,3.67,6.88,5.55,10.3c.47.86,1.22,1.55,1.76,2.37.74,1.12,1.36,2.31,2.1,3.43.94,1.42,2,2.79,2.93,4.19a23.94,23.94,0,0,1,1.57,2.39C190,215.52,197,236.63,199.37,242a157,157,0,0,1,5.7,15.56c.94,2.89-3.17,8.57-6.54,9.56-2.55.75-5.14,1.39-7.65,2.27a55.57,55.57,0,0,0-13.43,6.9c-2.44,1.7-5.67,2.33-8.6,3.26a33.89,33.89,0,0,1-5.91,1.3,5,5,0,0,1-5.4-3.67c-.36-1.06-1.27-1.92-1.7-3-.85-2.09-1.42-4.3-2.34-6.35-.82-1.82-2.44-3.39-2.83-5.26-.57-2.74-.89-5.48-2.4-7.94-.17-.28.12-.86-.31-1.17-.19-1.15-4.33-18.26-4.55-19.4-.39-2-.95-3.94-1.19-5.93-.42-3.41-.64-6.85-.95-10.28a52.84,52.84,0,0,1-.58-6.78c.19-4.78.57-9.55,1.07-14.31a49.93,49.93,0,0,1,1.42-6.92c.95-3.77,2.16-7.49,2.92-11.3.2-1,1.18-4.76.31-5.3"/><path class="cls-8" d="M205.43,159.13c.51,2.38.89,4.82,1.54,7.13,1.73,6.13-.27,7.59-3.45,10-.78.6-1.22,2.05-2,2.73-1.92,1.72-3.8,4.16-6,4.59-3.71.75-4.24-.32-5.91-6.1-1.17-4.06-2.46-8.05-3.65-12.1-.23-.79-.22-1.71-.42-2.53-.33-1.37-.79-2.68-1.12-4-.41-1.72-.67-3.5-1.12-5.2-1.45-5.44-3.14-10.79-4.38-16.3a103.79,103.79,0,0,1-1.77-12.39c-.36-3.65,3.9-10.48,6.42-10.06,2.81.47,5.78-.07,8.33,3.39,3,4.05,6,7.93,7.28,14,.76,3.57,2.12,6.92,3,10.46,1.28,5.39,2.35,10.87,3.5,16.31Z"/><path class="cls-17" d="M173.29,184.09a16.22,16.22,0,0,1,1.65,3c.29,1,0,2-1.36,2-2.2,0-4.4,0-6.59,0-1.35,0-2.71.24-4,.13-.54,0-1-.73-1.53-1.15a1.25,1.25,0,0,1-.45-.55c-.1-.41-.25-1.14-.11-1.22a32.32,32.32,0,0,1,6-2.59,15,15,0,0,1-1.88-.37c-.93-.31-1.83-.71-2.74-1.07.92-.87,1.74-2.31,2.78-2.49a20.84,20.84,0,0,1,6.29.12A2.91,2.91,0,0,1,173.29,184.09Z"/><path class="cls-10" d="M142.57,167.57c-1.75-1.08-4.39-.57-5.26-3.31a13.12,13.12,0,0,0-2.54-3.82,5.28,5.28,0,0,0-3.94-2.32,2,2,0,0,0-2.06,1.18c-.47,1-1.2,2-1.17,3,0,1.24-.59,1.3-1.4,1.57-2.8.94-5.66,1.81-7.82,4-.48.49-.93,1-1.4,1.52l.11,1.08a2.86,2.86,0,0,0,.89-.39c2-1.92,4.58-2.69,7-3.69a13.28,13.28,0,0,1,1.86-.42,9.81,9.81,0,0,0-1.06,1.62,3.85,3.85,0,0,0-.41,2,2,2,0,0,0,1.31,1.27,7.73,7.73,0,0,0,2.91-.43,32.87,32.87,0,0,0,3.23-1.39,47.07,47.07,0,0,0-4.14,5.3c-1.72,3-3.11,6.11-4.6,9.2a8.66,8.66,0,0,0-.6,2.06c0,.13.35.34.55.51a9.53,9.53,0,0,0,1.25-1.48c.58-1.07,1-2.24,1.58-3.3.7-1.25,1.54-2.43,2.31-3.64a24.42,24.42,0,0,1,2.14-3.38,60.2,60.2,0,0,1,5.15-5.08,2.74,2.74,0,0,1,2.24-.56c1.63.54,10.13,4.42,11.62,5.29l1-2.52C150.72,171.36,143.15,167.93,142.57,167.57Zm-10.23-.68a7.23,7.23,0,0,1-4.19,2.15,3.14,3.14,0,0,1-1.09-.33c.17-.33.25-.82.51-1,1.4-.76,2.85-1.43,4.17-2.07l1.2.37A4.63,4.63,0,0,1,132.34,166.89Zm1.53-3.48c-1.34-.35-2.68-.71-4-1.13-.21-.07-.34-.39-.41-.47-.1-1.1.93-2,1.68-1.56a21.11,21.11,0,0,1,3,2.73S133.92,163.43,133.87,163.41Z"/><path class="cls-18" d="M204.75,98.9c-2.3-1.85-4.15-2.15-6.45-4-2-1.63-4.46-3.36-7-2.79-1.94.44-3.31,2.11-4.52,3.69a15,15,0,0,0-2.55,4.18c-1,3,0,6.35,1.12,9.33a5.26,5.26,0,0,0,1,1.84,1.86,1.86,0,0,0,1.93.55,2.4,2.4,0,0,0,1-.94,51.7,51.7,0,0,0,3.91-7.07c1.17-2.44,4.2-5.64,6.33-5.09s2.68,1.92,5,1.63c.23-.61.19-1.62-.46-1.55"/><path class="cls-16" d="M262.93,206.45a1,1,0,0,0-.47-1.59l-1.76-.76H261a1.08,1.08,0,0,0,1-1.16c-.16-1.9-12-6.24-13.15-8.34l-.44.26c1.07-.79,0,0,.44-.26a5.52,5.52,0,0,1,.9-.42,38.13,38.13,0,0,0,6.22-2.61c1-.65-1.25-3.61-12.71-1.54-3.23-.58-12.5,6.2-5.73,11.58q3.89,3.57,8.07,6.84c.49.42,2.57.68,3.06,1.1a1,1,0,0,0,.47.23c1.22.92,2.46,1.83,3.72,2.72a1.22,1.22,0,0,0,1,.17l.62.33c.84.41,2-.59,1.51-1.35l-2.6-4.2a65.53,65.53,0,0,1,5.83,3.35,1.08,1.08,0,0,0,1.42-1.63,15.05,15.05,0,0,0-2-1.47A4.72,4.72,0,0,0,262.93,206.45Zm-21.24-7.71a16.85,16.85,0,0,1,1.59,1.08l-1.69-1Zm-4.45-1.56-.22-.1.14-.17A1.36,1.36,0,0,0,237.23,197.18Z"/></g></g></svg>