<svg xmlns="http://www.w3.org/2000/svg" viewBox="0 0 360 360"><defs><style>.cls-1{isolation:isolate;}.cls-2{fill:#b5d0e1;}.cls-3{fill:#009470;}.cls-4{fill:#003b71;}.cls-5{fill:#4c719a;}.cls-6{fill:#ccd8e3;}.cls-15,.cls-6{mix-blend-mode:multiply;}.cls-7{fill:#e9ecf1;}.cls-8{fill:#a7b2bc;}.cls-9{fill:#f7d544;}.cls-10,.cls-15{fill:#dfe3eb;}.cls-11{fill:#94989f;}.cls-12{fill:#f3e4b2;}.cls-13,.cls-14{fill:#fff;}.cls-14{opacity:0.6;}</style></defs><title>Icon_Event_Golf_02_3C</title><g class="cls-1"><g id="Background"><circle id="_27.62.111" data-name="27.62.111" class="cls-2" cx="180" cy="180" r="180"/></g><g id="Artwork"><path class="cls-3" d="M100.12,247.39c5.2.3,10.46.65,15.72.9,6.53.3,13.07.54,19.61.76,5.37.18,10.74.2,16.11.45,5.8.26,11.59.76,17.39,1,3.41.17,6.84,0,10.25.19,8.88.39,17.75,1,26.63,1.25,5.56.18,11.13.1,16.69-.07,6.1-.19,12.19-.59,18.28-1,4.87-.3,9.74-.63,14.61-1.07s9.9-1.14,14.86-1.53a153.34,153.34,0,0,1,20.33-.73,24.65,24.65,0,0,1,7.7,1.71,7.09,7.09,0,0,1,4.43,5.92c.65,3.94-.36,7.46-3.56,9.94-4.92,3.82-10.1,7.25-16.08,9a39.75,39.75,0,0,1-6.48,1.05c-2.08.26-4.18.39-6.27.58a66.61,66.61,0,0,1-13.59-.28c-1.36-.15-2.73-.17-4.09-.2-4.1-.08-8.2-.23-12.3-.18-6.25.08-12.49.34-18.72.91-2.92.27-5.85.35-8.77.51-4.87.27-9.74.68-14.61.76-5.14.08-10.23.63-15.32,1.14a56.55,56.55,0,0,0-6,1.14c-3.63.77-7.27,1.5-10.87,2.4a96.22,96.22,0,0,0-11.45,3.66c-3.14,1.22-6.37,2.2-9.56,3.29-6,2.06-12,4.06-18,6.22a54.92,54.92,0,0,1-9.36,2.36c-9,1.55-17.31-.55-25.21-5-5.66-3.19-9.81-7.89-13.19-13.42-.65-1.06-1.32-2.12-2-3.19a8.5,8.5,0,0,0-3.62-3,27.26,27.26,0,0,0-11.81-3.09c-3.17-.12-6.33-.36-9.49-.52-1.17-.06-2.34,0-3.51,0a11.08,11.08,0,0,1-7-2.94c-2.13-2-1.83-5.35.68-7.35,1.16-.92,2.4-1.73,3.61-2.58a10.13,10.13,0,0,1,2-1.37,20.3,20.3,0,0,1,3-.67c3.05-.66,6.09-1.43,9.16-2,3.84-.68,7.71-1.23,11.57-1.77,5-.7,10.06-1.37,15.1-2C91.28,248.22,95.66,247.84,100.12,247.39Z"/><path class="cls-4" d="M208.4,198.09c4.74.25,12,.24,16,3.25,5.24,3.95,5.87,11.25,7.43,18.56a26.71,26.71,0,0,1-.27,12.39,35.32,35.32,0,0,1-7.22,14.16,19.54,19.54,0,0,1-3.48,3.37c-3.59,2.56.16,5.75-4,5.32-11.81-.2-17.83-4.36-21.66-9.22a32.31,32.31,0,0,1-6.64-17,25,25,0,0,1,1-9.4,50.39,50.39,0,0,1,3.23-8.68,26.54,26.54,0,0,1,7.59-9.72,17.77,17.77,0,0,1,5.72-2.82A11.6,11.6,0,0,1,208.4,198.09Z"/><path class="cls-5" d="M217.81,199.94a23.53,23.53,0,0,1,13.08,5,27.38,27.38,0,0,1,10.37,16.8,26.71,26.71,0,0,1-.27,12.39,35.32,35.32,0,0,1-7.22,14.16,19.54,19.54,0,0,1-3.48,3.37c-3.59,2.56-7.45,4.15-11.62,3.72a19.68,19.68,0,0,1-14.06-7.63,32.31,32.31,0,0,1-6.64-17,25,25,0,0,1,1-9.4,50.39,50.39,0,0,1,3.23-8.68,26.54,26.54,0,0,1,7.59-9.72,17.77,17.77,0,0,1,5.72-2.82A11.6,11.6,0,0,1,217.81,199.94Z"/><path class="cls-6" d="M213.32,199.94a33.84,33.84,0,0,1,16.3,5,27.38,27.38,0,0,1,12.93,16.8,21.61,21.61,0,0,1-.34,12.39,33.45,33.45,0,0,1-9,14.16,22.85,22.85,0,0,1-4.34,3.37c-4.47,2.56-9.28,4.15-14.48,3.72-6.69-.55-12.74-2.77-17.51-7.63a29,29,0,0,1-8.27-17,20.3,20.3,0,0,1,1.2-9.4,44.63,44.63,0,0,1,4-8.68,28.35,28.35,0,0,1,9.45-9.72,24.72,24.72,0,0,1,7.13-2.82A17.9,17.9,0,0,1,213.32,199.94Z"/><path class="cls-7" d="M219.25,210.69a16.58,16.58,0,0,1,8.83,3.16,17.13,17.13,0,0,1,7,10.57,15.71,15.71,0,0,1-.19,7.8,21.73,21.73,0,0,1-4.87,8.91,12.83,12.83,0,0,1-2.35,2.12,12,12,0,0,1-7.85,2.34,13.58,13.58,0,0,1-9.49-4.8,19.58,19.58,0,0,1-4.48-10.68,14.7,14.7,0,0,1,.65-5.92,30.4,30.4,0,0,1,2.18-5.47,16.94,16.94,0,0,1,5.12-6.12,12.38,12.38,0,0,1,3.86-1.77A8.38,8.38,0,0,1,219.25,210.69Z"/><path class="cls-4" d="M236.1,227.86a20,20,0,0,1-1.93,8.36c-.59,1.21-1.21,2.41-1.88,3.57a15.52,15.52,0,0,1-5.19,5.56,11.57,11.57,0,0,1-7.27,2.06,14,14,0,0,1-10.15-5.53,22.68,22.68,0,0,1-4.34-10.05,18.49,18.49,0,0,1,.19-7.67,34.33,34.33,0,0,1,2.74-7.43,20.12,20.12,0,0,1,3.43-4.89,11.61,11.61,0,0,1,5.72-3.47,9.85,9.85,0,0,1,5.1.41,18.44,18.44,0,0,1,7.12,4,19.72,19.72,0,0,1,5.65,9.16A20.79,20.79,0,0,1,236.1,227.86ZM221.43,213a12.71,12.71,0,0,0-5,1,20.21,20.21,0,0,1-2.86,1,2.41,2.41,0,0,0-1.18.6,20.59,20.59,0,0,0-4.86,7.57,15.59,15.59,0,0,0-1.15,7.63,17.87,17.87,0,0,0,1.38,5.47,16.59,16.59,0,0,0,4.24,6.12,11.35,11.35,0,0,0,4.89,2.65c.68.14,1.35.4,2,.52a8.6,8.6,0,0,0,3.72.09,11.88,11.88,0,0,0,5.88-3.32,20.74,20.74,0,0,0,2.54-3.31,17.92,17.92,0,0,0,1.86-4.24,53.36,53.36,0,0,0,1.73-7.35,11,11,0,0,0-.52-5.72,13.87,13.87,0,0,0-3.61-5.2,14.34,14.34,0,0,0-4.3-2.6,10.74,10.74,0,0,0-2.25-.66C223.19,213.11,222.35,213.09,221.43,213Z"/><path class="cls-8" d="M222,218.3a8.07,8.07,0,0,1-1.94,5,11.75,11.75,0,0,1-2.3,2.54,8.7,8.7,0,0,1-4.39,1.55,2.13,2.13,0,0,1-.53,0c-.64-.12-1.07-.48-1.06-.95,0-.64.48-.79,1-.88a10,10,0,0,0,5-2.48,9.27,9.27,0,0,0,3.2-5.18c0-.11,0-.27.07-.33a1.21,1.21,0,0,1,.57-.38c.12,0,.32.26.39.45A2.51,2.51,0,0,1,222,218.3Z"/><path class="cls-8" d="M230.71,224.52c-.27-.8-.46-1.36-.64-1.92a10,10,0,0,0-5.29-6.57,3.85,3.85,0,0,0-1.34-.34,10.43,10.43,0,0,0-5.06.43c-.82.36-1.6.83-2.4,1.25-.18.09-.37.17-.75.33.15-.37.18-.6.31-.72a7.74,7.74,0,0,1,4.61-2.21,23.64,23.64,0,0,1,2.88-.06c3.21.11,5.43,1.93,7,4.82a8.44,8.44,0,0,1,1.07,3A2.56,2.56,0,0,1,230.71,224.52Z"/><path class="cls-8" d="M224.43,242.77a5.57,5.57,0,0,1-2.27,1.3,6.48,6.48,0,0,1-3.57.25,15.29,15.29,0,0,1-2.67-1.08,19.75,19.75,0,0,1-1.77-1.29c-2.22-1.5-3.21-3.82-3.76-6.45a1.72,1.72,0,0,1,0-.78c.13-.45.56-.53.8-.13a6,6,0,0,1,.44,1c.29.78.55,1.58.87,2.36a6.47,6.47,0,0,0,1.89,2.61,25.42,25.42,0,0,0,2.43,1.87,6.46,6.46,0,0,0,6.34.47l1-.46Z"/><path class="cls-8" d="M217.66,239.25a1,1,0,0,1-1.1-1c-.17-1.14-.35-2.28-.54-3.42-.45-2.76-1.81-4.63-4.43-5.26-.53-.13-.78-.48-.63-.84a.7.7,0,0,1,1-.45,8.28,8.28,0,0,1,5.75,8.07c0,.49.08,1,.09,1.49S217.7,238.75,217.66,239.25Z"/><path class="cls-8" d="M223.22,220c0-.65,0-1.31,0-2,0-.25.21-.64.39-.7.4-.12.55.28.59.63a10.56,10.56,0,0,1,.1,1.61,19.76,19.76,0,0,0,.43,4.69,7.81,7.81,0,0,0,1.44,3.18,3.1,3.1,0,0,0,2.33,1.44,2.2,2.2,0,0,1,.41.1c.4.1.94.06.92.71s-.57.48-.91.57a2.42,2.42,0,0,1-2.07-.67,9,9,0,0,1-3.35-5.94c-.21-1.2-.27-2.44-.4-3.66Z"/><path class="cls-8" d="M221.06,240.3a7.1,7.1,0,0,1-.33-1.16c-.38-3.81,1.46-7,4.81-7.87a7.12,7.12,0,0,1,2.43,0c.48,0,.76.4.58,1-.48,0-1,.1-1.46.09-2.42,0-3.86,1.39-4.78,3.67a8.85,8.85,0,0,0-.5,3.26C221.8,239.84,221.67,240.09,221.06,240.3Z"/><path class="cls-8" d="M222.53,229.36c-.69,0-1-.31-1-.87s.59-1.21,1-1.2a1.18,1.18,0,0,1,1,1.27C223.45,229.12,223.15,229.38,222.53,229.36Z"/><path class="cls-8" d="M219,228.65c-.37-.06-.82,0-.86-.6a1.67,1.67,0,0,1,1.1-1.38,1,1,0,0,1,.89,1A1,1,0,0,1,219,228.65Z"/><path class="cls-8" d="M219,231.91c-.65,0-1-.26-1-.77a1.21,1.21,0,0,1,1.27-1,1,1,0,0,1,.87,1C220.17,231.61,219.73,231.9,219,231.91Z"/><path class="cls-8" d="M231.3,225.4c.65,1.39.54,2.55-.26,3.25-.54-.76-.26-1.63-.27-2.43C230.78,226,231.09,225.72,231.3,225.4Z"/><path class="cls-8" d="M221.29,231.34a5.45,5.45,0,0,1,.63-.86c.16-.15.52-.28.64-.18a1,1,0,0,1,.32.74.89.89,0,0,1-.48.62,3,3,0,0,1-1,0Z"/><path class="cls-5" d="M75.11,201a26.67,26.67,0,0,1,14.14,5,27.2,27.2,0,0,1,11.21,16.8,24.77,24.77,0,0,1-.3,12.39,34.45,34.45,0,0,1-7.8,14.16,20.48,20.48,0,0,1-3.76,3.37c-3.88,2.56-8,4.15-12.56,3.72a21.8,21.8,0,0,1-15.19-7.63,31,31,0,0,1-7.17-17,23.19,23.19,0,0,1,1-9.4,48.07,48.07,0,0,1,3.49-8.68A27,27,0,0,1,66.4,204a19.88,19.88,0,0,1,6.18-2.82A13.52,13.52,0,0,1,75.11,201Z"/><path class="cls-4" d="M80.16,201c5.12.25,13,.24,17.32,3.25,5.66,3.95,6.35,11.25,8,18.56a24.77,24.77,0,0,1-.3,12.39c-1.53,5.44-11.4,23.27-15.91,22.84-12.76-.2-19.27-4.36-23.41-9.22a31,31,0,0,1-7.17-17,23.19,23.19,0,0,1,1-9.4,48.07,48.07,0,0,1,3.49-8.68,27,27,0,0,1,8.2-9.72,19.88,19.88,0,0,1,6.18-2.82A13.52,13.52,0,0,1,80.16,201Z"/><path class="cls-6" d="M105.45,224.29c-1.49-7.39-4.93-13-10-17a24.65,24.65,0,0,0-6.19-3.65h0c-3.83-3-10.83-3-15.37-3.28a10.59,10.59,0,0,0-2.24.24,16.71,16.71,0,0,0-5.49,2.85,26.65,26.65,0,0,0-7.28,9.82,52.65,52.65,0,0,0-3.1,8.77,26.49,26.49,0,0,0-.92,9.49,33.64,33.64,0,0,0,6.37,17.14c3.68,4.91,9.45,9.12,20.77,9.31h.06c.55.1,1.11.19,1.68.25,4,.43,7.7-1.18,11.15-3.76a19.22,19.22,0,0,0,3.34-3.4,36.41,36.41,0,0,0,6.92-14.3A28.38,28.38,0,0,0,105.45,224.29Z"/><path class="cls-4" d="M304,224.18a1.62,1.62,0,0,1-1.6,1.73,7,7,0,0,0-3.25.83c-1.68,1.22-3.39,2.4-5.09,3.6a43.42,43.42,0,0,1-7.31,4.07c-3.68,1.65-7.29,3.47-10.86,5.34-2.26,1.19-4.35,2.72-6.61,3.9a45.17,45.17,0,0,1-11.78,4.53,6.15,6.15,0,0,1-1.41.19c-2.8-.08-5.59-.17-8.22-1.4a4.89,4.89,0,0,1-3.15-4.2,6.52,6.52,0,0,0-1-3.58,8.63,8.63,0,0,1,1-.27c1.64-.24,3.29-.44,4.92-.71s2.66-.89,2.92-2.61a5.38,5.38,0,0,1,.71-1.7c.92-1.66,1.9-3.29,2.81-5s1.84-3.54,2.74-5.32a24.85,24.85,0,0,1,4.77-6.7c1.08-1.06,2-2.34,3-3.41,2-1.94,3.92-3.89,6-5.64a22,22,0,0,1,4.07-2.31c1.48-.76,3-1.44,4.51-2.14a5.36,5.36,0,0,1,1.2-.44c1.19-.23,2.41-.35,3.59-.64a5.43,5.43,0,0,1,2.95.21,18.32,18.32,0,0,1,9.45,6.54c.54.72,1.19,1.36,1.72,2.09a15.57,15.57,0,0,1,3.13,9c0,.9.09,1.81.07,2.71C303.32,223.5,303.39,224,304,224.18Z"/><path class="cls-4" d="M271.86,205.4c4.74.25,12,.24,16,3.25,5.24,3.95,5.87,11.25,7.43,18.56A26.71,26.71,0,0,1,295,239.6a35.32,35.32,0,0,1-7.22,14.16,19.54,19.54,0,0,1-3.48,3.37c-3.59,2.56.16,5.75-4,5.32-11.81-.2-17.83-4.36-21.66-9.22a32.31,32.31,0,0,1-6.64-17,25,25,0,0,1,1-9.4,50.39,50.39,0,0,1,3.23-8.68,26.54,26.54,0,0,1,7.59-9.72,17.77,17.77,0,0,1,5.72-2.82A11.6,11.6,0,0,1,271.86,205.4Z"/><path class="cls-5" d="M281.27,207.25a23.53,23.53,0,0,1,13.08,5,27.38,27.38,0,0,1,10.37,16.8,26.71,26.71,0,0,1-.27,12.39,35.32,35.32,0,0,1-7.22,14.16,19.54,19.54,0,0,1-3.48,3.37c-3.59,2.56-7.45,4.15-11.62,3.72a19.68,19.68,0,0,1-14.06-7.63,32.31,32.31,0,0,1-6.64-17,25,25,0,0,1,1-9.4,50.39,50.39,0,0,1,3.23-8.68,26.54,26.54,0,0,1,7.59-9.72,17.77,17.77,0,0,1,5.72-2.82A11.6,11.6,0,0,1,281.27,207.25Z"/><path class="cls-7" d="M282.71,218a16.58,16.58,0,0,1,8.83,3.16,17.13,17.13,0,0,1,7,10.57,15.71,15.71,0,0,1-.19,7.8,21.73,21.73,0,0,1-4.87,8.91,12.83,12.83,0,0,1-2.35,2.12,12,12,0,0,1-7.85,2.34,13.58,13.58,0,0,1-9.49-4.8,19.58,19.58,0,0,1-4.48-10.68,14.7,14.7,0,0,1,.65-5.92,30.4,30.4,0,0,1,2.18-5.47,16.94,16.94,0,0,1,5.12-6.12,12.38,12.38,0,0,1,3.86-1.77A8.38,8.38,0,0,1,282.71,218Z"/><path class="cls-4" d="M299.56,235.17a20,20,0,0,1-1.93,8.36c-.59,1.21-1.21,2.41-1.88,3.57a15.52,15.52,0,0,1-5.19,5.56,11.57,11.57,0,0,1-7.27,2.06,14,14,0,0,1-10.15-5.53,22.68,22.68,0,0,1-4.34-10.05,18.49,18.49,0,0,1,.19-7.67,34.33,34.33,0,0,1,2.74-7.43,20.12,20.12,0,0,1,3.43-4.89,11.61,11.61,0,0,1,5.72-3.47,9.85,9.85,0,0,1,5.1.41,18.44,18.44,0,0,1,7.12,4,19.72,19.72,0,0,1,5.65,9.16A20.79,20.79,0,0,1,299.56,235.17Zm-14.67-14.85a12.71,12.71,0,0,0-5,1,20.21,20.21,0,0,1-2.86,1,2.41,2.41,0,0,0-1.18.6A20.59,20.59,0,0,0,271,230.5a15.59,15.59,0,0,0-1.15,7.63,17.87,17.87,0,0,0,1.38,5.47,16.59,16.59,0,0,0,4.24,6.12,11.35,11.35,0,0,0,4.89,2.65c.68.14,1.35.4,2,.52a8.6,8.6,0,0,0,3.72.09,11.88,11.88,0,0,0,5.88-3.32,20.74,20.74,0,0,0,2.54-3.31,17.92,17.92,0,0,0,1.86-4.24,53.36,53.36,0,0,0,1.73-7.35,11,11,0,0,0-.52-5.72,13.87,13.87,0,0,0-3.61-5.2,14.34,14.34,0,0,0-4.3-2.6,10.74,10.74,0,0,0-2.25-.66C286.65,220.42,285.81,220.4,284.89,220.32Z"/><path class="cls-8" d="M285.44,225.6a8.07,8.07,0,0,1-1.94,5,11.75,11.75,0,0,1-2.3,2.54,8.7,8.7,0,0,1-4.39,1.55,2.13,2.13,0,0,1-.53,0c-.64-.12-1.07-.48-1.06-.95,0-.64.48-.79,1-.88a10,10,0,0,0,5-2.48,9.27,9.27,0,0,0,3.2-5.18c0-.11,0-.27.07-.33a1.21,1.21,0,0,1,.57-.38c.12,0,.32.26.39.45A2.51,2.51,0,0,1,285.44,225.6Z"/><path class="cls-8" d="M294.17,231.83c-.27-.8-.46-1.36-.64-1.92a10,10,0,0,0-5.29-6.57,3.85,3.85,0,0,0-1.34-.34,10.43,10.43,0,0,0-5.06.43c-.82.36-1.6.83-2.4,1.25-.18.09-.37.17-.75.33.15-.37.18-.6.31-.72a7.74,7.74,0,0,1,4.61-2.21,23.64,23.64,0,0,1,2.88-.06c3.21.11,5.43,1.93,7,4.82a8.44,8.44,0,0,1,1.07,3A2.56,2.56,0,0,1,294.17,231.83Z"/><path class="cls-8" d="M287.89,250.08a5.57,5.57,0,0,1-2.27,1.3,6.48,6.48,0,0,1-3.57.25,15.29,15.29,0,0,1-2.67-1.08,19.75,19.75,0,0,1-1.77-1.29c-2.22-1.5-3.21-3.82-3.76-6.45a1.72,1.72,0,0,1,0-.78c.13-.45.56-.53.8-.13a6,6,0,0,1,.44,1c.29.78.55,1.58.87,2.36a6.47,6.47,0,0,0,1.89,2.61,25.42,25.42,0,0,0,2.43,1.87,6.46,6.46,0,0,0,6.34.47l1-.46Z"/><path class="cls-8" d="M281.12,246.56a1,1,0,0,1-1.1-1c-.17-1.14-.35-2.28-.54-3.42-.45-2.76-1.81-4.63-4.43-5.26-.53-.13-.78-.48-.63-.84a.7.7,0,0,1,1-.45,8.28,8.28,0,0,1,5.75,8.07c0,.49.08,1,.09,1.49S281.16,246.06,281.12,246.56Z"/><path class="cls-8" d="M286.68,227.33c0-.65,0-1.31,0-2,0-.25.21-.64.39-.7.4-.12.55.28.59.63a10.56,10.56,0,0,1,.1,1.61,19.76,19.76,0,0,0,.43,4.69,7.81,7.81,0,0,0,1.44,3.18,3.1,3.1,0,0,0,2.33,1.44,2.2,2.2,0,0,1,.41.1c.4.1.94.06.92.71s-.57.48-.91.57a2.42,2.42,0,0,1-2.07-.67A9,9,0,0,1,287,231c-.21-1.2-.27-2.44-.4-3.66Z"/><path class="cls-8" d="M284.53,247.61a7.1,7.1,0,0,1-.33-1.16c-.38-3.81,1.46-7,4.81-7.87a7.12,7.12,0,0,1,2.43,0c.48,0,.76.4.58,1-.48,0-1,.1-1.46.09-2.42,0-3.86,1.39-4.78,3.67a8.85,8.85,0,0,0-.5,3.26C285.27,247.15,285.13,247.39,284.53,247.61Z"/><path class="cls-8" d="M286,236.67c-.69,0-1-.31-1-.87s.59-1.21,1-1.2a1.18,1.18,0,0,1,1,1.27C286.91,236.43,286.61,236.69,286,236.67Z"/><path class="cls-8" d="M282.48,236c-.37-.06-.82,0-.86-.6a1.67,1.67,0,0,1,1.1-1.38,1,1,0,0,1,.89,1A1,1,0,0,1,282.48,236Z"/><path class="cls-8" d="M282.5,239.22c-.65,0-1-.26-1-.77a1.21,1.21,0,0,1,1.27-1,1,1,0,0,1,.87,1C283.63,238.92,283.19,239.21,282.5,239.22Z"/><path class="cls-8" d="M294.77,232.71c.65,1.39.54,2.55-.26,3.25-.54-.76-.26-1.63-.27-2.43C294.24,233.29,294.55,233,294.77,232.71Z"/><path class="cls-8" d="M284.75,238.65a5.45,5.45,0,0,1,.63-.86c.16-.15.52-.28.64-.18a1,1,0,0,1,.32.74.89.89,0,0,1-.48.62,3,3,0,0,1-1,0Z"/><path class="cls-4" d="M81.74,216.54c4.55-1,9.13-2,13.7-3a75.28,75.28,0,0,1,17.91-1.48,31.89,31.89,0,0,1,12,2.34c4,1.74,7.8,3.88,10.49,7.35,1.18,1.52,2.47,3,3.63,4.5,2.5,3.29,5.7,5.94,8.77,8.71a19,19,0,0,1,3.32,3.81,9.28,9.28,0,0,1,.92,3.39c0,.28-.43.66-.72,1.07.32.19.69.84.6.79a7.11,7.11,0,0,0-4.1-.45,16.46,16.46,0,0,1-9.82-2.15,64.76,64.76,0,0,1-9.71-6.89,34.67,34.67,0,0,0-17.14-8.05A63.76,63.76,0,0,0,97,226a24.36,24.36,0,0,1-10.93-1.43,7.28,7.28,0,0,1-2.76-2.11C82,220.81,81,219,81.74,216.54Z"/><path class="cls-4" d="M102.9,217.07c5.12.25,13,.24,17.32,3.25,5.66,3.95,6.35,11.25,8,18.56a24.77,24.77,0,0,1-.3,12.39,34.45,34.45,0,0,1-7.8,14.16,20.48,20.48,0,0,1-3.76,3.37c-3.88,2.56.17,5.75-4.34,5.32-12.76-.2-19.27-4.36-23.41-9.22a31,31,0,0,1-7.17-17,23.19,23.19,0,0,1,1-9.4A48.07,48.07,0,0,1,86,229.85a27,27,0,0,1,8.2-9.72,19.88,19.88,0,0,1,6.18-2.82A13.52,13.52,0,0,1,102.9,217.07Z"/><path class="cls-5" d="M113.07,218.92a26.67,26.67,0,0,1,14.14,5,27.2,27.2,0,0,1,11.21,16.8,24.77,24.77,0,0,1-.3,12.39,34.45,34.45,0,0,1-7.8,14.16,20.48,20.48,0,0,1-3.76,3.37c-3.88,2.56-8,4.15-12.56,3.72a21.8,21.8,0,0,1-15.19-7.63,31,31,0,0,1-7.17-17,23.19,23.19,0,0,1,1-9.4,48.07,48.07,0,0,1,3.49-8.68,27,27,0,0,1,8.2-9.72,19.88,19.88,0,0,1,6.18-2.82A13.52,13.52,0,0,1,113.07,218.92Z"/><path class="cls-7" d="M114.63,229.67a18.85,18.85,0,0,1,9.55,3.16,17.13,17.13,0,0,1,7.57,10.57,14.58,14.58,0,0,1-.2,7.8,21.32,21.32,0,0,1-5.27,8.91,13.56,13.56,0,0,1-2.54,2.12,13.76,13.76,0,0,1-8.48,2.34,15.13,15.13,0,0,1-10.26-4.8,18.85,18.85,0,0,1-4.84-10.68,13.67,13.67,0,0,1,.7-5.92,29.12,29.12,0,0,1,2.36-5.47,17.33,17.33,0,0,1,5.54-6.12,13.91,13.91,0,0,1,4.17-1.77A9.77,9.77,0,0,1,114.63,229.67Z"/><path class="cls-4" d="M132.84,246.84a18.77,18.77,0,0,1-2.09,8.36c-.64,1.21-1.31,2.41-2,3.57a16.08,16.08,0,0,1-5.61,5.56,13.25,13.25,0,0,1-7.86,2.06,15.48,15.48,0,0,1-11-5.53A21.86,21.86,0,0,1,99.6,250.8a17.14,17.14,0,0,1,.2-7.67,32.74,32.74,0,0,1,3-7.43,20.2,20.2,0,0,1,3.71-4.89,12.77,12.77,0,0,1,6.18-3.47,11.46,11.46,0,0,1,5.52.41,20.42,20.42,0,0,1,7.69,4,19.56,19.56,0,0,1,6.1,9.16A19.34,19.34,0,0,1,132.84,246.84ZM117,232a14.71,14.71,0,0,0-5.37,1,23,23,0,0,1-3.09,1,2.69,2.69,0,0,0-1.27.6,20.49,20.49,0,0,0-5.26,7.57,14.54,14.54,0,0,0-1.24,7.63,17.79,17.79,0,0,0,6.07,11.59,12.6,12.6,0,0,0,5.29,2.65c.74.14,1.45.4,2.19.52a10,10,0,0,0,4,.09,13.14,13.14,0,0,0,6.36-3.32,21,21,0,0,0,2.75-3.31,17.27,17.27,0,0,0,2-4.24,50,50,0,0,0,1.87-7.35,10.2,10.2,0,0,0-.56-5.72,13.91,13.91,0,0,0-3.9-5.2,15.78,15.78,0,0,0-4.64-2.6,12.33,12.33,0,0,0-2.43-.66C118.88,232.09,118,232.08,117,232Z"/><path class="cls-8" d="M117.57,237.28a7.74,7.74,0,0,1-2.1,5,12.14,12.14,0,0,1-2.49,2.54,9.9,9.9,0,0,1-4.75,1.55,2.48,2.48,0,0,1-.57,0c-.69-.12-1.16-.48-1.14-.95,0-.64.51-.79,1-.88a11.14,11.14,0,0,0,5.38-2.48,9.2,9.2,0,0,0,3.45-5.18c0-.11,0-.27.08-.33a1.32,1.32,0,0,1,.62-.38c.13,0,.34.26.42.45A2.32,2.32,0,0,1,117.57,237.28Z"/><path class="cls-8" d="M127,243.5c-.29-.8-.5-1.36-.69-1.92a10.17,10.17,0,0,0-5.72-6.57,4.44,4.44,0,0,0-1.45-.34,12.14,12.14,0,0,0-5.47.43c-.89.36-1.73.83-2.6,1.25-.2.09-.4.17-.81.33.16-.37.2-.6.33-.72a8.65,8.65,0,0,1,5-2.21,27.61,27.61,0,0,1,3.11-.06c3.47.11,5.87,1.93,7.61,4.82a8,8,0,0,1,1.16,3A2.41,2.41,0,0,1,127,243.5Z"/><path class="cls-8" d="M120.22,261.75a6.15,6.15,0,0,1-2.45,1.3,7.54,7.54,0,0,1-3.86.25,17.32,17.32,0,0,1-2.89-1.08,21.37,21.37,0,0,1-1.91-1.29c-2.4-1.5-3.47-3.82-4.06-6.45a1.59,1.59,0,0,1,0-.78.46.46,0,0,1,.87-.13,5.78,5.78,0,0,1,.47,1c.32.78.59,1.58.94,2.36a6.52,6.52,0,0,0,2,2.61,27.35,27.35,0,0,0,2.63,1.87,7.47,7.47,0,0,0,6.85.47l1.13-.46Z"/><path class="cls-8" d="M112.91,258.23c-.89,0-1.1-.42-1.19-1-.18-1.14-.38-2.28-.58-3.42-.49-2.76-2-4.63-4.79-5.26-.57-.13-.85-.48-.68-.84a.77.77,0,0,1,1-.45c3.21.85,6.4,4.07,6.22,8.07,0,.49.09,1,.09,1.49S113,257.73,112.91,258.23Z"/><path class="cls-8" d="M118.92,239c0-.65,0-1.31,0-2,0-.25.22-.64.42-.7.43-.12.59.28.64.63a9.78,9.78,0,0,1,.11,1.61,18.33,18.33,0,0,0,.47,4.69,7.55,7.55,0,0,0,1.55,3.18,3.39,3.39,0,0,0,2.52,1.44,2.53,2.53,0,0,1,.45.1c.44.1,1,.06,1,.71s-.62.48-1,.57a2.75,2.75,0,0,1-2.24-.67,8.83,8.83,0,0,1-3.62-5.94c-.23-1.2-.3-2.44-.44-3.66Z"/><path class="cls-8" d="M116.59,259.29a6.69,6.69,0,0,1-.36-1.16c-.41-3.81,1.58-7,5.2-7.87a8.3,8.3,0,0,1,2.63,0c.51,0,.82.4.62,1-.52,0-1,.1-1.58.09-2.62,0-4.17,1.39-5.16,3.67a8.24,8.24,0,0,0-.54,3.26C117.39,258.83,117.25,259.07,116.59,259.29Z"/><path class="cls-8" d="M118.17,248.35c-.74,0-1.12-.31-1.11-.87s.63-1.21,1.06-1.2a1.21,1.21,0,0,1,1.08,1.27C119.17,248.11,118.85,248.36,118.17,248.35Z"/><path class="cls-8" d="M114.38,247.63c-.4-.06-.89,0-.93-.6a1.7,1.7,0,0,1,1.19-1.38,1,1,0,0,1,1,1C115.61,247.28,115.16,247.65,114.38,247.63Z"/><path class="cls-8" d="M114.4,250.89c-.7,0-1.08-.26-1.06-.77s.7-1,1.38-1a1,1,0,0,1,.94,1C115.62,250.59,115.15,250.88,114.4,250.89Z"/><path class="cls-8" d="M127.66,244.39c.7,1.39.58,2.55-.28,3.25-.59-.76-.28-1.63-.29-2.43C127.09,245,127.43,244.71,127.66,244.39Z"/><path class="cls-8" d="M116.83,250.33a5.5,5.5,0,0,1,.69-.86c.17-.15.56-.28.69-.18a.94.94,0,0,1,.35.74.9.9,0,0,1-.52.62,3.53,3.53,0,0,1-1.08,0Z"/><path class="cls-4" d="M282.85,153.36c-1.33-.12-2.7-.21-4.05-.37a48.92,48.92,0,0,0-6.62-.07c-2.37,0-4.73,0-7.1,0-1.66,0-3.33,0-5-.08-.89,0-1.77-.27-2.65-.4a2.65,2.65,0,0,1-2.22-2,32.43,32.43,0,0,1-1.06-3.83c-.23-1.14.26-1.44,1.42-1.38,2.91.16,5.8.88,8.75.29a11.53,11.53,0,0,1,2.4.08q2.13,0,4.26,0c1,0,2.08,0,3.12,0,1.85,0,3.69,0,5.54,0a3.35,3.35,0,0,1,3.12,1.62c.9,1.45,1.79,2.9,2.62,4.39a1.13,1.13,0,0,1-1,1.67,6.3,6.3,0,0,1-.85,0C283.35,153.31,283.11,153.34,282.85,153.36Z"/><path class="cls-4" d="M279.59,151.64l3.66.33c.13,1.57.24,3,.36,4.35a26.38,26.38,0,0,1-1.39,10.95c-.77,2.23-2.62,3.18-4.63,3.85-3,1-5.66.07-8.26-1.46a11.51,11.51,0,0,1-4.73-6.07c-1.3-3.26-2.54-6.55-3.77-9.84a11.39,11.39,0,0,1-.35-2c1.5-.23,2.79-.48,4.1-.6,1-.1,1.37.3,1.46,1.48s.1,2.38.07,3.56a7.91,7.91,0,0,0,.75,3.87c1,1.94,2,3.89,3.08,5.78a9.32,9.32,0,0,0,4,3.57c1.51.76,3.1.17,4.43-.71a4.84,4.84,0,0,0,2.18-3.38,20.62,20.62,0,0,0,0-6.11C280.17,156.78,279.9,154.33,279.59,151.64Z"/><path class="cls-4" d="M265.27,66.72a15.66,15.66,0,0,1,4.69.06c0,1.92,0,3.72,0,5.52.05,2.47.27,4.94.2,7.41-.15,5.37-.46,10.73-.65,16.1-.06,1.8,0,3.61.1,5.42a25.57,25.57,0,0,1-.83,7.63A23.38,23.38,0,0,1,267,113c-.75,1.48-1.59,2.92-2.48,4.32-.74,1.16-1.6,2.22-2.41,3.34s-1.61,2.23-2.38,3.36a2.72,2.72,0,0,0-.52,1.16c-.24,2.41-1.09,4.73-1,7.19.07,1.33,0,2.66.08,4a1.8,1.8,0,0,1-2,1.67c-.45-.06-.91-.05-1.5-.08a8.89,8.89,0,0,1-1.2-4,33.5,33.5,0,0,1,1.46-10.69,13.55,13.55,0,0,1,1.65-3.13c1.83-2.78,3.79-5.47,5.58-8.27a16.43,16.43,0,0,0,2.83-8.71c0-3.85-.1-7.71,0-11.56.05-3.66.28-7.32.38-11,.06-2.23.05-4.47,0-6.7S265.36,69.19,265.27,66.72Z"/><path class="cls-4" d="M217,70.91c-.84.53-.73,1.32-.77,2.11-.15,3.56-.36,7.12-.52,10.67s-.28,7-.41,10.55c-.07,1.85-.19,3.71-.16,5.56,0,2.52.17,5,.3,7.55a3.85,3.85,0,0,0,1.19,2.51,51.39,51.39,0,0,1,8,11.77,17.23,17.23,0,0,1,1.86,8.54,32.89,32.89,0,0,1-.28,3.82c-.17,1.27-.64,1.56-1.92,1.33-.54-.1-1.08-.25-1.78-.41,0-1.14,0-2.18,0-3.21a17.72,17.72,0,0,0-4.29-12.5c-1.19-1.42-2.51-2.75-3.57-4.27-2.25-3.23-4.07-6.61-3.86-10.79.18-3.41,0-6.85.08-10.27.1-2.7.5-5.39.67-8.09a90.22,90.22,0,0,0,.33-9.11c-.06-1.6-.2-3.21-.14-4.82a1.55,1.55,0,0,1,1.92-1.65l3.2.38Z"/><path class="cls-9" d="M225.46,132.9c.07,2.06,1,2.78,3,3.12s3.49-.54,5-1.53c.41-.27.6-.85,1-1.2a2.51,2.51,0,0,1,1.25-.78,81.59,81.59,0,0,1,8.24-.48,103.23,103.23,0,0,1,10.93.72c3.93.49,4.87,2.37,5.7,5.62,1.19,4.7,1.15,9.5,1.18,14.3,0,1.71,0,3.42-.06,5.13a5.7,5.7,0,0,1-.85,3.18c-1.24.11-2.42.14-3.58.34a38.69,38.69,0,0,1-7.81.08c-5.27-.17-10.54-.47-15.81-.64-4.65-.15-9.3-.14-13.95-.29-2.37-.08-4.73-.47-7.1-.55a42.29,42.29,0,0,1-9.49-1.7,15.8,15.8,0,0,1-2.16-.72c-.92-.39-1.79-.85-2-2a18.76,18.76,0,0,1-.53-3.2,43.2,43.2,0,0,1,.7-5.78c.39-2.14,1-4.25,1.46-6.37.08-.32.23-.63.31-.95,1-3.93,3.86-5.39,7.54-5.82,2.5-.29,5-.62,7.48-.9,1.18-.13,2.36-.19,3.55-.26.57,0,1.15,0,1.71,0A5.57,5.57,0,0,1,225.46,132.9Z"/><polygon class="cls-10" points="153.31 186.45 152.97 218.82 213.21 242.06 218.61 200.04 153.31 186.45"/><path class="cls-11" d="M217.4,243.89c-3.26.85-6.4.48-9.48.54-7.18.14-14.36.21-21.54.26-4.67,0-9.36.12-14-.07a58,58,0,0,1-10-1.13c-2.62-.58-5-1.89-7.46-2.89a1.18,1.18,0,0,1-.5-.51c-2-3.26-3.95-6.46-4.63-10.14-.71-3.85-1.92-7.64-2.89-11.46a2.91,2.91,0,0,1-.1-1.29c.19-.89.68-1.11,1.73-.76,3.19,1.06,6.35,2.17,9.53,3.24l15.37,5.18c5.81,2,11.74,3.74,17.38,6,6.15,2.45,12.53,4.42,18.79,6.65a18.13,18.13,0,0,1,7.33,5.06A3.93,3.93,0,0,1,217.4,243.89Z"/><path class="cls-4" d="M199.18,177c-1.64,1.16-2.43,1.22-3.64.38a1.2,1.2,0,0,1-.58-1.3c.25-2.17.41-4.35.59-6.52,0-.52,0-1,0-1.57a4.67,4.67,0,0,0-2.84-.21,18.17,18.17,0,0,0-7.42,2.77c-1.71,1.09-3.31,2.37-5,3.56a9.21,9.21,0,0,1-1.52,1.06,9.4,9.4,0,0,0-3.33,2.93c-.3-.31-.61-.58-.86-.9-1.18-1.45-1.17-2.16.22-3.39,2.46-2.16,4.85-4.42,7.5-6.34a20.92,20.92,0,0,1,11.7-4.34,17.76,17.76,0,0,1,3.54.3,2.54,2.54,0,0,1,2.28,2.8c-.06,1.8-.28,3.6-.4,5.4S199.27,175.23,199.18,177Z"/><path class="cls-4" d="M238.59,184.84a4.16,4.16,0,0,1-1.13-3.42c.12-3.51.25-7,.31-10.53.05-2.66,0-5.32,0-8,0-1.8.14-3.61.19-5.41a1.16,1.16,0,0,1,.78-1.07,3.69,3.69,0,0,1,3.07,0c.07,2.19.2,4.36.18,6.53,0,2.94-.16,5.89-.25,8.83-.1,3.56-.21,7.11-.28,10.67a1.8,1.8,0,0,1-1.05,1.71A18.2,18.2,0,0,1,238.59,184.84Z"/><path class="cls-4" d="M258.93,175.34c-.63.13-1.13.26-1.65.35-1.17.19-1.72-.22-1.73-1.39a40.34,40.34,0,0,1,.11-4.85,46.31,46.31,0,0,0-.08-10.1c0-.19-.05-.38-.06-.57-.06-1.26.19-1.51,1.46-1.44,2.42.12,2.4.12,2.52,2.53a109.65,109.65,0,0,1-.3,13.82C259.17,174.21,259,174.72,258.93,175.34Z"/><path class="cls-4" d="M222.42,161.57a5.87,5.87,0,0,1,4,.5c.19,2.67.39,5.41.59,8.15.12,1.61.23,3.22.37,4.83.08.93-.2,1.38-1.11,1.39a14.12,14.12,0,0,1-2.4-.22.94.94,0,0,1-.59-.51,3.87,3.87,0,0,1-.26-1.25c-.15-3.23-.26-6.46-.41-9.68C222.6,163.74,222.5,162.71,222.42,161.57Z"/><path class="cls-4" d="M212.32,174.74a4.64,4.64,0,0,1-.8-2.62c-.2-3.5-.5-7-.74-10.49,0-.46,0-.92,0-1.35,1.37-.3,1.37-.3,3.79.33,1.09,4.59.55,9.35,1.08,14.13Z"/><path class="cls-12" d="M239.19,209.35A47.69,47.69,0,0,1,225.68,207c-3.1-1.05-6.31-1.81-9.46-2.72-1.58-.45-3.13-1-4.72-1.41-5.87-1.51-11.76-3-17.64-4.45-4-1-7.94-2.06-11.91-3.09a7.5,7.5,0,0,0-1.1-.27,43.21,43.21,0,0,1-9.14-2.42,57.5,57.5,0,0,0-6.6-1.69,27.47,27.47,0,0,1-7.77-2.89,3.58,3.58,0,0,1-2.19-3.76c.3-2,.68-4,1-6,.07-.36.37-.76.28-1.05a1.35,1.35,0,0,1,.59-1.76,7.52,7.52,0,0,1,2.41-1c1.22-.19,2.51,0,3.73-.2a161.71,161.71,0,0,1,29.4-1.7c4.69.13,9.38.35,14.06.7a144.87,144.87,0,0,1,30.64,5.25c6.36,1.9,12.75,3.72,19,6,5,1.85,10.19,3.39,15.18,5.32a76.11,76.11,0,0,1,7.09,3.53,2.75,2.75,0,0,1,1.44,2.26,17.76,17.76,0,0,1,.41,3.24,2.19,2.19,0,0,1-1.16,1.48,40.42,40.42,0,0,1-7.51,3.08c-3.8.93-7.54,2.13-11.37,2.94s-7.49,1.26-11.25,1.82c-2.32.34-4.65.6-7,.86C241.13,209.25,240.11,209.28,239.19,209.35Z"/><path class="cls-11" d="M292.92,191.7c-2.35,1.35-4.4.8-6.36.95-5.2.38-10.42.4-15.54,1.88a40.6,40.6,0,0,1-6.63,1.11c-2.63.3-4.59-.85-5.7-4-.78-2.26-1.94-4.32-2.75-6.56-.53-1.46-1.39-2.23-2.54-2.3-2.21-.13-4.43,0-6.65,0-.09-2.35,0-2.89,1.62-3.34a18.21,18.21,0,0,1,5.3-.58,47,47,0,0,1,6.45.7q9.4,1.53,18.78,3.22a8.38,8.38,0,0,1,2.73,1.19q4.71,2.86,9.35,5.86A15.09,15.09,0,0,1,292.92,191.7Z"/><path class="cls-10" d="M270.4,66.48a4.52,4.52,0,0,1-3.17,3.29,16.87,16.87,0,0,1-5.17.91c-3,.11-6.07.39-9.1.55-3.51.19-7,.32-10.54.53-2.41.14-4.81.4-7.22.55-1.18.08-2.37,0-3.56,0-4.61,0-9.23,0-13.84,0-3.75,0-7.52,0-11.26-.32-4.24-.33-8.46-.09-12.69-.13-1.71,0-3.42.19-5.13.16-3.23-.05-6.46-.28-9.69-.28-3,0-6,.18-9,.35a1.79,1.79,0,0,0-1,.64c-1.31,1.43-2.56,2.91-3.88,4.33a2.68,2.68,0,0,1-1.29.81,21,21,0,0,1-10.94-.1,4.51,4.51,0,0,1-1.75-1.13c-1.22-1.24-2.33-2.6-3.54-3.85a1.77,1.77,0,0,0-1.17-.34c-2.9,0-5.81-.09-8.7.08-4.94.29-9.88.45-14.82.4a85.89,85.89,0,0,0-12.93.83,25.89,25.89,0,0,1-6.67.15A33.8,33.8,0,0,0,99,74c-1.71,0-3.41,0-5.12,0-1,0-2-.14-3-.16a46.6,46.6,0,0,1-8.47-.94,8.74,8.74,0,0,1-2.58-1.12,1.54,1.54,0,0,1-.58-1.17c0-.5.48-.61,1-.72,2.18-.46,4.31-1.16,6.5-1.56,4.44-.81,8.89-1.57,13.36-2.19,4.18-.58,8.39-1,12.59-1.41,2-.18,4-.05,6-.13,1.8-.07,3.6-.3,5.41-.34,2.55,0,5.11,0,7.66,0,1.52,0,3,0,4.56,0,3.66-.13,7.31-.36,11-.43,1.46,0,2.93.29,4.4.38,1.23.07,2.47.06,3.7.06,8.9,0,17.79-.15,26.69-.14,7.18,0,14.37.11,21.55.26,4.13.08,8.26.39,12.4.5,5.94.16,11.89.24,17.84.34,6.14.1,12.27.15,18.41.3,4.75.12,9.5.35,14.26.55C267.79,66.22,269,66.37,270.4,66.48Zm-118,6c.56,1.06.93,1.88,1.41,2.62a1.71,1.71,0,0,0,1,.71,19.86,19.86,0,0,0,7.91.09c.18,0,.43-.07.51-.19.8-1.12,1.56-2.26,2.53-3.68-1.88.13-3.39.17-4.88.36a16.92,16.92,0,0,1-4.38.12A33.93,33.93,0,0,0,152.37,72.45Z"/><path class="cls-4" d="M148.79,66.88a17.65,17.65,0,0,1,0,2.36c-.52,3.86-1.2,7.7-1.62,11.57-.52,4.77-.78,9.57-1.26,14.34-.56,5.53-1.27,11-1.87,16.56-.45,4.06-.82,8.12-1.26,12.18-.38,3.5-.82,7-1.21,10.48-.36,3.31-.66,6.62-1,9.92-.41,3.73-.89,7.45-1.3,11.18a30.14,30.14,0,0,1-1.77,7.9,18.76,18.76,0,0,1-1.57,3.34,5.94,5.94,0,0,1-3.47,2.3c-1.59.47-3.2.12-4.8,0-2.31-.18-4.62-.43-7-.67-.12,1.85-.25,3.64-.32,5.44a1.25,1.25,0,0,0,.45.8,3.34,3.34,0,0,0,.83.43c.06.63-.25.93-.73.87a6.7,6.7,0,0,1-1.75-.47c-.51-.21-1-.6-1.46-.84a1.41,1.41,0,0,1-.91-1.58c.15-1.65.21-3.31.33-5.15-5.42-.82-10.79-1.84-16.28-2.4,0,1.37,0,2.58,0,3.79a4.39,4.39,0,0,1-.17,1.25c-.3.92-.65,1-1.46.56-.37-.21-.74-.43-1.1-.66a2.25,2.25,0,0,1-1.17-2.12c0-1.12,0-2.25-.06-3.43l-9-1.88a4,4,0,0,1-.56-.07c-1.8-.66-2.41-.56-2.44-3a68.71,68.71,0,0,1,.56-9.1c.33-2.83.42-5.69.71-8.52.56-5.52,1.08-11.05,1.81-16.55s1.75-11.07,2.59-16.61c.43-2.81.63-5.67,1.15-8.46.77-4.15,1.73-8.27,2.6-12.4Q95.37,82.61,96.53,77a17.35,17.35,0,0,1,2.87-6.92,2.71,2.71,0,0,1,3.71-.66c-.46.87-1,1.72-1.36,2.63a50.16,50.16,0,0,0-2.6,10.33c-1,5.75-2.1,11.49-3.08,17.24-.63,3.74-1.13,7.5-1.69,11.26a7.77,7.77,0,0,0,0,.92c.62,0,1.22,0,1.8-.1a91.49,91.49,0,0,1,12.94-.49c1.38.05,2.76,0,4.14.06,3.18.08,6.35.18,9.53.25,1.28,0,2.57,0,3.85,0,2.09,0,4.17.14,6.26.18,1.84,0,3.69,0,5.57,0a3.8,3.8,0,0,0,.27-.7c.75-4.78,1.57-9.56,2.22-14.36.71-5.17,1.29-10.37,1.88-15.56.37-3.21.69-6.42,1-9.64a12,12,0,0,0,0-2.84c-.12-.8.18-1.1.84-1.39C145.92,66.73,147.17,66.21,148.79,66.88ZM93.28,118.32c-.1.52-.15.75-.18,1-.49,3.43-1,6.85-1.45,10.28s-.8,6.69-1.13,10c-.25,2.5-.41,5-.58,7.53-.19,2.79-.36,5.59-.53,8.39,0,.71,0,1.43-.09,2.14a2.36,2.36,0,0,0,1.45,2.61,10.13,10.13,0,0,0,2.42.81c2.48.39,5,.71,7.48,1,2.73.32,5.47.57,8.2.89,2.12.25,4.23.59,6.34.85,5,.62,10,1.21,15,1.81,1.15.14,1.51,0,1.66-1.17q.66-4.94,1.18-9.9c.41-3.87.68-7.75,1.14-11.61.4-3.3,1-6.57,1.49-9.86.65-4.46,1.27-8.93,1.89-13.39.08-.54.1-1.09.15-1.71h-3.59l-2.55,0c-1.66,0-3.32-.05-5,0-1.09,0-2.18.23-3.26.21-2.09,0-4.17-.25-6.26-.26-3.18,0-6.36.09-9.54.18-2.61.07-5.21.18-7.82.27-.28,0-.57,0-.85,0Z"/><path class="cls-13" d="M270.4,57.76c.34,2.45,1.3,9.84-.48,9.94-3,.17-32.31-1.65-34.72-1.43-1.18.11-2.37.06-3.56.07-4.61,0-9.23.06-13.84,0-3.75-.06-7.52-.05-11.26-.47-4.24-.48-8.46-.13-12.69-.19-1.71,0-3.42.27-5.13.24-3.23-.07-6.46-.41-9.69-.41-3,0-6,.27-9,.51-.35,0-23.17.53-23.57.52-2.9,0-5.81-.13-8.7.11a147,147,0,0,1-14.82.58c-4.33-.06-10.29,2-14.58,2.84-2.2.45-28.35,1.29-29.16.6-.33-.28,0-6.22,0-6.8s.48-.89,1-1.05c2.18-.67,4.31-1.7,6.5-2.28,4.44-1.19,8.89-2.29,13.36-3.2,4.18-.85,8.39-1.5,12.59-2.06,2-.27,4-.07,6-.19,1.8-.1,3.6-.44,5.41-.49,2.55-.07,5.11,0,7.66.07,1.52,0,3,.06,4.56,0,3.66-.19,7.31-.52,11-.62a39,39,0,0,1,4.4.55c1.23.11,2.47.09,3.7.08,8.9-.07,17.79-.22,26.69-.2,7.18,0,14.37.17,21.55.38,4.13.12,8.26.57,12.4.73,5.94.23,11.89.35,17.84.5,6.14.15,12.27.22,18.41.44,4.75.17,9.5.51,14.26.81C267.79,57.38,269,57.59,270.4,57.76Z"/><path class="cls-12" d="M222.31,134.47c.07,2.06,1,2.78,3,3.12s3.49-.54,5-1.53c.41-.27.6-.85,1-1.2a2.51,2.51,0,0,1,1.25-.78,81.59,81.59,0,0,1,8.24-.48,103.23,103.23,0,0,1,10.93.72c3.93.49,4.87,2.37,5.7,5.62,1.19,4.7,1.15,9.5,1.18,14.3,0,1.71,0,3.42-.06,5.13a5.7,5.7,0,0,1-.85,3.18c-1.24.11-2.42.14-3.58.34a38.69,38.69,0,0,1-7.81.08c-5.27-.17-10.54-.47-15.81-.64-4.65-.15-9.3-.14-13.95-.29-2.37-.08-4.73-.47-7.1-.55a42.29,42.29,0,0,1-9.49-1.7,15.8,15.8,0,0,1-2.16-.72c-.92-.39-1.79-.85-2-2a18.76,18.76,0,0,1-.53-3.2A43.2,43.2,0,0,1,196,148c.39-2.14,1-4.25,1.46-6.37.08-.32.23-.63.31-.95,1-3.93,3.86-5.39,7.54-5.82,2.5-.29,5-.62,7.48-.9,1.18-.13,2.36-.19,3.55-.26.57,0,1.15,0,1.71,0A5.57,5.57,0,0,1,222.31,134.47Z"/><path class="cls-9" d="M254.51,135.07a1.48,1.48,0,0,1,1.9-.68,7.41,7.41,0,0,1,5.28,5.61,43.83,43.83,0,0,1,.79,9.2c.05,3.42,0,6.84,0,10.25a4.92,4.92,0,0,0,.08.7c.15,1,0,1.26-1,1.61-.54.18-1.05.44-1.58.64a4,4,0,0,1-.94.3c-1.07.13-1.41-.14-1.39-1.22,0-1.42.16-2.84.17-4.26,0-4,.11-8,0-12a32.4,32.4,0,0,0-.81-5.76,9.7,9.7,0,0,0-1.26-2.52C255.35,136.33,254.91,135.71,254.51,135.07Z"/><path class="cls-13" d="M209.12,239.36a5.09,5.09,0,0,0,.27-1A105.75,105.75,0,0,1,211,224.6c.64-4.08,1.42-8.14,2-12.23a62.28,62.28,0,0,0,.31-6.38,1.31,1.31,0,0,1,1.17-1.34c1.56-.42,3.13-.81,4.71-1.14,1.77-.36,3.55-.63,5.33-.95l8.69-1.57c3.69-.68,7.37-1.41,11.07-2,4.4-.74,8.83-1.33,13.23-2.09,3.51-.61,7-1.45,10.48-2.07,5.75-1,11.5-2,17.28-2.88a19.14,19.14,0,0,1,7.63.21,6.5,6.5,0,0,1,3.53,2.11c1.65,1.91,3.32,3.79,4.14,6.26.22.65.87,1.17,1.07,1.82.75,2.49,1.93,4.83,2.16,7.49s.79,5.06,1.18,7.59a14,14,0,0,1,.14,1.7c0,.61,0,1.17.59,1.63s.19.84-.28,1.13a2.58,2.58,0,0,1-3.42-.77,14.31,14.31,0,0,1-2.35-4.53,35.87,35.87,0,0,0-2.12-5.27,14.28,14.28,0,0,0-13.25-8.07,15.11,15.11,0,0,0-9.3,3.05,24.32,24.32,0,0,0-3.36,3.27,62.85,62.85,0,0,0-6.31,8.78c-3.3,5.08-5.71,10.63-8.42,16-.25.51-.41,1.06-.64,1.58a3.17,3.17,0,0,1-2.3,2c-2.41.53-4.81,1.09-7.24,1.49-5,.81-10,1.54-14.94,2.25-2.68.38-5.37.74-8.07.88a52.92,52.92,0,0,1-5.83-.28c-.8,0-1.61-.14-2.41-.18A11.1,11.1,0,0,1,209.12,239.36Z"/><path class="cls-4" d="M263.28,178.26c-.21,4.13-.39,8.25-.63,12.38a14.64,14.64,0,0,1-.5,2.94,3,3,0,0,1-.86,1.23c-1.62,1.54-3.74,2-5.79,2.6-4,1.12-7.95,2.21-12,3.19a41.28,41.28,0,0,1-8.7,1.35,5.14,5.14,0,0,1-4.16-1.45,14.62,14.62,0,0,1-1.72-1.68,5.84,5.84,0,0,1-.13-6.47,30.65,30.65,0,0,1,3.64-4.34c.5-.57,1.06-1.08,1.59-1.63a88.91,88.91,0,0,1,12.62-10.86,24.68,24.68,0,0,1,8.51-4.21,16.32,16.32,0,0,1,5.66-.07,2.34,2.34,0,0,1,2.08,2.07c.26,1.63.38,3.29.56,4.93ZM238.7,197.15l1.6-.17a52.18,52.18,0,0,0,11-2.76c1.91-.68,3.71-1.67,5.55-2.54a2,2,0,0,0,1.14-1.8c.44-3.58,1-7.14,1.39-10.72a8.49,8.49,0,0,0-.22-2.53,1.14,1.14,0,0,0-.71-.75,4.91,4.91,0,0,0-2.24-.09,18.53,18.53,0,0,0-5.42,2.45c-.84.61-1.74,1.17-2.53,1.84-2.16,1.85-4.4,3.63-6.38,5.67-2.55,2.61-4.87,5.44-7.29,8.17-.89,1-.81,1.72.29,2.44A6.75,6.75,0,0,0,238.7,197.15Z"/><path class="cls-4" d="M143.32,193.86a3,3,0,0,1-1.68-1.61c-.82-1.6-1.72-3.15-2.56-4.69l9-9.61c2.57-2.73,5.16-5.45,7.71-8.2.84-.91,1.59-1.89,2.35-2.86q1.5-1.9,3-3.83a16.64,16.64,0,0,0,.91-1.44c.48-.8,1-1,1.76-.57,1.11.63,2.18,1.33,3.24,2s1.92,1.39,2.91,2c.35.23.67.41.57.86s-.42.53-.87.45a1.45,1.45,0,0,0-.76.26,24.46,24.46,0,0,0-7,5.54c-1.5,1.66-2.93,3.37-4.43,5-1.24,1.38-2.58,2.67-3.78,4.08-2.07,2.42-4.08,4.9-6.1,7.35Z"/><path class="cls-4" d="M156.47,147.06a11.71,11.71,0,0,1,4.83,1.13,45,45,0,0,1,11,6.55c4,3.2,7.64,6.85,9.72,11.73a9.54,9.54,0,0,1,.53,6.4,3.4,3.4,0,0,1-3.74,2.81,50.12,50.12,0,0,1-6-1,16.27,16.27,0,0,1-2.87-1.21c-4-1.78-8-3.69-11.11-6.82-3.31-3.29-6.39-6.79-8-11.32a10.16,10.16,0,0,1-.6-3.92,4,4,0,0,1,3.14-3.91C154.38,147.26,155.43,147.2,156.47,147.06Zm20.78,24.74c2,.09,2.47-.56,1.94-2.5a13.22,13.22,0,0,0-3.9-5.86c-2.44-2.38-5-4.63-7.69-6.77-2.91-2.34-5.82-4.74-9.5-5.88a23.07,23.07,0,0,0-2.28-.77,2.24,2.24,0,0,0-2.82,2.78,9.76,9.76,0,0,0,2.09,5.07,46,46,0,0,0,3.9,4.49,70.93,70.93,0,0,0,9.26,6.61A19.64,19.64,0,0,0,177.25,171.8Z"/><path class="cls-4" d="M178,170.47c-.79,1.39-2.15,1.39-3.47,1.32a12.93,12.93,0,0,1-5.62-1.36c-1.95-1.07-3.9-2.14-5.83-3.25a14.33,14.33,0,0,1-3.8-3.62c-1.37-1.69-2.76-3.37-4.14-5.05.51-1.19.51-1.06,1.59-1.05a35.83,35.83,0,0,0,5.1-.3,4.89,4.89,0,0,1,4,1,59.62,59.62,0,0,1,7.15,6.47,33.5,33.5,0,0,0,3,2.82A7.52,7.52,0,0,1,178,170.47Z"/><path class="cls-12" d="M257.89,239.32c-.55,1.91-1,3.86-2.44,5.4a115.4,115.4,0,0,1-12.92.6c-2.8,0-5.61.29-8.41.22-6.52-.16-13,.34-19.52.42-3.8,0-7.61,0-11.41.06-4.37.09-8.74.29-13.11.42-3.61.11-7.22.14-10.83.32-3.94.2-7.87.59-11.81.78-4.27.2-8.54.26-12.81.37a8.28,8.28,0,0,0-1.28,0,25.29,25.29,0,0,1-6.68,0,2.2,2.2,0,0,1-2.29-2.49c0-.86.07-1.71.14-2.56.09-1,.25-1.18,1.32-1.26,2.7-.18,5.41-.32,8.11-.56,4.54-.41,9.07-1,13.61-1.32,6.21-.49,12.42-1.11,18.63-1.22q10.49-.19,21-.75c6.51-.35,13-.36,19.53-.45,8.23-.11,16.45-.34,24.67-.51.52,0,1,0,1.57,0A5.25,5.25,0,0,1,257.89,239.32Z"/><path class="cls-13" d="M96.16,169.2a80.27,80.27,0,0,1,12.58,1.1c3.52.51,7.06.93,10.57,1.55a32.74,32.74,0,0,1,14.13,5.75,26.91,26.91,0,0,1,9.4,11.73,4.7,4.7,0,0,0,.29.65c1.7,2.91,2.48,6.15,3.46,9.32.81,2.63,1.8,5.21,2.65,7.83,1.45,4.47,2.85,9,4.27,13.44.91,2.85,1.86,5.69,2.72,8.56.78,2.59,1.41,5.22,2.21,7.8a2.4,2.4,0,0,1-1,2.74,10.66,10.66,0,0,1-4.24,2.22,8.68,8.68,0,0,1-5-.5,20.39,20.39,0,0,1-8.85-7,71.9,71.9,0,0,0-7.25-8.62,32.21,32.21,0,0,0-7.54-5.09,7.76,7.76,0,0,0-2.61-.65,50.72,50.72,0,0,0-13.64.36,39.09,39.09,0,0,1-4.83.16c-1.27,0-2.55.05-3.82,0-2.23-.08-4.46-.21-6.69-.33-1-.05-2-.12-3-.2-3-.24-6-.47-8.94-.72-2.74-.23-5.49-.47-8.23-.75A27.28,27.28,0,0,1,68.7,218a73.56,73.56,0,0,1-7.78-2.31A11.56,11.56,0,0,1,54,209.29a10.46,10.46,0,0,1-.68-5.26,34.45,34.45,0,0,1,3-10.65,19.37,19.37,0,0,1,3.18-4.87,41.22,41.22,0,0,1,3.68-4,37.63,37.63,0,0,1,4.53-3.45c3.69-2.43,7.45-4.76,11.17-7.14.4-.25.77-.56,1.14-.85a14.8,14.8,0,0,1,5.77-3,53.07,53.07,0,0,1,6.77-.85C93.59,169.12,94.64,169.2,96.16,169.2Z"/><path class="cls-4" d="M78.53,237.11c-.92-.42-2-.25-2.46-1.36-.07-.18-.49-.26-.76-.33-1.28-.34-2.57-.64-3.85-1-2-.53-3.95-1-5.89-1.65s-3.75-1.32-5.64-2A10.29,10.29,0,0,1,56,228.26a2.79,2.79,0,0,1-.79-1.62,36.53,36.53,0,0,1-.25-6,10.44,10.44,0,0,1,3.19-6.22,1.76,1.76,0,0,1,1.15-.31,29.77,29.77,0,0,1,7.27,1.27c2.68.63,5.4,1.08,8.09,1.67s5.46,1.24,8.17,1.94c1,.26,2,.72,2.94,1.07A2.23,2.23,0,0,1,87.49,222c.2,1.7.44,3.39.63,5.08a2.31,2.31,0,0,1-.76,2.07c-1.34,1.19-2.7,2.36-4.05,3.55-1,.91-2.06,1.82-3.08,2.75C79.64,236,79.08,236.57,78.53,237.11Z"/><path class="cls-11" d="M80.79,212.36a6.17,6.17,0,0,1,.5-1.24,43.28,43.28,0,0,1,10-10.41,72.88,72.88,0,0,1,11.48-7.14c2.53-1.19,5.18-2.11,7.77-3.16a1.84,1.84,0,0,1,2.21.48c-2,3.14-4.09,6.26-6.06,9.45-.77,1.25-1.31,2.63-2,3.94q-1.7,3.29-3.45,6.55a4.51,4.51,0,0,1-3.24,2.35,21.09,21.09,0,0,1-6.48.5c-1-.12-2.09,0-3.14-.06-1.66-.06-3.32-.07-5-.28A13.22,13.22,0,0,1,80.79,212.36Z"/><path class="cls-5" d="M79.2,233.53c-1-.14-1.84-.23-2.62-.35-1.21-.19-2.44-.35-3.64-.61-3.06-.65-6.15-1.23-9.16-2.08A22.11,22.11,0,0,1,59,228.27a4.13,4.13,0,0,1-2-3.45c-.06-.75-.13-1.5-.22-2.43a3.63,3.63,0,0,1,1-.08,145.16,145.16,0,0,1,14.21,3.57c1.58.5,3.21.83,4.83,1.23,2.08.51,2.61,1,2.9,3.12A4.43,4.43,0,0,1,79.2,233.53Z"/><path class="cls-10" d="M75.59,208.33a10.85,10.85,0,0,1,1.06-2.07c1.45-1.88,2.92-3.75,4.54-5.48,2.59-2.78,5.2-5.54,8-8.13a64.19,64.19,0,0,1,10.42-8.12,1.14,1.14,0,0,1,1,0A5.83,5.83,0,0,1,102,186.1c.28.5-.2.79-.62,1.09-1.63,1.14-3.27,2.27-4.81,3.53-1.73,1.4-3.39,2.89-5,4.42-2.17,2.05-4.26,4.18-6.38,6.28a60.78,60.78,0,0,0-6.75,8.22,1.15,1.15,0,0,1-1.57.47C75.74,209.67,75.52,209.48,75.59,208.33Z"/><path class="cls-11" d="M66.39,187.4c-.56,1-1,2-1.61,2.87A12.22,12.22,0,0,0,63,197.32c0,1.8.1,3.6,0,5.4a6.85,6.85,0,0,1-1.25,4,4,4,0,0,0-.3.77,1.67,1.67,0,0,1-2.23.82A3.87,3.87,0,0,1,57,205.42a10.94,10.94,0,0,1,.53-6.15,40.89,40.89,0,0,1,4.61-9.12,17.61,17.61,0,0,1,2.26-2.55A1.44,1.44,0,0,1,66.39,187.4Z"/><path class="cls-10" d="M94.73,200.34a5.64,5.64,0,0,1,5.34,4.27.9.9,0,0,1,0,.55c-.74,2-1.56,3.92-3.52,5.12a4.55,4.55,0,0,1-5.48-.68c-2-2.14-2-4.33-.18-6.72.44-.56.86-1.13,1.31-1.67A3.31,3.31,0,0,1,94.73,200.34Z"/><path class="cls-10" d="M58.32,198.41a3.68,3.68,0,0,1,3.49,2.79.59.59,0,0,1,0,.36,6,6,0,0,1-2.29,3.34,3,3,0,0,1-3.57-.44,3,3,0,0,1-.12-4.38c.28-.36.56-.74.86-1.09A2.16,2.16,0,0,1,58.32,198.41Z"/><path class="cls-4" d="M80.43,194.59a41.07,41.07,0,0,1-4.89-.7c-1.44-.37-2.86-.94-3.21-2.8s1.21-4,3-4c3-.05,5.92.79,8.83,1.46a1.67,1.67,0,0,1,1.18,2.55,15.25,15.25,0,0,1-1.67,2.78,2.11,2.11,0,0,1-1.23.61A14.47,14.47,0,0,1,80.43,194.59Z"/><path class="cls-10" d="M70.81,186.52c.76.56.36,1.18.09,1.75-.57,1.2-1.24,2.35-1.78,3.56a53.51,53.51,0,0,0-2.44,7.71c-.3,1.1-.52,2.22-.76,3.33-.13.58-.48.74-1,.7a.75.75,0,0,1-.77-.95,36.89,36.89,0,0,1,.77-5.63,23,23,0,0,1,4.63-9.37c.28-.32.58-.63.89-.92A1.51,1.51,0,0,1,70.81,186.52Z"/><path class="cls-14" d="M94.57,204.15l-.32,1.1,1,.48-.83,1.61a4.51,4.51,0,0,1,.88.7,1,1,0,0,1-.43,1.63A2.78,2.78,0,0,1,91,207.48c0-.09,0-.2,0-.27a1.92,1.92,0,0,1,.21-2.36A3.25,3.25,0,0,1,94.57,204.15Z"/><path class="cls-14" d="M59.45,201.86c-.35.82-.87,1.1-1.63.86a8,8,0,0,1-.93-.35,1.8,1.8,0,0,1-1-2.76,2.89,2.89,0,0,0,.28-.59c.28-1.21,1.11-1.79,2.7-1.74L58,198.6l.92.1c-.15,1-1.07,1.26-1.66,2Z"/><path class="cls-9" d="M158.28,183.17c3.54.75,7.09,1.46,10.63,2.25,2.07.46,4.12,1,6.17,1.57,2.3.62,4.61,1.17,6.88,2,6.9,2.42,13.78,4.93,20.66,7.43,3.51,1.28,7,2.55,10.52,3.94,2.51,1,3.79,4.21,3.11,7.44a3.64,3.64,0,0,1-2.71,3.1c-2.52.84-4.72-.46-7-1.41-1.24-.52-2.44-1.15-3.69-1.63-6-2.31-12-4.62-18-6.86-3.12-1.16-6.25-2.3-9.41-3.22-2.19-.64-4.45-.81-6.66-1.34-3.09-.74-6.16-1.6-9.23-2.44a22.43,22.43,0,0,1-2.9-1,10.68,10.68,0,0,1-2.33-1.29c-1.55-1.19-1.67-3-1.05-5.23s1.88-2.8,3.44-2.94l1.49-.14Z"/><path class="cls-10" d="M297.44,205.1a8.53,8.53,0,0,1-3.07-.7,19.44,19.44,0,0,0-7.3-1.77c-8.71-.65-16,2.33-22.07,8.57a50,50,0,0,0-7.59,10.46c-1.12,2-2.49,3.81-3.76,5.7a.69.69,0,0,1-.2.2c-.41.26-.8.87-1.34.35s-.07-.92.22-1.38a15.88,15.88,0,0,0,1.2-2.25,56.93,56.93,0,0,1,6.75-12.35,42.12,42.12,0,0,1,7.78-8.12A23.65,23.65,0,0,1,279.47,199a21.89,21.89,0,0,1,8.08,0,18.83,18.83,0,0,1,4.25,1.58,49.09,49.09,0,0,1,4.47,2.78A2,2,0,0,1,297.44,205.1Z"/><path class="cls-10" d="M248.68,227.19a2.27,2.27,0,0,1-2.36,1.95c-2.79.19-5.58.31-8.38.46-1.14.06-2.27.16-3.41.14-2.13,0-4.27-.17-6.4-.21-2.75-.05-5.51,0-8.26-.07-2.28,0-4.56-.13-6.83-.25-.58,0-1.42,0-1.46-.79s.78-.63,1.31-.74a3.85,3.85,0,0,1,.7-.11c4.51-.1,9-.27,13.53-.27,4.75,0,9.5.21,14.25.23,1.94,0,3.88-.22,5.83-.33C247.65,227.16,248.11,227.19,248.68,227.19Z"/><path class="cls-4" d="M125.89,176.25a3,3,0,0,1,3.12-.55c2,.77,4.1,1.16,6.13,1.8a12.78,12.78,0,0,1,5.86,3.92,13.89,13.89,0,0,1,2.2,3.95,93.73,93.73,0,0,1,3,9.65c1,3.47,2.35,6.81,3.52,10.22.93,2.69,1.8,5.4,2.72,8.1,1.1,3.24,2.2,6.48,3.36,9.69s2.42,6.59,3.69,9.87c.55,1.41,1.23,2.77,1.85,4.15.1.22.22.42.3.65a1.56,1.56,0,0,1-1.18,2.28c-1.32.4-2.23.07-2.47-1.12-.62-3-2-5.74-3.1-8.56-2.62-6.58-4.87-13.29-7.06-20q-2.38-7.32-4.89-14.59c-1-3-2.07-5.91-3.21-8.83a12.13,12.13,0,0,0-5.87-6.53,23.4,23.4,0,0,0-7-2.72C126.09,177.5,126.07,177.39,125.89,176.25Z"/><path class="cls-10" d="M115.43,183.21a2.42,2.42,0,0,1,2.45-.6c1.61.51,3.32.71,5,1.11a10.17,10.17,0,0,1,4.86,2.8,11,11,0,0,1,2,3,74.58,74.58,0,0,1,2.87,7.5c.94,2.7,2.22,5.29,3.33,7.93.88,2.09,1.71,4.2,2.58,6.29,1,2.51,2.09,5,3.17,7.52s2.27,5.11,3.44,7.64c.51,1.09,1.12,2.14,1.68,3.2.09.17.2.33.27.5a1.24,1.24,0,0,1-.82,1.87c-1,.39-1.77.17-2-.76a40.64,40.64,0,0,0-2.91-6.63c-2.43-5.09-4.56-10.29-6.65-15.52q-2.27-5.68-4.65-11.33c-1-2.3-2-4.59-3-6.84a9.65,9.65,0,0,0-5-4.88,18.62,18.62,0,0,0-5.7-1.79C115.65,184.19,115.63,184.11,115.43,183.21Z"/><path class="cls-15" d="M175.07,193.51c1.14,0,2.12-.05,3.1,0a1.72,1.72,0,0,1,1.6,1.4,3.67,3.67,0,0,1,.22,1.41c-.35,3-.34,6.17-1.11,9a5.39,5.39,0,0,0-.15,1.06c-.33,5.51-1.8,10.29-2.65,15.47-.27,1.66-.65,2-1.21,1.72s-.9-1.43-.85-2.78c.21-6,.44-12.06.66-18.09.06-1.69.07-3.39.13-5.08C174.86,196.38,175,195.15,175.07,193.51Z"/></g></g></svg>