<svg xmlns="http://www.w3.org/2000/svg" viewBox="0 0 360 360"><defs><style>.cls-1{isolation:isolate;}.cls-2,.cls-3{fill:#b5d0e1;}.cls-15,.cls-18,.cls-3{mix-blend-mode:multiply;}.cls-19,.cls-4{fill:#fff;}.cls-15,.cls-5{fill:#dfe3eb;}.cls-6{fill:#f3e4b2;}.cls-7{fill:#e2dba4;}.cls-8{fill:#d6b266;}.cls-16,.cls-9{fill:#fbc651;}.cls-10{fill:#fb3449;}.cls-11{fill:#96382d;}.cls-12{fill:#86c883;}.cls-13{fill:#ebe6c0;}.cls-14{fill:#856b36;}.cls-16,.cls-17{opacity:0.8;}.cls-17{fill:#fddd97;}.cls-19{opacity:0.7;}</style></defs><title>Icon_Event_Beer_Tasting_3C</title><g class="cls-1"><g id="Background"><circle id="_27.62.111" data-name="27.62.111" class="cls-2" cx="180" cy="180" r="180"/></g><g id="Active_Artwork_5_x_5" data-name="Active Artwork 5 x 5"><path class="cls-3" d="M208.82,220.23c5.08.64,10.14,1.46,15.24,1.87,5.47.44,11,.46,16.49.74,2.72.14,5.42.35,8.11.71a18.84,18.84,0,0,1,6.13,1.4c3,1.5,6.31,1.48,8.91,4.6a16.17,16.17,0,0,1,3.14,5,17.45,17.45,0,0,1,.55,6.39,33.62,33.62,0,0,1-3.24,12.26,27.07,27.07,0,0,1-6.39,8.36c-3.4,3.06-6.8,6.13-10.24,8.84a41.16,41.16,0,0,1-6.17,3.65c-1.31.72-2.64,1.25-4,1.88-2.33,1.11-4.65,2.25-7,3.33-2.95,1.37-5.9,2.8-8.85,4a48.58,48.58,0,0,1-4.9,1.44c-5.68,1.7-11.29,2-16.92,2.81a47.44,47.44,0,0,1-17.2-.81c-1.5-.35-3-.4-4.56-.61a41.39,41.39,0,0,1-14.47-4.33,59,59,0,0,0-8.76-3.57c-7.08-2.49-13.65-7-19.78-13.19a52.32,52.32,0,0,1-4.7-5,18.62,18.62,0,0,1-3.79-8.38,27.56,27.56,0,0,1,2.38-17.46,31.65,31.65,0,0,1,7.13-9.07c3.08-2.86,6.23-5.28,9.35-7.83a2.63,2.63,0,0,1,1.5-.64c2.3-.08,4.59-.08,6.89-.08,4.09,0,8.19,0,12.28.07,7.79.22,15.6.32,23.36.89,6.53.48,13,1.56,19.48,2.38Z"/><path class="cls-3" d="M245.78,126.7c7.3.92,14.58,2.12,21.92,2.68,7.88.6,15.83.53,23.74.88,3.91.17,7.81.45,11.68,1,3,.41,6,.59,8.81,2.1,4.27,2.31,9.07,2.23,12.76,7.11a25.23,25.23,0,0,1,4.43,7.88,29.94,29.94,0,0,1,.67,10.08,58.08,58.08,0,0,1-4.88,19.42,43.92,43.92,0,0,1-9.35,13.32c-4.95,4.89-9.9,9.81-14.91,14.15-2.93,2.54-6,4.05-9,5.87-1.9,1.16-3.82,2-5.73,3-3.37,1.79-6.74,3.63-10.12,5.38-4.27,2.22-8.54,4.52-12.82,6.5a66.77,66.77,0,0,1-7.09,2.37c-8.21,2.78-16.3,3.43-24.43,4.74a62.29,62.29,0,0,1-24.76-1,65.84,65.84,0,0,0-6.55-.88c-7.12-1-14.11-2.69-20.77-6.58a78.84,78.84,0,0,0-12.55-5.49c-10.16-3.8-19.53-10.79-28.26-20.47a77.25,77.25,0,0,1-6.68-7.75,30,30,0,0,1-5.32-13.17,47.69,47.69,0,0,1,3.74-27.62,51.19,51.19,0,0,1,10.43-14.45c4.48-4.57,9.06-8.45,13.61-12.54a3.71,3.71,0,0,1,2.18-1c3.31-.17,6.62-.21,9.92-.24,5.9-.06,11.81-.22,17.69-.11,11.22.21,22.47.23,33.63,1,9.4.64,18.68,2.24,28,3.41Z"/><path class="cls-4" d="M233,115.5c3.24.36,5.47.46,7.66.88,9.07,1.74,18.14,3.49,27.19,5.43a35.77,35.77,0,0,1,7.27,2.72,70.69,70.69,0,0,1,9,4.71,76,76,0,0,1,11.26,8.38,19.43,19.43,0,0,1,4.78,8.27c1.59,5.31.17,11-2.32,15.67A98.71,98.71,0,0,1,290,174.17c-5.29,7-10.65,14.06-16.69,19.11-2.09,1.75-4.24,3.28-6.39,4.77-5.53,3.85-11,8-16.92,9.15-5.7,1.13-11.39,2.05-17.09,3.08-4.17.75-8.35,1.54-12.52,2.3a69.68,69.68,0,0,1-15.62,1.49c-2.68-.13-5.45.73-8.15.77-5.27.07-10.52-.13-15.77-.2-2.79,0-5.61.21-8.36-.11a58.33,58.33,0,0,1-9.35-1.87,136.35,136.35,0,0,1-15.83-5.08c-5-2.11-9.83-5.17-14.75-7.75-2.64-1.39-5.39-2.38-8-4-3.29-2.07-6.45-4.58-9.65-6.94a24.35,24.35,0,0,1-7.32-8.68c-3.06-5.9-4.27-12.85-3.67-21.17.75-10.51,4.55-17.78,10-22.81A64.55,64.55,0,0,1,134.06,123a25,25,0,0,1,4.09-.91c7.55-1.61,15.1-3.49,22.64-4.75a153.4,153.4,0,0,1,16.82-1.58c8.16-.46,16.29-.51,24.46-1.06C212.8,114,223.56,113.36,233,115.5Z"/><path class="cls-5" d="M286.45,148.15a16.71,16.71,0,0,0-4.11-7.11,65.38,65.38,0,0,0-9.68-7.2,60.81,60.81,0,0,0-7.78-4.05,30.77,30.77,0,0,0-6.26-2.34c-7.78-1.67-15.58-3.18-23.38-4.67-1.88-.36-3.81-.45-6.59-.76-8.15-1.84-17.41-1.3-26.63-.68-7,.48-14,.52-21,.92a132,132,0,0,0-14.47,1.36c-6.49,1.09-13,2.7-19.47,4.09a21.55,21.55,0,0,0-3.52.78,55.52,55.52,0,0,0-17.3,11.38c-4.65,4.33-7.92,10.58-8.56,19.62-.51,7.16.53,13.14,3.16,18.21a20.94,20.94,0,0,0,6.3,7.46c2.76,2,5.47,4.18,8.3,6,2.21,1.4,4.57,2.25,6.84,3.45,4.23,2.22,8.37,4.85,12.68,6.67a117.27,117.27,0,0,0,13.61,4.37,50.17,50.17,0,0,0,8,1.6c2.37.27,4.8.06,7.19.09,4.52.06,9,.23,13.57.17,2.33,0,4.7-.77,7-.66a59.93,59.93,0,0,0,13.43-1.28c3.59-.65,7.18-1.33,10.77-2,4.9-.89,9.8-1.68,14.7-2.65,5-1,9.79-4.56,14.55-7.87,1.85-1.29,3.69-2.6,5.49-4.1,5.2-4.35,9.81-10.38,14.36-16.44a84.9,84.9,0,0,0,6.78-10.85C286.6,157.63,287.82,152.72,286.45,148.15Zm-6.7,12.57a80,80,0,0,1-6.39,10.22c-4.29,5.71-8.62,11.39-13.53,15.49-1.69,1.42-3.43,2.65-5.17,3.87-4.48,3.12-8.95,6.47-13.7,7.42s-9.23,1.66-13.84,2.5L217,202.07a56.45,56.45,0,0,1-12.65,1.2c-2.17-.1-4.41.59-6.61.62-4.27.06-8.52-.1-12.78-.16-2.26,0-4.54.17-6.78-.09a47.26,47.26,0,0,1-7.58-1.51A110.47,110.47,0,0,1,157.76,198c-4.07-1.71-8-4.19-11.95-6.28-2.14-1.12-4.36-1.93-6.45-3.25-2.66-1.68-5.22-3.71-7.82-5.62a19.73,19.73,0,0,1-5.93-7c-2.48-4.78-3.46-10.41-3-17.15.61-8.51,3.69-14.4,8.07-18.48A52.29,52.29,0,0,1,147,129.5a20.3,20.3,0,0,1,3.31-.74c6.11-1.31,12.23-2.82,18.34-3.85a124.29,124.29,0,0,1,13.63-1.28c6.61-.38,13.2-.41,19.82-.86,8.69-.59,17.41-1.09,25.09.64,2.62.29,4.43.38,6.21.72,7.35,1.41,14.7,2.82,22,4.4a29,29,0,0,1,5.89,2.2,57.28,57.28,0,0,1,7.32,3.82,61.59,61.59,0,0,1,9.12,6.79,15.74,15.74,0,0,1,3.87,6.7C282.92,152.33,281.77,157,279.75,160.72Z"/><path class="cls-5" d="M269.88,189.86c3.17-2.87,5.51-6.35,8-9.7,15-15.54,14.59-36.11,16.29-35,1.32,5.69-1.92,17.71-4.46,21.83-2.65,4.29-5.13,8.7-8.49,12.61-1.39,1.62-2.55,3.42-4,5a24,24,0,0,1-6.43,5.3,5.53,5.53,0,0,1-.74.25Z"/><path class="cls-5" d="M115.48,173.52c-.24.13-.5.44-.71.36a6.37,6.37,0,0,1-2.52-1.2,16.91,16.91,0,0,1-1.87-3,14.31,14.31,0,0,1-1.08-4.35,18.05,18.05,0,0,1,0-4.59c.61-5.9,1.69-10.32,3.48-13.27a15.59,15.59,0,0,1,4.7-5.28c.08-.05.15,0,.24.08a6.65,6.65,0,0,1-.59,2.7l-1.67,3.67a39.86,39.86,0,0,0-2.23,6.85,25.64,25.64,0,0,0-.69,11A8.16,8.16,0,0,0,114,170c.45.89,1,1.53,1.42,2.32a3.28,3.28,0,0,1,.16.62Z"/><path class="cls-6" d="M198.41,124.3c-.15,1.88-.26,3.52-.43,5.16-.32,3.15-.73,6.3-1,9.46-.37,4.27-.63,8.54-1,12.82-.09,1.18-.25,2.36-.39,3.54q-.93,7.55-1.86,15.1c-.07.55-.1,1.11-.13,1.66-.17,3.87-.32,7.74-.5,11.61-.13,2.77-1.84,4-4.48,3.21-5.73-1.61-11.51-3.07-17.2-4.83a73,73,0,0,1-9.26-3.7c-5-2.32-9.83-4.87-14.76-7.26-5.25-2.55-9.85-6.11-14.62-9.4-1.75-1.21-3.65-2.2-5.48-3.3-.2-.12-.38-.29-.58-.42-3.54-2.23-4-4.63.2-7,4.9-2.76,10.19-4.41,15.39-6.35q10-3.74,20.18-7.16c7.39-2.48,14.4-5.85,21.48-9.05,2.46-1.11,4.89-2.28,7.34-3.41A12.71,12.71,0,0,1,198.41,124.3Z"/><path class="cls-7" d="M124.29,155.11a5.37,5.37,0,0,1,1.12.46c2.65,2.15,5.16,4.5,8,6.43a75,75,0,0,0,10.78,6.48c5.32,2.46,10.91,4.33,16.37,6.49s10.85,4.52,16.36,6.55c4,1.47,8.14,2.59,12.25,3.75a4.07,4.07,0,0,1,3,3.31c.49,2.38.67,4.83,1,7.25a4.42,4.42,0,0,1-.16,1.12,4.88,4.88,0,0,1-3.8-.21c-5.77-2-11.54-4.06-17.28-6.18-7.37-2.71-14.71-5.52-22.07-8.27-4.58-1.71-8.64-4.39-12.77-6.9-3.33-2-6.51-4.27-9.83-6.3a4.65,4.65,0,0,1-2.39-3.84c-.25-2.76-.6-5.52-.84-8.28A8.29,8.29,0,0,1,124.29,155.11Z"/><path class="cls-8" d="M183.32,176c-3.4-.5-6.54-.9-9.65-1.42-4-.66-7.94-1.53-11.94-2.08-3.12-.43-6.3-.45-9.43-.81a27.74,27.74,0,0,1-6.28-1.22c-3.7-1.35-7.57-1.63-11.38-2.26a12.1,12.1,0,0,1-9-6.21c-2.06-3.65-2.26-7.36.1-11a3.6,3.6,0,0,0,.7-1.5c.18-2.25,1.76-2.83,3.57-3.09a7.32,7.32,0,0,1,2.37,0c4.2.8,8.47,1.16,12.55,2.63,5,1.8,10.21,3,15.12,5a75,75,0,0,0,17.23,4.44c2.65.4,5.37.37,8.06.57a10.83,10.83,0,0,1,2.34.4,5.17,5.17,0,0,1,3.71,5.22c-.19,2-.56,4.08-.85,6.12a4.42,4.42,0,0,1-3.11,3.84C186,175.08,184.56,175.54,183.32,176Z"/><path class="cls-9" d="M146.37,165.07c10.92,2,21.82,3,32.68.14.24-1.6-.76-1.76-1.45-2.11-5.13-2.54-10.23-5.16-15.43-7.52-5.88-2.68-11.84-5.15-17.8-7.63-.94-.39-2-1.38-3-.42-1.22,1.15-.5,2.71-.12,3.89,1.23,3.74,2.68,7.38,4.06,11.06C145.59,163.25,145.92,164,146.37,165.07Z"/><path class="cls-10" d="M153.74,155a4.74,4.74,0,0,1-2.64,3.75c-1.11.58-2.07,1.44-3.15,2.08-2.45,1.44-5.24,1.48-7.88,1.28-4.47-.33-8.85-1.46-12-4.93a12.76,12.76,0,0,1-3.43-10.51,7.42,7.42,0,0,1,6.23-5.74,5.22,5.22,0,0,1,2.27.53A66.92,66.92,0,0,1,145,148.8c2.24,1.63,4.55,3.15,6.82,4.73C152.49,154,153.09,154.49,153.74,155Z"/><path class="cls-10" d="M169.18,172.18A18.12,18.12,0,0,1,161,170c-4.49-2.17-5.32-7.33-4.84-10.51a3.52,3.52,0,0,1,4.13-3,99.37,99.37,0,0,1,18,4.32,6.42,6.42,0,0,1,1.48.75c1.31.85,1.56,1.35,1,2.77C179,168.67,175.81,172.65,169.18,172.18Z"/><path class="cls-11" d="M153.74,152.58a4.41,4.41,0,0,1-2.44,3.5c-1,.54-1.91,1.34-2.91,1.93-2.26,1.34-4.84,1.38-7.28,1.19-4.13-.31-8.18-1.36-11.12-4.59a11.94,11.94,0,0,1-3.17-9.79,6.88,6.88,0,0,1,5.76-5.35,4.79,4.79,0,0,1,2.1.49c4,1.79,14.08,3.87,17.57,6.44,2.07,1.52-.15,2.13,1.94,3.6C154.79,150.43,153.14,152.11,153.74,152.58Z"/><path class="cls-11" d="M169.1,170.09a15.71,15.71,0,0,1-7.09-1.9c-3.89-1.88-4.61-6.35-4.19-9.11.27-1.78,4.74-4,6.52-3.75,5.35.68,7.57,3.26,12.69,4.92a5.56,5.56,0,0,1,1.28.65c1.13.73,1.35,1.17.85,2.4C177.62,167,174.85,170.5,169.1,170.09Z"/><polygon class="cls-10" points="170.71 159.7 172.01 170.93 174.33 170.12 172.79 159.7 170.71 159.7"/><polygon class="cls-10" points="167.66 159.28 159.71 167.32 161.79 168.63 168.96 160.9 167.66 159.28"/><polygon class="cls-10" points="140.9 148.94 139.88 160.2 142.31 159.88 142.93 149.36 140.9 148.94"/><polygon class="cls-10" points="139.39 147.19 128.57 154.16 130.44 155.81 140.33 149.05 139.39 147.19"/><path class="cls-12" d="M167.28,156.91a11.51,11.51,0,0,0-2.81.32c-2.5,1-4.9,2.23-7.4,3.21a13.82,13.82,0,0,1-4.33,1c-2.2.09-3.44-1.22-3.7-3.44a5.71,5.71,0,0,1,1.34-4.44l3-3.66-8.67,2.46a9.17,9.17,0,0,1-1.38.34c-3.5.42-5.71-1.36-4.66-5.25.34-1.28.79-2.53,1.19-3.8-1.16-.79-2.09-.22-3,.09-2.1.69-4.19,1.45-6.34,2a5.34,5.34,0,0,1-4.37-.43c-2.26-1.52-2.55-4-.76-6.44.74-1,1.78-1.89,1.17-3.47-.24-.07-.56-.28-.82-.22a24.39,24.39,0,0,1-8.27-.08,3.74,3.74,0,0,1-3.55-3.53,4.87,4.87,0,0,1,2.56-4.49,16.21,16.21,0,0,1,7.21-1.06c2.07.13,3.39,1.14,5,2.14a91.65,91.65,0,0,0,8.53,4.72c4.69,2.32,9.46,4.49,14.18,6.75,3.5,1.68,7,3.45,10.49,5.08,1.65.76,3.41,1.3,5.12,1.91,3.58,1.29,7.18,2.54,10.74,3.87,3,1.14,6.08,2.28,9,3.61a25.37,25.37,0,0,1,4,2.62,2,2,0,0,1,.93,2.47,3,3,0,0,1-1.92,1.5,10.13,10.13,0,0,1-4.18-.33,5.73,5.73,0,0,0-5,.21c-.74.42-1.66.54-2.45.89-1,.45-2,1-2.92,1.51a8.18,8.18,0,0,1-1.63,1c-3.11.81-6.05.56-6.15-4C167.27,159,167.28,158.16,167.28,156.91Z"/><path class="cls-6" d="M196,79.06c-.15,1.88.8,8.09.63,9.73-.32,3.15-.73,6.3-1,9.46-.37,4.27-.63,8.54-1,12.82-.09,1.18-.25,2.36-.39,3.54q-.93,7.55-1.86,15.1c-.07.55-.1,1.11-.13,1.66-.17,3.87-.32,7.74-.5,11.61-.13,2.77-1.84,4-4.48,3.21-5.73-1.61-11.51-3.07-17.2-4.83a73,73,0,0,1-9.26-3.7c-5-2.32-9.83-4.87-14.76-7.26-5.25-2.55-9.85-6.11-14.62-9.4-1.75-1.21-3.65-2.2-5.48-3.3-.2-.12-.38-.29-.58-.42-3.54-2.23-4-4.63.2-7,4.9-2.76,10.19-4.41,15.39-6.35q10-3.74,20.18-7.16c7.39-2.48,14.4-5.85,21.48-9.05,2.46-1.11,4.89-2.28,7.34-3.41C192.2,83.33,193.4,78.75,196,79.06Z"/><path class="cls-7" d="M123,114.43a5.37,5.37,0,0,1,1.12.46c2.65,2.15,5.16,4.5,8,6.43a75,75,0,0,0,10.78,6.48c5.32,2.46,10.91,4.33,16.37,6.49s10.85,4.52,16.36,6.55c4,1.47,8.14,2.59,12.25,3.75a4.07,4.07,0,0,1,3,3.31c.49,2.38.67,4.83,1,7.25a4.42,4.42,0,0,1-.16,1.12,4.88,4.88,0,0,1-3.8-.21c-5.77-2-11.54-4.06-17.28-6.18-7.37-2.71-14.71-5.52-22.07-8.27-4.58-1.71-8.64-4.39-12.77-6.9-3.33-2-6.51-4.27-9.83-6.3a4.65,4.65,0,0,1-2.39-3.84c-.25-2.76-.6-5.52-.84-8.28A8.29,8.29,0,0,1,123,114.43Z"/><path class="cls-7" d="M152.5,106.95l-2.11,1c-.71-.93-1.29-1.71-.15-2.49C151.05,104.89,151.57,105.23,152.5,106.95Z"/><path class="cls-7" d="M140.15,116.4c-.45-1-1.32-1.89,0-2.51a1.93,1.93,0,0,1,1.78.67C142.44,115.84,141.34,116.08,140.15,116.4Z"/><path class="cls-7" d="M138.36,111.14c0,1.48-.37,2.35-1.34,2.33-.53,0-1-.87-1.56-1.35l.18-.57Z"/><path class="cls-7" d="M151.28,115c-.77-.81-1.11-1.59,0-2.19.34-.19,1.32,0,1.42.26C153.14,114.28,152.23,114.64,151.28,115Z"/><path class="cls-7" d="M145.88,117.54l-1.8,2-1.2-2.09,2.73-.57Z"/><path class="cls-7" d="M142,109.92h1.87c.35,1.1-.24,1.6-1,1.63C142,111.58,141.79,110.85,142,109.92Z"/><path class="cls-7" d="M148.78,117.21l1,1.12c-.37.32-.71.8-1.14.9-.24.06-.94-.6-.89-.79C147.86,118,148.33,117.72,148.78,117.21Z"/><path class="cls-7" d="M165.26,121c-.45-.07-1,0-1.31-.24s-.29-.83-.42-1.27l.44-.3,1.54,1.12Z"/><path class="cls-7" d="M162.23,124.86c-1.52.84-1.57-.23-2-1C161.35,123.39,161.8,123.9,162.23,124.86Z"/><path class="cls-7" d="M165.13,128.92c-1.24-.37-1.24-.37-1.6-1.47C164.57,127.29,165.19,127.51,165.13,128.92Z"/><path class="cls-7" d="M151.51,123.84c-.33-.43-.7-.7-.71-1s.37-.54.59-.81c.3.27.71.5.86.84C152.31,123,151.85,123.41,151.51,123.84Z"/><path class="cls-7" d="M145.88,114c-.17-.65-.36-1-.31-1.26a3.17,3.17,0,0,1,.51-.91l.86.56Z"/><path class="cls-7" d="M170.57,124.56l-1.24-1.25c.32-.22.46-.39.56-.37C170.6,123.09,170.92,123.5,170.57,124.56Z"/><path class="cls-7" d="M170.6,127.71l1.42.45c-.11.24-.16.49-.23.5C171.15,128.73,171.15,128.72,170.6,127.71Z"/><path class="cls-7" d="M157,118.88l1.45,1.21C157.07,120.3,156.8,119.87,157,118.88Z"/><path class="cls-8" d="M184.64,143.95c-3.4-.5-6.54-.9-9.65-1.42-4-.66-7.94-1.53-11.94-2.08-3.12-.43-6.3-.45-9.43-.81a27.74,27.74,0,0,1-6.28-1.22c-3.7-1.35-7.57-1.63-11.38-2.26a12.1,12.1,0,0,1-9-6.21c-2.06-3.65-2.26-7.36.1-11a3.6,3.6,0,0,0,.7-1.5c.18-2.25,1.76-2.83,3.57-3.09a7.32,7.32,0,0,1,2.37,0c4.2.8,8.47,1.16,12.55,2.63,5,1.8,10.21,3,15.12,5a75,75,0,0,0,17.23,4.44c2.65.4,5.37.37,8.06.57a10.83,10.83,0,0,1,2.34.4,5.17,5.17,0,0,1,3.71,5.22c-.19,2-.56,4.08-.85,6.12a4.42,4.42,0,0,1-3.11,3.84C187.3,143.08,185.88,143.54,184.64,143.95Z"/><path class="cls-9" d="M147.69,133.07c10.92,2,21.82,3,32.68.14.24-1.6-.76-1.76-1.45-2.11-5.13-2.54-10.23-5.16-15.43-7.52-5.88-2.68-11.84-5.15-17.8-7.63-.94-.39-2-1.38-3-.42-1.22,1.15-.5,2.71-.12,3.89,1.23,3.74,2.68,7.38,4.06,11.06C146.9,131.24,147.24,132,147.69,133.07Z"/><path class="cls-10" d="M155.05,123a4.74,4.74,0,0,1-2.64,3.75c-1.11.58-2.07,1.44-3.15,2.08-2.45,1.44-5.24,1.48-7.88,1.28-4.47-.33-8.85-1.46-12-4.93a12.76,12.76,0,0,1-3.43-10.51,7.42,7.42,0,0,1,6.23-5.74,5.22,5.22,0,0,1,2.27.53,66.92,66.92,0,0,1,11.91,7.35c2.24,1.63,4.55,3.15,6.82,4.73C153.8,122,154.41,122.49,155.05,123Z"/><path class="cls-10" d="M170.5,140.18a18.12,18.12,0,0,1-8.18-2.19c-4.49-2.17-5.32-7.33-4.84-10.51a3.52,3.52,0,0,1,4.13-3,99.37,99.37,0,0,1,18,4.32,6.42,6.42,0,0,1,1.48.75c1.31.85,1.56,1.35,1,2.77C180.33,136.66,177.13,140.65,170.5,140.18Z"/><path class="cls-11" d="M155.05,120.57a4.41,4.41,0,0,1-2.44,3.5c-1,.54-1.91,1.34-2.91,1.93-2.26,1.34-4.84,1.38-7.28,1.19-4.13-.31-8.18-1.36-11.12-4.59a11.94,11.94,0,0,1-3.17-9.79,6.88,6.88,0,0,1,5.76-5.35,4.79,4.79,0,0,1,2.1.49c4,1.79,14.08,3.87,17.57,6.44,2.07,1.52-.15,2.13,1.94,3.6C156.1,118.43,154.45,120.11,155.05,120.57Z"/><path class="cls-11" d="M170.41,138.08a15.71,15.71,0,0,1-7.09-1.9c-3.89-1.88-4.61-6.35-4.19-9.11.27-1.78,4.74-4,6.52-3.75,5.35.68,7.57,3.26,12.69,4.92a5.56,5.56,0,0,1,1.28.65c1.13.73,1.35,1.17.85,2.4C178.94,135,176.16,138.49,170.41,138.08Z"/><polygon class="cls-10" points="172.03 127.69 173.33 138.92 175.65 138.12 174.1 127.69 172.03 127.69"/><polygon class="cls-10" points="168.97 127.28 161.03 135.32 163.1 136.62 170.27 128.9 168.97 127.28"/><polygon class="cls-10" points="142.21 116.94 141.2 128.19 143.63 127.88 144.25 117.36 142.21 116.94"/><polygon class="cls-10" points="140.7 115.19 129.89 122.15 131.76 123.8 141.64 117.04 140.7 115.19"/><path class="cls-12" d="M168.6,124.9a11.51,11.51,0,0,0-2.81.32c-2.5,1-4.9,2.23-7.4,3.21a13.82,13.82,0,0,1-4.33,1c-2.2.09-3.44-1.22-3.7-3.44a5.71,5.71,0,0,1,1.34-4.44l3-3.66L146,120.37a9.17,9.17,0,0,1-1.38.34c-3.5.42-5.71-1.36-4.66-5.25.34-1.28.79-2.53,1.19-3.8-1.16-.79-2.09-.22-3,.09-2.1.69-4.19,1.45-6.34,2a5.34,5.34,0,0,1-4.37-.43c-2.26-1.52-2.55-4-.76-6.44.74-1,1.78-1.89,1.17-3.47-.24-.07-.56-.28-.82-.22a24.39,24.39,0,0,1-8.27-.08,3.74,3.74,0,0,1-3.55-3.53,4.87,4.87,0,0,1,2.56-4.49A16.21,16.21,0,0,1,124.94,94c2.07.13,3.39,1.14,5,2.14a91.65,91.65,0,0,0,8.53,4.72c4.69,2.32,9.46,4.49,14.18,6.75,3.5,1.68,7,3.45,10.49,5.08,1.65.76,3.41,1.3,5.12,1.91,3.58,1.29,7.18,2.54,10.74,3.87,3,1.14,6.08,2.28,9,3.61a25.37,25.37,0,0,1,4,2.62,2,2,0,0,1,.93,2.47,3,3,0,0,1-1.92,1.5,10.13,10.13,0,0,1-4.18-.33,5.73,5.73,0,0,0-5,.21c-.74.42-1.66.54-2.45.89-1,.45-2,1-2.92,1.51a8.18,8.18,0,0,1-1.63,1c-3.11.81-6.05.56-6.15-4C168.58,127,168.6,126.16,168.6,124.9Z"/><path class="cls-6" d="M198.41,51.62c-.15,1.88-.26,3.52-.43,5.16-.32,3.15-.73,6.3-1,9.46-.37,4.27-.63,8.54-1,12.82-.09,1.18-.25,2.36-.39,3.54q-.93,7.55-1.86,15.1c-.07.55-.1,1.11-.13,1.66-.17,3.87-.32,7.74-.5,11.61-.13,2.77-1.84,4-4.48,3.21-5.73-1.61-11.51-3.07-17.2-4.83a73,73,0,0,1-9.26-3.7c-5-2.32-9.83-4.87-14.76-7.26-5.25-2.55-9.85-6.11-14.62-9.4-1.75-1.21-3.65-2.2-5.48-3.3-.2-.12-.38-.29-.58-.42-3.54-2.23-4-4.63.2-7,4.9-2.76,10.19-4.41,15.39-6.35q10-3.74,20.18-7.16c7.39-2.48,14.4-5.85,21.48-9.05,2.46-1.11,4.89-2.28,7.34-3.41A12.71,12.71,0,0,1,198.41,51.62Z"/><path class="cls-7" d="M124.29,82.42a5.37,5.37,0,0,1,1.12.46c2.65,2.15,5.16,4.5,8,6.43a75,75,0,0,0,10.78,6.48c5.32,2.46,10.91,4.33,16.37,6.49s10.85,4.52,16.36,6.55c4,1.47,8.14,2.59,12.25,3.75a4.07,4.07,0,0,1,3,3.31c.49,2.38.67,4.83,1,7.25a4.42,4.42,0,0,1-.16,1.12,4.88,4.88,0,0,1-3.8-.21c-5.77-2-11.54-4.06-17.28-6.18-7.37-2.71-14.71-5.52-22.07-8.27-4.58-1.71-8.64-4.39-12.77-6.9-3.33-2-6.51-4.27-9.83-6.3a4.65,4.65,0,0,1-2.39-3.84c-.25-2.76-.6-5.52-.84-8.28A8.29,8.29,0,0,1,124.29,82.42Z"/><path class="cls-7" d="M153.82,74.94l-2.11,1c-.71-.93-1.29-1.71-.15-2.49C152.37,72.88,152.88,73.23,153.82,74.94Z"/><path class="cls-7" d="M141.46,84.39c-.45-1-1.32-1.89,0-2.51a1.93,1.93,0,0,1,1.78.67C143.75,83.83,142.66,84.07,141.46,84.39Z"/><path class="cls-7" d="M139.68,79.13c0,1.48-.37,2.35-1.34,2.33-.53,0-1-.87-1.56-1.35l.18-.57Z"/><path class="cls-7" d="M152.59,83c-.77-.81-1.11-1.59,0-2.19.34-.19,1.32,0,1.42.26C154.46,82.28,153.54,82.63,152.59,83Z"/><path class="cls-7" d="M147.19,85.53l-1.8,2-1.2-2.09,2.73-.57Z"/><path class="cls-7" d="M143.29,77.91h1.87c.35,1.1-.24,1.6-1,1.63C143.28,79.57,143.11,78.84,143.29,77.91Z"/><path class="cls-7" d="M150.1,85.2l1,1.12c-.37.32-.71.8-1.14.9-.24.06-.94-.6-.89-.79C149.18,86,149.64,85.71,150.1,85.2Z"/><path class="cls-7" d="M166.57,89c-.45-.07-1,0-1.31-.24s-.29-.83-.42-1.27l.44-.3,1.54,1.12Z"/><path class="cls-7" d="M163.54,92.85c-1.52.84-1.57-.23-2-1C162.67,91.39,163.12,91.9,163.54,92.85Z"/><path class="cls-7" d="M166.45,96.92c-1.24-.37-1.24-.37-1.6-1.47C165.89,95.28,166.5,95.5,166.45,96.92Z"/><path class="cls-7" d="M152.83,91.84c-.33-.43-.7-.7-.71-1s.37-.54.59-.81c.3.27.71.5.86.84C153.62,91,153.16,91.41,152.83,91.84Z"/><path class="cls-7" d="M147.19,82c-.17-.65-.36-1-.31-1.26a3.17,3.17,0,0,1,.51-.91l.86.56Z"/><path class="cls-7" d="M171.88,92.55l-1.24-1.25c.32-.22.46-.39.56-.37C171.92,91.09,172.23,91.49,171.88,92.55Z"/><path class="cls-7" d="M171.91,95.71l1.42.45c-.11.24-.16.49-.23.5C172.46,96.73,172.46,96.71,171.91,95.71Z"/><path class="cls-7" d="M158.28,86.88l1.45,1.21C158.39,88.3,158.11,87.86,158.28,86.88Z"/><path class="cls-13" d="M190.51,113.22s5.72-61.4,7.9-61.6,1.49,17.85,1.72,20.14-5.54,51.76-7.16,52.5S190.51,113.22,190.51,113.22Z"/><path class="cls-13" d="M190.51,185.9s2.3,12.16,2.46,11,6.26-42.38,7.16-56c0,0-.7-17.56-1.73-16.62S190.51,185.9,190.51,185.9Z"/><path class="cls-6" d="M211.35,125a5.47,5.47,0,0,1,4.51-.35c3.54,1.18,7.1,2.3,10.64,3.47,5.65,1.87,11.35,3.6,16.92,5.69a259.33,259.33,0,0,1,27.37,12.27c1.76.91,3.64,1.59,5.42,2.47a18.51,18.51,0,0,1,3.23,2c1.16.91,1.07,1.9-.06,2.72-.95.69-1.93,1.32-2.84,2.07a18.75,18.75,0,0,1-4.69,2.74c-2.25,1-4.35,2.29-6.56,3.37-4.92,2.39-9.83,4.82-14.83,7-4.4,2-8.88,3.76-13.41,5.45-6.76,2.52-13.34,5.53-20,8.31a54.64,54.64,0,0,1-11.39,3.3c-1.66.3-2,0-2.51-1.66-.7-2.52-.23-5.05.11-7.55q1.29-9.43,2.74-18.83a92.83,92.83,0,0,1,1.89-9.8c1.37-5.1,1.38-10.37,2.22-15.53C210.51,129.85,210.93,127.52,211.35,125Z"/><path class="cls-7" d="M279.87,150.59l.86,7.18a9.44,9.44,0,0,1-4.24,4.07c-6.14,3.33-12.24,6.73-18.42,10-2.73,1.44-5.61,2.59-8.39,3.92s-5.59,2.68-8.31,4.15a220.56,220.56,0,0,1-21.57,10.62c-2.56,1-5,2.49-7.45,3.73-2.06,1-4.13,2-6.17,3a3.75,3.75,0,0,1-2.14-3.76c.1-2.22.07-4.44.06-6.67a1.81,1.81,0,0,1,1.21-1.82c2.64-1.28,5.19-2.77,7.86-4,2-.91,4.19-1.44,6.23-2.3,3.8-1.61,7.56-3.31,11.31-5s7.28-3.18,10.8-5c5.21-2.69,10.26-5.7,15.49-8.36,3.82-1.94,7.8-3.56,11.72-5.31,2.61-1.16,5.23-2.32,7.86-3.42C277.58,151.2,278.64,151,279.87,150.59Z"/><path class="cls-8" d="M221.39,171.33c-4,0-7-2.79-8.12-7.64-1.08-4.62-.81-5.88,2.92-8.25,4.57-2.9,9.32-5.46,14-8.1,8.21-4.62,16.41-9.25,24.68-13.74a44.66,44.66,0,0,1,7.71-3.26,5.09,5.09,0,0,1,6.65,2.84,6.06,6.06,0,0,1,.68,2.64c-.34,8.61-3.17,15.68-10.36,19.86-1.55.9-3.24,1.51-4.81,2.37-2.09,1.14-4.09,2.51-6.21,3.58a44.34,44.34,0,0,1-6.74,2.92c-2.24.7-4.63.77-6.89,1.4a14.22,14.22,0,0,0-4.06,2.05C228.83,169.39,223.66,171.34,221.39,171.33Z"/><path class="cls-9" d="M256,153c-11.08,2-22.13,3-33.16.14-.24-1.6.77-1.76,1.47-2.11,5.2-2.54,10.38-5.16,15.65-7.52,6-2.68,12-5.15,18.05-7.63,1-.39,2-1.38,3.06-.42,1.24,1.15.51,2.71.12,3.89-1.25,3.74-2.72,7.38-4.12,11.06C256.76,151.19,256.42,151.94,256,153Z"/><path class="cls-10" d="M245.16,140.87a5.36,5.36,0,0,0,2.54,4.22c1.07.65,2,1.62,3,2.34,2.36,1.62,5.06,1.66,7.61,1.44,4.32-.38,8.54-1.64,11.62-5.55a15.91,15.91,0,0,0,3.31-11.82c-.33-3.08-3.37-6.32-6-6.46a4.46,4.46,0,0,0-2.19.59,63.84,63.84,0,0,0-11.5,8.27c-2.16,1.84-4.39,3.54-6.59,5.33C246.36,139.74,245.78,140.31,245.16,140.87Z"/><path class="cls-10" d="M230.25,160.21c2.52.09,5.22-.95,7.9-2.46,4.33-2.44,5.13-8.24,4.67-11.82-.3-2.31-2-3.65-4-3.35a84.76,84.76,0,0,0-17.4,4.86,5.91,5.91,0,0,0-1.43.84c-1.26,1-1.51,1.52-.94,3.12C220.76,156.26,223.85,160.74,230.25,160.21Z"/><path class="cls-11" d="M245.16,138.15a5,5,0,0,0,2.35,3.93c1,.6,1.84,1.51,2.81,2.18,2.18,1.51,4.68,1.55,7,1.34,4-.35,7.89-1.53,10.74-5.17a14.9,14.9,0,0,0,3.06-11c-.3-2.87-3.12-5.88-5.56-6a4.1,4.1,0,0,0-2,.55c-3.83,2-13.59,4.36-17,7.25-2,1.71.15,2.39-1.88,4.05C244.14,135.74,245.73,137.63,245.16,138.15Z"/><path class="cls-11" d="M230.33,157.85a13.52,13.52,0,0,0,6.85-2.13c3.75-2.12,4.45-7.15,4-10.25-.26-2-4.57-4.48-6.3-4.22-5.16.77-7.31,3.67-12.25,5.53a5.12,5.12,0,0,0-1.24.73c-1.09.83-1.31,1.32-.82,2.7C222.1,154.43,224.78,158.31,230.33,157.85Z"/><polygon class="cls-10" points="228.77 146.16 227.51 158.8 225.28 157.89 226.77 146.16 228.77 146.16"/><polygon class="cls-10" points="231.72 145.69 239.39 154.74 237.38 156.21 230.47 147.52 231.72 145.69"/><polygon class="cls-10" points="257.55 134.06 258.53 146.72 256.18 146.37 255.59 134.54 257.55 134.06"/><polygon class="cls-10" points="259.01 132.1 269.44 139.93 267.64 141.78 258.1 134.18 259.01 132.1"/><path class="cls-12" d="M279.32,123.1c-.39.83-.56,1.95-1.21,2.43-2.39,1.76-4.36,4.08-7.26,5.21a16.78,16.78,0,0,1-6.34.77,10.13,10.13,0,0,0-5.88,1.62c-1.1.74-1.87,1.48-1.38,3.12s-1.5,4-3.57,4.26c-2.44.26-4.9.46-7.35.6-3,.17-4.11,1-5.24,3.87-2.05,5.25-8.34,8.11-12.78,6.68a7.3,7.3,0,0,0-8,2.11c-1.83,1.88-3.74,3.68-5.49,5.64a6.38,6.38,0,0,1-3.87,2.12l-2.35.37c-1.67.25-2.75-.2-3.17-1.76a12.27,12.27,0,0,1-.14-3.72c.06-1.24.83-1.95,1.84-2.77,4.5-3.66,9.86-5.77,14.84-8.55,8.67-4.84,17.39-9.6,26.19-14.2,6.2-3.23,12.57-6.13,18.86-9.17,1.43-.69,2.86-1.38,4.31-2a16.45,16.45,0,0,1,2.24-.8C277,117.91,279.07,119.44,279.32,123.1Z"/><path class="cls-6" d="M210,84.37a5.47,5.47,0,0,1,4.51-.35c3.54,1.18,7.1,2.3,10.64,3.47,5.65,1.87,11.35,3.6,16.92,5.69a259.33,259.33,0,0,1,27.37,12.27c1.76.91,3.64,1.59,5.42,2.47a18.51,18.51,0,0,1,3.23,2c1.16.91,1.07,1.9-.06,2.72-.95.69-1.93,1.32-2.84,2.07a18.75,18.75,0,0,1-4.69,2.74c-2.25,1-4.35,2.29-6.56,3.37-4.92,2.39-9.83,4.82-14.83,7-4.4,2-8.88,3.76-13.41,5.45-6.76,2.52-13.34,5.53-20,8.31a54.64,54.64,0,0,1-11.39,3.3c-1.66.3-2,0-2.51-1.66-.7-2.52-.23-5.05.11-7.55q1.29-9.43,2.74-18.83a92.83,92.83,0,0,1,1.89-9.8c1.37-5.1,1.38-10.37,2.22-15.53C209.2,89.17,209.61,86.84,210,84.37Z"/><path class="cls-7" d="M278.55,109.91l.86,7.18a9.44,9.44,0,0,1-4.24,4.07c-6.14,3.33-12.24,6.73-18.42,10-2.73,1.44-5.61,2.59-8.39,3.92s-5.59,2.68-8.31,4.15a220.56,220.56,0,0,1-21.57,10.62c-2.56,1-5,2.49-7.45,3.73-2.06,1-4.13,2-6.17,3a3.75,3.75,0,0,1-2.14-3.76c.1-2.22.07-4.44.06-6.67a1.81,1.81,0,0,1,1.21-1.82c2.64-1.28,5.19-2.77,7.86-4,2-.91,4.19-1.44,6.23-2.3,3.8-1.61,7.56-3.31,11.31-5s7.28-3.18,10.8-5c5.21-2.69,10.26-5.7,15.49-8.36,3.82-1.94,7.8-3.56,11.72-5.31,2.61-1.16,5.23-2.32,7.86-3.42C276.26,110.52,277.33,110.28,278.55,109.91Z"/><path class="cls-7" d="M219.34,120.77c1.73-.22,2.09.68,2.45,1.77-.69.57-1.44.64-1.93.07S219.51,121.45,219.34,120.77Z"/><path class="cls-7" d="M213.63,131.14c-1.1.66-2,.8-2.52-.28a1.21,1.21,0,0,1,.4-1.12C212.61,129.33,213.21,129.95,213.63,131.14Z"/><path class="cls-7" d="M218.27,128.95a6.48,6.48,0,0,1-1-1.55c-.05-.19.69-.83.79-.77a3.77,3.77,0,0,1,1.21,1.12C219.35,127.84,218.79,128.34,218.27,128.95Z"/><path class="cls-7" d="M217.28,124.44c-.69.48-1,.86-1.35.9-.75.09-1.47-.19-1.46-1.07,0-.31.61-.91.81-.86A9.76,9.76,0,0,1,217.28,124.44Z"/><path class="cls-7" d="M242.53,115.45l2-.18c.06,1.21-.44,1.8-1.33,1.81-.31,0-.62-.67-.94-1Z"/><path class="cls-7" d="M244.44,107.68c1.42.11,1.83.75,1.55,1.77a1.08,1.08,0,0,1-.92.52C243.87,109.6,244.28,108.7,244.44,107.68Z"/><path class="cls-7" d="M253.62,111.59c-.8.41-1.29.87-1.64.78s-.68-.68-.81-1.12c0-.13.63-.7.92-.66S252.88,111.08,253.62,111.59Z"/><path class="cls-7" d="M211.42,125.83c-.78.87-1.57.93-2.18.09a1.42,1.42,0,0,1,.32-1.32C210.61,124.23,211,125.06,211.42,125.83Z"/><path class="cls-7" d="M214.94,111.17c1,.05,1.76.32,1.48,1.49a1,1,0,0,1-.84.53C214.49,112.86,214.49,112.1,214.94,111.17Z"/><path class="cls-7" d="M229.53,114.69c-.6.48-1.06,1-1.2.94a3,3,0,0,1-1.16-1.13c-.07-.13.6-.94.73-.89A8.51,8.51,0,0,1,229.53,114.69Z"/><path class="cls-7" d="M212.4,114.59a7,7,0,0,1,.82,1.44c0,.11-.64.64-1,.65-.81,0-1-.63-.88-1.32a5,5,0,0,1,.4-1Z"/><path class="cls-7" d="M260.9,106.63c-.54.46-.95,1-1.14.93a1.78,1.78,0,0,1-1-1c-.07-.19.5-.88.7-.85C259.92,105.83,260.29,106.22,260.9,106.63Z"/><path class="cls-7" d="M230.39,120.8c-.69.71-1.27.8-1.71.14a1,1,0,0,1,.15-1C229.64,119.5,230.12,119.95,230.39,120.8Z"/><path class="cls-7" d="M217.36,115.52a6.42,6.42,0,0,1,.67,1.61c0,.21-.46.48-.71.72a5.11,5.11,0,0,1-.78-1.24C216.49,116.42,216.92,116.09,217.36,115.52Z"/><path class="cls-7" d="M212.39,120c1.12-.07,1.57.44,1.52,1.38,0,.16-.5.44-.72.4C212.26,121.65,212.14,121,212.39,120Z"/><path class="cls-7" d="M235.09,118c1.21-.42,1.9-.61,2,.3.05.33-.39.74-.61,1.11Z"/><path class="cls-7" d="M224.29,123.85c.92-.05,1.45.23,1.29,1.15a.84.84,0,0,1-.69.46C223.93,125.23,224,124.59,224.29,123.85Z"/><path class="cls-8" d="M222.71,139.33c-4,0-7-2.79-8.12-7.64-1.08-4.62-.81-5.88,2.92-8.25,4.57-2.9,9.32-5.46,14-8.1,8.21-4.62,16.41-9.25,24.68-13.74a44.66,44.66,0,0,1,7.71-3.26,5.09,5.09,0,0,1,6.65,2.84,6.06,6.06,0,0,1,.68,2.64c-.34,8.61-3.17,15.68-10.36,19.86-1.55.9-3.24,1.51-4.81,2.37-2.09,1.14-4.09,2.51-6.21,3.58a44.34,44.34,0,0,1-6.74,2.92c-2.24.7-4.63.77-6.89,1.4a14.22,14.22,0,0,0-4.06,2.05C230.15,137.39,225,139.33,222.71,139.33Z"/><path class="cls-9" d="M257.28,121c-11.08,2-22.13,3-33.16.14-.24-1.6.77-1.76,1.47-2.11,5.2-2.54,10.38-5.16,15.65-7.52,6-2.68,12-5.15,18.05-7.63,1-.39,2-1.38,3.06-.42,1.24,1.15.51,2.71.12,3.89-1.25,3.74-2.72,7.38-4.12,11.06C258.08,119.19,257.74,119.93,257.28,121Z"/><path class="cls-10" d="M246.47,108.87a5.36,5.36,0,0,0,2.54,4.22c1.07.65,2,1.62,3,2.34,2.36,1.62,5.06,1.66,7.61,1.44,4.32-.38,8.54-1.64,11.62-5.55a15.91,15.91,0,0,0,3.31-11.82c-.33-3.08-3.37-6.32-6-6.46a4.46,4.46,0,0,0-2.19.59,63.84,63.84,0,0,0-11.5,8.27c-2.16,1.84-4.39,3.54-6.59,5.33C247.68,107.73,247.1,108.3,246.47,108.87Z"/><path class="cls-10" d="M231.56,128.2c2.52.09,5.22-.95,7.9-2.46,4.33-2.44,5.13-8.24,4.67-11.82-.3-2.31-2-3.65-4-3.35a84.76,84.76,0,0,0-17.4,4.86,5.91,5.91,0,0,0-1.43.84c-1.26,1-1.51,1.52-.94,3.12C222.08,124.25,225.16,128.73,231.56,128.2Z"/><path class="cls-11" d="M246.47,106.14a5,5,0,0,0,2.35,3.93c1,.6,1.84,1.51,2.81,2.18,2.18,1.51,4.68,1.55,7,1.34,4-.35,7.89-1.53,10.74-5.17a14.9,14.9,0,0,0,3.06-11c-.3-2.87-3.12-5.88-5.56-6a4.1,4.1,0,0,0-2,.55c-3.83,2-13.59,4.36-17,7.25-2,1.71.15,2.39-1.88,4.05C245.46,103.73,247,105.62,246.47,106.14Z"/><path class="cls-11" d="M231.64,125.85a13.52,13.52,0,0,0,6.85-2.13c3.75-2.12,4.45-7.15,4-10.25-.26-2-4.57-4.48-6.3-4.22-5.16.77-7.31,3.67-12.25,5.53a5.12,5.12,0,0,0-1.24.73c-1.09.83-1.31,1.32-.82,2.7C223.42,122.43,226.1,126.31,231.64,125.85Z"/><polygon class="cls-10" points="230.09 114.16 228.83 126.79 226.59 125.89 228.08 114.16 230.09 114.16"/><polygon class="cls-10" points="233.04 113.69 240.7 122.74 238.7 124.2 231.78 115.51 233.04 113.69"/><polygon class="cls-10" points="258.87 102.06 259.85 114.72 257.5 114.37 256.9 102.53 258.87 102.06"/><polygon class="cls-10" points="260.32 100.09 270.76 107.92 268.96 109.78 259.41 102.18 260.32 100.09"/><path class="cls-12" d="M280.63,91.09c-.39.83-.56,1.95-1.21,2.43-2.39,1.76-4.36,4.08-7.26,5.21a16.78,16.78,0,0,1-6.34.77,10.13,10.13,0,0,0-5.88,1.62c-1.1.74-1.87,1.48-1.38,3.12s-1.5,4-3.57,4.26c-2.44.26-4.9.46-7.35.6-3,.17-4.11,1-5.24,3.87-2.05,5.25-8.34,8.11-12.78,6.68a7.3,7.3,0,0,0-8,2.11c-1.83,1.88-3.74,3.68-5.49,5.64a6.38,6.38,0,0,1-3.87,2.12l-2.35.37c-1.67.25-2.75-.2-3.17-1.76a12.27,12.27,0,0,1-.14-3.72c.06-1.24.83-1.95,1.84-2.77,4.5-3.66,9.86-5.77,14.84-8.55,8.67-4.84,17.39-9.6,26.19-14.2,6.2-3.23,12.57-6.13,18.86-9.17,1.43-.69,2.86-1.38,4.31-2a16.45,16.45,0,0,1,2.24-.8C278.34,85.9,280.38,87.44,280.63,91.09Z"/><path class="cls-6" d="M211.35,52.36a5.47,5.47,0,0,1,4.51-.35c3.54,1.18,7.1,2.3,10.64,3.47,5.65,1.87,11.35,3.6,16.92,5.69a259.33,259.33,0,0,1,27.37,12.27c1.76.91,3.64,1.59,5.42,2.47a18.51,18.51,0,0,1,3.23,2c1.16.91,1.07,1.9-.06,2.72-.95.69-1.93,1.32-2.84,2.07a18.75,18.75,0,0,1-4.69,2.74c-2.25,1-4.35,2.29-6.56,3.37-4.92,2.39-9.83,4.82-14.83,7-4.4,2-8.88,3.76-13.41,5.45-6.76,2.52-13.34,5.53-20,8.31a54.64,54.64,0,0,1-11.39,3.3c-1.66.3-2,0-2.51-1.66-.7-2.52-.23-5.05.11-7.55q1.29-9.43,2.74-18.83a92.83,92.83,0,0,1,1.89-9.8c1.37-5.1,1.38-10.37,2.22-15.53C210.51,57.16,210.93,54.84,211.35,52.36Z"/><path class="cls-7" d="M279.87,77.9l.86,7.18a9.44,9.44,0,0,1-4.24,4.07c-6.14,3.33-12.24,6.73-18.42,10-2.73,1.44-5.61,2.59-8.39,3.92s-5.59,2.68-8.31,4.15a220.56,220.56,0,0,1-21.57,10.62c-2.56,1-5,2.49-7.45,3.73-2.06,1-4.13,2-6.17,3A3.75,3.75,0,0,1,204,120.8c.1-2.22.07-4.44.06-6.67a1.81,1.81,0,0,1,1.21-1.82c2.64-1.28,5.19-2.77,7.86-4,2-.91,4.19-1.44,6.23-2.3,3.8-1.61,7.56-3.31,11.31-5s7.28-3.18,10.8-5c5.21-2.69,10.26-5.7,15.49-8.36,3.82-1.94,7.8-3.56,11.72-5.31,2.61-1.16,5.23-2.32,7.86-3.42C277.58,78.52,278.64,78.28,279.87,77.9Z"/><path class="cls-7" d="M220.65,88.76c1.73-.22,2.09.68,2.45,1.77-.69.57-1.44.64-1.93.07S220.82,89.44,220.65,88.76Z"/><path class="cls-7" d="M214.95,99.13c-1.1.66-2,.8-2.52-.28a1.21,1.21,0,0,1,.4-1.12C213.93,97.33,214.53,97.94,214.95,99.13Z"/><path class="cls-7" d="M219.58,96.94a6.48,6.48,0,0,1-1-1.55c-.05-.19.69-.83.79-.77a3.77,3.77,0,0,1,1.21,1.12C220.66,95.83,220.1,96.34,219.58,96.94Z"/><path class="cls-7" d="M218.59,92.44c-.69.48-1,.86-1.35.9-.75.09-1.47-.19-1.46-1.07,0-.31.61-.91.81-.86A9.76,9.76,0,0,1,218.59,92.44Z"/><path class="cls-7" d="M243.84,83.45l2-.18c.06,1.21-.44,1.8-1.33,1.81-.31,0-.62-.67-.94-1Z"/><path class="cls-7" d="M245.76,75.68c1.42.11,1.83.75,1.55,1.77a1.08,1.08,0,0,1-.92.52C245.18,77.59,245.59,76.69,245.76,75.68Z"/><path class="cls-7" d="M254.93,79.59c-.8.41-1.29.87-1.64.78s-.68-.68-.81-1.12c0-.13.63-.7.92-.66S254.19,79.08,254.93,79.59Z"/><path class="cls-7" d="M212.74,93.83c-.78.87-1.57.93-2.18.09a1.42,1.42,0,0,1,.32-1.32C211.92,92.22,212.31,93.05,212.74,93.83Z"/><path class="cls-7" d="M216.25,79.16c1,.05,1.76.32,1.48,1.49a1,1,0,0,1-.84.53C215.8,80.85,215.81,80.09,216.25,79.16Z"/><path class="cls-7" d="M230.84,82.69c-.6.48-1.06,1-1.2.94a3,3,0,0,1-1.16-1.13c-.07-.13.6-.94.73-.89A8.51,8.51,0,0,1,230.84,82.69Z"/><path class="cls-7" d="M213.71,82.58a7,7,0,0,1,.82,1.44c0,.11-.64.64-1,.65-.81,0-1-.63-.88-1.32a5,5,0,0,1,.4-1Z"/><path class="cls-7" d="M262.21,74.62c-.54.46-.95,1-1.14.93a1.78,1.78,0,0,1-1-1c-.07-.19.5-.88.7-.85C261.24,73.82,261.61,74.22,262.21,74.62Z"/><path class="cls-7" d="M231.7,88.79c-.69.71-1.27.8-1.71.14a1,1,0,0,1,.15-1C231,87.5,231.43,87.94,231.7,88.79Z"/><path class="cls-7" d="M218.68,83.52a6.42,6.42,0,0,1,.67,1.61c0,.21-.46.48-.71.72a5.11,5.11,0,0,1-.78-1.24C217.8,84.42,218.24,84.08,218.68,83.52Z"/><path class="cls-7" d="M213.71,88c1.12-.07,1.57.44,1.52,1.38,0,.16-.5.44-.72.4C213.58,89.64,213.46,89,213.71,88Z"/><path class="cls-7" d="M236.4,86c1.21-.42,1.9-.61,2,.3.05.33-.39.74-.61,1.11Z"/><path class="cls-7" d="M225.6,91.84c.92-.05,1.45.23,1.29,1.15a.84.84,0,0,1-.69.46C225.25,93.23,225.32,92.59,225.6,91.84Z"/><path class="cls-14" d="M167.63,66.76l1.56,12.34s.9.25,1.16-.31l-1.88-12Z"/><path class="cls-10" d="M176.34,55.64s-1.42-2.64-2-1.35.27,7.37,2.3,6.17S176.34,55.64,176.34,55.64Z"/><path class="cls-12" d="M171.58,51.81c2.41.76,3.38,1.87,3.62,3.41s1.09,7.31.23,8.52c-3.14,4.41-9.48,5-11.55,4.39-3-.68-4.44-5.66-5.17-7.51-.6-1.53-.34-4.1,1-4.82C165,50.76,169.51,50.89,171.58,51.81Z"/><path class="cls-10" d="M160.84,61.17s-1.42-2.64-2-1.35.27,7.37,2.3,6.17S160.84,61.17,160.84,61.17Z"/><path class="cls-14" d="M166,54.37l-.32-9.51,1.55,9.51S166.34,55.34,166,54.37Z"/><path class="cls-14" d="M237.47,65.37l-1.75,12.34s-1,.25-1.3-.31l2.1-12Z"/><path class="cls-10" d="M227.71,54.24s1.6-2.64,2.25-1.35-.31,7.37-2.58,6.17S227.71,54.24,227.71,54.24Z"/><path class="cls-12" d="M233,50.42c-2.7.76-3.79,1.87-4.06,3.41s-1.23,7.31-.26,8.52c3.53,4.41,10.64,5,13,4.39,3.41-.68,5-5.66,5.81-7.51.68-1.53.38-4.1-1.16-4.82C240.45,49.36,235.37,49.49,233,50.42Z"/><path class="cls-10" d="M245.09,59.77s1.6-2.64,2.25-1.35-.31,7.37-2.58,6.17S245.09,59.77,245.09,59.77Z"/><path class="cls-14" d="M239.36,53l.36-9.51L238,53S238.92,53.95,239.36,53Z"/><path class="cls-5" d="M120,129.46c-4.68-.13-9.45.26-14-.48-9.7-1.59-19.7-1.47-29.11-4.86-4.85-1.75-9.94-2.9-14.22-5.87-.84-.58-1.79-1-2.58-1.67-3.79-3.08-3.59-7.79.71-10.12a28,28,0,0,1,8-2.76c7.5-1.44,15.05-2.69,22.62-3.8,3.58-.52,7.23-.61,10.86-.77,10.64-.49,21.29-1.83,31.95-.78,8.39.82,16.91.43,25.15,2.81a31.77,31.77,0,0,1,13,7.85c3.44,3.24,3,8.31-.46,11.58-2.77,2.6-6.19,3.92-9.86,4.83-2,.5-4.06.88-6,1.48a39.44,39.44,0,0,1-13.1,1.4,11.28,11.28,0,0,0-2.73,0C133.58,129.77,126.8,129.24,120,129.46Z"/><path class="cls-15" d="M122.06,132.77l-10.68-1.1c-6.94-.7-13.89-1.37-20.82-2.11-2.8-.3-5.62-.63-8.38-1.18a11,11,0,0,1-6.32-3.55c-2.3-2.63-2-5.47,1.19-6.89a43.29,43.29,0,0,1,10.13-3.2,81.91,81.91,0,0,1,13.13-1q17.33-.13,34.65.16a83.23,83.23,0,0,1,18.93,2.64,8,8,0,0,1,1.73.59c4.23,2.2,4.88,5.46.68,8.33-3,2-6.31,2.67-9.61,3.48s-6.71,1.33-10.1,1.84C131.65,131.51,126.68,132.14,122.06,132.77Z"/><path class="cls-4" d="M173.29,125.23c-.06,9.59-.41,19.17-.5,28.75-.06,6,.37,12,.16,18.06-.38,11.44.46,22.83.75,34.24.18,6.88-.15,13.77-.11,20.66.06,10.56.29,21.13.32,31.69,0,4.67-.34,9.34-.43,14-.06,3.06-.1,6.13.11,9.18s-7.61,8.7-11,10.61c-6.38,3.64-13.3,4.93-20.27,6.41-3.48.74-6.88,1.85-10.35,2.68a30.63,30.63,0,0,1-6.15,1.05c-13.33.38-26.53-.46-39.25-4.91A76.46,76.46,0,0,1,66,287.09c-1.28-1-2.46-2-3.68-3.08-3.83-3.26-4.5-8-5.42-12.45-1.55-7.63-1.53-15.39-1.53-23.15,0-3.68-.26-7.36-.31-11s.08-7.62,0-11.43c-.14-5.53-.46-11-.61-16.57-.2-7.37-.47-14.74-.42-22.11.08-11.68.36-23.36.65-35q.39-15.67,1-31.33a21.17,21.17,0,0,1,1.35-6.06c.86-2.4,2.25-2.84,4.66-1.83a24.76,24.76,0,0,1,2.28,1.2c10.85,5.94,22.13,10.68,34.5,12.39,3.9.54,7.77,1.42,11.68,1.78s8.1.29,12.16.42a123.37,123.37,0,0,0,29.37-2.16,29.66,29.66,0,0,0,12.42-5.32,85.46,85.46,0,0,1,9.4-5.76C174.08,115.23,173.31,122.49,173.29,125.23Z"/><path class="cls-16" d="M65,144.4c3,.66,5.37,1.09,7.69,1.74A59.66,59.66,0,0,0,85.3,148.4a69.89,69.89,0,0,0,13.55-.06c11.28-1.51,22.51-.79,33.82.36,10.44,1.06,20.89.78,30.85-2.91a13.58,13.58,0,0,1,1.95-.33,31.88,31.88,0,0,1,0,3.38c-.73,6.53-1.65,13-2.22,19.59-.45,5.17-.56,10.38-.71,15.58-.2,7-.23,14.07-.43,21.1-.16,5.65-.55,11.3-.69,17-.09,3.67.18,7.36.13,11-.1,8-.3,15.91-.46,23.87a17.91,17.91,0,0,0-.1,3.11c.73,4.6-2.18,7.58-5.64,9.63a79.68,79.68,0,0,1-47.21,11.38,72.06,72.06,0,0,1-20.35-4.9C81.95,274,77.69,269.61,73,265.87a2.08,2.08,0,0,1-.84-1.1c-.62-5.57-2.45-11-2.79-16.59s-1-11.28-1.38-16.93c-.5-8.19-1-16.38-1.18-24.58-.12-4.14.42-8.28.45-12.42,0-3-.5-6-.43-9,.13-5.51-.08-11,.88-16.53a23.8,23.8,0,0,0-.07-6.23c-.46-4.94-1-9.86-1.62-14.79A21.82,21.82,0,0,0,65,144.4Z"/><path class="cls-17" d="M167,142.29c1.17,3.36-.14,5.67-3.46,7.6-4.49,2.61-9.6,2.89-14.55,3.86-6.47,1.26-13,1.07-19.62,1-7.1-.11-14.22.51-21.31,1-8.87.61-17.71.94-26.53-.66a12.41,12.41,0,0,0-3.2-.39c-5,.44-8.3-2.53-11.95-4.78a3.25,3.25,0,0,1-1-4.65,9.3,9.3,0,0,1,5.8-4.25c6.62-2,13.49-2.07,20.35-1.86,10.36.32,20.71.95,31.06,1.23,3.74.1,7.49-.41,11.24-.63,6.29-.37,12.57-.84,18.87-1.05A26,26,0,0,1,167,142.29Z"/><g class="cls-18"><path class="cls-5" d="M161.87,275.73c-.86,1.7-1.48,3.61-2.68,5a6.18,6.18,0,0,1-3.77,1.88c-4.65.48-9.61-2.81-10.6-7.44a53,53,0,0,1-1.31-12.78c.51-15.1,1.41-30.18,2.1-45.27.42-9.2.4-18.43,1.17-27.59.73-8.68,2.22-17.31,3.42-25.95a13.78,13.78,0,0,1,.92-2.64c2.23.21,2.67,1.5,2.67,3.11,0,7.48.17,15,0,22.45-.11,4.28-.68,8.56-1.21,12.83-1.38,11.12-1.09,22.3-1.41,33.46-.33,11.41-.8,22.81-1,34.22a44.74,44.74,0,0,0,1,8.75c.51,2.78,3.21,3.89,5.68,2.4a47.85,47.85,0,0,0,4-3Z"/><path class="cls-5" d="M99.5,163.23a7.62,7.62,0,0,1,1,2,41.71,41.71,0,0,1,.8,6.94c-.08,8-.35,16-.57,23.93-.21,7.61-.79,15.22-.59,22.81.3,11.32-.67,22.55-1.35,33.82-.4,6.71.21,13.49.53,20.24a18.81,18.81,0,0,0,1.21,4.62c1,3,1.61,3.47,4.81,3.34,1.71-.07,3.41-.26,5.12-.36.19,0,.39.26.84.59-.46.64-.79,1.53-1.41,1.89-5.8,3.37-12.39,1.88-14.63-4.37-1.78-4.95-2-10.13-2-15.29,0-8.23,0-16.46.35-24.68.44-10.8,1.16-21.59,1.82-32.38q1-15.81,2.07-31.62c.26-3.78.68-7.56,1-11.33Z"/><path class="cls-5" d="M130.16,277.88c2.7,1.81,5.33.42,8.45,0a5.85,5.85,0,0,1-4.19,4.06c-4.2,1.27-7.94-.79-9.26-5-1.48-4.76-1.68-9.67-1.72-14.59-.06-7.49,0-15-.05-22.46-.16-12.66-.68-25.31-.57-38,.09-9.69.88-19.38,1.44-29.07a31.86,31.86,0,0,1,1-5.78c.16-.66,1-1.17,1.48-1.74.44.51,1.18,1,1.28,1.55a92.31,92.31,0,0,1,1.27,9.47c.22,3.54.14,7.1.07,10.65-.1,5-.35,10.06-.48,15.09-.19,7.48-.38,15-.48,22.46-.1,6.75-.07,13.5-.12,20.24,0,6.26-.23,12.52-.17,18.78C128.09,268.35,128.24,273.17,130.16,277.88Z"/><path class="cls-5" d="M83,267.49c-.85,5.08-5,7.57-9.44,6.08-3.23-1.08-5.8-2.94-7.07-6.44a38.58,38.58,0,0,1-2.44-18.41c.76-6.08.88-12.24,1.17-18.37.28-5.75.47-11.51.61-17.27.16-6,.1-12,.35-18,.27-6.49.84-13,1.17-19.47.27-5.26.32-10.52.57-15.78a67.76,67.76,0,0,1,.76-7c.09-.6.7-1.12,1.41-2.19a12.11,12.11,0,0,1,1,2.66,39.84,39.84,0,0,1,.15,5.15c-.23,6.46-.6,12.92-.79,19.39-.22,7.35-.29,14.71-.45,22.06-.17,7.6-.41,15.2-.54,22.8-.18,10.9-.5,21.81-.33,32.7.06,3.59,1.21,7.24,2.31,10.72s4,4.48,7.43,3.16C80.15,268.82,81.32,268.24,83,267.49Z"/><path class="cls-5" d="M112.87,166.64a63.22,63.22,0,0,1,.17,6.44c-.41,5.74-1,11.46-1.5,17.19-.25,2.66-.77,5.31-.82,8-.11,5.76,0,11.53,0,17.29,0,5.51.15,11-.1,16.54-.39,8.7-1,17.38-1.64,26.07a33.32,33.32,0,0,1-1.26,6.53c-.61-4.55-1.33-9-.83-13.68.75-6.94.85-14,.93-20.95.1-8.34-.18-16.68-.16-25,0-2.44.44-4.88.68-7.33q1.48-14.84,3-29.67a5.38,5.38,0,0,1,.48-1.29Z"/><path class="cls-5" d="M83.66,162.91q-.06,4.76-.12,9.52c-.31,23.29-.74,46.58-2.47,69.82,0,.35-.57.65-1.4,1.55-.35-4.38-.76-8.1-.92-11.84a115.51,115.51,0,0,1,1.44-24.6c.57-3.35.3-6.85.38-10.29.08-2.95,0-5.9.2-8.84.54-7.71-.14-15.48,1.28-23.13a20.92,20.92,0,0,1,.7-2.31Z"/><path class="cls-5" d="M139.5,169.7c.13,22.33-1.24,44.63-1.4,67l-1,.07a76.37,76.37,0,0,1-.83-8.12c0-8.83.23-17.66.33-26.49.06-5.65-.06-11.3.12-16.94.14-4.4.59-8.8,1-13.19a10.42,10.42,0,0,1,.76-2.31Z"/><path class="cls-5" d="M162.09,208.92c-.11,5.47-.25,10.94-.32,16.41-.07,5.63,0,11.26-.1,16.88-.06,5.43,1.36,10.8,1,16.45-1.82-.55-1.76-1.71-1.85-2.78-.55-5.84-1.39-11.62-.85-17.58.46-5.09-.17-10.26-.16-15.4,0-3.92.22-7.84.45-11.75a9.37,9.37,0,0,1,.94-2.54Z"/><path class="cls-5" d="M163.3,165c.83,2.89.3,24.08-.94,36.53-1.4-.94-1.24-2.41-1.22-3.52.08-4.76.43-9.52.57-14.28.12-3.91,0-7.82.13-11.72.07-2.38.38-4.75.58-7.12Z"/><path class="cls-5" d="M79.16,259.7c-.82-4.6-1.08-8.64.07-13,2.56,2,1.88,4.52,1.82,6.63S81.6,257.64,79.16,259.7Z"/><path class="cls-5" d="M137.23,256.11c-1.72-4.33-.69-8.82-1-13.22a2.48,2.48,0,0,1,1.1-1.75C138.94,246.18,137.94,251.14,137.23,256.11Z"/><path class="cls-5" d="M107.45,269.61c.48,2.14,1.22,3.83-.63,5.4C105.37,273,106.32,271.55,107.45,269.61Z"/></g><path class="cls-4" d="M210.39,215.37c-.92,5.8-1.94,11.59-2.71,17.41-.5,3.77-2.63,6.68-4.92,9.3C197.58,248,191,251.95,183,252.43a22.36,22.36,0,0,1-16.48-5.21c-3.55-3.08-4.37-7.55-2.21-10.86a4.16,4.16,0,0,1,4.59-2,20.56,20.56,0,0,0,15-4,18.83,18.83,0,0,0,7.86-14,52.23,52.23,0,0,0-.33-12.85c-1.4-8.36-7.25-16-17-16.85-2.81-.23-5.62-.56-8.43-.81-5.78-.51-9-4.12-8.28-9.85a22.93,22.93,0,0,1,2-6.26,3.42,3.42,0,0,1,2.21-1.6c14.16-2.84,30.4,1.86,38.86,15.7A88,88,0,0,1,208,197.9c1.33,3.45,1.54,7.38,2,11.12a43.83,43.83,0,0,1-.11,6.27Z"/><path class="cls-5" d="M199,228.26a66.08,66.08,0,0,1-8.63,14.25,5.84,5.84,0,0,1-3.84,2.57,34.82,34.82,0,0,0-4.9,1.57c-3.12,1-5.57-.35-8-1.66a1.29,1.29,0,0,1-.62-.69c-.23-.7-.65-1.56-.43-2.17s1.13-1,1.77-1.31a4.76,4.76,0,0,1,1.87-.26c5.54,0,10.35-3.75,15.11-7.71,1.84-1.53,3.65-3.11,5.48-4.64C197.61,227.49,198.42,227.19,199,228.26Z"/><path class="cls-5" d="M165.93,177.16c2.26-3.77,5.43-4,8.63-3.81a18.69,18.69,0,0,1,8.7,3.15,56.54,56.54,0,0,1,12.5,10.36,7.88,7.88,0,0,1,2.06,5.53,3.12,3.12,0,0,1-1.1,2.32,2.8,2.8,0,0,1-2.44-.47,34.9,34.9,0,0,1-3.09-3c-3.75-3.53-7.52-7.09-12.12-9.27-2.81-1.33-5.8-2.2-8.72-3.26C169,178.21,167.58,177.74,165.93,177.16Z"/><path class="cls-19" d="M140.09,183c3.31-2.14,5.48-1.54,7.34,2a22.83,22.83,0,0,1,2.3,9.28c.18,2.91.77,5.8.83,8.71.19,10.08.34,20.17.29,30.26a50,50,0,0,1-2.78,17.49,26.73,26.73,0,0,1-1.78,3.83,37.13,37.13,0,0,1-3.8,6.08,25.51,25.51,0,0,1-6.24,5.59A31.64,31.64,0,0,1,125,270.61c-3,.42-6,.62-9,.85-1.42.11-2.14-.75-2.65-2a2.44,2.44,0,0,1,.76-3c1-.87,2-1.63,3.1-2.41,3.87-2.89,7.94-5.55,11.55-8.74,2-1.74,3.35-4.26,4.66-6.62a80.51,80.51,0,0,0,5-10.35,25,25,0,0,0,1.72-8.23c.13-7.35-.18-14.71-.27-22.07q-.09-7.55-.06-15.09C139.86,189.66,140,186.37,140.09,183Z"/></g></g></svg>