<svg xmlns="http://www.w3.org/2000/svg" viewBox="0 0 360 360"><defs><style>.cls-1{isolation:isolate;}.cls-2{fill:#b5d0e1;}.cls-3{fill:none;}.cls-4{fill:#b2b2b2;}.cls-5{fill:#b1aa91;mix-blend-mode:multiply;}.cls-6{fill:#b9c3cf;}.cls-7{fill:#616970;}.cls-8{fill:#dfecf8;}.cls-9{fill:#626b7b;}.cls-10{fill:#8597a9;}.cls-11{fill:#465564;}.cls-12{fill:#58616e;}.cls-13{fill:#9c9f8e;}.cls-14{fill:#a2b7cb;}.cls-15{fill:#c6ddf1;}.cls-16{fill:#808b93;}.cls-17{fill:#80867a;}.cls-18{fill:#5e6964;}.cls-19{fill:#14525a;}.cls-20{fill:#276b70;}.cls-21{fill:#3c989b;}.cls-22{fill:#ef3b4d;}.cls-23{fill:#64c5bd;}</style></defs><title>Icons_Tax_Minimization_3C</title><g class="cls-1"><g id="Background"><g id="Layer_6" data-name="Layer 6"><circle id="_27.62.111" data-name="27.62.111" class="cls-2" cx="180" cy="180" r="180"/></g></g><g id="Layer_4" data-name="Layer 4"><path class="cls-3" d="M22.66,196.42l.48-.28.63,1.35-.35.19-.76-1.26"/><path class="cls-4" d="M137.19,150.53a8.06,8.06,0,0,0-1.51.16c.79.05,1.59.1,2.39.14l-.35-.27a3.85,3.85,0,0,0-.53,0M33.38,152.81a20.65,20.65,0,0,0-1.54,4.37c2,0,4-.11,6.06-.21a3.44,3.44,0,0,0-.81-1.71c-1-1.1-2.73-1.34-3.7-2.45"/><path class="cls-5" d="M37.89,157c-2,.1-4,.17-6.06.21a20.83,20.83,0,0,0-.44,6.95c-4.14,7.33-2.51,16.77,3.41,22.88,7.5,7.73,19.65,8.66,29,13.24a46.93,46.93,0,0,1,10.42,6.94,35.85,35.85,0,0,1,6.31-1.75c-5.47-3.49-11.21-7.13-14.14-12l-22.74-7.08a8.41,8.41,0,0,1-3.92-2,7.92,7.92,0,0,1-1.57-4.17,68.64,68.64,0,0,1-.3-19.77,10.89,10.89,0,0,0,.07-3.38m51,64a8.19,8.19,0,0,1-2.52,1.34c7.6,12.1,15.05,24.29,22.58,36.43,5.81,9.39,11.43,20.23,21.05,26.33,7,4.43,14.85,6,22.85,6a72.29,72.29,0,0,0,9.36-.65,120.65,120.65,0,0,0,25.42-5.7,13,13,0,0,0-.61-3.18,13.9,13.9,0,0,1-.69-3.91c-6,2.64-12.42,4.14-18.8,5.61a38.38,38.38,0,0,1-8.38,1.26,14.77,14.77,0,0,1-4-.52c-3.11-.87-5.75-2.89-8.24-5-6.75-5.61-17-14.36-24-24a12.71,12.71,0,0,1-2.85-2.83c-2-2.78-4.06-5.63-6.07-8.52q0,2.51.09,5L91.59,224.2A31.12,31.12,0,0,1,88.92,221"/><path class="cls-5" d="M235.17,206.69a25.4,25.4,0,0,0-10.27,5.47c0,.79-.07,1.57-.13,2.34l-.05.59c-1,10.53-4.84,20.59-9.45,30.11-5.71,11.78-13,23.44-24.31,30.09a44.85,44.85,0,0,1-4.59,2.36,13.85,13.85,0,0,0,.69,3.91,13,13,0,0,1,.61,3.18c11.22-4.06,21.1-10.54,28.47-21.41,6.79-10,12.14-23.68,20.53-32.36a9.78,9.78,0,0,1,7.4-2.8c6.82,0,15.28,4.22,21.5,4.41l1,0c12.21,0,20.69-6.77,26-16.11-3.87,2.48-7.94,4-12.36,6.77a16.21,16.21,0,0,1-8.87,2.62c-.57,0-1.15,0-1.73-.09-8.9-.13-17.18-2.33-23.87-8.55-3.65-3.39-7.17-6.94-10.61-10.56"/><path class="cls-5" d="M80.49,205.43a35.33,35.33,0,0,0-6.31,1.75c4.71,4.15,8.46,9.15,12.17,15.05l0,.07A8.19,8.19,0,0,0,88.92,221,8.88,8.88,0,0,1,87,215c.14-1.34.71-2.7.32-4a3,3,0,0,0-.24-.58A6.49,6.49,0,0,0,85,208.37c-1.43-1-2.95-2-4.48-2.94"/><polygon class="cls-6" points="137.72 150.56 176.4 181.41 210.22 180.63 210.22 147.01 169.33 113.01 137.01 130.51 137.72 150.56"/><path class="cls-7" d="M177.54,86.27a9.32,9.32,0,0,0-6.65,5.1c-1.27,2.71-1.55,5.76-2.35,8.64-3.69,13.16-24.87,25.6-37.24,16-6.12-4.77-7-14.07-4.2-21.3,5-12.62,15.48-19.4,28-22.77,3.4-.91,7-1.65,10.42-1,6.94,1.25,11.54,9,12.79,15.24l-.8.15"/><path class="cls-7" d="M77.19,175.18c-1.09,5.2-1.85,10.41-2.71,15.08-.32,1.7-.87,3.69-2.51,4.25a4.91,4.91,0,0,1-3-.29l-25.39-7.9a8.48,8.48,0,0,1-3.92-2,8,8,0,0,1-1.57-4.16,68.86,68.86,0,0,1-.3-19.77c.23-1.76.45-3.77-.74-5.08-1-1.12-2.79-1.35-3.75-2.52-1.45-1.76-.28-4.36.94-6.28a194.85,194.85,0,0,1,19.79-26c1.69-1.88,3.88-3.89,6.38-3.49,1.83.29,3.19,1.81,4.79,2.75,2.53,1.48,5.49,1.45,8.47,1.42a21.55,21.55,0,0,1,6.92.67c4.41,1.44,7.28,5.54,10.62,8.77s8.52,5.75,12.48,3.32c1.71-1.06,2.89-2.92,4.74-3.73a4,4,0,0,1,3.61-.2c1.63,11.77-15.83,13.84-22.77,19.92s-10.1,15.68-12.11,25.28"/><path class="cls-6" d="M224.76,214.5l0,.59c-1,10.53-4.84,20.59-9.46,30.11-5.7,11.78-13,23.44-24.31,30.09-7.12,4.2-15.33,6.11-23.39,8-4.08.94-8.36,1.87-12.4.74-3.11-.87-5.75-2.89-8.23-5-11.69-9.72-33.77-28.85-31.77-45.93a88.67,88.67,0,0,1,25.43-52.17c6.17-6.1,13.42-11.38,21.78-13.7,12.37-3.45,22.49,2.43,33.52,7.11,4.8,2,9.63,4,14.33,6.29,12.25,5.89,15.53,21.35,14.54,33.87"/><path class="cls-8" d="M87.09,210.43A6.43,6.43,0,0,0,85,208.37c-8.62-6-20.52-11.39-20.59-21.86,0-3.4,1.35-6.64,2.76-9.74q4.35-9.57,9.44-18.78c3.2-5.77,6.7-11.54,11.78-15.74s12.07-6.62,18.39-4.76,10.75,7.42,16.63,10.31c8.19,4,17.31,2.47,26,3.85,9,1.42,16.19,6.29,24.27,10.25,1.95,1,3.07,2.08,2.54,4.22-36.57,7.37-64.07,45.59-62.11,82.52L91.59,224.19c-2.39-2.6-5-5.67-4.59-9.18.14-1.34.71-2.71.33-4a3.22,3.22,0,0,0-.24-.58"/><path class="cls-9" d="M195.78,184.48h-.42a50.42,50.42,0,0,0-6.69.78,35.12,35.12,0,0,0-5.81,1.79c-2.66,1-5.2,2.37-7.88,3.33-4.75,1.69-9.35,3.57-12.79,7.48-5.67,6.49-10.94,13.25-14.45,21.21-1.28,2.89-2.75,5.71-3.85,8.67-2.17,5.8-3.24,11.82-2.74,16.6a53.53,53.53,0,0,0,2.51,19.26,11.18,11.18,0,0,0,7.4,7.59,17.31,17.31,0,0,0,2.29.58,4.8,4.8,0,0,1-1.57-.86c-1.57-1.31-2-3.55-2.27-5.6q-1.53-10.48-3.07-21a2.06,2.06,0,0,1,2.15-3c8.32-.71,15.81-6.27,20.19-13.53,7-11.55-.34-31.65,12.69-36.63a24.16,24.16,0,0,1,8.27-1.23c7.88,0,17.43,2.47,21.13,7.31a25.31,25.31,0,0,1,4.23,9.94,50,50,0,0,1-.86,24.52,40.38,40.38,0,0,0,2.67-5.33c.88-2.27,1.29-4.72,2-7.08.72-2.55,1.59-5.06,2.21-7.64.74-3.09.07-6-1.09-9-2.27-5.76-7.13-8.76-12-11.84-2.49-1.59-5.07-3-7.5-4.72a8.26,8.26,0,0,0-4.72-1.69m5.5,70a55.42,55.42,0,0,1-9.28,7.71c1.71-.94,3.39-1.9,5-2.95a14.49,14.49,0,0,0,3.92-4.24l.34-.52m-32.6,16.87a63.18,63.18,0,0,1-9.32.9c1.08,0,2.16,0,3.23.09l.78,0a14.39,14.39,0,0,0,5.3-1"/><path class="cls-10" d="M214.23,231.75l-.66,1.17c-2.65,4.71-5.38,9.39-8.06,14.08-1.42,2.48-2.7,5-4.23,7.45l.38-.39a54,54,0,0,0,12.58-22.31M192,262.16c-1.88,1-3.78,2-5.66,3a40.35,40.35,0,0,1-4.94,2.41,21.05,21.05,0,0,1-5.58,1.46,12.73,12.73,0,0,0-5.27,1.39,15.33,15.33,0,0,1-1.87.87A61,61,0,0,0,192,262.16m-38.66,9.62a11.29,11.29,0,0,0,3.33.45h1.39l1.31,0a36.45,36.45,0,0,1-6-.45"/><path class="cls-11" d="M189.72,190a24.16,24.16,0,0,0-8.27,1.23c-13,5-5.72,25.09-12.69,36.63-4.38,7.26-11.86,12.82-20.19,13.54a2.73,2.73,0,0,0-1.74.53,2.78,2.78,0,0,0-.41,2.44q1.53,10.48,3.07,21c.3,2.05.7,4.29,2.27,5.61a4.94,4.94,0,0,0,1.57.86,37.24,37.24,0,0,0,6,.45,62.37,62.37,0,0,0,9.32-.9,17.31,17.31,0,0,0,1.87-.87,12.61,12.61,0,0,1,5.26-1.39,21.16,21.16,0,0,0,5.58-1.46,40.27,40.27,0,0,0,4.94-2.41c1.88-1,3.78-2,5.66-3a55.37,55.37,0,0,0,9.28-7.71c1.53-2.41,2.81-5,4.23-7.45,2.68-4.7,5.41-9.37,8.06-14.09l.66-1.17a50,50,0,0,0,.85-24.52,25.34,25.34,0,0,0-4.23-9.94c-3.71-4.84-13.25-7.31-21.13-7.31"/><path class="cls-6" d="M269.64,225.8c-8.89-.13-17.17-2.33-23.87-8.55-4.86-4.51-9.48-9.31-14-14.17-14.64-15.8-3.18-48.94,8.62-63.13,2.48-3,4.88-6,7.18-9.17,3.52-4.78,8.15-8.32,12.87-11.74,2.56-1.85,5.37-3.35,8.05-5,1.71-1.08,3.58-.85,5.36-.49,6.51,1.32,13,2.67,19,5.69,2.37,1.19,4.85,2.16,7.31,3.16a6.94,6.94,0,0,1,4.08,3.87c1.37,3.2,3,6.28,4.5,9.41.18.36.3.84.61,1,3.54,2.32,3.85,6.2,4.29,9.74.5,4,.2,8.15.26,12.23a20,20,0,0,0,.14,4c1.56,7.12-.12,13.77-2.68,20.33a19.21,19.21,0,0,0-1.21,3.46A54.55,54.55,0,0,1,300,209.62c-6.06,8-12.43,9-19.76,13.64a16.31,16.31,0,0,1-10.61,2.54"/><path class="cls-8" d="M189.68,140.08a19.36,19.36,0,0,0-.67-3.48c-1.65-5.52-6.34-9.58-11.29-12.53A54.36,54.36,0,0,0,144,116.85c-2.36.27-4.82.69-7.05-.13s-4-3.41-3-5.56c5-2.55,10.63-1.88,16.34-1.21a48.39,48.39,0,0,0,10.73.46c11-1.21,19.44-10,27.68-17.47A11,11,0,0,1,193.32,90c3.8-.87,7.22,2.17,10.29,4.57,9,7,20.36,9.56,31.54,10.63,5.68.54,11.82-.22,17.39,1,4.57,1,8,4.44,13,4.51,12.22.19,1.8,8.09-1.51,10.85-6.38,5.31-12.45,10.57-17.77,17a104.45,104.45,0,0,0-21.5,43.87,230.71,230.71,0,0,1-25.22-20c-3.58-3.27-7.19-6.86-8.62-11.49-1.08-3.49-.81-7.25-1.2-10.88"/><path class="cls-9" d="M303.41,130.51c-1.59,0-3.1.75-4.68.92a22.85,22.85,0,0,0-9.27,3,93.4,93.4,0,0,0-27,23.74c-1.59,2.1-3.32,4.09-4.87,6.22-2.32,3.2-5.31,5.83-7,9.57-2.63,5.78-4.08,11.47-1.84,17.73a44.64,44.64,0,0,1,1.35,6.27c1.11,5.5,2.24,10.91,4.77,16.07l.24.46c-2.13-7.57-1.75-20.93-2.24-25.07-.19-1.62-.35-3.39.53-4.77,1.08-1.68,3.28-2.19,5.21-2.77,13.17-4,15.82-13.72,18-24.67.25-1.21.49-2.45.73-3.69,2.16-10.72,8.94-12.64,20-15.5a15.79,15.79,0,0,1,3.93-.63,7.75,7.75,0,0,1,.84,0c4.81.49,7.92,5.19,9.68,9.6a50,50,0,0,1,2.12,6.62c0-.89,0-1.77,0-2.65a42.41,42.41,0,0,0-.29-4.57c-.44-3.54-.75-7.42-4.29-9.74-.3-.2-.43-.68-.61-1-.71-1.46-1.44-2.92-2.16-4.38-.52-.17-1.09-.26-1.6-.46a4.43,4.43,0,0,0-1.62-.3m-13.21,80.28a79.3,79.3,0,0,1-24.15,8.9,21.8,21.8,0,0,1-4.42.59h-.35c1.15.62,2.36,1.17,3.58,1.73a2.15,2.15,0,0,0,.9.14h2.38c4,0,8-.3,11.38-3,.46-.37,1.15-.44,1.66-.78a29,29,0,0,0,4.73-3.29c1.43-1.43,2.87-2.84,4.29-4.27"/><path class="cls-10" d="M309.94,187.7c-3.86,5.13-8.52,9.68-12.39,14.81a81.61,81.61,0,0,1-7.34,8.28A50.28,50.28,0,0,0,309,191.69c.38-1.32.7-2.65,1-4m-54.81,26.79c.72,2.56,1.73,4.46,3.15,5.12a7.73,7.73,0,0,0,3,.66,14.16,14.16,0,0,1-6.15-5.78"/><path class="cls-11" d="M301.34,137.38a15.79,15.79,0,0,0-3.93.63c-11.06,2.85-17.83,4.79-20,15.5-.25,1.24-.49,2.47-.73,3.69-2.22,11-4.87,20.68-18,24.67-1.93.58-4.13,1.09-5.21,2.77-.89,1.38-.72,3.15-.53,4.77.49,4.15.12,17.5,2.24,25.08a14.16,14.16,0,0,0,6.15,5.78h.35a21.39,21.39,0,0,0,4.42-.6,79.13,79.13,0,0,0,24.15-8.89,81.61,81.61,0,0,0,7.34-8.28c3.86-5.13,8.53-9.68,12.39-14.81.09-.43.18-.86.25-1.29a18.83,18.83,0,0,1,1.21-3.47,49.36,49.36,0,0,0,2.85-9.77,27.57,27.57,0,0,0-.18-10.55,20.06,20.06,0,0,1-.14-4c0-1.66,0-3.33,0-5a49.68,49.68,0,0,0-2.12-6.62c-1.76-4.42-4.87-9.12-9.68-9.6a7.75,7.75,0,0,0-.84,0"/><path class="cls-6" d="M75.48,171.19c-.41,4.11-.86,7.45-1,10.82a19.7,19.7,0,0,0,1.68,9.57A11.36,11.36,0,0,1,77.39,195a3.83,3.83,0,0,1-.91,2.68c-.8.89-1.82.36-2.73-.27-2.59-1.79-5.19-3.56-7.87-5.19a14.22,14.22,0,0,0-3.16-1c-1.62-.52-2.14-1.32-1.88-3,.9-5.75,1.82-11.5,2.72-17.25a55.85,55.85,0,0,1,16.57-32.09l2.19-2.14a6.35,6.35,0,0,1,5.89-1.86,11.9,11.9,0,0,0,7.18-.46c1.44-.6,3.39,0,5.11.09,3.4.23,4-.06,5.36-3.24,3.38-7.74,8.77-13.94,14.94-19.54a8.13,8.13,0,0,1,5.94-2c5.21.1,10.39.11,15.52-1.23a15.25,15.25,0,0,1,5.75-.11,4,4,0,0,0,4-1.53,65.51,65.51,0,0,0,9.45-15.36,11.88,11.88,0,0,0,1-7.76,2.32,2.32,0,0,1,1.18-2.88,3.89,3.89,0,0,1,2.82,0,7.91,7.91,0,0,1,2.5,2.15,15.52,15.52,0,0,0,4.62,3.89,18.88,18.88,0,0,1,4.66,3.92c2,2.14,1.75,4.18-1,5.38a19.38,19.38,0,0,0-7.39,5.82c-2.58,3.27-4.79,6.84-7.1,10.33a2.64,2.64,0,0,0,.43,3.38c.94,1.08,1.85,2.19,2.78,3.27a2.47,2.47,0,0,1,.55,3.07,2.61,2.61,0,0,1-3.12,1.38c-3.77-1.13-6.6.69-9.15,3a30,30,0,0,0-9.82,16.92,14.92,14.92,0,0,1-1.3,4.06c-1.11,2.11-2.73,3.4-5.44,3.09-1.45-.16-3,.43-4.48.56a15.75,15.75,0,0,1-4.17.1,57.78,57.78,0,0,1-5.88-1.62,24.36,24.36,0,0,1-4.39-1.33c-5.21-2.7-10.89-3.25-16.57-3.85-3.34-.35-6.66-1-10,0a9,9,0,0,0-2.34.67c-4.22,2.92-8.21,6.07-9.92,11.21-.94,2.81-1.81,5.64-2.67,8.48-.71,2.34-1.36,4.7-1.83,6.35"/><path class="cls-7" d="M217.9,166.64c3.18-1.23,6.59-2.35,9.81-3.86,1.29-.61,2.28-2,3.24-3.17,5.11-6.24,8.31-13.56,11.72-20.77,1-2,1.74-4.27,3.17-5.92,4.31-5,9.95-8.36,15.53-11.72,1.07-.64,2.59-.52,3.87-.86,1.46-.39,2.9-.89,4.34-1.37,2.36-.78,4.2.72,3.7,3.13a2.24,2.24,0,0,1-1.2,1.53c-5,1.08-8.15,4.93-12,7.67-2.41,1.71-4.74,3.55-7,5.45a18.47,18.47,0,0,0-3.62,3.7,50.74,50.74,0,0,0-7.68,16.92c-1.11,4.87-2.94,9.57-4.16,14.41A80.7,80.7,0,0,0,235.86,182c-.46,4-.73,7.94-.91,11.91a13.66,13.66,0,0,0,.61,4.48c.86,2.85.74,3.22-1.77,4.6a28.39,28.39,0,0,0-3.44,2.51c-2.09,1.59-3.61,1.17-4.34-1.37a23.74,23.74,0,0,0-4.51-8.61,49,49,0,0,1-3.75-5.58,11.32,11.32,0,0,0-5.74-4.4c-3.3-1.35-6.71-2.41-10.08-3.58-1-.34-2-.61-2.9-1l-20.5-8c-2.28-.89-2.7-2.13-1.43-3.94a61.06,61.06,0,0,0,4.22-6.34A30.06,30.06,0,0,1,191,151.84a34.19,34.19,0,0,1,7.2-3.3,2.06,2.06,0,0,1,2.83,1.92c.35,3.66.66,7.33.86,11,.06,1,.12,1.86,1.14,2.27a41.89,41.89,0,0,0,14.83,2.93"/><path class="cls-7" d="M172.57,121.78c3.78,2.32,7.62,4.63,11.39,7a4.29,4.29,0,0,1,1.43,1.93c.8,1.91,0,3.34-2.09,3.34a24.12,24.12,0,0,0-7.11,1.58c-6,1.85-10.16,5.76-13.1,11.16-.72,1.32-1.57,2.56-2.34,3.85s-2.22,2-3.64,1.12c-4.79-2.88-10.09-4.88-14.36-8.66-2.24-2-2.29-2.48-.29-4.86,4.13-4.91,9.48-8.35,14.43-12.26,3.83-3,8.53-3.75,13.18-4.49a10.34,10.34,0,0,1,2.51.24"/><path class="cls-7" d="M162.71,156c.61-2.16,2.38-3.6,4.2-5.17,3.23-2.79,6.2-5.89,9.29-8.84a8.12,8.12,0,0,1,2.08-1.74c3.45-1.49,7-2.87,10.45-4.25a3,3,0,0,1,3.55,1c2.32,2.42,4.84,4.64,7.14,7.08a4.22,4.22,0,0,1,1,2.7c0,1.17-1.13,1.65-2.2,1.74a21.66,21.66,0,0,0-10.44,4.12c-3.35,2.29-6.34,5.1-9.48,7.7a4.72,4.72,0,0,0-1.69,3.43c-.24,2.43-2.42,3.31-4.12,1.52-2.3-2.41-5.28-3.37-8.14-4.64-2.59-1.17-2.93-1.88-1.65-4.59"/><path class="cls-6" d="M192.18,91.79a3.53,3.53,0,0,0-2.26-2.12c-3.42-.37-6.09-2.3-9-3.77s-4.46-1.45-6.67.79A89.64,89.64,0,0,0,168,94.2a11.44,11.44,0,0,0-1,1.49,1,1,0,0,1-.06,1c-2.08,3.44-3.19,7.34-5.23,10.82-.48.81-.94,1.62-1.37,2.41a5,5,0,0,0,1.58,1.29,16.07,16.07,0,0,0,7.36,1.84c4.43.22,5,.63,5.42,4.89.18,1.65.79,2.77,2.32,3.2s3-.19,4-1.79c-3-3-.72-6.79-1.62-10.14,2.11-6.09,4.78-11.78,10.82-15,1-.54,2.36-1,1.91-2.34"/><path class="cls-12" d="M50.4,148.28c-7.7,0-15.34,7.9-10,16.27,1.62,2.53,1.11,6.58,2.4,9.43a17.85,17.85,0,0,0,7.61,8.09A110.06,110.06,0,0,0,61,187.39q1.29-8.21,2.59-16.43.46-2.94,1.18-5.75a6.06,6.06,0,0,1-2.11-1.77c-1.57-2.48-1.25-7-3.17-10a10.49,10.49,0,0,0-9.05-5.13"/><path class="cls-13" d="M115.8,228.66a75.15,75.15,0,0,0-1.79,15c2,2.9,4,5.75,6.06,8.53a12.8,12.8,0,0,0,2.85,2.82c-5.15-7.08-8.61-14.67-7.76-21.89.17-1.49.39-3,.64-4.44"/><path class="cls-14" d="M138.47,199.65a11.6,11.6,0,0,0-5.05,1.2c-6.63,3.2-10.21,8.68-12.19,15.08l-.95-1.33a82.61,82.61,0,0,0-4.47,14.06q-.38,2.21-.64,4.44c-.84,7.22,2.61,14.8,7.76,21.89a12,12,0,0,0,7,2.27c5.38,0,10.45-3.71,10.72-10.67.22-5.82-2.17-23.75,3.91-26.69,11.06-5.32,4.21-20.26-6.08-20.26"/><path class="cls-15" d="M75.91,169.66l-.44,1.53c-.41,4.11-.86,7.45-1,10.82a19.56,19.56,0,0,0,1.68,9.57A11.36,11.36,0,0,1,77.4,195a3.59,3.59,0,0,1-.3,1.7q.76.64,1.49,1.33C92.3,210.92,103.07,227.9,114,243.64a75.59,75.59,0,0,1,1.79-15,82.54,82.54,0,0,1,4.47-14.06,335.79,335.79,0,0,0-21.15-27,76.54,76.54,0,0,0-22.29-17.5c-.27-.15-.58-.29-.92-.43"/><path class="cls-14" d="M64.74,165.22Q64,168,63.56,171q-1.29,8.22-2.59,16.43c5.63,2.58,11.18,5.13,16.13,9.3a3.57,3.57,0,0,0,.3-1.69,11.34,11.34,0,0,0-1.28-3.43A19.63,19.63,0,0,1,74.44,182c.18-3.37.63-6.71,1-10.82.13-.46.28-1,.43-1.53-3-1.28-8.13-2.7-11.17-4.44"/><path class="cls-14" d="M165.85,118.85l.15.18a2.47,2.47,0,0,1,.55,3.07l0,0c1.17-.22,2.36-.41,3.54-.59a2.59,2.59,0,0,1,.43,0c.65,0,1.34.19,2.08.27,3.78,2.33,7.62,4.63,11.38,7a4.3,4.3,0,0,1,1.44,1.93c.8,1.91,0,3.34-2.1,3.35a24.07,24.07,0,0,0-7.11,1.57c-.68.21-1.33.44-2,.7l6.06,3.06c2.79-1.17,5.61-2.28,8.43-3.39l.1,0c-1.8-5.21-6.33-9.08-11.09-11.92a53.81,53.81,0,0,0-11.88-5.22m-4.68,4.29a7.32,7.32,0,0,0-2.56.47l-.81,1.31.31.23a18.18,18.18,0,0,1,4.1-1.94,7.75,7.75,0,0,0-1-.07"/><path class="cls-15" d="M163.19,111.78l-.26.39,1.2,2.49-.78,1.26,2.49,2.93a53.82,53.82,0,0,1,11.88,5.22c4.76,2.83,9.29,6.71,11.09,11.92a3.2,3.2,0,0,1,1.09-.21,3.31,3.31,0,0,1,2.37,1.2c2.31,2.42,4.84,4.65,7.14,7.08a4.13,4.13,0,0,1,1,2.7,1.73,1.73,0,0,1-1.48,1.62h.1a2.11,2.11,0,0,1,2,2.08c.35,3.66.65,7.33.86,11,0,.06,0,.13,0,.19a108.19,108.19,0,0,0,17.73,1.86,25.8,25.8,0,0,0,8.8-1.19,15.75,15.75,0,0,0,2.48-2.7c.32-.38.62-.77.92-1.15.32-4.85,4.51-10.4,8.43-14.58.8-1.68,1.58-3.37,2.38-5,.39-.84.76-1.71,1.15-2.56a144.08,144.08,0,0,0-32.69-6.87c-9-.71-20.47-5.27-30.15-9.93a3.31,3.31,0,0,1-3.9,1.63c-1.54-.43-2.14-1.55-2.32-3.2-.07-.64-.14-1.19-.22-1.66-2.24-1.17-4.29-2.28-6.07-3.28a16.46,16.46,0,0,1-5.27-1.18"/><path class="cls-14" d="M162.62,111.52l.32.66.26-.39-.57-.26m.74,4.4-4.74,7.7a7.28,7.28,0,0,1,2.55-.47,7.84,7.84,0,0,1,1.05.07,32.08,32.08,0,0,1,4.32-1.09l0,0c.67-1.15.24-2.15-.55-3.07l-.15-.18c-.83-1-1.65-2-2.49-2.93"/><path class="cls-15" d="M198.36,148.49h-.14a17,17,0,0,0-3.5.66l.29.62c1.07-.44,2.16-.83,3.23-1.25l.13,0"/><path class="cls-12" d="M243.82,136.27c-.39.85-.76,1.73-1.15,2.56-.79,1.68-1.57,3.37-2.37,5a74.77,74.77,0,0,1,6.83-6.43s-1.2-.47-3.31-1.17M199,148.37h-.1a4.31,4.31,0,0,1-.57.11l-.13,0c-1.07.41-2.16.81-3.23,1.25l5.42,11.57,1.52.29c0-.06,0-.13,0-.19-.21-3.67-.52-7.33-.87-11a2.12,2.12,0,0,0-2-2.08m32.83,10.08c-.3.39-.6.77-.91,1.15a16.25,16.25,0,0,1-2.48,2.7c2-.78,3.28-2,3.4-3.81v0"/><path class="cls-12" d="M170.49,121.51a3.35,3.35,0,0,0-.43,0c-1.18.19-2.36.37-3.54.6a32.56,32.56,0,0,0-4.32,1.09,18.3,18.3,0,0,0-4.1,1.93l12.79,9.53,3.34,1.68c.63-.26,1.28-.49,2-.7a24,24,0,0,1,7.11-1.58c2.07,0,2.9-1.43,2.1-3.34a4.35,4.35,0,0,0-1.44-1.93c-3.77-2.41-7.61-4.72-11.39-7-.74-.08-1.43-.27-2.08-.27"/><path class="cls-12" d="M189.91,135.79a3.15,3.15,0,0,0-1.09.21l-.1,0c-2.82,1.11-5.64,2.22-8.43,3.39l12.88,6.49,1.52,3.26a17.16,17.16,0,0,1,3.51-.66h.14a4.32,4.32,0,0,0,.57-.11,1.75,1.75,0,0,0,1.49-1.62,4.22,4.22,0,0,0-1-2.7c-2.3-2.44-4.82-4.66-7.14-7.08a3.27,3.27,0,0,0-2.37-1.2"/><path class="cls-14" d="M161.3,108.78l1.32,2.74.57.26a16.3,16.3,0,0,0,5.27,1.18c-4.39-2.45-7.16-4.18-7.16-4.18m13.23,7.46c.09.47.15,1,.22,1.66.18,1.65.78,2.78,2.32,3.2a3.81,3.81,0,0,0,1,.14,3.55,3.55,0,0,0,2.92-1.77c-2.27-1.09-4.43-2.18-6.44-3.23"/><path class="cls-16" d="M306.63,131.27c.72,1.46,1.45,2.92,2.16,4.37.18.37.3.85.6,1.05,3.54,2.31,3.85,6.2,4.29,9.74A42.41,42.41,0,0,1,314,151h.5q2.62,0,5.25,0a36.74,36.74,0,0,0-3.32-10.16c-2.24-4-5.45-6.79-9.08-9.29a2.86,2.86,0,0,0-.69-.33"/><path class="cls-17" d="M314.47,157H314c0,.88,0,1.76,0,2.65A53.11,53.11,0,0,1,315,179.09a20.25,20.25,0,0,1,2.17-.12c.3,0,.6,0,.89,0A40,40,0,0,0,319.73,157q-2.63,0-5.25,0"/><path class="cls-18" d="M314,159.65c0,1.67-.05,3.34,0,5a20.09,20.09,0,0,0,.14,4,27.56,27.56,0,0,1,.18,10.55l.78-.09A53,53,0,0,0,314,159.65"/><path class="cls-19" d="M315,173.08l-.79.09a49.36,49.36,0,0,1-2.85,9.77,19.27,19.27,0,0,0-1.21,3.47c-.08.43-.16.86-.25,1.29l.72-1q.86-1.18,1.66-2.41A52.64,52.64,0,0,0,315,173.08"/><path class="cls-20" d="M317.22,179a20.36,20.36,0,0,0-2.18.12,52.81,52.81,0,0,1-2.72,11.24A53.56,53.56,0,0,0,318.11,179c-.3,0-.59,0-.89,0"/><path class="cls-21" d="M312.32,184.32c-.53.81-1.09,1.62-1.66,2.41l-.71,1q-.42,2-1,4l.21-.38a50.36,50.36,0,0,0,3.15-7"/></g><g id="Layer_5" data-name="Layer 5"><path class="cls-22" d="M184.48,225.22c-2.55-1.56-.23-2.77-.51-5.74s-.61-2.95-.89-5.92-.11-3-.39-6-1-3-.32-5.89a29.84,29.84,0,0,1,6.07-.66,27.38,27.38,0,0,1,6.28.78,23.89,23.89,0,0,1,6,2,21,21,0,0,1,4.91,4,19.24,19.24,0,0,1,3.72,4.91c-1.89,2.08-2.47,1.23-5,2.49s-2.43,1.43-4.94,2.7-2.41,1.47-4.92,2.74-3,.44-5.19,2.25S186.88,226.69,184.48,225.22Z"/><path class="cls-23" d="M179.52,232.53c2.4,1.47,2.65-1.33,5.16-2.59s2.6-1.09,5.11-2.35l5-2.52,5-2.53c2.52-1.26,2.17-2,5-2.34a16.6,16.6,0,0,1,1.49,5.08,20.74,20.74,0,0,1,.38,5.72,23.68,23.68,0,0,1-1.44,5.57,26.62,26.62,0,0,1-2.6,5.1,29.38,29.38,0,0,1-3.21,4.79,32.57,32.57,0,0,1-4.6,3.5,33,33,0,0,1-4.91,2.92c-1.77.89-3.24,2.39-5.05,2.94a32.12,32.12,0,0,1-5.78.8,29.91,29.91,0,0,1-5.79.12,26.93,26.93,0,0,1-5.66-1.15,23.26,23.26,0,0,1-5.08-2.65c-1.67-1-3.66-1.59-5-3a20.3,20.3,0,0,1-3.22-4.88,19.79,19.79,0,0,1-1.61-5.56,21.34,21.34,0,0,1-.57-5.79c.19-1.89,1.4-3.58,2.06-5.43a26.11,26.11,0,0,1,2.36-5.18c1-1.61,1.66-3.54,3-5a32.91,32.91,0,0,1,4.56-3.62,34.27,34.27,0,0,1,5.15-2.59c2.78-1.4,4.91-2.66,7.91-3.27,1.66,2.49.05,2.92.33,5.89s.78,2.93,1.06,5.91.45,3,0,5.91C178.18,229.66,177,231,179.52,232.53Z"/><path class="cls-22" d="M287.68,171.08c-2.55-1.56-.34-2.75-.62-5.73s-.18-3-.46-6-.53-3-.81-5.93-1-3-.3-5.92a30.19,30.19,0,0,1,6.13-.56,27.44,27.44,0,0,1,6.29.67,23.81,23.81,0,0,1,6,2,21.45,21.45,0,0,1,5.26,3.64,20.5,20.5,0,0,1,3.45,5.31c-1.89,2.08-2.55,1.15-5.06,2.41s-2.42,1.45-4.93,2.71-2.47,1.34-5,2.61-2.88.67-5,2.48S290.08,172.54,287.68,171.08Z"/><path class="cls-23" d="M282.72,178.4c2.4,1.47,2.65-1.33,5.16-2.59s2.6-1.09,5.11-2.35l5-2.52,5-2.53c2.52-1.26,2.17-2,5-2.34a16.6,16.6,0,0,1,1.49,5.08,20.74,20.74,0,0,1,.38,5.72,23.68,23.68,0,0,1-1.44,5.57,26.62,26.62,0,0,1-2.6,5.1,29.38,29.38,0,0,1-3.21,4.79,32.57,32.57,0,0,1-4.6,3.5,33,33,0,0,1-4.91,2.92c-1.77.89-3.24,2.39-5.05,2.94a32.12,32.12,0,0,1-5.78.8,29.91,29.91,0,0,1-5.79.12,26.93,26.93,0,0,1-5.66-1.15,23.26,23.26,0,0,1-5.08-2.65c-1.67-1-3.66-1.59-5-3a20.3,20.3,0,0,1-3.22-4.88,19.79,19.79,0,0,1-1.61-5.56,21.34,21.34,0,0,1-.57-5.79c.19-1.89,1.4-3.58,2.06-5.43a26.11,26.11,0,0,1,2.36-5.18c1-1.61,1.66-3.54,3-5a32.91,32.91,0,0,1,4.56-3.62,34.27,34.27,0,0,1,5.15-2.59c2.78-1.4,4.91-2.66,7.91-3.27,1.66,2.49.05,2.92.33,5.89s.78,2.93,1.06,5.91.45,3,0,5.91C281.37,175.52,280.17,176.83,282.72,178.4Z"/></g></g></svg>