<svg xmlns="http://www.w3.org/2000/svg" viewBox="0 0 360 360"><defs><style>.cls-1{isolation:isolate;}.cls-2{fill:#4cc1bb;}.cls-3{fill:#b5d0e1;}.cls-4{fill:#ccd8e3;}.cls-17,.cls-4{mix-blend-mode:multiply;}.cls-5{fill:#9d895f;}.cls-6{fill:#856b36;}.cls-7{fill:#fff;}.cls-8{fill:#f7d544;}.cls-9{fill:#edc442;}.cls-10{fill:#003b71;}.cls-11{fill:#dfe3eb;}.cls-12{fill:#c9e9e6;}.cls-13{fill:#fb3449;}.cls-14{fill:#96382d;}.cls-15{fill:#a5e0ee;}.cls-16{fill:#00c1de;}.cls-17{fill:#bdd9eb;}.cls-18{fill:#94989f;}.cls-19{fill:#e2dba4;}</style></defs><title>Icon_Event_Golf_3C</title><g class="cls-1"><g id="Background"><circle id="_76.193.187" data-name="76.193.187" class="cls-2" cx="180" cy="180" r="180"/><circle id="_27.62.111" data-name="27.62.111" class="cls-3" cx="180" cy="180" r="180"/></g><g id="Artwork"><path class="cls-4" d="M150.18,287.64c-.42-1.86-.64-3.16-1.6-4.11-.06-.37-.44-.61-1-.79,1-.84,2.11-1.88,3.22-2.9a12.91,12.91,0,0,0,5.9-3.93c3-3.46,6-6.91,9.16-10.35,8-8.74,16.14-17.4,24.06-26a140.07,140.07,0,0,0,15.16-20c.61-.55,1.18-1.1,1.71-1.55,2.63-2.25,4.9-4.54,7.21-6.81s24.68-25.05,35.43-33.87c21.28-19.3,24.14-21.88,25.48-23.09,0-.29-.41-.55-.9-.77,2.17-2,4.43-4.11,6.11-5.65a18.45,18.45,0,0,0,3.4-2c1.94-1.45,5-4.06,4.38-4.41s-3.45,2.25-4.21,2.34c-1.3.16,4.39-4.66,3.37-4.89s-4.32,3.37-5,3.78,3.32-4.67,2.12-4.58-3.26,4.22-4.07,4.34,2.47-4.35.61-3.69c-1.45.52-2.83,3.57-3.28,4.12-1.76,2.11-2.78,2.13-2.78,2.13s-.32.08-.11-.17c1.71-2.16-.11-2.9-.46-2.2-1,2-2.63,1.72-2.6,4,0,1.6.56,2.23.91,2.48a46.1,46.1,0,0,1-3.81,3.31,9.6,9.6,0,0,0-1.85,0c-3.74,2.84-7.37,5.86-11.55,9.61-6,5.34-19.67,16.31-25.2,20.3-4,.1-7.51.2-10.65.3,0-.06,0-.12,0-.18a7.61,7.61,0,0,1,2.23-2.44l.07-.05a18,18,0,0,0,5.61-2c4.33-2.77,7.42-5.69,8.36-8.8a3.33,3.33,0,0,0-.46-2.93,64.11,64.11,0,0,0,6.74-2.8c-1.69-.3-3.22-.5-4.68-.66,1.67-.78,3.47-1.62,5.68-2.63-.28-.56,0-.19-.24-.75a15.79,15.79,0,0,1-5.12.56c-1.08-1.12-1.87-1.15-3.91-1.94-4.81-.43-6.59-.17-11.73,1.63.14-1-.81-1.6-2.66-1.37-3.67.62-5.49,2.76-4.59,4.06-3.32,1.38-6.9,3.26-8.41,5.88-.93,1.93-1.9,4,.11,5.07a1.39,1.39,0,0,0,.08.4l.31-.21c.13,0,.25.1.4.14.33,2.31,3.18,3,3.18,3l.11-.07a5.26,5.26,0,0,0,1.34,1.57c-.05,1.24-1.43,2.27-5.07,5.09-7.29.38-9.4.68-9.4.68s-2.1-8.7-2.35-13.65a86.69,86.69,0,0,1,2-14.95c.11-.47-1-.16-2.55.56,0-1.54,0-3-.06-4,.44-.35.92-.76,1.45-1.26,2.74-2.57.66-2,1.91-4.13.43-.72-2.4.32-3.07,2.49-.08.26-.18.17-.33.21s-1,.09-.53-1.91q12.71-5.54,25.22-11c10.1-4.36,32.63-13.66,37.27-15.48a2.81,2.81,0,0,0,1.92-.45,6.71,6.71,0,0,0,1.46-1.07c.88-.89,1.69-1.8,2.47-2.72a9.1,9.1,0,0,0,.85-2.21c.56-2.48.31-3.7-1.48-5.45-.92-.9-2.2-1.15-4-.59-2.14.65-7.41,2.47-7,3.09.06,1.87,1.09,2.9,2.18,4.13a12.41,12.41,0,0,1,2.73,4.33,10.22,10.22,0,0,1-1.23.57c-5.61,2.16-38.85,16.4-50,21.33-3.23,1.42-6.47,2.81-9.72,4.22.59-1.15,1.34-2.7.68-3-1.24-.5-2.93,4-3.66,4s1.85-4.34.66-4.29-2.84,5.19-3.07,4.81.41-4-1-3.56-.83,5-2.08,5c-.72,0-1-2.45-1.87-2.06s-.85,2.37-.54,3.77c-6.32,2.73-12.68,5.48-19.07,8.31-.49.22-1,.42-1.57.63-.7-.28-1.85.22-4.7,1.46-3.26,1.42-6.36,3-9.54,4.46-.93.44-1.79.92-2.73,1.36-2.55,1.2-3,1.78-1.5,2.22a6.16,6.16,0,0,0,1,.06l6.27-2.91c2.13-1,4.32-2,6.37-3s4.73-1.89,5.58-3c0,0,0,0-.07-.08,4.34-1.82,8.65-3.64,13-5.52l7.27-3.15a3,3,0,0,0,2.51,2c.45.05.79.07,1.19.1.19,1.72-.44,4.73-1.05,7.12a5.22,5.22,0,0,0-1.7,2c-2.88,10.64-3.64,21.4-6.85,32.18-2.37,8-9.89,15.87-12.78,24a2.75,2.75,0,0,0,0,1.91h-.07l-4.5,4.75h0c-2.15,2-4.36,4.05-6.39,6-4.65,4.42-7.9,9-12.89,13.41-9.67,8.56-15.74,17.15-23.65,25.83-2.44,2.68-4.81,5.49-3.93,7.61h.14c-.87,1.1-1.86,2.38-2.69,3.5a13.94,13.94,0,0,0-4,1.25,97.7,97.7,0,0,0-9.92,4.73c-5.78,3-13,5.3-13.4,5.68a1.2,1.2,0,0,0-.32.59h0s-.71,1.27-.12,1.47,2.89,1.19,7.35.17,22-5.62,26-8L117,287c1.38-1.26,2.3-3.62,2.08-4.77,1.8-1.52,3.89-3.37,5.37-4.71a33.56,33.56,0,0,0,5.46-4,73.13,73.13,0,0,0,6.43-5.61c7.64-8.06,28.92-28.57,34.68-31.58-1.61,2.83-2.39,4.78-3.91,6.78-5,6.55-10.49,13.16-15.5,19.78-3,4-5.53,8-8.07,11.94a8.81,8.81,0,0,0-1.37,3.77c0,.21.15.36.23.55-1.08,1.48-2.25,3.11-2.93,4.18-2,1.14-5.22,3.82-6,5.11l-.92.83c-.18,2.23,8.7,5.47,11.13,6.12s6-.61,6.86-.88a8.27,8.27,0,0,0,2.15-1.53h0a3.09,3.09,0,0,0,.62-.59C153.6,292,150.77,290.24,150.18,287.64Z"/><path class="cls-5" d="M98.1,303.22s.4,1.66,1,1.93a7,7,0,0,0,6,.3c2.77-1.29,13.43-7.23,14.79-10.42l-.57-2Z"/><path class="cls-6" d="M97.92,302.44c0-.49,4-3.49,6.36-7.36,1.68-2.76,2.8-4.7,4.37-6.21,1.58-2.79,8-2.39,8.66-1.68,1.24,1.4,2.69,5.6,2.2,7.21-1.55,2.41-9.07,7.52-14.36,10.26C102.66,305.94,97.94,305,97.92,302.44Z"/><path class="cls-5" d="M153.71,302.25s-.13,1.7-.62,2A5.43,5.43,0,0,1,148,305.4c-2.53-.9-12.38-5.33-13.94-8.31l.23-2.06Z"/><path class="cls-6" d="M153.77,301.45c-.1-.48-3.86-2.91-6.36-6.42a29.4,29.4,0,0,0-4.51-5.55c-1.7-2.55-7.15-1.28-7.61-.48-.88,1.55-1.59,5.91-1,7.44,1.63,2.18,8.69,6.21,13.55,8.2C150.16,305.57,154.06,304,153.77,301.45Z"/><path class="cls-7" d="M134,279.47s7.76-.12,8.46-.45c0,0-.79,10.88-1.42,11.74s-1.64,2-3,1.77a3.46,3.46,0,0,1-2.47-1.92C135.07,289.76,134,279.47,134,279.47Z"/><path class="cls-7" d="M110.14,279.38s7.76.05,8.47-.26c0,0-1,10.86-1.69,11.71s-1.69,2-3,1.7a3.46,3.46,0,0,1-2.43-2C111,289.69,110.14,279.38,110.14,279.38Z"/><path class="cls-8" d="M143.52,228.92c0,12-.06,24.1,0,36.14,0,4.71.17,9.42.34,14.12.12,3.22-.89,5.28-3.07,5.95-2.7.83-5.82-.09-7-2.33a19,19,0,0,1-1.78-5.08c-1-5.38-2-10.77-2.55-16.21-1-9.07-1.57-18.18-2.5-27.25-.29-2.77-1.17-5.48-2-9.42-2.47,4.28-4.14,32.63-4.2,43.58a47.23,47.23,0,0,1-1,7.57c-1.2,7.06-1.4,7.17-9.46,6.58-2.34-2.82-2.57-6.57-2.65-10.15-.26-11.68-1.94-23.31-.68-35.07.66-6.11-.24-12.43.14-18.6.33-5.42.88-11.62,1.16-16.3.18-3,7.35,2.22,12.1,2.27a30.2,30.2,0,0,0,11.33-1.9c4.12-.91,8.2-6.34,8.75-3.43A167,167,0,0,1,143.52,228.92Z"/><path class="cls-9" d="M140.16,203a7,7,0,0,1-4.49,5.08c-4,1.63-26.7,4-28,2.26v-6.7Z"/><path class="cls-8" d="M124.64,112.46c-1.35,1.19-3.23,1.1-4,1.2-1.85-1.54-2.57-1.52-5-2.5-5.45-.31-6.22.44-10.86,5.38-2.16,2.3-5.52,5.92-4.36,11.25,1.12,4.12,2.41,8.86,8.93,7.78,9.2-10.48,9.37-12,15.93-21.73a.48.48,0,0,0,0-.56C124.9,112.86,125.24,113.14,124.64,112.46Z"/><path class="cls-7" d="M103.43,112.61c-3.07,1.35-2.33,5.48.39,6.93.71.57,2.74.13,3-.65C108.35,115.07,106,111.75,103.43,112.61Z"/><path class="cls-7" d="M147,110.68,140,107.83s2.35-7.94,2.51-13l6.22-6.08S146.92,106.87,147,110.68Z"/><path class="cls-7" d="M87,121.84l-7.32,1.69s-4.2-11.21-7-15.44l3.1-5.18S84.73,118.74,87,121.84Z"/><path class="cls-10" d="M128.61,146.87a5.25,5.25,0,0,0,4.52-4.1c1.65-7.58,3.95-20.52,4.69-27.42a136.84,136.84,0,0,1,2.35-15c.85-.42,7.44-.06,8.85,2-.2,1.9-.64,5.93-3.73,35.67-2.3,13.4-3.42,47.09-3.6,50.39s-.31,6.62-.77,9.9c-.28,1.94-.11,5.09-1.88,6-8.22,4.08-16.81,5.49-26.07,2.64-3.4-1-5.59-2.94-6.68-6-4-11.33-4-22.65-8.36-33.87C92,151.87,84,136.69,77.86,121.49c-1.5-3.71,3.27-13.69,4.18-11.53,3,7.11,6.63,14.22,10.41,21.38,3,5,8.41,12.76,11.2,16.7a4.5,4.5,0,0,0,4.58,1.81C111.27,149.22,117.28,148.19,128.61,146.87Z"/><path class="cls-7" d="M123.67,142c-1.15,2.66-1.45,5.53,1.7,8.52-.55,1-4.62,7.62-8.27,6-2.92-1.29-4.15-4.22-4.32-7.1,1.06-5.38,1.44-6.59-.33-9C110.52,137.86,125.11,138.66,123.67,142Z"/><path class="cls-7" d="M126.49,127.14a10.74,10.74,0,0,0-9.17-7.27,9.43,9.43,0,0,0-9.78,5c-1.7,3.11-1.19,6.7.23,10.08,2.07,4.94,6,7.6,10.5,9.25,2.71,1,7.18-1.2,8.12-3.84A18.63,18.63,0,0,0,126.49,127.14Z"/><path class="cls-7" d="M142.91,95.21s-1.28-.26-3.29-3.79-.27-3.15-1-6.22c-.27-1.06,2-.14,2.25,3.22,0,.4.12.23.25.24s.89-.13.72-3.41c0-.85-1.35-5.51-.48-6.41,1.12-1.16,1.9,5.79,2.53,5.54s-.95-6.58.05-6.83,1.66,7.68,1.91,7,.22-6.34,1.35-6.09,0,7.94,1,7.59c.61-.2,1.17-4.26,1.86-3.87s.26,4.63-.29,7c-.44,1.87-1.25,3.74-2.54,4.45C144.34,95.2,142.91,95.21,142.91,95.21Z"/><path class="cls-7" d="M76.05,108s1-.74,1.19-4.74-1.1-3-1.75-6c-.22-1.07-1.74.66-.55,3.8.14.37,0,.26-.11.32s-.81.23-2-2.81c-.32-.79-1.18-5.53-2.31-6-1.44-.61.84,6,.2,6s-2-6.34-2.93-6.17,1.84,7.62,1.34,7.11-2.86-5.66-3.71-5,3.36,7.19,2.33,7.29c-.6.06-2.79-3.4-3.21-2.77s1.73,4.3,3.18,6.19c1.16,1.52,2.64,2.89,4,3C74.83,108.6,76.05,108,76.05,108Z"/><path class="cls-10" d="M109.33,123s-.06-7.88,18-4.62C127.3,118.39,118.7,133.3,109.33,123Z"/><path class="cls-10" d="M111.69,121.54s.82,13.85-1.06,17.88a9.61,9.61,0,0,1-5.67-4.92c-2.15-4.08.43-12,5.15-13Z"/><path class="cls-8" d="M120.93,117.6s-13.11,5.72-15.93,18c0,0-5-6,2.55-14.47S120.93,117.6,120.93,117.6Z"/><path class="cls-7" d="M111.14,131.66s-1.66-2.16-2.77-.65.57,5.9,3.33,5.83C111.71,136.84,113.19,132.18,111.14,131.66Z"/><path class="cls-10" d="M91.68,41.33A21.55,21.55,0,0,0,97,47.19a40.84,40.84,0,0,1,6.19,6.34c1.1,1.46,2.13,1.47,2.69.19a4.61,4.61,0,0,0,.39-1.73c0-1.4,0-2.85-.1-4.3a21.76,21.76,0,0,0-1.09-3.36,16.81,16.81,0,0,0-5.86-7.92c-1.56-1.23-2.89-1.46-4-.42C93.88,37.18,90.8,40.45,91.68,41.33Z"/><path class="cls-10" d="M52.65,125.56c.78,1.14,1.11,0,1.76-.84,3.53-4.63,6.81-9.22,10.17-14,6.94-9.9,13.69-20,20.6-29.88C90.62,73,103.91,55.24,105,54.06s.44-2.17.71-4.34c-2.84-.08-1.53,2.38-3.32,4.54C99.3,58,82.47,82,77,90c-6.25,9.3-12.74,18.24-18.94,27.58C56.4,120.17,53.41,122.36,52.65,125.56Z"/><path class="cls-10" d="M58.46,119.51c-1.64-1.78-1.94-1.25-3.8,1.46-1.51,2.21-2.79,4.57-4.16,6.88-.4.68-.72,1.39-1.12,2.06-1.1,1.83-1,2.66.55,3.18a3.28,3.28,0,0,0,.83,0l2.75-4.45c.94-1.52,1.95-3,2.8-4.56S58.66,121.12,58.46,119.51Z"/><path class="cls-11" d="M123.12,143.58a11.12,11.12,0,0,1-5.59-.86,9.22,9.22,0,0,0,6.33,6S122.42,147.5,123.12,143.58Z"/><path class="cls-4" d="M296.05,259.11c3.85-4.94,4.1-7.83,8.19-12.73,5-6,17.68-15.25,15.39-20.37l-2-1.54c1.35-1.15,2.88-4.41,2.88-4.41s-.09-.76-4.16-.38c.11-.25.21-.49.33-.74l1-.37h.1c9.93-3.42,12.53-6.92,13-9.18l.12,0c3.69-1.78,4.33-3.2,4.37-5.18-.19-1.76-2.61-2.27-5-2.42,1.44-1.39.74-2.66-2.39-2.07a4.39,4.39,0,0,0-3.12,2c-4,0-5.57.38-10.36,2.26a25.62,25.62,0,0,0-4.68,2.93,18.52,18.52,0,0,1-4.17.57c-.54.59-.6.74-1.14,1.33,1.5.52,2.81.94,4.07,1.3-.46.6-.94,1.49-1.07,1.67-.27.38-.52.77-.8,1.15a4,4,0,0,1-1.07.92c-.75.67-2.1.91-.07,1.57,0,.26-.34.9-.32,1.16s-.14.61,0,.9A3.22,3.22,0,0,0,306.3,219a3.35,3.35,0,0,0,.58.35,3.49,3.49,0,0,0,1.19.57H308a15,15,0,0,1-1.24,1.42l-3.11.7c-1,.23-2.49,1.57-3.6,2.64-12.71,3.09-19.69,12.56-26.2,17.07s-12.64,7-18.37,11.65l0,0-.82-.11h0l-.7-.22s-2.82,1.73-2.61,2.07a6,6,0,0,0,1.39.71c-.84.29-1.67.61-2.44,1-.55.19-6.2,2.6-7.74,4.44-1.69.41-3.1.57-3.31,1s1.54.51,3.26.32l-.68.46c-1.77,1.27-2.47,1.78-2.09,2.12-.3.24-.59.49-.9.71-8.59,6.08-16.86,12.25-25.57,18.46-7.64,5.45-30.64,22.29-34.27,25.23a7.72,7.72,0,0,1-1,.68,37.85,37.85,0,0,1-7.3-1.24,21.31,21.31,0,0,0-7-.95c-1-.19-4.73,2.88-6.09,4.13-1.17,1.08-.85,1.79.65,2.24,2.91.89,5,.94,9.42.45.64-.07,3.29-.44,3.92-.64,1.67-.51,3.33-1,4.94-1.58a11.88,11.88,0,0,0,2-.89c.79-.45,1.09-.82.95-1.09,3.06-2.43,18.28-14,25.21-19.07,9.37-6.83,18.8-13.55,27.95-20.24,2.62-1.92,5.16-3.8,7.67-5.69a1.33,1.33,0,0,0,.8.22c.79,0,1.88-.51,2.49-.29a3.07,3.07,0,0,0,2,.15,24.25,24.25,0,0,1,2.64-.75,9.27,9.27,0,0,0,2.36-.78,18.11,18.11,0,0,1,1.83-1,3.15,3.15,0,0,0,1.11-.76c1.14-1,.61-2,1.26-3.27l.2-.36q.74-.37,1.58-.76a1.92,1.92,0,0,0,.43.49,2.81,2.81,0,0,0,1.28-.28c-.3.39-.53.66-.53.66h0a13.51,13.51,0,0,0-2.18,2.9c-.61,1.6.06,1.58,1.56,1.78-1.9,1.5-4.28,4-5.3,4.75a193.55,193.55,0,0,0-23.42,20.73c-1.51,1.62-2.21,3.27-3.48,5.2l1.52.35c-1,1.41-1.93,2.89-2.82,4.07l-.93,1.24h-.15s-2.5,3.22-4.06,5.4a8.38,8.38,0,0,0-1.67.59,80.18,80.18,0,0,0-8.35,3.68c-4.92,2.35-10.69,4-11.09,4.31a1.58,1.58,0,0,0-.38.53h0s-.84,1.14-.47,1.38,1.77,1.35,5.24.73,17.3-3.59,20.77-5.57l.48-.73c1.45-1.18,2.85-3.69,2.74-4.63,0-.09-.24-.2-.56-.3.66-.59,1.36-1.21,2.05-1.85,1.18-1,2.37-2.13,3.51-3.27L231,300h0a59.61,59.61,0,0,0,4.91-5.53,17.48,17.48,0,0,0,7.19-5.21,40,40,0,0,1,7.15-6.15c3.81-2.7,8.52-6.25,12.69-9.69-3.91,4.39-8.13,8.8-11.92,13.24-2.81,3.29-5.22,6.62-4.33,9.93l1.33.13c-.73,1.09-1.43,2.18-2.1,3.09l-.82,1.12h-.14s-2.38,3.11-3.92,5.29a8.09,8.09,0,0,0-1.66.7,72.09,72.09,0,0,0-7.7,4.08c-4.48,2.56-10.06,4.56-10.38,4.89a1.09,1.09,0,0,0-.25.51h0s-.56,1.11-.1,1.28,2.23,1,5.68.18,17.06-4.81,20.13-6.9l.3-.7c1.18-1.2,1.95-3.58,1.57-4.43,0-.06-.14-.11-.32-.16l1.09-1c1.31-1.14,2.62-2.39,3.88-3.67l0,0h0c1.42-1.46,2.75-2.93,3.85-4.3a12.74,12.74,0,0,0,6.28-3.76c6.32-7,12.55-14,18.76-20.85,1.62-1.57,2.82-2.82,3.72-3.87l.25,0a6.17,6.17,0,0,0,1.55-1.93C294.91,264,295.19,260.22,296.05,259.11Z"/><path class="cls-7" d="M198.15,216.85c.19-.83.7-2.79,1.44-5a12.66,12.66,0,0,0-7.31,4.52c-.51.41-6.13,6.67-3.87,9.75.33.45,1.31-.51,1.71,0s.83,1,1.34.72a7.48,7.48,0,0,1,1.85-.78,3.23,3.23,0,0,0,1.66-.89,11.49,11.49,0,0,1,1.31-1.44,2.81,2.81,0,0,0,.81-1.16C197.94,220.95,197.63,219.1,198.15,216.85Z"/><path class="cls-5" d="M216.76,319.09s.43,1.86,1.1,2.16a7.42,7.42,0,0,0,6.48.34c3-1.45,14.58-8.11,16.05-11.69l-.61-2.25Z"/><path class="cls-6" d="M216.57,318.22c0-.55,4.35-3.92,6.91-8.26,1.83-3.1,3-5.27,4.74-7,1.71-3.13,8.71-2.69,9.4-1.88,1.34,1.57,2.92,6.28,2.39,8.09-1.68,2.7-9.84,8.44-15.59,11.51C221.72,322.15,216.6,321.05,216.57,318.22Z"/><path class="cls-7" d="M233.15,307.11c-3,0-3.77-7.89-4.36-16.33-.27-3.78-1.39-9.37-.87-12.59,1.19-2.66,8.19-3.27,9-2C240.21,281.38,238.29,307.11,233.15,307.11Z"/><path class="cls-12" d="M228.77,292.71s8.7.33,9.5,0c0,0-1.53,12.14-2.29,13.07s-2,2.13-3.42,1.8a3.88,3.88,0,0,1-2.66-2.3C229.4,304.3,228.77,292.71,228.77,292.71Z"/><path class="cls-5" d="M188.64,315.74s.16,1.91.79,2.29a7.42,7.42,0,0,0,6.37,1.24c3.18-1,15.58-6,17.54-9.32l-.29-2.32Z"/><path class="cls-6" d="M188.57,314.85c.13-.54,4.85-3.27,8-7.21,2.25-2.81,3.75-4.79,5.67-6.23,2.13-2.86,9-1.44,9.57-.54,1.11,1.74,2,6.63,1.23,8.35-2,2.44-10.93,7-17.05,9.2C193.12,319.46,188.2,317.66,188.57,314.85Z"/><path class="cls-7" d="M207.19,305.45c-2.92,0-3.72-7.89-4.3-16.33-.26-3.78-1.37-9.37-.86-12.59,1.17-2.66,8.08-3.27,8.89-2C214.16,279.73,212.27,305.45,207.19,305.45Z"/><path class="cls-12" d="M202.87,291.24s8.58.32,9.38,0c0,0-1.51,12-2.26,12.91s-1.93,2.11-3.37,1.78a3.83,3.83,0,0,1-2.62-2.27C203.5,302.69,202.87,291.24,202.87,291.24Z"/><path class="cls-13" d="M227.84,225.37c12,2.51,18.15-4,15.63,16.41-.47,12.29-.9,24.59-1.39,36.88-.17,4.41-2.41,7.21-6.55,7.4a39.92,39.92,0,0,1-7.3-.61,3.77,3.77,0,0,1-2.69-1.72c-3.24-5.19-3.64-10.45-3.63-15.66,0-8.61.71-17.22.82-25.83C222.8,235.85,221.57,229,227.84,225.37Z"/><path class="cls-13" d="M202.49,282.28a3.84,3.84,0,0,1-2.74-3,30.54,30.54,0,0,1-.74-6.55,162.81,162.81,0,0,1,6.2-36.31c.52-1.86.85-9,2.22-10.4,2-2,5.29,1.51,8.52,2.64,2.87,1,8.87-.33,8.69,3.46-.39,8.58-4,21.55-7,29.87a32.21,32.21,0,0,0-2.13,10.75c0,4-.6,7.28-3.79,9.81C209.76,284.05,209.22,284.17,202.49,282.28Z"/><path class="cls-14" d="M207.21,227s9.76,7.5,18.63,8.85,18.43-1.06,18.43-1.06a6.82,6.82,0,0,0-.24-4C243.2,229.12,207.21,227,207.21,227Z"/><path class="cls-7" d="M189.2,231.75a1.71,1.71,0,0,1-.45-1.82l2.29-1.48s-.62,3.37-1.09,3.38A2.47,2.47,0,0,1,189.2,231.75Z"/><path class="cls-7" d="M190.49,229.94a2.45,2.45,0,0,1-1.29,1.81,2.37,2.37,0,0,0,1.6.76c.87,0,1.61-1,2.49-.6a2.67,2.67,0,0,0,2.36.18,10.88,10.88,0,0,1,2.23-1.41,4.18,4.18,0,0,0,1.9-1.44,9.5,9.5,0,0,1,1.08-1.82c.51-.48.76-1.74.28-2.12S190.49,229.94,190.49,229.94Z"/><path class="cls-15" d="M218.24,156c4.36-.08,1.92,6,1.33,9.35-.73,4.2.93,14.42-.9,18.39-5.14,11.19-9.13,18.7-18.95,27.4-.38.75-1.3,2.29-2.71,2-2.54-.31-2.43-2.15-2.22-3,1.94-8.41,6.47-13.27,9.42-21.48C207.28,180.09,205.79,162.17,218.24,156Z"/><path class="cls-16" d="M219.12,151.35c-1.38.74-1.69,6.27-1.79,7.42s4.5-3.78,7.92-4,7.28,1.49,7.82-.59,4-7.76,4-7.76S234.8,142.9,219.12,151.35Z"/><path class="cls-7" d="M191.84,221.08s2.42-4.71,2.76-8.62l5.74,2.41a89.91,89.91,0,0,1-5.17,8.38Z"/><path class="cls-17" d="M193.74,210a38.12,38.12,0,0,1,7,1.59c2.14.92,1.15.79,1.15.79l-.85,1.3Z"/><path class="cls-11" d="M192.74,209.67s8.62,2.94,8.85,3.78-.65,3.53-1.41,3.51a47.22,47.22,0,0,1-8.35-3.55C191.26,212.82,192.74,209.67,192.74,209.67Z"/><path class="cls-16" d="M229.75,149.1l12.19,8.23c7.88,9.15,2,26.67,2.08,37.82,0,9,2.61,14.17,3,23.16.08,2,3.62,9-3,13.12-5.46,3.45-27.91-.56-34.87-2.9-4-1.33-4.9.19-6.07-3.64-1.9-6.23,3.65-42.91,7.5-55.4C213.51,160,218.79,152.8,229.75,149.1Z"/><path class="cls-10" d="M147.22,305.08c3.33-.15,5.58.68,8.21,1.54a39.78,39.78,0,0,0,9.13,2.08c1.91.16,2.53,1.16,1.76,2.51a4.91,4.91,0,0,1-1.26,1.47c-1.19.91-2.47,1.76-3.76,2.59a20.45,20.45,0,0,1-3.55,1c-4.16.8-6.43.7-10.3-.76-2-.75-3-1.91-2.76-3.68C145,309.81,145.95,304.76,147.22,305.08Z"/><path class="cls-10" d="M191.25,223.2c1.37.12.67,1,.39,2.08-1.54,5.76-3.2,11.26-5,16.94C183,254,179.09,265.62,175.4,277.34c-2.91,9.23-9,31.08-9.24,32.73s-1.45,1.57-3,3c-1.77-2.6,1-2.7,1.6-5.51,1.1-4.89,9.93-33.32,13.05-42.69,3.6-10.78,6.77-21.58,10.44-32.34C189.24,229.56,189.18,225.6,191.25,223.2Z"/><path class="cls-18" d="M190,231.83c-2.39-.57-2.15-1.14-1.12-4.31.84-2.59,1.94-5,2.94-7.54.29-.73.67-1.41,1-2.15.79-2,1.52-2.33,2.84-1.18a4.21,4.21,0,0,1,.51.76l-1.87,4.93c-.64,1.68-1.21,3.42-1.93,5S191.35,231.15,190,231.83Z"/><path class="cls-7" d="M204.64,203.44l3.91,6.55s-6.24,5.52-9.17,9.85l-8.27,1.64S202.55,206.77,204.64,203.44Z"/><path class="cls-7" d="M221.09,138.93s2.46,10.6,0,16c0,0-3.43,5-3.85,6.43s4.91-4.78,7.4-5.53,8.66-4.21,8.66-4.21-4.07-12.42-2.78-15Z"/><path class="cls-15" d="M224.06,152s-1.69,6.27-1.79,7.42,4.5-3.78,7.92-4,7.28,1.49,7.82-.59-1-8.4-1-8.4Z"/><path class="cls-17" d="M242.32,161.51s5.68,11.15-12.62,36.85c-3.88,5.44-25.48,21.64-27,21.37,0,0,.1-6-2.47-7.61S242.32,161.51,242.32,161.51Z"/><path class="cls-7" d="M213.84,131.69a12,12,0,0,1,6.9-11.28,11.09,11.09,0,0,1,12.58,1.34c3.1,2.59,4,6.56,3.88,10.67-.21,6-3.37,10.37-7.52,13.89-2.51,2.13-8.22,1.61-10.31-.79A20.6,20.6,0,0,1,213.84,131.69Z"/><path class="cls-10" d="M220,121.62a30.89,30.89,0,0,0,3.15-2c2.68-1.66,3-1.91,5-1.91s4.33,2.28,5,2.83,1.06-.31,2.54,1,9.58,11.3-3.4,22.3c0,0-2,.46-.73-3.27S230.1,131,230.1,131s-10.46.38-11.3-1S220,121.62,220,121.62Z"/><path class="cls-7" d="M230.91,133.55s1.86-2.42,3.1-.73-.64,6.62-3.74,6.55C230.28,139.37,228.62,134.14,230.91,133.55Z"/><path class="cls-7" d="M212.89,128.25c-.59.12.16,3.67.21,4.19.06.72.17,1.44.22,2.16a3.8,3.8,0,0,1-.33,1.77c-.21,1.28-1.54,1.83,1.49,2.85.29.47.5,1.65.78,2.13a12.2,12.2,0,0,0,.86,1.62,11.89,11.89,0,0,0,3,2.66c.74.46,1.52,1,2.39.65a4.5,4.5,0,0,0,1.12-.64,5.33,5.33,0,0,0,2-2.94,4.85,4.85,0,0,0-.23-2.93,15.27,15.27,0,0,0-1.66-2.91c-1.14-1.69-2.28-3.37-3.39-5.07a1.46,1.46,0,0,0-1.24-.84c-.64,0-.73-1.2-1.37-1.2S213.11,128.21,212.89,128.25Z"/><path class="cls-13" d="M207.91,124.56a11,11,0,0,0,2.35-.77,1.56,1.56,0,0,0,.81-1c.48-2,1.1-2.7,2.3-4.95a1.73,1.73,0,0,1,.27-.37c4.39-4.56,5.65-4.71,13.13-5.29,3.52-.28,9-.67,11.82,3.81,1.89,3.53,2.59,6.16.26,9.6a1.67,1.67,0,0,1-.66.56c-13.44,6.33-17.87,6-30.47,1.61a1.63,1.63,0,0,1-1.09-1.49v0A1.64,1.64,0,0,1,207.91,124.56Z"/><path class="cls-19" d="M225.14,108.44c3.63-1.65,5.94,1.68,4.61,4.9-.21,1-2.3,2.36-3.11,2.1C222.61,114.14,222.32,110,225.14,108.44Z"/><path class="cls-7" d="M191.29,221.52a13.21,13.21,0,0,1-2.84,2.63c-1.65,1-3.44,1.29-3.24,2.12.38,1.55,5.87.23,6.47-.66C193,223.7,191.29,221.52,191.29,221.52Z"/><path class="cls-7" d="M198.87,215.14c-4.63,1.72-9.4,6.44-8.52,10.2,1.26,3.4-1.62,6.62,2.22,6,2.53-.39,7-2,8.29-3.93,1.61-2.5-.6-4.28-1.24-7.11A40,40,0,0,1,198.87,215.14Z"/><path class="cls-15" d="M198.26,211.07a20.07,20.07,0,0,1,1.59-4.64c8.66-8.91,11-12.54,16.46-20.79,5-7.57,6.51-17.31,12-24.56,1.79-2.35,5.24-6.3,8.54-6.33,2.6,0,5.94,3.5,5.42,8.13-.88,12.07-3.23,14.56-8,21.68-7.13,10.62-7.41,16.75-26.41,28.74a10.49,10.49,0,0,1-4.08,2.61C201.63,216.82,198.26,214.52,198.26,211.07Z"/><path class="cls-17" d="M198.45,210.14a38.12,38.12,0,0,1,5.74,4.32c1.58,1.72.73,1.19.73,1.19l-1.31.84Z"/><path class="cls-11" d="M197.68,209.42s6.66,6.21,6.54,7.07-2,3-2.72,2.62a47.22,47.22,0,0,1-6.17-6.66C195,211.69,197.68,209.42,197.68,209.42Z"/><path class="cls-11" d="M222.09,147.16a11,11,0,0,0,6.3-1.47s-5.48,6.35-6.68,7.31A32.79,32.79,0,0,0,222.09,147.16Z"/></g></g></svg>