<svg xmlns="http://www.w3.org/2000/svg" viewBox="0 0 360 360"><defs><style>.cls-1{isolation:isolate;}.cls-2{fill:#b5d0e1;}.cls-3,.cls-5{fill:#dfe3eb;}.cls-3{mix-blend-mode:multiply;}.cls-4{fill:#fff;}</style></defs><title>Icon_Event_Culinary_Chef_Hat_3C</title><g class="cls-1"><g id="Background"><circle id="_27.62.111" data-name="27.62.111" class="cls-2" cx="180" cy="180" r="180"/></g><g id="Active_Artwork_5_x_5" data-name="Active Artwork 5 x 5"><path class="cls-3" d="M280,68.82c-5.38-9-12.37-14-21.84-11.86a96.81,96.81,0,0,0-13.5,4.49,79.48,79.48,0,0,0-10.14,4.83c-4.12,2.32-8.42,2.78-12.86,2.7-3-.05-4.61-2.86-6.51-4.91-8.14-8.74-17.4-10.75-27.84-7.54a46,46,0,0,0-16.91,9.73c-6.32,5.53-12.8,6.19-19.58.8-6.13-4.88-12.8-6.06-20.17-4.45-7.93,1.73-14.9,6.17-22.17,9.75-1.45.72-2.34,3-3.58,4.44a45.51,45.51,0,0,0-11.06,27.38c-.9,17.9,7,32.18,21.81,37.25a24.11,24.11,0,0,0,12.13,1c.7-.14,1.39-.3,2.08-.49L131,166.41c0,1.81.07,3.63.12,5.44.09,3,.29,6.06.51,9.09l.79,18.32q.53,23.86.78,47.72c.06,6.3-.65,12.6-.63,18.9,0,7,.46,14.07.71,21.1H133q0,3.74,0,7.48c0,4.83,0,9.67,0,14.5,0,3,1,5.19,4,6.56,5.86,2.68,11.51,6,18,6.68,6.83.7,13.71.95,20.57,1.32,10.4.56,20.8.8,31.18-.37,7.86-.89,15.84-1.31,23.52-3,11.49-2.59,22-8,32.07-14,2-1.2,3.63-3.36,5.1-5.33,1.21-1.63,1.3-4.26-.32-5.15-3.41-1.87-3.29-5.13-3.51-7.86q-.48-5.85-.92-11.7c1.64-1.31,2-3.36,1.32-6.26l-1.76.42Q261,251.64,259.8,233c-.71-11.4-1-22.83-1.64-34.24-.69-11.85-1.68-23.68-2.46-35.52-.43-6.58-.69-13.16-1.08-19.74a13.6,13.6,0,0,0-.53-3.12l.57-.87c.4-.22.8-.43,1.2-.68,1.14-.69,2.53-.73,3.79-1.16,5.46-1.89,11.43-2.92,15.31-8.44,4.23-6,8.45-12.25,10.36-20,1.15-4.67,1.8-9.51,2.67-14.27A55.91,55.91,0,0,0,280,68.82Z"/><path class="cls-4" d="M117,272.51c-.25-7-.69-14.07-.71-21.1,0-6.3.69-12.6.63-18.9q-.26-27.26-.92-54.52c-.16-6.88-1-13.74-1.16-20.61-.26-9.22-.27-18.45-.26-27.68,0-2.75,1.32-4.63,3.78-6.36,6.75-4.76,14.47-6.41,22.27-7.55,11.6-1.69,23.28-2.74,35-1.7,15.18,1.33,30.37,2.54,45.55,3.86,3.21.28,6.4.76,9.6,1.17,3.86.49,5.79,3.1,6.95,6.46a13,13,0,0,1,.61,3.45c.39,6.58.65,13.17,1.08,19.74.78,11.84,1.76,23.67,2.46,35.52.67,11.41.93,22.84,1.64,34.24,1.14,18.29,2.4,36.57,3.88,54.83.22,2.73.1,6,3.51,7.86,1.62.89,1.53,3.52.32,5.15-1.46,2-3,4.13-5.1,5.33-10.12,5.93-20.58,11.37-32.07,14-7.68,1.73-15.66,2.16-23.52,3-10.37,1.17-20.78.93-31.18.37-6.86-.37-13.74-.62-20.57-1.32-6.53-.67-12.18-4-18-6.68-3-1.37-4-3.55-4-6.56,0-4.83,0-9.67,0-14.5q0-3.74,0-7.48Z"/><path class="cls-5" d="M211.5,249.85c-.51-3-1.23-6-1.46-9q-1.28-16.42-2.29-32.87c-.73-11.85-1.29-23.72-2-35.57-.57-9.35-1.35-18.7-1.89-28.05-.2-3.45-.65-7,1-10.27,2.67-.4,3.24,1,3.33,3,.16,3.37.37,6.73.55,10.09q.54,9.88,1.08,19.76c.49,8.78,1,17.57,1.47,26.35.35,6.73.53,13.48,1,20.21.69,10.82,1.52,21.62,2.32,32.43C214.83,248.87,214.89,248.87,211.5,249.85Z"/><path class="cls-5" d="M145.54,257l-8.06-112.56c2.28,0,3.27.63,3.51,2.41.46,3.33,1.2,6.64,1.44,10,.77,10.51,1.27,21,2.08,31.56.59,7.73,1.72,15.42,2.22,23.15.87,13.43,1.47,26.89,2.08,40.34C148.89,253.79,149.18,256.13,145.54,257Z"/><path class="cls-5" d="M168.65,139.56c3.9,1,3.92,3.51,4.11,5.79.73,8.76,1.58,17.52,2,26.31.93,19.78,3.16,39.44,5.54,59.08.41,3.34.84,6.69,1,10.05a6.77,6.77,0,0,1-2.53,6.13c-1.79-3.49-1.9-7.14-2.23-10.64q-3-30.86-5.63-61.74c-.84-9.49-1.53-19-2.23-28.49C168.53,144.06,168.65,142.06,168.65,139.56Z"/><path class="cls-5" d="M156.78,224.52c-4-29.29-3.75-58.31-7.57-86.82,3.2-1.28,4.32.23,4.68,2.26.54,3,.77,6.09,1.09,9.15.36,3.49.72,7,1,10.49.32,3.94.55,7.88.85,11.82q1.64,21.9,3.3,43.81a39.29,39.29,0,0,1,.26,4.38C160.32,221.84,160,222.13,156.78,224.52Z"/><path class="cls-5" d="M133,219.59a871,871,0,0,1-8.58-87.88c3.75-.53,4.21-.36,4.47,2.06.36,3.34.52,6.71.77,10.06q1,14,2.07,28,.78,10.51,1.58,21c.49,6.56.86,13.13,1.54,19.66A8.76,8.76,0,0,1,133,219.59Z"/><path class="cls-5" d="M200.42,247.22c-3.52.83-3.9.66-4.46-2.94-1.25-7.94-2.41-15.89-3.58-23.84-.83-5.63-1.63-11.27-2.37-16.92-.22-1.71-.2-3.44-.3-5.22,2-1,3.37-.73,4,1.27a30.25,30.25,0,0,1,1.09,4.69q3,21.06,5.84,42.13A2.29,2.29,0,0,1,200.42,247.22Z"/><path class="cls-5" d="M221.64,195.65c-1.17-3.29-5-44.45-4.67-50.78a28.26,28.26,0,0,1,.8-3.87c1.25.79,2.23,1.13,2.73,1.82a5,5,0,0,1,.63,2.51q1,15.78,2,31.57c.28,4.82.42,9.66.62,14.49C223.79,193,223.78,194.66,221.64,195.65Z"/><path class="cls-5" d="M194,184.33c-.83.35-1.36.6-1.91.78a3.49,3.49,0,0,1-.94,0c-.2-.31-.58-.63-.64-1q-2.22-14.3-4.37-28.61c-.56-3.76-1-7.53-1.48-11.3a12.3,12.3,0,0,1-.12-3.92c.16-.75,1.19-1.83,1.84-1.84a2.9,2.9,0,0,1,2.16,1.6,19.29,19.29,0,0,1,.71,4.31c1.45,11,2.92,22,4.32,33.06C193.9,179.71,193.89,182,194,184.33Z"/><path class="cls-5" d="M219.91,206.1c2.8-.45,3.52,1.24,3.64,3,.75,10.75,3.41,21.32,3.09,32.17-.05,1.83,0,1.83-2.05,3.14C221.63,238.2,218.53,213.11,219.91,206.1Z"/><path class="cls-5" d="M132.68,251.17c-1.89-7.71-1.44-14.34-1.33-20.95,3.51-.29,4.25,0,4.25,2.23,0,4.94-.24,9.89-.61,14.83C134.91,248.32,133.83,249.29,132.68,251.17Z"/><path class="cls-5" d="M156,233.79l4.09-.22c.76,5.37,1.5,10.39,2.15,15.42.2,1.5.17,3-2.47,3.14A49.9,49.9,0,0,1,156,233.79Z"/><path class="cls-3" d="M117.19,262.53c10.44,3.91,21.14,4.74,31.69,6.26,16.87,2.43,33.64.89,50.32-2,5.78-1,11.59-1.92,17.29-3.28,8.11-1.93,16.14-4.23,24.21-6.34,2.37-.62,4.77-1.16,7.15-1.73,1,3.94-.08,6.33-3.57,7.39-8.4,2.56-16.78,5.37-25.36,7.12-11.19,2.27-22.53,3.93-33.87,5.24a129.83,129.83,0,0,1-40.28-1.26c-8.19-1.62-16.51-2.51-24.46-5.25C116.61,267.36,116.16,266.72,117.19,262.53Z"/><path class="cls-5" d="M164.48,282.35l3.56,1.07,1.34,22.94c-1.58-1.24-2.92-1.74-3.16-2.57-2-6.7-3.67-13.47-2.31-20.56C163.93,283.1,164.06,283,164.48,282.35Z"/><path class="cls-5" d="M143,281.93a6.57,6.57,0,0,1,1.63-.26,27.64,27.64,0,0,1,2.68.71v21.75c-1.88.28-2.71-1.2-3.14-2.72C142.35,295,142.5,288.48,143,281.93Z"/><path class="cls-5" d="M209,274.68l3.52,1,3.14,22.66c-1.11-.72-2.19-1-2.52-1.7A41.23,41.23,0,0,1,209,274.68Z"/><path class="cls-5" d="M124.15,278.57l4.75.29-.82,17.51c-3.61.11-4.34-.3-4.37-3.35C123.65,288.37,124,283.72,124.15,278.57Z"/><path class="cls-5" d="M188.72,280.54c3.94.38,3.92.44,4,3.64.14,6.08.37,12.16.58,18.5-2.4.12-2.86-1.83-3.34-3.52C188.2,293,188.14,286.82,188.72,280.54Z"/><path class="cls-5" d="M132.67,280.76c2.37-.17,4.12,0,4.41,2.27.71,5.79.27,11.58.33,17.29-2.6.67-3.31-.49-3.49-2.12q-.69-6.33-1.22-12.67C132.56,284,132.67,282.44,132.67,280.76Z"/><path class="cls-5" d="M157.18,304.3c-.72-1-1.61-1.74-1.75-2.57A87,87,0,0,1,154,283.32l4.4.75c0,6.28,0,12.38,0,18.47C158.37,303,157.78,303.45,157.18,304.3Z"/><path class="cls-5" d="M226.14,295.6a16,16,0,0,1-2.36-3.13,44.52,44.52,0,0,1-3.51-18.41c2.81-.44,3.65,1.11,4,3.32q1.1,6.89,2.25,13.77c.21,1.25.47,2.5.7,3.74Z"/><path class="cls-5" d="M232.19,270.59c2.71.2,3.93,1.82,4.64,3.82a28.2,28.2,0,0,1,1.22,5.09c.63,4.14,1.15,8.29,1.86,13.53-1.48-1.39-2.55-2-2.94-2.85a38.28,38.28,0,0,1-2.46-7C233.59,279.14,233,275,232.19,270.59Z"/><path class="cls-5" d="M205.29,299.41c-4.31-2.94-6.21-11.37-4.86-19.34,2.24-.15,3.62.58,3.66,3.13s.25,5.26.44,7.89S205,296.27,205.29,299.41Z"/><path class="cls-5" d="M177.36,282.06c1.63-.11,3.37-.19,3.43,2.07.14,4.72,0,9.45,0,14.45C176.88,296.6,175.83,290.82,177.36,282.06Z"/><path class="cls-5" d="M243.22,284c-3.05-3.39-3.55-7.69-3.85-12.11,3.8-.13,3.81-.11,4,2.76s.55,6,.82,9Z"/><path class="cls-3" d="M239.37,123.51s-12.61,22.4-39.19,32.22-77.93,21.32-83.25,47.55l-3.8-88.09S212.82,101.06,239.37,123.51Z"/><path class="cls-4" d="M271.76,80.49c-.87,4.76-1.52,9.61-2.67,14.27-1.91,7.75-6.13,14-10.36,20-3.88,5.52-9.84,6.55-15.31,8.44-1.25.43-2.65.48-3.79,1.16-9.2,5.56-18.67,5.06-28.28,2a33.13,33.13,0,0,1-4.63-1.68c-7.67-3.75-15-2.23-21.92,2.42-7.27,4.86-15,6.17-22.92,3.82a72.89,72.89,0,0,1-14-6c-5.18-2.82-10.33-5-16.1-3.8a32.89,32.89,0,0,0-4.26,1.2c-5.31,1.9-10.51,4.52-15.93,5.59a24.11,24.11,0,0,1-12.13-1C84.59,121.88,76.73,107.6,77.63,89.7A45.51,45.51,0,0,1,88.68,62.31c1.24-1.45,2.12-3.72,3.58-4.44,7.27-3.59,14.24-8,22.17-9.75,7.37-1.6,14-.43,20.17,4.45,6.78,5.4,13.26,4.73,19.58-.8A46,46,0,0,1,171.1,42c10.44-3.21,19.7-1.2,27.84,7.54,1.91,2,3.47,4.86,6.51,4.91,4.44.08,8.74-.38,12.86-2.7A79.48,79.48,0,0,1,228.45,47,96.81,96.81,0,0,1,242,42.49c9.47-2.14,16.46,2.88,21.84,11.86A55.91,55.91,0,0,1,271.76,80.49Z"/><path class="cls-5" d="M129.44,113.67a19.49,19.49,0,0,1-3.74,1.3c-5.47.52-10.33,2.57-15.22,4.65a21.18,21.18,0,0,1-14.29.81c-5.16-1.45-9.73-7-10.08-12.16A30,30,0,0,1,88,94.82a8,8,0,0,1,4.69-4.38c2.23-1,3.56-.2,3.88,2.09.48,3.47.56,7,1.48,10.38a23.19,23.19,0,0,0,3.77,7.18c1.84,2.55,4.93,2.75,8,2.23,2.14-.36,4.2-1.11,6.33-1.49A17.58,17.58,0,0,1,129.44,113.67Z"/><path class="cls-5" d="M184,114.83a4.85,4.85,0,0,1-1.71,4.86,22.62,22.62,0,0,1-12.59,5.41c-4.46.4-8.41-1.69-11.84-4.4a20.18,20.18,0,0,1-7.39-10.7c-.39-1.49-.78-3,.14-4.47,1.59-2.64,3.79-3.06,5.93-.82,1.29,1.35,2.2,3,3.44,4.44a60.12,60.12,0,0,0,6.15,6.39c3.91,3.26,8.35,3.61,13,1.5Z"/><path class="cls-5" d="M240.3,56.92c4-.83,7.84-1.67,11.66-2.34a11.86,11.86,0,0,1,3.56.15c1.47.2,2.28,1.14,3,2.75a21.27,21.27,0,0,1,1.66,13.8c-1,4.6-3.5,7.24-7.68,8.37-.33-2.44.34-4.6.62-6.81a19.45,19.45,0,0,0,.38-5.28c-.62-3.9-2.93-5.56-6.9-5.85a17,17,0,0,1-5.08-1.17C239.62,59.77,239.68,59.6,240.3,56.92Z"/></g></g></svg>