<svg xmlns="http://www.w3.org/2000/svg" viewBox="0 0 360 360"><defs><style>.cls-1{fill:#cccdce;}.cls-2{fill:#b5d0e1;}.cls-3{fill:#009470;}.cls-4{fill:#808285;}.cls-5{fill:#e6e6e7;}.cls-6{fill:#b3b4b6;}.cls-7{fill:#606264;}.cls-8{fill:#f9f9f7;}.cls-9{fill:#e5eaea;}.cls-10{fill:#cbd5d5;}</style></defs><title>Icon_Event_Golf_03_3C</title><g id="Background"><g id="Layer_5" data-name="Layer 5"><path class="cls-1" d="M321.79,106.47c-.87,1.49-1.75,3-2.61,4.47-3.74,6.56-7.42,13.15-11.23,19.66-1.77,3-3.92,5.85-5.67,8.9-3.18,5.55-6.19,11.19-9.28,16.79a30.94,30.94,0,0,0-2.45,4.55c-.94,2.71-2.58,5-4,7.38a8.73,8.73,0,0,0-.68,1.15,9.75,9.75,0,0,0-.32,1.49,5.47,5.47,0,0,0,1.44-.48,5.15,5.15,0,0,0,1.16-1.26c2.19-3.38,4.36-6.77,6.53-10.16.53-.83.82-1.87,1.8-2.34l.49.2c-.11.66-.22,1.31-.34,2-.33,1.88-.79,3.75-1,5.65-.16,1.7.28,2.3,1.22,2.46s1.41-.36,2.12-1.85c1.91-4,3.78-8,5.81-11.89,1.41-2.72,3.12-5.29,4.56-8,2.21-4.18,4.3-8.44,6.45-12.65,1.89-3.7,3.72-7.44,5.74-11.06,1.32-2.36,2.78-4.65,4.22-7a50.32,50.32,0,0,0-3.32-9.11Z"/></g><circle id="_27.62.111" data-name="27.62.111" class="cls-2" cx="180" cy="180" r="180"/></g><g id="Layer_4" data-name="Layer 4"><path class="cls-3" d="M119.07,323s2.59.62,6.93,1.53c19.65,4.13,75.26,14.19,90-.56,18-18-18-36,0-54s72-18,72-18,36,0,18-18-90-36-90-36l-72,36Z"/></g><g id="Artwork"><path class="cls-4" d="M266.87,173.42a21.92,21.92,0,0,1-.32,3.8,6.66,6.66,0,0,0,1,5.47,19.21,19.21,0,0,0,12.89,8.9c3.37.68,6.82,1,10.23,1.49a9.4,9.4,0,0,0,1.7-.14c.47,0,.93,0,1.4,0l.18.42a8.14,8.14,0,0,1-.87,1.07c-3.49,3.09-6.7,6.48-10.54,9.19-1.58,1.12-2.74,2.83-4.13,4.24-.62.63-1.38,1.13-2,1.77-1.32,1.39-2.49,2.93-3.88,4.24-3.67,3.47-7.43,6.84-11.15,10.26l-9.74,9c-2,1.86-3.95,3.84-6.09,5.55-5.7,4.56-11.08,9.47-16.35,14.51A48,48,0,0,1,217,262a39.08,39.08,0,0,1-7.39,2.61c-3.41.85-6.89,1.44-10.35,2a82.24,82.24,0,0,1-21.78.87,163.13,163.13,0,0,1-22.26-4c-6.21-1.5-12.42-3.07-18.54-4.92-4.4-1.33-8.67-3.09-12.94-4.82-5.75-2.32-11.5-4.67-17.14-7.24a42.25,42.25,0,0,1-17.26-13.67c-4.91-6.87-8.57-14.36-9.6-22.95a59.53,59.53,0,0,1-.67-11.27,26.14,26.14,0,0,1,.35-2.85c1-5.53,2.06-11.06,3-16.6a62.94,62.94,0,0,1,7.86-21.3c3-5.1,6.15-10.17,9.06-15.35a18.07,18.07,0,0,1,6.86-6.52,37.75,37.75,0,0,1,9.66-4.11,44.21,44.21,0,0,1,10.92-1.37,50.17,50.17,0,0,1,21.06,4.4,189.87,189.87,0,0,1,25.84,13.85,95.52,95.52,0,0,1,9,6.56c5.73,4.6,11.29,9.42,17.06,14a114.17,114.17,0,0,1,12.36,11.2,85.37,85.37,0,0,1,13.4,18.4c1.87,3.49,3.67,7,5.55,10.51a23.78,23.78,0,0,0,1.78,2.73c1.15,1.58,1.69,1.61,3,.23.84-.88,1.65-1.79,2.46-2.7q7.36-8.23,13.88-17.13c3.56-4.84,7.29-9.56,10.88-14.38a28.22,28.22,0,0,0,2.25-4C265.61,173.68,265.74,173.1,266.87,173.42Z"/><path class="cls-5" d="M119.66,134s-9.54-1.09-17.26,10.07S89.21,166,86,178.79s-7.15,19.55-5,28.54,4.86,15.83,7.2,19.31l2.34,3.48L122.4,134Z"/><path class="cls-5" d="M126.52,130.46c.28-.19.55-.52.86-.56a12,12,0,0,1,2.86-.13q6.95.88,13.87,1.91a21.22,21.22,0,0,1,7.7,2.84c3.62,2.16,7.17,4.44,10.74,6.68,1.08.68,2.12,1.43,3.21,2.09,3.67,2.22,7.36,4.4,11,6.61,4,2.41,8,4.79,12,7.27A81.06,81.06,0,0,1,200,165.89a152,152,0,0,1,14.26,15,125.17,125.17,0,0,1,13.66,19.66,36.59,36.59,0,0,0,7,8.88c1.22,1.14,1.33,1.67.67,3.21a4.63,4.63,0,0,1-6.83,2.36,17.63,17.63,0,0,1-5.48-5.29c-1.74-2.37-3.28-4.88-4.89-7.34a99.72,99.72,0,0,0-9.47-12.3c-5-5.5-9.9-11-14.94-16.49-1.82-2-4-3.63-5.85-5.53a159.06,159.06,0,0,0-26.36-21c-4.07-2.65-8.12-5.36-12.41-7.63-4.11-2.18-8.48-3.89-12.79-5.67a42.35,42.35,0,0,0-4.83-1.23c-1.71-.47-3.39-1-5.09-1.56Z"/><path class="cls-6" d="M219.65,220.89a58.38,58.38,0,0,1-2.49,10.87,25.94,25.94,0,0,1-6.79,10.76c-2.07,2.07-3.95,4.37-6.47,5.94a84.57,84.57,0,0,1-8.33,5.06,36.23,36.23,0,0,1-14.79,3.64c-3.89.09-7.76.66-11.65.95a26.38,26.38,0,0,1-7.23-.61c-3.63-.74-7.31-1.24-11-1.77a59.13,59.13,0,0,1-18.74-6c-1.53-.79-3.17-1.37-4.73-2.1-2.08-1-4.19-1.91-6.18-3-4.55-2.6-9.09-5.23-13.54-8a75.09,75.09,0,0,1-8.15-5.7,8.28,8.28,0,0,1-2.86-7A49.89,49.89,0,0,1,99.36,210c1.85-5.45,3.42-11,5.21-16.46s3.63-10.79,5.55-16.14c2-5.53,4.19-11,6.12-16.52,2-5.8,3.83-11.66,5.7-17.51.37-1.15.62-2.35.88-3.54a3.41,3.41,0,0,1,1.73-2.38,9.81,9.81,0,0,1,4.73-1.39,37.22,37.22,0,0,1,21.86,6c3.17,2,6.56,3.72,9.81,5.64,4.79,2.82,9.66,5.55,13.87,9.24,2.45,2.15,4.7,4.52,7.07,6.75,1.58,1.49,3.19,3,4.83,4.38,4.38,3.78,8,8.22,11.87,12.52,2.21,2.48,4.51,4.89,6.82,7.28a71.08,71.08,0,0,1,10,13.33,30,30,0,0,1,4,10.94A75.74,75.74,0,0,1,219.65,220.89Z"/><path class="cls-7" d="M114.33,188.69c5.24,2.2,10.62,4.41,16,6.71s10.49,4.74,15.81,6.9a179.71,179.71,0,0,0,21,7.27,268.08,268.08,0,0,1,27,8.71c1.61.62,3.25,1.18,4.87,1.77a9.48,9.48,0,0,1,1.25.49c.57.3.95.85.54,1.4a1.78,1.78,0,0,1-1.39.66,10.68,10.68,0,0,1-2.11-.87c-6.66-2.63-13.39-5.08-20.25-7.15-5.08-1.53-10.15-3.1-15.24-4.59a182.43,182.43,0,0,1-25.17-9.81c-7.25-3.35-14.64-6.4-22-9.58a10,10,0,0,1-1.73-.82c-.3-.21-.42-.66-.62-1a7.39,7.39,0,0,1,1.18-.34A2.61,2.61,0,0,1,114.33,188.69Z"/><path class="cls-7" d="M114.69,182.55c.63-.65,1.32-.41,2-.17.9.33,1.77.73,2.67,1.08,4.7,1.84,9.43,3.62,14.11,5.54,2.9,1.19,5.67,2.68,8.57,3.85,5,2,10.14,3.93,15.24,5.82s10.45,3.82,15.71,5.65c6.76,2.37,13.55,4.67,20.32,7,2.12.73,4.25,1.4,6.37,2.13.71.24,1.61.4,1.39,1.47-.14.71-1,.91-2.13.5C188,211.67,177,208.36,166.31,204c-6.34-2.57-12.89-4.6-19.29-7-3.52-1.33-6.93-3-10.39-4.47-4-1.76-8.08-3.54-12.14-5.26-2.77-1.17-5.58-2.23-8.37-3.36C115.51,183.66,114.75,183.5,114.69,182.55Z"/><path class="cls-7" d="M108.63,196.51a1.4,1.4,0,0,1,2.09-.65c3,1.21,6,2.34,8.85,3.69,6.78,3.15,13.49,6.48,20.28,9.61a75.73,75.73,0,0,0,12.87,4.37c6.18,1.6,12.44,2.93,18.41,5.32,5.34,2.14,10.8,4,16.19,6,1.62.6,3.19,1.32,4.78,2a3,3,0,0,1,.34.17c.95.55,1.32,1.21.94,1.81-.57.9-1.29.54-2,.19a203.69,203.69,0,0,0-29.57-11.15c-3.79-1.15-7.66-2-11.5-3a78.46,78.46,0,0,1-14.19-5.25c-5.83-2.78-11.59-5.68-17.42-8.46-2.77-1.32-5.61-2.48-8.41-3.73C109.74,197.14,109.23,196.82,108.63,196.51Z"/><path class="cls-7" d="M117.56,175a91.48,91.48,0,0,1,8.44,3.63,76.31,76.31,0,0,0,15.77,6.44c2.51.73,5.12,1.14,7.66,1.79,4.71,1.21,9.49,2.2,14.06,3.82,5.84,2.07,11.5,4.65,17.23,7,2.77,1.16,5.52,2.38,8.28,3.57a8.52,8.52,0,0,1,1.55.75c.27.19.57.67.5.91s-.51.86-.82.88a3.67,3.67,0,0,1-1.82-.33,277.55,277.55,0,0,0-28.49-11.92A100,100,0,0,0,149,188.67c-5.5-1.25-11-2.49-16.18-4.75-1.88-.82-3.7-1.75-5.55-2.62l-10.07-4.7c-.54-.25-1.48-.34-1.12-1.21S117.24,174.91,117.56,175Z"/><path class="cls-7" d="M118.7,170.18a1.66,1.66,0,0,1,2.12-.48c1.77.53,3.52,1.16,5.28,1.74,8.21,2.73,15.93,6.66,24,9.61a122.17,122.17,0,0,0,12.33,3.62,184.43,184.43,0,0,1,20,6.08c.63.23,1.31.48,1,1.32s-1,.9-1.75.66-1.56-.58-2.35-.83c-5.18-1.63-10.3-3.53-15.58-4.79A123.09,123.09,0,0,1,140.06,179a204,204,0,0,0-19.91-8A10.06,10.06,0,0,1,118.7,170.18Z"/><path class="cls-7" d="M120.48,159.45a4.32,4.32,0,0,1,1.31-.19,15.62,15.62,0,0,1,2,.6c8.74,2.69,17.49,5.33,26.21,8.1,5.48,1.74,10.9,3.69,16.35,5.55l.18.07c.7.31,1.65.6,1.26,1.57s-1.28.48-2,.24c-6.47-2.22-12.92-4.5-19.41-6.65-8.07-2.68-16.17-5.27-24.24-7.91a15.19,15.19,0,0,1-1.77-.84Z"/><path class="cls-7" d="M153.13,166.47c-6.18-2.61-12.34-5.28-18.56-7.81-3.55-1.45-7.2-2.66-10.78-4a9.66,9.66,0,0,1-2-1.12c-.2-.14-.39-.68-.31-.78a1.94,1.94,0,0,1,.92-.44c.16,0,.36.09.54.16,3.77,1.41,7.55,2.8,11.31,4.23,2.09.79,4.21,1.55,6.23,2.49a131.7,131.7,0,0,0,17.8,6.54,13.93,13.93,0,0,1,2.16.78,1.08,1.08,0,0,1,.52.87,1.12,1.12,0,0,1-.76.7,3.41,3.41,0,0,1-1.5-.1c-1.84-.53-3.67-1.11-5.51-1.68Z"/><path class="cls-7" d="M124.76,146.19a24.62,24.62,0,0,1,2.55.63c4.08,1.47,8.15,3,12.22,4.47,1.14.42,2.27.84,3.4,1.28a6.5,6.5,0,0,1,1.37.65c.21.15.44.65.36.77a1.38,1.38,0,0,1-.88.52,2.49,2.49,0,0,1-1.1-.26q-8.59-3.51-17.17-7.05a8.1,8.1,0,0,1-1-.55Z"/><path class="cls-7" d="M104.89,214.85a1.72,1.72,0,0,1,2.35-.79q4.34,1.2,8.67,2.45c3.81,1.1,7.61,2.22,11.4,3.37s7.82,2.42,11.72,3.62c.61.19,1.23.36,1.85.49,8.43,1.83,16.86,3.68,25.3,5.47,3.31.7,6.65,1.28,10,1.95a6.39,6.39,0,0,1,1.8.61c.25.14.52.73.42.92a2.11,2.11,0,0,1-1,.68c-.14.07-.37-.06-.56-.1-8.32-1.76-16.65-3.45-24.95-5.29-5.8-1.29-11.6-2.63-17.32-4.24-6.09-1.71-12.07-3.79-18.11-5.66-2.87-.89-5.76-1.69-8.64-2.55C106.94,215.51,106,215.21,104.89,214.85Z"/><path class="cls-7" d="M109.63,227.66l2.76.38c8,1.19,15.65,3.82,23.4,6,5.91,1.68,11.86,3.2,17.77,4.86a155.8,155.8,0,0,0,16.24,3.83c.73.12,1.78.21,1.61,1.24s-1.21.71-1.91.55c-4.12-.91-8.26-1.77-12.34-2.84Q146.87,239,136.64,236c-4.85-1.4-9.64-3-14.48-4.45-3.74-1.1-7.52-2.07-11.29-3.09l-1.27-.34Z"/><path class="cls-6" d="M289.19,180.92c1.78,0,3.56.17,5.34.09a9,9,0,0,0,6.35-3.15c1.61-1.72,3-1.46,3.89.72,1.27,3.12.95,6-1.43,8.53a22.63,22.63,0,0,1-10.76,6.29,25,25,0,0,1-16-1.12,25.88,25.88,0,0,1-11.52-8.62A7.85,7.85,0,0,1,264,176a19.73,19.73,0,0,1,4.79-7.54,29.81,29.81,0,0,1,6.25-4.73,3.61,3.61,0,0,1,1.24-.48,1.16,1.16,0,0,1,1.5,1.26c0,.63-.26,1.25-.32,1.88-.18,2.16-.43,4.32-.46,6.48a4.54,4.54,0,0,0,2.17,3.85C282.22,178.86,285.38,180.61,289.19,180.92Z"/><path class="cls-1" d="M269.85,172.71s-2.06,7.16,2.06,8.47.06,5.67-2.2,4.35-3.16-8.31-3.16-8.31Z"/><path class="cls-8" d="M129.29,203.78a60.68,60.68,0,0,1,13.3,1.09,64.32,64.32,0,0,1,6.32,1.84,43.4,43.4,0,0,1,12.3,6.15c1.13.83,2.23,1.72,3.32,2.62A84.36,84.36,0,0,1,177,228.71a39,39,0,0,1,6.54,11.37,41.37,41.37,0,0,1,2.3,10.88c.18,2.87.54,5.73.67,8.6a37.28,37.28,0,0,1-1.21,10.74,9.07,9.07,0,0,0-.2,1.71,9.84,9.84,0,0,1-.8,3.49,34,34,0,0,0-1.06,3.6c-.62,2-1.24,4-1.92,6a59.47,59.47,0,0,1-6.11,12.2c-1.61,2.57-3.44,5-5.2,7.49a6.73,6.73,0,0,1-1,1c-1.23,1.13-2.45,2.3-3.73,3.37s-2.46,1.93-3.74,2.84c-1.62,1.15-3.32,2.19-4.92,3.38a35.37,35.37,0,0,1-8.11,4.09c-1.36.54-2.66,1.22-4,1.82a16.82,16.82,0,0,1-5.42,1.48c-2.29.2-4.56.59-6.84.9a46.82,46.82,0,0,1-12.38-.1,67.35,67.35,0,0,1-17.25-4.6,39.93,39.93,0,0,1-10.39-5.81,98.37,98.37,0,0,1-7.26-7c-1.39-1.42-2.59-3-3.85-4.56a41.56,41.56,0,0,1-7.1-13.22,37.47,37.47,0,0,0-1.39-3.67,47.19,47.19,0,0,1-2.28-6.84,36.18,36.18,0,0,1-1-7.13,69.62,69.62,0,0,1-.22-8,67.29,67.29,0,0,1,.78-8.44c.51-3.14,1.29-6.25,2-9.35a22,22,0,0,1,3.78-7.7c2.61-3.6,5.31-7.14,7.9-10.76a44.71,44.71,0,0,1,5.68-6.27c1.06-1,2.09-2.06,3.18-3a20.76,20.76,0,0,1,2.13-1.58c1.43-1,2.84-2,4.31-2.88a52.73,52.73,0,0,1,9.23-4c2.89-1.09,5.81-2.1,8.7-3.2a15.84,15.84,0,0,1,5.61-1.33C124.79,204.21,127,203.94,129.29,203.78Z"/><path class="cls-9" d="M184.34,243c.79,3.17,1.44,6.37,2.2,9.54.38,1.56.88,3.08,1.33,4.62a33.44,33.44,0,0,1,1.11,11c0,1.11-.17,2.21-.17,3.32a25.53,25.53,0,0,0,.25,2.6c.18,1.59-.52,3-.79,4.54-.39,2.18-.72,4.37-1.23,6.52a28.34,28.34,0,0,1-1.48,4.38c-.46,1.11-1.15,2.13-1.73,3.19a5.15,5.15,0,0,0-.61,1.36c-.73,3.72-3.23,6.28-5.66,8.95a49.57,49.57,0,0,1-8.61,7c-3.54,2.47-7.24,4.7-10.93,6.92a24.22,24.22,0,0,1-3.55,1.34,79.82,79.82,0,0,1-16,4.19c-1.68.3-3.36.59-5,.85a38.1,38.1,0,0,1-6.94.07c-2.49-.07-5-.29-7.46-.38-3.64-.14-6.9-1.54-10.11-3a79.13,79.13,0,0,1-9.79-5.62c-1-.63-2-1.12-3-1.67l.61,0,.11-.34-2.41-1.5c-1.42-1.27-2.88-2.51-4.26-3.83-1.58-1.51-3.08-3.1-4.63-4.65a11.13,11.13,0,0,0-.87-.72l.05,0a3.88,3.88,0,0,0-.44-.88c-2.31-2.62-3.46-5.91-5.05-8.93a6.8,6.8,0,0,0-.82-1.42,8.2,8.2,0,0,1-1.78-5.08A2.59,2.59,0,0,1,79,283a31.37,31.37,0,0,1,3.78.4,13,13,0,0,0,4.16.38l-1.76-1.7.16-.18c.37.3.73.6,1.11.89,1.44,1.07,2.36,1,3.38-.5,1.27-1.86,2.94-2,4.75-1.82a5,5,0,0,0,5.58-6.3,5.67,5.67,0,0,1-.16-1,6.78,6.78,0,0,1,.09-.94,5.09,5.09,0,0,1,3.57-1c.55.1,1.3-.47,1.84-.89a24.86,24.86,0,0,0,1.88-1.87,4.16,4.16,0,0,1,4.1-1.11,4.14,4.14,0,0,0,4.48-1.4,1.37,1.37,0,0,1,1.43-.61,11.75,11.75,0,0,1,3,.89,5.93,5.93,0,0,0,6.68-.53,6,6,0,0,0,1.39-1.42c1-1.71,2.75-1.91,4.52-1.11a5.89,5.89,0,0,0,4.68.24,9.61,9.61,0,0,0,6.16-5.86,7.76,7.76,0,0,0,.23-2.13c.06-1.24.31-1.7,1.44-1.86a5.76,5.76,0,0,0,3.61-1.77c1-1,2.29-.57,3.24,0,3.69,2.26,8-.66,9-4a5.73,5.73,0,0,0-.15-2.43c-.09-.55-.38-1.07.11-1.55"/><path class="cls-10" d="M111.31,288.32v0a6.51,6.51,0,0,0,3.55-1.88,8.14,8.14,0,0,0,1.59-6.81A3.16,3.16,0,0,0,113.1,277a7,7,0,0,1-2.63,0,1.33,1.33,0,0,0-1.06.5c-.61.76-1.12,1.6-1.69,2.44a3.2,3.2,0,0,1-.15-.33,5.26,5.26,0,0,0-6.67-3.36c-.29.1-.68.19-.82.41-1.15,1.74-2.35,3.47-2.51,5.65a2.24,2.24,0,0,0,.18,1.08,5.19,5.19,0,0,0,4.23,3.34c1.89.17,3.7-.15,4.44-2.34,0-.11.2-.18.36-.31a2.8,2.8,0,0,1,.27.62,3.67,3.67,0,0,0,1.56,2.61,3.1,3.1,0,0,1,.57.74l.17.18A1.42,1.42,0,0,0,111.31,288.32Z"/><path class="cls-10" d="M171.34,255.32a4.09,4.09,0,0,0,3,.56,2.85,2.85,0,0,0,2.54-2,26.52,26.52,0,0,0,.47-2.78,3.16,3.16,0,0,0-1.66-3.28,5.08,5.08,0,0,0-4.66-.45,3.2,3.2,0,0,0-2.39,3.73,5.47,5.47,0,0,0,2.76,4.3l-1.38-.33,0,.2,1.14.86-.11.31c-.53-.11-1.07-.18-1.59-.33-1.3-.37-1.73-.24-2.53.85a5.65,5.65,0,0,0,0,6.08,3.12,3.12,0,0,0,2.75,1.51c.52,0,1,0,1.57,0a2.3,2.3,0,0,0,2.22-1.46c.1-.19.16-.39.25-.58,1.15-2.59.95-3.66-1-5.63C172.19,256.38,171.78,255.84,171.34,255.32Z"/><path class="cls-10" d="M117.56,282l0,0a2.58,2.58,0,0,0,3.32,1.81,11.18,11.18,0,0,0,5.74-2.72l.06-.1a2.78,2.78,0,0,0,1-3.61c1.4,1.5,3.14,2.87,4.54,2.83a15.32,15.32,0,0,0,5.11-1.1c1.72-.69,2.19-2.49,2.53-4.27a21.16,21.16,0,0,0,2.5,2.12,19.86,19.86,0,0,0,3,1.21l-1.92.09a.93.93,0,0,0,.6.32c3.22.28,6.86-3,7.08-6.2.13-2-.91-3.38-2-4.8a3.74,3.74,0,0,0-2.53-1.41,6.08,6.08,0,0,0-3.48.64l-2.32,1L139,270.84a8.09,8.09,0,0,0-.83-1.06,3.38,3.38,0,0,0-1.36-1,22.14,22.14,0,0,0-3.42-.32,1.67,1.67,0,0,0-1,.3c-1.18.92-2.31,1.91-3.47,2.86a3.51,3.51,0,0,1-.78.49c-1.06.47-1.16.65-1,1.76.07.53.13,1.07.21,1.7-.22-.1-.29-.11-.31-.14a3.58,3.58,0,0,1-.28-.56,4,4,0,0,0-2.7-2.62,4.89,4.89,0,0,1-1.11-.56,2.74,2.74,0,0,0-2.83-.24c-3,1.39-4.17,2.91-3.62,6.28C116.7,279.18,117.18,280.57,117.56,282Z"/><path class="cls-10" d="M143.88,259.05a11.11,11.11,0,0,0-.88-1.28,4.39,4.39,0,0,0-3.9-1.62,17,17,0,0,0-3.22.7c-1.21.43-2.62.82-2.81,2.41a14.36,14.36,0,0,0-.1,3.6c.4,3,2.77,5.23,6.2,4.2a21.7,21.7,0,0,0,2.52-.86,4.07,4.07,0,0,0,2.76-3.15,7.35,7.35,0,0,1,.44-1.2,7.35,7.35,0,0,1,.62,1.11c1.06,3.34,5.41,4.08,7.71,2.51,1.15-.79,2.27-1.63,3.49-2.52a8.17,8.17,0,0,0,1.31.4c.81.13,1.64.13,2.46.24,1.81.24,4.2-1.07,4.69-2.76a7.17,7.17,0,0,0-.41-5.65,3.27,3.27,0,0,0-2.63-2,6.49,6.49,0,0,0-3.94.74c-1.07.71-2.06,1.55-3.16,2.38-1-1.27-2.57-1.49-4-1.91a3.33,3.33,0,0,0-3.61.9c-.43.46-.9.88-1.33,1.34C145.37,257.37,144.69,258.14,143.88,259.05Z"/><path class="cls-10" d="M115.54,262.42a9.18,9.18,0,0,0-5.39,2.94c-1.43,1.38-1.43,2.92-.9,4.61.28.89.7,1.75,1,2.64a2.38,2.38,0,0,0,1.77,1.62,4.16,4.16,0,0,0,4.22-1,13.88,13.88,0,0,0,3.42-5.14C120.82,264.39,118.32,262.45,115.54,262.42Z"/><path class="cls-10" d="M104,293.4c-.27-1-.48-2-.83-3-1.15-3.13-3.57-3.89-6.32-2l-.13.09a24.38,24.38,0,0,1-2.17,1.23,1.09,1.09,0,0,0-.78,1.33c.3,1.64.53,3.31.9,4.94a3.12,3.12,0,0,0,3.8,2.44c.41-.07.82-.15,1.23-.23C102.36,297.66,103.68,296.15,104,293.4Z"/><path class="cls-10" d="M168.09,247.68c.2-2.72-1.61-3.29-3.58-3.25a7.35,7.35,0,0,0-2.48.85c-.37.16-.66.52-1,.7a2.67,2.67,0,0,0-1.3,3.61,6.16,6.16,0,0,0,3.88,3.22,2.71,2.71,0,0,0,3.05-.94A6.11,6.11,0,0,0,168.09,247.68Z"/><path class="cls-10" d="M156.5,282.23c-.32.12-.52.13-.57.22a8.89,8.89,0,0,1-3,3,4,4,0,0,1-5-.21,1.15,1.15,0,0,0-1.52-.21c2.12,2.2,4.12,2.16,6.54,1.27A5.38,5.38,0,0,0,156.5,282.23Z"/><path class="cls-10" d="M126.58,281a11.18,11.18,0,0,1-5.74,2.72,2.58,2.58,0,0,1-3.32-1.8c1.54,1.47,1.76,1.57,2.85,1.26l-2.7-1.64-.12.43c-.37-1.41-.86-2.81-1.1-4.24-.55-3.37.67-4.89,3.62-6.28a2.74,2.74,0,0,1,2.83.24,4.89,4.89,0,0,0,1.11.56,4,4,0,0,1,2.7,2.62,3.58,3.58,0,0,0,.28.56s.09,0,.31.14c-.08-.63-.14-1.16-.21-1.7-.15-1.11,0-1.29,1-1.76a3.51,3.51,0,0,0,.78-.49c1.16-1,2.29-1.94,3.47-2.86a1.67,1.67,0,0,1,1-.3,22.14,22.14,0,0,1,3.42.32,3.38,3.38,0,0,1,1.36,1,8.09,8.09,0,0,1,.83,1.06l1.77-3.14,2.32-1a6.08,6.08,0,0,1,3.48-.64,3.74,3.74,0,0,1,2.53,1.41c1.07,1.42,2.11,2.82,2,4.8-.21,3.22-3.85,6.49-7.08,6.2a.93.93,0,0,1-.6-.32l1.92-.09a19.86,19.86,0,0,1-3-1.21,21.16,21.16,0,0,1-2.5-2.12c-.34,1.79-.81,3.59-2.53,4.27a15.32,15.32,0,0,1-5.11,1.1c-1.4,0-3.14-1.33-4.54-2.83a2.78,2.78,0,0,1-1,3.61c.47-.84,1-1.67.46-2.85-.35.91-.66,1.67-.94,2.44C126,280.87,126.07,281.16,126.58,281Z"/><path class="cls-10" d="M143.88,259.05c.81-.91,1.49-1.68,2.19-2.44.43-.46.9-.88,1.33-1.34a3.33,3.33,0,0,1,3.61-.9c1.44.42,3,.64,4,1.91,1.1-.83,2.09-1.67,3.16-2.38a6.49,6.49,0,0,1,3.94-.74,3.27,3.27,0,0,1,2.63,2,7.17,7.17,0,0,1,.41,5.65c-.48,1.69-2.87,3-4.69,2.76-.82-.11-1.64-.12-2.46-.24a8.17,8.17,0,0,1-1.31-.4c-1.22.88-2.33,1.73-3.49,2.52-2.3,1.57-6.65.82-7.71-2.51a7.35,7.35,0,0,0-.62-1.11,7.35,7.35,0,0,0-.44,1.2,4.07,4.07,0,0,1-2.76,3.15,21.7,21.7,0,0,1-2.52.86c-3.43,1-5.79-1.21-6.2-4.2a14.36,14.36,0,0,1,.1-3.6c.19-1.59,1.6-2,2.81-2.41a17,17,0,0,1,3.22-.7,4.39,4.39,0,0,1,3.9,1.62A11.11,11.11,0,0,1,143.88,259.05Zm13,2.92-.15.18.67.55.15-.19Z"/><path class="cls-10" d="M109.19,288a3.1,3.1,0,0,0-.57-.74,3.67,3.67,0,0,1-1.56-2.61,2.8,2.8,0,0,0-.27-.62c-.15.13-.32.2-.36.31-.74,2.19-2.55,2.51-4.44,2.34a5.19,5.19,0,0,1-4.23-3.34,2.24,2.24,0,0,1-.18-1.08c.16-2.18,1.36-3.91,2.51-5.65.15-.22.53-.32.82-.41a5.26,5.26,0,0,1,6.67,3.36,3.2,3.2,0,0,0,.15.33c.57-.84,1.07-1.69,1.69-2.44a1.33,1.33,0,0,1,1.06-.5,7,7,0,0,0,2.63,0,3.16,3.16,0,0,1,3.34,2.71,8.14,8.14,0,0,1-1.59,6.81,6.51,6.51,0,0,1-3.55,1.88c-.57-.21-1.14-.44-1.72-.62C109.48,287.72,109.32,287.9,109.19,288Z"/><path class="cls-10" d="M115.54,262.42c2.77,0,5.27,2,4.12,5.64a13.88,13.88,0,0,1-3.42,5.14,4.16,4.16,0,0,1-4.22,1,2.38,2.38,0,0,1-1.77-1.62c-.3-.89-.71-1.74-1-2.64-.54-1.68-.53-3.23.9-4.61A9.18,9.18,0,0,1,115.54,262.42Z"/><path class="cls-10" d="M104,293.4c-.28,2.75-1.59,4.26-4.29,4.77-.41.08-.82.17-1.23.23a3.12,3.12,0,0,1-3.8-2.44c-.37-1.63-.59-3.29-.9-4.94a1.09,1.09,0,0,1,.78-1.33,24.38,24.38,0,0,0,2.17-1.23l.13-.09c2.76-1.86,5.18-1.1,6.32,2C103.48,291.38,103.68,292.4,104,293.4Z"/><path class="cls-10" d="M171.4,255.38a5.47,5.47,0,0,1-2.76-4.3,3.2,3.2,0,0,1,2.39-3.73,5.08,5.08,0,0,1,4.66.45,3.16,3.16,0,0,1,1.66,3.28,26.52,26.52,0,0,1-.47,2.78,2.85,2.85,0,0,1-2.54,2,4.09,4.09,0,0,1-3-.56Z"/><path class="cls-10" d="M171.4,255.38l-.07-.06c.44.52.86,1.06,1.33,1.54,2,2,2.16,3,1,5.63-.08.19-.15.39-.25.58a2.3,2.3,0,0,1-2.22,1.46c-.52,0-1,0-1.57,0a3.12,3.12,0,0,1-2.75-1.51,5.65,5.65,0,0,1,0-6.08c.81-1.09,1.23-1.22,2.53-.85.52.15,1.06.22,1.59.33l.11-.31-1.14-.86,0-.2Z"/><path class="cls-10" d="M168.09,247.68a6.11,6.11,0,0,1-1.46,4.2,2.71,2.71,0,0,1-3.05.94,6.16,6.16,0,0,1-3.88-3.22A2.67,2.67,0,0,1,161,246c.37-.18.65-.54,1-.7a7.35,7.35,0,0,1,2.48-.85C166.47,244.39,168.29,245,168.09,247.68Z"/><path class="cls-10" d="M156.5,282.23a5.38,5.38,0,0,1-3.47,4c-2.42.9-4.42.93-6.54-1.27a1.15,1.15,0,0,1,1.52.21,4,4,0,0,0,5,.21,8.89,8.89,0,0,0,3-3C156,282.35,156.19,282.34,156.5,282.23Z"/><path class="cls-10" d="M109.19,288c.13-.08.29-.26.39-.23.58.18,1.15.41,1.72.62v0l-2-.17Z"/><path class="cls-10" d="M109.36,288.16l2,.17A1.42,1.42,0,0,1,109.36,288.16Z"/><path class="cls-10" d="M156.91,262l.68.54-.15.19-.67-.55Z"/><path class="cls-4" d="M334.87,88.26c-1.23,2-2.46,3.93-3.59,5.94-2,3.62-3.85,7.36-5.74,11.06-2.16,4.21-4.24,8.47-6.45,12.65-1.43,2.71-3.15,5.27-4.56,8-2,3.92-3.9,7.91-5.81,11.89-.71,1.49-1.23,2-2.12,1.85s-1.38-.76-1.22-2.46c.18-1.9.63-3.77,1-5.65.12-.66.23-1.31.34-2l-.49-.2c-1,.46-1.27,1.51-1.8,2.34-2.18,3.39-4.34,6.79-6.53,10.16a5.15,5.15,0,0,1-1.16,1.26,5.47,5.47,0,0,1-1.44.48,9.75,9.75,0,0,1,.32-1.49,8.74,8.74,0,0,1,.68-1.15c1.46-2.4,3.1-4.67,4-7.38a30.94,30.94,0,0,1,2.45-4.55c3.08-5.6,6.09-11.25,9.28-16.79,1.75-3,3.9-5.86,5.67-8.9,3.81-6.52,7.49-13.11,11.23-19.66.49-.86,1-1.7,1.49-2.55q-1.49-2.26-3-4.47c-7,10.9-14,21.71-14.26,22.15-.71,1.29-1.45,2.56-2.11,3.87-2.61,5.2-5.2,10.41-7.8,15.61-.51,1-1,2.06-1.58,3.07-2.66,4.89-5.53,9.68-7.94,14.68-4.2,8.73-9.59,16.76-14.48,25.08-1.36,2.31-2.89,4.52-2.88,7.38,0,1.66-.22,3.32-.19,5a9.54,9.54,0,0,0,4.24,8.17,14,14,0,0,0,7.61,2.27c4.5.17,8.48-1.56,12.33-3.68a10.36,10.36,0,0,0,3.82-3.38c1.54-2.35,3.18-4.64,4.75-7,2.55-3.75,5.11-7.5,7.61-11.29,1.3-2,2.47-4,3.71-6.05,1.69-2.78,15.34-24.13,26.22-41.19A179.42,179.42,0,0,0,334.87,88.26Z"/><path class="cls-1" d="M317.71,103.35c-1.77,3-3.92,5.85-5.67,8.9-3.18,5.55-6.19,11.19-9.28,16.79a30.94,30.94,0,0,0-2.45,4.55c-.94,2.71-2.58,5-4,7.38a8.74,8.74,0,0,0-.68,1.15,9.75,9.75,0,0,0-.32,1.49,5.47,5.47,0,0,0,1.44-.48,5.15,5.15,0,0,0,1.16-1.26c2.19-3.38,4.36-6.77,6.53-10.16.53-.83.82-1.87,1.8-2.34l.49.2c-.11.66-.22,1.31-.34,2-.33,1.88-.79,3.75-1,5.65-.16,1.7.28,2.3,1.22,2.46s1.41-.36,2.12-1.85c1.91-4,3.78-8,5.81-11.89,1.41-2.72,3.12-5.29,4.56-8,2.21-4.18,4.3-8.44,6.45-12.65,1.89-3.7,3.72-7.44,5.74-11.06,1.13-2,2.36-4,3.59-5.94q-2.14-3.61-4.45-7.12c-.5.85-1,1.7-1.49,2.55C325.2,90.25,321.52,96.84,317.71,103.35Z"/></g></svg>