<svg xmlns="http://www.w3.org/2000/svg" viewBox="0 0 360 360"><defs><style>.cls-1{isolation:isolate;}.cls-2{fill:#4cc1bb;}.cls-3,.cls-4{fill:#b5d0e1;}.cls-10,.cls-11,.cls-4{mix-blend-mode:multiply;}.cls-5{fill:#fff;}.cls-6{fill:#003e6b;}.cls-7{fill:#414042;}.cls-10,.cls-8{fill:#dfe3eb;}.cls-9{fill:#9d6b51;}.cls-12{fill:#624f37;}.cls-13{fill:#f43662;}.cls-14{fill:#4d4d4d;}.cls-15{fill:#151a16;}.cls-16{fill:#231f20;}</style></defs><title>Icons_Careers_03_3C</title><g class="cls-1"><g id="Background"><circle id="_76.193.187" data-name="76.193.187" class="cls-2" cx="180" cy="180" r="180"/><circle id="_27.62.111" data-name="27.62.111" class="cls-3" cx="180" cy="180" r="180"/></g><g id="Artwork"><path class="cls-4" d="M247.2,301.52c6.47,2.45,20.38-12,14.85-17.07s-18-9.16-27.08-9.16-22.15,3.07-38.83,0-36.57.1-52.44,3.63S123,275.47,121,285.37s3.71,19.43,12.68,21.23,11.55,4.67,18.78,3.77c5.6-.7,25.64,1.11,33,0s25.81-5.77,32.12-6.45S231.18,295.45,247.2,301.52Z"/><path class="cls-5" d="M119.85,253.49c1-.25,1.94-.55,2.9-.71,3.4-.57,6.81-1.12,10.22-1.6,1-.14,2.09,0,3.13,0,.67,0,1,.35,1.4.94a6.32,6.32,0,0,1,.69,3.9c-.48,5.81-.9,11.63-1.55,17.41-.54,4.81-1.4,9.57-2.07,14.36-.21,1.51-.25,3.06-.42,4.58-.28,2.5-.64,5-.88,7.48a11.82,11.82,0,0,0,.11,2.93,6.45,6.45,0,0,1-1.12,5.15,4.61,4.61,0,0,1-.82.82c-.69.54-1.41,1-2.1,1.58a6.43,6.43,0,0,1-4.86,1.56c-1-.11-3.35.67-3.5-.49-.18-1.42,2-4,2.68-5.19a32.79,32.79,0,0,1,2.57-3.95,2.87,2.87,0,0,0,.63-2.47c-.23-1.5-.39-3-.62-4.53q-1.71-11.26-3.44-22.51c-.4-2.6-.86-5.19-1.3-7.78a4.53,4.53,0,0,0-.36-1.59c-.91-1.39-.83-3-.86-4.57S120,255.49,119.85,253.49Z"/><path class="cls-5" d="M148.92,311.37a19.28,19.28,0,0,1-2.94-1,19.69,19.69,0,0,1-6.3-4.68c-1.07-1.25-2-2.57-1.56-4.53a.94.94,0,0,0,0-.53c-1.07-2.19-1.18-4.7-1.6-7.09-.62-3.55-.93-7.18-1.48-10.75-1.2-7.8-1-15.71-1.31-23.57-.08-1.7,0-3.42,0-5.12a1.54,1.54,0,0,1,1.09-1.56c4-1.29,8.07-.87,12.12-.7,1.79.07,2.54,1.22,2.59,3.29.15,6.07-.72,12-1.57,17.95q-1.44,10.08-2.85,20.18c-.23,1.64-.45,3.28-.71,4.91a3.78,3.78,0,0,0,.48,2.61,8,8,0,0,1,3,3.33c.67,1.31.41,3.19,1,4.58A3.32,3.32,0,0,1,148.92,311.37Z"/><path class="cls-6" d="M152.44,254.37c-1.22.11-2.46.15-3.68.27-1.77.17-3.53.46-5.3.58-4.16.27-8.33.45-12.5.71-1,.07-2.06.34-3.09.49a6.39,6.39,0,0,1-2,.19,13.68,13.68,0,0,0-4.75.28,16.82,16.82,0,0,1-3.48,0,1.31,1.31,0,0,1-.9-.55,9,9,0,0,1-1.35-2.55c-1.14-4.85-2.06-9.76-3.25-14.59-1-3.94-2.23-7.81-3.35-11.72-1.59-5.56-3.43-11.07-4.66-16.71-1.35-6.18-2.26-12.48-3.12-18.75a27.81,27.81,0,0,1,.54-8.64c.81-4.54,1.3-9.15,2.31-13.64.89-3.95,2.27-7.79,3.48-11.66a41.39,41.39,0,0,1,1.57-4.33,28.57,28.57,0,0,1,2-3.71,2,2,0,0,1,1.24-.68c1.21-.2,2.44-.29,3.66-.42,4.28-.46,8.55-1,12.85-1.33,4.47-.29,9-.88,13.45-.34.84.1,1.74-.17,2.57,0a10.35,10.35,0,0,1,2.22,1c1.66,3.36,3.42,6.81,5.06,10.31a45.72,45.72,0,0,1,1.88,5c1,3.15,2.1,6.31,3,9.5.82,2.83,2.23,5.48,2.51,8.46a61.49,61.49,0,0,1,.45,11.41c-.46,5-.83,9.93-1.28,14.89-.72,7.9-1.39,15.81-2.27,23.69-.5,4.51-1.38,9-2.1,13.47-.33,2.06-.65,4.12-1,6.18a1.92,1.92,0,0,0,1.12,2.43A4.36,4.36,0,0,1,152.44,254.37Z"/><path class="cls-7" d="M136.88,297.91c1.5,1,1.67,2.5,2.57,3.41s1.86,1.93,2.83,2.84a29.59,29.59,0,0,0,2.88,2.49,12.89,12.89,0,0,0,3.63,1.83L146,301.35a2.26,2.26,0,0,1,2.19,1,23.38,23.38,0,0,0,3.86,4,61.42,61.42,0,0,1,4.58,5.25,5,5,0,0,1,.55,1.48,7.07,7.07,0,0,1-6.38,1.53c-1.68-.45-3.38-.79-5.08-1.16a11.37,11.37,0,0,1-4.88-2.93c-.84-.72-1.62-1.49-2.43-2.24-1.82-1.7-3.1-3.71-2.81-6.28A22.68,22.68,0,0,1,136.88,297.91Z"/><path class="cls-7" d="M125.13,304.62l-3.71,6.64.31.35c3.11-1,6.36-1.64,8.79-4.23.74-.79,1.35-1.71,2.1-2.49.59-.61,1.06-1.54,2.18-1.29a2.9,2.9,0,0,1,.57,2.73,12,12,0,0,1-1.69,3.27,14.66,14.66,0,0,1-5.4,4.66c-3.43,2.17-8.37,4.73-12.26,2.81-3.41-1.36-1.89-1.76-1-3.37a38.51,38.51,0,0,1,3.11-4.17,19.76,19.76,0,0,1,3.39-3.47C122.55,305.27,123.65,303.71,125.13,304.62Z"/><path class="cls-8" d="M106.6,203.69S98,227.3,97.5,228.17s-3.17.65-3.17.65S84.15,226,78,223.94s-13.32-3.9-16.25-5.42-3.79-3.31-4.12-3.39,1.73-6.9,4.12-9.71,7.58-12.78,7.69-13.1,1.52,1.26,4.44,2.09,12.67,4,15.27,4.3,8.56,2.82,11,3.47S106.6,203.69,106.6,203.69Z"/><path class="cls-5" d="M108,202.8s-8.63,23.61-9.1,24.48-3.17.65-3.17.65S85.58,225.11,79.41,223s-13.32-3.9-16.25-5.42-3.79-3.31-4.12-3.39,1.73-6.9,4.12-9.71,7.58-12.78,7.69-13.1,1.52,1.26,4.44,2.09,12.67,4,15.27,4.3,8.56,2.82,11,3.47S108,202.8,108,202.8Z"/><path class="cls-8" d="M75,195.42a61.85,61.85,0,0,0-5.89,10.66c-.67,1.56-1.29,3.14-2,4.68a19.23,19.23,0,0,1-1.27,2C65.78,208.94,72,197.32,75,195.42Z"/><path class="cls-8" d="M77.32,197.77c-2.75,5.69-4.54,11.85-8,17.16A77,77,0,0,1,77.32,197.77Z"/><path class="cls-8" d="M79.57,198.34c-1.15,6.07-2.58,12-6.26,17.15C76.08,210,77.47,204.05,79.57,198.34Z"/><path class="cls-8" d="M87.2,199.63a61.85,61.85,0,0,0-5.89,10.66c-.67,1.56-1.29,3.14-2,4.68A19.23,19.23,0,0,1,78,217C77.94,213.15,84.14,201.52,87.2,199.63Z"/><path class="cls-8" d="M89.49,202c-2.75,5.69-4.54,11.85-8,17.16A77,77,0,0,1,89.49,202Z"/><path class="cls-8" d="M91.73,202.55c-1.15,6.07-2.58,12-6.26,17.15C88.24,214.24,89.63,208.26,91.73,202.55Z"/><path class="cls-8" d="M99.11,202.76a61.85,61.85,0,0,0-5.89,10.66c-.67,1.56-1.29,3.14-2,4.68a19.23,19.23,0,0,1-1.27,2C89.85,216.28,96,204.66,99.11,202.76Z"/><path class="cls-8" d="M101.39,205.11c-2.75,5.69-4.54,11.85-8,17.16A77,77,0,0,1,101.39,205.11Z"/><path class="cls-5" d="M87.59,208.66c1.53-.45,1.69-8.93,3.68-10.32.68,1.76,0,4.5.67,6a1.78,1.78,0,0,0,1.09,1c.73.13,1.22-.46,1.39-1.18a13.61,13.61,0,0,0,.4-2.44q.21-3.62.3-7.24a4.33,4.33,0,0,0-1.53-3.62,29.62,29.62,0,0,0-3.23-2.34c-1.78-1.1-1.38-.08-2.53,1.75s-2.42,3.69-3.89,6.2c-3,5.07-1.73,5.16-.7,8.6a12,12,0,0,0,.58,1.54C84.76,208.55,85.27,208.84,87.59,208.66Z"/><path class="cls-5" d="M89.63,182.16s-.15,5-1,7.2l5.12,2a44.07,44.07,0,0,1,.56-7.27l.56-2.38Z"/><polygon class="cls-5" points="91.27 198.34 91.45 204.43 92.64 205.78 94.64 205.27 95.29 201.53 95.29 199.14 91.27 198.34"/><path class="cls-5" d="M184.54,203.52c-1.67-.1-3.62-8.35-6-9.27-.33,1.87.92,4.4.56,6a1.86,1.86,0,0,1-.93,1.17,1.35,1.35,0,0,1-1.69-.85,12.94,12.94,0,0,1-.93-2.3q-1-3.49-1.83-7a4.22,4.22,0,0,1,.82-3.87,31.31,31.31,0,0,1,2.85-3c1.61-1.47,1.41-.39,3,1.14s3.28,3.07,5.32,5.2c4.13,4.29,2.87,4.66,2.52,8.25a11.55,11.55,0,0,1-.27,1.63C187.44,202.78,187,203.18,184.54,203.52Z"/><path class="cls-5" d="M176.87,178.06s1.21,4.89,2.57,6.81L174.57,188a41.74,41.74,0,0,0-2.11-7l-1.08-2.2Z"/><path class="cls-9" d="M149,58.4a17.68,17.68,0,0,1-1.59,7.7c-.52,1.1-.85,2.29-1.31,3.42a9,9,0,0,1-4,4.2,6.27,6.27,0,0,1-4,.68,16.57,16.57,0,0,0-6.57.39,17.87,17.87,0,0,1-5.27.3,69,69,0,0,0-7.17,0c-1.41,0-2.83,0-4.24,0a7.28,7.28,0,0,1-5-2c-6.49-6.09-8.49-14.46-5.28-22.33a25.15,25.15,0,0,1,2.45-4.33c1-1.53,2.23-2.94,3.3-4.44a16.76,16.76,0,0,1,5.24-4.86c2.55-1.47,4.94-3.22,7.82-4.08a9.74,9.74,0,0,1,5.07-.5,3.89,3.89,0,0,0,1.45,0,12.41,12.41,0,0,1,13.46,7.13q2,4.27,3.69,8.65a28.47,28.47,0,0,1,1.49,4.93A51.38,51.38,0,0,1,149,58.4Z"/><path class="cls-5" d="M112,59.48a13.48,13.48,0,0,0,.77-5.14,5.8,5.8,0,0,1,1.06-3.65,14.78,14.78,0,0,1,9.7-6.81c3.19-.68,6.37-1.34,9.69-.86a13.07,13.07,0,0,1,11.34,11.64c.22,1.57.17,3.17.25,4.78,1,.32,2.1-.28,3,.54s1.36,1.27,1,2.43a10.08,10.08,0,0,1-4.7,6.07,2.69,2.69,0,0,0-1.64,2.05c-.36,2.42-1.62,4.48-2.67,6.62a9.33,9.33,0,0,1-4.43,4,15.08,15.08,0,0,1-8.59,1.49A11.15,11.15,0,0,1,119,77.77a71.72,71.72,0,0,1-4.5-7.39,3.55,3.55,0,0,0-1.26-1.47,15.73,15.73,0,0,1-5.81-6.53,2.29,2.29,0,0,1,.44-2.57,2.17,2.17,0,0,1,2.29-.86C110.78,59.07,111.34,59.28,112,59.48Z"/><path class="cls-9" d="M118.52,52.89c-2.27,1.53-4.33,4-7.81,2.73a4.17,4.17,0,0,1,.68-2.8,3.49,3.49,0,0,0,.53-1c1.17-3.45,3.82-5.52,6.86-7.16s6-3.25,9.05-4.6,6.22-2,9.42-.23a9.28,9.28,0,0,1,3.93,3.79c1.23,2.4,2.64,4.74,3.2,7.43.24,1.14.43,2.29.62,3.44s.32,2.14.51,3.37a2.37,2.37,0,0,1-1.87-1.38c-.37-1-1.18-1.43-1.89-2.08a18.44,18.44,0,0,1-2.16-2.87c-2.68-.36-2.36-3.17-3.61-5l-2.75,2.69A28,28,0,0,1,131,51.4c-1.11.86-2.36,1.39-3.74.54-.57-.36-1-.09-1.53.13a19.9,19.9,0,0,1-4.12,1.44C120.71,53.66,119.72,53.16,118.52,52.89Z"/><path class="cls-5" d="M135.21,91.93c-1,1.58-1.93,3.06-2.82,4.59-1.83,3.13-3.6,6.3-5.46,9.42a31.85,31.85,0,0,1-2.24,2.89c-.36-.78-.79-1.25-.7-1.56.55-1.73-.36-3.13-1-4.57q-2-4.75-4.18-9.44a3.5,3.5,0,0,1,0-3.12c.85-2,1.49-4,2.19-6.06.46-1.33.89-2.68,1.32-4a1.34,1.34,0,0,1,1.37-1c.68,0,1.36,0,2,0l4.22.09c1.47,0,1.56.34,1.77,1.76a40.84,40.84,0,0,0,2.49,10C134.39,91.24,134.8,91.5,135.21,91.93Z"/><path class="cls-8" d="M179.14,176.36l1.56,7.59a3.77,3.77,0,0,1-1,.68q-4.11,1.37-8.26,2.62a5.6,5.6,0,0,1-2,.19c-1.29-.1-1.84-.76-2.23-2s-1.05-2.77-.34-4.22c2.05-.82,4.14-1.55,6.14-2.49a25.08,25.08,0,0,0,3.37-2.2A2.54,2.54,0,0,1,179.14,176.36Z"/><path class="cls-8" d="M97.37,188.76c-2.73,0-5.22.12-7.7,0a28.33,28.33,0,0,1-4.87-.95,2,2,0,0,1-1.2-2.08c.3-1.94.68-3.87,1.07-6a4,4,0,0,1,1.55.18,9.84,9.84,0,0,0,4.45,1c1.59.15,3.19.2,4.78.36s1.7.51,2,2.15A13.64,13.64,0,0,1,97.37,188.76Z"/><path class="cls-8" d="M150.6,137a12.6,12.6,0,0,0-.83,1.56c-.78,2.14-1.45,4.31-2.29,6.42a3,3,0,0,1-1.45,1.56c-3.38,1.29-6.61,3-10.27,3.54a21.6,21.6,0,0,1-5.3-.09c-4.27-.43-8.52-1.29-12.86-.78a40.53,40.53,0,0,1-5.69.22,5.82,5.82,0,0,1-5-2.83c-2.44-3.46-3-7.33-3.66-11.28a18.26,18.26,0,0,0-.8-3.5,4.08,4.08,0,0,0-.35.84c-.42,2.42-1,4.84-1.2,7.28-.46,5-.84,10-1.06,15.07-.17,3.74-.09,7.5,0,11.25.06,2.71.34,5.41.45,8.11a15.85,15.85,0,0,1-.1,4.22c-.55,2.35-1.57,3.86-4.56,3.95a23.06,23.06,0,0,1-6.7-1.14,9.1,9.1,0,0,1-4.3-2.74,3.78,3.78,0,0,1-1-3.2c.51-4.71,1-9.43,1.47-14.14.32-2.88.72-5.74,1.09-8.61.74-5.74,1.52-11.48,2.21-17.23.32-2.69.46-5.39.72-8.09.27-2.94.65-5.88.86-8.82.19-2.7.25-5.41.29-8.12a41.84,41.84,0,0,1,1.17-10.8,38.28,38.28,0,0,1,2.38-5.79A3.18,3.18,0,0,1,96,92a4.8,4.8,0,0,0,1.3-.68,12,12,0,0,1,10.27-1.46,32.47,32.47,0,0,0,10.56,1.46c.31,0,.62.05.92,0a2,2,0,0,1,2.28,1.68q1.44,5.34,2.94,10.67c.31,1.1.72,2.18,1.17,3.53,1.28-2.3,2.31-4.33,3.51-6.24a32.68,32.68,0,0,1,3.29-4.44c2-2.29,4.9-3,7.79-3.42a2.2,2.2,0,0,1,1.24.29c2.11,1.1,4.32.84,6.5.44,1.51-.28,3-.79,4.48-1.1,2-.4,4.06-.56,5.5,1.15a11.32,11.32,0,0,1,2.41,5.31c.55,3,1.21,5.88,1.82,8.82.21,1,.4,2.05.62,3.07,1,4.81,2.13,9.61,3.08,14.44s1.68,9.57,2.6,14.35c.57,3,1.34,5.87,2,8.81.84,3.84,1.6,7.71,2.47,11.54.69,3.06,1.42,6.11,2.29,9.12a32.36,32.36,0,0,0,1.9,4.58,3.08,3.08,0,0,1-.87,3.89,12.55,12.55,0,0,1-5.62,2.62,9.61,9.61,0,0,1-5.88-1.08,4.17,4.17,0,0,1-2.16-2.87c-.69-2.61-1.33-5.25-1.83-7.91-.74-3.93-1.05-8-2.08-11.81-1.27-4.74-3.09-9.34-4.67-14-.4-1.16-.92-2.3-1.21-3.49A3.42,3.42,0,0,0,150.6,137Z"/><path class="cls-6" d="M127.6,107.68a2,2,0,0,1-2.1,0c-4.23-2.5-8.46-5-12.7-7.45a35.92,35.92,0,0,0-8.47-3.54c-.17,0-.34-.12-.76-.27.22-.48.32-1,.65-1.32,1.91-1.63,3.83-3.25,5.82-4.78,1.75-1.34,3.58-2.58,5.39-3.84a3,3,0,0,1,.84-.37c2.17-.66,2.81-.35,3.77,1.71,1.35,2.89,2.81,5.74,4.05,8.68.93,2.19,1.58,4.5,2.37,6.75.14.4.38.77.56,1.16A5.51,5.51,0,0,1,127.6,107.68Z"/><path class="cls-6" d="M124.86,108.07a42.09,42.09,0,0,1,2.21-5.32c1.92-3.28,4-6.47,6.14-9.63a12.91,12.91,0,0,1,4.23-3.79,1.84,1.84,0,0,1,2.22,0,7.08,7.08,0,0,0,1.93,1c3.71,1.14,5.25,4.2,6.61,7.41a.82.82,0,0,1-.56,1.17,22,22,0,0,0-2.43.85c-2.93,1.41-5.84,2.85-8.73,4.34-2.12,1.1-4.16,2.38-6.3,3.43a9.8,9.8,0,0,1-3,.78A10.55,10.55,0,0,1,124.86,108.07Z"/><path class="cls-10" d="M126.28,107.41a3.14,3.14,0,0,1,.35.76,91.14,91.14,0,0,1,1.71,12.38c.15,4.92.57,9.82.79,14.74a26.59,26.59,0,0,1-.51,8.23,4.91,4.91,0,0,1-1.87,3.16c.19-1.1.38-1.95.48-2.8.21-1.7.45-3.4.56-5.11.35-5.49-.3-10.94-.71-16.39-.27-3.55-.88-7.06-1.33-10.6-.13-1-.23-2.08-.31-3.12C125.39,108.09,125.4,107.51,126.28,107.41Z"/><path class="cls-10" d="M132.63,138.17c.79,0,1.7-.34,2.15.61a2.19,2.19,0,0,1-.36,2.42,1.06,1.06,0,0,1-1.84-.05A2.1,2.1,0,0,1,132.63,138.17Zm.75,2.42c.81-.76.81-1.22-.37-1.39Z"/><path class="cls-10" d="M131,111.56a2.07,2.07,0,0,1,1.89,1.68,1.6,1.6,0,0,1-1.65,1.6,1.64,1.64,0,1,1-.24-3.27Zm.23,2.55c.27-.42.62-.74.56-.93s-.47-.45-.72-.67c-.19.25-.54.5-.54.75S130.95,113.72,131.28,114.1Z"/><path class="cls-10" d="M132.05,120.19a14.44,14.44,0,0,1,1.66,1.26,1.23,1.23,0,0,1-.09,2.05,1.63,1.63,0,0,1-2.29-.35C130.72,122.24,130.89,121.49,132.05,120.19Zm1.26,2.37a1.48,1.48,0,0,0-1.25-1.25C132.07,122.64,132.07,122.64,133.31,122.57Z"/><path class="cls-10" d="M135.41,131.3A1.69,1.69,0,0,1,134,133a1.47,1.47,0,0,1-1.56-1.44A1.81,1.81,0,0,1,134,129.8,1.71,1.71,0,0,1,135.41,131.3Zm-1.35.82c.21-.37.48-.64.43-.81s-.38-.36-.59-.54c-.16.21-.45.42-.44.63S133.76,131.8,134.06,132.13Z"/><g class="cls-11"><path class="cls-8" d="M139,146.71c2.9-2.69,3.92-6.27,4.81-10.16.57,1.16.59,1.16,0,3.47a23.43,23.43,0,0,1-1,3.32c-.44,1.06-1.07,2-1.67,3.17,1.5-.22,2-1.62,3-2.4s1.89-1.64,2.84-2.46l.28.28a4.82,4.82,0,0,1-.51.81c-1.06,1.11-2.1,2.24-3.23,3.28a12.7,12.7,0,0,1-2.13,1.43C140.52,148,139.76,147.78,139,146.71Z"/><path class="cls-8" d="M115.23,148.1c-3.08-1.24-4.6-3.66-4.39-7.36a31.85,31.85,0,0,0,1.35,3.09,34.21,34.21,0,0,0,2,2.8l.34-4.28A8.73,8.73,0,0,1,115.23,148.1Z"/><path class="cls-8" d="M117.91,144.09c-.16,1.4.54,2.91-.39,4.66C116.47,146.85,117.09,145.47,117.91,144.09Z"/></g><path class="cls-5" d="M109.46,147.94c1.87-.15,3.77-.33,5.68-.46,3.62-.25,7.25-.53,10.88-.71,4.13-.21,8.27-.31,12.4-.47,1.82-.07,3.63-.16,5.45-.25.44,0,.88-.09,1.31-.08a3.52,3.52,0,0,1,1.1.16c2.22.82,1.09,2.48,1.23,3.78.09.82-.68,1.33-1.89,1.42s-2.49,0-3.74.08c-2.82.1-5.64.18-8.46.35-3.44.2-6.88.69-10.31.67-3.14,0-6.27.08-9.4.2a7.71,7.71,0,0,1-3.07-.63,2.37,2.37,0,0,1-1.42-2.25A11.44,11.44,0,0,1,109.46,147.94Z"/><path class="cls-12" d="M201,215.48c1.47-.79-.18-9.5,1.56-11.36,1.07,1.66,1,4.6,2,6a1.86,1.86,0,0,0,1.32.74c.78,0,1.15-.73,1.17-1.51a14.24,14.24,0,0,0-.11-2.59q-.56-3.75-1.24-7.48a4.53,4.53,0,0,0-2.34-3.38,31,31,0,0,0-3.81-1.71c-2.05-.74-2.38,0-3.17,2.15s-.74,4.47-1.71,7.36c-2,5.82-.67,5.66,1.13,9a12.5,12.5,0,0,0,.92,1.45C198,216,198.61,216.16,201,215.48Z"/><path class="cls-12" d="M195.88,188.48s1,5.78.2,8.52l8.06.71s-1.16-5.56-.9-8.45l.27-2.89Z"/><path class="cls-12" d="M290.49,205.79c-1.73-.37-2.21-9.24-4.49-10.56-.69,1.89.14,4.72-.53,6.29a2,2,0,0,1-1.19,1.08,1.38,1.38,0,0,1-1.6-1.14,13.26,13.26,0,0,1-.54-2.53c-.24-2.52-.43-5-.6-7.57a4.55,4.55,0,0,1,1.58-3.9,34.59,34.59,0,0,1,3.53-2.68c1.95-1.28,2.49-.62,3.84,1.22s1.9,4.13,3.64,6.65c3.51,5.1,2.12,5.29,1.09,9a12.42,12.42,0,0,1-.59,1.65C293.65,205.47,293.09,205.81,290.49,205.79Z"/><path class="cls-12" d="M288.95,178.28s.44,5.86,1.94,8.3l-8.2,2.88s-.2-5.7-1.2-8.42l-1-2.72Z"/><path class="cls-13" d="M231.88,286.18c.55.05,1.08,0,1.41.18s.81.85.72,1.15c-.62,2.06-.81,4.28-2.13,6.1a4,4,0,0,1-4,1.66c-3.63-.47-5.36-2.53-5.36-6.17,0-1.28.26-1.47,1.51-1.64,2-.26,3.9-.62,5.84-.94Z"/><path class="cls-13" d="M251.18,284.86c3.37-.21,6.63-1.12,10-1.35a4.92,4.92,0,0,1,.45,4.76,20,20,0,0,0-.76,2.16,4.09,4.09,0,0,1-3.6,2.82c-3.59.65-5,.26-6-4.1A20.37,20.37,0,0,1,251.18,284.86Z"/><path class="cls-8" d="M276.68,179.31c1.11-.24,1.88-.4,2.64-.58q3.64-.88,7.28-1.78c.77-.19,1.53-.46,2.3-.66a2.06,2.06,0,0,1,2.67,1.32c.51,1.2.9,2.47,1.38,3.83a10.18,10.18,0,0,1-1.77,1.27c-3.33,1.4-6.61,3-10.16,3.56-1.76.29-2.57-.09-3.15-2C277.39,182.76,277.11,181.15,276.68,179.31Z"/><path class="cls-8" d="M207.75,193.46a25.66,25.66,0,0,1-7.57,1.35c-1.47,0-2.93.12-4.4.08a6,6,0,0,1-2.38-.49c-.34-.17-.54-.94-.55-1.44,0-1.21.08-2.42.14-3.77.48-.72,1.29-.8,2.25-.77,2.93.08,5.87.13,8.8,0s3.5.32,3.7,3.21C207.78,192.21,207.75,192.78,207.75,193.46Z"/><path class="cls-8" d="M230.6,96.28s-7.12,5-6.73,8.13,3.05,70.33,3.36,70.91,24.71.14,26.43-1.44-4.54-73.44-6.38-76.89-3.07-4.54-5.2-3.3S230.6,96.28,230.6,96.28Z"/><path class="cls-7" d="M294.36,178.09c-3-.53-5.5,1.14-8.2,2a23.07,23.07,0,0,1-3.9,1c-2,.29-2.9-.57-3.84-2.37-1.92-3.68-2.12-7.76-3-11.67-1.56-7.2-2.84-14.45-4.32-21.67a95.25,95.25,0,0,0-2.37-9.9c-1.06-3.32-1.07-6.66-1.11-10.06-.07-6.54-.25-13.08-.4-19.62,0-.83-.27-1.65-.3-2.48q-.21-5.28-.34-10.55a8.09,8.09,0,0,1,.35-1.66c2.84.19,8.66,2.07,11.47,9.87,2.26,6.26,2.1,13.14,3.27,19.69.63,3.52,1.56,7,2.34,10.49,1.42,6.37,2.8,12.75,4.26,19.12s3,12.58,4.48,18.87c.27,1.12.51,2.25.76,3.37C293.74,173.44,294.59,177,294.36,178.09Z"/><path class="cls-7" d="M198.92,190.72a15.35,15.35,0,0,1-6.32-1.35,1.56,1.56,0,0,1-1.17-1.68c.1-1.34.12-2.69.22-4,.12-1.64.39-3.28.43-4.92.08-3.56,0-7.12.07-10.67.16-5.15.54-10.29.67-15.44s.61-10,.19-15.08a65.54,65.54,0,0,1,.3-8.08c.14-3.25.29-6.49.38-9.74-.08-18.44,5.06-22.58,5.76-22.86a6,6,0,0,1,2-.46c1.36,0,2.06.45,2.24,1.77a78.63,78.63,0,0,1,1,9.67,96,96,0,0,0,1.32,14.25c.47,2.91.9,5.82,1.38,8.73a45.2,45.2,0,0,1,.81,4.52c.23,3.73.28,7.47.42,11.2s.33,7.47.48,11.2c0,1,0,2,0,2.93-.12,2.14-.29,4.28-.41,6.42a10.08,10.08,0,0,1-1.53,4.87,6.93,6.93,0,0,0-.79,2.23c-.47,2.22-.76,4.48-1.31,6.68a47.49,47.49,0,0,0-1,8.38C204,190.09,200.49,190.65,198.92,190.72Z"/><path class="cls-7" d="M263.7,286.41a43,43,0,0,1-16.62,0c-.23-1.7-.5-3.27-.63-4.84-.53-6.46-1-12.92-1.52-19.38-.46-5.91-.86-11.82-1.41-17.72-.75-8-.18-16-.35-24.06,0-2.22-.3-4.43-.44-6.65-.33-5.17-.66-10.33-1-15.63-1.72-.43-3.36.05-5.05.46a3.79,3.79,0,0,0-.22.73,107.13,107.13,0,0,0-.48,17.33c.38,5.28.64,10.58.62,15.87,0,4.61-.58,9.21-.72,13.82-.12,4.07.07,8.14,0,12.21-.05,3.82-.3,7.64-.38,11.46-.06,3.14,0,6.28,0,9.42,0,1.1-.24,2.2-.29,3.3,0,.79.06,1.59.09,2.39,0,1,.4,1.95-.13,2.64a25.87,25.87,0,0,0-3.5.4c-2.57.67-5.22,1-7.71,2.06s-4,.31-4.74-2.28a19.57,19.57,0,0,1-.6-2.91c-.55-3.91-1.12-7.83-1.59-11.75-.25-2.14-.35-4.31-.44-6.46a100.36,100.36,0,0,0-2-13.91c-.64-3.4-1-6.84-1.52-10.26-.52-3.6-1.06-7.21-1.53-10.82q-.61-4.68-1.06-9.38c-.41-4.24-.75-8.48-1.14-12.72s-.69-8.73-1.28-13.07-.12-8.37,0-12.56a77.29,77.29,0,0,0-.66-8.22,3.1,3.1,0,0,1,.12-.58,20.4,20.4,0,0,1,3.33-.76q7.74-.52,15.5-.86c2.48-.11,5,0,7.45-.07,2,0,4-.23,6-.21,2.62,0,5.23.23,7.85.27a52,52,0,0,0,7.21-.12,58.74,58.74,0,0,1,14.28.05c-.09,1.56-.13,3.08-.26,4.58-.18,2-.65,4-.63,6.06a137.47,137.47,0,0,1-.69,15.52,21.63,21.63,0,0,0,.08,2.59c.07,3.95.12,7.89.19,11.84.12,6,.4,12,.33,17.94-.05,4.25-.58,8.49-.89,12.74-.22,3.08-.32,6.16-.65,9.23-.3,2.82-1,5.61-1.25,8.43-.51,4.91-.9,9.83-1.24,14.74C263.85,280.32,263.81,283.33,263.7,286.41Z"/><path class="cls-14" d="M282.11,184.63c-.15.92-.38,1.46-1.29,1.68a11.37,11.37,0,0,0-2.31,1.12c-2.92,1.46-6.11,1.72-9.28,2a11.72,11.72,0,0,1-2.54-.33,12.57,12.57,0,0,0-1.81-.31c-4.21,0-7.43-2.25-10.55-4.67a4.83,4.83,0,0,1-2-3.63c-.62-6.41-1.57-12.78-2.27-19.18-.34-3.11-.34-6.25-.61-9.37a158.17,158.17,0,0,1-.68-18.39c.14-4.65.59-9.3.91-13.94.12-1.71.21-3.43.4-5.14.65-5.73,1.32-11.45,2-17.17.31-2.42.72-4.83,1.21-7.23.28-1.39.51-1.32,1.83-1.44,4-.38,7.59,1.11,11.27,2.17,4.34,1.25,4.27,1.32,4.36,5.83.15,7.48.45,15,.56,22.43,0,2.75-.26,5.5-.43,8.25a26.8,26.8,0,0,0,.29,6.77c1.43,7.4,2.71,14.83,4.14,22.23,1.17,6,2.48,12,3.72,18,.58,2.82,1.15,5.64,1.75,8.46C281,183.5,281.09,184.32,282.11,184.63Z"/><path class="cls-14" d="M202.19,97.17a57,57,0,0,1,9.51-3.43c3-.85,5.94-2.1,8.9-3.2,1.46-.54,1.67-.56,3.41,0a19.28,19.28,0,0,1,.36,2.71c0,4-.21,8.08-.1,12.11a67.79,67.79,0,0,0,.89,10.54,105.63,105.63,0,0,1,1.75,14.64c.25,5.48.31,11,.54,16.45.14,3.28.49,6.55.72,9.82.52,7.67-.3,15.26-1.32,22.84-.23,1.68-.56,3.35-.95,5a8.77,8.77,0,0,1-5,6,39.2,39.2,0,0,1-15.94,4.38,8.56,8.56,0,0,1-1.32,0c-1-.13-1.32-.49-1.18-1.52s.39-1.85.54-2.79a23.33,23.33,0,0,0,.41-3c.24-6.5.55-13,.6-19.51a67.18,67.18,0,0,1,.82-11.7c.5-2.73,1.05-5.45,1.48-8.19a56.58,56.58,0,0,0-.51-21.64A150.41,150.41,0,0,1,202.52,105C202.31,102.41,202.29,99.76,202.19,97.17Z"/><path class="cls-12" d="M216.87,59.5c.5-2.24.86-4.33,1.45-6.35a47.9,47.9,0,0,1,2-5.38,6,6,0,0,1,3-2.86,22.25,22.25,0,0,1,12.57-2.79c3.49.35,7.08-.93,9.78,1.1,4.1,3.08,5.22,10.32,6.16,15.17.13.69.24,1.38.38,2.16l.75-.33c1.18-.58,2.42-.75,3.41.21a3.53,3.53,0,0,1,1.07,3.69,12.66,12.66,0,0,1-1.52,3.3c-1.2,1.72-2.32,3.54-4.39,4.46a2,2,0,0,0-.92,1.3A20,20,0,0,1,246,81.71a14.32,14.32,0,0,1-1.13,1.54,7,7,0,0,1-3.07,1.86c-1.86.44-3.6,1.44-5.47,1.74a14.23,14.23,0,0,1-12.32-3.57A19.63,19.63,0,0,1,218,73a3,3,0,0,0-2-2.39,7.21,7.21,0,0,1-4.62-7.1c0-3,1.88-4.56,4.89-4.08Z"/><path class="cls-15" d="M242.44,42.94c-6.74,3.73-14.12,4.23-21.2,6.24-.54,1.24-1.12,2.59-1.73,3.93-.33.72-.82,1.39-1.08,2.13a20.44,20.44,0,0,0-.74,3c-.11.6,0,1.23-.08,1.84-.07.85-.55,1.19-1.39,1l-1.09-.22a2.58,2.58,0,0,1-2.13-3,43.79,43.79,0,0,1,2.75-9.76,5.91,5.91,0,0,1,.95-1.58,26,26,0,0,1,13.36-9.16,20.2,20.2,0,0,1,7.3-.8c2.54.22,4.55,1.48,6.52,2.84a3.32,3.32,0,0,0,1.79.77c3.18.15,5.12,1.86,6.49,4.7a22.37,22.37,0,0,1,2.22,9.64,10.15,10.15,0,0,1-2.64,6.72,1,1,0,0,1-1.91-.32,11.85,11.85,0,0,1-.64-2.31c-.2-1-.26-2-.48-2.92a6.91,6.91,0,0,0-2.29-4.22,11.37,11.37,0,0,1-3.6-6.53C242.72,44.36,242.6,43.76,242.44,42.94Z"/><path class="cls-7" d="M275.53,148.85c.64,2.53,1.24,4.87,1.83,7.21q1.85,7.35,3.7,14.7a5.82,5.82,0,0,0,.36,1.09c1.15,2.41.08,4-2.41,4.92-3.3,1.22-6.29.38-9.36-.48a6.82,6.82,0,0,1-5.17-5.3c-1.44-5.59-2.1-11.32-3.2-17,0-.19,0-.38-.09-.57-.47-2.22-.45-2.2,1.68-2.55,3.09-.51,6.17-1.1,9.26-1.62C273.13,149.12,274.15,149,275.53,148.85Z"/><path class="cls-7" d="M202.85,180.29c-.13-2.91-.31-5.91-.37-8.92a27.75,27.75,0,0,1,.27-4.59c.6-4,1.28-8.08,2-12.11.32-1.86.5-2.09,2.31-2.14,3.58-.1,7.17-.1,10.76-.09a3,3,0,0,1,1.62.48,1.94,1.94,0,0,1,.86,1.3,63.38,63.38,0,0,1-.57,8,112.23,112.23,0,0,1-2.58,11.95,7.84,7.84,0,0,1-4.08,4.88,19.92,19.92,0,0,1-7.51,2.19A3,3,0,0,1,202.85,180.29Z"/><path class="cls-7" d="M248.84,142.76c-.13-4-.55-7.54-.23-11.21a42.42,42.42,0,0,0-.32-8.23,72.21,72.21,0,0,1,.06-16.67A72.45,72.45,0,0,0,248,87.5c-.31-2.15,1.39-3.6,3.25-2.53a46.4,46.4,0,0,1,9,6.48,5.88,5.88,0,0,1,.7,1.21l-4.71,4.28a54,54,0,0,0,3.29,4.89,2.37,2.37,0,0,1,.42,2.62q-2.46,7.06-4.92,14.13a8.06,8.06,0,0,0-.31,1.11c-1,5-1.92,10-2.9,15.07-.35,1.82-.74,3.64-1.13,5.45A3.87,3.87,0,0,1,248.84,142.76Z"/><path class="cls-7" d="M217.6,103.75,213,101.51c1.5-2.87,2.35-6.06,4.53-8.59a15.14,15.14,0,0,1,5.25-3.8,8,8,0,0,1,2-.33c.16,1.36.32,2.48.43,3.61q.77,8.41,1.51,16.81c.19,2.17.41,4.34.49,6.51.2,5.5.37,11,.46,16.5.05,3.39-.07,6.77-.12,10.16a2.06,2.06,0,0,1,0,.76c-.11.26-.38.66-.54.64a1.28,1.28,0,0,1-.87-.52,4.46,4.46,0,0,1-.31-1.3,121.62,121.62,0,0,0-4.25-17.11,14.4,14.4,0,0,0-4.43-6.38l-.15-.13a3.84,3.84,0,0,1-1.49-4.8C216.38,110.45,216.86,107.2,217.6,103.75Z"/><path class="cls-16" d="M250.91,290.07c1.27.56,2.31,1,3.37,1.48a4.4,4.4,0,0,0,5.76-1.48c.36-.44.64-1,1-1.4,1.45-1.73,2.77-2,4.71-.74a55.14,55.14,0,0,1,6.09,4.63,36.9,36.9,0,0,0,8.06,5.46,2.85,2.85,0,0,0,1.66.34c2.13-.41,3.11,1,4.41,2.55-1.08.42-2,.8-2.91,1.13-.66.23-1.38.31-2,.58-2.39,1-4.93.85-7.39.86a11.26,11.26,0,0,1-4.54-1.41c-2.88-1.35-5.68-2.86-8.48-4.37a2.27,2.27,0,0,0-3,.25c-.61.56-1.4.92-2,1.49a2.19,2.19,0,0,1-2.61.47c-.65-.27-1.35-.39-2-.62a2.77,2.77,0,0,1-2.13-3.17A14.8,14.8,0,0,1,250.91,290.07Z"/><path class="cls-16" d="M203.92,303.53a16.18,16.18,0,0,0,6.39-2.77c3.34-2.13,6.9-3.94,9.74-6.79.54-.54,1-1.12,1.56-1.67,1.37-1.44,2.66-1.49,4.18-.19.24.21.46.45.71.64,2.41,1.8,3.54,1.7,5.62-.47l.13-.14c.75-.78,1.45-1.79,2.74-1.24a2.58,2.58,0,0,1,1.25,2.61c0,2.79.11,5.62-1.29,8.37l-4.58,1-2.06-2.66c-2.18,1.29-4.44,2.69-6.76,4A40,40,0,0,1,209,308.91c-2.16.38-3,0-3.83-2.12C204.8,305.8,204.42,304.8,203.92,303.53Z"/><path class="cls-12" d="M243.76,89.88c-.9,1-1.6,1.74-2.35,2.49a19.53,19.53,0,0,1-2.54,2.32,3.47,3.47,0,0,1-2,.43,14.63,14.63,0,0,1-9.22-3.77,4.5,4.5,0,0,1-.23-5.55,2,2,0,0,1,1-.44,1.58,1.58,0,0,1,.76.09c3.8,1.11,7.34.11,10.83-1.31.36-.14.7-.31,1.07-.43a1.14,1.14,0,0,1,1.65.82C243.2,86.37,243.89,88.19,243.76,89.88Z"/><path class="cls-8" d="M245,85.09c3.57,2,4.22,5.57,4.94,8.91a85.13,85.13,0,0,1,1,8.76,5,5,0,0,1-.11,1,2.55,2.55,0,0,1-2.69-1.05c-1.42-1.65-2.79-3.34-4.17-5-.28-.35-.55-.71-.8-1.08-.81-1.19-1.81-1.74-3.24-1a4.11,4.11,0,0,1-1,.16c.39-.78.74-1.41,1-2.06q1.71-3.55,3.39-7.1C243.79,85.86,244.17,85.21,245,85.09Z"/><path class="cls-8" d="M223,105.1a18.38,18.38,0,0,1-.41-2.84c.08-2.55.21-5.1.42-7.64a22.81,22.81,0,0,1,.69-4,1.75,1.75,0,0,1,2.94-1.1,31.25,31.25,0,0,1,3.62,3.11c1.19,1.15,2.28,2.4,3.41,3.62a3.91,3.91,0,0,1,.39.62c-1.69.76-2.72,2.15-3.95,3.3A40.82,40.82,0,0,1,223,105.1Z"/><path class="cls-13" d="M238.11,105.37c-2.08-1.79-4.12-3.43-6-5.22-1.26-1.19-.56-4,1-4.62,1.83-.75,3.64-1.54,5.49-2.24,1.61-.61,1.86-.39,2.7,1.08a5.29,5.29,0,0,1,.12,5.25A23.88,23.88,0,0,1,238.11,105.37Z"/><path d="M219.3,288c.24-.59.41-1.15.67-1.65a2,2,0,0,1,2.32-1.28,2.33,2.33,0,0,1,1.36,2.31,4.83,4.83,0,0,1-1.64,3.18c-1.35,1.14-5.37.33-6.3-1.21-.59-1-.17-1.77,1-1.76A17.88,17.88,0,0,1,219.3,288Zm2.07-1.9c-.59,1.21-1.14,2-.52,3.14C222,288.45,221.9,287.54,221.38,286.12Zm-4,2.44-.27.4c.38.78,1,1,2.29.73Z"/><path d="M265.51,284.51c.46-.41.91-.84,1.38-1.22a3.15,3.15,0,0,1,2.4-1,1.21,1.21,0,0,1,1.14,1.75c-.56,1.61-1.82,2.2-3.59,2.11a10.06,10.06,0,0,1-2.6-.52,3.41,3.41,0,0,1-2.16-3.8c.2-.94,1.06-1.29,1.67-.53A21.65,21.65,0,0,1,265.51,284.51Zm3.51-.41-.47-.46-.93,1.15.27.24Z"/><path class="cls-13" d="M251.08,160.93c-.64,1.34-1.22,2.76-2,4.07-1.33,2.33-2.78,4.59-4.17,6.89-.56.93-1.1,1.88-1.63,2.82s-1.27,1.28-2.15.53a20.14,20.14,0,0,1-3.82-3.44c-.92-1.29-2.25-2.27-3.28-3.49-1.53-1.81-2.95-3.71-4.4-5.58a1.55,1.55,0,0,1-.39-.83c0-1.27,0-2.53.12-3.8.58-7.73,1.1-15.47,1.81-23.19.55-6,1.26-12,2-17.94.53-4.06,1.3-8.09,2-12.12.49-2.84.45-3.09,3.81-2.36a1.87,1.87,0,0,1,.39.15c1.31,6.94,2.51,13.81,3.93,20.62.85,4.07,2.17,8,3,12.1,1,4.63,1.72,9.31,2.57,14Z"/><path class="cls-7" d="M222.7,147.88a2.48,2.48,0,0,1,2.62.29c.6.53,1.11,1.08.74,1.95-.25.59-.56,1.18-1.34,1.13a1.87,1.87,0,0,1-1.85-1.36A9.85,9.85,0,0,1,222.7,147.88Z"/><path class="cls-7" d="M223.27,171.31a1.55,1.55,0,0,1-1.69-1.47,3.14,3.14,0,0,1,1.19-3.06,1.81,1.81,0,0,1,1.38-.22c.91.22,1.83,2.05,1.59,3A2.76,2.76,0,0,1,223.27,171.31Zm-.87-2.36c0,.65,0,1.34.91,1.39a1.85,1.85,0,0,0,1.82-1.61,1.54,1.54,0,0,0-1.5-1.64C222.88,167.11,222.39,167.85,222.4,168.95Z"/><path class="cls-7" d="M224.46,157.46c.79,0,1.52.82,1.55,1.86a2.61,2.61,0,0,1-1.92,2.1c-.77.11-1.32-.57-1.38-1.69C222.64,158.32,223.25,157.52,224.46,157.46Zm-.61,2.52c.66.11,1.18-.07,1.15-.8,0-.18-.57-.54-.81-.49C223.39,158.86,223.51,159.41,223.85,160Z"/><path class="cls-7" d="M225.07,176.64c0,1.43-.6,2.27-1.54,2.41a1.12,1.12,0,0,1-1.37-.74c-.25-.65.42-2.85,1.06-3a1.65,1.65,0,0,1,1.34.31A2.5,2.5,0,0,1,225.07,176.64Zm-1.49-1.06c-.45,1-1.05,1.56-.56,2.44C224.28,177.29,224.28,177.29,223.59,175.58Z"/></g></g></svg>