<svg xmlns="http://www.w3.org/2000/svg" viewBox="0 0 360 360"><defs><style>.cls-1{isolation:isolate;}.cls-2{fill:#4cc1bb;}.cls-3{fill:#b5d0e1;}.cls-4{fill:#f0f2f6;}.cls-5{fill:#dee4ec;}.cls-6{fill:#694e36;}.cls-7{fill:#ff3148;}.cls-8{fill:#004074;}.cls-9{fill:#ff5266;}.cls-10{fill:#1c1919;}.cls-11{fill:#006495;}.cls-12{fill:#0a130e;}.cls-13{fill:#f8eb00;}.cls-14{fill:#fdde00;}.cls-15{fill:#fccfb3;}.cls-16{fill:#554543;}.cls-17{fill:#fff;}.cls-18{fill:#6c5a57;}.cls-19{fill:#151a16;}.cls-20,.cls-21{fill:#a67d42;}.cls-21{mix-blend-mode:multiply;}.cls-22{fill:#f43662;}</style></defs><title>Icons_Business_Owners_3C</title><g class="cls-1"><g id="Background"><circle id="_76.193.187" data-name="76.193.187" class="cls-2" cx="180" cy="180" r="180"/><circle id="_27.62.111" data-name="27.62.111" class="cls-3" cx="180" cy="180" r="180"/></g><g id="Artwork"><path class="cls-4" d="M51.38,88.73c-2.38-1.44-4.18-5.6-7-6.15-2.61-.5-5.88,5.53-7,7.25-2,3.17-3.63,6.48-3.82,10.32a22.33,22.33,0,0,0,.6,7.52c.79,2.67,1.39,4.42,3.5,2.71s1.55-3.65,4.86-2.22c1.72.74,2.93,2.19,4.32,3.47A146.68,146.68,0,0,0,61,123.17a120.65,120.65,0,0,1,12.34,10.72c3.65,3.42,7.65,6.29,11.57,9.39,2.88,2.29,5.92,4.33,8.93,6.45,4.88,3.45,9.85,6.36,14.81,9.72,3.64,2.48,9.58,5.11,12,8.81-.15-7-2.23-13.86-3.08-20.85-.44-3.62,0-14.22-3.33-16.09-.86-.48-2.72-.15-3.81-.6-2.61-1.09-5.19-3.5-7.39-5.22-5.6-4.38-10.64-9.26-16-13.88C76.43,102.47,63.35,96,51.38,88.73Z"/><path class="cls-5" d="M60.08,89.54c-3.14-2.21-6.26-4.43-9.39-6.62-1.37-1-8-4.65-8.34-1C42.23,83.26,44,84.44,45,85a31,31,0,0,1,4,2.72c3.18,2.4,6.17,5,9.58,7.12,6.18,3.78,12.24,7.4,18.09,11.77,5.06,3.77,10.66,6.48,15.57,10.55,4.21,3.49,8,7.44,12.24,10.91a38.35,38.35,0,0,0,6.81,4.73c1.45.73,4.1,2.47,5.77,2.35s.66-2.34.17-3.15c-1-1.65-3.09-2.92-4.58-4.11-3.65-2.88-7.48-5.54-11-8.54-4-3.4-7.39-7.53-11.61-10.74a85.13,85.13,0,0,0-8.63-5.22c-3.18-1.86-6.43-3.62-9.52-5.66C67.93,95.06,64,92.31,60.08,89.54Z"/><path class="cls-6" d="M113.12,118.75c4.63.68,9.71,3.22,14.41,2.44.49-2.56-.85-5.19-2-7.45-1.66-3.35-2.37-2.95-5.75-2.5-5.64.75-11.77-.49-17.49-.23a27.12,27.12,0,0,1-6.67-.56c-.94-.18-6.36-1.74-5.11.64.84,1.61,5.46.32,4.77,3.21-.32,1.34-2.52,1.48-3,2.58a1.64,1.64,0,0,0,.59,1.68c.78.63,1,.28,1.56-.3,1-1.06,1.68-2.51,3.37-2.59s4.41,1.29,6.39,1.47C107.34,117.41,110.09,118.31,113.12,118.75Z"/><path class="cls-7" d="M136.74,123.6c2.43-1,4.72-3.68,6.94-5,1.52-.92,4.36-2.3,5.2-3.88,1-1.86.49-5.63.69-7.72a52.48,52.48,0,0,0,.58-7.74c-5.25-.21-9.35,5.29-13.44,7.82A22.47,22.47,0,0,1,129.8,110c-.92.19-8.94.07-9,.81-.45,3.07-.11,10.35,1.63,13,1.63,2.49,3.27.65,6.12.26,2.37-.33,5.65.39,7.84-.33Z"/><path class="cls-6" d="M174.54,49.27a7.31,7.31,0,0,0-1.93-3.14c-2.55-2.16-7.06.11-9.67,1.42A72.22,72.22,0,0,0,152,54.12c-1.68,1.25-3.11,3-4.84,4.13-1.22.79-3.2,1-2.86,2.87.46,2.6.63,5.14,1.77,7.58s2.62,6.55,5.29,7.91a3.8,3.8,0,0,0,3.88,0c1.46-.71,2.84-2.93,4.52-3-.9,3-2,6.59-4,9.15,5.23-.4,10.46-1.28,15.69-1.73,2-.17,4.07-.26,6.09-.35,1.24-.06,2.44.53,3.62.33A19.9,19.9,0,0,0,179,78.21a12.23,12.23,0,0,1-1.53-3c-.76-2-1.34-4.11-2.08-6.15-.66-1.85-2-3.86-2.3-5.79-.33-2.47,1.69-5.05,2.14-7.41A14.12,14.12,0,0,0,174.54,49.27Z"/><path class="cls-8" d="M172.6,168.1c-.44,3.46-1.3,7.09-1.63,10.15-.62,5.8-1.26,11.6-1.53,17.43-.57,12.07,1.06,23.13,6,34.16,4.38,9.73,4.67,21.4,6.15,31.84.8,5.66,1.24,11.31,2.07,16.91.63,4.24,3.23,7.8-2.63,9.13-2.78.63-6.09-.51-8.84-.78-2.44-.24-6.83.22-8-2.62a13.08,13.08,0,0,1-.46-3.3,13.16,13.16,0,0,0-1.62-5,27.77,27.77,0,0,1-1.81-3.73c-1.08-2.67-1.88-5.44-2.85-8.15a51.57,51.57,0,0,1-2-9.81,66.06,66.06,0,0,0-1.86-10.23c-1.79-5.9-4.17-11.34-5.55-17.37-.86-3.77-2.52-7-3.5-10.57-1.12-4.11-.5-8.77-.5-13,0-5.73,1.42-14-.22-19.26-.73,5.72-1.54,11.41-2,17.23s-2.19,11.65-1.86,17.54c.28,5.06,3.58,8.59,3.25,13.92-.37,6-1.67,11.91-1.67,18.16,0,5.3-1.18,10.35-1.11,15.53,0,2.34.28,4.58.28,7,0,1.25.91,5.53.29,6.41s-6.18.62-7.54.48c-2.31-.24-4.64-1.23-7-1.82-2.76-.69-4,0-4.73-2.85-.27-1.07-.32-2.18-.6-3.24-.21-.8-.9-1.79-.23-2.53s1.34-1.06,1.65-1.87a7.21,7.21,0,0,0,.34-1.35,25.73,25.73,0,0,0,.32-3.92,148.07,148.07,0,0,0-1.1-18.15c-.27-2.69-.57-5.37-.85-8.06A31.8,31.8,0,0,1,121,232c.18-5,.12-10.72,1.11-15.53,1.42-6.89-.1-14.38.9-21.43,1.39-9.8,2.55-19.14,3-29,.13-3,.85-5.94,1.13-8.85.37-3.81.42-3.56,4.16-3.89,6.67-.57,12.69,1.36,19.57,1a38.23,38.23,0,0,0,8.42-1.53c2.35-.65,4.94-2.39,7.29-2.73,4.87-.7,5.7,8.85,6.16,12.14A23,23,0,0,1,172.6,168.1Z"/><path class="cls-9" d="M166.47,156.92a21.15,21.15,0,0,0,4.67-.08c1.11-.16,2.27-.38,2.05-1.69-.15-.92-1-1-.31-2,.34-.49,1-.62,1.26-1.16-2-.59-1.34-1.51-.61-3.09a49.13,49.13,0,0,0,2.12-6.5,56,56,0,0,1,4.1-9.22c1.4-2.73,3.21-5.27,4.63-8a68.61,68.61,0,0,0,5.55-15.31,45.85,45.85,0,0,0,1.32-7.9c.16-2.34-.47-3.61-1.2-5.73-1.66-4.85-4.33-9.14-6.73-13.64A51,51,0,0,0,180,76.92c-1.22-1.72-2.32-3.61-3.63-5.23a6.14,6.14,0,0,1-.93,3.68,15.64,15.64,0,0,1-11.92,6.41c-1.49.12-7.58.5-5.59-2.68-4.38,7-10.3,13.35-13.84,20.8a19.48,19.48,0,0,0-1.94,7.14c-.37,5,2,9.67.36,14.54-1.78,5.27-4,10.82-6.32,16a82.5,82.5,0,0,1-4.84,9.51c-1.27,2.1-3.63,4.33-4.06,6.8.68-.08,1.11.28,1.74.41a10.18,10.18,0,0,0,2.53-.26,12.37,12.37,0,0,1,2.78.37,124.9,124.9,0,0,0,23.26,1.73C160.48,156.11,163.49,156.7,166.47,156.92Z"/><path class="cls-5" d="M52.55,115a41.53,41.53,0,0,0-4.71-3.4c-2.54-1.56-5.66-3.23-7.39-5.63-.85-1.17-2.68-2.63-4.19-1.76-1,.58-1.4,2.15-2,3.05-1,1.4-1.26,1.46,0,2.94a22.17,22.17,0,0,0,6.47,5c1.74,1,3.4,2.19,5.08,3.31,1.19.8,2.4,1.56,3.53,2.44,4.45,3.48,9.58,6.08,14.11,9.58,4.71,3.64,9.19,7.58,13.92,11.19,7.85,6,15.16,12.94,23.39,18.37,4.71,3.11,9.21,6.66,13.91,9.68,2.06,1.32,5.14,3.38,7.53,4.12,2.57.79,3.44.14,1.94-2.1-1.87-2.79-6-6.23-8.68-8.42-5.26-4.36-11.59-7.91-17.26-11.68a189.32,189.32,0,0,1-24.16-19c-3-2.78-5.67-5.81-8.87-8.3-3-2.35-6.43-4-9.3-6.59C54.67,116.83,53.62,115.9,52.55,115Z"/><path class="cls-10" d="M187.24,303.15c1.22-1.54.37-4.29.06-6.2-.19-1.2-.45-5.18-1.65-5.91-2.23-1.36-7.72,1.14-10.37.84-3-.34-7.26-2.48-10.2-2.06s-6.19,5.26-8.48,7.08a33,33,0,0,1-6.94,4.31,49.89,49.89,0,0,1-5.86,1.84,5.52,5.52,0,0,0-1.81.65,6.13,6.13,0,0,0-.86,1.24,6.82,6.82,0,0,0-1.31,2.67,1.92,1.92,0,0,0-.44,1.31c0,4,12.37,3.81,15.26,3.91,3.12.1,8,.74,11,0,2-.49,4.94-2.7,6.64-4.16,2.44,1.65,4.49,3.34,7.45,2.74,2.61-.53,6-.92,8.3-2C188.66,309.15,187.92,304.89,187.24,303.15Z"/><path class="cls-10" d="M141.21,297.28c-.09-.53-.13-1.38-.26-2.19a4.1,4.1,0,0,0,.26-.73c.56-2.65-1.32-5.56-1.15-8.26.21-3.32.34-4.39-3.81-5-3.94-.57-8,.35-11.94,0-4.29-.37-5.79-.77-8.13,2.77-1.57,2.37-2.87,5.51-5.23,7.18s-5.49,2.26-8.36,2.57c-2,.22-5.06-.42-5.84,1.95a4.9,4.9,0,0,0-.18.79c-.06-.07-.16-.12-.21-.2a1.91,1.91,0,0,1,.17.36,3.42,3.42,0,0,0,.32,2,4.21,4.21,0,0,0,1.07,3.15c1.51,1.43,4.84,1.87,6.85,2.06,2.18.2,4.26-.11,6.68,0,4.7.21,6.37-2.68,10.58-4,.48-.16,1-.33,1.42-.49.29,0,.57,0,.87,0a24.56,24.56,0,0,0,5-.89c0,1.09-.24,2.61.33,3.38,1.5,2,10,.09,12.21,0C142.07,301.64,141.27,297.64,141.21,297.28Z"/><path class="cls-11" d="M162.07,288.51a7.5,7.5,0,0,0-.09,1.41c0-.32,2.32.64,2.48.74a10.75,10.75,0,0,0,1.49,1,22,22,0,0,0,5.41,1.24,46.26,46.26,0,0,0,5.72.18,30.94,30.94,0,0,0,3.55.41,25.93,25.93,0,0,0,3.33-.34,10.59,10.59,0,0,1,2.84-.42,15.88,15.88,0,0,0-.39-3.43c-.16-1.5-.81-2.91-1-4.43,0-.48-.1-1-.15-1.43a6.14,6.14,0,0,0-.05-1.29c-.2-.49-.66-.25-1.07-.72a10.56,10.56,0,0,1-3.43.65c-3.51.3-7-.1-10.46,0a6.5,6.5,0,0,1-3.95-1.57,20,20,0,0,1-1.77-1.54,8.64,8.64,0,0,0-1.5-.8,9.47,9.47,0,0,1,.33,3.36,23.18,23.18,0,0,1-.38,4C162.79,286.59,162.24,287.41,162.07,288.51Z"/><path class="cls-11" d="M117.51,281a2.48,2.48,0,0,0,0,1.25c.22.48,1,.46,1.42.76a10.87,10.87,0,0,0,1.49,1,21.82,21.82,0,0,0,5.41,1.25,46.3,46.3,0,0,0,5.72.18,29.12,29.12,0,0,0,3.55.41,24.39,24.39,0,0,0,3.33-.34c.76-.16,2.54-.14,3-.87s-.35-2-.35-2.79c0-1.4.2-2.73.27-4.13,0-1,.21-1.88.2-2.85a2.74,2.74,0,0,0-.07-1.22c-.2-.34-.06-.17-.46-.2a22.05,22.05,0,0,0-3.21.48c-2.62.26-5,.84-7.66.62a13.05,13.05,0,0,1-7-2.51c-.88-.68-1.6-1.74-2.46-2.33-.24.29-.22.79-.35,1.17s-.34.67-.47,1a28.62,28.62,0,0,0-1,3c-.43,1.64-.94,3.27-1.21,4.95C117.69,280.08,117.58,280.53,117.51,281Z"/><path class="cls-12" d="M164.14,47.36a54.85,54.85,0,0,0-10.44,7c-1.21,1-2.32,1.11-3.8,1.61-.92.31-2.33.83-1.53,2,1.2,1.78,3.46,2.34,5.47,2.58s4.51.74,6.44.39c2.45-.45,2-2.79,3.62-4,2-1.51,4.49,3.39,4.18,5-.18.9-1,.54-1.81.26.08,0,1,3.83,1.32,4.41.86,1.53,2.57,2.19,4.06,3,6.57,3.43,10.47,10.32,13.49,16.81,1.6,3.43,1.95,3.88,5.8,3.69.41-3.07-1-6.07-2.45-8.67-2.63-4.69-4.41-6.26-9.63-6.59,5.24-5.09-1.68-12.56-2.7-17.83a38.39,38.39,0,0,1-.32-5.26A10.45,10.45,0,0,0,174.54,47c-.37-.64-1.41-2.48-2.11-2.78s-1.51.22-2.05.44C168.3,45.57,166.16,46.35,164.14,47.36Z"/><path class="cls-13" d="M161.08,51.52c1.87-1,4.14-1.56,5.86-2.76s3.48-2.66,5.28-3.91a17.86,17.86,0,0,0,2.7-1.7,6,6,0,0,0,1-2.19c-1.08-1-2.07.77-3,.3s-1.52-3.17-1.88-4c-1.29-2.93-2.84-5.63-5.52-7.53-4.24-3-10.3-2.76-15-.91a18.94,18.94,0,0,0-9.13,7.34c-2.43,3.86-2.46,7.9-1.68,12.28.33,1.87.8,5.6,2.18,7,1.23,1.25,4.67.78,6.25.57A40.08,40.08,0,0,0,161.08,51.52Z"/><path class="cls-14" d="M159.16,50.82a55.76,55.76,0,0,1-7.84,2.42,36.35,36.35,0,0,1-5.22,1.06c-1.11.08-2.14-.05-3.23.09-1.48.19-1.38.1-2.24,1.21-1.29,1.64-3.26,2.16-4.76,3.51-.22.2-3.16,2.83-2.59,3.15,6,3.33,14.42-3,19.49-5.84,4.36-2.42,9.18-3.93,13.44-6.55,2-1.24,3.32-3.09,5.32-4.25,1.59-.91,4.17-2.13,4.23-4.28,0,.8-2.78,2.31-3.41,2.68-1.17.68-2.4,1.21-3.54,1.92A59.76,59.76,0,0,1,159.16,50.82Z"/><path class="cls-6" d="M91.15,154.66c.82.87,2,.46,2.66,1.2.55.58-.12,1.61.33,2.12s2,0,2.58-.16c-.1,2-.57,4.45,2.5,2.78-.06.86.14,1.84.11,2.71-.06,1.6,4.66-.6,5.17-.89a42.23,42.23,0,0,1,4.38-2.21c1.18-.5,2-1.33,3.19-1.88,2.22-1.06,4.73-1.29,7.08-2,2.81-.8,5.63-1.42,8.43-2.23,4.62-1.35,9.39-2.06,13.49-4.62.7-.44,3.09-1.41,3.36-2.23.41-1.26-2-3.26-2.62-4.19-1.2-1.73-1.74-2.35-3.92-2.11a28.76,28.76,0,0,0-7.73,1.88c-2.16.9-4.23,2.3-6.39,3.31a47.15,47.15,0,0,1-5.51,2.63,24.46,24.46,0,0,1-8.31,1.33c-2.49-.12-4.67-.87-7-1.21-1.41-.21-2.86-.09-4.28-.27-.3,0-3.93.12-3.71.39.63.79,2.24,1,2.44,2.18.34,2-6.23,1.32-7.45.54.4.25.74,2.26,1.16,2.78Z"/><path class="cls-7" d="M146.39,130.49a26.29,26.29,0,0,1-3.28,1.82c-2,.95-14.38,5.56-13.43,8.71.5,1.66,3.23,1.35,4.5,1.94,3.55,1.65,7.67,6.71,8.29,10.61,3.31-.72,6.85-4.9,9.43-7.2,3.24-2.89,6.38-5.86,9.75-8.64,5.38-4.43,11.31-8.34,16.41-13.08,4.84-4.5,7.12-12.15,9-18.38,1.73-5.82,1.41-18.19-7.76-16.4-8.33,1.63-9.63,11.82-13.47,17.71-2.12,3.25-4.63,6.12-6.86,9.36C155.34,122.16,151.58,127.12,146.39,130.49Z"/><path class="cls-8" d="M178.55,75.63a1.54,1.54,0,0,0,.65.59c0-.41.63-1.79.24-2s-1.28.55-1.45.74A4.56,4.56,0,0,1,178.55,75.63Z"/></g><g id="Layer_4" data-name="Layer 4"><path class="cls-15" d="M263.94,215.64c-1.75-.52-1.83-9.75-4.1-11.29-.8,1.91-.08,4.9-.85,6.48a2,2,0,0,1-1.27,1c-.85.13-1.39-.52-1.59-1.31a14.09,14.09,0,0,1-.43-2.66c-.13-2.63-.2-5.26-.25-7.89a4.6,4.6,0,0,1,1.8-3.92,34.11,34.11,0,0,1,3.75-2.5c2.06-1.17,1.59-.07,2.89,1.94s2.74,4.05,4.4,6.81c3.35,5.56,1.92,5.65.69,9.38a12.58,12.58,0,0,1-.68,1.67C267.2,215.56,266.61,215.86,263.94,215.64Z"/><path class="cls-15" d="M261.94,186.75s.1,5.49,1.08,7.86l-5.92,2.12a45.47,45.47,0,0,0-.55-7.92l-.62-2.6Z"/><path class="cls-15" d="M182.63,223.9c1.66-.49,1.84-9.72,4-11.24.74,1.92,0,4.9.73,6.49a1.94,1.94,0,0,0,1.19,1c.8.14,1.33-.5,1.52-1.29a14.82,14.82,0,0,0,.44-2.66q.22-3.94.33-7.88a4.71,4.71,0,0,0-1.66-3.94,32.27,32.27,0,0,0-3.52-2.55c-1.93-1.19-1.5-.09-2.76,1.9s-2.64,4-4.24,6.75c-3.24,5.52-1.88,5.62-.76,9.37a13,13,0,0,0,.63,1.67C179.54,223.78,180.1,224.09,182.63,223.9Z"/><path class="cls-15" d="M184.85,195s-.16,5.49-1.11,7.84l5.58,2.19a48,48,0,0,1,.61-7.92l.61-2.6Z"/><path class="cls-15" d="M243.41,297.9a45.38,45.38,0,0,1,1.74,4.9c.74,3.17,1.29,6.37,1.88,9.57.24,1.31-.43,1.75-2,1.18a7,7,0,0,1-2.57-1.48c-3.5-3.67-6.57-7.53-7.66-12.16-.35-1.48-.12-2,1.79-2.09C238.83,297.7,241.07,297.87,243.41,297.9Z"/><path class="cls-15" d="M202,311.55a14.71,14.71,0,0,1,1-2.59c1.51-2.41,3.08-4.8,4.71-7.13,1-1.38,2.15-2.43,4.12-2,.91.22,1.93,0,2.87.1s1.24.59.88,1.51a17.68,17.68,0,0,1-7.56,9.22A7.43,7.43,0,0,1,202,311.55Z"/><path class="cls-16" d="M236.71,309.1l-1.22,4.34c-.3-.24-.68-.4-.75-.64a11.11,11.11,0,0,1-.67-3.1c0-2.49.32-5,.45-7.46,0-.65.22-1.14.89-1.2a1.26,1.26,0,0,1,1.36,1c.57,1.57,1.11,3.17,1.82,4.68a17.61,17.61,0,0,0,5.93,6.85,7.64,7.64,0,0,0,1.11.53c.34-4.45-.74-8.58-1.56-12.77.74-.49,1.29-.05,1.77.36a2.28,2.28,0,0,1,.66,1,36.61,36.61,0,0,1,1.75,6.12c.36,2.86.24,5.79.36,8.68.07,1.66-.78,2.18-2.38,1.57a13.91,13.91,0,0,1-6.09-4.45,44.55,44.55,0,0,1-2.47-3.84C237.39,310.31,237.15,309.87,236.71,309.1Z"/><path class="cls-16" d="M208.12,300.64l-5.51,10,.19.25a29.29,29.29,0,0,0,3.08-1.4A20.67,20.67,0,0,0,212,304.4c.77-1,1.67-1.94,2.52-2.89a1.38,1.38,0,0,1,1.82-.32c.6.32.69.82.66,1.53-.15,2.67-.16,5.35-.24,8,0,.68,0,1.4-.92,1.54a1.68,1.68,0,0,1-1.95-1.5c-.13-.77-.19-1.54-.31-2.65-.53.58-.84.9-1.13,1.25-3.36,4.11-7.82,6-13,6.44a3.61,3.61,0,0,1-1.09-.08c-1.19-.27-1.58-.78-1.26-2a14,14,0,0,1,1.24-3.22,36.56,36.56,0,0,1,6.47-8.79C205.65,301,206.48,300.11,208.12,300.64Z"/><path class="cls-17" d="M193.58,191.73l-.41,8.71c-1.71.27-3.19.53-4.67.74a8.44,8.44,0,0,1-6.42-1.35,1.59,1.59,0,0,1-.81-1.3c0-1.21-.27-2.42-.19-3.62a13.38,13.38,0,0,1,.72-2.67C185.76,192.16,189.46,191.06,193.58,191.73Z"/><path class="cls-17" d="M263.7,192.13a22.78,22.78,0,0,1-7.51,2.36,2.48,2.48,0,0,1-3.09-1.88,9.45,9.45,0,0,1-.41-1.58c-.16-.94-.28-1.89-.41-2.79a34.67,34.67,0,0,1,10.24-3.34C263.39,187.28,263,189.76,263.7,192.13Z"/><path class="cls-18" d="M246.49,104.91c.66.58,1.2,1,1.72,1.53a20.15,20.15,0,0,1,2.6,3.15c3.23,4.46,4.11,9.67,5.32,14.75,1,4.13,1.6,8.35,2.39,12.52a109.6,109.6,0,0,1,2,15.21c.13,2.87.71,5.72,1,8.59.22,2,.42,3.93.51,5.9A78.46,78.46,0,0,0,264,180c.24,1.09.45,2.18.7,3.27a1.68,1.68,0,0,1-.75,2c-2.3,1.46-4.49,3.14-7.39,3.35a3.39,3.39,0,0,0-.77.21c-1.91.62-2.48.44-3.2-1.42a42.92,42.92,0,0,1-1.79-5.64c-1.3-5.57-2.74-11.13-3.67-16.76a251.76,251.76,0,0,1-2.7-25.68c-.23-3.8-.6-7.6-.74-11.41a85.49,85.49,0,0,1,1.92-20.57A18.41,18.41,0,0,1,246.49,104.91Z"/><path class="cls-18" d="M181.07,191.82a24.54,24.54,0,0,0,.68-2.92c.47-4.78.83-9.58,1.35-14.36.61-5.63,1.37-11.24,2-16.87.34-3,.51-6.07.82-9.09.66-6.36,1.22-12.73,2.08-19.07.69-5.06,1.66-10.09,2.68-15.1a12.15,12.15,0,0,1,3.9-6.68,2.42,2.42,0,0,1,3.89.78,12.92,12.92,0,0,1,.86,5.16c.16,3.4.12,6.8.2,10.2,0,1,.21,2.05.29,3.08a5.18,5.18,0,0,1,0,2.16c-.73,1.8-.42,3.6-.29,5.41.16,2.25.33,4.49.57,6.73a85.25,85.25,0,0,1-.78,21.31c-.78,5.35-1.63,10.69-2.36,16-.35,2.59-.44,5.22-.76,7.82-.25,2-.67,4.07-1,6.11-.12.72-.57,1-1.23,1.13a20.36,20.36,0,0,1-7.25.2c-1-.14-1.94-.15-2.9-.28C182.53,193.4,181.36,193,181.07,191.82Z"/><path class="cls-19" d="M248.1,299.13l-3,.39a2.51,2.51,0,0,1-.84.09c-3-.73-5.93.06-8.85.62a8.72,8.72,0,0,1-1.8.19c-2.43-.05-3-.67-3.31-3.12-.25-2.05-.64-4.09-.89-6.14-.18-1.45-.17-2.92-.35-4.37-.41-3.32-1-6.63-1.31-10-.4-4.06-.74-8.13-.89-12.21-.26-6.94-.35-13.88-.51-20.82-.1-4.44-.16-8.88-.3-13.32a76.21,76.21,0,0,0-.52-10.21c-.7-4.2.06-8.52-1.32-12.77h-2.15c-.07,1.54-.16,3.16-.2,4.78-.11,4.45-.25,8.89-.27,13.34,0,4.14.07,8.28.16,12.41.07,3.4.23,6.8.32,10.2.09,3.16.24,6.32.19,9.48,0,2.19-.34,4.37-.53,6.55-.06.73-.14,1.46-.18,2.19-.25,4-.46,8-.73,12q-.53,7.93-1.11,15.85a31.31,31.31,0,0,1-.4,3.81,7,7,0,0,1-.9,1.79c-5.1.5-10,1.06-15.06-.29a23.33,23.33,0,0,1-.3-2.8,104.19,104.19,0,0,0-.72-14.77c-.54-4.22-.86-8.48-1.16-12.73-.53-7.47-1-14.95-1.45-22.42-.28-4.19-.6-8.38-.91-12.57-.19-2.61-.35-5.22-.6-7.83-.56-5.88-1.23-11.74-1.73-17.63-.3-3.46-.36-6.93-.53-10.4-.12-2.3-.17-4.61-.41-6.9-.08-.78.16-1.23.74-1.45a6.72,6.72,0,0,1,2.28-.48c2.56,0,5.11.09,7.67.14a4.69,4.69,0,0,0,.73,0,49.65,49.65,0,0,1,10.91-.24,63.45,63.45,0,0,0,6.58.06c2.8-.06,5.59-.18,8.38-.31,1,0,1.93-.25,2.9-.3,2.06-.12,4.12-.16,6.18-.3a37.93,37.93,0,0,0,4.89-.48,2.67,2.67,0,0,1,3.38,3c-.43,6.62-.6,13.25-.87,19.88-.19,4.5-.48,9-.55,13.51-.1,6.51,0,13-.08,19.53,0,2.68-.25,5.35-.34,8s-.12,5.11-.16,7.67-.06,5.35-.08,8q-.07,8.49-.13,17c0,3,0,6,0,8.94C248,295.57,248.07,297.38,248.1,299.13Z"/><path class="cls-16" d="M197.92,108.28c.8-1.51,2.45-2.12,4-2.66,4.66-1.58,9.27-3.41,14.16-4.21,3.36-.55,6.74-1,10.13-1.29a9.46,9.46,0,0,1,5.06,1.36,21.85,21.85,0,0,0,10,2.33,15,15,0,0,1,4.46.8c1,.31,2.13.89,1.54,2.39a.32.32,0,0,0,0,.18c1.22,4.62.58,9.32.51,14s-.69,9.46-.82,14.19c-.08,2.78-1,5.37-1.24,8.09a30.37,30.37,0,0,0-.17,4.9c.2,3.28.51,6.55.87,9.82.4,3.63.79,7.27,1.37,10.87,1,6.25,2.11,12.47,3.22,18.7a6.47,6.47,0,0,0,.87,3.11,1.63,1.63,0,0,1-.66,2.32,18.21,18.21,0,0,1-4,1.65A56.82,56.82,0,0,1,241,196q-4.78.69-9.59,1.18c-2.66.27-5.34.42-8,.62a56.47,56.47,0,0,1-9.28-.36c-3.09-.28-6.21-.22-9.3-.41a42.77,42.77,0,0,1-9.9-1.53c-1.79-.55-1.87-.59-1.86-2.54a23.87,23.87,0,0,1,.37-4.16q1.24-6.74,2.62-13.44c.6-2.92,1.44-5.79,2-8.73.78-4.43,1.36-8.9,2-13.35.3-2,.53-4.11.88-6.15a14.5,14.5,0,0,0-.6-6.3,56.34,56.34,0,0,1-2.1-9c-.4-4-.17-8.15-.27-12.22,0-1.68.31-3.33-.23-5-.34-1.07.11-2.39.17-3.6C197.95,110,197.92,109.15,197.92,108.28Z"/><path class="cls-18" d="M225.47,149.22c-1-.07-1.43-.77-1.77-1.48-1.07-2.25-2.05-4.55-3.2-6.77q-3.77-7.3-7.68-14.53a62.34,62.34,0,0,1-5.2-11.85c-1.13-3.85-2.34-7.68-3.53-11.56,2.56-1.59,11.82-2.58,12-2.15,1.24,2.84.58,7.25,1.73,10.13,1,2.48,1,5.31,1.82,7.85,1.72,5.31,3.78,10.53,4.55,16.11.42,3.05,1.05,6.08,1.41,9.14C225.81,145.75,226.36,147.45,225.47,149.22Z"/><path class="cls-18" d="M242.74,102.11c-.33,3-3,7.64-3.65,10.61a38.15,38.15,0,0,1-2.31,7.09c-2.13,5-4.5,10-6.63,15a44.81,44.81,0,0,0-1.78,5.94c-.78,2.93-1.49,5.89-2.25,8.83a9.52,9.52,0,0,1-.72,1.44,7,7,0,0,1-.4-1.45c0-4-.08-8,.11-12.06a98.86,98.86,0,0,1,2.62-20.24q1.53-5.91,3.1-11.82a10.23,10.23,0,0,1,.51-1.36c1.27-3,2.48-3.62,5.73-3C238,101.29,242.8,101.47,242.74,102.11Z"/><path class="cls-17" d="M227.71,130.75c-.79.37-1.39.24-1.77-.48-.54-1-1.11-2-1.55-3.07-.77-1.84-1.49-3.7-2.17-5.58a1.33,1.33,0,0,0-1.61-1.07,5,5,0,0,1-1.62-.13c-2-.42-2.6-1.51-1.94-3.46s1.19-3.67,1.85-5.72c-1.38.44-2.51.83-3.65,1.17a4.7,4.7,0,0,1-1.43.26c-1.23,0-1.76-.6-1.39-1.75,1-3.18,1.82-6.46,3.89-9.19a3.78,3.78,0,0,0,.63-.89c.53-1.47,1.64-1.93,3.09-2.12,1.7-.22,2.32,0,3,1.59a29.83,29.83,0,0,1,2,7.75c.24,2,.54,4,.79,6,.2,1.57.48,3.14.52,4.71a65.34,65.34,0,0,0,1.47,11.56A1.91,1.91,0,0,1,227.71,130.75Z"/><path class="cls-17" d="M240.46,105c-2.49,2.55-5.77,3.18-8.9,4.3,1.21,2.58,3.46,4.54,3.61,7.66a16.92,16.92,0,0,1-2.6.46,4,4,0,0,0-3.8,2.57c-1.13,2.49-2.25,5-3.39,7.47a29.06,29.06,0,0,1-2.75,5,3.4,3.4,0,0,1-.14-1.07q1.12-5.64,2.3-11.26c.46-2.2,1-4.4,1.48-6.59.82-3.48,1.64-7,2.51-10.43a12.47,12.47,0,0,1,.93-2.14c.61-1.31,1-1.61,2.42-1.37a5.25,5.25,0,0,1,3,1.34c1.28,1.25,3,2,4.08,3.58C239.43,104.69,239.94,104.74,240.46,105Z"/><path class="cls-18" d="M225.72,150.2a7.07,7.07,0,0,1,.33,1.28c.13,2,.2,4,.34,6,.19,2.66.49,5.31.62,8,.17,3.52.25,7,.3,10.56.05,3.34,0,6.69.07,10a38.46,38.46,0,0,0,.69,4.61c-1-.21-1.32-.55-1.6-1.75a30.55,30.55,0,0,1-.38-8c.22-6,0-11.92-.38-17.87-.23-3.7-.31-7.4-.44-11.11,0-.57.07-1.14.1-1.71Z"/><path class="cls-18" d="M207.82,173.45c-1.61,2.8-7.39,7.42-9.54,7.59Z"/><path class="cls-18" d="M232.61,131.82c3.33-1.15,6.8-1.4,10.63-2C241.49,131.22,234.94,132.44,232.61,131.82Z"/><path class="cls-18" d="M247,176.55c-4.37-1.47-7.32-4.82-11-7.21.52-.63.9-.26,1.28,0,1.51,1.13,3,2.31,4.54,3.37,1.35.91,2.8,1.67,4.2,2.51C246.5,175.49,247.15,175.58,247,176.55Z"/><path class="cls-18" d="M222.87,156.71c-.12.13-.38.63-.79.82-.56.26-1-.05-1.28-.66a7.13,7.13,0,0,1-.48-1.17c-.15-.83.46-1.86,1-1.87s1.43.87,1.5,1.58C222.9,155.72,222.88,156,222.87,156.71Z"/><path class="cls-18" d="M222.77,163.41c.31.54.61,1,.84,1.47a1.8,1.8,0,0,1-.29,2.3,1.53,1.53,0,0,1-2,.06,2.38,2.38,0,0,1-.62-2.64C221,164,221.47,163.72,222.77,163.41Zm-.24.71c-1.06.41-1.28,1-1.16,1.68,0,.28.48.74.6.7.33-.11.78-.4.83-.68A6.1,6.1,0,0,0,222.54,164.12Z"/><path class="cls-18" d="M243,126.93l-9.64,1.19c2.54-1.29,5.33-1.36,8-1.83a6.56,6.56,0,0,1,1.66.14Z"/><path class="cls-18" d="M235.86,145.43a11.51,11.51,0,0,1,1.62,0,3.26,3.26,0,0,0,3.21-1.61c1.42-2,1.91-4.3,2.61-6.55a6.26,6.26,0,0,1,.58-1.49,15.92,15.92,0,0,1-1,5,13.81,13.81,0,0,1-1,2.14c-1.46,2.75-2.81,3.29-6,2.45Z"/><path class="cls-17" d="M216.22,101.19a5.5,5.5,0,0,1,3.46-1.1c2,.12,11.79-.72,11.79-.72s1.43.92,2.06.72c0,0-6.93,43.53-7.47,45.34a6.76,6.76,0,0,1-1.52,2.75Z"/><path class="cls-18" d="M235.9,145.38a10.09,10.09,0,0,1-5.56-7.19,8.46,8.46,0,0,1-.09-1c.85.19.79.79.93,1.26.52,1.8,1,3.63,2.52,4.91.42.35.89.63,1.28,1a10.07,10.07,0,0,1,.88,1Z"/><path class="cls-15" d="M228.91,87.77c.43,4,.09,8,2.56,11.61-.48,1.51-.93,3.28-1.59,5-1.13,2.88-2.39,5.72-3.61,8.56-.24.56-.51,1.15-1.28,1.1s-1.1-.68-1.27-1.35a52.62,52.62,0,0,0-4.38-11.19,2.84,2.84,0,0,1,0-2.57c1.2-3,2.24-6.16,3.21-9.29.3-1,.73-1.42,1.74-1.47C225.81,88.06,227.3,87.9,228.91,87.77Z"/><path class="cls-20" d="M207.91,90c.7,1.19,1.35,2.2,1.89,3.26a10.8,10.8,0,0,1,1,2.51,19.21,19.21,0,0,1-.17,9.57c-1.19,4.21-2.43,8.41-3.5,12.66a32.51,32.51,0,0,0-.29,12.35c.05.41.32.79.38,1.2a11,11,0,0,1,0,1.49c-.28,0-.45.08-.5,0a52.15,52.15,0,0,0-4.23-3.91c-2.65-2.53-4.08-5.88-5.38-9.23-1.52-3.94-1.62-8.09-1.45-12.25a44.73,44.73,0,0,1,1.39-9.54,18.12,18.12,0,0,1,4.51-8.44,27,27,0,0,1,3-2.26c-1.32-2.39-1.52-5.17-1.75-8s-.6-5.69-1.1-8.51a28.86,28.86,0,0,1,.25-11,31.14,31.14,0,0,1,7.23-14.34A25,25,0,0,1,219.33,38a27.32,27.32,0,0,1,7-1.77,12.71,12.71,0,0,1,10.94,4.86,31.56,31.56,0,0,1,7,13.1,35.16,35.16,0,0,1,1.13,10.27c-.16,2.93-.51,5.81-.91,8.7a8.57,8.57,0,0,1-1.71,4c-2.7,3.71-6.44,6.09-10.4,8.15a36.15,36.15,0,0,1-11,3.9C217,89.93,212.58,90.87,207.91,90Z"/><path class="cls-15" d="M241.81,69.35c1.63.55,2.89,1.3,3.43,2.92a3.21,3.21,0,0,1-2.27,4.4,5.55,5.55,0,0,1-1.08.16A2,2,0,0,0,240,78.52c-.33,1.11-.79,2.17-1.16,3.26-1.09,3.14-3.53,4.94-6.34,6.37a7.23,7.23,0,0,0-1.57.92c-1.69,1.51-3.67,1.44-5.69,1.13a13.17,13.17,0,0,1-6.08-2.79,49.69,49.69,0,0,1-4.46-4,10.43,10.43,0,0,1-3.16-5.69c-2.8.66-4.09-1.2-5.36-2.89-1-1.31-.32-3.31,1.27-4.44.59-.42,1.23-.75,1.87-1.14,0-2.15,0-4.28,0-6.41a19.47,19.47,0,0,1,5.33-13.23,16.11,16.11,0,0,1,9.39-4.93c4.16-.76,7.64,1.18,10.62,3.86a21,21,0,0,1,5.72,9.4A27.25,27.25,0,0,1,241.81,69.35Z"/><path class="cls-20" d="M243.68,65.54a3.75,3.75,0,0,1-3.59-.36,21.37,21.37,0,0,1-5.49-5c-2.31-2.9-4.48-5.92-6.63-8.94A27.37,27.37,0,0,1,226.26,48c-2.82,6.68-6.22,12.9-12.1,17.38a28.31,28.31,0,0,1-4.09,2.39,2.84,2.84,0,0,1-1.43.14c-1-.07-1.46-.49-1.28-1.52a52.54,52.54,0,0,1,1.56-7.31,42.32,42.32,0,0,1,6.33-12.29c2.37-3.12,5.3-5.69,9.31-6.7a4.85,4.85,0,0,1,3,.09A13.24,13.24,0,0,1,234.06,45c2.08,3.05,4.26,6,6.2,9.18a26.35,26.35,0,0,1,3.6,10.06,4.1,4.1,0,0,1,0,.91C243.85,65.29,243.76,65.39,243.68,65.54Z"/><path class="cls-21" d="M227.66,41.66c.81,1.6,1.64,3.19,2.41,4.81a99.19,99.19,0,0,0,6.53,12,22.82,22.82,0,0,0,2,2.61c.66.75,1.45,1.39,2.26,2.15-.64.44-1.18,0-1.7-.32a16.06,16.06,0,0,1-4.45-4C232,55.43,228.14,46.38,227.66,41.66Z"/><path class="cls-21" d="M206.72,91.56a20.28,20.28,0,0,1,.43,2.55,64.92,64.92,0,0,1-.62,14.17c-.14.77-.08,1.58-.18,2.36q-.61,4.87-1.27,9.74a1.61,1.61,0,0,1-.65.9,32.28,32.28,0,0,1,.16-6.22q.26-1.8.42-3.61c.28-3.26.59-6.53.79-9.8.13-2.18.08-4.37.13-6.55,0-1.16-.36-2.38.25-3.48Z"/><path class="cls-21" d="M203.34,129.54a10.26,10.26,0,0,1-1.6-4.17,76,76,0,0,1-1.26-8.1,61.38,61.38,0,0,1,0-6.15,81.25,81.25,0,0,1,2-16.81c.14-.62.35-1.22.53-1.83l.5,0a4.68,4.68,0,0,1,.24,1.21c-.06.91-.21,1.81-.34,2.72-.68,4.5-1.58,9-2,13.51a45.88,45.88,0,0,0,.39,10.71c.25,1.68.5,3.35.81,5,.15.83.43,1.63.66,2.44.12.44.26.88.4,1.33Z"/><path class="cls-21" d="M220,41.42a81.77,81.77,0,0,0-9.81,12.87c-1.19,1.91-2.3,3.87-3.53,5.76a25.49,25.49,0,0,1-2.07,2.42C205.16,57.41,215.56,43.34,220,41.42Z"/><path class="cls-21" d="M218.6,46.87c-4.72,6.94-8.23,14.66-13.85,21C208.34,60.16,213.29,53.38,218.6,46.87Z"/><path d="M210.49,92.09c-3.3-.85-6-2.86-8.73-4.7l1.58-1.74c3,.67,5.44,2.7,8.31,4.45-1.67.9-2.81-.16-4.18-.13l3.28,1.59Z"/><path class="cls-21" d="M242.87,62.74a6.76,6.76,0,0,1-2.56-2.47A47.9,47.9,0,0,1,234.83,50c-.72-2-1.69-4-2.27-6.18a11.47,11.47,0,0,1,1.09,1.44c1.3,2.4,2.55,4.83,3.82,7.24Z"/><path class="cls-21" d="M221.64,47.22C219,55,216,62.5,210.14,68.5,214.82,61.87,217.78,54.31,221.64,47.22Z"/><path class="cls-21" d="M235.27,41.27a17.86,17.86,0,0,1,3.5,4.53A28.15,28.15,0,0,1,242,53.5c.45,1.51,1.13,3,1.7,4.43.14.36.24.74.36,1.11l-.35.17a27.88,27.88,0,0,1-1.54-2.78c-1-2.41-1.82-4.91-2.91-7.29C238,46.46,236.6,43.88,235.27,41.27Z"/><path class="cls-22" d="M212.43,65.81a27.12,27.12,0,0,1,8.39-.41,3.9,3.9,0,0,1,3.24,1.53,3.7,3.7,0,0,1,3.42-.46,2.33,2.33,0,0,0,1.55-.16,7.54,7.54,0,0,1,2.72-.53c1.88,0,3.76.14,5.63.32a15.64,15.64,0,0,1,2.52.7c-.85,1.95-1,3.93-2.3,5.46a3.1,3.1,0,0,1-3.17,1.28c-1.18-.24-2.43-.18-3.62-.41A3.13,3.13,0,0,1,227.95,70c-.09-.77-.1-1.54-.16-2.53a17.63,17.63,0,0,0-2.24,0c-.88.11-1.34.52-1.52,1.59-.68,4.15-1.67,4.35-5,4.57a10.24,10.24,0,0,1-3.28-.37,3.61,3.61,0,0,1-2.89-3.06C212.63,68.75,212.56,67.27,212.43,65.81Zm9.25,6.51a17.59,17.59,0,0,0,.77-2.07,23.56,23.56,0,0,0,.43-2.76.86.86,0,0,0-.85-1,42.82,42.82,0,0,0-8.55-.07c.09,1.11.14,2.1.27,3.08.3,2.25.73,2.65,3,3a6.74,6.74,0,0,0,1.15.09C219.16,72.49,220.37,72.4,221.69,72.32Zm16.83-5.12c-2.64-.55-7.73-.44-9.57.18a3.22,3.22,0,0,0-.09.6c0,.72,0,1.44.12,2.15.15,1.37.43,1.82,1.77,2a32.33,32.33,0,0,0,4.78.12,2.1,2.1,0,0,0,1.2-.73C237.86,70.33,238.13,68.79,238.52,67.21Z"/></g></g></svg>