<svg xmlns="http://www.w3.org/2000/svg" xmlns:xlink="http://www.w3.org/1999/xlink" viewBox="0 0 360 360"><defs><style>.cls-1,.cls-11,.cls-7{fill:#dde5ed;}.cls-2{isolation:isolate;}.cls-3{fill:#b5d0e1;}.cls-4{fill:#4dc1bb;}.cls-5{fill:#1b3e6f;}.cls-6{clip-path:url(#clip-path);}.cls-7{opacity:0.5;}.cls-11,.cls-7{mix-blend-mode:multiply;}.cls-8{fill:#f43662;}.cls-9{fill:#22d3c5;}.cls-10{clip-path:url(#clip-path-2);}.cls-11{opacity:0.6;}.cls-12{fill:#00c1de;}.cls-13{fill:#f3e4b2;}</style><clipPath id="clip-path"><path class="cls-1" d="M37.58,191.77c-.27,7.1,2.34,11.67,5.91,15.63A198.93,198.93,0,0,0,68,230.11a36,36,0,0,0,4,2.61c1.89,1.12,3.75,2.19,6.12,2.23,2,0,3,1.44,3.05,3.34.14,5.46.3,10.92.42,16.38.08,3.56-1.48,4.79-4.8,3.52a32.52,32.52,0,0,1-7.36-3.59,183.22,183.22,0,0,1-14.67-11.43c-3.12-2.75-5.39-6.45-8.44-9.3-4.24-4-6.8-9-10-13.68S30,210.66,28.91,205c-1.78-9.06-.9-17.79,3.71-26,2.27-4,4.52-8.08,6.83-12.08a15,15,0,0,1,6.19-5.7c4.46-2.37,8.89-4.57,14.24-4.43,3.85.1,7.72-.86,11.59-1,1.92-.05,3.88.7,5.8,1.17a4.11,4.11,0,0,1,3.07,3.31,21.1,21.1,0,0,1,.3,6.22c-.25,2.32-1.5,2.9-3.76,2.11Q72,166.9,67.14,165a13.21,13.21,0,0,0-7.13-.66c-2.16.37-4.37.51-6.52.93-4.33.85-7.31,3.7-9.53,7.22a89.52,89.52,0,0,0-4.72,9.25C37.51,185.4,37.88,189.37,37.58,191.77Z"/></clipPath><clipPath id="clip-path-2"><path class="cls-1" d="M102.27,158.36c0-2.3.28-4.44,1.9-6.32a4.76,4.76,0,0,0,.72-3c-.17-11.6,1.3-23.05,3.28-34.44a170.3,170.3,0,0,1,4.07-18.78c1.62-5.51,3.46-11.16,6.41-16,4.92-8.1,11.29-15,20.58-18.56,6.37-2.46,12.36-2.28,18,1.46,5.3,3.49,9.48,7.79,10.3,14.64.45,3.79,1.79,7.46,2.62,11.21.62,2.78,1.11,5.59,1.58,8.4,1,5.88,1.91,11.77,2.86,17.66.17,1.07.39,2.16-.73,2.89-1.29.83-2.42,0-3.17-.75a7.22,7.22,0,0,1-2.08-3.41c-.76-3.55-1.09-7.19-1.8-10.74-1.32-6.59-2.68-13.19-4.26-19.72a108.83,108.83,0,0,0-3.47-11c-1.35-3.76-3.26-5.05-7.25-5-4.21,0-7.8,1.76-11.23,4.08-4.27,2.89-6.49,7.21-8.73,11.59-1.79,3.51-3.77,6.92-5.47,10.47a54.55,54.55,0,0,0-4.8,14.22c-.35,2-.82,4-1.18,6-1.49,8.22-1.42,16.54-1.55,24.85-.07,4.47,0,8.95.17,13.41a6.73,6.73,0,0,0,1.1,3.54c2.12,2.92,1.57,6.11,1.27,9.27-.13,1.35-2.84,2.65-5,2.61-2.88-.06-5.75-.19-8.63-.25-3.06-.06-4.22-.86-5-3.86A36.12,36.12,0,0,1,102.27,158.36Z"/></clipPath></defs><title>Icon_Event_Garden_Lover_01_3C</title><g class="cls-2"><g id="Background"><circle id="_27.62.111" data-name="27.62.111" class="cls-3" cx="180" cy="180" r="180"/></g><g id="Artwork"><path class="cls-4" d="M161.31,297.25l-4.37.67c-.46.07-.92.18-1.38.21-6.88.45-13.78.67-20.62,1.38-9.12.95-18.24.72-27.36.59-4.35-.06-8.7-.61-13.05-.83-3.63-.19-7.27-.32-10.91-.33a22.82,22.82,0,0,1-9.69-2.4c-5.5-2.58-8.08-11.42-2.77-16.8a21.56,21.56,0,0,1,2.26-2.07c3.68-2.79,7-6.18,11.77-7.21,1.48-.32,2.91-.88,3.92.81a.83.83,0,0,0,.43.35c4.8,1.43,8.44,5.05,13.06,6.83a7.56,7.56,0,0,0,1.59.55c5.53.78,10.9,2.39,16.58,2.42a58.14,58.14,0,0,1,10.54,1.35A92.52,92.52,0,0,0,148.83,284c9,0,17.82-1.67,26.75-2.33a38.51,38.51,0,0,0,5.56-.64c5.18-1.16,10.33-2.45,15.48-3.72,2.17-.53,4.31-1.17,6.47-1.73,1.6-.41,3.41,1.54,3,3.28a4.55,4.55,0,0,1-.82,1.74,18.86,18.86,0,0,1-7.94,6.33c-3.9,1.5-7.65,3.39-11.58,4.83-2.87,1.05-5.91,1.68-8.88,2.45-3.69,1-7.37,1.93-11.08,2.8-1.44.34-2.94.41-4.42.6Z"/><path class="cls-1" d="M135.51,144.18a61.76,61.76,0,0,0,11.35.73c4.64-.28,9.34.49,14,.81.5,0,1,.17,1.49.15,7.3-.21,14.61-.38,21.91-.69,6.07-.26,12.16-.46,18.22-.83-.59-2.86-1.28-5.7-1.72-8.59a21.24,21.24,0,0,0-3.95-9.74,14.29,14.29,0,0,0-4.75-4.07,37.72,37.72,0,0,0-8.12-2.85c-3.29-.79-6.66-1-9.86.59-2.15,1.05-4.24,2.25-6.41,3.25a115.35,115.35,0,0,0-24.06,14.71c-2.71,2.17-5.39,4.39-8.13,6.52Z"/><path class="cls-1" d="M265.08,169.33c-.76-.22-1.26-.56-1.63-.44-4.27,1.47-8.6.46-12.91.58-3.48.1-6.95,1-10.42,1.51a33.88,33.88,0,0,1-3.68.5c-4.95.2-9.9.32-14.85.5a6.61,6.61,0,0,0-2.24.42c-3,1.24-6.17,1.09-9.28,1.22a2.23,2.23,0,0,1-1.84-1,22.91,22.91,0,0,1-1.34-5c-.32-2.13-.37-4.3-.52-6.27,8.86-.89,17.33-1.84,25.83-2.54,4.45-.36,8.94-.2,13.4-.38,3.24-.13,6.47-.39,9.7-.69,5.32-.48,10.62-1,15.94-1.54a17.53,17.53,0,0,0,5.2-1.44c2.08-.87,4.42-1,6.66-1.4.23,0,.54.18.76.36a7.21,7.21,0,0,1,1.34,8.53c-2.11,3.37-4.35,6.66-6.63,9.9-3.85,5.48-7.93,10.77-11.63,16.37-5.21,7.9-10.09,16.07-15.25,24-2.15,3.3-4.73,6.25-7,9.46-1.46,2.06-2.69,4.31-4.06,6.44q-4.89,7.57-9.83,15.1c-1.95,3-4,5.89-5.86,8.94-2.7,4.42-6.65,7.49-9.81,11.41a17.86,17.86,0,0,1-3.26,3.44c-2,1.44-3.13.85-3.63-1.76a28.48,28.48,0,0,1-.49-5c0-3.6,0-7.2,0-10.8a4.93,4.93,0,0,1,1-2.52,339.76,339.76,0,0,1,27.53-35.9c4.46-5,8.12-10.87,12.13-16.36.54-.74.95-1.6,1.54-2.28C255.93,185.84,260.25,177.65,265.08,169.33Z"/><path class="cls-1" d="M289.55,126.09c5.58,2.32,8.13,6.68,13.56,9.11a63.94,63.94,0,0,1,7.31,3.61,33,33,0,0,1,3.15,2c3.26,3.47,2.56,3-1.65,5a51.22,51.22,0,0,0-9.57,5.52,96.39,96.39,0,0,1-10.43,6.42c-1.71,1-2.55.78-3.73-.92a39.52,39.52,0,0,1-3.25-5.55,9.61,9.61,0,0,1-.29-7.34c1.4-4.25,2.75-8.51,4-12.81A48.08,48.08,0,0,0,289.55,126.09Z"/><path class="cls-1" d="M321.43,139a28.53,28.53,0,0,1-11.2-2.68c-6.48-3.23-12.53-7-17.61-12.71-1.62-1.81-3.35-3.3-4.11-5.81-1.21-4,0-6.81,3.61-8.19a11.88,11.88,0,0,1,6.77-.34c8.59,1.75,16.28,5.76,23.48,11.08a46.55,46.55,0,0,1,8.89,8.83,3.81,3.81,0,0,1,.69,3.41c-.71,4.19-3.25,5.58-6.64,6Z"/><path class="cls-5" d="M300.16,114.36c0,1.31-.73,2.27-1.51,2.23a1.17,1.17,0,0,1-1.26-1.35,1.72,1.72,0,0,1,1.69-1.63C299.47,113.56,299.93,114.19,300.16,114.36Z"/><path class="cls-5" d="M305.92,121.25a1.84,1.84,0,0,1-1.83,2.09,1,1,0,0,1-1.12-1.2,1.94,1.94,0,0,1,2-1.66C305.35,120.53,305.7,121.06,305.92,121.25Z"/><path class="cls-5" d="M320.6,133.46c-.16,1.16-1.35,2-2.16,1.72a1.58,1.58,0,0,1-.81-1.17,1.5,1.5,0,0,1,1.88-1.5C320,132.69,320.34,133.22,320.6,133.46Z"/><path class="cls-5" d="M313.44,120a16.52,16.52,0,0,1-1,1.62c-.46.59-1.08,1-1.73.42-.28-.25-.56-1-.43-1.21a3.85,3.85,0,0,1,1.49-1.56C312.16,119.1,312.77,119.66,313.44,120Z"/><path class="cls-5" d="M311.51,125.93c0,1.16-1.2,2.26-2.09,2.09a1.6,1.6,0,0,1-1.07-.94c-.21-.8,1.25-2.09,2.16-1.9C310.93,125.27,311.27,125.74,311.51,125.93Z"/><path class="cls-5" d="M327.45,131c-1.36.92-1.36.92-2.81.39a2.29,2.29,0,0,1,1.74-2.63Z"/><path class="cls-5" d="M305.87,116.22a2,2,0,0,1,1.38-2c.33-.12,1,0,1.12.27a1.91,1.91,0,0,1-.1,1.5A1.54,1.54,0,0,1,305.87,116.22Z"/><path class="cls-5" d="M297.74,119.06c.05.73.3,1.43.08,1.76a2,2,0,0,1-1.44.79c-.38,0-1.07-.55-1.07-.87a1.91,1.91,0,0,1,.82-1.28A4.85,4.85,0,0,1,297.74,119.06Z"/><path class="cls-5" d="M315.58,128.11a7.58,7.58,0,0,1,1.21-1.66c.3-.24.89,0,1.36,0,0,.59.11,1.51-.15,1.7a7,7,0,0,1-2.15.68Z"/><path class="cls-5" d="M318,121.77c.39-.87.48-1.43.78-1.67a4.22,4.22,0,0,1,1.56-.67c.08,0,.46.62.39.74a6.41,6.41,0,0,1-1.22,1.57C319.27,121.93,318.79,121.77,318,121.77Z"/><path class="cls-1" d="M37.58,191.77c-.27,7.1,2.34,11.67,5.91,15.63A198.93,198.93,0,0,0,68,230.11a36,36,0,0,0,4,2.61c1.89,1.12,3.75,2.19,6.12,2.23,2,0,3,1.44,3.05,3.34.14,5.46.3,10.92.42,16.38.08,3.56-1.48,4.79-4.8,3.52a32.52,32.52,0,0,1-7.36-3.59,183.22,183.22,0,0,1-14.67-11.43c-3.12-2.75-5.39-6.45-8.44-9.3-4.24-4-6.8-9-10-13.68S30,210.66,28.91,205c-1.78-9.06-.9-17.79,3.71-26,2.27-4,4.52-8.08,6.83-12.08a15,15,0,0,1,6.19-5.7c4.46-2.37,8.89-4.57,14.24-4.43,3.85.1,7.72-.86,11.59-1,1.92-.05,3.88.7,5.8,1.17a4.11,4.11,0,0,1,3.07,3.31,21.1,21.1,0,0,1,.3,6.22c-.25,2.32-1.5,2.9-3.76,2.11Q72,166.9,67.14,165a13.21,13.21,0,0,0-7.13-.66c-2.16.37-4.37.51-6.52.93-4.33.85-7.31,3.7-9.53,7.22a89.52,89.52,0,0,0-4.72,9.25C37.51,185.4,37.88,189.37,37.58,191.77Z"/><g class="cls-6"><path class="cls-7" d="M46.69,199.37c-.27,5.95,2.34,9.78,5.91,13.1a190.21,190.21,0,0,0,24.56,19,37.31,37.31,0,0,0,4,2.18,13.73,13.73,0,0,0,6.12,1.87,2.79,2.79,0,0,1,3.05,2.8c.14,4.58.3,9.15.42,13.73.08,3-1.48,4-4.8,2.95a35.49,35.49,0,0,1-7.36-3c-5-3-10-6.15-14.67-9.58-3.12-2.31-5.39-5.41-8.44-7.8-4.24-3.32-6.8-7.58-10-11.46s-6.27-8-7.39-12.75c-1.78-7.6-3.58-19.11,1-26,2.27-3.38,7.2-2.57,9.51-5.92a14.38,14.38,0,0,1,6.19-4.78c4.46-2,8.89-3.83,14.24-3.71,3.85.09,7.72-.72,11.59-.82a26.77,26.77,0,0,1,5.8,1A3.76,3.76,0,0,1,89.46,173a14.88,14.88,0,0,1,.3,5.21c-.25,1.95-1.5,2.43-3.76,1.77q-4.9-1.44-9.75-3a15.62,15.62,0,0,0-7.13-.55c-2.16.31-4.37.43-6.52.78a14.61,14.61,0,0,0-9.53,6.05A71.31,71.31,0,0,0,48.36,191C46.63,194,47,197.36,46.69,199.37Z"/></g><path class="cls-8" d="M50.71,122.43a6.52,6.52,0,0,1-1.78-1,5.63,5.63,0,0,1,.15-7.58,2.3,2.3,0,0,1,1.59-.7c2,.36,6.38-1.17,6.68,4.52C56.6,120.48,54.83,122.68,50.71,122.43Z"/><path class="cls-8" d="M54.53,138.66a3,3,0,0,1-4.73-.14,7,7,0,0,1-1.17-6.89,2.26,2.26,0,0,1,3.31-1.42,12.16,12.16,0,0,1,2.92,2.11C56.71,134.19,55.56,137.41,54.53,138.66Z"/><path class="cls-8" d="M60.75,128.7c-2.1,0-3.16-1.2-3.27-3.81-.06-1.53,2.43-4.4,3.85-4.44,1.63,0,4.09,2.26,4.08,3.83A4.8,4.8,0,0,1,60.75,128.7Z"/><path class="cls-8" d="M44.2,131.42c-2,.06-3.49-1.82-3.23-4.13.16-1.44,2.16-3.94,3.26-4.07,1.41-.17,2.79.87,3.7,2.79C49,128.31,46.94,131.34,44.2,131.42Z"/><path class="cls-8" d="M60.37,133.78c.12-.28.5-.48.79-.65,1.12-.67,3.2.12,4.5,1.7,1.12,1.36,1.23,2.61.16,3.74a8.29,8.29,0,0,1-2.07,1.56c-1,.52-2.16,1.47-3.11.55S57.48,136.61,60.37,133.78Z"/><path class="cls-8" d="M60.47,148.26a3.81,3.81,0,0,1-3.87-2.59c-.65-1.87-.35-3.23,1.06-4.33a2.23,2.23,0,0,1,2.86.14c.56.39,1.08.83,1.66,1.18,2.48,1.49,2.54,3.51.08,5A7.77,7.77,0,0,1,60.47,148.26Z"/><path class="cls-8" d="M66.88,119.08a21,21,0,0,1,.69-2.12c.91-2,2.33-2.33,4.15-1.13,3.09,2,3.16,3.44.33,5.69-1.06.84-2.37,1.79-3.48.85A3,3,0,0,1,66.88,119.08Z"/><path class="cls-8" d="M69,125.47c1-2.44,2.47-2.69,4.32-.77.18.19.34.4.51.6,2.21,2.63,1.14,5.54-2.29,6.1a1.85,1.85,0,0,1-1.56-.56A3.74,3.74,0,0,1,69,125.47Z"/><path class="cls-8" d="M66.9,114.26a2.79,2.79,0,0,1-2.18,2.86c-1.76.54-2.08.41-3.11-1.26-1.34-2.18-1.33-4.08,0-5.48a1.79,1.79,0,0,1,2.09-.63A6,6,0,0,1,66.9,114.26Z"/><path class="cls-8" d="M70.76,135a11.5,11.5,0,0,1,1.44-2.16,1.66,1.66,0,0,1,2.56,0A16.2,16.2,0,0,1,76,134.09c1.48,1.85,1.41,2.59-.34,4.2-.84.77-1.68,1.61-3,1.21C71.89,139.25,70.58,136.52,70.76,135Z"/><path class="cls-4" d="M124.4,141c3.25-4.29,7.59-6.13,12.32-7.27,3.55-.85,7.13-1.64,10.73-2.28a13.52,13.52,0,0,1,4.44,0A25.41,25.41,0,0,1,164,136.34a29.15,29.15,0,0,1,2.44,2.48,21.59,21.59,0,0,1-1.89,1.26c-3.6,1.82-7.14,3.77-10.83,5.37-6.26,2.72-12.68,2.08-19,.27a76.11,76.11,0,0,1-7.71-2.66A12.07,12.07,0,0,1,124.4,141Z"/><path class="cls-4" d="M160.44,104.58c1.46,1,.92,2,.61,2.75a40.66,40.66,0,0,1-2.2,4.88c-3.2,5.85-7.21,11-13,14.56-5,3-10.29,4.88-16.41,4.13.12-3.14,1.8-5.57,3.44-7.89a42.65,42.65,0,0,1,20.19-15.58,11.09,11.09,0,0,1,2.46-.58C157.4,106.61,159.24,106.4,160.44,104.58Z"/><path class="cls-4" d="M109.49,146.29c-4.56-.67-9.25-.68-13.52-2.76a23.74,23.74,0,0,1-11.32-12.06c-.84-1.85-1.41-3.84-2.09-5.72,1.64-1.37,3.39-1.19,5-1,5.66.79,10.63,3,14.2,7.69a51.49,51.49,0,0,1,7.79,13.28C109.64,145.9,109.53,146.11,109.49,146.29Z"/><path class="cls-4" d="M92.56,117.91c-3.47,1.17-6.8,2.85-10.57,2.92a18.87,18.87,0,0,1-12.37-4.46c-1.27-1-2.38-2.21-3.54-3.3a4.63,4.63,0,0,1,3.21-2.49c4.3-1.48,8.63-1.69,12.84.32a40.94,40.94,0,0,1,10.31,6.59C92.53,117.58,92.52,117.77,92.56,117.91Z"/><path class="cls-4" d="M126,137.81c-.94-.34-1.69-.39-2.05-.79a17.15,17.15,0,0,1-3.05-4,49.11,49.11,0,0,1-2.73-33.52,15.07,15.07,0,0,1,1.51-3.62,2.09,2.09,0,0,1,1.59-.7c.88,0,1.13.66,1.25,1.53.59,4.06,1.17,8.14,2,12.16,1.4,7.09,2.6,14.21,2.44,21.46A74.94,74.94,0,0,1,126,137.81Z"/><path class="cls-4" d="M151.36,127.65c1.67-1.29,2.81-2.62,4.25-3.22,7.66-3.17,15.41-2.79,23.1-.05a5.49,5.49,0,0,1,2.05,1.43c1.17,1.26,1,2.43-.15,3.67-2.36,2.47-5.54,3.17-8.66,3.75a23.76,23.76,0,0,1-14.06-1.68A62.21,62.21,0,0,1,151.36,127.65Z"/><path class="cls-9" d="M100.48,110.66a3,3,0,0,1,3.69.6,24,24,0,0,1,2.89,3.06c3.4,4.87,6.24,10,7.51,15.91.53,2.47,1,5,1.52,7.42a18.09,18.09,0,0,0,1.11,2.7c-1,1.17-2.15.63-3-.23-2-1.87-3.86-3.8-5.68-5.81a30.55,30.55,0,0,1-8.34-20.38,6,6,0,0,1,0-.84C100.24,112.27,100.37,111.44,100.48,110.66Z"/><path class="cls-4" d="M94.87,123.08c-.48-.26-.81-.33-.95-.53-3.24-4.89-7.75-9-9.63-14.71-1-3.19-1.9-6.45-2.8-9.69-.3-1.07-.53-2.16-.74-3.25s.63-2.08,1.79-1.6a9,9,0,0,1,2.59,1.64,30.15,30.15,0,0,1,10.3,19.37c.2,1.77.42,3.53.62,5.29A4.07,4.07,0,0,1,94.87,123.08Z"/><path class="cls-4" d="M156.47,120.94c.11-.5.08-.83.23-1,3.57-4.25,6.06-9.43,10.78-12.68,2.62-1.8,5.35-3.44,8-5.13.89-.56,1.82-1.05,2.75-1.54s2.05,0,1.93,1.2a8.49,8.49,0,0,1-.8,2.79,28.53,28.53,0,0,1-14.84,14.53l-4.64,2A3.85,3.85,0,0,1,156.47,120.94Z"/><path class="cls-4" d="M131.47,122.56c-1-.39-1.57-.85-1.46-2.08.16-1.86,0-3.74,0-5.61.23-6.61,3.4-11.74,8.21-16a7.93,7.93,0,0,1,1.67-.88c1.6,2.45,1.13,4.91.5,7.23-.93,3.41-1.62,6.95-3.69,9.95-.74,1.07-1.47,2.14-2.23,3.2C133.54,119.72,132.56,121.05,131.47,122.56Z"/><path class="cls-4" d="M116.69,110.4a1.81,1.81,0,0,1-2.54.07c-1.46-1.16-3.14-2-4.66-3.12-5.38-3.84-7.91-9.31-8.82-15.68a7.93,7.93,0,0,1,.19-1.87c2.93,0,4.72,1.77,6.3,3.57,2.33,2.66,4.9,5.18,6.26,8.56.49,1.21,1,2.41,1.44,3.63C115.46,107.11,116,108.66,116.69,110.4Z"/><path class="cls-4" d="M96.85,136.47c.06,1.45-.21,2.4-1.79,2.93-2.39.8-4.62,2.05-7,3-8.32,3.27-16.38,2.11-24.26-1.56a10.72,10.72,0,0,1-2-1.59c2.18-3.3,5.48-4,8.69-4.51,4.73-.69,9.48-1.74,14.32-.79,1.72.34,3.45.67,5.17,1C92.21,135.43,94.39,135.93,96.85,136.47Z"/><path class="cls-4" d="M112.75,126.67a9.89,9.89,0,0,1-1.33-1.87,60.11,60.11,0,0,1-2.33-6.26,153,153,0,0,0-5.6-15.2c-2.54-6.26-4.91-12.59-7.3-18.91A5.67,5.67,0,0,1,96,80.19c7,15.09,12.34,30.55,17.37,46.12Z"/><path class="cls-4" d="M128,103.48c-.44-1.83-.88-3.37-1.18-4.94a196,196,0,0,0-6.21-22.61,22,22,0,0,1-.84-4.15,2.42,2.42,0,0,1,1.16-2.56c.21.52.42,1,.58,1.45A143.87,143.87,0,0,1,126.08,87c.93,4.62,1.93,9.23,2.93,13.83A2.35,2.35,0,0,1,128,103.48Z"/><path class="cls-8" d="M80.27,69.83a3.4,3.4,0,0,1-4.2-1.76,3.79,3.79,0,0,1,.85-5.15c1.24-1.06,2.59-1,4.24.42C82,64,83.92,67.69,80.27,69.83Z"/><path class="cls-8" d="M90,67.48a3,3,0,0,1,3.24,1.68c1.14,2.07,1.21,2.25-.17,3.65-1,1-1.88,2.13-3.3,2.47a1.67,1.67,0,0,1-1.44-.13A4.33,4.33,0,0,1,86.81,71C87.29,69.12,88.6,67.68,90,67.48Z"/><path class="cls-8" d="M74.35,73.74C74.11,71,75.31,70,78,70.91a9.79,9.79,0,0,1,2.62,1.67,2.07,2.07,0,0,1,.48,2.61,4.72,4.72,0,0,1-2.84,2.56,1.87,1.87,0,0,1-1.69-.29C75.51,76.42,74.34,75.4,74.35,73.74Z"/><path class="cls-8" d="M91.84,83.42c-.22-2.06.61-3.4,2.18-3.53,1.8-.15,4.49,1.56,4.72,3s-1.81,4.05-3.27,4.29S92.05,85.41,91.84,83.42Z"/><path class="cls-8" d="M93.54,59.85a4.12,4.12,0,0,1-1.91,4c-1.33.85-3.43-.2-3.89-2.22a11.55,11.55,0,0,1,.11-4.35,1.6,1.6,0,0,1,2-1.15C91.32,56.41,93.43,58.72,93.54,59.85Z"/><path class="cls-8" d="M85,91.87a2.42,2.42,0,0,1,1-2.72,2.1,2.1,0,0,1,2.62.2c.35.25.73.46,1.1.69,1.9,1.21,2.26,2,1.6,3.53-.59,1.39-1.9,1.9-3.76,1.26A3.78,3.78,0,0,1,85,91.87Z"/><path class="cls-8" d="M82.76,79.73a2.66,2.66,0,0,1,1.82-3c1.52-.3,4.61,1.67,4.72,3,.08.92-2.64,3.37-3.86,3.49C84.62,83.27,83,81.16,82.76,79.73Z"/><path class="cls-8" d="M83.4,89.67c-1.43,0-2.45,0-3.18-1.25s-1.62-2.58-.81-4.08a2,2,0,0,1,1.71-.8,6,6,0,0,1,4.53,3.14,2,2,0,0,1-.27,1.81A7.48,7.48,0,0,1,83.4,89.67Z"/><path class="cls-8" d="M84.7,58.74a3.56,3.56,0,0,1-.31,1.51,1.68,1.68,0,0,1-1.45.63,6.18,6.18,0,0,1-4-5.32c0-1.41.94-2.17,2.2-1.55A5.59,5.59,0,0,1,84.7,58.74Z"/><path class="cls-8" d="M108.92,59a6.52,6.52,0,0,1-1.78-1,5.63,5.63,0,0,1,.15-7.58,2.3,2.3,0,0,1,1.59-.7c4.67-.48,4.86.3,5.78,1.42C115.69,53.62,113.62,59.35,108.92,59Z"/><path class="cls-8" d="M112.74,75.25A3,3,0,0,1,108,75.1a7,7,0,0,1-1.17-6.89,2.26,2.26,0,0,1,3.31-1.42,12.16,12.16,0,0,1,2.92,2.11C113.74,69.57,113.76,74,112.74,75.25Z"/><path class="cls-8" d="M119,65.29c-2.1,0-3.16-1.2-3.27-3.81-.06-1.53,2.43-4.4,3.85-4.44,1.63,0,4.09,2.26,4.08,3.83A4.8,4.8,0,0,1,119,65.29Z"/><path class="cls-8" d="M102.41,68c-2,.06-3.49-1.82-3.23-4.13.16-1.44,2.16-3.94,3.26-4.07,1.41-.17,2.79.87,3.7,2.79C107.24,64.89,105.15,67.92,102.41,68Z"/><path class="cls-8" d="M117.15,74.06c-.46-2,1.93-4.17,2.22-4.35,1.12-.67,3.2.12,4.5,1.7,1.12,1.36,1.23,2.61.16,3.74A8.29,8.29,0,0,1,122,76.72c-1,.52-2.16,1.47-3.11.55A5.87,5.87,0,0,1,117.15,74.06Z"/><path class="cls-8" d="M118.68,84.85a3.81,3.81,0,0,1-3.87-2.59c-.65-1.87-.35-3.23,1.06-4.33a2.23,2.23,0,0,1,2.86.14c.56.39,1.08.83,1.66,1.18,2.48,1.49,2.54,3.51.08,5A7.77,7.77,0,0,1,118.68,84.85Z"/><path class="cls-8" d="M125.77,53.55c.91-2,2.33-2.33,4.15-1.13,3.09,2,3.16,3.44.33,5.69-1.06.84-2.37,1.79-3.48.85C125.85,58.17,124.61,54.9,125.77,53.55Z"/><path class="cls-8" d="M126.58,64c0-3,3.06-4.65,4.91-2.73.18.19.34.4.51.6,2.21,2.63,1.14,5.54-2.29,6.1a1.85,1.85,0,0,1-1.56-.56C127,66.5,126.31,65.47,126.58,64Z"/><path class="cls-8" d="M125.11,50.85a2.79,2.79,0,0,1-2.18,2.86c-1.76.54-2.08.41-3.11-1.26-1.34-2.18-1.33-4.08,0-5.48a1.79,1.79,0,0,1,2.09-.63A6,6,0,0,1,125.11,50.85Z"/><path class="cls-8" d="M129,71.55a11.5,11.5,0,0,1,1.44-2.16,1.66,1.66,0,0,1,2.56,0,16.2,16.2,0,0,1,1.27,1.31c1.48,1.85,1.41,2.59-.34,4.2-.84.77-1.68,1.61-3,1.21C130.1,75.84,128.78,73.11,129,71.55Z"/><path class="cls-8" d="M180,79.09a2.69,2.69,0,0,1-1.78-1,5.63,5.63,0,0,1,.15-7.58,2.3,2.3,0,0,1,1.59-.7,32,32,0,0,1,5.78,1.42c1.68.65,1.87,1.54.9,3.09A9.61,9.61,0,0,1,180,79.09Z"/><path class="cls-8" d="M183.84,95.32a3,3,0,0,1-4.73-.14,7,7,0,0,1-1.17-6.89,2.26,2.26,0,0,1,3.31-1.42A12.16,12.16,0,0,1,184.18,89C184.84,89.64,184.86,94.06,183.84,95.32Z"/><path class="cls-8" d="M190.06,85.36c-2.1,0-3.16-1.2-3.27-3.81-.06-1.53,2.43-4.4,3.85-4.44,1.63,0,4.09,2.26,4.08,3.83A4.8,4.8,0,0,1,190.06,85.36Z"/><path class="cls-8" d="M173.51,88.08c-2,.06-3.49-1.82-3.23-4.13.16-1.44,2.16-3.94,3.26-4.07,1.41-.17,2.79.87,3.7,2.79C178.34,85,176.25,88,173.51,88.08Z"/><path class="cls-8" d="M188.25,94.13c-.39-2.25,1.93-4.17,2.22-4.35,1.12-.67,3.2.12,4.5,1.7,1.12,1.36,1.23,2.61.16,3.74a8.29,8.29,0,0,1-2.07,1.56c-1,.52-2.16,1.47-3.11.55A4.84,4.84,0,0,1,188.25,94.13Z"/><path class="cls-8" d="M189.78,104.92a3.81,3.81,0,0,1-3.87-2.59c-.65-1.87-.35-3.23,1.06-4.33a2.23,2.23,0,0,1,2.86.14c.56.39,1.08.83,1.66,1.18,2.48,1.49,2.54,3.51.08,5A7.77,7.77,0,0,1,189.78,104.92Z"/><path class="cls-8" d="M196.18,75.74c-.31-1,3-4.45,4.84-3.25,3.09,2,3.16,3.44.33,5.69C200.3,79,199,80,197.88,79A4.85,4.85,0,0,1,196.18,75.74Z"/><path class="cls-8" d="M197.68,84.09c0-1.22,3.06-4.65,4.91-2.73.18.19.34.4.51.6,2.21,2.63,1.14,5.54-2.29,6.1a1.85,1.85,0,0,1-1.56-.56A3.56,3.56,0,0,1,197.68,84.09Z"/><path class="cls-8" d="M196.21,70.92A2.79,2.79,0,0,1,194,73.78c-1.76.54-2.08.41-3.11-1.26-1.34-2.18-1.33-4.08,0-5.48A1.79,1.79,0,0,1,193,66.4,6,6,0,0,1,196.21,70.92Z"/><path class="cls-8" d="M200.06,91.62c0-.94,3.14-3,4-2.18a16.21,16.21,0,0,1,1.27,1.31c1.48,1.85,1.41,2.59-.34,4.2-.84.77-1.68,1.61-3,1.21C201.2,95.91,199.88,93.18,200.06,91.62Z"/><path class="cls-1" d="M204,268.6c.3-8.11.14-16.19-.31-24.3-.5-8.92-.25-17.88-.65-26.81a232.29,232.29,0,0,1,.76-28.07c.79-10.41,1.16-20.8,0-31.21-.29-2.71-.25-5.47-.69-8.15q-.12-.76-.27-1.52c-3.23.12-6.47.14-9.71,0-1.88-.1-3.78.44-5.68.52-3.79.15-7.59.15-11.39.28s-7.56.48-11.34.45c-2.88,0-5.76-.48-8.64-.73-1-.08-2-.09-3-.13l-3.56-.1a7.34,7.34,0,0,0-1.49-.09c-5.19.93-10.2-.07-15.21-1.07h-.12c-4.12,0-8.25-.22-12.37-.38a3.07,3.07,0,0,0,.08,2.22,16.92,16.92,0,0,1,1,1.72,13.89,13.89,0,0,1,2.32,3.59c1.09,2.34,0,6.41,0,8.46a6.57,6.57,0,0,1-1.69,4.37c-.74.82-9,.82-10.88.82s-6-.55-7.79-1.53-.76-1-.76-1,3.5.34,7.19.75,9.3.41,11.74-.75.36-9.54.51-10.87a3.45,3.45,0,0,0-.67-2.18c-.27-.46-1.42-.64-1.59-1s-.77-1.06-.72-1.72c.06-.83,0-2,0-2.92-3.49-.14-7-.29-10.47-.51-1.35-.09-2.7-.25-4.05-.4,0,0,.31,3.61-.3,4.22s-1.68,2.18-2,2.36-2.05,2.55-2.08,3.8,0,5.49,0,5.49,1.1,3.49.21,3.11S99,162.49,99,160.6s-.4-6.17,0-6.65,2.05-2.74,3-3.22,1.65-2.8,1.65-3.68c0-.35,0-.63,0-.87-.78-.08-1.56-.14-2.34-.17a56.36,56.36,0,0,0-16.82,1.76c-.21.71-.23,1.82-.71,2.16-1.37,1-1.23,2.24-1.18,3.62q.58,15.61,1.14,31.23c.38,10.31.85,20.62,1.15,30.93.22,7.58.3,15.18.28,22.77,0,11.68-.16,23.36-.25,35a3.65,3.65,0,0,1,0,1.25c-.93,2.26.47,3.71,1.79,4.79,7.52,6.15,16.29,9.09,25.46,10.91l.29,0,9.69,1.06c5.58.62,11.17,1.12,16.72,1.95,2.66.4,5.25,0,7.86,0a81.49,81.49,0,0,0,11.17-1c5.25-.82,10.46-2,15.68-3a24.85,24.85,0,0,0,3.77-.81q10.62-3.85,21.2-7.85a16.56,16.56,0,0,0,3.63-2.07,4.89,4.89,0,0,0,2.16-4.56A53.52,53.52,0,0,1,204,268.6Z"/><path class="cls-1" d="M102.27,158.36c0-2.3.28-4.44,1.9-6.32a4.76,4.76,0,0,0,.72-3c-.17-11.6,1.3-23.05,3.28-34.44a170.3,170.3,0,0,1,4.07-18.78c1.62-5.51,3.46-11.16,6.41-16,4.92-8.1,11.29-15,20.58-18.56,6.37-2.46,12.36-2.28,18,1.46,5.3,3.49,9.48,7.79,10.3,14.64.45,3.79,1.79,7.46,2.62,11.21.62,2.78,1.11,5.59,1.58,8.4,1,5.88,1.91,11.77,2.86,17.66.17,1.07.39,2.16-.73,2.89-1.29.83-2.42,0-3.17-.75a7.22,7.22,0,0,1-2.08-3.41c-.76-3.55-1.09-7.19-1.8-10.74-1.32-6.59-2.68-13.19-4.26-19.72a108.83,108.83,0,0,0-3.47-11c-1.35-3.76-3.26-5.05-7.25-5-4.21,0-7.8,1.76-11.23,4.08-4.27,2.89-6.49,7.21-8.73,11.59-1.79,3.51-3.77,6.92-5.47,10.47a54.55,54.55,0,0,0-4.8,14.22c-.35,2-.82,4-1.18,6-1.49,8.22-1.42,16.54-1.55,24.85-.07,4.47,0,8.95.17,13.41a6.73,6.73,0,0,0,1.1,3.54c2.12,2.92,1.57,6.11,1.27,9.27-.13,1.35-2.84,2.65-5,2.61-2.88-.06-5.75-.19-8.63-.25-3.06-.06-4.22-.86-5-3.86A36.12,36.12,0,0,1,102.27,158.36Z"/><g class="cls-10"><path class="cls-11" d="M153.45,67.44a16.79,16.79,0,0,1,12.7,2.73c6,4.32,13.66,45.59,10.69,46.48s-5.17,6-7.69,2.14-7.12-20.06-7.75-25-3.63-23.62-5.05-24.57S153.45,67.44,153.45,67.44Z"/></g><path class="cls-5" d="M106.28,154c2.3,1,3.16,2.14,2.52,3.59a3.44,3.44,0,0,1-2,1.81,2.5,2.5,0,0,1-2.07-1.09,3.25,3.25,0,0,1,0-2.39A7.76,7.76,0,0,1,106.28,154Z"/><path class="cls-5" d="M113.13,155.06l1.27-.37c1.57-.47,2.14-.28,2.53.81a2.84,2.84,0,0,1-1.23,3.73,1.56,1.56,0,0,1-1.91-.58C112.92,157.62,113,156.44,113.13,155.06Z"/><path class="cls-5" d="M287.45,133.48c.57.56,1.12,1.14,1.7,1.69,2.13,2.05,4.2,4.2,6.43,6.12,3.33,2.86,6.79,5.53,10.17,8.32.75.62,1.69,1.24,1.41,2.65-2-.53-14.29-10.57-17.17-13.94C287.33,135.2,287.33,135.2,287.45,133.48Z"/><path class="cls-5" d="M312.08,147.11c-2.6-.86-21.61-14.15-23.43-16.35.79-.61,1.39,0,1.95.38,3.76,2.6,7.48,5.25,11.25,7.84,3,2,6,4,9,6C311.44,145.41,312.36,145.69,312.08,147.11Z"/><path class="cls-5" d="M88.42,254.74c1.1.2,2.21.31,3.28.6,4.63,1.23,9.33,2.25,13.86,3.84a109.37,109.37,0,0,0,17.23,4.12c4.61.82,9.3,1.13,14,1.57,4.85.45,9.71.92,14.57,1.14a107.86,107.86,0,0,0,23.55-1.23,89.21,89.21,0,0,0,17.79-5.34,26.67,26.67,0,0,1,3.94-.87,7.51,7.51,0,0,1-4.58,4.06c-3.24,1.27-6.52,2.46-9.84,3.44-2.15.63-4.42.8-6.63,1.23-9.12,1.8-18.28,1.57-27.46.81-4.11-.34-8.24-.3-12.34-.74-4.75-.51-9.48-1.26-14.19-2.07-3.41-.59-6.8-1.37-10.15-2.25-2.44-.64-4.8-1.61-7.22-2.37-4.49-1.42-9-2.77-13.48-4.19-.85-.27-1.66-.68-2.48-1Z"/><path class="cls-5" d="M186,269.7a3.23,3.23,0,0,1-2.61,2.29c-2.07.6-4.19,1-6.3,1.46-1.74.38-3.47.78-5.23,1.06a18.35,18.35,0,0,1-3.36.21c-2.7-.07-5.4-.16-8.09-.35q-12.18-.84-24.36-1.77c-4.73-.35-9.49-.52-14.19-1.17-10.5-1.45-21-2.88-30.56-8.42-1.45-.84-3.33-.87-4.53-3.13,1.92.67,3.53,1.09,5,1.78a88.18,88.18,0,0,0,29.38,7.59c11,1,22,1.95,33.06,2.8a111.34,111.34,0,0,0,14.32.5c4.47-.23,8.9-1.28,13.35-2C183.17,270.35,184.4,270,186,269.7Z"/><path class="cls-5" d="M196,180.77c-.61,1.89-1.41,2.82-3,3-6.69.87-13.37,1.81-20.05,2.77a131.19,131.19,0,0,1-22.93,1.36c-3.07-.1-6.15.24-9.23.34s-6,.12-9,.23c-6,.22-12,.52-18,.67a40.48,40.48,0,0,1-5-.55c-4.66-.48-9.31-1-14-1.39a30.89,30.89,0,0,0-3.88,0c-1.57.05-3.15.28-4.77-1.66a61.41,61.41,0,0,1,7.22-.36c5.79.4,11.56,1.31,17.36,1.49,6,.18,12-.27,18-.42,1.78,0,3.56,0,5.34,0,3.47,0,6.94,0,10.4-.15,4.86-.24,9.71-.6,14.56-1,4.57-.38,9.15-.79,13.7-1.33,6.7-.79,13.39-1.7,20.08-2.56C193.73,181.11,194.7,181,196,180.77Z"/><path class="cls-5" d="M196.17,188.79c-.13,1.92-1.12,2.58-2.25,2.72-4.82.6-9.44,2.59-14.4,2.37-1.65-.07-3.31.61-5,.79a136.9,136.9,0,0,1-22.37,1.06c-1.75-.1-3.53.44-5.3.52-3.54.15-7.09.15-10.63.28s-7.06.48-10.59.45c-2.69,0-5.37-.48-8.06-.73-.92-.08-1.84-.09-2.76-.13l-3.32-.1a6.4,6.4,0,0,0-1.39-.09c-6.06,1.17-11.86-.7-17.71-1.79-2.15-.4-4.51-.4-6.24-2.32,4.1.63,8.14,1.33,12.2,1.86a53.87,53.87,0,0,0,10.59.73c4.33-.28,8.72.49,13.08.81a13.65,13.65,0,0,0,1.4.15c6.82-.21,13.64-.38,20.45-.69,8-.36,16-.62,24-1.38,5.67-.54,11.29-1.82,16.92-2.83,3.23-.58,6.43-1.32,9.66-1.92A5.73,5.73,0,0,1,196.17,188.79Z"/><path class="cls-5" d="M183.78,200c0,1.73-1,2.09-2,2.27a83.26,83.26,0,0,1-8.9,1.4,163.73,163.73,0,0,1-21.37.43c-5.33-.33-10.69.1-16,.07-3.27,0-6.54-.43-9.81-.38-4.4.07-8.8.51-13.2.63-3.37.09-6.75,0-10.11-.2a64.36,64.36,0,0,1-8-1.2,12.24,12.24,0,0,1-6.88-3.75c2.14.52,4.26,1.16,6.42,1.52a76.65,76.65,0,0,0,17.59,1.32,183,183,0,0,1,23.34.11c4.57.29,9.18,0,13.77-.07,2.42,0,4.85-.09,7.27-.09a126.48,126.48,0,0,0,25.73-2.43,4.84,4.84,0,0,1,1.4-.07A2.92,2.92,0,0,1,183.78,200Z"/><path class="cls-5" d="M200.61,197.53a9.66,9.66,0,0,1-2.33,1.3c-2.9.67-5.82,1.26-8.75,1.71-1.47.22-2.89-.29-4.61-1.39,3-.62,5.59-1.25,8.17-1.66,2.43-.39,4.87-1.54,7.35-.86Z"/><path class="cls-5" d="M188,269.36c3-2.4,7.56-4,10-3.34-.45.48-.73,1-1.14,1.2q-3.17,1.58-6.4,3A1.67,1.67,0,0,1,188,269.36Z"/><path class="cls-4" d="M136.09,114.36a10.69,10.69,0,0,1,.71-1.87c2.45-3.81,4.75-7.73,7.45-11.35,4.47-6,10-10.8,17.15-13.5,1.38-.52,2.84-.87,4.27-1.27.23-.07.5,0,.95.28a4.22,4.22,0,0,1-.85.74c-2.68,1.28-5.43,2.41-8,3.82-3.87,2.09-6.85,5.25-9.57,8.64-3.34,4.16-6.73,8.3-9.31,13C138.12,114.19,137.9,114.22,136.09,114.36Z"/><path class="cls-12" d="M150.65,53.91c.76-.26,1.3-.49,1.87-.64a4.49,4.49,0,0,1,5.37,2.86,1.49,1.49,0,0,1-.57,2c-.71.44-1.39.93-2.08,1.4-.3.9,1,2-.17,2.65a9,9,0,0,1-2.75.5c0,.46,0,1.17,0,1.88a6.27,6.27,0,0,1-.3,1.58,1.73,1.73,0,0,1-1.77,1.28,2.22,2.22,0,0,1-1.51-1c-.8-1.61-1.42-3.3-2.09-5-.22-.54-.35-1.11-.59-1.87-.49.55-.83,1-1.19,1.33s-1.12,1-1.73.52a2,2,0,0,1-.65-1.54,3,3,0,0,1,.77-1.53,6.42,6.42,0,0,1,1.28-.94c-1.95-.72-2.82-2.25-3.71-3.74a5.51,5.51,0,0,1-.5-1.16c-.56-1.76.07-2.47,2-2.1a10.09,10.09,0,0,1-.24-1.94,14.18,14.18,0,0,1,.5-3.7c.54-1.54,1.63-1.64,2.42-.24A38.06,38.06,0,0,1,146.91,49a6.85,6.85,0,0,0,.74,1.65,15.9,15.9,0,0,1,.38-1.91,12.91,12.91,0,0,1,1-2.48,1.36,1.36,0,0,1,1.14-.57,1.84,1.84,0,0,1,1.12.95,7.73,7.73,0,0,1,.13,4.63C151.27,52.09,151,52.88,150.65,53.91Zm-3.92.32c0-4-1.57-8.61-3.23-9.63C142.62,46.84,144.4,52.15,146.73,54.23Zm7.95,4.54c1.77-1.23,2.11-2.41,1.15-3.6-1.24-1.53-2.95-1.63-4.5-.17Zm-14-7.52a6.61,6.61,0,0,0,2.66,4.37c.7.52,1.48,1.2,2.55.72-.71-1.08-1.34-2.1-2-3.06A4.65,4.65,0,0,0,140.67,51.26Zm9.57,14.57a7.32,7.32,0,0,0-2.5-7.46A14.75,14.75,0,0,0,150.24,65.83Zm-1.52-10.18c.86,2.56,2.73,3.84,4.42,5.28a2.42,2.42,0,0,0-.53-1.46C151.47,58.28,150.26,57.16,148.72,55.66Zm-3.54,3.29c-.9-.42-1.54-.21-1.9.36-.21.34,0,.9,0,1.36l.41.13ZM149.06,52a3.07,3.07,0,0,0,.48-3.67Z"/><path class="cls-8" d="M160.65,92.31c3.11-.87,6.34,0,6.3,3.23a3.63,3.63,0,0,1,6.92.89c0,2.47-1.7,3.65-4,3.79-1.73.11-2.57-1.13-2.93-3.73-1.61,1.56-3.28,3.31-5.67,2.28a3.67,3.67,0,0,1-2.13-4.65,13.07,13.07,0,0,1-3.62-.69A3.38,3.38,0,0,1,154,91.16a3.77,3.77,0,0,1,3.5-3.84C160,87.45,161,89.07,160.65,92.31Z"/><path class="cls-8" d="M168,76.7a14.47,14.47,0,0,1,.59-2.24c1-2.23,3-2.63,4.83-1a4.81,4.81,0,0,1-.33,7.68,1.82,1.82,0,0,1-2.41.17C169.24,80.09,167.72,78.91,168,76.7Z"/><path class="cls-8" d="M157.82,77.7A4.36,4.36,0,0,1,162,74.56c2.08.2,4.41,2.59,4.16,4.27s-2.89,3.89-4.53,3.65S157.61,79.24,157.82,77.7Z"/><path class="cls-8" d="M162.95,84.58c1.54-1.64,5.36-1,6.07,1.09.54,1.63-.58,2.83-1.58,3.93a2.11,2.11,0,0,1-2.85.51C163.1,89.19,162.48,85.08,162.95,84.58Z"/><path class="cls-8" d="M176.32,89.58a3.22,3.22,0,0,1-2.92,2.8,3.68,3.68,0,0,1-3.14-3c-.11-1.44,1.47-3.76,2.59-3.8C174.38,85.54,176.26,87.7,176.32,89.58Z"/><path class="cls-8" d="M179.65,84.78A4,4,0,0,1,184,87.94a3.33,3.33,0,0,1-2.22,2.9,2.81,2.81,0,0,1-3.14-1.28C177.71,88.22,177.75,85,179.65,84.78Z"/><path class="cls-13" d="M145.13,90.58c.67-.4,1.32-.83,2-1.21a4.3,4.3,0,0,1,4.48.13c1.41.81,1.48,1.9.15,2.82a11,11,0,0,1-2.44,1.12,22.36,22.36,0,0,1-2.25.56c2.44.77,3,2.63,3.59,4.47a2.09,2.09,0,0,1-.8,2.55,2.34,2.34,0,0,1-2.86.18,10,10,0,0,1-.86-.67l-1-.77c-.11.53-.2,1-.28,1.38,0,.24,0,.48-.09.72-.22,1.06-1.19,2.48-1.7,2.36C142,104,142,102.86,141.82,102a41.15,41.15,0,0,1-.48-4.12c-.4.12-.71.23-1,.31a2.59,2.59,0,0,1-3.46-1.76,1.17,1.17,0,0,1,.1-1c.78-.91,1.52-1.89,2.93-1.87.68,0,.69-.08,1.21-.9-.9.09-1.71.13-2.5.27a2.5,2.5,0,0,1-2.34-.7,38.63,38.63,0,0,1-3.42-4.19,2.45,2.45,0,0,1,.85-3.43,1.67,1.67,0,0,1,2,.3c1,.74,2,1.55,3.24,2.55-.09-.85-.15-1.4-.21-2a22.45,22.45,0,0,1-.3-3.23c.08-1.89,1.36-2.46,3-1.51a3.71,3.71,0,0,1,2,2.67c.11.64.24,1.29.39,2.14.61-.82,1.07-1.51,1.6-2.16a1.91,1.91,0,0,1,2.23-.62,1.78,1.78,0,0,1,.3,2.28c-.74,1.24-1.59,2.42-2.35,3.65-.32.51-.55,1.07-.83,1.61ZM140,81.8c-1.22,3.15-.12,7.83,2.07,9.19C143,87.91,142,83.17,140,81.8ZM134,86a7.3,7.3,0,0,0,3.73,5.6,2.11,2.11,0,0,0,2.47-.25C138.47,89.12,136.92,86.83,134,86Zm15,14.27A4.54,4.54,0,0,0,144.49,95C145.41,97.73,147.11,99.7,149,100.26Zm2.58-8.81c-1.84-2.09-5.27-1.38-7.14,1.47C146.93,92.66,149.34,93,151.59,91.45Zm-13.39,6c1.73,0,2.5-.47,2.9-1.69.32-1,0-1.49-1-1.59-1.33-.12-2,.74-2.68,1.7Zm4.9,5c.84-2.21.85-3.79,0-5A6,6,0,0,0,143.1,102.51ZM144.48,87l.41.18c.32-.92,1.2-1.6.85-2.79Z"/><path class="cls-12" d="M71.11,104.69c-.39,1-.66,2-1.07,2.81a5.16,5.16,0,0,1-5.13,3c-1.54,0-1.78-.47-1.07-2.31A1.71,1.71,0,0,0,66,109.53c1.12-.17,2.18-.48,2.64-1.62a23.8,23.8,0,0,0,1.14-3.6,5.35,5.35,0,0,0-.3-1.81l-5.19,3.92,1.37-2.64-4.77-2.37a4.18,4.18,0,0,1-.62-.38c-.67-.5-1.49-.94-1.3-2s1-1.29,1.86-1.41a1.39,1.39,0,0,0,.35-.19,10.68,10.68,0,0,1-.32-1.35A2.12,2.12,0,0,1,63,93.56a8.82,8.82,0,0,1,5.8,2.12,12.88,12.88,0,0,1,1,1c0-.65.06-1.06.1-1.46a11.77,11.77,0,0,1,.2-1.61c.31-1.25,1-1.9,1.89-1.86s1.55.79,1.82,1.95a6.61,6.61,0,0,1-.55,4.44c1-.19,1.73-.38,2.51-.48a5.27,5.27,0,0,1,1.77,0,2.52,2.52,0,0,1,2,2.06c.2,1.11-.59,1.79-1.36,2.38a9.83,9.83,0,0,1-1.66.79,10.2,10.2,0,0,0,1.54,1.72,1.57,1.57,0,0,1,.52,2.06A1.67,1.67,0,0,1,76.79,108a5,5,0,0,1-2-.68C73.56,106.55,72.43,105.65,71.11,104.69Zm-1.72-4.14c-.07-.85.08-1.52-.18-1.8-1.47-1.56-2.87-3.28-5.11-3.82a13.89,13.89,0,0,0-1.91-.19c.31,1.63.51,2.05,1.75,2.79C65.59,98.5,67.28,99.38,69.38,100.54Zm2,.35.11.39c1.49.1,3,.23,4.47.29a3.58,3.58,0,0,0,1.58-.22,1.53,1.53,0,0,0,.85-1c0-.36-.39-.8-.7-1.12a1.22,1.22,0,0,0-.82-.33A7.47,7.47,0,0,0,71.35,100.9Zm6.1,6.1c-1.24-3.31-2.81-4.37-5.26-3.7A10.72,10.72,0,0,0,77.44,107Zm-5.57-8.35c1.73-2.8,1.49-4.52-.65-5.7C70.81,94.46,70.93,95.57,71.87,98.65Zm-4.37,3.23a23.77,23.77,0,0,0-6.71-2.7C62.82,100.6,64.77,102.22,67.5,101.88Z"/><path class="cls-12" d="M195.29,104.25a4.22,4.22,0,0,1,1.8,5.26c-.52,1.34-1.23,2.6-1.86,3.91l5.88,2.18c-1.09,1.6-2.76,1.56-4.18,2.4.41.81.83,1.63,1.23,2.47a6.52,6.52,0,0,1,.26.67c.22.61.66,1.28,0,1.84a1.81,1.81,0,0,1-2.19,0,5.33,5.33,0,0,1-2.37-2.41c-.24-.48-.46-1-.72-1.54-.52.67-.95,1.31-1.46,1.88a2.16,2.16,0,0,1-2.39.87,2.33,2.33,0,0,1-1.05-2.5,12.23,12.23,0,0,1,.83-2.15c-3.47-1.28-5.13-3.31-4.6-5.93.63.17,1.26.3,1.86.52s1.17.53,2.09.95c-.54-1-.94-1.71-1.31-2.43a6.44,6.44,0,0,1-.56-1.33c-.28-1.11.11-1.53,1.3-1.46.3,0,.59.09,1,.16.28-.64.53-1.31.88-1.93.46-.84,1.12-.93,1.7-.17a6.51,6.51,0,0,1,1,1.9c.3.91.47,1.86.79,3.22C194.06,108.37,194,106.14,195.29,104.25Zm-5,11.6c-1.75-1.39-3.1-2.95-5.33-3.54C185.67,115,187.94,116.51,190.25,115.85Zm-.49,5.2c1.1-1,1.93-1.9,1.67-3.4C188.84,118.1,188.49,118.76,189.76,121.06Zm4.5-9.37.41.06c.89-1.67,1.81-3.34.45-5.36Zm-5.95-1.7a9.78,9.78,0,0,0,2.88,4.49A6.48,6.48,0,0,0,188.31,110Zm5.82,7.4c.52,1.73,1,3.1,2.26,4C196,120,196.34,118.14,194.13,117.39Zm-2.37-6.56c-.25-1.33-.18-2.78-1.31-4.09A3.71,3.71,0,0,0,191.76,110.83Zm6.27,5.67c-1.19-1.32-1.37-1.4-2.78-1.35l1,1.5c.35,0,.64,0,.93,0S197.61,116.57,198,116.49Z"/><path class="cls-13" d="M144.9,118l2.33,3c.15-.1.28-.14.31-.21.3-.66.57-1.58,1.39-1.42.57.11,1.09.83,1.49,1.38a11.79,11.79,0,0,1,.92,1.92c.41-.26.76-.53,1.15-.73,1-.51,1.62-.25,1.85.85.2.92.27,1.87.41,2.89,1.68-1,3.4-1.46,5.22.1-.71,2.1-2.86,2.6-4.39,3.89,1.48,1.51,3,3,3.39,5.16-1.82.91-1.92.87-6.23-2.74.1.63.21,1.09.25,1.55a1.91,1.91,0,0,1-1.61,2.25,1.77,1.77,0,0,1-2.29-1.25,26.25,26.25,0,0,1-.68-4.07,14.34,14.34,0,0,1,0-1.82c-3.77-1.19-4.61-4.38-5.16-7.74C143,119.72,144,119,144.9,118Zm3.86,9.41c-1.08-3.92-2.35-6.3-4.05-7.62C144.2,123.43,146.23,127.23,148.76,127.43Zm9.41-1.12a4.07,4.07,0,0,0-5.07,1.92C155,129,156.34,128.49,158.17,126.31Zm-8.39,2.62c-.56,4.24-.36,5.2,1.27,5.88C151.26,132.75,151.43,130.76,149.78,128.94Zm3.68,1.32a10.42,10.42,0,0,0,3.74,4C156.48,131.84,155.21,130.44,153.45,130.26ZM150.27,126c.59-2,0-3.4-1.25-5A6.23,6.23,0,0,0,150.27,126Zm2.12,1.2a3.58,3.58,0,0,0,.6-4.44A4.37,4.37,0,0,0,152.4,127.2Z"/><path class="cls-13" d="M98.28,125.49c.46-.86,0-1.27-.78-1.36s-1.69-.06-2.53-.09a7.32,7.32,0,0,1-4.45-1.81A5.47,5.47,0,0,1,89.46,121a2.15,2.15,0,0,1-.17-2.69c.67-.81,1.54-.56,2.35-.34s1.58.52,2.52.84c0-.66,0-1.13,0-1.59.09-.83.2-1.66.36-2.48A1.52,1.52,0,0,1,96,113.38c.79,0,1.08.65,1.39,1.25.62,1.23,1.27,2.44,2.11,4.05.22-1.43.32-2.47.57-3.47a6.18,6.18,0,0,1,.89-2.13c.61-.84,1.36-.67,1.7.33a6.77,6.77,0,0,1,.32,1.76c.05.84,0,1.68,0,2.83l2.65-2.34c1.28.6.89,1.57.62,2.36a17.6,17.6,0,0,1-1.26,2.41,17.84,17.84,0,0,0,3.06,1,1.49,1.49,0,0,1,1.41,1.56c.09.85-.43,1.33-1.24,1.51l-3,.7c2.49,2.4,2.94,3.32,2.41,5-2.07.26-3.47-1.33-5.29-2.15a14.11,14.11,0,0,1,0,1.9,15,15,0,0,1-.57,2.59,1.74,1.74,0,0,1-1.89,1.1,1.61,1.61,0,0,1-1.52-1.34c-.29-1-.42-2.12-.62-3.17l-3.06,1.06,0,0c.11-.12.2-.29.34-.36,1.54-.76,2.78-1.74,2.85-3.66,0-.25.3-.49.46-.73Zm-8.78-6.9a6.88,6.88,0,0,0,.41,1.84,6.69,6.69,0,0,0,6.14,2.6C95,120.15,92.77,119,89.5,118.59Zm18.83,4.91.06-.42c-1.06-.54-2.1-1.13-3.18-1.62a2.92,2.92,0,0,0-3.08.8,1.42,1.42,0,0,0,.19,1.25,1.66,1.66,0,0,0,1.12.49A12.37,12.37,0,0,0,108.32,123.51Zm-8.91,2.37c-.89,2.69-.45,5.58,1,6.73A4.63,4.63,0,0,0,99.42,125.87Zm-.75-4.2c-.31-2.72-1.9-6.16-3.17-6.85C95.14,117.74,95.63,120.21,98.67,121.67Zm7.78,7.36c-.15-2.24-2.41-4.12-5.13-4.11C102.92,126.6,104.36,128.17,106.45,129Zm-5.37-13.65v5.11C102.15,118.42,102.22,117.38,101.08,115.37Zm1.84,4.79c1.67-.77,1.79-1,1.71-2.76Z"/><path class="cls-13" d="M94.66,130.17a5.1,5.1,0,0,1-5,.07c-1.08-.81-1.08-2.14.09-2.56,2.8-1,5.64-1.93,8.61-2.93l0,.75,0,0c-1.51.57-3,1.09-4.54,1.71s-3.22.38-4.51,1.49a3,3,0,0,0,3.48,1.91c.65-.11,1.29-.24,1.93-.36Z"/></g></g></svg>