<svg xmlns="http://www.w3.org/2000/svg" viewBox="0 0 360 360"><defs><style>.cls-1{isolation:isolate;}.cls-2,.cls-3{fill:#b5d0e1;}.cls-10,.cls-3{mix-blend-mode:multiply;}.cls-4{fill:#967e6c;}.cls-5{fill:#231f20;}.cls-6{fill:#414042;}.cls-10,.cls-7{fill:#dfe3eb;}.cls-8{fill:#2f1e00;}.cls-9{fill:#fff;}.cls-11{fill:#4d4d4d;}.cls-12{fill:#fccfb3;}.cls-13{fill:#f8b963;}</style></defs><title>Icon_Consultants_01_3C</title><g class="cls-1"><g id="Background"><circle id="_27.62.111" data-name="27.62.111" class="cls-2" cx="180" cy="180" r="180"/></g><g id="Layer_5" data-name="Layer 5"><path class="cls-3" d="M229.83,319.6s5.2-7,13-8.13,28.18-6.4,21.68-10.68S243.32,293,232.67,293s-26,2.6-45.66,0-43,.08-61.65,3.08-24.31-2.92-26.69,5.45,6.82,11.27,17.37,12.79,17.54-1.45,23.39,1.62,26.23,5,34.9,4,30.68-4.13,38.1-4.71S229.83,319.6,229.83,319.6Z"/></g><g id="Layer_4" data-name="Layer 4"><path class="cls-4" d="M261.41,207.81c-1.6-.45-1.77-8.87-3.86-10.25-.71,1.75,0,4.47-.7,5.92a1.84,1.84,0,0,1-1.15.95c-.77.12-1.28-.46-1.46-1.18a12.85,12.85,0,0,1-.42-2.42c-.14-2.39-.24-4.79-.31-7.19a4.19,4.19,0,0,1,1.6-3.59,31.1,31.1,0,0,1,3.39-2.32c1.86-1.09,1.45-.08,2.66,1.73s2.54,3.66,4.09,6.16c3.12,5,1.82,5.13.73,8.54a11.47,11.47,0,0,1-.61,1.53C264.38,207.7,263.85,208,261.41,207.81Z"/><path class="cls-4" d="M259.27,181.49s.16,5,1.07,7.15l-5.38,2a41.46,41.46,0,0,0-.59-7.22l-.59-2.37Z"/><path class="cls-4" d="M185.47,213.16c1.52-.45,1.68-8.87,3.65-10.25.67,1.75,0,4.47.66,5.92a1.77,1.77,0,0,0,1.08.95c.73.12,1.21-.46,1.38-1.18a13.52,13.52,0,0,0,.4-2.42q.2-3.59.3-7.19a4.3,4.3,0,0,0-1.52-3.59,29.42,29.42,0,0,0-3.21-2.32c-1.76-1.09-1.37-.08-2.52,1.73s-2.41,3.66-3.87,6.16c-3,5-1.72,5.13-.69,8.54a11.87,11.87,0,0,0,.57,1.53C182.65,213.05,183.16,213.34,185.47,213.16Z"/><path class="cls-4" d="M187.49,186.84s-.15,5-1,7.15l5.09,2a43.77,43.77,0,0,1,.56-7.22l.56-2.37Z"/><path class="cls-5" d="M220.64,308.14c-.21,2.69-.92,7.17-.24,10-1.09.86.4.42-1,.55-.37-.7-1.72-3.78-2-4.38-1.44.93-4.62,4.9-6.19,5.68a17.56,17.56,0,0,1-11.36,1.9,5.54,5.54,0,0,1-1.64-.55,1.52,1.52,0,0,1-.6-2.54c2-2.72,3.93-5.42,6.05-8a4.67,4.67,0,0,1,2.63-1.48c3-.5,6-.8,9-1.12C217.18,308,218.87,306.93,220.64,308.14Z"/><path class="cls-5" d="M238.24,306.44c.35-.08.54-.19.72-.15,3.15.68,6.33.29,9.49.28,1.77,0,2.07.2,2.4,2.46a16.88,16.88,0,0,1,.09,5.56c-.28,1.5-.42,3-.64,4.55a8.68,8.68,0,0,1-2.2,4.86c-2.23-.37-3.77-2.17-5.1-4.29a39.08,39.08,0,0,1-4.76-12.35A5.27,5.27,0,0,1,238.24,306.44Z"/><path class="cls-4" d="M202.21,317c.81-2.84,2.06-5.51,4.32-6.89a11.09,11.09,0,0,1,8.21-.92C213.26,314.06,207.47,317.75,202.21,317Z"/><path class="cls-4" d="M246.36,317.44c-3.48-3.2-5.49-9.06-4.39-12.58,1.63.1,3.29.15,4.94.34a1.4,1.4,0,0,1,.87,1,28.74,28.74,0,0,1-.54,9.55A8.23,8.23,0,0,1,246.36,317.44Z"/><path class="cls-6" d="M192.19,106.11c3-1.26,2.33.62,2.47,2.5.25,3.4.55,6.81.84,10.21a57,57,0,0,0,2.6,11.48c1,3.26,2.42,6.43,2.44,9.92,0,5.5,1.13,10.88,1.73,16.31a46.22,46.22,0,0,1,.12,5.79c-.05,3.16-.12,6.32-.29,9.47-.14,2.5-.42,5-.68,7.49-.16,1.47-.44,2.93-.62,4.4s-.87,2-2.4,2.17a14.34,14.34,0,0,1-9.66-2.67,1.89,1.89,0,0,1-.8-1.36c.1-2,.32-4.09.58-6.12.49-3.9,1-7.81,1.55-11.7.8-5.6.25-11.18-.24-16.76q-.22-2.5-.38-5c-.08-1.22-.11-2.45-.14-3.67q-.22-8.22-.42-16.44c0-.9-.05-1.81-.15-2.7a17.19,17.19,0,0,1,.91-8.56,22,22,0,0,1,1-2.37A5.56,5.56,0,0,1,192.19,106.11Z"/><path class="cls-6" d="M260.18,173.48a4.93,4.93,0,0,1-3,1.23,59.4,59.4,0,0,0-6.25,1.24c-1.46.34-1.69.34-2-1.12q-.81-3.38-1.39-6.82c-.72-4.26-1.5-8.51-2-12.8-.36-3.2-.31-6.44-.43-9.66a6,6,0,0,0,0-1,55.63,55.63,0,0,1-1.19-7.1,4.93,4.93,0,0,0,.61-1.53c.18-6.13.23-12.26.46-18.38a62.22,62.22,0,0,1,2.5-16.58c.15-.49.24-1,.36-1.5a2.6,2.6,0,0,1,2.83-.84c1.37.59,2,.82,2.47,2.48.82,3.11,2,6.15,2.57,9.3a98.06,98.06,0,0,1,1,9.79,65.81,65.81,0,0,0,.79,8.65,19.81,19.81,0,0,1,.16,5,47.87,47.87,0,0,0,.43,7.71c.46,3.9.58,7.84.79,11.76.28,5.15.47,10.31.77,15.46C259.64,170.34,260,171.86,260.18,173.48Z"/><path class="cls-7" d="M261.84,169.89c.26,1.46.5,2.65.66,3.84.25,1.78.41,3.58.69,5.36.16,1-.09,1.6-1.17,1.78a2.63,2.63,0,0,0-1.2.57c-2.26,1.93-5.1,2.33-7.82,3a4.87,4.87,0,0,1-1.7,0,1.81,1.81,0,0,1-1.8-1.71c-.15-2.69-.23-5.38-.28-8.07,0-.72.46-1.14,1.2-1.29a15.71,15.71,0,0,0,2.24-.59c2.23-.8,4.44-1.68,6.68-2.46A19.2,19.2,0,0,1,261.84,169.89Z"/><path class="cls-7" d="M185.36,178.49c3.86.32,13.39,2.68,14.79,3.69l-1.54,8.44a13.39,13.39,0,0,1-1.94,0q-3.9-.64-7.78-1.37c-4-.75-5-2-4.85-6A8.4,8.4,0,0,1,185.36,178.49Z"/><path class="cls-6" d="M198.67,169.67a17,17,0,0,1,6.21-1c3.35,0,6.7-.24,10-.3,1.6,0,3.21.13,4.82.2a6.26,6.26,0,0,0,1.52,0c7.53-1.6,15.21-2,22.83-2.89,2.09-.25,3.44.79,4.52,2.35,1.72,2.49,2.09,5.4,2.22,8.3a169.4,169.4,0,0,1-.55,21.46c-.28,3.46-.14,7-.14,10.43,0,2.32,0,4.65.13,7,.17,3.86.43,7.72.62,11.59.16,3.22.2,6.45.43,9.66.37,5.08.89,10.15,1.28,15.23.26,3.34.42,6.69.62,10q.33,5.4.66,10.81c0,.77.06,1.55.11,2.32.28,4,.53,8.1.87,12.15.46,5.4,1,10.79,1.51,16.18a11.26,11.26,0,0,1,.17,1.14,1.61,1.61,0,0,0,1.69,1.83,2.69,2.69,0,0,1-2,1.51,49.78,49.78,0,0,1-13.45,1c-1.08-.07-2.18.16-3.27.18a28.16,28.16,0,0,1-2.88-.12c-.9-.08-1.78-.29-2.68-.33-3.53-.17-4.46-2.5-3.66-5.67a7.68,7.68,0,0,0,.34-1.65c.16-7.29.37-14.58.39-21.87,0-6.77-.06-13.55-.33-20.32-.29-7.22-.89-14.42-1.28-21.64-.19-3.48-.33-7-.27-10.45a166.62,166.62,0,0,0-.9-18.16,91.08,91.08,0,0,1-.11-9.87,26,26,0,0,0-1.42-10.17h-3.22c-.4,2.66-.75,5.26-1.19,7.84-1.15,6.77-1,13.63-1.56,20.43-.36,4.3-1,8.58-1.41,12.88a40.5,40.5,0,0,0-.27,5.4c.15,4.45.42,8.89.64,13.34q.39,7.73.77,15.45c.18,3.65.62,7.27,1.12,10.9.44,3.19.48,6.43.73,9.64.16,2.05.41,4.1.59,6.16a14.62,14.62,0,0,1,.15,3.09c-.39,3,.57,5.88,1,8.8,1.12,1.16.76,2.55.62,4.23-.93.45-2,1-3.08,1.49s-2.32,1.12-3.51,1.57a12.53,12.53,0,0,1-3.32.95,91.27,91.27,0,0,1-9.83.44,53.58,53.58,0,0,1-7.64-1.1,6.43,6.43,0,0,1-1.69-.81c.28-2,.52-3.75.76-5.51a177.52,177.52,0,0,0,1.68-22.37c0-2.57.39-5.14.54-7.72.11-1.87.14-3.74.19-5.61.05-2.19.18-4.38.11-6.57-.16-5.22-.41-10.44-.65-15.66,0-.9-.28-1.79-.29-2.69,0-2.83,0-5.67,0-8.5.08-3.35.24-6.7.37-10.06.23-6,.55-12,.66-18,.11-6.32.06-12.65,0-19-.05-5.16-.23-10.31-.35-15.47C198.65,171.33,198.67,170.5,198.67,169.67Z"/><path class="cls-7" d="M234.42,173.37c-3.36.67-6.56,1.32-9.76,1.93-.94.18-1.91.24-2.87.33-1.92.18-3.83.36-5.75.49a4.14,4.14,0,0,1-1.52-.21c-1.1-.36-1.49-1-1.13-2.05,2.05-6.11,3.15-12.5,5.62-18.48.83-2,1.37-4.13,2.06-6.24.7-.36,1.1,0,1.55.59,3.86,5,7.17,10.36,9,16.51a68.08,68.08,0,0,0,2.76,6.56A1.6,1.6,0,0,1,234.42,173.37Z"/><path class="cls-5" d="M214.28,102.4a48.41,48.41,0,0,0,1.82,13.07c1.3,4.45,2.48,8.94,3.48,13.47a71,71,0,0,1,1.13,8.6,90.81,90.81,0,0,1,.61,9.83,58,58,0,0,1-1.93,13.36c-.17.68-.49,1.31-.73,2a19.48,19.48,0,0,0-1,2.92c-1,5.23-2.94,10.13-4.84,15.05a17,17,0,0,1-2.68,4.89,15.89,15.89,0,0,1-5.56,4.69,102.89,102.89,0,0,1-13.1,5.18c-1.37.38-1.74.26-2.08-1.06a4.36,4.36,0,0,1-.08-1.89c.31-1.51.78-3,1.11-4.5.28-1.31.44-2.65.69-4,.21-1.14.46-2.27.72-3.39,1.17-5.09,2.73-10.06,4.34-15,.85-2.63,1.31-5.38,1.93-8.08.3-1.32.47-2.68.9-3.95a19.66,19.66,0,0,0,.34-10.5c-1.53-7.25-3.24-14.46-4.66-21.72a55.66,55.66,0,0,1-1-14.42c.06-1,.34-1.37,1.19-1.64a50.29,50.29,0,0,1,11.51-2.45C209,102.61,211.61,102.53,214.28,102.4Z"/><path class="cls-5" d="M230.14,99.13c6.15.12,12.16-1.14,18.12,0a3.23,3.23,0,0,1,.09,3.07c-2.26,6.32-2.84,12.89-3.12,19.54-.19,4.5-.8,9-1.2,13.47-.19,2.18-.31,4.36-.48,6.54a10,10,0,0,1-.24,2.3c-.81,2.49-.31,4.92,0,7.42.55,4.62,2.34,8.81,4,13.06.09.24.23.46.3.71.69,2.41,1.48,4.79,2,7.24.6,2.76,1,5.56,1.43,8.35s.62,5.49.9,8.24a16,16,0,0,1,0,1.64,4.85,4.85,0,0,1-4.71-.05c-5.74-2.9-10.9-6.49-13.89-12.39a70.54,70.54,0,0,1-3-7.74A72.11,72.11,0,0,0,223.75,157a15.67,15.67,0,0,1-2.25-9c0-1.92-.06-3.84-.16-5.76a10.06,10.06,0,0,1,.84-4.52c1.43-3.38,3.07-6.69,4.25-10.15a39,39,0,0,0,1.81-8.27c.57-5.12.81-10.29,1.24-15.43C229.6,102.37,229.89,100.92,230.14,99.13Z"/><path class="cls-7" d="M219.94,147a3.15,3.15,0,0,1-1.86-2.1,33.33,33.33,0,0,1-1.57-5.16c-1.17-6.74-3-13.32-4.55-20-.82-3.44-1.61-6.9-2.31-10.37-.36-1.76-.91-4-1.1-5.81-.14-1.27.54-1.35,1.77-1.65,1.42-.35,2.89-.52,4.33-.74.83-.13,1.66-.26,2.49-.31,2-.12,4-.3,6-.25,1.66,0,3.82.17,5.76.43.09,1-.25,2.35-.26,3.45,0,4.18-.1,8.37-.26,12.54a56.63,56.63,0,0,1-1.69,10.05c-1.23,5.57-3.72,10.68-5.45,16.06-.22.67-.39,1.36-.61,2S220.18,146.4,219.94,147Z"/><path class="cls-6" d="M209.94,163.48a13.13,13.13,0,0,1-1.49,1.55c-2.24,1.71-4.45,3.47-6.82,5a38.72,38.72,0,0,1-5.2,2.49,1,1,0,0,1-1.53-.63c.63-.37,1.26-.76,1.91-1.1a67.51,67.51,0,0,0,10.38-7.29,5.84,5.84,0,0,1,1.11-.76C209,162.42,209.54,162.51,209.94,163.48Z"/><path class="cls-6" d="M246.64,166.54c-3.42.18-10.1-4.23-12.2-7.75.77-.45,1.32-.08,1.82.43.68.68,1.32,1.42,2,2.06a21.2,21.2,0,0,0,6.32,4A15,15,0,0,1,246.64,166.54Z"/><path class="cls-8" d="M248.24,93.67c-2.61,1-4.81,1.92-7.09,2.6a11.12,11.12,0,0,1-6.78-.43c-3.47-1.16-6.92-2.37-10.42-3.43-3.22-1-6.3-.87-9.14,1.38a37.79,37.79,0,0,1-6.09,3.94A17.51,17.51,0,0,1,204.1,99c-3.34.66-6.7,1.3-10.07,1.79a32.49,32.49,0,0,1-4.59,0c-.48-2.7.1-5.2.37-7.7.49-4.5,1.16-9,1.56-13.48a106,106,0,0,1,2.26-13.94c.34-1.51.56-3.06,1-4.54,1.51-5,4.48-9.26,7.93-13.1a12.62,12.62,0,0,1,8.33-4,19,19,0,0,1,5.9.09A17.33,17.33,0,0,1,226,49.4,26.42,26.42,0,0,1,231.54,59c.41,1.1.9,2.17,1.31,3.28a26.74,26.74,0,0,1,1.25,3.68c.81,3.81,2.66,7.21,4.14,10.75,1.63,3.88,3.49,7.67,5.35,11.45A12.57,12.57,0,0,0,248.24,93.67Z"/><path class="cls-4" d="M228.79,72.17a6.33,6.33,0,0,1,4.31,4.17c.54,1.49.38,2.13-1,2.86a9.33,9.33,0,0,1-2.71.94,2,2,0,0,0-1.91,1.78,9,9,0,0,1-2.91,5.3c-1.31,1.12-2.27,2.69-3.67,3.64a8.19,8.19,0,0,1-8.94.51,14.43,14.43,0,0,1-7.38-9,2,2,0,0,0-.2-.41,33.07,33.07,0,0,1-4-.61,3.88,3.88,0,0,1-3.16-3,4.36,4.36,0,0,1,2-4.52,38.47,38.47,0,0,1,3.32-2,21.62,21.62,0,0,1,0-3.33A43.08,43.08,0,0,1,204,60.59c1.25-3.53,3.18-6.78,6.45-8.92a9.32,9.32,0,0,1,12.83,2.55c3.51,4.72,4.87,10.15,5.2,15.92,0,.58.08,1.16.13,1.73C228.64,71.93,228.69,72,228.79,72.17Z"/><path class="cls-8" d="M199.08,71.2c.09-.92.24-1.85.27-2.78.23-7,3.36-12.45,8.55-16.88,3.66-3.13,8-3.87,12.69-3.57.86.06,1.36.45,1.1,1.37a13.82,13.82,0,0,1-1,3.28A75.93,75.93,0,0,1,208.08,68.2,10.17,10.17,0,0,1,199.08,71.2Z"/><path class="cls-4" d="M215.62,91.08c1.06-.14,1.88-.22,2.68-.35,1.13-.18,1.55,0,1.83,1.14A49.52,49.52,0,0,1,221,96.8a24.21,24.21,0,0,0,2.51,8.66c.12.22.36.53.29.69-.65,1.5-.6,3.35-2,4.45-1.23.94-2.58.58-3.87.1a5.93,5.93,0,0,1-3.91-3.47,5,5,0,0,1-.33-2.24c.54-4.34,1.15-8.67,1.75-13C215.48,91.68,215.56,91.38,215.62,91.08Z"/><path class="cls-9" d="M213.48,101.7c.8,1.11,1.31,1.88,1.89,2.6,1.13,1.4,2.26,2.79,3.44,4.13,1.34,1.53,1.49,2.21.65,4a22,22,0,0,1-1.4,2.72,2.33,2.33,0,0,1-3.9.39,5.71,5.71,0,0,1-1.31-2.09,17.66,17.66,0,0,1-.49-9.14A14.47,14.47,0,0,1,213.48,101.7Z"/><path class="cls-10" d="M220.29,111.2a5.44,5.44,0,0,1,.21,1c.14,3,.24,5.9.38,8.86s.26,5.79.42,8.69c.21,3.88.48,7.76.67,11.64a30.27,30.27,0,0,1,.05,5.73c-1,6.69.33,13.25.91,19.85.26,2.88.5,5.77.76,8.65,0,.55.16,1.09.25,1.68-.82.34-1-.13-1.09-.75-.07-1,0-2.1-.13-3.14-.62-6-1.35-12-1.87-18a32.84,32.84,0,0,1-.06-8.31c.75-4.37-.15-8.6-.3-12.89-.09-2.65-.27-5.3-.38-8-.18-4.38-.36-8.75-.5-13.13a10.54,10.54,0,0,1,.26-1.85Z"/><path class="cls-9" d="M222.92,100.93c.55.21,1.07.24,1.3.52,2.26,2.76,3.58,5.81,2.68,9.47a2.46,2.46,0,0,1-3.69,1.71,11,11,0,0,1-2.48-2.36,1.56,1.56,0,0,1-.19-1.25C221.27,106.41,222.06,103.83,222.92,100.93Z"/><path class="cls-6" d="M220.5,144.35c.58-1.31,1.17-2.38,1.55-3.51,1.56-4.64,3.3-9.24,4.5-14a77,77,0,0,0,1.78-11.64c.34-3.59.32-7.22.38-10.83,0-1.61-.19-3.22-.24-4.83-.06-2,.83-2.41,2.81-2.72,1.62-.25,3.17.05,3.53,1.73,1,4.59,2.24,9.12,2.53,13.86a11.9,11.9,0,0,1-2.21,7.92c-.07.1-.11.23-.18.34-.87,1.35-2.11,2.6-2.51,4.08s0,3.17.18,4.75c.25,2-.79,3.6-1.82,5.14-2.35,3.54-4.77,7-7.12,10.57-.48.72-2.09,4.57-1.63,6.64.12.54.2,1.08.36,1.94-.55-.3-.9-.37-1-.58-1.25-2-2.42-4.1-3.7-6.1a11.54,11.54,0,0,0-2-2.35c-2.81-2.52-4.38-5.51-3.94-9.38.23-2,.43-4,.68-6s.23-2-1.43-3.11a31.46,31.46,0,0,1-4.36-3.48A13.86,13.86,0,0,1,202.44,112a40.74,40.74,0,0,1,1.42-9.54c.29-1,2.2-1.65,3.15-1.55,1.15.12,1.48.21,1.81,1.28.75,2.4,1.58,4.77,2.26,7.18q1.81,6.41,3.47,12.87c1.06,4.17,2,8.38,3.05,12.54C218.44,137.94,219.48,141,220.5,144.35Z"/></g><g id="Artwork"><path d="M131.71,302.19l-.47,6.85c-1.61.14-3.13,1.75-4.72-.26-.57.33-1.14.65-1.7,1-3.92,2.41-7.82,4.86-11.77,7.22a20.23,20.23,0,0,1-4,1.81,7,7,0,0,1-3.35.47,18,18,0,0,1-5.09-1.78c-2.21-1.21-2.13-3-.06-4.48a86.63,86.63,0,0,0,12.6-10.39,4.81,4.81,0,0,0,1.17-1.37c.51-1.3,1.54-1.4,2.66-1.35a15.65,15.65,0,0,1,2,.23c3.51.61,7,1.24,10.54,1.84C130.19,302.09,130.84,302.11,131.71,302.19Z"/><path d="M164.85,321.31c-1.88,2.44-4.3,2.89-6.93,2.62a3,3,0,0,1-1.8-.67,37.51,37.51,0,0,1-3.12-3.92c-1.08-1.53-2-3.19-3.06-4.73-2-2.83-2.88-6.13-4.09-9.28-.51-1.33-.11-2.15,1.26-2.8a20.06,20.06,0,0,1,3.41-1.23,55.44,55.44,0,0,1,5.66-1.29c2-.31,2.51.11,3.05,2,1.49,5.05,2.95,10.11,4.42,15.17C164.07,318.58,164.48,320,164.85,321.31Z"/><path class="cls-11" d="M108.62,192.89c1-1.1,2.49-.76,3.82-.92,2.6-.31,5.25-.16,7.85-.48,3.36-.4,6.69-1.09,10-1.61,1.38-.21,2.78-.31,4.17-.43.7-.06,1.41,0,2.1-.1a104.91,104.91,0,0,1,21.73-.29c1.51.1,3,0,4.56,0,2.24,0,2.57.6,2.24,3-.44,3.18-.68,6.4-.91,9.61q-.63,9-1.13,18c-.41,7.63-.86,15.27-1.09,22.9-.15,4.86.09,9.73.13,14.59,0,5.62,0,11.23.1,16.85.05,3.6.24,7.19.39,10.79.11,2.65.26,5.29.36,7.94.07,1.89.08,3.78.15,5.67a3.15,3.15,0,0,0,.28,1.26c.6,1.2.63,1.19-.34,1.73a2.52,2.52,0,0,1-1.13.46c-2.2-.08-4.27.64-6.41,1a76.5,76.5,0,0,1-11.12.87,11.41,11.41,0,0,0-1.87.27c-1,.2-1.43-.2-1.33-1.27a8.92,8.92,0,0,0,.09-1.1c-.11-4.23-.11-8.47-.37-12.69-.29-4.65-.21-9.34-1.29-13.91a26,26,0,0,1-.49-4.51c-.2-3.59-.38-7.19-.5-10.79-.09-3,0-6.06-.12-9.09-.1-3.53-.29-7.06-.42-10.59-.22-5.68-.47-11.36-.61-17-.06-2.32.11-4.65.18-7.2l-2.76.76c-.09,3.05-.15,6-.26,9-.14,3.66-.34,7.33-.46,11-.07,2,.09,4,0,6.06-.26,4.35-.62,8.69-1,13-.1,1.25-.34,2.5-.56,3.73-.67,3.71-.1,7.42-.09,11.13a17.9,17.9,0,0,1-.28,3.58,29.7,29.7,0,0,0,.29,11.26,2.65,2.65,0,0,1,.13.73c-.67,5.33-.22,10.64.09,16.14-1.44,0-2.88.14-4.32.14-2.86,0-5.72-.08-8.58-.08s-5.51.17-8.19-.69c-.28-.09-.54-.22-.84-.35a29.19,29.19,0,0,1-.17-4.88c.61-4.76-.16-9.45-.28-14.16-.11-4.1-.1-8.21-.06-12.32.05-5.7.8-11.34,1.27-17a60,60,0,0,0-.24-8.51c-.36-6.11-.73-12.23-1.2-18.33-.34-4.46-.84-8.91-1.27-13.37-.06-.63-.15-1.26-.15-1.89C108.69,204.82,108.65,199,108.62,192.89Z"/><path class="cls-12" d="M108.43,224.35c1.27-1.16-2.54-9.47-1.26-11.76,1.48,1.39,2.13,4.36,3.44,5.48a1.92,1.92,0,0,0,1.51.42c.77-.22,1-1,.8-1.81a14.69,14.69,0,0,0-.75-2.56q-1.49-3.61-3.1-7.18a4.67,4.67,0,0,0-3.18-2.8,32,32,0,0,0-4.24-.76c-2.24-.23-2.38.62-2.64,2.94-.25,2.17.37,4.66.11,7.79-.52,6.32.74,5.83,3.35,8.69a12.89,12.89,0,0,0,1.28,1.22C105.63,225.57,106.26,225.62,108.43,224.35Z"/><path class="cls-12" d="M96.64,198.58s2.41,5.55,2.32,8.48l8.25-1.29s-2.55-5.28-3-8.24l-.45-3Z"/><path class="cls-12" d="M165.06,222.9c-1.22-1.16,2.44-9.47,1.21-11.76-1.43,1.39-2,4.36-3.31,5.48a1.8,1.8,0,0,1-1.45.42c-.74-.22-.93-1-.77-1.81a15.14,15.14,0,0,1,.72-2.56q1.44-3.61,3-7.18a4.55,4.55,0,0,1,3.05-2.8,29.65,29.65,0,0,1,4.07-.76c2.15-.23,2.28.62,2.54,2.94.24,2.17-.35,4.66-.11,7.79.5,6.32-.71,5.83-3.22,8.69a12.62,12.62,0,0,1-1.23,1.22C167.76,224.12,167.15,224.16,165.06,222.9Z"/><path class="cls-12" d="M176.39,197.12s-2.32,5.55-2.23,8.48l-7.93-1.29s2.45-5.28,2.88-8.24l.43-3Z"/><path class="cls-11" d="M109.06,105.54c.9.29,1.1,1,1.18,1.91q.66,7.36,1.35,14.73c.11,1.13.39,2.24.48,3.37q.25,3.1.35,6.22c.14,3.92.33,7.84.3,11.75a69.76,69.76,0,0,0,.34,7.93,14.7,14.7,0,0,1-.35,6.2,3.53,3.53,0,0,0-.09,1.13c.08,4.49.2,9,.25,13.46.06,5,0,10,.08,15,0,3.35.11,6.7.26,10,.05,1.12,0,1.85-1.18,2.39s-2.13,1.69-3.31,2.28c-3.65,1.84-7.35,3.53-11,5.29-.49.24-1,.55-1.47.74-.91.34-1.38,0-1.37-1.06a81.32,81.32,0,0,0-.94-11.3c-.5-4-.79-8-1.13-12.08-.22-2.58-.49-5.17-.5-7.76,0-3.28.09-6.58.39-9.84.63-6.85,1.85-13.61,3.13-20.35.72-3.78,1.13-7.62,1.82-11.41a117.32,117.32,0,0,1,4.06-16.71c.63-1.85,1.13-3.74,1.86-5.54C105.21,107.8,105.25,107.82,109.06,105.54Z"/><path class="cls-11" d="M165.76,204.46a2.92,2.92,0,0,1-.88-2.36c-.11-5.12-.21-10.25-.43-15.36-.15-3.53-.58-7.06-.76-10.59q-.37-7.39-.55-14.78c-.11-4.93-.11-9.86-.15-14.79,0-3.79.07-7.58-.1-11.36-.27-6-.7-12-1.1-18a18.77,18.77,0,0,0-.56-3.17,37.88,37.88,0,0,1-.6-8.84,10.47,10.47,0,0,1,1.3.31,12.17,12.17,0,0,1,6.29,5.59,53.48,53.48,0,0,1,5.86,13.34,114.09,114.09,0,0,1,3,17.17c.08.88.21,1.76.35,2.63a130.77,130.77,0,0,1,1.66,14.49c.18,3.85.94,7.69.88,11.53-.13,8.46.18,16.94-.77,25.39a65,65,0,0,0-.16,7.76c0,1.68-.07,1.95-1.72,1.94-1.91,0-3.82-.13-5.72-.28S167.71,204.67,165.76,204.46Z"/><path class="cls-6" d="M107.21,104.59A23.8,23.8,0,0,1,110,104c3.1-.24,6-1.23,9-1.95a55.17,55.17,0,0,1,7.37-1c1.75-.17,3.51-.19,5.26-.27a2.06,2.06,0,0,1,.7.07,15.46,15.46,0,0,0,5.77.33,23,23,0,0,1,3.42.16c.84.07,1.68.31,2.52.36,6.15.37,12,2.22,18,3.53,1.26.28,1.35.44,2,1.48-.21.1-.42.28-.6.26-1.06-.13-1.27.6-1.23,1.41.13,2.91.3,5.82.51,8.73.29,4,.81,8,.91,11.95.13,5.64,0,11.29-.1,16.94,0,1.71-.15,3.42-.31,5.13-.41,4.28.4,8.46.87,12.68.16,1.38.32,2.77.47,4.15.36,3.21.93,6.41,1,9.63.1,4.3-.1,8.62-.32,12.93-.14,2.78-.61,5.55-.79,8.33a17.54,17.54,0,0,0,.3,3.76c.28,1.81.69,3.6,1,5.4a2.25,2.25,0,0,1-.2,1.07,9.79,9.79,0,0,1-2.67,3.76,15.82,15.82,0,0,1-5.41,3.33,28.77,28.77,0,0,0-4.26,2.52,4.7,4.7,0,0,1-1.34.57,1.84,1.84,0,0,1-2-.74,23,23,0,0,1-3.19-5.5c-2.41-5.4-5-10.74-7.42-16.11-1.07-2.33-2.06-4.7-3.18-7.25a3.59,3.59,0,0,0-.43.84A97.55,97.55,0,0,1,133,202c-1.3,4.55-2.55,9.12-3.83,13.68a2.36,2.36,0,0,1-3,1.71,29.08,29.08,0,0,1-5.11-1.94c-4.1-2.05-8.13-4.23-12.19-6.38-2-1.06-2.44-2.26-1.81-4.63a2.61,2.61,0,0,0,.13-.74,136.86,136.86,0,0,1,.89-19c.28-2.58.78-5.14,1.2-7.7a46.82,46.82,0,0,0,0-14.41c-.59-4.07-1.21-8.15-1.57-12.25-.26-3-.06-6-.16-8.95-.11-3.36-.37-6.72-.48-10.08s-.21-6.86-.16-10.28c.07-5.08.28-10.15.42-15.23A10.08,10.08,0,0,0,107.21,104.59Z"/><path class="cls-13" d="M148.46,64a22.27,22.27,0,0,1-1.54,8c-.58,1.58-1.18,3.17-1.9,4.69A3.56,3.56,0,0,1,143.66,78c-1.49.91-3,1.75-4.57,2.58a10.88,10.88,0,0,1-4.92,1.08,8.77,8.77,0,0,0-4.6,1.56,4.24,4.24,0,0,1-5.19,0,22.54,22.54,0,0,1-8.34-9.37,16.88,16.88,0,0,1-1.45-6c-.18-2-.22-4-.5-6-.54-3.79.63-7.2,2.2-10.5a25.16,25.16,0,0,1,2.35-3.66c2.1-2.95,5.27-3.71,8.6-3.85a11.33,11.33,0,0,0,3.32-.62,22.77,22.77,0,0,1,4-.95,3.89,3.89,0,0,1,3.67,1.59,12.37,12.37,0,0,0,4,3.32A5.11,5.11,0,0,1,145,51.28a29.24,29.24,0,0,0,2.43,7.58A13.94,13.94,0,0,1,148.46,64Z"/><path class="cls-12" d="M146.47,69.88c2-.51,2.66-.33,3.46.87a2.86,2.86,0,0,1-.42,3.65,2.55,2.55,0,0,1-.61.67c-1.94,1.07-2.16,2.93-2.53,4.86a65.42,65.42,0,0,1-2,7.32A5.72,5.72,0,0,1,143,89.17c-2.31,2.53-4.94,3.61-8.43,2.41-4.57-1.57-8.33-4.06-10.85-8.25-.16-.26-.34-.5-.48-.77a3.4,3.4,0,0,0-3.16-2.21,5.92,5.92,0,0,1-2.83-1.12c-1.87-1.19-2.31-2.76-1.56-4.86.47-1.32.7-1.49,2.12-1.46.36,0,.71.05,1.21.09a6.31,6.31,0,0,0,0-1.25c-.81-3.77,0-7.47.51-11.18,0-.12.09-.23.1-.35.34-4.07,3.26-5.76,6.6-6.8A31.21,31.21,0,0,1,133,52.24,8.42,8.42,0,0,1,141.51,57a91.64,91.64,0,0,1,3.93,9.14A33.74,33.74,0,0,1,146.47,69.88Z"/><path class="cls-13" d="M135.78,57.27,133.87,59c-1.51,1.35-1.5,1.35-3.39.75-1.87,1.22-3.73,2.78-6.26,1.38-2.17,1.31-4.42,2.2-7.19,1.19a6.51,6.51,0,0,1,.44-1.95,28.42,28.42,0,0,1,2.82-4,20.6,20.6,0,0,1,2.7-2c.74-.6,1.4-1.3,2.13-1.92,1.05-.9,2.22-1.67,3.17-2.66a4.8,4.8,0,0,1,5.37-1.34c1.65.59,2.83.05,4.14-.75a5.63,5.63,0,0,1,2-.32c0,.69-.27,1.29-.07,1.65s.87.75,1.44,1.2c.76,3.61-.47,5.21-3.28,7.07C137.45,57.51,136.67,57.27,135.78,57.27Z"/><path class="cls-12" d="M144.65,97.9c-1.51,1.5-3.24,3.24-5,5a2.08,2.08,0,0,1-2.51.47,22.78,22.78,0,0,1-7.92-6.11l1.5-6.94a7.7,7.7,0,0,1,1.21-.08c1.68.12,3.37.39,5,.4a22.9,22.9,0,0,0,3.75-.49c.63-.1,1.24-.31,1.74-.43Z"/><path class="cls-13" d="M117,69l1.75-1.6c1.51,2.25.87,5,2,7.35-1.93.09-2.35-.11-2.79-1.63S117.32,70.35,117,69Z"/><path class="cls-13" d="M145,65.12c1.22-.65,1.55.52,2.34.85l-.54,5.13c-1.78-.4-2.06-.65-2-2S144.94,66.41,145,65.12Z"/><path class="cls-11" d="M109.13,179.23c2.36,2,5.27,1.15,8,2.08L116,190.41l-1.56-1.53a5.76,5.76,0,0,1-1.3.18,17.15,17.15,0,0,1-3-.35,16.61,16.61,0,0,1-3.19-1.1c-.43-.2-1-.93-.95-1.19C106.87,184,107.07,181.3,109.13,179.23Zm.31,1.77-2,5.88c2.38,1.6,4.74,1.3,7.19,1,0-2,1-3.82.73-5.66Z"/><path class="cls-11" d="M166.59,176.28l2,7.4c-.81.44-1.17.11-1.39-.66-.52-1.76-1.08-3.52-1.69-5.47l-5.95,4.73,1,4.39,6-2.77.23.3a8.69,8.69,0,0,1-1.18.89q-1.94,1-3.94,1.93a1.7,1.7,0,0,1-2.61-1.22c-.33-1.15-.52-2.34-.77-3.54,2.57-2,5-4,7.54-6C166,176.18,166.3,176.28,166.59,176.28Z"/><path class="cls-11" d="M133.08,177.58c0-.26,0-.59.11-.74s.51-.1.7,0c1.12.63,1.07,1.77,1.09,2.82a2.43,2.43,0,0,1-1.22,2.4c-.64.33-1.62-.28-1.94-1.09-.48-1.23-.11-2.22,1.27-3.39-.75,1.84-.77,2-.1,3.11C133.66,179.6,133.27,178.58,133.08,177.58Z"/><path class="cls-11" d="M132.81,165.52c2.09.72,2.72,1.94,1.77,3.45a1.68,1.68,0,0,1-2,.79,1.64,1.64,0,0,1-1.18-1.9C131.65,167,131.82,166,132.81,165.52Zm.35.69c-1.35,1.26-1.38,1.41-.57,2.57C133.88,167.93,133.92,167.76,133.16,166.21Z"/><path class="cls-7" d="M129.68,103.56H147l-1.22,10.77-3.6,21.17s-11.28.89-10.94,0-2.53-30.26-2.53-30.26Z"/><path class="cls-8" d="M137.94,159.74a1.88,1.88,0,0,1-1.47-1.69c-.38-2.14-.74-4.29-1.16-6.43-.76-3.92-1.73-7.81-2.26-11.75-.44-3.22-1.35-6.43-.83-9.73.3-1.9.73-3.79,1.15-5.67s.88-3.64,1.34-5.45c.72-2.81,1.45-5.62,2.2-8.55a15.06,15.06,0,0,1,1.6-.11,1.15,1.15,0,0,1,1.21,1.1c.48,3.29,1.11,6.57,1.45,9.87a105.48,105.48,0,0,0,2.48,15.39,2.73,2.73,0,0,1,.11,1.25,63.69,63.69,0,0,1-1.72,6.46,65.59,65.59,0,0,0-3,10.26C138.74,156.36,138.33,158,137.94,159.74Z"/><path class="cls-11" d="M160.63,115.38c-.69,1.94-1.27,3.72-2,5.45-1.36,3.43-2.72,6.86-4.2,10.24-1.36,3.11-2.83,6.17-4.32,9.21q-1.76,3.59-3.7,7.08c-.73,1.32-1.68,2.51-2.48,3.8-1.15,1.85-2.19,3.76-3.38,5.58a24.63,24.63,0,0,1-2.29,2.8,2.92,2.92,0,0,1-1,.7.66.66,0,0,1-1-.85,133.11,133.11,0,0,0,3.87-16.58c.88-4.58,2-9.11,2.81-13.7.53-3,.71-6,1-9,.25-2.35.51-4.7.71-7.05.36-4.35.68-8.7,1-13,.08-1,.19-2,.31-3.4l12.09,7a37.88,37.88,0,0,1-5.09,6.73C155.64,111.91,158.41,113.14,160.63,115.38Z"/><path class="cls-11" d="M137.65,159.14c-.65-.2-1.22-.21-1.49-.5a16.72,16.72,0,0,1-2.39-2.93c-1.58-2.71-2.91-5.58-4.55-8.25-2.13-3.46-3.92-7.09-5.71-10.73-1.95-4-4.2-7.77-6.31-11.65a1.57,1.57,0,0,1-.29-1,29.79,29.79,0,0,1,1.24-3.94c.9-2.11,2-4.14,2.9-6.25.6-1.39.55-1.46-.63-2.47-.78-.67-1.63-1.26-2.45-1.88l-2.61-2c.31-.34.62-.74,1-1.08,2.49-2.39,5-4.76,8.17-6.27,1.75-.84,2.61-.47,3,1.42a100.73,100.73,0,0,1,2.28,12.48c.39,3.9,1.25,7.76,1.88,11.64.53,3.23,1,6.46,1.54,9.68s1.12,6.55,1.77,9.81c.83,4.14,1.75,8.27,2.6,12.41A8.26,8.26,0,0,1,137.65,159.14Z"/><path class="cls-7" d="M136.14,101.76a16.3,16.3,0,0,1-1.2,1.57c-2.42,2.32-4.86,4.62-7.38,7a4.67,4.67,0,0,1-.32-.95c-.34-2.94-.67-5.88-.94-8.82a2,2,0,0,1,.33-1.5,11.44,11.44,0,0,1,2.43-1.5c.18-.09.57.15.82.29,1.52.87,3,1.75,4.53,2.66C135,100.85,135.49,101.29,136.14,101.76Z"/><path class="cls-7" d="M147.06,108.1c-1.2-.72-2.33-1.37-3.43-2.06-.92-.57-1.82-1.18-2.72-1.78s-1.35-1.57-.62-2.57c1.17-1.6,2.44-3.14,3.75-4.63.66-.75,1.38-.51,1.76.44.47,1.16.93,2.33,1.47,3.47a4.06,4.06,0,0,1,.38,2.79,6.27,6.27,0,0,0-.2,3.56C147.49,107.47,147.25,107.72,147.06,108.1Z"/><path class="cls-8" d="M138.53,111.22a8,8,0,0,1-5.17-5.39,2.2,2.2,0,0,1,.52-2.34c2-2.3,6.13-2.26,7.91.18a2.12,2.12,0,0,1,.24,1.84C141,107.45,139.74,109.29,138.53,111.22Z"/><path class="cls-11" d="M138,157.44a5.33,5.33,0,0,1,.28,1.19c0,1.8-.06,3.59,0,5.38,0,2.39.18,4.79.13,7.18-.06,3.15-.23,6.29-.42,9.43-.18,3-.55,5.94-.66,8.93a27.52,27.52,0,0,0,.46,4.19c-1.16-.32-1.49-.67-1.72-1.77a21.19,21.19,0,0,1,.14-7.16,126.78,126.78,0,0,0,.87-15.94c0-3.32.19-6.63.31-9.93a11.79,11.79,0,0,1,.25-1.51Z"/><path d="M144.22,67.61c.05.45.08.79.14,1.13.14.81-.28,1.21-1,1.41-2.12.61-4.23,1.28-6.37,1.82-1.79.45-2,.23-2.6-1.52,0-.14-.11-.27-.16-.4-1.84,0-2.43.51-3,2A2.41,2.41,0,0,1,130,73.4a39.35,39.35,0,0,1-5.66,1.45c-1.38.23-1.94-.34-2.39-1.73-.17-.52-.3-1-.51-1.78a34.16,34.16,0,0,1,3.42-.7c2-.21,4.06-.88,6.14-.41.09,0,.23,0,.29,0,.94-.86,2.24-.8,3.3-1.32a18.64,18.64,0,0,1,8.36-1.58A6.51,6.51,0,0,1,144.22,67.61Zm-8.63,4.06c2.76-.48,5.23-1.39,7.87-2l-.11-1.49a21.67,21.67,0,0,0-8,1.38Zm-5.4-1a63.38,63.38,0,0,0-7.72,1.25c.08.3.12.45.16.59.51,1.7.66,1.82,2.44,1.47,1.51-.3,3-.67,4.49-1,.22-.51.41-.92.56-1.34A5.38,5.38,0,0,0,130.18,70.68Z"/></g></g></svg>