<svg xmlns="http://www.w3.org/2000/svg" xmlns:xlink="http://www.w3.org/1999/xlink" viewBox="0 0 360 360"><defs><style>.cls-1,.cls-10{fill:#dde5ed;}.cls-2{isolation:isolate;}.cls-3,.cls-4{fill:#b5d0e1;}.cls-10,.cls-4{mix-blend-mode:multiply;}.cls-13,.cls-5{fill:#fff;}.cls-6{fill:#fb3449;}.cls-7{opacity:0.3;}.cls-8{clip-path:url(#clip-path);}.cls-11,.cls-9{fill:#97382e;}.cls-11{opacity:0.2;}.cls-12{clip-path:url(#clip-path-2);}.cls-13{opacity:0.5;}</style><clipPath id="clip-path"><path class="cls-1" d="M183.57,52.75c.78-4,3.39-4.79,5.12-5.82,8.57-5.09,17.94-8.81,28.52-9.2,8.9-.33,27.62-5.81,43.42,4.66,1.14.51,4.54,6.27,5.34,7.11-1,4-5.8,6.48-9.42,7.86-7,2.67-14,5.65-21.65,6.49-9.76,1.07-19.51,1.14-29-1.85-3.58-1.13-7.12-2.39-10.76-3.38A27.29,27.29,0,0,1,183.57,52.75Z"/></clipPath><clipPath id="clip-path-2"><path class="cls-1" d="M101.5,75.22c.75-3.54,3.26-4.21,4.93-5.11,8.26-4.48,17.29-7.74,27.48-8.09,8.58-.29,26.61-5.11,41.82,4.09,1.1.44,4.37,5.51,5.15,6.25-1,3.56-5.58,5.69-9.07,6.91-6.74,2.35-13.46,5-20.85,5.71-9.41.94-18.79,1-27.91-1.63-3.45-1-6.86-2.1-10.36-3A27.31,27.31,0,0,1,101.5,75.22Z"/></clipPath></defs><title>Icon_Wine_Tasting_3C</title><g class="cls-2"><g id="Background"><circle id="_27.62.111" data-name="27.62.111" class="cls-3" cx="180" cy="180" r="180"/></g><g id="Artwork"><path class="cls-4" d="M229.26,246.34s-1.46-5.88-28.31-4.76-37.48,5.41-45.9,5-25.14-3.86-31.4,2.45,2.52,17.91,8.27,18.17,2.22,4.34-10.43,5.88-43.89-8-62,.88,11.28,34.6,43.54,32.51S174.48,301.77,177,294s-8.42-7.43-2.07-15.33,23.67-5.57,45.17-8.43S229.26,246.34,229.26,246.34Z"/><path class="cls-5" d="M224.65,275.34c-9.75-.31-19.51-.5-29.25-1a45.17,45.17,0,0,1-9.14-1.83,11.29,11.29,0,0,1-4.11-2.12c-3.17-2.59-3.2-5.75-.42-8.81,3.68-4.05,8.51-6,13.54-7.61a166.39,166.39,0,0,1,28.2-6,13.94,13.94,0,0,1,3.8-.33c8.52,1.3,17.17,2,25.13,5.82a19.44,19.44,0,0,1,9.79,10.71c1.42,3.49,1,4.65-2.32,6.4a14.6,14.6,0,0,1-5.15,1.77c-9.3.88-18.62,1.55-27.93,2.31-.71.06-1.41.15-2.12.22Z"/><path class="cls-5" d="M230.85,151.9c-.65,3.91-1,7.45-1.86,10.83-1.45,5.44-1.22,11-1.36,16.48-.12,4.67-.56,9.34-.7,14-.16,5.52-.3,11.06-.18,16.58.16,7.37.42,14.74,1,22.08a67.64,67.64,0,0,0,2,11.27c.36,1.45,1.68,2.66,3,4.71.22,3-3,3.64-5.4,4.77a8.9,8.9,0,0,1-9.26-.76c-2.92-2-3-3.51-2.36-7.17,1.56-8.5,3.08-17,4.16-25.58A170.55,170.55,0,0,0,221.2,189c-.35-6.77.37-13.6.15-20.38-.18-5.62-1-11.22-1.6-16.91C223.47,150.46,226.9,151.19,230.85,151.9Z"/><path class="cls-1" d="M187.24,262.87c7,1.5,13.44,3.21,19.95,4.17a166.32,166.32,0,0,0,20.23,1.75c6.6.16,13.22-.43,20.52-.72a24.44,24.44,0,0,1-3,2,30.31,30.31,0,0,1-14.6,2.64c-7.21-.45-14.43-.74-21.63-1.31a46,46,0,0,1-16.54-4.12C190.35,266.4,188.38,265.54,187.24,262.87Z"/><path class="cls-1" d="M230.45,155.1a42,42,0,0,1-.71,4.19c-.87,3.21-1.87,6.38-2.79,9.57-1.32,4.59-2.73,9.16-3.87,13.79a25.66,25.66,0,0,0-.32,5.59,5.68,5.68,0,0,1-1.46,4.23c-.54-6.44-.1-12.5.06-18.23-.1-6.92-.94-11.77-.94-17.25A14.07,14.07,0,0,1,230.45,155.1Z"/><path class="cls-5" d="M234.5,36.52c9.61,0,16.49.58,22.91,3.82a17.94,17.94,0,0,1,9.4,11.54c.83,2.9.54,6.13.69,9.22.71,14.06-.57,28.07-1.54,42a97.61,97.61,0,0,1-8.83,33.95,46.11,46.11,0,0,1-7.75,11.06,23.78,23.78,0,0,1-7.52,5.24c-11.42,5.42-23,6.9-34.7.63a10.13,10.13,0,0,0-1.95-.85c-10.26-3-16.75-9.84-21.05-19.4-5.23-11.65-9.38-23.61-8.93-36.46.32-9,2-18,3.14-27a43.19,43.19,0,0,1,1.7-7.46c1.37-4.29,2.9-8.53,4.51-12.73a4.59,4.59,0,0,1,2.08-2c3.23-1.74,6.38-3.86,9.85-4.91A173.94,173.94,0,0,1,234.5,36.52Z"/><path class="cls-6" d="M181.7,101.53c.88-6.64,1.13-13.4,3.59-19.87,2.12-5.58,6.07-9,13.55-8.65a95,95,0,0,1,10.73.75c9.69,1.52,19.07.13,28.49-1.86a105,105,0,0,1,15.5-2.23c8.27-.49,11,2.88,9.6,10.45a114.14,114.14,0,0,0-1.91,16,49.59,49.59,0,0,1-3.12,14.54c-3.63,10.36-7.29,20.73-13.24,30.24-3,4.84-9.87,8.3-16,9.41a30,30,0,0,1-17.1-1.42c-5-2-8.55-5.57-12.18-9a56.63,56.63,0,0,1-17.32-32.52C182,105.46,181.92,103.53,181.7,101.53Z"/><g class="cls-7"><path class="cls-6" d="M262.29,94.55c-.54,11.39-.6,22.11-4,32.32a132.8,132.8,0,0,1-6.59,16.1c-2.89,5.87-8.14,8.81-14.51,9.81a5.72,5.72,0,0,1-2.53.13c-3.78-1.27-6-2.67-3.44-6.57,1.93-3,4.2-5.68,6.28-8.54,5.43-7.44,7.9-16,8.84-25,.74-7,1-14.13,1.81-21.17a18.59,18.59,0,0,1,2.15-6.8c1.46-2.64,3.51-2.82,6.19-1.42C261.32,86,262.4,90.37,262.29,94.55Z"/><path class="cls-5" d="M224.07,142c1.15,3.38,2,6.32-1.05,8.77-1.15.93-2.24,1.74-3.74.76s-2.92-1.63-2.89-3.75a5.61,5.61,0,0,1,5-5.78A24.66,24.66,0,0,1,224.07,142Z"/></g><path class="cls-1" d="M183.57,52.75c.78-4,3.39-4.79,5.12-5.82,8.57-5.09,17.94-8.81,28.52-9.2,8.9-.33,27.62-5.81,43.42,4.66,1.14.51,4.54,6.27,5.34,7.11-1,4-5.8,6.48-9.42,7.86-7,2.67-14,5.65-21.65,6.49-9.76,1.07-19.51,1.14-29-1.85-3.58-1.13-7.12-2.39-10.76-3.38A27.29,27.29,0,0,1,183.57,52.75Z"/><g class="cls-8"><path class="cls-9" d="M181.7,96.74c.88-8.77,1.13-17.71,3.59-26.25,6-17.76,77-28.86,77.87-2a197.33,197.33,0,0,0-1.91,21.16,83.92,83.92,0,0,1-3.12,19.21c-3.63,13.68-7.29,27.39-13.24,39.95-3,6.39-9.87,11-16,12.43a23.27,23.27,0,0,1-17.1-1.88c-5-2.62-8.55-7.36-12.18-11.91-9.58-12-15.22-26.45-17.32-43C182,101.93,181.92,99.38,181.7,96.74Z"/></g><path class="cls-1" d="M214.87,248.84a11.28,11.28,0,0,0,9.21,3.33c5.76-.61,7.56.37,5.56,1.41s-12.44,1.81-15.43-.63S213.87,248.62,214.87,248.84Z"/><path class="cls-10" d="M182.41,55.94s12.76,2.68,27.73,61.87C213.48,131,214,153,249.38,148.14c0,0-3.95,9.39-26.78,10s-45-21.48-47.41-48.72S182.41,55.94,182.41,55.94Z"/><path class="cls-5" d="M196.54,58.84c52.54,6.76,59.89.3,68.41-7.65a3.38,3.38,0,0,1,1.58-.6c.14,0,.22,3.5-.44,4.28-5.27,6.19-24.27,15.09-62,7.51C200.53,62.2,193.54,58.63,196.54,58.84Z"/><path class="cls-11" d="M199.71,59.24a82.3,82.3,0,0,0,27.77,6c15.82.64,30.19-5.18,29.07-7.94S199.71,59.24,199.71,59.24Z"/><path class="cls-5" d="M141.44,289.11c-3.34,1.62-6.42,3.82-10.68,1.35,4.52-16.92,6.56-34.1,7.27-51.39s.16-34.6-3.51-52.24c.58-1,2.06-1.41,3.92-1.55,3.67-.29,7.32-.94,11-1.4.34,0,.72.23,1.18.39-3,7.73-4,15.77-5.33,23.81-4,24.63-3.32,49.51-4.31,74.3A64.39,64.39,0,0,0,141.44,289.11Z"/><path class="cls-1" d="M134.14,184.93s3.48,23.5,3.66,26.4.33,17.06,0,19.74,1.92-25.62,5.13-32.26,7.08-13.44,6.49-14.92S134.14,184.93,134.14,184.93Z"/><path class="cls-5" d="M98.75,297a59.42,59.42,0,0,1,5-4.24c8.27-5.53,17-9.84,27.25-10.27,8.6-.36,17.31-1.4,25.56,1.83,6,2.33,11.68,5.29,17.42,8.16,1.1.55,1.76,2,2.54,2.88-1,4.4-4,7-7.54,8.46-6.76,2.9-13.49,6.14-20.9,7.06-9.43,1.17-18.84,1.24-28-2-3.46-1.23-6.88-2.6-10.39-3.67C105.3,303.89,102.49,300.55,98.75,297Z"/><path class="cls-5" d="M156.57,62.65c7.32-1.13,14.58,2.75,21.52,7.35,3.74,2.48,5.09,6.32,5.89,10.21q2,9.81,3.54,19.71c1.42,9.29,3,18.58,3.77,27.93a102.32,102.32,0,0,1-.45,19c-.65,6.28-3.78,12-7.72,17.06a63.25,63.25,0,0,1-25.95,19.87c-9.46,4-18.81,3.48-28.17,1.93-18.93-3.14-29.18-14.92-34.53-31-3.41-10.23-3.41-20.63-1.53-31,1.83-10.16,4-20.26,6-30.4,1-5.22,1.79-10.46,2.72-15.69a5.52,5.52,0,0,1,3.57-4.55c3.18-1.27,6.16-3.08,9.46-3.94C127.78,65.74,141,62.68,156.57,62.65Z"/><path class="cls-5" d="M114,80.57c50.61,5.95,57.7.26,65.9-6.72a3.45,3.45,0,0,1,1.53-.53c.14,0,.22,3.08-.42,3.76-5.08,5.44-23.38,13.26-59.69,6.6C117.83,83.53,111.11,80.39,114,80.57Z"/><path class="cls-6" d="M105.39,97.08s-4.44,19.61-5.08,32.48c-.3,6-.65,46.69,34.75,48.38,7.17.34,19.57.64,27.74-2.81,16.84-7.12,22.06-27.36,20.58-36.36s-2.07-20.89-2.57-28.49S176.93,94,176.93,94s-3.55-2.57-9.94-2c-5.09.44-9,4.76-24.55,3.52-12-1-20.32-4.07-26.56-3.43A18.57,18.57,0,0,0,105.39,97.08Z"/><path class="cls-1" d="M101.5,75.22c.75-3.54,3.26-4.21,4.93-5.11,8.26-4.48,17.29-7.74,27.48-8.09,8.58-.29,26.61-5.11,41.82,4.09,1.1.44,4.37,5.51,5.15,6.25-1,3.56-5.58,5.69-9.07,6.91-6.74,2.35-13.46,5-20.85,5.71-9.41.94-18.79,1-27.91-1.63-3.45-1-6.86-2.1-10.36-3A27.31,27.31,0,0,1,101.5,75.22Z"/><g class="cls-12"><path class="cls-9" d="M97.26,113.45c.85-7.71,1.09-15.56,3.46-23.07,5.82-15.61,74.18-25.36,75-1.79a158.65,158.65,0,0,0-1.84,18.59,67.86,67.86,0,0,1-3,16.89c-3.5,12-7,24.07-12.75,35.11-2.92,5.62-9.51,9.63-15.37,10.92a24.35,24.35,0,0,1-16.47-1.65c-4.77-2.3-8.23-6.47-11.73-10.47-9.23-10.55-14.67-23.25-16.68-37.76C97.59,118,97.47,115.77,97.26,113.45Z"/></g><path class="cls-5" d="M116.54,83C166,86.31,172.45,80,179.88,72.21a3.16,3.16,0,0,1,1.44-.64c.13,0,.44,3.2-.13,3.94-4.51,6-21.65,15.19-57.33,10.34C120.48,85.9,113.73,83,116.54,83Z"/><path class="cls-13" d="M176.16,97.71c3.16-.85,5.13.07,6,2.66s2.22,5.56,2.28,8.37c.26,12.63-1.34,25-5.81,36.94a15.75,15.75,0,0,1-10.24,10,4.56,4.56,0,0,1-5.36-1.57c-1.83-2.13-2.55-5.51-1.24-7.2,6.66-8.57,7.9-19,10.21-29.08C173.55,111.17,174.78,104.49,176.16,97.71Z"/><path class="cls-13" d="M156.2,154.76c1.27,2.74,1.19,6.83,6.22,6.22-3.41,3.06-6.27,3.46-9.17,1.55-2.44-1.61-3.12-3.11-2.35-5.41C151.78,154.54,153.65,154,156.2,154.76Z"/><path class="cls-10" d="M101.5,88.4s-8.09,42-4.1,57.45,14.49,32.8,31.21,33.66,25.94-2.79,23.58-6.22-35.78-6-38.9-36S111.48,86.47,101.5,88.4Z"/><path class="cls-11" d="M114,80.57s2.47,8.68,25.48,9.39,32.31-9.39,32.31-9.39-.13-1.89-2.5-1.75S114,80.57,114,80.57Z"/><path class="cls-1" d="M152.49,303.08c-2.07.56-4.13,1.6-6.2,1.59-6,0-12-.26-18-.76A44.23,44.23,0,0,1,114,300.8c-1.2-.52-2.3-.79-2.27-2.4s1.06-2.09,2.24-2.58a9.14,9.14,0,0,1,8.81.46,37.75,37.75,0,0,0,18,5.14c2.6,0,5.2.13,7.79.28,1.31.08,2.61.37,3.91.56Z"/><path class="cls-1" d="M130.88,282.11a11.28,11.28,0,0,0,9.21,3.33c5.76-.61,7.56.37,5.56,1.41s-12.44,1.81-15.43-.63S129.88,281.89,130.88,282.11Z"/></g></g></svg>