<svg xmlns="http://www.w3.org/2000/svg" viewBox="0 0 360 360"><defs><style>.cls-1{isolation:isolate;}.cls-2,.cls-3{fill:#b5d0e1;}.cls-12,.cls-3{mix-blend-mode:multiply;}.cls-4{fill:#9d6a30;}.cls-5{fill:#c4a683;}.cls-6{fill:#00c1de;}.cls-7{fill:#f43662;}.cls-8{fill:#22d3c5;}.cls-9{fill:#513628;}.cls-10{fill:#fddd97;}.cls-11{fill:#b08859;}.cls-12{fill:#fddd78;}.cls-13{fill:#fbc651;}.cls-14{fill:#fcd174;}.cls-15{fill:#fff;}</style></defs><title>Icons_Retirement_Planning_3C</title><g class="cls-1"><g id="Background"><circle id="_27.62.111" data-name="27.62.111" class="cls-2" cx="180" cy="180" r="180"/></g><g id="Artwork"><path class="cls-3" d="M78.44,184.25a112.19,112.19,0,0,1-27.8,9.08c-14.54,2.44-29,18.2-19.74,28.91s60.33,33.35,74.29,41.32,72.21,48.88,90.42,50.26,63.54-5.52,73.28-13.33,19-30.65,5.16-36.93S78.44,184.25,78.44,184.25Z"/><path class="cls-4" d="M306.42,164.89c.46,7.31-.43,14.55-1.13,21.8-.38,4-.43,8-.78,11.93q-1,11.73-2.25,23.44c-.51,5-1.38,9.92-1.66,14.91-.47,8.48-2.57,16.62-4.39,24.82a13.35,13.35,0,0,1-6.3,8.46c-6.75,4.07-13.63,7.9-20.45,11.82a6.34,6.34,0,0,1-1.48.74c-5.94,1.53-11.25,4.47-16.59,7.45-3.17,1.77,4.47.2-10.05,4.26-4.14,1.49-40.36-10-53.45-17-2.53-1.37-39.73-21.74-50.47-26.79-6.2-2.92-12.17-6.37-18.24-9.6-9.88-5.27-19.81-10.46-29.62-15.88-3.57-2-6.88-4.48-10.27-6.8a10.37,10.37,0,0,1-4.41-8Q74,200,73.28,189.63c-.16-2.38.06-4.78,0-7.17-.18-11.27-.68-22.55-.53-33.81.19-14,.72-28,1.49-42A161.44,161.44,0,0,1,76.8,87.41c1-5.62,3.9-10.16,9-12.85a85.56,85.56,0,0,1,17.53-7c7-1.93,13.9-4.35,20.82-6.63,2.14-.71,3.91-1,6.2.28,2.85,1.58,6.32,1.91,9.38,3.15,9.94,4,19.81,8.21,29.72,12.3,7,2.87,13.94,5.64,20.9,8.5q12.89,5.31,25.74,10.7c5.2,2.17,10.46,4.23,15.58,6.59,7,3.24,14.07,6.51,20.91,10.15a328.17,328.17,0,0,0,30.56,14.64c3.17,1.29,6.35,2.56,9.5,3.91,6.11,2.62,9.74,7.59,12,13.78a36.83,36.83,0,0,1,1.82,13.45C306.38,160.56,306.42,162.72,306.42,164.89Z"/><path class="cls-5" d="M266.22,155.78c4.34-2.94,8.43-5.73,13.29-7.12a11.67,11.67,0,0,0,2.06-1,143.06,143.06,0,0,1,18.88-8.7c2.47-.86,4.8-2.14,7.12-3.2,2.39,1.23,3.43,2.84,3.24,5.39-.56,7.68-1,15.37-1.48,23-.26,4-.53,7.92-1,11.85-.75,6.66-1.65,13.31-2.45,20-.75,6.23-1.52,12.45-2.19,18.69s-1.3,12.48-1.83,18.73c-.55,6.58-1.13,13.16-1.35,19.75-.14,4-1.49,7.65-2.67,11.37a1.91,1.91,0,0,1-.42.87c-4.52,3.8-8.82,7.92-13.65,11.28a159.41,159.41,0,0,1-15.43,8.94c-3,1.62-6.17,2.92-9.31,4.25a8,8,0,0,1-3.2.6c-2.25-.05-2.88-1.1-2.71-3.39a74.4,74.4,0,0,0,.34-9.54c-.4-7.64.7-15.16,1.38-22.71.66-7.34,1.44-14.68,1.86-22,.53-9.35,1.67-18.62,2.88-27.89.67-5.12,1-10.29,1.62-15.41q1.63-13.09,3.48-26.16C265.07,160.81,265.7,158.35,266.22,155.78Z"/><path class="cls-6" d="M183.18,256.05l-5,7.31a5.9,5.9,0,0,1-4.06-5.3,43,43,0,0,0-1.32-5.15L165.47,256l-1.85-3.47,2.92-6.62a26.07,26.07,0,0,1-4-3c-2.5-2.74-1.63-5.33,1.94-6.26l3.8-1c-.78-1.79-1.42-3.38-2.16-4.93-.55-1.16-1.07-2.48,0-3.31a4.45,4.45,0,0,1,3-.33,46,46,0,0,1,4.92,1.38c1-2.32,1.89-4.56,3-6.66.68-1.29,1-3.24,2.94-3.2,2,0,1.84,2.2,2.5,3.47a26.62,26.62,0,0,1,1.25,3.69c1.54-1.24,2.84-2.36,4.22-3.38a6.37,6.37,0,0,1,2.27-1.21c1.87-.41,2.63.17,2.91,2.08s.47,3.89.72,6c3.43-.65,6-4.4,10.14-1.56l-3.83,9.75a17.52,17.52,0,0,0,1.93.79c1.16.33,2.39.48,3.51.9.54.2,1.3.87,1.28,1.29a2.6,2.6,0,0,1-1.09,1.78,15.64,15.64,0,0,1-3,1.28c-.91.34-1.84.63-2.87,1,.81,3.34,3.2,6,3.16,9.83l-11-1.56-.86,10.87C187.51,261.93,185.7,258.71,183.18,256.05Z"/><path class="cls-7" d="M197.37,152.09c2.9-.47,6.38.44,9.71,2.08a11.12,11.12,0,0,1,6,6.33c2.22,6.57,2.9,13-1.53,19.2-1.45,2-2.15,4.64-4.55,5.89-1.53.8-3.14,1.8-4.79,2-7.51.75-13.93-1.43-18.42-7.83a48.78,48.78,0,0,1-3.48-6c-2.57-5.06-1.4-9.73,1.4-14.38a15.44,15.44,0,0,1,9.29-6.9C192.7,152,194.66,152.22,197.37,152.09Z"/><path class="cls-8" d="M130.51,110.89a30,30,0,0,1,3.18,12.72c.31,7,1.07,14,1.59,21,.12,1.6,0,3.22,0,5.22a10.51,10.51,0,0,1-3.1.09,129.17,129.17,0,0,1-22.53-8.32c-.68-.34-1.45-.49-2.15-.8-2.27-1-2.75-2.87-1.06-4.66,2.48-2.65,5.11-5.16,7.59-7.82,4.21-4.5,8.33-9.08,12.53-13.59C127.73,113.53,129,112.37,130.51,110.89Z"/><path class="cls-9" d="M201.71,286.14c-4-.54-12.58-5.89-19.81-12,1-5.5,1.76-10.89,2.92-16.21s2.77-10.66,4.09-16,1.85-10.7,4.58-15.86c5.25,4,11.77,3.1,16.78,6.69A378.6,378.6,0,0,0,201.71,286.14Z"/><path class="cls-9" d="M96.62,178.36a9.87,9.87,0,0,1,2.7-.26c4.08.81,8.19,1.56,12.19,2.69,2.8.79,2.84,1.6,2.21,4.42s-1,5.84-1.34,8.77c-.29,2.28-.54,4.58-.67,6.87-.49,8.87-.93,17.75-1.39,26.62,0,.88-.08,1.76-.21,2.63-.29,2-.79,3.87.12,5.83.22.48-.1,1.22-.19,2-3.37-.11-5.84-2.33-8.79-2.94A14.52,14.52,0,0,1,94,230.66c-2.21-2.16-2.45-3.58-1.23-6.38a12.23,12.23,0,0,0,.94-3.47C94.81,211.2,96,201.6,96.8,192c.33-3.79-.1-7.65-.17-11.49C96.61,179.84,96.62,179.2,96.62,178.36Z"/><path class="cls-10" d="M309.47,162.09C301.29,160,297,153.9,292.81,146c6-2.77,9.63-7.62,17.43-8.37C312.37,139.84,309.47,154.93,309.47,162.09Z"/><path class="cls-10" d="M261.47,288.84c-2.36,1.88-7.86,5.09-11.49,3.89a82,82,0,0,1,1.71-15.15c.47-1.92,1.14-5.13,1.8-7a12.83,12.83,0,0,1,4.18,4.18C259.89,279.19,261.88,284,261.47,288.84Z"/><path class="cls-10" d="M286.85,274.91c.19-10,8-22.18,14.16-22.79.11.28.38.61.32.87-.89,4.06-1.61,8.17-2.85,12.12-.44,1.39-2.09,2.44-3.29,3.55-1.68,1.56-3.41,3.08-5.21,4.51A23.37,23.37,0,0,1,286.85,274.91Z"/><path class="cls-11" d="M75.9,80.4c.13-2.33,15-8.39,21-10.9,5.69-2.41,11.65-4.21,17.52-6.19A54.57,54.57,0,0,1,119.79,62c10.42-2.36,10.46-2.46,20.49.83,7.77,2.55,15.44,5.39,23.15,8.13,9.23,3.28,18.57,6.28,27.64,9.94,10,4.05,19.87,8.61,29.7,13.15q34.22,15.78,68.35,31.76c4.59,2.14,9.1,4.48,13.58,6.85a9.7,9.7,0,0,1,3.14,2.6c1.68,2.22,2,3.5-.18,4.84-.24.15-2.12.58-2.41.69-4.14,1.72-7.5,4-11.71,5.6-5.82,2.17-11.66,4.3-17.43,6.63a25.35,25.35,0,0,0-5.3,3.19,9.4,9.4,0,0,0-1.7,2.53c-2.41.4-4.67-.56-6.88-1.43a362.67,362.67,0,0,1-36.66-17c-8.21-4.36-17-7.58-25.54-11.39-4.52-2-9-4.1-13.43-6.33A328.59,328.59,0,0,0,146.3,106c-8-2.85-15.85-6.28-23.84-9.22-6.26-2.31-12.64-4.27-19-6.4-4.8-1.62-9.61-3.18-14.37-4.89C84.72,83.88,80.37,82.12,75.9,80.4Z"/><path class="cls-4" d="M120.65,78.68a25.89,25.89,0,0,1,3.68.67q8.77,2.89,17.5,5.93c8.1,2.83,16.21,5.65,24.26,8.62,14.05,5.17,27.91,10.81,41.4,17.34,6,2.93,12.2,5.62,18.33,8.36,9,4,18.09,8.07,27.17,12,9.79,4.26,19.63,8.41,29.43,12.64a41.67,41.67,0,0,1,3.74,2.1c-1.35,1.6-2.52,1-3.6.6-5.7-2-11.42-4-17.08-6.15-5.35-2-10.63-4.22-15.91-6.42-3.25-1.35-6.45-2.81-9.65-4.28-14.2-6.53-28.37-13.13-42.6-19.58-5.61-2.54-11.33-4.87-17.05-7.14q-28.38-11.27-56.79-22.45c-1.06-.42-2.05-1-3.08-1.53Z"/><path class="cls-4" d="M282.26,279c-3.81-2.56-3.65-6.09-3.6-9.26.2-13.88,0-27.81,1.65-41.61,1.28-10.62,2.61-21.22,2.35-31.92-.21-8.79,1.63-17.28,3-25.86.92-5.75,1.53-11.55,2.29-17.32.18-1.36.42-2.71.64-4.07l.86.07c-.06,2.58,0,5.16-.21,7.73-.48,5.7-1,11.39-1.69,17.07a250.86,250.86,0,0,0-1.62,27c-.06,6.61.27,13.29-.56,19.81-2.22,17.45-1.81,35-2.47,52.47C282.83,275,282.51,276.83,282.26,279Z"/><path class="cls-9" d="M286.1,124.85c-5.53-.93-9.74,2.24-14.28,4.12-9.88,4.09-19.65,8.43-29.47,12.66-.51.22-1,.39-1.54.65-9.1,4.84-16.79,1.39-24.13-4.08-2.09-1.56-5.46-3.45-7.84-5.29a16,16,0,0,1,3.51-1.38q21.34-7.82,42.71-15.55c4.41-1.6,8.66-2.2,13.29-.18,5.19,2.26,10.71,3.75,16.07,5.62C285.74,121.89,287.06,122.52,286.1,124.85Z"/><path class="cls-9" d="M101.66,89.74c.86-1.84,3.23-4.71,5-5.38,5.53-2.08,11-4.36,16.5-6.44,6.62-2.48,13.3-4.8,19.92-7.27a15.29,15.29,0,0,0,3.7-2.07c5.54-4.12,14.24-1.78,18.47.77,2.62,1.58,2.9,4,.52,6.11a57.68,57.68,0,0,1-8.78,6.2C153.07,84,125.44,93,122.46,96.76,121.3,98.22,112.51,94.43,101.66,89.74Z"/><path class="cls-9" d="M189.6,259.68c-3-5.3-3.25-11.27-4.21-17.07a3.87,3.87,0,0,1,.1-1.45c2.67-11.71,5.5-23.4,8-35.14,3.46-16.12,6.72-32.28,10-48.43,1.28-6.31,2.32-12.67,3.58-19a58.48,58.48,0,0,1,1.77-5.69c3.59,1.64,6.77,2.92,9.8,4.51s5.74,3.43,8.64,5.09a2.9,2.9,0,0,1,1.41,3.76c-.82,3-1.73,5.9-2.33,8.9-1.6,8-2.93,16.11-4.6,24.12-1,5-2.56,9.84-3.77,14.77-2,8.19-3.62,16.49-6,24.57-2.61,8.89-3.68,18-4.35,27.12a8.32,8.32,0,0,1-3.64,6.8C197.05,257.57,197.16,257.72,189.6,259.68Z"/><path class="cls-9" d="M101.8,88.49c6.47,2.33,13,2.48,18.63,6.1a4.75,4.75,0,0,1,2.39,5.25c-.49,3.68-1.17,7.33-1.75,11-2,12.48-4.08,24.94-4.33,37.63-.06,3.2-.77,6.38-1.13,9.57-.8,7-1.54,14-2.36,21.06-.53,4.54-1.2,9.07-1.72,13.62-.3,2.7-.26,5.44-.65,8.13-.79,5.48-4.82,8.47-9.22,10.82-2.3,1.23-4.7,0-5.6-2.51a110.27,110.27,0,0,1-4.6-14.48c-.63-3,.08-6.34.32-9.51.46-6,.9-12.1,1.58-18.13.53-4.67,1.52-9.29,2.13-14,1-7.37,1.8-14.75,2.72-22.13.21-1.72.49-3.44.83-5.14A146.57,146.57,0,0,0,101.31,94,51.57,51.57,0,0,1,101.8,88.49Z"/><path class="cls-12" d="M74.2,103.85c0-6.47-.12-12.17,0-17.86.12-4.36-.38-6.46,3.84-7.06,7-1,15.14,1.42,21.48,4.33A13.07,13.07,0,0,1,98,87.62,39.1,39.1,0,0,1,78.83,103,27.44,27.44,0,0,1,74.2,103.85Z"/><path class="cls-13" d="M253.86,270.59c.87,2.66.18,4.88-.1,7.13-.46,3.78-.82,7.58-1.14,11.38-.11,1.31-1.93,4.07-3.23,4.26-5.11,1.31-13.5,2.7-18-.36-1.82-1.23,2.71-9.62,3.8-10.91,4.42-5.24,9.76-9.13,16.6-10.65A15.1,15.1,0,0,0,253.86,270.59Z"/><path class="cls-13" d="M72.64,196.72c4.13.62,6.38,3.22,8.63,5.53a18.79,18.79,0,0,1,4.92,9.19,90.9,90.9,0,0,1,1,10.09c-2.14,1.17-4.08.72-6-.2s-3.5-1.85-5.32-2.59a3.93,3.93,0,0,1-2.73-4q0-7.87-.07-15.74A15.78,15.78,0,0,0,72.64,196.72Z"/><path class="cls-14" d="M98.36,88a11.12,11.12,0,0,1-8.79-1.24,39.37,39.37,0,0,0-11.68-4.35,15.72,15.72,0,0,1-3.22-1.64A52,52,0,0,1,96.89,69.5c2.85,1.87,4.64,5.29,4,8.52S99.21,84.64,98.36,88Z"/><path class="cls-14" d="M299.42,131c3.52,2.08,7.68,3.49,10.81,6.67A192.7,192.7,0,0,1,292.81,146C293,137.39,292.76,136.17,299.42,131Z"/><path class="cls-10" d="M278.12,152.37c.66,4.85-.31,9-1.61,13.16a36.9,36.9,0,0,1-9.12,15.06c-1.22,1.22-2.38,2.17-4.59,1,.28-3,.54-6.11.88-9.26s.92-6.36,1.08-9.56c.13-2.39.64-4.12,3-5.29,2.75-1.34,5.21-3.26,7.87-4.82A7.31,7.31,0,0,1,278.12,152.37Z"/><path class="cls-13" d="M251.33,153.55c.43.14.65.2.85.29,3.81,1.69,7.62,3.36,11.41,5.09,1.58.72,2,1.81,1.71,3.71-.61,4.89-.9,9.83-1,14.76s-.88,6.43-6.53,4.25A18.31,18.31,0,0,1,246.48,164c.19-3.55,1.87-6.5,3.45-9.5C250.17,154,250.94,153.8,251.33,153.55Z"/><path class="cls-14" d="M251.33,153.55c6.94-7.51,21.05-9.71,26.66-1.34-.72.05-9.74,5.41-13.11,8C260.7,158,255.53,155.84,251.33,153.55Z"/><path class="cls-13" d="M99.06,206.14c2.19-1.77,4.24-3.4,6.27-5.08.85-.7,1.91-1.16,2.63-.33a2.82,2.82,0,0,1,.43,2.61c-2,2.55-3.45,5.68-6.79,7-3,1.15-4.55.44-5.91-2.44s-3-5.65-4.49-8.45c-.15-.29-.56-.51-.57-.78a21.45,21.45,0,0,1,.1-2.34c.67.12,1.55,0,2,.39a21.41,21.41,0,0,1,3.47,3.83A56.37,56.37,0,0,1,99.06,206.14Z"/><path class="cls-13" d="M190.42,258c-2.7-4.28-2.63-9.3-3.44-14.87,1,.59,1.86.77,2,1.21.72,1.7,1.26,3.48,1.81,5.24.39,1.24.7,2.51,1.14,4.13,2.16-1.09,4.14-2.16,6.19-3.1s3.92-2.39,7-2.21C201.18,253.37,196.84,256.81,190.42,258Z"/><path class="cls-13" d="M117.19,181.81c-2.47,0-4.76.46-6.77-.09-5.37-1.48-11-2.11-16.07-4.65a24.65,24.65,0,0,0-4-1.4c-2.17-.65-2.94-1.45-2.81-3.74.32-5.25.52-10.51,1.81-15.67.59-2.38.77-4.87,1.18-7.63,3,.25,6.1.3,9.08.8,5,.84,9.92,1.86,14.83,3a31.69,31.69,0,0,1,6.47,2.37c2.17,1,2.26,1.77,1.73,4.24-1,4.51-1.74,9.06-2.79,13.55C119.12,175.71,118.09,178.72,117.19,181.81ZM115.95,160l-20.44-4.16a32.17,32.17,0,0,0-2.57,13.77l19.89,5.26Z"/><path class="cls-13" d="M220.88,200.82c0,2.92-2.56,7.82-3.07,9.86-.69,2.77-1.21,5.58-1.82,8.38a7.63,7.63,0,0,1-.5,1.91c-1.69,3.23-2.2,3.2-4.72,2-4.55-2.2-9.17-4.26-13.77-6.34-1.5-.68-3-1.26-4.59-1.84-2.66-1-3.26-1.57-3.07-4.33a56.65,56.65,0,0,1,1.29-8.44c1-4.58,2.3-9.1,3.52-13.86C203.14,192.5,213.36,193.46,220.88,200.82ZM198.59,197c-.64,4.84-3.15,8.56-3,12.85l15.09,7.26,2.55-12.92Z"/><path class="cls-14" d="M106.88,166.2c-1.12,3.28-2.2,6.38-3.24,9.49-.36,1.09-.84,2.37-2.13,2a3.42,3.42,0,0,1-2.08-2.25c-.41-3.58-.41-7.18,1.6-10.58Z"/><path class="cls-14" d="M203.13,206.84c1.65-.87,3.05,0,4.21.93a2.94,2.94,0,0,1,.93,2.53c-1,2.76-2.32,5.43-3.61,8.09-.2.41-.82.61-1.26.91C201.65,216.55,201.6,213,203.13,206.84Z"/><path class="cls-14" d="M143.37,63.91c-.2.81-6.08,3.61-12.47,4.2-9.46-.86-15-4.32-15-5.22,0-.56,4.26-1.71,5.09-2,2.9-1,5.86-1.77,8.87-2.65A39.57,39.57,0,0,1,143.37,63.91Z"/><path class="cls-15" d="M274.06,162.41a3.56,3.56,0,0,1-3.27,3.47c-1.51,0-1.74-1.19-1.88-2.26a3.36,3.36,0,0,1,2.89-3.38C273.32,160.19,274,160.89,274.06,162.41Z"/><path class="cls-15" d="M83.16,90.68a4.76,4.76,0,0,1-.72,1.78,3.83,3.83,0,0,1-2.29,1.43,1.85,1.85,0,0,1-1.62-2.41,7,7,0,0,1,2.21-3.32C81.72,87.38,83.18,88.78,83.16,90.68Z"/><path class="cls-15" d="M256.58,287.33c-2-1.63-2.59-3.06-2.18-4.83.31-1.33,1.65-2.29,2.64-1.87,1.2.52,2.06,1.55,1.64,2.86A23,23,0,0,1,256.58,287.33Z"/><path class="cls-15" d="M246.65,286.17a2.35,2.35,0,1,1-4.68.11,3.38,3.38,0,0,1,2.4-2.79C245.53,283.36,246.59,284.61,246.65,286.17Z"/><path class="cls-15" d="M255.56,170c-1,0-1.91-1.26-1.83-2.61.09-1.54,1.35-3,2.55-2.93,1,0,1.85,1.3,1.82,2.71A2.65,2.65,0,0,1,255.56,170Z"/><path class="cls-15" d="M307.76,146.29c.07,1.75-1.49,3.55-2.58,3.57s-2.09-1.23-2.2-2.5a2.18,2.18,0,0,1,2.48-2.37A7.37,7.37,0,0,1,307.76,146.29Z"/><path class="cls-15" d="M78.72,214.69c-2.71-1-3.6-2.29-2.81-3.82.3-.59,1.07-1.31,1.61-1.29A2.08,2.08,0,0,1,79,210.93,18.38,18.38,0,0,1,78.72,214.69Z"/><path class="cls-15" d="M298.39,260.59a2.81,2.81,0,0,1-2.59,2.85,2.2,2.2,0,0,1-1.65-1.12c-.4-1.07,1.34-2.76,2.72-2.62C297.48,259.74,298,260.36,298.39,260.59Z"/><path class="cls-12" d="M252.77,287.33s-37.9-15.84-57.15-27.65-44-49.73-47.26-67.88,1.4-46.19,0-63.66S166,83.69,168.56,78.68s1.63-5.32,1.63-5.32L129.83,58.25s-24.16,7.54-28.17,9.37c-4.47,2-13.82,4.43-18.51,7.18-2.29,1.35-6.42,3.25-8.1,5.19s-1,4.22-.91,11.63c.19,14.53-1.34,122.86-1,125s40.47,22.52,45.07,24.5c2.47,1.06,30.33,15,57.94,30,25.86,14.08,50.38,21.77,58.49,23.28C254.28,298,252.77,287.33,252.77,287.33Z"/><path class="cls-13" d="M220.71,124.89c-1.24-3.55-2.62-7-3.68-10.64-1.82-6.14-6.09-10.07-11.36-12.79-7.45-3.85-14.83-8-22.94-10.28-6.59-1.86-13.3-3.21-20.11-1.78a34.88,34.88,0,0,0-7.71,3c-2,1-3.87,2.26-6.54,1.75a6.93,6.93,0,0,1,.54-1.81,36.38,36.38,0,0,0,3-4.22A13.69,13.69,0,0,1,161,80.71a43.79,43.79,0,0,1,22.58-.35c2.31.54,4.67.85,7,1.43A61.93,61.93,0,0,1,207,89.14c6.09,3.63,12,7.6,16.51,13.24a88,88,0,0,1,7.13,10.68c.85,1.47,1,3.43,1.2,5.19a2.33,2.33,0,0,1-.73,1.92C228,122,225.23,124.82,220.71,124.89Z"/></g></g></svg>