<svg xmlns="http://www.w3.org/2000/svg" xmlns:xlink="http://www.w3.org/1999/xlink" viewBox="0 0 360 360"><defs><style>.cls-1{fill:none;}.cls-2{isolation:isolate;}.cls-3{fill:#b5d0e1;}.cls-4{clip-path:url(#clip-path);}.cls-5{fill:#414042;}.cls-11,.cls-6{fill:#dfe3eb;}.cls-7{fill:#231f20;}.cls-8{fill:#a67d42;}.cls-9{fill:#fccfb3;}.cls-10{fill:#fff;}.cls-11{mix-blend-mode:multiply;}</style><clipPath id="clip-path"><circle id="_27.62.111" data-name="27.62.111" class="cls-1" cx="180" cy="180" r="180"/></clipPath></defs><title>Icon_Language_Support_01_3C</title><g class="cls-2"><g id="Background"><circle id="_27.62.111-2" data-name="27.62.111" class="cls-3" cx="180" cy="180" r="180"/></g><g id="Artwork"><g class="cls-4"><path class="cls-5" d="M99,215.51c9.28-3.9,7.25,1.92,7.68,7.76.79,10.58,1.71,21.15,2.61,31.72,1,12.26,4.56,23.95,8.07,35.66,3,10.14,7.53,20,7.58,30.82.08,17.09,3.52,33.79,5.39,50.67a143.61,143.61,0,0,1,.36,18c-.16,9.81-.36,19.62-.9,29.42-.43,7.78-1.29,15.53-2.12,23.28-.49,4.57-1.37,9.09-1.94,13.66s-2.71,6.22-7.46,6.74c-11.17,1.24-20.93-2.35-30-8.3a5.87,5.87,0,0,1-2.5-4.23c.32-6.35,1-12.7,1.79-19,1.51-12.13,3.09-24.25,4.81-36.35,2.48-17.41.78-34.73-.75-52.07q-.68-7.77-1.18-15.56c-.24-3.8-.35-7.61-.45-11.41q-.67-25.54-1.31-51.08c-.07-2.8-.17-5.61-.47-8.39-1-9.08-.67-18,2.84-26.6a68.29,68.29,0,0,1,3-7.36C95.38,220.44,96.29,217.29,99,215.51Z"/><path class="cls-5" d="M310.3,424.83c-2.88,2.67-5.91,3.39-9.44,3.82a184.57,184.57,0,0,0-19.42,3.84c-4.54,1.05-5.25,1-6.34-3.47q-2.52-10.51-4.32-21.18c-2.24-13.23-4.67-26.45-6.18-39.77-1.13-9.93-.95-20-1.35-30a18.5,18.5,0,0,0-.11-3c-1.55-7.43-3.16-14.85-3.69-22,.66-1.58,1.84-3.15,1.89-4.76.55-19,.72-38.09,1.42-57.12.65-17.43,2.46-34.75,7.76-51.51.48-1.52.74-3.12,1.11-4.68,1.28-2.06,5.66-4,8.8-2.62,4.24,1.82,6.33,2.56,7.68,7.7,2.54,9.67,6.15,19.11,8,28.89,1.87,10,2.23,20.26,3.09,30.42.76,9,.51,18,2.46,26.89,1.09,5,.72,10.39.49,15.58a148.74,148.74,0,0,0,1.35,23.94c1.43,12.11,1.8,24.35,2.46,36.55.86,16,1.47,32,2.4,48C308.63,415.09,309.61,419.81,310.3,424.83Z"/><path class="cls-6" d="M230.25,424.51c-10.45,2.08-20.38,4.11-30.34,6-2.93.56-5.94.75-8.92,1-6,.55-11.91,1.12-17.87,1.52a12.85,12.85,0,0,1-4.71-.65c-3.43-1.11-4.64-3-3.5-6.38,6.37-19,9.78-38.84,17.46-57.43,2.57-6.23,4.26-12.82,6.4-19.38,2.17-1.1,3.42,0,4.81,1.84,12,15.66,22.28,32.18,28.08,51.29,2.13,7,5.71,13.58,8.58,20.37A5,5,0,0,1,230.25,424.51Z"/><path class="cls-7" d="M167.68,204a150.4,150.4,0,0,0,5.64,40.6c4,13.82,7.72,27.78,10.8,41.84,1.92,8.75,2.69,17.77,3.53,26.72.95,10.15,2.06,20.36,1.9,30.53a180.3,180.3,0,0,1-6,41.5c-.53,2.1-1.53,4.08-2.26,6.14-1.07,3-2.49,6-3.06,9.08-3,16.26-9.15,31.48-15,46.76-2.07,5.37-4.66,10.88-8.33,15.2-4.85,5.72-10.11,11.46-17.29,14.57C124.2,482.72,111,489.07,96.9,493c-4.24,1.18-5.42.8-6.48-3.3a13.54,13.54,0,0,1-.25-5.88c1-4.7,2.43-9.3,3.45-14,.88-4.07,1.37-8.23,2.14-12.33.66-3.53,1.44-7,2.24-10.55,3.63-15.81,8.5-31.26,13.48-46.69,2.64-8.16,4.06-16.71,6-25.1.95-4.09,1.46-8.31,2.79-12.27,3.62-10.81,3.34-21.71,1-32.61-4.75-22.52-10.07-44.91-14.48-67.49a172.94,172.94,0,0,1-3.2-44.81c.2-3,1-4.26,3.69-5.11,11.68-3.74,23.52-6.69,35.77-7.62C151.23,204.64,159.39,204.4,167.68,204Z"/><path class="cls-7" d="M217,193.84c19.12.36,37.77-3.54,56.31-.06,2.15,3.36,1.38,6.5.29,9.54-7,19.65-8.83,40.06-9.69,60.73-.58,14-2.49,27.9-3.71,41.86-.59,6.76-1,13.54-1.48,20.31-.18,2.4,0,4.93-.73,7.16-2.51,7.74-1,15.3,0,23.07,1.72,14.35,7.28,27.38,12.49,40.58.29.74.72,1.44.94,2.21,2.13,7.48,4.59,14.9,6.25,22.48,1.88,8.57,3.24,17.26,4.45,26,1.19,8.5,1.93,17.06,2.8,25.6a49.59,49.59,0,0,1,0,5.1c-5.17,2.62-9.81,2.27-14.64-.17-17.84-9-33.86-20.16-43.16-38.49-3.87-7.63-6.4-16-9.36-24a224.06,224.06,0,0,0-20.61-42c-5.46-8.71-7.25-18-7-28.09.15-6-.18-11.94-.5-17.89a31.24,31.24,0,0,1,2.6-14.05c4.44-10.5,9.52-20.79,13.21-31.55a121.29,121.29,0,0,0,5.63-25.71c1.78-15.92,2.52-32,3.84-47.93C215.28,203.9,216.18,199.39,217,193.84Z"/><path class="cls-6" d="M185.28,342.69c-3.56-1.47-4.88-4-5.77-6.54-1.84-5.28-3.93-10.58-4.88-16-3.63-20.93-9.23-41.39-14.14-62-2.55-10.7-5-21.43-7.18-32.21-1.11-5.47-2.81-12.51-3.43-18.07-.44-4,1.69-4.18,5.51-5.11,4.41-1.08,9-1.61,13.47-2.31,2.57-.4,5.15-.8,7.74-1,6.18-.37,12.38-.94,18.55-.76,5.14.15,11.85.54,17.91,1.34.26,3.19-.77,7.31-.81,10.73-.14,13-.31,26-.8,39-.4,10.61-3,20.88-5.26,31.23-3.82,17.29-11.55,33.18-16.93,49.9-.67,2.09-1.22,4.21-1.91,6.29C186.74,338.94,186,340.69,185.28,342.69Z"/><path class="cls-8" d="M273.21,176.87c-8.1,3-14.93,6-22,8.09s-14.14,1-21.05-1.33c-10.78-3.6-21.51-7.36-32.39-10.64-10-3-19.56-2.72-28.39,4.28a117.43,117.43,0,0,1-18.91,12.23c-4.33,2.24-9.49,3.06-14.37,4-10.39,2.06-20.81,4-31.29,5.56-4.66.67-9.49.11-14.25.11-1.48-8.4.32-16.15,1.16-23.91,1.51-14,3.59-27.9,4.85-41.9a329.29,329.29,0,0,1,7-43.33c1.06-4.7,1.73-9.5,3.1-14.1,4.68-15.67,13.91-28.76,24.65-40.71,6.75-7.5,15.58-11.34,25.87-12.48,6.22-.69,12.19-.93,18.32.28,11.39,2.25,20.6,8.07,28.59,16.28,8.25,8.48,13.18,18.82,17.23,29.71,1.27,3.42,2.79,6.76,4.07,10.18,1.4,3.77,3.06,7.52,3.89,11.43,2.52,11.83,8.27,22.4,12.87,33.39,5.05,12.06,10.86,23.82,16.63,35.57C261.9,166,265.65,172.06,273.21,176.87Z"/><path class="cls-9" d="M212.77,110.06c6.48,1.86,11,6.33,13.38,13,1.68,4.63,1.19,6.62-3.18,8.9a29,29,0,0,1-8.42,2.92c-3.43.58-5.2,1.95-5.94,5.52-1.3,6.34-3.85,12-9,16.48-4.06,3.46-7,8.34-11.39,11.3-8.69,5.9-18.28,6.69-27.77,1.59-11.45-6.15-19.32-15.36-22.93-28a6.22,6.22,0,0,0-.62-1.26c-4.36-.63-8.56-.82-12.51-1.9-4.76-1.31-8.82-3.93-9.82-9.38-1.1-6,1.41-10.64,6.08-14.05,3-2.21,6.47-3.83,10.33-6.07,0-3.2-.44-6.84.09-10.34,1.26-8.28,2-16.84,4.77-24.64,3.89-11,9.87-21.08,20-27.71,13.21-8.61,29.94-5.42,39.86,7.93,10.9,14.67,15.13,31.55,16.17,49.45.1,1.8.25,3.59.4,5.38C212.31,109.33,212.47,109.49,212.77,110.06Z"/><path class="cls-8" d="M120.46,107.06c.29-2.86.76-5.74.85-8.63C122,76.81,131.76,59.74,147.86,46c11.38-9.73,25-12,39.42-11.08,2.68.17,4.23,1.39,3.42,4.27-1,3.44-1.47,7.18-3.22,10.18-10.55,18.1-24.22,33.76-39,48.42C140.5,105.59,131.87,108.32,120.46,107.06Z"/><path class="cls-9" d="M171.85,168.81c3.31-.42,5.83-.68,8.33-1.08,3.53-.56,4.82-.05,5.67,3.54a153.85,153.85,0,0,1,2.81,15.31c1.25,9.38,3.17,18.53,7.79,26.92.38.69,1.12,1.64.9,2.13-2,4.66-1.85,10.41-6.34,13.83-3.82,2.91-8,1.79-12,.33-5.46-2-10.08-5.09-12.14-10.79a15.65,15.65,0,0,1-1-7c1.66-13.49,3.59-26.94,5.44-40.4C171.41,170.68,171.66,169.74,171.85,168.81Z"/><path class="cls-10" d="M165.22,201.81c2.49,3.45,4.07,5.84,5.87,8.07,3.5,4.34,7,8.66,10.7,12.85,4.17,4.76,4.63,6.85,2,12.35a68.33,68.33,0,0,1-4.34,8.44c-3.15,4.76-8.09,5.28-12.11,1.21a17.73,17.73,0,0,1-4.08-6.51,54.88,54.88,0,0,1-1.52-28.39C162.2,207.46,163.67,205.29,165.22,201.81Z"/><path class="cls-11" d="M186.36,231.32a16.91,16.91,0,0,1,.67,3c.42,9.17.76,18.35,1.17,27.52.4,9,.82,18,1.31,27,.66,12.05,1.49,24.1,2.08,36.16.29,5.93,1,12,.16,17.81-3,20.79,1,41.16,2.84,61.66.79,9,1.54,17.92,2.35,26.88.15,1.7.51,3.39.79,5.22-2.54,1-3.24-.4-3.37-2.32-.21-3.25-.08-6.52-.42-9.75-1.92-18.68-4.18-37.33-5.82-56-.75-8.57-1.61-17.46-.18-25.82,2.33-13.57-.48-26.72-.94-40.05-.28-8.24-.84-16.48-1.18-24.72-.57-13.6-1.11-27.19-1.54-40.8a32.75,32.75,0,0,1,.82-5.76Z"/><path class="cls-10" d="M194.53,199.41c1.7.64,3.33.74,4,1.6,7,8.57,11.13,18,8.34,29.41-1.32,5.38-6.65,8.14-11.46,5.32-3-1.76-5.36-4.68-7.7-7.35a4.85,4.85,0,0,1-.58-3.88C189.42,216.45,191.86,208.43,194.53,199.41Z"/><path class="cls-5" d="M187,334.33c1.81-4.07,3.62-7.39,4.81-10.92,4.84-14.42,10.25-28.71,14-43.42,3-11.77,4.38-24,5.54-36.15,1.06-11.15,1-22.42,1.17-33.64.08-5-.59-10-.74-15-.18-6.09,2.59-7.49,8.74-8.44,5-.79,9.84.17,11,5.37,3.13,14.25,7,28.33,7.87,43.07a37,37,0,0,1-6.88,24.62c-.23.32-.34.73-.55,1.06-2.7,4.2-6.56,8.08-7.79,12.67s0,9.84.56,14.75c.77,6.36-2.45,11.17-5.64,16-7.3,11-14.82,21.84-22.13,32.84-1.5,2.25-6.48,14.19-5.06,20.62.37,1.67.63,3.36,1.13,6-1.71-.93-2.8-1.15-3.19-1.79-3.88-6.29-7.51-12.74-11.5-19a35.85,35.85,0,0,0-6.17-7.31c-8.72-7.82-13.62-17.13-12.24-29.14.71-6.17,1.33-12.36,2.12-18.52.81-6.34.71-6.09-4.46-9.65A97.74,97.74,0,0,1,144,267.57a43.05,43.05,0,0,1-13.11-33.7,126.57,126.57,0,0,1,4.41-29.64c.89-3.11,6.84-5.13,9.79-4.83,3.58.36,4.59.64,5.63,4,2.32,7.45,4.9,14.82,7,22.32q5.63,19.93,10.79,40c3.31,12.95,6.07,26,9.49,39C180.61,314.4,183.85,324,187,334.33Z"/><path class="cls-5" d="M225.8,98.92c.1-1.51.15-3,.15-4.65,0-36.5-26.45-67.38-59-67.38-33,0-59.81,30.75-59.81,67.08q0,2.49.17,5c.22,3.28-7.18,5.1-7.45,1.8q-.28-3.37-.28-6.77c0-40.92,30.22-74.22,67.37-74.22,36.68,0,66.53,33.43,66.53,74.51,0,2.36-.1,4.64-.3,6.89C232.86,105.05,225.54,102.85,225.8,98.92Z"/><path class="cls-5" d="M184.74,175.18l-2.25,0,.11-4.77c16.11.38,28.56-3.54,37-11.65A38.74,38.74,0,0,0,231.06,134l4.77.1a43.17,43.17,0,0,1-12.89,28.08C213.93,170.81,201.08,175.18,184.74,175.18Z"/><rect class="cls-7" x="163.78" y="164.45" width="31.89" height="14.31" rx="5.96" ry="5.96"/><path class="cls-7" d="M225.79,98.87a20.87,20.87,0,1,1,0,41.73Z"/><path class="cls-7" d="M107.35,98.9a20.87,20.87,0,1,0,0,41.73Z"/></g></g></g></svg>