<svg id="Layer_2" data-name="Layer 2" xmlns="http://www.w3.org/2000/svg" xmlns:xlink="http://www.w3.org/1999/xlink" viewBox="0 0 282.81 282.81"><defs><style>.cls-1{fill:none;}.cls-2{fill:#4cc1bb;}.cls-3{clip-path:url(#clip-path);}.cls-4{fill:#fb3449;}.cls-5{fill:#003b71;}.cls-6{fill:#dfe3eb;}.cls-7{fill:#022a3a;}</style><clipPath id="clip-path"><circle class="cls-1" cx="141.91" cy="141.4" r="141.4"/></clipPath></defs><title>IG_icon_mortgage_RGB_250216</title><circle class="cls-2" cx="141.4" cy="141.4" r="141.4"/><g class="cls-3"><rect id="Ground" class="cls-4" x="-2.95" y="190.05" width="287.02" height="102.64"/></g><polygon class="cls-5" points="56.2 108.51 56.2 190.07 115.1 190.07 115.1 143.37 115.1 107.87 56.2 108.51"/><path class="cls-6" d="M171.21,69.85l-56.11,38v35.51c.1,22.4.1,46.7.1,46.7H228.5v-82.7ZM134.8,104.27a.35.35,0,0,1-.2-.1.31.31,0,0,1,.2.1Zm2.1,10.7Zm0,0Z"/><rect class="cls-7" x="68.3" y="129.67" width="33.1" height="20.1"/><rect class="cls-7" x="180.8" y="124.87" width="20" height="29.7"/><polygon id="Roof" class="cls-7" points="115.1 107.87 171.2 69.89 222 103.17 228.5 107.37 240.7 107.07 171.7 62.57 131 64.57 115.1 65.07 100.8 65.37 42.1 108.67 115.1 107.87"/><rect class="cls-7" x="112.3" y="50.87" width="20.9" height="6.44" rx="1" ry="1"/><rect class="cls-7" x="114.38" y="54.88" width="16.76" height="11.04"/></svg>