<svg id="Icon" xmlns="http://www.w3.org/2000/svg" viewBox="0 0 282.81 282.81"><defs><style>.cls-1{fill:#4cc1bb;}.cls-2{fill:#00c1de;}.cls-3{fill:#022a3a;}.cls-4{fill:#fff;}</style></defs><title>IG_icon_insurance_RGB_230216</title><circle class="cls-1" cx="141.4" cy="141.4" r="141.4"/><path class="cls-2" d="M80.85,169.8l.29-87.61s.11-2.36,3.1-2.32,26.93-2.17,32.77-3.35,17.35-5.89,23.73-5.89,17.88,4.71,23.73,5.89,29.78,3.39,32.77,3.35a3.43,3.43,0,0,1,2.06.53L213.7,66.09a3.64,3.64,0,0,0-3.26-1.37c-3.69,0-33.22-2.68-40.43-4.13s-21.4-7.27-29.27-7.27-22.06,5.82-29.27,7.27S74.72,64.77,71,64.72s-3.82,2.86-3.82,2.86l-.36,108.08s-1,5.17,14,22.52l10.82-10.75C80.08,173.86,80.85,169.8,80.85,169.8Z"/><path class="cls-3" d="M214.26,67.58a3.1,3.1,0,0,0-.56-1.49L199.29,80.41a2.49,2.49,0,0,1,1,1.78l.29,87.61s1,5.2-16,23.46-43.91,25.55-43.91,25.55-26.94-7.28-43.91-25.55c-2-2.12-3.69-4.05-5.2-5.83L80.81,198.18c1.71,2,3.61,4.12,5.76,6.43,20.94,22.54,54.17,31.52,54.17,31.52s33.23-9,54.17-31.52,19.71-28.95,19.71-28.95Z"/><path class="cls-4" d="M164.46,76.53c-5.84-1.18-17.35-5.89-23.73-5.89S122.85,75.35,117,76.53s-29.78,3.39-32.77,3.35-3.1,2.32-3.1,2.32l-.29,87.61s-.77,4.07,10.78,17.63l107.67-107a3.43,3.43,0,0,0-2.06-.53C194.24,79.92,170.3,77.71,164.46,76.53Z"/><path class="cls-2" d="M96.82,193.26c17,18.27,43.91,25.55,43.91,25.55s26.94-7.28,43.91-25.55,16-23.46,16-23.46l-.29-87.61a2.49,2.49,0,0,0-1-1.78l-107.67,107C93.14,189.21,94.86,191.14,96.82,193.26Z"/></svg>