<svg xmlns="http://www.w3.org/2000/svg" viewBox="0 0 282.81 282.81"><defs><style>.cls-1{fill:#4cc1bb;}.cls-2{fill:#022a3a;}.cls-3{fill:#fff;}.cls-4{fill:#ef3b4d;}</style></defs><title>IG_icon_investments_RGB_250216</title><g id="Layer_1" data-name="Layer 1"><circle class="cls-1" cx="141.4" cy="141.4" r="141.4"/></g><g id="Layer_2" data-name="Layer 2"><polygon class="cls-2" points="210.81 76.41 140.88 159.51 130.32 131.71 72.78 208.29 213.19 209.58 212.67 76.41 210.81 76.41"/><polygon class="cls-3" points="218.69 91.2 212.69 91.2 212.69 73.55 195 73.55 195 67.55 218.69 67.55 218.69 91.2"/><polygon class="cls-3" points="75.18 210.09 70.39 206.49 132.56 123.74 142.07 153.43 213.4 68.62 217.99 72.48 139.68 165.6 130.38 136.62 75.18 210.09"/><polygon class="cls-4" points="74.23 207.29 73.19 70.44 67.89 70.54 68.93 210.87 69.03 210.87 69.03 212.37 213.19 212.37 213.19 207.29 74.23 207.29"/></g></svg>