<svg id="Layer_1" data-name="Layer 1" xmlns="http://www.w3.org/2000/svg" viewBox="0 0 282.81 282.81"><defs><style>.cls-1{fill:#4cc1bb;}.cls-2{fill:none;}.cls-3{fill:#003b71;}.cls-4{fill:#dfe3eb;}</style></defs><title>IG_icon_retirement_RGB_230216</title><circle class="cls-1" cx="141.4" cy="141.4" r="141.4"/><path class="cls-2" d="M142.86,81.95c-7,0-12.5,1.95-16.24,5.79A20.67,20.67,0,0,0,122,96.09h42.58C162,89.49,156.24,81.95,142.86,81.95Z"/><path class="cls-3" d="M215.78,96.09H176a41.45,41.45,0,0,1,1.51,9.42h-11a30.11,30.11,0,0,0-1.92-9.42H122a34.36,34.36,0,0,0-1.47,9.42h-11a41.89,41.89,0,0,1,1.08-9.42H74.21a12,12,0,0,0-12,12V192a12,12,0,0,0,12,12H215.78a12,12,0,0,0,12-12V108.09A12,12,0,0,0,215.78,96.09Z"/><path class="cls-3" d="M126.62,87.73c3.73-3.84,9.2-5.79,16.24-5.79,13.38,0,19.17,7.55,21.68,14.14H176a40.29,40.29,0,0,0-2.9-7.58c-4.07-8-12.61-17.56-30.2-17.56-10.12,0-18.24,3.07-24.12,9.12-4.72,4.85-7,11-8.17,16H122A20.67,20.67,0,0,1,126.62,87.73Z"/><path class="cls-4" d="M166.46,105.51h11A41.45,41.45,0,0,0,176,96.09H164.54A30.11,30.11,0,0,1,166.46,105.51Z"/><path class="cls-4" d="M109.49,105.51h11A34.36,34.36,0,0,1,122,96.09H110.56A41.89,41.89,0,0,0,109.49,105.51Z"/><rect class="cls-4" x="92.78" y="96.09" width="3" height="107.87"/><rect class="cls-4" x="193.48" y="96.09" width="3" height="107.87"/><rect class="cls-4" x="93.48" y="135.03" width="101.5" height="3"/></svg>