<svg id="Icon" xmlns="http://www.w3.org/2000/svg" viewBox="0 0 282.81 282.81"><defs><style>.cls-1{fill:#4cc1bb;}.cls-2{fill:#003b71;}.cls-3{fill:none;stroke:#dfe3eb;stroke-miterlimit:10;stroke-width:6px;}.cls-4{fill:#dfe3eb;}.cls-5{fill:#fff;}</style></defs><title>IG_icon_cashflow_RGB_251016</title><circle class="cls-1" cx="141.4" cy="141.4" r="141.4"/><path class="cls-2" d="M61.8,200a21.75,21.75,0,0,1,1.28-2.37c3.26-4.58,6.56-9.13,9.83-13.7a4.27,4.27,0,0,0,.33-4.93,74.26,74.26,0,0,1-6.74-16.5c-.57-2.23-2.7-2.34-4.55-2.66q-8.22-1.39-16.44-2.77A2.74,2.74,0,0,1,43,154.05c0-8.17,0-16.34,0-24.5,0-1.9.81-2.91,3-3.3,4.41-.8,8.85-1.46,13.28-2.17,1.51-.24,3-.41,4.54-.73a3.62,3.62,0,0,0,2.78-2.7A87.41,87.41,0,0,1,73.49,104,3.8,3.8,0,0,0,73,99.7q-5.47-7.4-10.74-14.93a2.36,2.36,0,0,1,.38-3.2q9-9,18.07-18.06c1.29-1.29,2.54-.79,3.76.08Q91.8,68.78,99.07,74a3.66,3.66,0,0,0,4,.36,90.29,90.29,0,0,1,17.28-7.11c2.31-.63,2.2-3.08,2.54-5,1-5.42,1.86-10.84,2.79-16.26a2.48,2.48,0,0,1,2.66-2.18q12.6-.08,25.2,0c2,0,2.65,1.24,3.12,4.33.82,5.44,1.84,10.84,2.73,16.27.29,1.77,1.35,2.49,2.95,3.11,5.43,2.12,10.79,4.4,16.15,6.68a4.28,4.28,0,0,0,4.75-.47c4.82-3.6,9.74-7.07,14.68-10.5a2.64,2.64,0,0,1,3.46.46q8.87,8.82,17.7,17.69a2.84,2.84,0,0,1,.18,3.89q-5.21,7.27-10.38,14.56c-1.17,1.66-.88,3.21-.05,5.09,2.31,5.22,4.41,10.54,6.54,15.84a3.77,3.77,0,0,0,3.17,2.67c6,1,12,2.08,17.94,3.07a2.83,2.83,0,0,1,2.52,3.12c.07,8.11,0,16.22,0,24.33,0,2-1.51,3.11-4.23,3.53-5.49.86-11,1.87-16.45,2.74-2,.31-2.79,1.68-3.27,3.3a63.93,63.93,0,0,1-6.25,15c-1.67,2.8-.32,5,1.26,7.16,3,4.14,6,8.27,9,12.43,1.29,1.82,1.31,2.81-.23,4.37q-8.47,8.61-17.08,17.08c-1.59,1.56-2.73,1.56-4.52.24-4.71-3.45-9.52-6.78-14.27-10.18a4,4,0,0,0-4.52-.29A79.82,79.82,0,0,1,162,216.19c-2,.65-2.57,2.28-2.87,4-1,5.59-1.87,11.19-2.8,16.79a3,3,0,0,1-3,2.8q-12.25,0-24.5,0a3.22,3.22,0,0,1-3.34-3c-.78-4.42-1.45-8.85-2.16-13.28a25.08,25.08,0,0,0-.81-4.86,4.41,4.41,0,0,0-2.41-2.39,101.74,101.74,0,0,1-16.79-7,3.73,3.73,0,0,0-4.19.29q-7.32,5.28-14.68,10.5a2.7,2.7,0,0,1-3.75-.17q-9-8.87-17.81-17.83A8,8,0,0,1,61.8,200Z"/><path class="cls-3" d="M165.65,91.28A56.22,56.22,0,0,1,169.94,190"/><polygon class="cls-4" points="171.52 165.94 175.92 166.91 171.1 188.57 193.05 191.8 192.39 196.25 165.65 192.32 171.52 165.94"/><path class="cls-3" d="M116,192.15a56.22,56.22,0,0,1-4.27-98.34"/><polygon class="cls-4" points="110.32 117.87 105.92 116.93 110.59 95.24 88.61 92.16 89.24 87.7 116.01 91.45 110.32 117.87"/><path class="cls-5" d="M145.44,115.55a19.78,19.78,0,0,1,5.74,1.65,6.53,6.53,0,0,1,1.26-.56,4.16,4.16,0,0,1,4.25,1.11q1.18,1.3,1.18,4.35v2.72q0,3.05-1.18,4.35a3.9,3.9,0,0,1-3,1.3,4,4,0,0,1-2.87-1.11,5,5,0,0,1-1.38-3.26,11.59,11.59,0,0,0-7.43-2.35q-4.66,0-6.83,1.67a4.7,4.7,0,0,0-2.17,3.69,3.76,3.76,0,0,0,1.32,2.81q1.32,1.24,5.53,2.1l5.61,1.2q7.1,1.45,10.19,4.33a12.47,12.47,0,0,1,4,9.7,13.64,13.64,0,0,1-3.69,9.39q-3.69,4.11-10.54,5.43v7.18q0,3.05-1.18,4.35a4,4,0,0,1-3.07,1.3,3.9,3.9,0,0,1-3-1.3q-1.18-1.3-1.18-4.35v-7.18a32.57,32.57,0,0,1-6.6-2.19,5.32,5.32,0,0,1-3.3,1.49,4.13,4.13,0,0,1-3.2-1.28q-1.18-1.28-1.18-4.33v-5.32q0-3.05,1.18-4.35a4.33,4.33,0,0,1,5.63-.47,4.67,4.67,0,0,1,1.49,2.54,5.87,5.87,0,0,0,1.28,2.58,9.31,9.31,0,0,0,3.78,2.21,15.69,15.69,0,0,0,5.22.89,12.4,12.4,0,0,0,7.84-2.43,5,5,0,0,0,2.1-4.17,4.62,4.62,0,0,0-1.4-3.47q-1.4-1.32-5.9-2.23l-6.36-1.28q-6.73-1.32-9.86-4.83a12.19,12.19,0,0,1-3.14-8.42,12.66,12.66,0,0,1,3.38-8.67,15.19,15.19,0,0,1,9-4.79v-2.31q0-3,1.18-4.31a4,4,0,0,1,3.07-1.3,3.9,3.9,0,0,1,3,1.3q1.18,1.3,1.18,4.31Z"/></svg>