<svg id="Layer_1" data-name="Layer 1" xmlns="http://www.w3.org/2000/svg" viewBox="0 0 287.15 287.15"><defs><style>.cls-1{fill:#174a71;}.cls-2{fill:#0a263c;}.cls-3{fill:#05c3de;}.cls-4{fill:#fbc651;}.cls-5{fill:#00c389;}.cls-6{fill:#f4364c;}.cls-7{fill:#003c71;}</style></defs><title>taxplanning_buildingblocks_shareicon_blue_3C_240416</title><g id="background"><circle class="cls-1" cx="143.57" cy="143.57" r="143.57"/></g><g id="pie_chart" data-name="pie chart"><path class="cls-2" d="M62.11,190.27C64,192.11,66,194,67.91,195.8c9.11,8.48,19.33,14.67,31.88,16.92,7.6,1.37,15.16,2.79,22.88,3.07,9.2.33,18.38.39,27.5-1.52a113.12,113.12,0,0,0,31.1-11.61,111.39,111.39,0,0,0,26.89-20,47.52,47.52,0,0,0,9.09-13c3.09-6.61,6-13.33,8.53-20.18a55.44,55.44,0,0,0,2.38-11.42c.75-5.34,1.17-10.72,1.75-16.09.15-1.37.3-2.75.57-4.1a1.21,1.21,0,0,1,2.17-.54,11.13,11.13,0,0,1,1.65,3.15c1.21,4.64,2.28,9.31,3.39,14a5.37,5.37,0,0,1,.14,1.19c.06,7.71.32,15.46-1.85,23-1.05,3.65-2.38,7.22-3.76,10.77a101.4,101.4,0,0,1-24.44,36.41c-7.28,7.06-15.18,13.26-24.73,17.27-10.2,4.28-20.52,8-31.46,9.69-6.12,1-12.2,2.5-18.46,2-6-.45-12-.85-17.92-1.72a87.72,87.72,0,0,1-14.32-3.23A144,144,0,0,1,87.07,224a14.47,14.47,0,0,1-3-2,75.64,75.64,0,0,1-13.38-12.9,70.4,70.4,0,0,1-9-15.24,12.38,12.38,0,0,1-.46-3.14Z"/><path class="cls-3" d="M136.79,224.22c-7.21-.28-12.23-.23-17.21-.72a81.27,81.27,0,0,1-33.35-11.24c-2.68-1.57-5.27-3.3-8-4.84-5.93-3.39-10.66-8.14-15.09-13.2a30.92,30.92,0,0,1-5.92-10c-1.85-5.18-3.77-10.34-5.61-15.53-2.18-6.15-2.43-12.52-2.37-19a139.49,139.49,0,0,1,2.13-23.91c1.81-9.87,5.78-19,10.63-27.64C69,85.65,78.54,75.28,89.38,66a38.71,38.71,0,0,1,6.25-4.14c5.33-3,10.42-6.45,16.26-8.41,3-1,6.13-1.86,9.2-2.75,2.78-.8,5.55-1.69,8.38-2.26,5.29-1.08,10.59-2.43,15.94-2.82,10.4-.75,20.85-.77,31.06,2a56.09,56.09,0,0,1,18.3,8.82c7.43,5.34,14.58,11,20.63,17.88a71.56,71.56,0,0,1,16.91,36.56,130.91,130.91,0,0,1,1.14,26.62,74.09,74.09,0,0,1-6,26.54c-6.15,14.17-14.9,26.41-27.46,35.84-6.66,5-13.8,9.21-20.61,13.92A59.16,59.16,0,0,1,162,221.67a56.42,56.42,0,0,1-10.93,1.73C145.61,223.87,140.11,224,136.79,224.22Z"/><path class="cls-4" d="M205.88,64.06c.25,1.18-.52,3.7-1.26,3.36-6.2,7-12.34,14-18.55,20.89-3.54,3.95-7.17,7.82-10.81,11.68-5.43,5.75-10.91,11.45-16.38,17.17L143.3,133.43a6.26,6.26,0,0,1-4.34,2.12,15.93,15.93,0,0,1-2-8.2c.33-9,.59-18,.62-27,.05-16.14-.05-32.28-.17-48.41,0-4.81-.18-4.91,4.39-6.15,8.42-2.28,16.92-3.31,25.47-.64,6.3,2,12.65,3.82,18.82,6.16A52.55,52.55,0,0,1,203,62,30.63,30.63,0,0,0,205.88,64.06Z"/><path class="cls-5" d="M232,105.34a281.21,281.21,0,0,1-44.27,16.71c-14.54,4.28-29,8.68-43.56,13-.47.14-1,.23-1.39.32-1-.91-.6-1.7,0-2.46,1.87-2.37,3.58-4.89,5.64-7.09q15-16.08,29.18-32.87c7.44-8.77,15.72-16.84,23.65-25.21a17.22,17.22,0,0,1,2-1.81c2.19-1.67,3.4-1.5,5.55.23a63.86,63.86,0,0,1,16.47,21c2.27,4.43,3.64,9.31,5.38,14C231.1,102.46,231.45,103.79,232,105.34Z"/><path class="cls-6" d="M136.82,134.91a18.71,18.71,0,0,1,2.45-1.19c5.74-1.84,11.52-3.59,17.25-5.46,8.79-2.86,17.51-6,26.35-8.65,14.34-4.35,28.75-8.44,43.13-12.63.56-.16,1.13-.3,1.7-.42,3.51-.72,4.5-.2,5.64,3.31a15.52,15.52,0,0,1,.81,4.41c.1,5.49.48,11-.5,16.45-.55,3.07-.8,3.6-3.81,3.73-8.55.36-17.1.56-25.65.91-12.15.49-24.29,1.15-36.44,1.56-4.85.16-9.72-.1-14.58-.24s-9.71-.36-14.56-.58a8.58,8.58,0,0,1-1.59-.37Z"/><path class="cls-7" d="M98.74,162.09c.87.75,2.14.21,2.31,1.73l-2.74.62c-.12,1.48-.31,3-.33,4.42,0,.71-.18,1.08-.87,1.13a1.4,1.4,0,0,1-1.62-1.14v0c-.07-.74,0-1.5,0-2.24V164.4l-4.79-.93c1.68-1.43,3.41-.35,5-1l1-4.48c-1.86-.52-4,.37-5.62-1.24.37-.25.68-.64,1-.62,2.52.18,5.08-.09,7.85.55Z"/><path class="cls-7" d="M110.52,157.68c-1.56,1.27-3.27.67-4.85,1.33l-.19,2.25c.8.1,1.52.15,2.22.29a3.51,3.51,0,0,1,2.71,4.16q0,.12-.06.24a3.2,3.2,0,0,1-1.5,1.51c-1.58.83-3.67.68-6.37-.3.35-.33.58-.73.89-.8a13.41,13.41,0,0,1,2.23-.21c2.24-.1,2.62-.69,1.78-3a13.57,13.57,0,0,0-1.37.14c-1.81.36-1.8.37-3.33-1a39.35,39.35,0,0,1,.52-4c.11-.49.72-1.2,1.14-1.24a50.65,50.65,0,0,1,5.22,0A6,6,0,0,1,110.52,157.68Z"/><path class="cls-7" d="M121.25,169.9a4.48,4.48,0,0,1-1.36-.93c-.84-1.1-.17-4.33,1-5.16.74-.54,2.89.1,3.46,1,1,1.65-.25,4.59-2.13,4.95A5,5,0,0,1,121.25,169.9Zm1.71-2.42c0-1.14-.5-1.85-1.08-1.82a1.48,1.48,0,0,0-1.24,1.42,1.18,1.18,0,0,0,1.16,1.2H122c.44-.11.77-.61,1-.78Z"/><path class="cls-7" d="M123.2,157.1c-.34,2-6.44,10.54-8.5,11.81a11,11,0,0,1,.57-1.69C117.51,163.22,121.64,157.91,123.2,157.1Z"/><path class="cls-7" d="M116.89,160.86a1.92,1.92,0,0,1-2.17-2,3.29,3.29,0,0,1,2.76-3,2.08,2.08,0,0,1,2,2.15v.06A2.7,2.7,0,0,1,116.89,160.86Zm1.69-2.52a6.35,6.35,0,0,0-1.35-.87c-.63-.13-1.51.67-1.31,1.2s.79,1,1.12.9S118,158.91,118.58,158.34Z"/><path class="cls-7" d="M155.69,86.83c1.54.8,3.21-.9,4.55.56a8.91,8.91,0,0,1-7,.35c.29-.72.55-1.47.9-2.18.73-1.52,1.59-3,2.23-4.54a15.67,15.67,0,0,0,.58-3,2.26,2.26,0,0,0-2,1.43c-.94,1.35-1,1.35-2.49.46.86-2.21,2.22-3.33,4-3.34,1.49,0,2,.53,2.46,2,.61,2-.27,3.68-1.24,5.3C157,84.84,156.36,85.8,155.69,86.83Z"/><path class="cls-7" d="M147.75,80.4c-1.73,1.49-1.73,1.49-3.28,1.06-.07-2.17,1.67-4.25,4.17-5,1.43.58,1.73,1.66,1.6,3.13-.19,2.17-.16,4.37-.23,6.55a4.46,4.46,0,0,1-.05,1.3c-.12.35-.47.8-.78.84a1.25,1.25,0,0,1-1.07-.5,4.61,4.61,0,0,1-.35-1.81C147.72,84.27,147.75,82.55,147.75,80.4Z"/><path class="cls-7" d="M168.11,89.36a4.43,4.43,0,0,1-1.34-.92c-.83-1.09-.17-4.29.94-5.1.73-.54,2.86.1,3.43,1,1,1.64-.25,4.54-2.11,4.89A4.52,4.52,0,0,1,168.11,89.36Zm1.7-2.39c0-1.13-.49-1.83-1.07-1.8a1.47,1.47,0,0,0-1.23,1.38,1.17,1.17,0,0,0,1.16,1.18h.18c.42-.08.75-.58.95-.75Z"/><path class="cls-7" d="M170,76.7c-.34,1.94-6.37,10.42-8.41,11.68a10.9,10.9,0,0,1,.57-1.67C164.41,82.75,168.49,77.5,170,76.7Z"/><path class="cls-7" d="M163.79,80.42a1.9,1.9,0,0,1-2.14-2,3.25,3.25,0,0,1,2.73-3,2.06,2.06,0,0,1,2,2.12v.07a2.67,2.67,0,0,1-2.53,2.81Zm1.67-2.49c-.61-.41-.94-.78-1.33-.86-.62-.13-1.5.66-1.29,1.18s.79,1,1.11.89.86-.65,1.52-1.21Z"/><path class="cls-7" d="M189.2,101a4.06,4.06,0,0,1-.11-6.07c1.43-1.35,4.77-.48,5.34,1.49a8.06,8.06,0,0,1,.19,3,2.93,2.93,0,0,0,.34,2.1,4.09,4.09,0,0,1,.39,3.44,4.21,4.21,0,0,1-4.63,2.65,3.73,3.73,0,0,1-2.3-4.51C188.64,102.46,188.91,101.83,189.2,101Zm3.65-3.17a11.72,11.72,0,0,0-.23-1.23c-.16-.53-.24-1.15-1-1.21a1.38,1.38,0,0,0-1.47.92,3.61,3.61,0,0,0-.21,3.09,1.29,1.29,0,0,0,2.47.13A5.53,5.53,0,0,0,192.85,97.86Zm.06,3.58c-2.06.47-2.67,1.31-2.45,3.37.11,1.1.55,1.4,1.6,1.15a1.61,1.61,0,0,0,1.35-1.35A3.56,3.56,0,0,0,192.91,101.44Z"/><path class="cls-7" d="M204.14,106.38a4.43,4.43,0,0,1-1.34-.92c-.83-1.09-.17-4.29.94-5.1.73-.54,2.86.1,3.43,1,1,1.64-.25,4.54-2.11,4.89A5.08,5.08,0,0,1,204.14,106.38Zm1.7-2.39c0-1.13-.49-1.83-1.07-1.8a1.47,1.47,0,0,0-1.23,1.41,1.17,1.17,0,0,0,1.16,1.18h.18c.43-.12.76-.61,1-.79Z"/><path class="cls-7" d="M206.07,93.71c-.34,1.94-6.37,10.42-8.41,11.68a10.9,10.9,0,0,1,.57-1.67C200.45,99.76,204.53,94.55,206.07,93.71Z"/><path class="cls-7" d="M199.83,97.43a1.9,1.9,0,0,1-2.14-2,3.25,3.25,0,0,1,2.73-3,2.06,2.06,0,0,1,2,2.12v.07a2.67,2.67,0,0,1-2.53,2.81Zm1.67-2.49c-.61-.41-.94-.78-1.33-.86-.62-.13-1.5.66-1.29,1.18s.79,1,1.11.89S200.85,95.55,201.5,94.94Z"/><path class="cls-7" d="M200.49,121.39c-1.56,1.27-3.27.67-4.85,1.33l-.19,2.25c.8.1,1.52.15,2.22.29a3.51,3.51,0,0,1,2.71,4.16q0,.12-.06.24a3.2,3.2,0,0,1-1.5,1.51c-1.58.83-3.67.68-6.37-.3.35-.33.58-.73.89-.8a13.41,13.41,0,0,1,2.23-.21c2.24-.1,2.62-.69,1.78-3A13.57,13.57,0,0,0,196,127c-1.81.36-1.8.37-3.33-1a39.35,39.35,0,0,1,.52-4c.11-.49.72-1.2,1.14-1.24a50.65,50.65,0,0,1,5.22,0A6,6,0,0,1,200.49,121.39Z"/><path class="cls-7" d="M211.21,133.61a4.48,4.48,0,0,1-1.36-.93c-.84-1.1-.17-4.33,1-5.16.74-.54,2.89.1,3.46,1,1,1.65-.25,4.59-2.13,4.95A4.39,4.39,0,0,1,211.21,133.61Zm1.71-2.42c0-1.14-.5-1.85-1.08-1.82a1.48,1.48,0,0,0-1.24,1.42,1.18,1.18,0,0,0,1.16,1.2H212c.45-.11.77-.61,1-.79Z"/><path class="cls-7" d="M213.16,120.81c-.34,2-6.44,10.54-8.5,11.81a11,11,0,0,1,.57-1.69C207.48,126.92,211.6,121.62,213.16,120.81Z"/><path class="cls-7" d="M206.85,124.55a1.92,1.92,0,0,1-2.17-2,3.29,3.29,0,0,1,2.76-3,2.08,2.08,0,0,1,2,2.15v.06A2.7,2.7,0,0,1,206.85,124.55Zm1.69-2.52a6.35,6.35,0,0,0-1.35-.87c-.63-.13-1.51.67-1.31,1.2s.79,1,1.12.9c.49-.07.88-.64,1.55-1.21Z"/></g></svg>